<svg width="100" height="100" viewBox="0 0 100 100" fill="none" xmlns="http://www.w3.org/2000/svg">
<path d="M86.0659 47.1099C86.5443 52.6186 89.1608 57.721 93.355 61.3243" stroke="#F8B62D" stroke-width="1.25458" stroke-miterlimit="10" stroke-linecap="round"/>
<path d="M78.3377 47.3481H17.3774V64.3979C17.3774 68.9144 20.3383 73.4184 26.285 76.8434C38.1408 83.6934 57.4363 83.7436 69.3925 76.8434C75.3518 73.3933 78.3251 68.8893 78.3251 64.3854L78.3377 47.3481Z" fill="#595757"/>
<path d="M78.3377 47.3481H17.3774V64.3979C17.3774 68.9144 20.3383 73.4184 26.285 76.8434C38.1408 83.6934 57.4363 83.7436 69.3925 76.8434C75.3518 73.3933 78.3251 68.8893 78.3251 64.3854L78.3377 47.3481Z" fill="url(#paint0_linear_391_904)"/>
<path d="M9.04711 47.1098L45.3171 68.5757C45.9467 68.9452 46.6635 69.1399 47.3935 69.1399C48.1235 69.1399 48.8402 68.9452 49.4698 68.5757L86.6306 47.1098C87.262 46.752 87.7872 46.2331 88.1526 45.6061C88.518 44.979 88.7105 44.2662 88.7105 43.5405C88.7105 42.8148 88.518 42.102 88.1526 41.4749C87.7872 40.8479 87.262 40.329 86.6306 39.9712L48.9052 18.7813C48.2797 18.4201 47.5701 18.23 46.8477 18.23C46.1254 18.23 45.4158 18.4201 44.7902 18.7813L9.04711 40.0088C8.42458 40.3692 7.90774 40.887 7.54844 41.5101C7.18914 42.1333 7 42.84 7 43.5593C7 44.2786 7.18914 44.9853 7.54844 45.6085C7.90774 46.2317 8.42458 46.7494 9.04711 47.1098Z" fill="url(#paint1_linear_391_904)"/>
<path d="M9.07446 45.8798L45.3445 67.3457C45.9741 67.7152 46.6908 67.91 47.4208 67.91C48.1508 67.91 48.8676 67.7152 49.4972 67.3457L86.6579 45.8798C87.2893 45.522 87.8145 45.0031 88.18 44.3761C88.5454 43.749 88.7379 43.0363 88.7379 42.3105C88.7379 41.5848 88.5454 40.872 88.18 40.245C87.8145 39.6179 87.2893 39.099 86.6579 38.7412L48.9326 17.5513C48.307 17.1901 47.5974 17 46.8751 17C46.1527 17 45.4431 17.1901 44.8175 17.5513L9.07446 38.7789C8.45192 39.1393 7.93508 39.657 7.57578 40.2802C7.21648 40.9033 7.02734 41.61 7.02734 42.3293C7.02734 43.0487 7.21648 43.7553 7.57578 44.3785C7.93508 45.0017 8.45192 45.5194 9.07446 45.8798Z" fill="url(#paint2_linear_391_904)"/>
<defs>
<linearGradient id="paint0_linear_391_904" x1="17.3774" y1="64.6739" x2="78.3377" y2="64.6739" gradientUnits="userSpaceOnUse">
<stop stop-color="#595757"/>
<stop offset="0.885417" stop-color="#353535"/>
<stop offset="1" stop-color="#504E58"/>
</linearGradient>
<linearGradient id="paint1_linear_391_904" x1="47.8553" y1="18.23" x2="47.8553" y2="69.1399" gradientUnits="userSpaceOnUse">
<stop stop-color="#1D1D1D"/>
<stop offset="1" stop-color="#3A3838"/>
</linearGradient>
<linearGradient id="paint2_linear_391_904" x1="47.8826" y1="17" x2="47.8826" y2="67.91" gradientUnits="userSpaceOnUse">
<stop stop-color="#595757"/>
<stop offset="1" stop-color="#3A3838"/>
</linearGradient>
</defs>
</svg>
