<svg width="100" height="100" viewBox="0 0 100 100" fill="none" xmlns="http://www.w3.org/2000/svg">
<path d="M29.0829 30.1745C28.3737 27.0563 28.2847 23.8292 28.8209 20.6767C28.9162 19.5642 29.2317 18.4817 29.7489 17.4922C30.2662 16.5027 30.9749 15.6258 31.834 14.9125C33.5571 13.94 35.548 13.5495 37.5108 13.799C40.1949 13.6754 42.8303 14.5461 44.9126 16.2444C47.096 18.4278 47.3361 21.8776 47.4016 24.978" stroke="white" stroke-width="0.8" stroke-linecap="round" stroke-linejoin="round"/>
<path d="M53.0132 25.8734C52.8309 23.9304 52.8895 21.9723 53.1879 20.0437C53.4869 18.0999 54.4703 16.3267 55.9608 15.0437C58.123 13.5982 60.7478 13.0141 63.3189 13.4061C64.832 13.404 66.3256 13.7475 67.6857 14.4105C68.6318 15.013 69.4425 15.8053 70.0664 16.7374C70.6903 17.6695 71.1138 18.721 71.3101 19.8254C71.6668 22.0276 71.7182 24.2685 71.463 26.4847" stroke="white" stroke-width="0.8" stroke-linecap="round" stroke-linejoin="round"/>
<path d="M25.3057 40.2838C21.6736 43.3603 18.8797 47.3065 17.1845 51.7544C15.4894 56.2023 14.9482 61.007 15.6114 65.7205C15.923 68.4244 16.7929 71.0342 18.166 73.3843C19.6237 75.5984 21.5092 77.4988 23.7118 78.9738C36.2446 87.9257 52.4018 88.2096 66.8123 84.0829C71.3288 83.0399 75.4877 80.8173 78.8647 77.6419C82.8421 72.9323 84.9069 66.9014 84.6507 60.7423C84.7066 56.1925 83.6577 51.6971 81.594 47.6419C79.6746 44.3062 77.0405 41.4368 73.8808 39.2397C70.7211 37.0426 67.1141 35.5724 63.3188 34.9345C56.0699 33.4498 48.6027 34.3231 41.2664 35.2183" stroke="white" stroke-width="0.8" stroke-linecap="round" stroke-linejoin="round"/>
<path d="M50.3274 68.3189C50.271 68.3036 50.2117 68.3026 50.1548 68.3161C50.0979 68.3296 50.0453 68.3572 50.0019 68.3963C49.9584 68.4354 49.9255 68.4848 49.9061 68.54C49.8866 68.5951 49.8814 68.6542 49.8907 68.7119" stroke="white" stroke-width="0.8" stroke-linecap="round" stroke-linejoin="round"/>
<path d="M34.2357 61.6376C34.0871 62.0642 34.0746 62.5264 34.1997 62.9605C34.3248 63.3946 34.5815 63.7792 34.9344 64.0612C35.2929 64.3359 35.7367 64.4755 36.1879 64.4555C36.6391 64.4356 37.0688 64.2573 37.4016 63.952C37.5635 63.799 37.6925 63.6145 37.7806 63.4099C37.8688 63.2053 37.9142 62.9849 37.9142 62.7621C37.9142 62.5393 37.8688 62.3189 37.7806 62.1143C37.6925 61.9096 37.5635 61.7252 37.4016 61.5721C36.8715 61.2093 36.2266 61.0539 35.5894 61.1354C35.375 61.1203 35.1597 61.1493 34.9569 61.2207C34.7541 61.292 34.5681 61.4042 34.4104 61.5503C34.1484 61.8996 34.4104 62.5547 34.7816 62.4892" stroke="white" stroke-width="0.8" stroke-linecap="round" stroke-linejoin="round"/>
<path d="M64.2142 61.5939C64.0549 61.7518 63.9307 61.9416 63.8497 62.1508C63.7688 62.36 63.7329 62.584 63.7444 62.808C63.756 63.0321 63.8147 63.2511 63.9167 63.4509C64.0187 63.6507 64.1618 63.8267 64.3365 63.9674C64.5112 64.1081 64.7137 64.2104 64.9306 64.2675C65.1476 64.3245 65.3741 64.3352 65.5955 64.2987C65.8168 64.2622 66.028 64.1794 66.2151 64.0557C66.4023 63.932 66.5612 63.7702 66.6815 63.5808C66.8009 63.3144 66.8549 63.0234 66.8392 62.732C66.8234 62.4405 66.7384 62.157 66.591 61.905C66.4437 61.653 66.2383 61.4399 65.992 61.2832C65.7457 61.1266 65.4656 61.031 65.1749 61.0044C64.6192 61.0386 64.0766 61.1872 63.5811 61.4411" stroke="white" stroke-width="0.8" stroke-linecap="round" stroke-linejoin="round"/>
<path d="M35.9608 62.0308L35.0874 62.664L35.7643 62.8823C35.8794 62.8064 35.96 62.6883 35.9886 62.5534C36.0172 62.4185 35.9915 62.2778 35.9171 62.1618L36.725 63.3408C36.8868 63.2281 37.0191 63.0779 37.1103 62.903C37.2016 62.7281 37.2491 62.5337 37.249 62.3364C37.1148 62.2821 36.97 62.2587 36.8255 62.2682C36.681 62.2776 36.5405 62.3196 36.4145 62.391C36.2885 62.4624 36.1803 62.5613 36.098 62.6804C36.0156 62.7995 35.9612 62.9357 35.9389 63.0788C36.0875 63.1506 36.2541 63.1765 36.4174 63.1532C36.5808 63.1299 36.7335 63.0583 36.856 62.9478C36.856 62.6858 36.3756 62.6421 36.3319 62.9478" stroke="white" stroke-width="0.8" stroke-linecap="round" stroke-linejoin="round"/>
<path d="M64.4761 62.489C64.2989 62.6614 64.1969 62.8968 64.1923 63.144C64.4106 63.3187 64.7599 62.9475 64.6289 62.7073C64.5451 62.5896 64.421 62.5068 64.2801 62.4746C64.1392 62.4424 63.9914 62.463 63.8647 62.5327V63.7554C63.9997 63.7772 64.1378 63.767 64.2681 63.7257C64.3984 63.6844 64.5171 63.6131 64.6148 63.5175C64.7125 63.4219 64.7864 63.3048 64.8306 63.1754C64.8748 63.0461 64.8879 62.9082 64.8691 62.7728C64.7872 62.8394 64.7284 62.9301 64.7009 63.032C64.6735 63.1339 64.6789 63.2418 64.7163 63.3405H65.7425C65.7584 63.2762 65.7544 63.2085 65.731 63.1465C65.7076 63.0844 65.666 63.031 65.6116 62.9931C65.5571 62.9552 65.4925 62.9348 65.4262 62.9345C65.3599 62.9341 65.2951 62.9539 65.2403 62.9912L65.5678 62.5327C65.1311 62.358 64.6508 63.0348 65.0001 63.3842C65.1416 63.3749 65.2785 63.3305 65.3984 63.2549C65.5183 63.1793 65.6175 63.075 65.6869 62.9513C65.7563 62.8277 65.7937 62.6888 65.7958 62.547C65.7979 62.4053 65.7645 62.2652 65.6988 62.1396" stroke="white" stroke-width="0.8" stroke-linecap="round" stroke-linejoin="round"/>
<path d="M36.7031 51.5938C38.8812 51.9561 40.9795 52.6949 42.904 53.7772" stroke="white" stroke-width="0.8" stroke-linecap="round" stroke-linejoin="round"/>
<path d="M60.3931 53.5373C62.464 52.6834 64.727 52.4043 66.9433 52.7294" stroke="white" stroke-width="0.8" stroke-linecap="round" stroke-linejoin="round"/>
<path d="M46.5285 75.1527C46.3919 76.1608 46.6228 77.1844 47.1787 78.0363C47.7347 78.8883 48.5787 79.5116 49.5565 79.7925C50.5342 80.0734 51.5804 79.993 52.5038 79.566C53.4271 79.139 54.166 78.394 54.5853 77.4672C54.924 76.258 54.9689 74.9854 54.7163 73.7554L45.6333 74.061" stroke="white" stroke-width="0.8" stroke-linecap="round" stroke-linejoin="round"/>
</svg>
