<svg width="46" height="46" viewBox="0 0 46 46" fill="none" xmlns="http://www.w3.org/2000/svg">
<path d="M35.58 15.35C35.278 15.8462 34.8655 16.2659 34.3746 16.5764C33.8837 16.8869 33.3277 17.0798 32.75 17.14C31.6 17.32 29.96 16.71 28.82 16.52C29.5454 17.6061 30.0108 18.8448 30.18 20.14C30.3431 21.4473 29.9838 22.7662 29.18 23.81C28.5949 24.4348 27.8891 24.9342 27.1052 25.278C26.3214 25.6218 25.4759 25.8028 24.62 25.81C23.2513 25.9554 21.8675 25.7929 20.5698 25.3344C19.2721 24.8758 18.0934 24.1329 17.12 23.16C15.28 21.16 14.85 17.75 16.57 15.61C14.9917 15.3039 13.3591 15.4494 11.86 16.03C11.1921 16.3502 10.6198 16.8398 10.2 17.45" stroke="white" stroke-width="0.8" stroke-linecap="round" stroke-linejoin="round"/>
<path d="M26.4399 27.13C27.1739 28.0798 27.5651 29.2498 27.5499 30.45" stroke="white" stroke-width="0.8" stroke-linecap="round" stroke-linejoin="round"/>
<path d="M18.4099 26.44C18.2572 26.7624 18.0342 27.0464 17.7573 27.2714C17.4804 27.4963 17.1567 27.6565 16.8099 27.74C16.1114 27.8966 15.3929 27.9438 14.6799 27.88" stroke="white" stroke-width="0.8" stroke-linecap="round" stroke-linejoin="round"/>
</svg>
