<svg width="46" height="46" viewBox="0 0 46 46" fill="none" xmlns="http://www.w3.org/2000/svg">
<path d="M15.83 16.75C15.098 18.0687 14.7842 19.5788 14.93 21.08C15.007 21.8216 15.2294 22.5407 15.5846 23.1961C15.9398 23.8516 16.4208 24.4306 17 24.9C18.1432 25.6809 19.4862 26.1181 20.87 26.16C23.3855 26.3948 25.9048 25.7518 28 24.34C29.4111 23.4082 30.421 21.9807 30.83 20.34C31.0008 19.5403 30.9421 18.7086 30.6608 17.9407C30.3795 17.1729 29.887 16.5001 29.24 16" stroke="white" stroke-width="0.8" stroke-linecap="round" stroke-linejoin="round"/>
<path d="M17.41 17.66C17.4086 18.0389 17.5498 18.4045 17.8054 18.6843C18.061 18.964 18.4125 19.1374 18.79 19.17C19.1691 19.1839 19.5443 19.0898 19.8718 18.8986C20.1994 18.7073 20.4658 18.4269 20.64 18.09C20.85 17.7 20.95 17.26 21.14 16.86" stroke="white" stroke-width="0.8" stroke-linecap="round" stroke-linejoin="round"/>
<path d="M24.14 17.27C24.2581 17.6373 24.4694 17.9676 24.7534 18.2288C25.0373 18.49 25.3842 18.673 25.76 18.76C26.2403 18.95 26.7673 18.9883 27.27 18.87C27.52 18.8074 27.7429 18.6653 27.9052 18.4652C28.0675 18.265 28.1604 18.0175 28.17 17.76" stroke="white" stroke-width="0.8" stroke-linecap="round" stroke-linejoin="round"/>
<path d="M19.9 27.86C19.7489 28.5611 19.4926 29.2354 19.14 29.86" stroke="white" stroke-width="0.8" stroke-linecap="round" stroke-linejoin="round"/>
<path d="M27 27.18C27.4292 27.9945 27.9565 28.7535 28.57 29.44" stroke="white" stroke-width="0.8" stroke-linecap="round" stroke-linejoin="round"/>
</svg>
