<svg width="101" height="100" viewBox="0 0 101 100" fill="none" xmlns="http://www.w3.org/2000/svg">
<path d="M25.2818 35.9172C21.6497 38.9937 18.8557 42.9398 17.1606 47.3877C15.4654 51.8356 14.9242 56.6403 15.5875 61.3539C15.9028 64.057 16.7724 66.6659 18.1421 69.0176C19.6195 71.223 21.5102 73.1211 23.7098 74.6071C36.2425 83.5591 52.3997 83.8429 66.7884 79.6945C71.3089 78.6746 75.4719 76.4574 78.8408 73.2753C82.8309 68.5643 84.8972 62.5216 84.6268 56.3539C84.6791 51.807 83.6382 47.3141 81.5919 43.2534C79.6676 39.9327 77.0372 37.0753 73.8868 34.8832C70.7364 32.6911 67.1429 31.218 63.3604 30.5678C56.0897 29.1049 48.6224 29.9783 41.2862 30.8517" stroke="white" stroke-width="0.8" stroke-linecap="round" stroke-linejoin="round"/>
<path d="M50.4127 64.1051C50.3577 64.094 50.301 64.0962 50.2471 64.1117C50.1932 64.1272 50.1439 64.1553 50.1032 64.1939C50.0626 64.2324 50.0317 64.2802 50.0134 64.3331C49.995 64.3861 49.9897 64.4426 49.9978 64.4981" stroke="white" stroke-width="0.8" stroke-linecap="round" stroke-linejoin="round"/>
<path d="M46.3516 68.5811C46.8542 69.3196 47.5297 69.924 48.3194 70.3417C49.109 70.7595 49.9888 70.9779 50.8821 70.9779C51.7755 70.9779 52.6552 70.7595 53.4449 70.3417C54.2345 69.924 54.9101 69.3196 55.4127 68.5811" stroke="white" stroke-width="0.8" stroke-linecap="round" stroke-linejoin="round"/>
<path d="M34.3212 57.4237C34.1774 57.8547 34.1717 58.3198 34.3047 58.7542C34.4378 59.1886 34.7031 59.5707 35.0636 59.8472C35.4266 60.1503 35.8896 60.307 36.362 60.2868C36.8344 60.2666 37.2824 60.071 37.6182 59.7381C37.7773 59.5834 37.9038 59.3984 37.9902 59.194C38.0765 58.9896 38.121 58.77 38.121 58.5481C38.121 58.3262 38.0765 58.1066 37.9902 57.9022C37.9038 57.6978 37.7773 57.5128 37.6182 57.3582C37.0813 57.0121 36.44 56.8653 35.806 56.9433C35.5928 56.9212 35.3773 56.9448 35.174 57.0126C34.9707 57.0803 34.7842 57.1907 34.6269 57.3363C34.3649 57.6857 34.6269 58.3407 35.0199 58.2752" stroke="white" stroke-width="0.8" stroke-linecap="round" stroke-linejoin="round"/>
<path d="M64.2993 57.3799C64.1437 57.5421 64.0226 57.7343 63.9434 57.9448C63.8643 58.1552 63.8288 58.3796 63.839 58.6042C63.8492 58.8288 63.9049 59.049 64.0028 59.2514C64.1007 59.4538 64.2388 59.6342 64.4085 59.7817C64.5879 59.9168 64.7931 60.0136 65.0114 60.066C65.2297 60.1185 65.4565 60.1255 65.6777 60.0866C65.8988 60.0477 66.1096 59.9637 66.297 59.8399C66.4843 59.7161 66.6441 59.555 66.7666 59.3668C66.8959 59.1 66.9577 58.8056 66.9467 58.5093C66.9357 58.213 66.8522 57.924 66.7035 57.6675C66.5548 57.411 66.3454 57.1949 66.0938 57.0382C65.8421 56.8815 65.5558 56.7889 65.26 56.7686C64.7118 56.8057 64.1768 56.9543 63.688 57.2052" stroke="white" stroke-width="0.8" stroke-linecap="round" stroke-linejoin="round"/>
<path d="M36.0676 57.8384L35.1724 58.4497L35.8711 58.6681C35.9763 58.5895 36.0498 58.4756 36.0778 58.3472C36.1059 58.2189 36.0868 58.0847 36.0239 57.9694L36.8318 59.1266C36.9938 59.0156 37.125 58.8651 37.2128 58.6894C37.3007 58.5137 37.3424 58.3185 37.3339 58.1222C37.2012 58.0675 37.0576 58.044 36.9143 58.0534C36.771 58.0629 36.6318 58.1051 36.5074 58.1768C36.3829 58.2485 36.2766 58.3478 36.1966 58.467C36.1166 58.5863 36.0649 58.7223 36.0457 58.8646C36.1943 58.9364 36.3609 58.9623 36.5242 58.939C36.6876 58.9156 36.8403 58.8441 36.9628 58.7336C36.9628 58.4716 36.4606 58.4279 36.4169 58.7336" stroke="white" stroke-width="0.8" stroke-linecap="round" stroke-linejoin="round"/>
<path d="M64.5611 58.297C64.3891 58.464 64.2875 58.6906 64.2772 58.9301C64.5174 59.1048 64.8449 58.7336 64.7139 58.4935C64.6334 58.3717 64.5091 58.2856 64.3668 58.253C64.2245 58.2205 64.0751 58.2441 63.9497 58.3188V59.5415C64.0838 59.5644 64.2215 59.5548 64.3512 59.5135C64.4808 59.4722 64.5987 59.4004 64.6949 59.3042C64.7912 59.208 64.8629 59.0901 64.9042 58.9604C64.9455 58.8308 64.9551 58.6931 64.9322 58.559C64.8541 58.6282 64.7995 58.7201 64.776 58.8219C64.7525 58.9236 64.7613 59.0302 64.8012 59.1267H65.8274C65.8274 58.8646 65.5218 58.5808 65.3034 58.7773L65.6528 58.3188C65.1943 58.1441 64.7357 58.821 65.0632 59.1703C65.2047 59.161 65.3416 59.1166 65.4615 59.041C65.5814 58.9654 65.6806 58.8611 65.75 58.7375C65.8194 58.6139 65.8568 58.4749 65.8589 58.3331C65.861 58.1914 65.8277 58.0514 65.7619 57.9258" stroke="white" stroke-width="0.8" stroke-linecap="round" stroke-linejoin="round"/>
<path d="M30.2163 47.7292C30.8954 46.9268 31.7319 46.2723 32.674 45.8061C33.6162 45.3399 34.6439 45.0718 35.6938 45.0186C36.7436 44.9654 37.7932 45.1281 38.7776 45.4967C39.7621 45.8653 40.6604 46.4319 41.4172 47.1615" stroke="white" stroke-width="0.8" stroke-linecap="round" stroke-linejoin="round"/>
<path d="M59.8013 47.7292C61.2825 46.6084 63.107 46.0369 64.963 46.1126C66.8189 46.1883 68.5909 46.9064 69.9759 48.1441" stroke="white" stroke-width="0.8" stroke-linecap="round" stroke-linejoin="round"/>
<path d="M37.3559 26.7687C32.7708 25.8517 29.2773 22.2272 25.1507 20.0657C22.6513 18.7924 19.9158 18.0491 17.1158 17.8822C15.7062 17.6306 14.2561 17.7366 12.8981 18.1905C11.5401 18.6445 10.3177 19.4318 9.34284 20.4805C7.33411 23.3189 8.64415 27.5111 11.2861 29.7818C14.1086 31.8232 17.3955 33.1289 20.8494 33.5809" stroke="white" stroke-width="0.8" stroke-linecap="round" stroke-linejoin="round"/>
<path d="M64.7793 26.5722C68.7749 25.677 72.0064 22.7949 75.6963 20.9172C78.3227 19.5613 81.1827 18.7167 84.1243 18.4281C85.9465 18.1758 87.803 18.3938 89.5173 19.0613C90.3653 19.4104 91.1031 19.9823 91.6527 20.7165C92.2024 21.4506 92.5433 22.3196 92.6396 23.2316C92.64 23.9527 92.4952 24.6665 92.2139 25.3305C91.9326 25.9944 91.5204 26.595 91.002 27.0962C89.9515 28.0753 88.777 28.9122 87.5086 29.5853C85.2625 31.2265 82.5609 32.127 79.7793 32.1617" stroke="white" stroke-width="0.8" stroke-linecap="round" stroke-linejoin="round"/>
</svg>
