<svg width="46" height="46" viewBox="0 0 46 46" fill="none" xmlns="http://www.w3.org/2000/svg">
<path d="M10.22 15.35C10.5219 15.8463 10.9344 16.266 11.4253 16.5765C11.9162 16.887 12.4722 17.0799 13.05 17.14C14.2 17.32 15.84 16.71 16.98 16.52C16.2545 17.6062 15.7892 18.8449 15.62 20.14C15.4568 21.4473 15.8162 22.7662 16.62 23.81C17.205 24.4348 17.9109 24.9342 18.6947 25.278C19.4786 25.6218 20.3241 25.8028 21.18 25.81C22.5486 25.9554 23.9324 25.7929 25.2301 25.3344C26.5278 24.8759 27.7065 24.133 28.68 23.16C30.52 21.16 30.95 17.75 29.23 15.61C30.8082 15.3039 32.4408 15.4495 33.94 16.03C34.6078 16.3503 35.1802 16.8398 35.6 17.45" stroke="white" stroke-width="0.8" stroke-linecap="round" stroke-linejoin="round"/>
<path d="M19.3599 27.13C18.626 28.0798 18.2348 29.2498 18.2499 30.45" stroke="white" stroke-width="0.8" stroke-linecap="round" stroke-linejoin="round"/>
<path d="M27.39 26.4401C27.5428 26.7624 27.7658 27.0465 28.0426 27.2714C28.3195 27.4964 28.6432 27.6565 28.99 27.7401C29.6885 27.8966 30.407 27.9438 31.12 27.8801" stroke="white" stroke-width="0.8" stroke-linecap="round" stroke-linejoin="round"/>
</svg>
