<svg width="100" height="100" viewBox="0 0 100 100" fill="none" xmlns="http://www.w3.org/2000/svg">
<path d="M25.3054 35.4587C21.6719 38.5292 18.8766 42.4713 17.1811 46.9161C15.4857 51.3609 14.9455 56.1632 15.6111 60.8736C15.9227 63.5775 16.7926 66.1873 18.1657 68.5374C19.6119 70.7908 21.4982 72.7291 23.7116 74.236C36.2443 83.1007 52.4015 83.3627 66.812 79.236C71.3322 78.2029 75.4936 75.979 78.8644 72.795C82.8474 68.0886 84.9131 62.0554 84.6504 55.8954C84.7063 51.3456 83.6574 46.8502 81.5936 42.795C79.672 39.457 77.038 36.5837 73.8792 34.3798C70.7205 32.1758 67.1147 30.6954 63.3185 30.0439C56.0696 28.581 48.6024 29.4544 41.2661 30.3277" stroke="white" stroke-width="0.8" stroke-linecap="round" stroke-linejoin="round"/>
<path d="M25.3709 32.4892C24.9527 29.7729 25.223 26.9952 26.1569 24.4106C26.7265 22.4781 27.8499 20.755 29.3884 19.4542C30.1532 18.8293 31.0755 18.4273 32.0539 18.2925C33.0323 18.1576 34.0289 18.2952 34.9342 18.69C35.7158 19.147 36.4166 19.7298 37.0085 20.4149C38.9735 22.5983 40.8949 24.7817 42.7072 26.9651" stroke="white" stroke-width="0.8" stroke-linecap="round" stroke-linejoin="round"/>
<path d="M62.7944 27.6858C62.6852 27.8605 62.3795 27.6858 62.314 27.5329C62.2946 27.3213 62.3571 27.1103 62.4887 26.9434C64.5239 23.4609 67.6347 20.7332 71.3533 19.1705C72.0403 18.856 72.7818 18.678 73.5367 18.6465C74.6352 18.7289 75.6772 19.1656 76.5062 19.891C78.6616 21.6834 80.191 24.1151 80.873 26.8343C81.5102 29.5285 81.7238 32.3057 81.5062 35.0657" stroke="white" stroke-width="0.8" stroke-linecap="round" stroke-linejoin="round"/>
<path d="M50.3274 61.7467C50.2716 61.7366 50.2142 61.7393 50.1596 61.7548C50.105 61.7703 50.0547 61.7981 50.0125 61.836C49.9704 61.874 49.9374 61.9211 49.9163 61.9737C49.8952 62.0264 49.8864 62.0832 49.8907 62.1397" stroke="white" stroke-width="0.8" stroke-linecap="round" stroke-linejoin="round"/>
<path d="M34.2356 55.0657C34.1006 55.4971 34.0948 55.9585 34.2189 56.393C34.3431 56.8276 34.5918 57.2163 34.9343 57.5112C35.2944 57.7818 35.7374 57.9188 36.1875 57.8989C36.6375 57.879 37.0667 57.7034 37.4015 57.402C37.5613 57.2455 37.6882 57.0586 37.7749 56.8524C37.8615 56.6462 37.9061 56.4248 37.9061 56.2011C37.9061 55.9775 37.8615 55.756 37.7749 55.5498C37.6882 55.3436 37.5613 55.1568 37.4015 55.0002C36.8646 54.6541 36.2233 54.5073 35.5893 54.5854C35.3741 54.56 35.156 54.5841 34.9517 54.656C34.7473 54.7279 34.5621 54.8457 34.4103 55.0002C34.1483 55.3278 34.4103 55.9828 34.7814 55.9173" stroke="white" stroke-width="0.8" stroke-linecap="round" stroke-linejoin="round"/>
<path d="M64.2138 55.0436C64.0468 55.2001 63.9155 55.3906 63.8287 55.6024C63.7419 55.8141 63.7018 56.0421 63.711 56.2707C63.7202 56.4993 63.7785 56.7233 63.8819 56.9274C63.9854 57.1315 64.1316 57.3109 64.3106 57.4535C64.4896 57.596 64.6972 57.6984 64.9192 57.7535C65.1413 57.8087 65.3726 57.8154 65.5975 57.7732C65.8224 57.731 66.0356 57.6409 66.2225 57.509C66.4095 57.3771 66.5659 57.2064 66.681 57.0087C66.8011 56.7438 66.8556 56.4538 66.84 56.1634C66.8244 55.873 66.7391 55.5905 66.5914 55.34C66.4436 55.0895 66.2377 54.8782 65.9911 54.724C65.7445 54.5698 65.4644 54.4772 65.1745 54.4541C64.6186 54.4698 64.0735 54.6116 63.5806 54.8689" stroke="white" stroke-linecap="round" stroke-linejoin="round"/>
<path d="M35.9603 55.4805L35.0869 56.0918L35.7638 56.332C35.8789 56.2562 35.9595 56.138 35.9881 56.0031C36.0167 55.8682 35.991 55.7275 35.9166 55.6115L36.7245 56.7905C36.8867 56.6731 37.0189 56.5189 37.11 56.3405C37.201 56.1621 37.2485 55.9646 37.2485 55.7643C37.114 55.7141 36.9702 55.6939 36.8271 55.7053C36.684 55.7166 36.5452 55.7592 36.4203 55.8299C36.2954 55.9007 36.1876 55.9979 36.1043 56.1149C36.0211 56.2318 35.9645 56.3655 35.9384 56.5067C36.0855 56.5848 36.2535 56.6142 36.4183 56.5906C36.5831 56.5671 36.7362 56.4918 36.8555 56.3757C36.8555 56.1137 36.3751 56.07 36.3315 56.3757" stroke="white" stroke-width="0.8" stroke-linecap="round" stroke-linejoin="round"/>
<path d="M64.4756 55.9389C64.3885 56.0203 64.3186 56.1182 64.2698 56.2269C64.2211 56.3356 64.1946 56.453 64.1918 56.5721C64.4101 56.7686 64.7595 56.3974 64.6285 56.1354C64.5417 56.0214 64.4177 55.9414 64.278 55.9095C64.1384 55.8776 63.9919 55.8957 63.8643 55.9607V57.1835C63.9992 57.2053 64.1373 57.1951 64.2676 57.1538C64.3979 57.1125 64.5166 57.0412 64.6143 56.9456C64.712 56.85 64.7859 56.7329 64.8301 56.6035C64.8743 56.4742 64.8875 56.3363 64.8686 56.2009C64.7867 56.2675 64.7279 56.3582 64.7005 56.4601C64.673 56.562 64.6784 56.6699 64.7158 56.7686H65.742C65.742 56.5066 65.4581 56.2228 65.2398 56.3974L65.5673 55.9389C65.1306 55.7642 64.6503 56.4629 64.9996 56.7904C65.1436 56.787 65.2842 56.7462 65.4076 56.672C65.531 56.5978 65.6329 56.4927 65.7034 56.3671C65.7739 56.2416 65.8105 56.0998 65.8096 55.9558C65.8087 55.8119 65.7704 55.6706 65.6983 55.5459" stroke="white" stroke-linecap="round" stroke-linejoin="round"/>
<path d="M29.8687 46.6158C31.324 45.6051 33.0335 45.0226 34.8031 44.9346" stroke="white" stroke-width="0.8" stroke-linecap="round" stroke-linejoin="round"/>
<path d="M63.4932 43.668C65.7611 43.4556 68.0475 43.7694 70.1744 44.5851" stroke="white" stroke-linecap="round" stroke-linejoin="round"/>
<path d="M47.3799 68.7339C47.8653 69.2791 48.4606 69.7154 49.1267 70.0141C49.7928 70.3129 50.5145 70.4674 51.2445 70.4674C51.9745 70.4674 52.6962 70.3129 53.3623 70.0141C54.0284 69.7154 54.6237 69.2791 55.1091 68.7339" stroke="white" stroke-width="0.8" stroke-linecap="round" stroke-linejoin="round"/>
</svg>
