<svg width="100" height="100" viewBox="0 0 100 100" fill="none" xmlns="http://www.w3.org/2000/svg">
<path d="M77.6854 33.5151C77.0261 34.5986 76.1254 35.515 75.0536 36.193C73.9817 36.8709 72.7677 37.292 71.5063 37.4234C68.9954 37.8164 65.4146 36.4846 62.9255 36.0697C64.5095 38.4412 65.5256 41.1459 65.895 43.9736C66.2513 46.828 65.4666 49.7077 63.7116 51.9868C62.4342 53.3509 60.893 54.4414 59.1816 55.192C57.4701 55.9426 55.624 56.3378 53.7552 56.3536C50.767 56.671 47.7456 56.3162 44.9122 55.3151C42.0788 54.314 39.5051 52.6919 37.3797 50.5675C33.3622 46.2007 32.4233 38.7553 36.1788 34.0828C32.7329 33.4144 29.1683 33.7323 25.895 34.9999C24.4367 35.699 23.1871 36.768 22.2705 38.1003" stroke="white" stroke-width="0.8" stroke-linecap="round" stroke-linejoin="round"/>
<path d="M57.729 59.2358C59.3315 61.3096 60.1856 63.8642 60.1526 66.4848" stroke="white" stroke-width="0.8" stroke-linecap="round" stroke-linejoin="round"/>
<path d="M40.1963 57.729C39.8628 58.4328 39.3759 59.0531 38.7714 59.5443C38.1669 60.0354 37.4601 60.385 36.7029 60.5674C35.1778 60.9092 33.6089 61.0124 32.0522 60.8731" stroke="white" stroke-width="0.8" stroke-linecap="round" stroke-linejoin="round"/>
</svg>
