<svg width="101" height="100" viewBox="0 0 101 100" fill="none" xmlns="http://www.w3.org/2000/svg">
<path d="M35.0632 36.5721C33.465 39.4515 32.7797 42.7486 33.0981 46.0263C33.2661 47.6454 33.7518 49.2155 34.5273 50.6467C35.3029 52.0779 36.353 53.342 37.6177 54.3669C40.1139 56.0719 43.046 57.0266 46.0675 57.118C51.5599 57.6307 57.0605 56.2266 61.6352 53.1442C64.7161 51.1097 66.9212 47.993 67.8143 44.4106C68.1871 42.6644 68.0591 40.8485 67.4449 39.172C66.8306 37.4954 65.7553 36.0266 64.3426 34.9346" stroke="white" stroke-width="0.8" stroke-linecap="round" stroke-linejoin="round"/>
<path d="M38.5127 38.5592C38.5096 39.3866 38.8178 40.1849 39.3759 40.7956C39.9341 41.4064 40.7015 41.7849 41.5258 41.8562C42.3534 41.8866 43.1726 41.681 43.8878 41.2635C44.603 40.846 45.1847 40.2337 45.5651 39.4981C46.0236 38.6466 46.242 37.6859 46.6568 36.8125" stroke="white" stroke-width="0.8" stroke-linecap="round" stroke-linejoin="round"/>
<path d="M53.207 37.7075C53.4648 38.5094 53.9263 39.2307 54.5463 39.801C55.1662 40.3712 55.9235 40.7708 56.7442 40.9608C57.7929 41.3755 58.9434 41.4593 60.0411 41.201C60.5869 41.0642 61.0736 40.754 61.4279 40.317C61.7823 39.8799 61.9852 39.3397 62.0062 38.7774" stroke="white" stroke-width="0.8" stroke-linecap="round" stroke-linejoin="round"/>
<path d="M43.9494 60.8296C43.6194 62.3605 43.06 63.8327 42.29 65.1964" stroke="white" stroke-width="0.8" stroke-linecap="round" stroke-linejoin="round"/>
<path d="M59.4517 59.3452C60.3888 61.1237 61.54 62.7808 62.8796 64.2797" stroke="white" stroke-width="0.8" stroke-linecap="round" stroke-linejoin="round"/>
</svg>
