<svg width="100" height="100" viewBox="0 0 100 100" fill="none" xmlns="http://www.w3.org/2000/svg">
<path d="M22.3145 33.5151C22.9737 34.5986 23.8744 35.515 24.9462 36.193C26.0181 36.8709 27.2321 37.292 28.4935 37.4234C31.0044 37.8164 34.5852 36.4846 37.0743 36.0697C35.4903 38.4412 34.4742 41.1459 34.1048 43.9736C33.7485 46.828 34.5332 49.7077 36.2883 51.9868C37.5656 53.3509 39.1068 54.4414 40.8182 55.192C42.5297 55.9426 44.3758 56.3378 46.2446 56.3536C49.2328 56.671 52.2542 56.3162 55.0876 55.3151C57.921 54.314 60.4947 52.6919 62.6201 50.5675C66.6376 46.2007 67.5765 38.7553 63.821 34.0828C67.2669 33.4144 70.8315 33.7323 74.1048 34.9999C75.5631 35.699 76.8127 36.768 77.7293 38.1003" stroke="white" stroke-width="0.8" stroke-linecap="round" stroke-linejoin="round"/>
<path d="M42.2707 59.2358C40.6682 61.3096 39.8141 63.8642 39.8471 66.4848" stroke="white" stroke-width="0.8" stroke-linecap="round" stroke-linejoin="round"/>
<path d="M59.8037 57.729C60.1373 58.4328 60.6242 59.0531 61.2287 59.5443C61.8332 60.0354 62.5399 60.385 63.2972 60.5674C64.8222 60.9092 66.3911 61.0124 67.9478 60.8731" stroke="white" stroke-width="0.8" stroke-linecap="round" stroke-linejoin="round"/>
</svg>
