<svg width="100" height="100" viewBox="0 0 100 100" fill="none" xmlns="http://www.w3.org/2000/svg">
<path d="M88.1001 63.5749C88.4251 63.6999 88.3501 63.5499 88.4001 63.5499C87.8501 63.3999 88.1001 63.6249 88.1001 63.5749Z" fill="white"/>
<path d="M82.55 63.4748L82.65 63.4248C82.4 63.4998 82.125 63.5748 81.875 63.6748L82.55 63.4748Z" fill="white"/>
<path d="M77.6748 64.8C78.1748 64.8 79.3998 64.175 80.2998 64H80.4498L80.7998 63.75C79.7248 64.05 78.3998 64.6 77.6748 64.8Z" fill="white"/>
<path d="M75.0001 65.4252C75.1751 65.4252 74.4751 65.7002 75.6001 65.2002C75.5501 65.2252 75.5251 65.2252 75.4751 65.2252C75.3751 65.2502 75.2501 65.3252 75.0001 65.4252Z" fill="white"/>
<path d="M75.4998 65.2249C75.1498 65.2999 75.9998 64.9999 75.4998 65.2249V65.2249Z" fill="white"/>
<path d="M73.2252 66.2998C73.4252 66.1748 73.6252 66.0498 73.8502 65.9248C73.7002 65.9498 73.1252 66.2498 73.3252 66.0998C72.6502 66.4998 72.8252 66.4498 73.2252 66.2998Z" fill="white"/>
<path d="M72.7002 66.7752C72.8002 66.7002 72.9002 66.6252 73.0002 66.5752C72.9252 66.5752 72.8502 66.6252 72.7002 66.7752Z" fill="white"/>
<path d="M73.675 66.125C73.45 66.25 73.225 66.4 73 66.55C73.1 66.525 73.15 66.575 73.3 66.35C73.275 66.45 73.4 66.325 73.675 66.125Z" fill="white"/>
<path d="M74.0752 65.9499C74.4502 65.7999 74.9252 65.6249 74.3002 65.9749C74.9002 65.6749 75.1752 65.5499 75.1002 65.5249C75.0752 65.5249 74.7002 65.6499 74.0752 65.9499Z" fill="white"/>
<path d="M77.4999 65.075L77.9999 64.95L78.3999 64.75C78.1999 64.85 77.4499 65.025 77.4999 65.075Z" fill="white"/>
<path d="M69.5249 69.0251C69.5249 69.0751 69.7749 68.9001 69.8499 68.9001C69.9749 68.7501 70.0999 68.6251 70.2249 68.4751C69.9999 68.6251 69.5999 69.0251 69.5249 69.0251Z" fill="white"/>
<path d="M69.8501 68.875C69.6751 69.1 69.5001 69.325 69.3501 69.575C69.8251 68.975 69.9251 68.875 69.8501 68.875Z" fill="white"/>
<path d="M72.6751 67C73.0251 66.75 73.3751 66.5 73.7501 66.25C73.3001 66.525 72.8751 66.825 72.4751 67.125L72.6751 67Z" fill="white"/>
<path d="M68.3748 70.75C68.3748 70.75 68.3998 70.725 68.3998 70.7C68.3998 70.675 68.3998 70.65 68.3748 70.625C68.3748 70.65 68.3748 70.675 68.3748 70.7C68.3748 70.725 68.3248 70.75 68.2998 70.775C68.3498 70.75 68.3748 70.75 68.3748 70.75Z" fill="white"/>
<path d="M67.2501 70.1998C67.5751 70.2748 66.9001 69.8998 67.2251 69.9998C66.7251 69.7998 66.2751 69.6498 65.8501 69.5498C66.2751 69.6748 66.7251 69.8748 67.2501 70.1998Z" fill="white"/>
<path d="M65.1748 69.3501C65.3748 69.4251 65.5998 69.4751 65.8498 69.5251C65.6498 69.4751 65.4248 69.4001 65.1748 69.3501Z" fill="white"/>
<path d="M68.65 70.75C68.625 70.75 68.55 70.775 68.5 70.825C68.525 70.85 68.575 70.85 68.6 70.85C68.625 70.8 68.65 70.775 68.65 70.75Z" fill="white"/>
<path d="M70.9501 68.125C70.6251 68.45 69.9501 69.175 70.7001 68.6C70.9001 68.325 70.4751 68.65 70.9501 68.125Z" fill="white"/>
<path d="M68.9751 70.4251C69.1251 70.1751 69.2751 69.9251 69.4501 69.7001C69.4251 69.7001 69.3001 69.8001 69.4001 69.6001C69.2251 69.8501 69.0751 70.1501 68.9751 70.4251Z" fill="white"/>
<path d="M68.8249 70.7998C68.8249 70.7998 68.8499 70.7498 68.8499 70.7248L68.8999 70.6248C68.9249 70.5498 68.9499 70.4998 68.9749 70.4248C68.9249 70.5248 68.8749 70.5998 68.8249 70.6998C68.7999 70.7498 68.7999 70.7748 68.8249 70.7998Z" fill="white"/>
<path d="M66.4751 70.0001C66.1251 69.9001 65.7751 69.7501 65.3501 69.6001C65.5751 69.7001 65.8001 69.8001 66.0001 69.9001C66.2251 70.0001 66.4251 70.1001 66.6501 70.2001C66.7251 70.1751 66.9251 70.2001 66.4751 70.0001Z" fill="white"/>
<path d="M68.0501 70.775C68.0251 70.775 68.0001 70.75 67.9751 70.75C68.0251 70.775 68.0501 70.8 68.0501 70.775Z" fill="white"/>
<path d="M61.1748 68.2749C61.1998 68.2749 61.2248 68.2999 61.2498 68.2999C61.2498 68.2999 61.2498 68.2999 61.2748 68.2749H61.1748Z" fill="white"/>
<path d="M66.6998 70.2248C67.0248 70.3748 67.2248 70.4498 67.4248 70.5248C67.2998 70.4748 67.1748 70.3998 67.0498 70.3498C66.9248 70.2998 66.7748 70.2248 66.6498 70.1748C66.6248 70.1748 66.5998 70.1748 66.6998 70.2248Z" fill="white"/>
<path d="M64.0249 68.9751C64.1999 69.0501 64.3749 69.1501 64.5999 69.2501C64.4249 69.1501 64.0749 68.9751 64.0249 68.9751Z" fill="white"/>
<path d="M67.8748 70.6749C67.8998 70.6749 67.8998 70.6999 67.9248 70.6999C67.8498 70.6249 67.8498 70.6499 67.8748 70.6749Z" fill="white"/>
<path d="M67.8748 70.6749C67.6998 70.5999 67.5498 70.5749 67.4248 70.5249C67.6248 70.6249 67.7998 70.6999 67.9748 70.7499C67.9498 70.7249 67.8998 70.6999 67.8748 70.6749Z" fill="white"/>
<path d="M59.7498 68.6749C59.7998 68.6249 60.0498 68.6249 60.3748 68.6749C60.6998 68.7249 61.1248 68.8249 61.4998 68.9749C62.2748 69.1249 61.8749 68.6499 61.2249 68.3249C61.1999 68.3749 61.1748 68.3999 60.3748 68.2749C60.6498 68.3749 62.0998 68.8249 61.4248 68.7499C60.3749 68.5499 60.5749 68.4999 60.0749 68.3499C60.2749 68.4499 59.9249 68.4249 59.5749 68.3999C59.1999 68.3749 58.7998 68.3749 58.8998 68.4749C59.1998 68.4999 59.5249 68.5499 59.8249 68.5749C59.8499 68.6249 59.4998 68.5999 59.7498 68.6749Z" fill="white"/>
<path d="M62.75 68.7251L63.075 68.8251C62.725 68.7001 62.45 68.5751 61.975 68.3751C61.425 68.2751 61.3 68.3001 61.25 68.3251C61.525 68.4001 61.8 68.4501 62.05 68.5501C62.325 68.6251 62.575 68.7001 62.85 68.7751L62.75 68.7251Z" fill="white"/>
<path d="M64.4998 69.3002C64.2248 69.3002 63.4498 69.1002 63.8748 69.3502C64.7998 69.6752 64.5498 69.4752 65.1248 69.6502C63.6248 69.1502 65.5748 69.7502 64.4998 69.3002C64.7998 69.4002 65.0748 69.5002 65.3248 69.6002C65.0748 69.4752 64.7998 69.3752 64.5748 69.2502C64.5998 69.2502 64.5998 69.2752 64.5998 69.2752C64.6498 69.3002 64.6748 69.3252 64.5998 69.3002H64.5748C64.5748 69.3002 64.5498 69.3002 64.4998 69.3002C64.0748 69.1252 64.4498 69.2502 64.5748 69.2752H64.5998L63.8248 69.0252L63.0498 68.8252C63.3998 68.9252 63.7998 69.0502 64.4998 69.3002Z" fill="white"/>
<path d="M70.2501 69.375C70.2001 69.4 70.2001 69.4 70.2001 69.4C70.1251 69.475 70.1251 69.5 70.2501 69.375Z" fill="white"/>
<path d="M69.7749 69.8249C69.8249 69.7249 69.8499 69.6249 70.1249 69.3249C70.3749 69.0999 70.1499 69.3499 70.1999 69.3749C70.3249 69.1999 70.6999 68.7499 70.1499 69.2249C70.1249 69.2499 70.0999 69.2749 70.0749 69.3249C69.5999 69.7749 69.0749 70.4749 69.1249 70.3499C69.2999 70.2499 69.4499 70.1249 69.7749 69.8249Z" fill="white"/>
<path d="M67.7499 70.9752C67.3499 70.8002 66.9499 70.6002 66.5249 70.4502C66.7249 70.5752 66.8999 70.6752 67.0999 70.8252V70.7502C67.7499 71.1002 67.6249 70.9752 67.7499 70.9752Z" fill="white"/>
<path d="M61.0248 68.2001L61.2248 68.1251L60.4248 68.1001C60.6498 68.1251 60.8498 68.1751 61.0248 68.2001Z" fill="white"/>
<path d="M59.3252 67.85L59.4252 67.775L58.9502 67.75L59.3252 67.85Z" fill="white"/>
<path d="M31 33.8249L31.2 33.5249C31.1 33.6499 31.05 33.7499 31 33.8249Z" fill="white"/>
<path d="M29.1251 35.7251L29.1001 35.8001C29.1751 35.7001 29.2001 35.6501 29.1251 35.7251Z" fill="white"/>
<path d="M21.8751 62.175C21.3501 61.9 20.7751 61.6 20.8001 61.725L20.9501 61.875C21.3251 61.975 21.6251 62.075 21.8751 62.175Z" fill="white"/>
<path d="M15.5752 45.7002C15.6002 45.7502 15.6002 45.8002 15.6252 45.8502C15.7252 45.9502 15.8252 46.0502 15.9002 46.1252C15.8252 46.0002 15.7002 45.8752 15.5752 45.7002Z" fill="white"/>
<path d="M14.9998 45.6002C14.8998 45.3752 14.7998 45.1502 14.6748 44.9502C14.7748 45.0752 14.8498 45.3002 14.9998 45.6002Z" fill="white"/>
<path d="M42.9502 32.1502L43.4002 32.1252C42.7502 31.9752 43.0252 32.1002 42.9502 32.1502Z" fill="white"/>
<path d="M41.8 69.0498C41.325 69.1748 40.95 69.2748 40.625 69.3998C41.2 69.2498 41.7 69.1998 41.8 69.0498Z" fill="white"/>
<path d="M31.15 35.4001C31.3 35.2001 31.35 35.1251 31.325 35.1001C31.175 35.3001 31.075 35.4251 31.15 35.4001Z" fill="white"/>
<path d="M39.2998 69.9249C39.3748 69.8999 39.4748 69.8749 39.5498 69.8499C39.8748 69.6999 40.1998 69.5499 40.6248 69.3999C40.3998 69.4499 40.1748 69.5249 39.9498 69.5999C39.7248 69.6749 39.4998 69.7999 39.2998 69.9249Z" fill="white"/>
<path d="M84.825 45.8999C84.8 45.9249 84.775 45.9749 84.75 45.9999C84.775 46.0249 84.8 45.9749 84.825 45.8999Z" fill="white"/>
<path d="M84.5498 61.1502C84.4498 61.0252 84.2998 60.8002 84.1748 60.5752C84.2248 60.7002 84.3498 60.8502 84.5498 61.1502Z" fill="white"/>
<path d="M52.3999 67.2502C52.4499 67.2252 52.7749 67.2252 52.3999 67.2502V67.2502Z" fill="white"/>
<path d="M36.3502 72.1748C36.3502 72.1748 36.3252 72.1748 36.3252 72.1998C36.4002 72.1748 36.4002 72.1748 36.3502 72.1748Z" fill="white"/>
<path d="M52.9501 67.2999C52.8001 67.2749 52.6501 67.2749 52.4751 67.2749C52.5501 67.2749 52.7001 67.2749 52.9501 67.2999Z" fill="white"/>
<path d="M52.875 67.2502C53 67.2502 53.1 67.2502 53.2 67.2502C53.25 67.2252 53.2 67.2252 52.875 67.2502Z" fill="white"/>
<path d="M51.875 67.275C52.075 67.275 52.275 67.275 52.475 67.275C52.4 67.275 52.375 67.275 52.4 67.25C52.275 67.25 52.125 67.25 51.875 67.275Z" fill="white"/>
<path d="M66.4248 30.0498C66.4248 30.0748 66.4498 30.0998 66.4498 30.1248C66.6498 30.4498 66.5748 30.2998 66.4248 30.0498Z" fill="white"/>
<path d="M14.1252 61.625C13.9252 61.8 13.7752 61.9 13.6002 61.95C13.4502 62 13.2752 62.025 13.2002 62C13.2502 62.1 13.4002 62.2 13.5502 62.275C13.7502 62.1 13.9502 61.875 14.1252 61.625Z" fill="white"/>
<path d="M35.1 29.025L33.7 28.225C34.1 28.375 34.525 28.55 34.875 28.7C35.05 28.775 35.225 28.85 35.375 28.925C35.45 28.95 35.525 28.975 35.575 29C35.8 29.075 35.8 29.05 35.425 28.8C35.325 28.85 34.9 28.7 34.35 28.45C34.2 28.375 34.05 28.325 33.9 28.25C33.825 28.225 33.75 28.175 33.65 28.15C33.575 28.125 33.45 28 33.45 28.15C33.35 28.525 33.225 28.9 33.125 29.275C33.075 29.475 33.025 29.65 32.95 29.85C32.9 29.975 32.875 30.075 32.825 30.175C32.775 30.35 32.7 30.525 32.65 30.675C32.55 30.975 32.5 31.2 32.55 31.275L32.225 31.75C32.3 31.6 32.3 31.575 32.375 31.425C32.2 31.65 32.125 31.825 32.05 31.95C31.975 32.075 31.95 32.2 31.925 32.325C31.875 32.575 31.775 32.875 31.325 33.45C31 33.825 30.725 34.075 30.925 33.775C30.825 33.925 30.7 34.075 30.6 34.225C30.475 34.375 30.375 34.525 30.25 34.675C30.025 34.9 30.025 34.8 30.25 34.575C30.05 34.775 29.85 35 29.65 35.2C29.45 35.4 29.25 35.6 29.025 35.775V35.75C28.95 35.85 28.825 36 28.675 36.15C28.525 36.3 28.375 36.45 28.275 36.55C27.9 36.775 28.425 36.4 28.325 36.425L27.975 36.75L27.6 37.05C27.225 37.2 27.85 36.7 28.375 36.3C27.925 36.425 27.775 36.575 27.525 36.775C27.4 36.875 27.25 37.025 27.025 37.175C26.8 37.325 26.5 37.5 26.05 37.7C26.3 37.55 26.55 37.375 26.8 37.225C26.2 37.375 25.65 37.75 24.675 38.075C24.8 38.05 25.275 37.9 25.625 37.825C25.975 37.725 26.175 37.7 25.75 38C25.475 38.1 25.125 38.275 24.65 38.55C24.6 38.45 24.1 38.7 23.475 38.95V38.775C22.8 39.075 22.875 39.125 22.475 39.325C21.675 39.575 21.475 39.5 21.25 39.45C19.95 39.775 22.2 39.4 20.675 39.85C19.575 40.075 18.825 40.3 17.525 40.625C16.75 40.7 17.65 40.5 17.35 40.5L16.675 40.75C16.5 40.775 16.55 40.725 16.575 40.7C16 40.85 16.55 40.875 15.65 41.05C15.55 41.15 15.05 41.175 14.475 41.175C13.725 41.225 12.475 41.325 11.85 41.525C11.825 41.525 11.825 41.525 11.8 41.525C11.8 41.525 11.8 41.525 11.8 41.55V41.575V41.6C11.775 41.6 11.725 41.55 11.675 41.525C11.65 41.525 11.65 41.5 11.625 41.5H11.65L11.675 41.475C11.675 41.45 11.675 41.45 11.6 41.45C11.575 41.45 11.525 41.475 11.5 41.475C11.5 41.5 11.55 41.525 11.575 41.55C11.625 41.6 11.675 41.65 11.75 41.7C11.85 41.8 11.95 41.9 12.05 41.975C12.225 42.15 12.375 42.275 12.5 42.4C12.75 42.65 12.925 42.8 13.1 42.975C13.175 43.05 13.275 43.125 13.35 43.225C13.4 43.275 13.425 43.3 13.475 43.35C13.525 43.4 13.575 43.45 13.6 43.475C13.725 43.6 13.9 43.75 14.125 43.975C14.3 44.3 14.475 44.6 14.65 44.925C14.3 44.2 15.025 44.95 15.55 45.7C15.45 45.425 15.375 45.175 15.325 45.025L15.725 45.65L15.925 45.95C15.975 46.05 16.05 46.175 16.1 46.275C16.15 46.45 16.05 46.325 15.875 46.15C15.925 46.225 15.975 46.3 16.025 46.375C16.2 46.875 16 46.675 15.75 46.375C15.725 46.3 15.7 46.2 15.675 46.125C15.65 46.05 15.625 45.95 15.6 45.875C15.325 45.6 15.075 45.375 15.025 45.5C15.075 45.575 15.2 45.725 15.3 45.875C15.225 45.8 15.175 45.775 15.2 45.825C15.2 45.875 15.325 45.975 15.475 46.175C15.475 46.3 15.475 46.425 15.45 46.55L15.55 46.6L15.9 47.45L16.175 48.325C16.35 48.625 16.475 48.9 16.625 49.2C16.775 49.5 16.925 49.8 17.025 50.15C17.275 50.825 17.525 51.65 17.625 52.7C17.45 52.175 17.4 52.6 17.25 52.575C17.375 51.975 17 50.95 16.775 49.9C16.875 50.45 16.775 50.35 16.725 50.225C16.825 50.525 16.925 50.85 17 51.15L17.2 52.1C17.125 52.075 17.125 52.2 17.125 52.35C17.125 52.525 17.125 52.75 17.125 53.025C17.225 52.825 17.325 53.175 17.35 53.7C17.35 54.2 17.375 54.875 17.35 55.275C17.3 55.3 17.275 55.25 17.25 55.1C17.25 55.025 17.25 54.9 17.25 54.75C17.25 54.6 17.25 54.4 17.25 54.175C17.2 54.45 17.2 54.65 17.2 54.85C17.2 55.05 17.225 55.225 17.25 55.4C17.275 55.575 17.3 55.75 17.3 55.95C17.3 56.15 17.25 56.35 17.175 56.6C17.225 56.375 17.25 56.25 17.225 56.15C17.225 56.425 17.125 56.9 17.05 57.25C16.95 57.6 16.85 57.85 16.85 57.675L16.9 57.45C16.7 58.325 16.2 59.675 15.725 60.675C15.675 60.775 15.55 60.925 15.45 61.05C15.325 61.175 15.225 61.275 15.125 61.375C14.925 61.55 14.8 61.675 14.775 61.75C14.75 61.725 14.8 61.425 14.85 61.35C14.575 61.65 14.275 61.95 13.95 62.2C13.775 62.325 13.6 62.45 13.4 62.525C13.3 62.575 13.2 62.6 13.075 62.625C12.95 62.625 12.825 62.625 12.7 62.525L12.55 62.425L12.75 62.3L13 62.125C12.925 62.25 13.1 62.325 13.2 62.425C13.3 62.525 13.325 62.65 12.975 62.85L13.075 62.175C13.075 62.175 13.075 62.175 13.1 62.15C13.1 62.15 13.125 62.125 13.125 62.1C13.15 62.075 13.15 62.075 13.15 62.075H13.175C13.175 62.075 13.175 62.075 13.15 62.075V62.1C13.125 62.125 13.125 62.15 13.125 62.175C13.125 62.2 13.125 62.2 13.1 62.2L13.025 62.95C13.175 62.9 13.35 62.85 13.525 62.775C13.725 62.725 13.95 62.625 14.225 62.55C13.975 62.575 13.55 62.45 13.875 62.35C14.375 62.35 14.525 62.325 14.725 62.325C14.825 62.325 14.925 62.325 15.075 62.325C15.225 62.325 15.425 62.35 15.725 62.375C15.55 62.375 15.55 62.275 15.675 62.2C15.8 62.125 16.05 62.05 16.375 62.05C16.275 62.1 16.425 62.325 16.2 62.35C16.7 62.25 17.2 62.2 17.7 62.15C17.325 62.15 17.6 62.375 17.925 62.5C17.85 62.45 18.175 62.5 18.55 62.575C18.75 62.625 18.95 62.65 19.125 62.7C19.3 62.75 19.475 62.775 19.575 62.8C19.375 62.725 19.175 62.65 18.975 62.6C19.8 62.8 20.225 62.8 20.675 62.825C21.1 62.85 21.55 62.85 22.35 63.15C22.125 63.125 21.75 63.325 22.55 63.65C22.975 63.65 24.45 63.575 25.9 64.15L26.125 64.35C26.5 64.5 26.85 64.65 27.225 64.8C26.85 64.725 26.15 64.55 25.425 64.375C24.675 64.225 23.9 64.075 23.35 63.95C23.925 64.25 23.475 64.1 24.375 64.45C24.65 64.65 23.85 64.35 23.6 64.275C24.275 64.55 24.95 64.875 25.6 65.2C25.6 65.1 26 65.25 26.375 65.4C26.775 65.55 27.15 65.75 27.15 65.65C26.425 65.3 25.675 65 24.925 64.725C24.9 64.525 26.425 64.85 27.775 65.7C28.075 65.975 27.375 65.8 27.375 65.875C27.475 65.9 27.8 66.075 28.125 66.25C28.45 66.425 28.725 66.65 28.775 66.7C28.575 66.6 28.375 66.5 28.175 66.4C28.525 66.675 28.85 66.825 29.175 67.025C29.5 67.225 29.825 67.45 30.225 67.85C30.525 68.075 31.05 68.675 31.175 68.625C30.75 68.125 31 67.575 31.4 67.675C31.45 67.725 31.825 68 32.25 68.325C32.675 68.625 33.125 68.975 33.275 69.125C33.7 69.575 32.3 68.95 32.675 69.35C32.725 69.325 33.025 69.45 33.15 69.5C33.45 69.75 32.95 69.525 33.625 69.975C33.675 69.95 33.8 70 33.9 70.1C34.025 70.175 34.15 70.275 34.225 70.35C34.3 70.425 34.35 70.475 34.35 70.45C34.325 70.425 34.25 70.3 34.025 70.075C34.35 70.3 34.5 70.45 34.65 70.625C34.725 70.7 34.8 70.8 34.875 70.925C34.95 71.05 35.05 71.175 35.175 71.375C35.15 71.25 35.275 71.325 35.475 71.525C35.5 71.55 35.525 71.575 35.55 71.625C35.575 71.65 35.6 71.7 35.625 71.725C35.675 71.8 35.725 71.875 35.775 71.95C35.875 72.1 35.9 72.25 35.975 72.4V72.425C35.975 72.45 36 72.425 36 72.4L36.075 72.35C36.125 72.325 36.15 72.3 36.2 72.25C36.15 72.325 36.275 72.325 36.35 72.3C37.1 71.85 37.675 71.575 38.25 71.325C38.825 71.075 39.4 70.825 40.125 70.525C40.275 70.5 41 70.3 40.725 70.475C40.925 70.375 41.1 70.225 41.55 70.075C42.475 69.9 40.55 70.45 41.275 70.375C41.275 70.325 41.575 70.175 41.925 70.025C42.275 69.875 42.725 69.725 43.05 69.575C42.925 69.525 42.55 69.65 42.1 69.8C41.675 69.975 41.2 70.175 40.875 70.325C40.8 70.125 41.85 69.5 43.45 68.95C44.725 68.575 44.05 68.95 44.25 68.85C44.85 68.7 45.275 68.6 45.625 68.5C45.95 68.4 46.2 68.3 46.425 68.225C46.875 68.075 47.3 67.925 48.325 67.875C49.15 67.925 48.4 68.125 48.575 68.2C47.525 68.375 46.925 68.35 46.225 68.475L47.125 68.375C46.8 68.475 46.1 68.625 45.7 68.675C46.05 68.65 47.075 68.475 48.25 68.325C49.425 68.175 50.775 68.1 51.725 68.1C52.05 68.05 52.65 67.975 52.375 67.95L51.775 67.975C51.225 67.875 52.9 67.8 52.15 67.775C52.95 67.675 53.875 67.575 55.025 67.7L55.225 67.875C55.225 67.85 55.025 67.825 54.8 67.8C54.575 67.775 54.325 67.775 54.15 67.8C54.4 67.775 54.825 67.825 55.275 67.9C55.5 67.925 55.725 67.95 55.925 67.975C56.125 68 56.3 68 56.45 67.95C56.175 67.9 55.925 67.825 55.65 67.775C56.05 67.75 56.525 67.75 57 67.75C57.475 67.775 58 67.8 58.5 67.9C58.05 67.675 58.275 67.875 57.575 67.6C57.875 67.75 57.225 67.65 56.625 67.6C56.025 67.525 55.475 67.5 55.95 67.65C55.575 67.525 55.275 67.475 54.925 67.45C54.575 67.425 54.2 67.4 53.7 67.275C53.725 67.325 54.05 67.375 53.175 67.35C53.125 67.375 53.05 67.375 52.975 67.4C52.95 67.4 52.925 67.4 53 67.4C53.2 67.425 53.375 67.45 53.425 67.475C53 67.575 51.65 67.6 51.175 67.675C50.675 67.675 51.375 67.6 51.1 67.575L50.425 67.7C50.35 67.575 49.075 67.625 50.25 67.45L49.175 67.525C48.85 67.525 48.475 67.55 48.1 67.575C47.725 67.625 47.375 67.675 47.125 67.75C46.625 67.8 45.875 68.1 46.3 67.925C46.025 67.975 45.75 68.05 45.475 68.125C45.2 68.2 44.925 68.25 44.65 68.35L44.625 68.325C44.225 68.425 43.8 68.525 43.4 68.65C43.2 68.725 42.975 68.775 42.775 68.85C42.575 68.925 42.35 69 42.15 69.075C41.725 69.2 41.3 69.375 40.85 69.5C40.425 69.65 39.975 69.775 39.5 69.925C39.25 70.05 38.975 70.175 38.675 70.325C38.375 70.475 38.025 70.625 37.6 70.825H37.4C37.275 70.9 37.1 70.975 36.95 71.075C36.875 71.125 36.775 71.175 36.675 71.225L36.55 71.3H36.525C36.475 71.325 36.425 71.35 36.4 71.35C36.375 71.35 36.375 71.375 36.35 71.375L36.325 71.4C36.325 71.375 36.3 71.375 36.3 71.375C36.325 71.3 36.325 71.25 36.325 71.225C36.325 71.2 36.325 71.175 36.325 71.175V71.15C36.325 71.15 36.325 71.15 36.35 71.175C36.35 71.175 36.35 71.15 36.325 71.15C36.3 71.1 36.275 71.05 36.25 71C36.2 70.9 36.15 70.8 36.075 70.675C36 70.575 35.925 70.475 35.85 70.35C35.8 70.3 35.775 70.25 35.725 70.2C35.675 70.15 35.65 70.1 35.6 70.05C35.5 69.95 35.425 69.85 35.325 69.75C34.55 69 33.625 68.525 33.1 68.175L33 68.25C32.25 67.8 31.525 67.45 30.7 66.875L30.675 67C30.3 66.775 29.85 66.35 29.3 65.95C28.775 65.525 28.15 65.1 27.5 64.725C27.6 64.75 27.925 64.925 28.15 65.1C27.45 64.525 26.575 64.125 25.725 63.8C24.875 63.475 24.025 63.2 23.3 62.825C22.9 62.725 22.65 62.625 22.375 62.5C22.4 62.5 22.45 62.525 22.475 62.525C22.425 62.5 22.375 62.5 22.325 62.475C22.175 62.4 22 62.325 21.825 62.25C21.975 62.325 22.125 62.4 22.25 62.45C21.95 62.35 21.5 62.225 21.05 62.125L20.9 61.95C20.875 61.95 20.825 61.925 20.8 61.925C20.375 61.75 20.425 61.875 20.65 62.025C20.425 61.975 20.2 61.95 20.05 61.95C19.9 61.8 19.6 61.75 19.275 61.7C18.95 61.65 18.625 61.6 18.4 61.475C18.225 61.5 17.65 61.425 17.075 61.425C16.775 61.425 16.5 61.425 16.275 61.45C16.05 61.475 15.875 61.525 15.825 61.575C15.8 61.55 15.675 61.55 15.925 61.525C15.4 61.5 14.875 61.55 14.425 61.675L14.175 61.575C13.8 61.725 13.45 61.875 13.125 62.075C12.95 62.1 12.8 62.15 12.7 62.15L12.225 62.225L12.6 62.65C12.775 62.85 12.925 62.9 12.925 62.925C12.925 62.95 12.9 62.95 12.825 62.925C12.75 62.925 12.625 62.875 12.475 62.75L12.375 62.675L12.65 61.975C12.65 61.95 12.7 61.925 12.775 61.9C12.725 61.925 12.65 61.95 12.65 61.975L12.075 62.4L12.475 62.775C12.625 62.925 12.8 62.975 12.95 63C13.075 63.025 13.2 63.025 13.3 63C13.475 62.975 13.625 62.95 13.725 62.9C13.95 62.825 14.1 62.75 14.25 62.7C14.525 62.55 14.8 62.425 15.3 61.975V62.1C15.475 61.975 15.675 61.8 15.875 61.6C16.075 61.4 16.225 61.2 16.35 61C16.375 60.925 16.425 60.875 16.45 60.85C16.775 60.4 17.425 59.15 17.75 57.575C17.85 57.175 17.9 56.775 17.975 56.375C18.025 56.175 18.025 55.95 18.05 55.75C18.075 55.55 18.1 55.325 18.125 55.125C18.2 54.3 18.225 53.475 18.2 52.75C18.075 53.025 18.075 52.7 18.1 52.275C18.1 51.85 18.075 51.35 17.95 51.325C18 51.15 17.975 50.75 18.1 51.2C18.05 50.825 17.95 50.525 17.9 50.25C17.825 49.975 17.8 49.7 17.75 49.475C17.675 49.225 17.625 49 17.55 48.8C17.475 48.575 17.4 48.35 17.25 48.125C17.25 47.95 17.45 48.375 17.45 48.225C17.4 48.125 17.225 47.8 17.2 47.65C17.175 47.5 17.325 47.825 17.45 48.05C17.175 47.35 16.975 46.975 16.8 46.8C16.625 46.625 16.5 46.6 16.4 46.6C16.175 45.875 15.95 45.55 15.575 45.15C15.5 44.9 15.35 44.475 15.825 45.275C15.75 45.175 15.65 44.925 15.475 44.65C15.3 44.375 15.075 44.05 14.875 43.75C14.775 43.6 14.65 43.475 14.55 43.325C14.5 43.25 14.45 43.2 14.4 43.15C14.375 43.125 14.35 43.1 14.325 43.075C14.3 43.05 14.275 43.025 14.275 43.025C14.175 42.925 14.075 42.85 14.025 42.85C14 42.775 13.725 42.525 13.625 42.45C13.55 42.375 13.5 42.325 13.45 42.275L13.425 42.25C13.425 42.25 13.4 42.225 13.425 42.225C13.45 42.225 13.45 42.225 13.475 42.225C13.5 42.225 13.55 42.225 13.575 42.225C13.7 42.2 13.8 42.2 13.9 42.175C14 42.15 14.1 42.15 14.225 42.125C14.35 42.1 14.5 42.075 14.7 42.05H14.625H14.575H14.475C14.575 41.95 14.85 41.9 15.125 41.85C15.425 41.825 15.775 41.8 16.2 41.725L16.175 41.75C17.225 41.65 17.425 41.6 17.65 41.55C17.875 41.5 18.075 41.45 19.1 41.325L18.975 41.225C19.1 40.95 20.8 41 21.925 40.55C21.775 40.575 21.625 40.575 21.5 40.6C22.1 40.35 23.35 40.425 24 40.2C24.15 40.175 23.8 40.325 23.6 40.4C24.45 40.175 24.475 40.1 24.45 40.05C24.425 40 24.35 39.925 24.95 39.675C25.2 39.65 24.75 40 25.55 39.65C25.65 39.625 25.85 39.525 26.1 39.375C26.225 39.3 26.35 39.225 26.5 39.125C26.65 39.025 26.8 38.925 26.95 38.825C27.25 38.625 27.575 38.4 27.9 38.2C28.2 38 28.5 37.8 28.775 37.65C28.525 37.75 28.275 37.85 28.725 37.45C28.9 37.3 29.125 37.15 29.375 37C29.6 36.825 29.875 36.65 30.125 36.45C30.625 36.075 31.05 35.65 31.275 35.275C31.375 35.2 31.4 35.175 31.425 35.175C31.525 35.025 31.675 34.85 31.825 34.65C31.975 34.45 32.125 34.2 32.3 34C32.45 33.775 32.575 33.55 32.7 33.35C32.8 33.15 32.875 32.975 32.9 32.875C33.25 32.725 33.75 31.7 34.05 30.725C34.075 30.675 34.075 30.6 34.1 30.55C34.125 30.5 34.15 30.425 34.15 30.4C34.175 30.325 34.175 30.25 34.2 30.175C34.225 30.025 34.25 29.9 34.3 29.775V29.725C34.3 29.725 34.325 29.725 34.325 29.75C34.35 29.775 34.375 29.775 34.4 29.8C34.45 29.825 34.475 29.85 34.5 29.875C34.55 29.925 34.6 29.975 34.6 30.025L36.25 30.8H36.175C37.4 31.425 37.875 31.525 38.35 31.65C38.625 31.8 38.4 31.75 38.375 31.75C39.275 32.2 39.775 32.4 40.275 32.575C40.525 32.65 40.75 32.725 41.05 32.775C41.2 32.8 41.35 32.85 41.5 32.875C41.675 32.9 41.85 32.925 42.075 32.975L42.225 33.15C42.35 33.175 42.575 33.225 42.9 33.3C43.225 33.4 43.625 33.475 44.075 33.575C44.975 33.75 46.1 33.9 47.075 33.875C47.05 33.9 47.025 33.9 46.85 33.925C47.95 33.925 49.275 34.05 50.4 34.125C50.975 34.15 51.5 34.175 51.925 34.175C52.05 34.175 52.175 34.175 52.275 34.15C52.35 34.15 52.425 34.125 52.475 34.1C52.525 34.075 52.575 34.075 52.6 34.05C52.75 34 52.9 33.925 52.975 33.85C53.45 33.725 53.9 33.575 54.375 33.4C52.55 33.825 54.6 33.15 53.825 33.25C54.525 33.05 55.7 32.9 54.825 33.15L54.675 33.175C54.55 33.325 55.125 33.2 55.725 33.05C56.325 32.9 56.95 32.7 56.95 32.8C58.525 32.325 60.075 31.825 61.6 31.25C62.35 30.975 63.1 30.65 63.825 30.3C64.175 30.125 64.55 29.925 64.9 29.725C65.05 29.625 65.2 29.525 65.325 29.425L65.35 29.4V29.425L65.375 29.5L65.4 29.625C65.425 29.7 65.45 29.8 65.475 29.875C65.5 29.775 65.525 29.675 65.55 29.525C65.6 29.65 65.625 29.775 65.675 29.9L65.775 30.175C65.825 30.275 65.85 30.375 65.9 30.45C66 30.775 65.925 30.925 65.6 30.075C65.625 30.3 65.8 30.65 65.975 30.925C66.15 31.2 66.325 31.4 66.35 31.4C66.725 32.175 66.625 32.05 66.425 31.8C66.225 31.55 65.975 31.125 66.1 31.375C66.225 31.6 66.35 31.8 66.475 32L66.4 31.85C66.775 32.325 66.85 32.325 67.45 33.2C67.8 33.75 67.55 33.55 67.7 33.75C67.7 33.75 67.725 33.825 67.925 34.075C68.225 34.5 68.525 34.9 68.85 35.325L68.575 34.75C69.05 35.25 69.475 35.875 69.15 35.225C69.375 35.7 70.275 36.85 71.4 37.725C71.925 38.125 72.4 38.575 72.8 38.925C73.2 39.3 73.5 39.575 73.6 39.7C74 39.975 74.375 40.25 74.825 40.55C75.05 40.7 75.275 40.825 75.525 40.95C75.65 41.025 75.775 41.075 75.9 41.125C76.025 41.175 76.15 41.225 76.3 41.275C76.05 41.125 75.95 40.925 76.875 41.3C76.65 41.4 77.05 41.6 77.625 41.8C77.9 41.925 78.225 42.025 78.525 42.125C78.825 42.225 79.1 42.35 79.275 42.45C78.925 42.275 79.65 42.45 80.3 42.55C80.975 42.65 81.575 42.675 81.025 42.5C81.85 42.625 81.05 42.625 81.7 42.775C82.45 42.8 83.25 42.825 84.1 42.825C84.3 42.825 84.475 42.825 84.675 42.825C84.775 42.825 84.9 42.825 85 42.825C85.2 42.825 85.425 42.825 85.575 42.825C85.375 43.075 85.2 43.275 85.05 43.525C85.075 43.55 85.125 43.525 85.15 43.525C85.2 43.525 85.225 43.55 85.15 43.7L84.7 44.2L84.475 44.45L84.25 44.7C84.025 45.15 84.225 45.2 83.7 45.95C83.8 45.85 83.925 45.7 83.8 46C83.225 47.075 82.775 48.225 82.475 49.45C82.2 50.675 82.075 51.925 82.125 53.175C82.15 54.425 82.35 55.675 82.7 56.9C83.025 58.125 83.475 59.3 84.025 60.425C83.75 59.8 84 60.175 84.25 60.625C84.1 60.325 84.35 60.575 84.35 60.5C84.675 61.125 85.025 61.725 85.425 62.3C85.625 62.4 85.975 62.825 86.35 63.2C86.725 63.575 87.125 63.925 87.25 63.925C87.075 63.8 86.9 63.65 86.75 63.5C87.125 63.725 86.975 63.45 86.775 63.1C86.575 62.75 86.325 62.325 86.475 62.275C86.1 62 85.725 61.475 85.4 60.875C85.05 60.275 84.725 59.6 84.25 58.975C84.2 58.8 84.25 58.875 84.3 58.95C84.35 59.025 84.425 59.1 84.425 59.025C84.175 58.725 83.925 58.3 83.675 57.475L83.725 57.55C83.3 56.4 83.15 55.55 83.05 54.65C82.975 53.75 82.95 52.8 83.1 51.475L82.975 51.675C83.025 51.1 83.1 50.975 83.175 50.7C83.125 50.35 83.075 50.75 83 51.175C82.95 51.6 82.9 52.025 82.85 51.7C83 51.325 83.125 50.3 83.375 49.325C83.45 49.075 83.5 48.85 83.575 48.625C83.65 48.4 83.725 48.2 83.8 48C83.975 47.625 84.1 47.35 84.225 47.275C84.6 46.45 84 47.45 84.35 46.65C84.4 46.575 84.45 46.525 84.525 46.475L84.55 46.225C84.825 45.7 85.075 45.5 85.125 45.5C85.05 45.625 84.925 45.85 84.875 46C84.975 45.85 85.1 45.65 85.225 45.45C85.35 45.25 85.475 45.025 85.6 44.825C85.65 44.725 85.725 44.625 85.775 44.525C85.8 44.475 85.825 44.425 85.85 44.4C85.875 44.375 85.875 44.35 85.9 44.325C85.9 44.3 85.925 44.275 85.95 44.25C86.125 44 86.275 43.8 86.35 43.725L85.9 44.3L85.65 44.65C85.7 44.575 85.75 44.475 85.8 44.4L85.875 44.275C85.875 44.25 85.925 44.225 85.925 44.2L86 44.1C86.2 43.85 86.375 43.575 86.575 43.3C86.975 42.775 87.4 42.25 87.825 41.725C87.075 41.775 86.325 41.825 85.55 41.875L84.975 41.9L84.475 41.925C84.25 41.925 84 41.925 83.775 41.95C82.85 41.975 81.95 41.95 81.125 41.875L81.3 41.95C80.85 41.925 80.525 41.875 80.275 41.825C80.025 41.775 79.85 41.725 79.65 41.675C79.275 41.55 78.875 41.45 77.925 41.15H78C77.6 41.075 77.075 40.925 76.575 40.7C77.075 40.825 75.725 40.225 76.375 40.4C76.25 40.35 76.15 40.325 76.05 40.3C75.975 40.275 75.9 40.25 75.825 40.225C75.7 40.175 75.575 40.125 75.5 40.075C75.325 40 75.25 39.95 75.175 39.925C75.025 39.85 74.95 39.875 74.375 39.525L74.2 39.25C73.8 39.025 73.75 39.025 72.975 38.35C73.65 38.85 72.575 37.8 73.35 38.375C73 37.975 72.65 37.65 72.3 37.375C72.225 37.3 72.125 37.25 72.05 37.175C71.975 37.125 71.9 37.075 71.825 37.025C71.675 36.925 71.55 36.825 71.425 36.725C70.925 36.35 70.575 36 70.35 35.55C69.95 35.275 70.2 35.65 70.55 36.025C70.9 36.4 71.325 36.75 71.1 36.6C71.25 36.775 71.05 36.7 70.8 36.475C70.525 36.25 70.175 35.925 69.975 35.65C69.75 35.4 69.625 35.125 69.425 34.75C69.225 34.375 68.975 33.9 68.475 33.2C68.575 33.35 68.6 33.35 68.7 33.475C68.375 32.9 67.875 32.5 67.575 31.8C67.225 31.525 67.1 30.925 66.875 30.925C67.125 31.375 67.4 31.825 67.7 32.25C67.45 31.9 67.15 31.575 66.875 31.15C66.725 30.95 66.6 30.7 66.475 30.45C66.35 30.175 66.25 29.925 66.125 29.45C66.175 29.5 66.225 29.65 66.325 29.85C66.4 30 66.5 30.15 66.55 30.275C66.525 30.175 66.5 30.075 66.45 29.975L66.325 29.65C66.225 29.375 66.125 29.125 66.05 28.8C66.1 28.775 66.175 28.95 66.275 29.225C66.325 29.375 66.4 29.525 66.45 29.7C66.5 29.825 66.55 29.975 66.625 30.1C66.85 30.625 67.15 31.225 67.45 31.575C67.375 31.375 67.125 31 66.975 30.725C66.825 30.45 66.725 30.25 66.925 30.425C66.825 30.325 66.725 30.2 66.675 30.075C66.65 30 66.6 29.925 66.575 29.85C66.55 29.8 66.525 29.75 66.525 29.7C66.5 29.65 66.475 29.575 66.45 29.5C66.35 29.25 66.275 28.95 66.2 28.625C66.15 28.475 66.1 28.325 66.075 28.15C66.05 28.075 66.025 28 66 27.925L65.975 27.8L65.925 27.75C65.65 28.05 65.35 28.35 65.05 28.675L65.125 28.45C65.075 28.5 65 28.6 64.9 28.675C64.825 28.75 64.725 28.825 64.625 28.9C64.575 28.95 64.525 28.975 64.475 29.025C64.425 29.05 64.4 29.075 64.35 29.1C64.275 29.15 64.2 29.2 64.15 29.225L64.35 29L64.7 28.65C64.625 28.725 64.55 28.775 64.475 28.85L64.425 28.9L64.4 28.925L64.375 28.95L64.3 29C64.2 29.05 64.125 29.125 64.025 29.175C63.825 29.275 63.625 29.375 63.425 29.45C63.025 29.6 62.6 29.75 62.225 29.975C63.075 29.6 63.175 29.575 63.175 29.625C63.175 29.675 63.05 29.8 63.425 29.675C62.425 30.25 62.075 30.3 61.7 30.35C61.325 30.4 60.925 30.475 59.7 30.925C60.025 30.8 60.95 30.525 60.475 30.775C60 30.925 59.375 31.1 59.075 31.15C57.45 31.725 59.375 31.175 58.7 31.475C58.1 31.525 57.925 31.8 57.2 32.075L57.15 31.95C56.2 32.2 56.1 32.3 56 32.375C55.925 32.45 55.85 32.55 54.975 32.725L55.65 32.375L54.775 32.65L54.925 32.475C53.975 32.825 53.675 32.875 52.725 33.05C52.85 33.075 52.825 33.125 52.675 33.2C52.6 33.225 52.475 33.275 52.35 33.325C52.325 33.325 52.3 33.325 52.275 33.35C52.225 33.35 52.2 33.35 52.15 33.35C52.05 33.35 51.95 33.35 51.85 33.35C51.25 33.275 52.175 33.25 50.95 33.225C51.225 33.15 51.55 33.075 52.075 33.175C52.1 33.15 52.175 33.15 52.25 33.125C52.3 33.125 52.3 33.1 52.325 33.1L52.35 33.075C52.325 33.075 52.325 33.075 52.3 33.075C52.25 33.075 52.225 33.075 52.175 33.05C52.075 33.05 52 33.025 51.9 33.025C51.7 33.025 51.525 33.025 51.325 33.025C50.95 33.025 50.6 33.025 50.375 33.025C50.55 33.025 50.75 33.05 50.85 33.075L49.05 33.2C48.775 33.15 49 33.125 49.225 33.1C48.85 33.1 48.6 33.15 48.075 33.125C48.225 33.025 48.2 32.925 48.95 32.925C48.375 32.95 47.8 32.95 47.25 32.95C47.15 32.9 46.4 32.775 46.6 32.75C45.675 32.625 44.3 32.725 43.125 32.375C43.05 32.375 42.925 32.375 42.675 32.325C41.575 32.025 40.65 31.55 39.325 31.125L38.675 30.65C37.675 30.225 39.55 31.3 37.875 30.6C36.675 30.1 37.5 30.25 37.125 30.025C36.825 29.925 36.4 29.8 35.925 29.6C35.8 29.55 35.675 29.5 35.55 29.45C35.475 29.4 35.375 29.375 35.3 29.325C35.2 29.275 35.1 29.225 35 29.175C34.8 29.075 34.6 28.975 34.375 28.85C34.275 28.8 34.15 28.725 34.05 28.675L33.875 28.575L33.825 28.55H33.8V28.575L33.775 28.65C33.775 28.6 33.8 28.575 33.8 28.525C33.825 28.55 33.875 28.55 33.9 28.575C33.975 28.6 34.025 28.625 34.1 28.675C34.225 28.75 34.35 28.8 34.5 28.875C34.575 28.775 34.825 28.9 35.1 29.025ZM25.825 38C26.05 37.85 26.45 37.55 26.65 37.5C26.45 37.775 26.225 37.825 25.825 38ZM16.225 47.6C16.125 47.425 16.025 47.15 15.925 46.825C16.025 47.05 16.15 47.3 16.225 47.6ZM48.375 67.625H48.35C47.75 67.65 47.975 67.65 48.375 67.625ZM49.625 67.55C49.75 67.525 49.75 67.5 49.675 67.5C49.6 67.55 49.325 67.55 49 67.6C49.1 67.6 49.25 67.6 49.625 67.55ZM67.725 33.775L67.6 33.55C67.95 33.975 67.825 33.875 67.725 33.775Z" fill="white"/>
<path d="M15.0752 45.5999C15.0502 45.5249 15.0752 45.4999 15.0752 45.4749C15.0002 45.3999 14.9752 45.3999 15.0752 45.5999Z" fill="white"/>
<path d="M42.875 32.15H42.925C42.95 32.15 42.95 32.15 42.975 32.125L42.875 32.15Z" fill="white"/>
<path d="M33.0249 69.5251C32.8249 69.3751 32.7249 69.3001 32.6499 69.2251C32.6249 69.2501 32.6999 69.3251 33.0249 69.5251Z" fill="white"/>
<path d="M56.1999 67.3248C55.9249 67.2998 55.6749 67.2998 55.3999 67.2998C55.7749 67.3248 55.9249 67.3498 56.1249 67.3998C56.0999 67.3748 55.9499 67.2998 56.1999 67.3248Z" fill="white"/>
<path d="M62.8 69.3502C62.925 69.3752 63.025 69.4252 63.15 69.4502L63.125 69.3752C62.65 69.2252 62.325 69.1752 62.8 69.3502Z" fill="white"/>
<path d="M56.8999 67.7998C56.9499 67.8998 57.4499 67.9248 57.9999 67.9748C57.9749 67.9748 57.9249 67.9748 57.8999 67.9498C58.0749 67.8498 57.4749 67.8248 56.8999 67.7998Z" fill="white"/>
<path d="M58.125 68C58.3 68.025 58.475 68.05 58.625 68.075C58.7 68.025 58.425 68.025 58.125 68Z" fill="white"/>
<path d="M51.2 67.375C51.475 67.375 51.35 67.225 51.5 67.275C51.8 67.125 49.75 67.525 51.2 67.375Z" fill="white"/>
<path d="M57.2998 68.1749L57.1248 68.0249C57.0248 68.0499 56.9248 68.0749 56.7998 68.0999C56.9748 68.1249 57.1248 68.1499 57.2998 68.1749Z" fill="white"/>
<path d="M52.9749 67.825C53.2749 67.85 53.5499 67.85 53.8499 67.875C53.8249 67.85 53.9499 67.85 54.0749 67.85C53.5499 67.8 52.9499 67.8 52.9749 67.825Z" fill="white"/>
<path d="M54.1001 67.85C54.3751 67.875 54.6501 67.875 54.8001 67.85C54.6501 67.85 54.3251 67.825 54.1001 67.85Z" fill="white"/>
<path d="M56.1001 68.1C56.0251 68.075 55.9251 68.075 55.8501 68.05L55.2251 68C55.5251 68.025 55.8251 68.05 56.1001 68.1Z" fill="white"/>
<path d="M43.6498 69.0249C43.3498 69.1249 43.0498 69.1999 42.7248 69.3249C42.6498 69.3999 42.8998 69.3249 43.2498 69.2249C43.4498 69.1249 43.7998 69.0249 43.6498 69.0249Z" fill="white"/>
<path d="M46.5251 68.7252C46.2751 68.7502 46.2501 68.7252 46.1001 68.7002V68.8502L46.5251 68.7252Z" fill="white"/>
<path d="M43.8499 69.3501C43.7749 69.4251 42.5499 69.8251 43.6999 69.5001C43.7749 69.4501 44.6999 69.1751 43.8499 69.3501Z" fill="white"/>
<path d="M31.9751 68.4248L32.2001 68.5248L32.3001 68.2998L31.9751 68.4248Z" fill="white"/>
<path d="M20.6502 63.1752C21.7002 63.5502 20.9502 63.1002 21.8752 63.4752C22.1502 63.5002 21.1002 63.1502 21.3752 63.2002C20.7252 63.0502 20.4002 62.9252 20.6502 63.1752Z" fill="white"/>
<path d="M21.3999 63.1748C21.4999 63.1998 21.6249 63.2248 21.7499 63.2498C21.5499 63.1998 21.4499 63.1998 21.3999 63.1748Z" fill="white"/>
<path d="M86.2002 63.375C86.3752 63.575 86.5502 63.75 86.7252 63.95L86.4252 63.55C86.3502 63.475 86.2752 63.425 86.2002 63.375Z" fill="white"/>
<path d="M87.3999 64.2002L87.4499 64.4252L87.8999 64.5752C87.7499 64.5002 87.4999 64.3002 87.3999 64.2002Z" fill="white"/>
<path d="M23.9 38.5249L23.875 38.5749C24 38.5749 24.15 38.5249 24.45 38.3999C24.275 38.4499 24.075 38.4749 23.9 38.5249Z" fill="white"/>
<path d="M31.3998 33.025L31.2998 33.15L31.5998 33L31.3998 33.025Z" fill="white"/>
<path d="M37.6 29.8748C37.3 29.7248 36.925 29.5998 36.625 29.4248C37.275 29.7248 37.6 30.0748 37.6 29.8748Z" fill="white"/>
</svg>
