<svg width="101" height="100" viewBox="0 0 101 100" fill="none" xmlns="http://www.w3.org/2000/svg">
<g clip-path="url(#clip0_391_1390)">
<path d="M84.22 70.2227C83.835 70.2352 83.97 70.3302 83.915 70.3527C84.575 70.2977 84.1975 70.1977 84.22 70.2227Z" fill="white"/>
<path d="M87.5376 65.8801L87.5801 65.9751L87.4751 65.1851L87.5376 65.8801Z" fill="white"/>
<path d="M87.5402 60.8774C87.3602 61.3499 87.5676 62.6899 87.5051 63.5824L87.4651 63.7274L87.6076 64.1299C87.5851 63.0474 87.5002 61.6399 87.5402 60.8774Z" fill="white"/>
<path d="M87.9252 58.2127C87.8552 58.3752 87.8652 57.6352 87.9027 58.8327L87.9202 58.7202C87.9202 58.6127 87.9202 58.4652 87.9252 58.2127Z" fill="white"/>
<path d="M87.9199 58.72C87.9199 59.2475 87.9799 58.375 87.9199 58.72V58.72Z" fill="white"/>
<path d="M87.8799 56.2873L87.9424 56.9823C87.9849 56.8373 87.9924 56.2198 88.0224 56.4498C87.9999 55.7498 87.9474 55.8848 87.8799 56.2873Z" fill="white"/>
<path d="M87.75 55.6299L87.7775 55.9899C87.7995 55.8695 87.79 55.7455 87.75 55.6299Z" fill="white"/>
<path d="M87.8323 56.7498L87.7773 55.9873C87.7473 56.0873 87.6898 56.0998 87.7973 56.3373C87.7498 56.2773 87.7948 56.4273 87.8323 56.7498Z" fill="white"/>
<path d="M87.8052 57.1851C87.7677 57.5726 87.7427 58.0751 87.6802 57.3801C87.7052 58.7076 87.8302 58.5126 87.8052 57.1851Z" fill="white"/>
<path d="M87.3552 60.6226L87.3027 61.1426L87.3627 61.5926C87.3327 61.3676 87.4102 60.5901 87.3552 60.6226Z" fill="white"/>
<path d="M87.9727 51.9673C87.9352 51.9223 87.8727 52.1998 87.8252 52.2523L87.8677 52.7523C87.8726 52.4875 87.9078 52.2241 87.9727 51.9673Z" fill="white"/>
<path d="M87.825 52.2499L87.75 51.4849C87.75 52.1699 87.7825 52.2949 87.825 52.2499Z" fill="white"/>
<path d="M87.5523 55.5076L87.6898 56.7676L87.5498 55.2651L87.5523 55.5076Z" fill="white"/>
<path d="M87.9776 49.0377L88.0651 49.4727L87.9326 48.7002L87.9776 49.0377Z" fill="white"/>
<path d="M87.9624 47.0948C88.0349 47.4173 88.0849 46.6548 88.1299 46.9948C88.1135 46.5318 88.0701 46.0702 87.9999 45.6123C88.0306 46.1066 88.0181 46.6027 87.9624 47.0948Z" fill="white"/>
<path d="M87.9175 44.9302C87.935 45.1452 87.965 45.3677 88 45.6127C87.9825 45.3827 87.9575 45.1577 87.9175 44.9302Z" fill="white"/>
<path d="M87.7773 50.1802C87.851 49.9871 87.8875 49.7818 87.8848 49.5752L87.7798 49.8777L87.7773 50.1802Z" fill="white"/>
<path d="M87.7749 49.8874V49.2349C87.7849 49.3099 87.7799 49.4999 87.7749 49.8874Z" fill="white"/>
<path d="M87.7774 50.2498V50.1748C87.7713 50.1864 87.7681 50.1992 87.7681 50.2123C87.7681 50.2254 87.7713 50.2383 87.7774 50.2498Z" fill="white"/>
<path d="M87.6501 53.5C87.5901 53.05 87.5251 52.11 87.4351 53.02C87.5001 53.34 87.5601 52.82 87.6501 53.5Z" fill="white"/>
<path d="M87.6426 50.6299L87.6201 51.4449C87.6476 51.4274 87.6876 51.2799 87.7176 51.5049L87.6426 50.6299Z" fill="white"/>
<path d="M87.6099 50.23L87.6424 50.63L87.6524 50.3275L87.6099 50.23Z" fill="white"/>
<path d="M87.8175 46.3248C87.7764 45.9362 87.7572 45.5456 87.76 45.1548C87.7375 45.6198 87.7275 46.1023 87.7275 46.5598C87.75 46.6223 87.82 46.8248 87.8175 46.3248Z" fill="white"/>
<path d="M87.7876 48.0575V47.9775C87.7726 48.0275 87.7701 48.065 87.7876 48.0575Z" fill="white"/>
<path d="M87.75 40.875L87.73 40.9425L87.75 40.96V40.875Z" fill="white"/>
<path d="M87.7074 46.6375C87.6898 46.8881 87.7024 47.1399 87.7449 47.3875C87.7449 47.1375 87.7274 46.85 87.7274 46.5525C87.7124 46.53 87.7024 46.525 87.7074 46.6375Z" fill="white"/>
<path d="M87.8676 43.75C87.8451 43.93 87.8251 44.1375 87.8076 44.355C87.8534 44.1567 87.8736 43.9534 87.8676 43.75Z" fill="white"/>
<path d="M87.8101 47.8602V47.9127C87.8401 47.7977 87.8276 47.8127 87.8101 47.8602Z" fill="white"/>
<path d="M87.8101 47.86C87.7951 47.68 87.7701 47.5375 87.7451 47.395C87.7451 47.61 87.7651 47.8075 87.7826 47.9775C87.7895 47.9378 87.7987 47.8986 87.8101 47.86Z" fill="white"/>
<path d="M87.0752 39.5774C87.1727 39.6399 87.2652 40.5599 87.1602 41.3549C87.2327 42.1374 87.5577 41.6249 87.7402 40.9424C87.6977 40.9199 87.6577 40.9199 87.6002 40.1149C87.5452 40.3949 87.4727 41.8999 87.3827 41.2199C87.3327 40.1549 87.4177 40.3474 87.4702 39.8299C87.3477 40.2699 87.2902 38.4724 87.1102 38.7049L87.1727 39.6399C87.1452 39.6574 87.1002 39.3174 87.0752 39.5774Z" fill="white"/>
<path d="M87.73 42.4775L87.7425 42.8075C87.7647 42.4234 87.8098 42.0411 87.8775 41.6625C87.83 41.1125 87.7925 40.9975 87.76 40.96L87.75 42.59L87.73 42.4775Z" fill="white"/>
<path d="M87.75 44.2951C87.6425 44.0451 87.5975 43.2401 87.48 43.7276C87.48 44.7001 87.57 44.4101 87.6175 44.9901C87.59 43.4201 87.6775 45.4401 87.7375 44.3076C87.7575 44.6151 87.7625 44.8926 87.7675 45.1551C87.7675 44.8726 87.7975 44.6001 87.815 44.3426V44.3801C87.8025 44.4476 87.795 44.4701 87.8025 44.3926C87.801 44.3818 87.801 44.3709 87.8025 44.3601C87.7839 44.3402 87.7703 44.3162 87.7625 44.2901C87.7825 43.8351 87.79 44.2176 87.8025 44.3601C87.8025 44.3601 87.8025 44.3776 87.8175 44.3801L87.75 42.8076C87.7275 43.1401 87.73 43.5576 87.75 44.2951Z" fill="white"/>
<path d="M87.2026 52.1776C87.2026 52.1301 87.2201 52.1326 87.2276 52.1276C87.2151 52.0276 87.2051 52.0001 87.2026 52.1776Z" fill="white"/>
<path d="M87.2675 51.5327C87.3088 51.7231 87.3248 51.9181 87.315 52.1127C87.2825 52.4352 87.2625 52.1127 87.2275 52.1277C87.2575 52.3527 87.305 52.9102 87.3575 52.2102L87.3425 52.0977C87.3567 51.6472 87.4196 51.1996 87.53 50.7627C87.404 51.0046 87.3155 51.2642 87.2675 51.5327Z" fill="white"/>
<path d="M87.4775 47.8676L87.425 46.5601L87.3325 47.2251L87.3875 47.1926C87.365 47.9376 87.435 47.7751 87.4775 47.8676Z" fill="white"/>
<path d="M87.8126 40.7251L87.9276 40.8976L87.7676 40.1426L87.8126 40.7251Z" fill="white"/>
<path d="M87.7998 39.0251L87.8998 39.0876L87.8398 38.6401L87.7998 39.0251Z" fill="white"/>
<path d="M14.2949 47.3999L14.3224 47.7824C14.3124 47.6024 14.3049 47.4849 14.2949 47.3999Z" fill="white"/>
<path d="M14.3 44.6149L14.25 44.5474C14.28 44.6774 14.3 44.7299 14.3 44.6149Z" fill="white"/>
<path d="M52.4599 29.9575C51.8999 29.8675 51.2749 29.7225 51.3424 29.835L51.5149 29.9425C51.8299 29.9248 52.1457 29.9298 52.4599 29.9575Z" fill="white"/>
<path d="M23.8677 30.6077L24.0302 30.6402L24.4077 30.5352L23.8677 30.6077Z" fill="white"/>
<path d="M23.4727 31.0549L22.7227 30.9849C22.9002 30.9999 23.1377 31.0324 23.4727 31.0549Z" fill="white"/>
<path d="M14.4102 62.5977L14.5202 63.0477C14.5202 62.3452 14.4627 62.6527 14.4102 62.5977Z" fill="white"/>
<path d="M76.8027 30.0001C76.3177 29.9576 75.9352 29.9401 75.5952 29.9351C76.1777 29.9851 76.6477 30.0776 76.8027 30.0001Z" fill="white"/>
<path d="M13.1426 46.3049C13.1626 46.5399 13.1851 46.6399 13.2101 46.6324C13.1901 46.3899 13.1701 46.2499 13.1426 46.3049Z" fill="white"/>
<path d="M74.2002 29.9226L74.4502 29.9476C74.8052 29.9301 75.1602 29.9151 75.5902 29.9226C75.1289 29.8617 74.6615 29.8617 74.2002 29.9226Z" fill="white"/>
<path d="M63.1875 69L63.3125 69.015C63.325 69 63.27 69 63.1875 69Z" fill="white"/>
<path d="M79.2498 70.105C79.0898 70.105 78.8323 70.105 78.5898 70.105C78.7048 70.12 78.9048 70.12 79.2498 70.105Z" fill="white"/>
<path d="M87.3525 31.9224C87.3975 31.9774 87.555 32.3099 87.3525 31.9224V31.9224Z" fill="white"/>
<path d="M87.4177 33.9375C87.4177 33.8625 87.3902 33.8025 87.3652 33.7925C87.3951 33.8354 87.4132 33.8854 87.4177 33.9375Z" fill="white"/>
<path d="M70.6101 30.5977H70.5776C70.6851 30.6177 70.6676 30.6152 70.6101 30.5977Z" fill="white"/>
<path d="M87.5723 32.5376C87.5498 32.4601 87.5298 32.3751 87.4973 32.2876L87.3823 32.0176C87.4545 32.1875 87.518 32.3611 87.5723 32.5376Z" fill="white"/>
<path d="M87.5898 32.4375C87.635 32.5573 87.6718 32.6801 87.6998 32.805C87.7148 32.8275 87.7223 32.8275 87.6998 32.775C87.6764 32.6586 87.6395 32.5453 87.5898 32.4375Z" fill="white"/>
<path d="M87 31.4224C87.1465 31.6058 87.2714 31.8055 87.3725 32.0174C87.345 31.9374 87.325 31.9049 87.3425 31.9224C87.2398 31.7481 87.1254 31.5811 87 31.4224Z" fill="white"/>
<path d="M33.6523 69.2998L33.7298 69.3123C34.0923 69.2673 33.9348 69.2723 33.6523 69.2998Z" fill="white"/>
<path d="M41.7827 31.1652C42.2014 31.0587 42.6358 31.0282 43.0652 31.0752L42.6377 30.7627L41.7827 31.1652Z" fill="white"/>
<path d="M14.3252 54.0624L14.4227 53.1524C14.5827 54.2499 14.5277 55.0449 14.6727 54.1899C14.3327 54.0624 14.6377 50.6549 14.2977 50.5299L14.3702 49.9299C14.3702 50.1024 14.3877 50.1299 14.3702 50.2999C14.5327 49.1324 14.1202 49.4324 14.1727 47.9299C14.2002 47.4074 14.2502 47.0424 14.2902 47.3999L14.2052 46.2324C14.2052 45.8924 14.2702 45.9824 14.2652 46.3149L14.2502 44.5349C14.1977 44.2849 14.1152 43.7049 14.0802 43.4249C14.1277 42.9724 14.1152 43.6524 14.1577 43.5374L14.0752 42.5374C14.1627 42.1374 14.2477 42.9549 14.2352 43.6349C14.5752 42.7149 14.1502 42.8174 14.3477 40.8324L14.3927 41.7624C14.5852 41.1624 14.5152 40.4349 14.6427 39.3849C14.5802 39.6349 14.3402 41.4899 14.2552 40.4199C14.2894 39.995 14.2794 39.5677 14.2252 39.1449C14.3452 39.1449 14.3152 38.5774 14.3077 37.8724L14.4677 37.9199C14.4227 37.1574 14.3402 37.2174 14.2702 36.7699C14.2852 35.9199 14.4077 35.7449 14.5202 35.5449C14.5452 34.1849 14.3227 36.4824 14.2927 34.8749C14.3077 34.5924 14.3152 34.3299 14.3152 34.0749C14.3152 33.9524 14.3152 33.8074 14.3152 33.7174C14.3136 33.6138 14.3194 33.5102 14.3327 33.4074C14.3735 32.9266 14.5371 32.4644 14.8077 32.0649C15.3077 31.6024 14.8077 32.2124 14.9977 32.0649C15.0421 31.9773 15.094 31.8936 15.1527 31.8149C15.2089 31.7317 15.2716 31.6531 15.3402 31.5799C15.4602 31.4949 15.4427 31.5549 15.4352 31.5799C15.6302 31.4299 15.6202 31.3899 15.6427 31.3299C15.6653 31.2977 15.6942 31.2705 15.7277 31.2499C15.8386 31.1685 15.9607 31.1037 16.0902 31.0574C16.193 30.9775 16.32 30.9351 16.4502 30.9374C16.5558 30.9271 16.6621 30.9271 16.7677 30.9374H16.9477L17.1627 30.9599C17.7808 31.0544 18.4086 31.0678 19.0302 30.9999C19.3152 31.0449 18.8927 31.0974 18.9802 31.1599C20.5577 31.0274 20.3327 31.0649 21.6302 30.8874L22.7327 30.9924C21.9227 30.8724 22.9577 30.7299 23.8677 30.6149C23.5802 30.5549 23.3327 30.5049 23.1677 30.4799L24.6177 30.3949C24.7927 30.4224 24.6452 30.4749 24.4077 30.5424L24.6752 30.4999C25.1927 30.5599 24.9252 30.6499 24.5527 30.7499L24.0302 30.6524C23.6727 30.7499 23.3377 30.8574 23.4127 30.9499C23.57 30.9259 23.7287 30.9117 23.8877 30.9074C23.7927 30.9324 23.7352 30.9574 23.7777 30.9724C23.9255 30.9714 24.0726 30.9512 24.2152 30.9124L24.5452 31.0924L24.6252 30.9999L26.5202 31.1124C27.8752 30.9324 29.0552 30.6699 31.2077 30.5949C30.6752 30.7249 31.0927 30.8099 31.0652 30.9624C30.4777 30.7999 29.3977 31.0324 28.2827 30.9999C28.8627 31.0174 28.7352 31.0899 28.5877 31.1174L30.5877 30.9674C30.5427 31.0949 31.0102 31.0624 31.5302 31.1149C31.1377 30.8649 33.0127 30.9474 33.8227 30.8649C33.8727 30.9474 33.6777 31.0349 32.6902 31.0124C33.7802 31.2024 34.1002 30.7199 35.1677 30.8799C35.012 30.8644 34.8548 30.8754 34.7027 30.9124C35.2652 30.8374 36.6427 30.8949 36.3177 30.9699H36.0677C37.6702 30.9999 40.9427 30.9699 41.1802 30.7599C41.1977 30.7874 40.9727 31.0099 40.8752 31.0599L43.7327 30.3449C43.4827 30.5274 44.4452 30.9624 43.1177 31.0649C43.6693 31.1093 44.2236 31.1093 44.7752 31.0649C44.5252 31.0374 44.1277 30.7999 44.4827 30.7824C45.104 30.9094 45.7316 31.0037 46.3627 31.0649C45.9727 31.0274 46.4052 30.7399 47.0202 30.7499C46.9252 30.7924 47.0727 31.0324 46.8477 31.0624L48.3802 30.7799C47.9977 30.8299 48.3127 31.0299 48.6552 31.0974C48.4977 31.0424 49.9827 31.0974 50.3902 31.0749L49.7502 31.0174C51.4827 31.0599 51.4602 30.6224 53.1777 30.6374C52.9702 30.6949 52.6777 30.9949 53.5377 31.0299C54.5923 30.6096 55.7006 30.3395 56.8302 30.2274L57.1227 30.3099L58.2877 30.2149C57.5627 30.4324 55.5252 30.8874 54.4127 31.0649C55.0602 31.1299 54.5927 31.1624 55.5627 31.1549C55.9052 31.2324 55.0327 31.2724 54.7477 31.2774L56.9977 31.3249C56.8977 31.1574 58.7252 31.1574 58.6377 31.0174L56.1852 31.1924C56.0852 31.0249 57.6027 30.7149 59.2052 30.7449C59.6102 30.8124 58.9002 31.0424 58.9327 31.0999C59.4856 31.0292 60.0434 31.0058 60.6002 31.0299L59.9202 31.1199C60.8102 31.1824 61.3752 30.8974 62.4452 31.0574C62.8152 31.0574 63.5477 31.2749 63.6127 31.1749C63.0002 30.9824 62.8927 30.3899 63.2927 30.2499C63.4227 30.2499 65.2352 30.4349 65.6552 30.5274C66.2652 30.6799 64.7427 30.8874 65.2602 31.0274C65.4193 30.9607 65.5882 30.9202 65.7602 30.9074C66.1477 30.9474 65.5977 31.0499 66.4427 31.0299C66.5827 30.8599 68.1577 31.0299 66.8402 30.8849C67.6652 30.8374 67.7177 30.9199 68.6852 30.9124C68.3777 30.8024 69.5552 30.5374 70.3827 30.4899C70.3352 30.5324 70.5202 30.5899 70.6102 30.6149C72.3002 30.6299 73.2077 30.7074 74.7852 30.7099C74.9302 30.7499 75.6927 30.7999 75.3677 30.8749C75.6716 30.8152 75.9805 30.7842 76.2902 30.7824C77.2302 30.9299 75.2052 30.8049 75.9227 30.9824C75.9827 30.8824 77.1727 30.8449 77.8727 30.7824C77.6602 30.6299 76.2727 30.7549 75.5777 30.8149C75.5777 30.6049 76.7827 30.3849 78.4302 30.2874C79.7402 30.2349 79.0002 30.4224 79.2252 30.3924C81.6877 30.4299 81.3227 30.0249 83.3652 30.1774C84.1752 30.3099 83.4027 30.4449 83.5827 30.5399C82.5152 30.5924 81.9427 30.4549 81.2202 30.4599L82.1102 30.5249C81.6323 30.5802 81.1505 30.5936 80.6702 30.5649C81.0102 30.6249 82.0502 30.6299 83.2427 30.6349C83.5377 30.6349 83.8502 30.6349 84.1527 30.6499C84.4546 30.6726 84.7513 30.7409 85.0327 30.8524C85.5398 31.0456 85.9831 31.3763 86.3127 31.8074C86.5627 32.0174 86.8802 32.5149 86.7952 32.2474C86.7402 32.1624 86.6877 32.0749 86.6277 31.9974L86.4377 31.7499C86.2877 31.4999 86.5177 31.6849 86.6877 31.8899C86.8577 32.0949 87.0027 32.3024 86.8152 31.9399C87.1126 32.3061 87.3268 32.7327 87.4427 33.1899C87.4758 33.3196 87.4983 33.4517 87.5102 33.5849C87.5256 33.7177 87.534 33.8512 87.5352 33.9849C87.5352 34.2349 87.5352 34.5099 87.5177 34.7949L87.3652 35.0074C87.4348 34.6585 87.4499 34.301 87.4102 33.9474C87.4777 34.4199 87.2027 35.6974 87.4102 36.1974L87.5177 35.4024C87.6513 36.3339 87.7148 37.274 87.7077 38.2149C87.8602 37.7574 87.6902 37.9849 87.8677 37.2699C87.6477 37.8899 87.8677 34.6974 87.6452 35.6924C87.7329 35.3567 87.7807 35.0118 87.7877 34.6649C87.7877 34.4924 87.8052 34.3124 87.8227 34.1149L87.8552 33.8024L87.8827 33.3849C87.8627 33.4074 87.8427 33.5124 87.8277 33.4824C87.8121 33.4285 87.8013 33.3733 87.7952 33.3174C87.7752 33.2099 87.7602 33.0424 87.6977 32.7974C87.6702 32.7549 87.6277 32.6549 87.5902 32.5949L87.5702 32.5299L87.5852 32.5849C87.5627 32.5474 87.5602 32.5424 87.5852 32.6049C87.6273 32.7681 87.645 32.9366 87.6377 33.1049C87.4946 32.7097 87.3147 32.3289 87.1002 31.9674C86.8764 31.6156 86.588 31.3094 86.2502 31.0649C85.8227 30.6974 86.4727 31.1649 86.2652 30.9299C86.0461 30.7935 85.8142 30.6788 85.5727 30.5874C85.5727 30.5549 85.4852 30.4849 85.3827 30.4099C85.2802 30.3349 85.1327 30.2724 85.0527 30.2174C84.9727 30.1624 84.9077 30.1374 84.9652 30.1324C85.1589 30.1528 85.348 30.2043 85.5252 30.2849C85.1374 30.1082 84.7239 29.9943 84.3002 29.9474C83.9332 29.8966 83.5633 29.869 83.1927 29.8649C82.8684 29.855 82.5438 29.8625 82.2202 29.8874C81.7202 29.8624 80.9552 30.0099 81.3927 29.9224L79.7327 29.9999L79.7177 29.9724C78.0727 29.9574 76.3352 30.1574 74.4552 29.9549C73.9027 29.9849 73.3327 30.0174 72.4052 29.9874L72.2252 29.8824C71.5152 29.9149 70.0927 29.7849 69.7877 29.8824C69.0227 29.6324 66.3427 29.8274 65.0927 29.7799L65.0452 29.9074C64.1852 29.9074 63.3627 29.9349 62.2952 29.9874L62.3602 30.0974C61.4402 30.1899 59.9952 30.0199 58.5402 30.0299C58.7814 29.9946 59.0265 29.9946 59.2677 30.0299C57.5302 29.7799 55.6002 30.2149 54.0177 30.0299C53.7012 30.0654 53.3817 30.0654 53.0652 30.0299H53.1627H53.0002L52.4602 29.9574C52.6252 29.9849 52.7827 30.0074 52.9202 30.0199C52.6177 30.0199 52.1577 30.0349 51.7077 30.0624L51.5152 29.9424H51.4102C50.9702 29.8999 51.0552 29.9999 51.2927 30.0899C51.0652 30.1099 50.8577 30.1349 50.6952 30.1649C50.3377 29.9699 49.5152 30.2299 49.0227 30.0224C48.7202 30.1224 46.7602 30.0974 46.5227 30.3099C46.5052 30.2824 46.3727 30.2699 46.6177 30.2674C46.1336 30.2259 45.6468 30.2259 45.1627 30.2674L44.9477 30.1149L43.8527 30.3199C43.1852 30.2274 42.9102 30.1724 43.5702 30.0549C41.9752 30.2349 42.2752 30.1224 40.9177 30.3049L40.9827 30.2049C40.4977 30.2049 39.7327 30.3424 39.4277 30.2599C38.3427 30.0724 34.0527 30.2349 31.2652 30.0599C31.8077 30.3499 29.9702 29.9299 29.8602 30.1549C29.6977 30.0849 29.3077 30.0474 29.7602 29.9874C28.3377 30.0549 27.6227 29.8774 26.6402 30.0674C26.4777 29.9999 26.9452 29.9674 26.8002 29.9274C26.602 29.9612 26.4001 29.9671 26.2002 29.9449C26.0552 29.9049 26.4077 29.8874 26.6327 29.8574C25.1802 29.8699 25.0327 30.0799 24.9252 30.2799C24.3829 30.18 23.8255 30.197 23.2902 30.3299C23.0402 30.2649 22.6052 30.1974 23.5102 30.1724C23.0102 30.1724 20.4052 30.0774 20.3527 30.2374C20.0689 30.2107 19.7831 30.2149 19.5002 30.2499C18.3602 30.2499 18.2502 30.2249 17.1402 30.2499L17.4502 30.2774C17.2098 30.3624 16.9549 30.3989 16.7002 30.3849C16.3096 30.3898 15.9241 30.4749 15.5677 30.6349L15.5852 30.6049C15.2253 30.7272 14.8913 30.9154 14.6002 31.1599C14.4793 31.2605 14.3702 31.3745 14.2752 31.4999C14.1952 31.5899 14.1352 31.6949 13.9977 31.8749C13.7808 32.1837 13.6059 32.52 13.4777 32.8749L13.6227 32.7899C13.6752 32.8599 13.6527 33.0024 13.6227 33.2024C13.5927 33.4024 13.5277 33.6874 13.5002 33.9774C13.4179 34.5971 13.3895 35.2228 13.4152 35.8474L13.4827 35.4199C13.5702 36.0649 13.1327 37.2274 13.1002 37.8774C13.0777 38.0199 13.0627 37.6549 13.0477 37.4574C12.8952 39.1574 13.2052 37.6774 13.2402 38.9574C13.1552 39.1774 13.0252 38.6424 13.0002 39.4999C12.9302 39.9249 13.2752 41.9749 13.1127 43.1399C13.1777 42.8899 13.2427 42.6399 13.2927 43.2174C13.3152 44.1199 13.0427 45.6574 13.2502 46.4674C13.2327 46.5824 13.2152 46.6249 13.2002 46.6299C13.2527 47.3199 13.2877 48.8799 13.4002 49.2874C13.0002 49.9274 13.6102 53.5799 13.2277 53.5649L13.2502 55.6874L13.2102 55.6324C13.1665 56.4068 13.2194 57.1836 13.3677 57.9449C13.3427 58.2599 13.3052 58.0299 13.2852 58.0049C13.2102 59.9874 13.2252 60.1849 13.4152 61.8449L13.2927 62.0199C13.3277 62.2449 13.2927 62.9599 13.2402 63.8649C13.2202 64.3149 13.2027 64.8149 13.2002 65.3199C13.2002 65.5699 13.2002 65.8199 13.2002 66.0824C13.2002 66.2149 13.2002 66.3324 13.2177 66.4724C13.2265 66.6128 13.2458 66.7524 13.2752 66.8899C13.2249 66.8208 13.1969 66.7379 13.1952 66.6524C13.2753 67.3236 13.5097 67.9671 13.8802 68.5324C14.0744 68.8243 14.3055 69.0898 14.5677 69.3224C14.8271 69.5482 15.1155 69.7382 15.4252 69.8874C15.7143 70.0264 16.0215 70.1241 16.3377 70.1774L16.5602 70.2124L16.7752 70.2249H16.9752H17.1427C17.4773 70.232 17.8096 70.1681 18.1177 70.0374L19.5602 69.9274C17.6927 69.8924 19.8377 69.7324 19.0602 69.6574C19.7952 69.6299 20.9602 69.7924 20.0602 69.8149L19.9177 69.7924C19.5852 70.0274 22.2377 69.8774 22.1877 70.0424C25.8627 70.0424 29.4377 70.1599 32.8877 70.1699L32.5002 69.9799H33.7027C34.0177 70.0224 34.1252 70.1249 33.2677 70.1174C33.7589 70.1685 34.2553 70.1252 34.7302 69.9899C36.4077 70.0649 34.0752 70.2024 34.5877 70.2074L35.2877 70.1924L35.1302 70.1724C35.6709 70.059 36.2231 70.0103 36.7752 70.0274C37.4277 70.0649 37.1102 70.1399 37.3652 70.1474C37.3652 70.1599 37.4502 70.1674 37.7602 70.1474L39.2602 70.1624L38.6552 70.0199C39.3252 69.9474 40.0777 70.0199 39.3802 69.8624C40.4052 70.1124 45.0227 69.9524 45.6527 70.0324C46.654 69.9395 47.6601 69.9086 48.6652 69.9399C48.3802 69.9099 48.2102 69.7474 49.2002 69.7674C48.8377 70.1024 51.0152 69.9149 51.8152 70.1549C51.1002 69.9949 54.6302 70.1149 53.5077 69.8874C54.3352 69.9149 53.5577 70.0149 54.1852 70.0924C56.1527 69.9624 58.5202 70.1774 60.9527 70.1324C60.9902 70.0899 60.5827 70.0224 61.1027 69.9574L62.3877 70.1774C62.8677 70.1549 62.8302 69.9274 63.7077 70.0749C63.5827 70.0374 63.3977 69.9824 63.7202 69.9674C68.4827 70.1824 73.4527 69.7924 78.2902 70.1949C77.6352 70.1099 78.0727 70.1024 78.5727 70.0974C78.2477 70.0774 78.5727 69.9899 78.5152 69.9299L80.5402 70.0949C80.9102 69.9299 82.7127 70.0949 82.9227 69.9274L82.2827 69.9549C83.1352 69.7674 81.0877 69.5399 81.2127 69.2999C80.2577 69.5124 78.6952 68.9874 77.1277 69.2999C76.7827 69.2524 77.4227 69.2224 77.2377 69.1674C76.6659 69.2815 76.0803 69.3093 75.5002 69.2499L75.6002 69.2249C73.1002 69.2499 72.0327 69.1499 69.2277 69.0824L69.4352 69.1999C69.1005 69.1938 68.7665 69.1662 68.4352 69.1174C67.7427 69.2974 70.1277 69.1174 69.4977 69.3249C68.6977 69.0749 65.2477 69.3249 64.7052 69.0474C63.7777 69.0474 64.9777 69.1849 64.0502 69.1824L63.8002 69.1099L63.5652 69.2049C62.9577 69.1899 62.6502 69.0974 62.6277 69.0349C62.7752 69.0349 63.0477 69.0149 63.2052 69.0099C62.4177 68.9224 60.9827 69.0399 60.7052 69.0099L61.5952 69.0549C59.0652 69.1249 55.9752 69.0274 53.5302 69.1774L53.7152 69.2349C51.8477 69.3374 52.2152 69.1724 50.1702 69.2199H50.2427C49.7392 69.2796 49.2322 69.3055 48.7252 69.2974C49.2427 69.2324 47.7502 69.1699 48.4302 69.0974C46.4052 69.2074 47.4302 69.1849 46.0902 69.3924L45.7827 69.2999C45.2849 69.4119 44.7754 69.4631 44.2652 69.4524C45.1052 69.3724 43.6102 69.3099 44.5527 69.2024C42.4027 68.9999 41.3627 69.4074 40.3752 69.1099C39.3902 69.3599 42.2352 69.2524 41.6827 69.3074C42.1452 69.3924 40.8677 69.4999 40.1827 69.4749C39.4977 69.4499 39.0152 69.1449 37.2877 69.1499C37.4602 69.1499 37.4727 69.1324 37.6427 69.1349C36.9977 69.0674 36.3777 69.2224 35.5852 69.1149C35.1402 69.2724 34.5552 69.1149 34.4277 69.3049L36.0127 69.2599C35.1127 69.3099 34.2627 69.5424 32.7927 69.4299C33.0756 69.3706 33.3621 69.3297 33.6502 69.3074C33.2177 69.2499 32.8177 69.3474 32.3702 69.2874C32.4977 69.0899 34.2927 69.2449 35.2552 69.0924C34.7927 69.0099 33.4352 69.2374 33.9202 69.0224C33.2252 69.2949 32.2177 68.9874 31.0502 69.1949L31.1277 69.0774C30.8259 69.1179 30.5221 69.1421 30.2177 69.1499L30.8352 68.9949C29.8877 69.1274 29.0102 68.8799 28.1027 68.9524C30.0027 68.9524 28.5277 69.0949 29.3327 69.1824C26.9877 69.3399 27.9827 68.8699 25.3577 68.9324C25.7152 68.9174 26.6927 69.0049 26.1377 69.0599C25.6465 69.0433 25.1565 68.999 24.6702 68.9274C22.9327 68.9524 24.9377 69.0499 24.1977 69.1224C23.6052 68.9774 23.3427 69.1799 22.5802 69.2274V69.1074C20.6002 69.0299 22.0552 69.3574 20.2702 69.2649L21.0202 69.0974L20.0902 69.1399L20.2827 69.0024C19.5121 69.0847 18.7356 69.0973 17.9627 69.0399C18.1927 69.1249 17.8327 69.2599 16.9627 69.2624C16.6977 69.2124 16.7777 69.1899 16.7802 69.1699C16.7827 69.1499 16.7127 69.1699 16.1977 69.0574H16.3902C16.4552 69.0574 16.5252 69.0574 16.6002 69.0574C16.6752 69.0574 16.7552 69.0574 16.8502 69.0724C16.9452 69.0874 17.0552 69.0999 17.1927 69.1249C17.2477 69.0874 17.4702 69.0499 17.5252 69.0124C17.3494 68.9902 17.1724 68.9777 16.9952 68.9749C16.8413 68.9688 16.6877 68.9546 16.5352 68.9324C16.2839 68.8989 16.0393 68.8263 15.8102 68.7174C15.9277 68.7874 16.0827 68.8474 16.1577 68.8924C15.9155 68.8393 15.6811 68.7553 15.4602 68.6424C15.2365 68.5207 15.029 68.3712 14.8427 68.1974C14.7302 67.9774 14.8702 68.1149 15.0227 68.2224C14.7783 68.0153 14.5791 67.76 14.4377 67.4724C14.5077 67.4934 14.5748 67.5228 14.6377 67.5599C14.6752 67.5874 14.7127 67.6324 14.7752 67.6924C14.8377 67.7524 14.9002 67.8399 15.0002 67.9424C14.85 67.7773 14.7206 67.5942 14.6152 67.3974C14.5114 67.1951 14.4349 66.9799 14.3877 66.7574L14.4402 66.3899C14.4677 66.2099 14.4952 66.0749 14.5152 66.1874C14.5727 65.2349 14.3252 63.8499 14.4002 62.5874C14.3675 62.4337 14.3499 62.2771 14.3477 62.1199C14.3702 60.9324 14.4902 59.8699 14.3477 58.4749L14.5227 57.6749C14.4827 56.5749 14.3002 58.7574 14.2352 56.9249C14.1802 55.6249 14.3852 56.4399 14.4327 55.9849C14.26 54.9998 14.2171 53.9962 14.3052 52.9999C14.3377 53.3824 14.3127 53.6924 14.3252 54.0624ZM14.2502 40.4724C14.2752 40.7224 14.3527 41.2599 14.2827 41.4524C14.1427 41.1524 14.2077 40.9199 14.2502 40.4724ZM25.8677 30.8374C25.588 30.8701 25.305 30.8617 25.0277 30.8124C25.308 30.8017 25.5886 30.81 25.8677 30.8374ZM83.4202 29.9999H83.3927C82.8052 29.9574 83.0152 29.9749 83.4202 29.9999ZM84.7527 30.1499C84.8952 30.1674 84.8902 30.1499 84.8352 30.1174C84.7802 30.0849 84.6777 30.0974 84.5402 30.0849L84.3127 30.0524L84.0627 30.0324C84.137 30.0581 84.2143 30.074 84.2927 30.0799C84.3927 30.0999 84.5427 30.1124 84.7502 30.1474L84.7527 30.1499ZM37.5002 70.1124L37.2502 70.0824C37.8027 70.0474 37.6527 70.0774 37.5002 70.1124Z" fill="white"/>
<path d="M23.5252 31.0001C23.4807 30.9936 23.4405 30.9704 23.4127 30.9351C23.3077 30.9576 23.3077 30.9826 23.5252 31.0001Z" fill="white"/>
<path d="M14.3901 62.5151V62.5576C14.3942 62.5726 14.4019 62.5864 14.4126 62.5976L14.3901 62.5151Z" fill="white"/>
<path d="M65.75 31.0725C65.5815 31.0636 65.4141 31.0393 65.25 31C65.25 31.04 65.36 31.065 65.75 31.0725Z" fill="white"/>
<path d="M87.9026 35.9173L87.8701 35.1348C87.8765 35.3705 87.8631 35.6063 87.8301 35.8398C87.8601 35.8223 87.9001 35.6723 87.9026 35.9173Z" fill="white"/>
<path d="M87.1548 42.6998C87.1698 42.8123 87.1548 42.9498 87.1723 43.0523L87.2273 43.0223C87.2248 42.5348 87.1798 42.1948 87.1548 42.6998Z" fill="white"/>
<path d="M87.5001 36.6401C87.4001 36.7026 87.4351 37.1926 87.4526 37.7401V37.6426C87.5951 37.8051 87.5476 37.2201 87.5001 36.6401Z" fill="white"/>
<path d="M87.4575 37.8677C87.4575 38.0352 87.4575 38.2077 87.4575 38.3677C87.515 38.4377 87.47 38.1677 87.4575 37.8677Z" fill="white"/>
<path d="M86.3924 30.8876C86.5999 31.1126 86.6249 30.9201 86.7249 31.0751C86.8924 31.1601 86.5024 30.7926 86.1774 30.6401C86.0249 30.5526 85.8924 30.5176 85.9024 30.5351C85.9124 30.5526 86.0549 30.6376 86.3924 30.8876Z" fill="white"/>
<path d="M87.1675 37.0826L87.2925 36.8876L87.19 36.5801L87.1675 37.0826Z" fill="white"/>
<path d="M87.0776 32.7502C87.1645 33.0356 87.2107 33.3319 87.2151 33.6302C87.2326 33.6152 87.2551 33.7302 87.2676 33.8802C87.2851 33.3152 87.1151 32.7127 87.0776 32.7502Z" fill="white"/>
<path d="M87.2676 33.8701C87.261 34.1053 87.2677 34.3407 87.2876 34.5751C87.2876 34.4226 87.2826 34.0951 87.2676 33.8701Z" fill="white"/>
<path d="M87.1299 35.8877L87.1549 35.6302L87.1649 35.0127L87.1299 35.8877Z" fill="white"/>
<path d="M78.5474 30.4648L77.5949 30.4998C77.4974 30.5423 77.7574 30.5698 78.1124 30.5523C78.3399 30.5223 78.6949 30.4998 78.5474 30.4648Z" fill="white"/>
<path d="M81.4349 30.8074C81.2909 30.797 81.1493 30.765 81.0149 30.7124L80.9849 30.8674L81.4349 30.8074Z" fill="white"/>
<path d="M78.6526 30.8452C78.5576 30.8877 77.2651 30.9677 78.4751 30.9577C78.5726 30.9152 79.5301 30.8802 78.6526 30.8452Z" fill="white"/>
<path d="M64.27 30.6476L64.5125 30.6451L64.4775 30.3901L64.27 30.6476Z" fill="white"/>
<path d="M51.5927 31.2502C52.7252 31.3102 51.8627 31.0927 52.8827 31.1677C53.1502 31.1077 52.0477 31.1052 52.3202 31.0552C51.6377 31.1252 51.2802 31.0902 51.5927 31.2502Z" fill="white"/>
<path d="M52.3198 31.0625C52.4298 31.0625 52.5448 31.04 52.6698 31.0225C52.5525 31.0297 52.4357 31.043 52.3198 31.0625Z" fill="white"/>
<path d="M81.9102 70.2425L82.6376 70.295L82.1702 70.21L81.9102 70.2425Z" fill="white"/>
<path d="M83.3076 70.0527L83.4776 70.2152L83.9151 70.0677C83.7127 70.0858 83.5089 70.0808 83.3076 70.0527Z" fill="white"/>
<path d="M14.575 38.45L14.535 38.395C14.4884 38.5999 14.4708 38.8103 14.4825 39.02L14.575 38.45Z" fill="white"/>
<path d="M14.4526 48.315L14.4576 48.145L14.3101 48.4625L14.4526 48.315Z" fill="white"/>
<path d="M14.6398 56.595C14.6398 56.2575 14.6123 55.86 14.6198 55.52C14.6473 56.25 14.4573 56.685 14.6398 56.595Z" fill="white"/>
</g>
<defs>
<clipPath id="clip0_391_1390">
<rect width="75.13" height="40.6025" fill="white" transform="translate(13 29.75)"/>
</clipPath>
</defs>
</svg>
