<svg width="100" height="100" viewBox="0 0 100 100" fill="none" xmlns="http://www.w3.org/2000/svg">
<path d="M76.5499 62.737C76.3249 62.887 76.4749 62.912 76.4499 62.962C76.7999 62.687 76.5499 62.737 76.5499 62.737Z" fill="white"/>
<path d="M79.9499 60.0118L79.8999 60.0868L80.3499 59.6118L79.9499 60.0118Z" fill="white"/>
<path d="M83.0751 57.3867C82.6751 57.5117 82.0001 58.4117 81.4001 58.8117L81.2751 58.8617L81.1001 59.1867C81.7751 58.6117 82.5751 57.7617 83.0751 57.3867Z" fill="white"/>
<path d="M84.8999 56.0865C84.7499 56.1365 85.1749 55.6865 84.5249 56.4615C84.5749 56.4365 84.5749 56.4115 84.5999 56.4115C84.6749 56.3115 84.7499 56.2365 84.8999 56.0865Z" fill="white"/>
<path d="M84.6 56.3869C84.3 56.7119 84.85 56.2119 84.6 56.3869V56.3869Z" fill="white"/>
<path d="M85.9002 54.8116C85.8002 54.9866 85.7002 55.1366 85.5752 55.3116C85.7002 55.2366 86.0252 54.8366 85.9252 55.0116C86.2752 54.5116 86.1502 54.5866 85.9002 54.8116Z" fill="white"/>
<path d="M86.1251 54.3115C86.0751 54.3865 86.0251 54.4865 85.9751 54.5615C86.0251 54.5365 86.0751 54.4615 86.1251 54.3115Z" fill="white"/>
<path d="M85.625 55.0865C85.75 54.9115 85.85 54.7365 85.975 54.5615C85.9 54.6115 85.85 54.5865 85.8 54.8115C85.8 54.7365 85.775 54.8615 85.625 55.0865Z" fill="white"/>
<path d="M85.3751 55.3618C85.1501 55.5868 84.8501 55.8868 85.1751 55.4118C84.4501 56.2368 84.6751 56.2118 85.3751 55.3618Z" fill="white"/>
<path d="M83.0999 57.1118C82.9749 57.1868 82.8749 57.2868 82.7499 57.3618L82.5249 57.6618C82.6499 57.5118 83.1499 57.1368 83.0999 57.1118Z" fill="white"/>
<path d="M87.9499 51.8117C87.9249 51.7617 87.7749 51.9367 87.6999 51.9617L87.5249 52.3617C87.6749 52.1867 87.8999 51.8117 87.9499 51.8117Z" fill="white"/>
<path d="M87.6999 51.9618C87.7749 51.7618 87.8499 51.5618 87.9249 51.3618C87.6749 51.8618 87.6499 51.9618 87.6999 51.9618Z" fill="white"/>
<path d="M86.025 54.1115C85.85 54.4115 85.675 54.7115 85.5 55.0115C85.725 54.6615 85.95 54.3115 86.15 53.9365L86.025 54.1115Z" fill="white"/>
<path d="M88.9499 49.5368L88.8999 49.9118L88.9999 49.2368L88.9499 49.5368Z" fill="white"/>
<path d="M89.375 47.9365C89.375 48.2115 89.575 47.5865 89.55 47.8865C89.625 47.4365 89.625 47.0365 89.625 46.6865C89.625 47.0365 89.525 47.4365 89.375 47.9365Z" fill="white"/>
<path d="M89.6001 46.0869C89.6001 46.2619 89.6251 46.4619 89.6251 46.6869C89.6251 46.4619 89.6251 46.2869 89.6001 46.0869Z" fill="white"/>
<path d="M88.4248 50.3615C88.4748 50.3115 88.5498 50.2615 88.7248 49.9365L88.5248 50.1365C88.4748 50.2115 88.4498 50.2865 88.4248 50.3615Z" fill="white"/>
<path d="M88.5 50.1368C88.625 49.8868 88.675 49.6868 88.7 49.6118C88.675 49.6868 88.625 49.8368 88.5 50.1368Z" fill="white"/>
<path d="M88.4 50.4367C88.4 50.4117 88.425 50.3867 88.425 50.3867C88.4 50.3867 88.375 50.3867 88.4 50.4367Z" fill="white"/>
<path d="M87.0498 52.787C87.1998 52.437 87.4998 51.737 87.0748 52.337C86.9998 52.587 87.2498 52.262 87.0498 52.787Z" fill="white"/>
<path d="M88.1501 50.6616C88.0501 50.8616 87.9501 51.0616 87.8501 51.2616C87.8751 51.2616 87.9751 51.1616 87.9251 51.3616C88.0001 51.1366 88.0751 50.8866 88.1501 50.6616Z" fill="white"/>
<path d="M88.2499 50.3369C88.2249 50.4369 88.1749 50.5619 88.1499 50.6619C88.1749 50.5869 88.2249 50.5119 88.2499 50.4369V50.3369Z" fill="white"/>
<path d="M89.3501 47.2617C89.3751 46.9617 89.3751 46.6367 89.4251 46.2617C89.3501 46.6617 89.3001 47.0617 89.2251 47.4367C89.2501 47.4867 89.2751 47.6617 89.3501 47.2617Z" fill="white"/>
<path d="M89.0001 48.6868C89.0001 48.6618 89.0001 48.6368 89.0251 48.6118C89.0001 48.6368 88.9751 48.6868 89.0001 48.6868Z" fill="white"/>
<path d="M89.2251 42.6367C89.2251 42.6617 89.2251 42.6867 89.2251 42.6867H89.2501L89.2251 42.6367Z" fill="white"/>
<path d="M89.2001 47.487C89.1251 47.787 89.1001 47.937 89.1001 48.112C89.1501 47.887 89.2001 47.662 89.2251 47.412C89.2251 47.412 89.2251 47.387 89.2001 47.487Z" fill="white"/>
<path d="M89.5749 45.0615C89.5499 45.2115 89.5249 45.3865 89.5249 45.5865C89.5499 45.4115 89.5999 45.1115 89.5749 45.0615Z" fill="white"/>
<path d="M89.0752 48.5115C89.0752 48.5365 89.0752 48.5365 89.0752 48.5615C89.1252 48.4865 89.1002 48.4865 89.0752 48.5115Z" fill="white"/>
<path d="M89.0749 48.5118C89.0999 48.3618 89.0999 48.2368 89.0999 48.1118C89.0749 48.2868 89.0499 48.4618 89.0249 48.5868C89.0249 48.5868 89.0499 48.5368 89.0749 48.5118Z" fill="white"/>
<path d="M88.2751 41.7617C88.3251 41.7617 88.4501 41.9367 88.5251 42.2117C88.6001 42.4617 88.7001 42.8117 88.7001 43.1367C88.8751 43.7617 89.1251 43.3117 89.2251 42.6867C89.1751 42.6867 89.1501 42.6867 88.9251 42.0367C88.9251 42.1617 88.9751 42.5367 89.0001 42.8117C89.0001 43.0867 89.0001 43.2617 88.9001 42.9867C88.6751 42.1367 88.7751 42.2867 88.7251 41.8367C88.7251 42.2117 88.2001 40.8367 88.1001 41.0617L88.4001 41.7617C88.3751 41.8117 88.2501 41.5617 88.2751 41.7617Z" fill="white"/>
<path d="M89.4002 43.9869L89.4252 44.2619C89.4252 44.1119 89.4252 43.9619 89.4252 43.8119C89.4252 43.6619 89.4252 43.4869 89.4252 43.2869C89.3002 42.8369 89.2502 42.7369 89.2002 42.7119C89.2502 42.9369 89.2752 43.1619 89.3002 43.3869L89.3502 43.7369C89.3752 43.8619 89.3752 43.9619 89.3752 44.0869L89.4002 43.9869Z" fill="white"/>
<path d="M89.4498 45.5367C89.3498 45.3117 89.2998 44.6367 89.1748 45.0617C89.1748 45.4617 89.1998 45.6117 89.2248 45.7117C89.2498 45.8117 89.2748 45.8867 89.2748 46.1117C89.3498 44.7867 89.3248 46.4867 89.4498 45.5367C89.4498 45.8117 89.4248 46.0367 89.4248 46.2617C89.4498 46.0117 89.4748 45.7867 89.5248 45.5867V45.6117C89.4998 45.6617 89.4998 45.6867 89.4998 45.6117V45.5867C89.4748 45.5867 89.4748 45.5617 89.4498 45.5367C89.4748 45.1617 89.4748 45.4867 89.4998 45.5867C89.4998 45.5867 89.4998 45.6117 89.5248 45.6117C89.5248 45.3867 89.4998 45.1617 89.4998 44.9367C89.4998 44.7117 89.4498 44.4867 89.4248 44.2617C89.4248 44.4117 89.4248 44.5617 89.4498 44.7617C89.4498 44.9617 89.4498 45.2117 89.4498 45.5367Z" fill="white"/>
<path d="M87.2002 51.6119C87.2252 51.5869 87.2252 51.5869 87.2502 51.5869C87.2502 51.5119 87.2752 51.4869 87.2002 51.6119Z" fill="white"/>
<path d="M87.4998 51.1867C87.4748 51.2867 87.4748 51.3617 87.3248 51.6367C87.1748 51.8617 87.2748 51.6117 87.2498 51.6117C87.1998 51.7867 86.9998 52.2117 87.3248 51.7367L87.3498 51.6367C87.4748 51.4117 87.6498 51.1617 87.7748 50.9867C87.8998 50.8117 87.9998 50.6867 87.9748 50.7367C87.8498 50.8117 87.7248 50.9117 87.4998 51.1867Z" fill="white"/>
<path d="M88.7502 48.4368C88.8252 48.0868 88.9002 47.7368 88.9252 47.3618C88.8752 47.5368 88.8002 47.7118 88.7252 47.8868L88.7752 47.8618C88.6252 48.4618 88.7252 48.3618 88.7502 48.4368Z" fill="white"/>
<path d="M89.2252 42.4866L89.3752 42.6116L89.0752 42.0366L89.2252 42.4866Z" fill="white"/>
<path d="M88.8249 41.1116L88.9499 41.1366L88.7749 40.7866L88.8249 41.1116Z" fill="white"/>
<path d="M18.5502 39.9116L18.3252 40.1116C18.4502 40.0366 18.5002 39.9616 18.5502 39.9116Z" fill="white"/>
<path d="M20.35 38.6116L20.375 38.5366C20.3 38.6366 20.275 38.6616 20.35 38.6116Z" fill="white"/>
<path d="M59.6251 26.9118C59.1751 26.8118 58.6501 26.6868 58.7001 26.7868L58.8501 26.8868C59.1751 26.8868 59.4251 26.9118 59.6251 26.9118Z" fill="white"/>
<path d="M36.75 30.5119C36.8 30.5119 36.85 30.5119 36.875 30.5119C36.975 30.4369 37.05 30.3869 37.15 30.3369C37.025 30.3619 36.875 30.4369 36.75 30.5119Z" fill="white"/>
<path d="M36.5502 31.0366L35.9502 31.1366C36.1002 31.1116 36.3002 31.0866 36.5502 31.0366Z" fill="white"/>
<path d="M12.0249 49.512L12.0499 49.862C12.1749 49.337 12.0749 49.562 12.0249 49.512Z" fill="white"/>
<path d="M79.0498 30.7866C78.6998 30.5616 78.4248 30.4116 78.1748 30.2866C78.5998 30.5616 78.8998 30.8116 79.0498 30.7866Z" fill="white"/>
<path d="M18.5752 38.4619C18.4252 38.5869 18.3752 38.6619 18.4002 38.6869C18.5502 38.5369 18.6252 38.4619 18.5752 38.4619Z" fill="white"/>
<path d="M77.125 29.8115C77.175 29.8365 77.25 29.8865 77.3 29.9115C77.575 30.0115 77.85 30.1115 78.175 30.2615C77.9 30.0865 77.525 29.9115 77.125 29.8115Z" fill="white"/>
<path d="M41.9248 71.9619C41.9498 71.9619 41.9998 71.9619 42.0248 71.9869C42.0248 71.9619 41.9748 71.9619 41.9248 71.9619Z" fill="white"/>
<path d="M54.9249 72.4116C54.7999 72.4366 54.5999 72.4616 54.3999 72.4866C54.4999 72.4866 54.6499 72.4616 54.9249 72.4116Z" fill="white"/>
<path d="M86.0249 36.1118C86.0499 36.1368 86.2249 36.3368 86.0249 36.1118V36.1118Z" fill="white"/>
<path d="M86.5502 37.5115C86.5002 37.4615 86.4752 37.4365 86.4502 37.4365C86.4752 37.4615 86.5252 37.4865 86.5502 37.5115Z" fill="white"/>
<path d="M74.1501 29.4365C74.1251 29.4365 74.1251 29.4365 74.1501 29.4365C74.1751 29.4615 74.2001 29.4865 74.1501 29.4365Z" fill="white"/>
<path d="M86.2748 36.4866C86.2248 36.3866 86.1498 36.2866 86.0498 36.1616C86.0748 36.2116 86.1498 36.3116 86.2748 36.4866Z" fill="white"/>
<path d="M86.2749 36.4116C86.3249 36.4866 86.3749 36.5616 86.4249 36.6366C86.4499 36.6366 86.4499 36.6116 86.2749 36.4116Z" fill="white"/>
<path d="M85.7251 35.7866C85.8501 35.9116 85.9501 36.0366 86.0251 36.1616C86.0001 36.1116 85.9751 36.0866 86.0001 36.0866C85.9501 36.0366 85.8751 35.9366 85.7251 35.7866Z" fill="white"/>
<path d="M18.9751 66.9116C19.0001 66.9366 19.0001 66.9366 19.0251 66.9616C19.3001 67.0616 19.2001 66.9866 18.9751 66.9116Z" fill="white"/>
<path d="M52.0752 28.3615C52.1002 28.3615 52.1002 28.3615 52.1002 28.3615C52.1002 28.3365 52.0752 28.3365 52.0752 28.3615Z" fill="white"/>
<path d="M51.0498 28.5369C51.4748 28.3619 51.7248 28.3619 52.0748 28.3619L51.6998 28.0869L51.0498 28.5369Z" fill="white"/>
<path d="M14.8 43.5615C14.975 43.3865 15.15 43.2365 15.325 43.0865C15.1 43.4615 14.9 43.7615 14.8 43.9115C14.7 44.0615 14.725 44.0615 15 43.8615C14.9 43.7115 15.325 43.1865 15.775 42.6615C16.225 42.1615 16.75 41.6865 16.65 41.5115C16.775 41.4115 16.925 41.3365 17.05 41.2365C16.95 41.3365 16.95 41.3615 16.85 41.4365C17.65 40.9365 17.2 40.7865 18.15 40.0615C18.5 39.8115 18.75 39.6865 18.55 39.8865C18.775 39.6865 19 39.4615 19.25 39.2615C19.475 39.1115 19.45 39.1865 19.225 39.3365C19.6 39.0365 19.975 38.7615 20.375 38.5115V38.5365C20.525 38.3865 20.85 38.0615 21.025 37.8865C21.35 37.7115 20.9 38.0115 21 38.0115L21.6 37.5115C21.925 37.4115 21.425 37.8365 20.95 38.1365C21.75 38.0115 21.425 37.6865 22.9 37.0365L22.275 37.4615C22.775 37.3865 23.25 37.0115 24.025 36.6865C23.825 36.7365 22.425 37.2865 23.125 36.7865C23.35 36.6865 23.625 36.5115 24 36.2365C24.075 36.3365 24.45 36.1115 24.95 35.8365L25 35.9865C25.525 35.6615 25.425 35.6115 25.725 35.3615C26.025 35.2115 26.225 35.1365 26.375 35.1365C26.525 35.1115 26.625 35.1365 26.7 35.1365C27.7 34.6865 25.925 35.2865 27.075 34.6865C27.5 34.5115 27.85 34.3615 28.2 34.1615C28.575 33.9865 28.95 33.7865 29.425 33.5115C30.025 33.3115 29.35 33.6365 29.6 33.5865L30.075 33.2365C30.2 33.1865 30.175 33.2365 30.175 33.2615C30.6 33.0365 30.15 33.0865 30.825 32.7865C30.875 32.6615 31.275 32.5865 31.725 32.4865C32.2 32.3865 32.725 32.2115 33.15 31.9865C33.375 31.9615 33.075 32.1115 33.175 32.1615C34.325 31.6365 34.175 31.7365 35.125 31.2365L36 31.0865C35.35 31.1615 36.1 30.7865 36.775 30.4615C36.525 30.4615 36.325 30.4865 36.2 30.4865L37.3 30.0865C37.45 30.0865 37.35 30.1615 37.175 30.2865C37.25 30.2615 37.325 30.2115 37.375 30.1865C37.8 30.1365 37.6 30.2865 37.35 30.4365C37.2 30.4365 37.05 30.4615 36.925 30.4615C36.675 30.6365 36.45 30.8115 36.525 30.8865C36.6 30.8365 36.725 30.7865 36.875 30.7365C36.8 30.7865 36.775 30.8115 36.8 30.8365C36.85 30.8365 36.95 30.7615 37.125 30.6865L37.425 30.7865L37.475 30.7115L38.975 30.4615C39.475 30.2365 39.95 30.0115 40.5 29.7865C41.05 29.5615 41.7 29.3365 42.55 29.1365C42.15 29.3365 42.5 29.3615 42.5 29.5115C42 29.4365 41.2 29.8615 40.325 30.0115C40.775 29.9365 40.7 30.0365 40.6 30.0865L42.125 29.6115C42.125 29.7365 42.475 29.6365 42.9 29.6115C42.55 29.4115 44.05 29.2365 44.675 29.0365C44.725 29.1115 44.6 29.2365 43.8 29.3365C44.25 29.3615 44.525 29.2365 44.775 29.1115C45.05 28.9865 45.3 28.8615 45.75 28.8865C45.55 28.9115 45.45 28.9115 45.375 28.9615C45.825 28.8115 46.925 28.7115 46.675 28.8365L46.475 28.8615C47.75 28.6865 50.375 28.3865 50.55 28.1615C50.575 28.1865 50.4 28.4365 50.325 28.4865C51.075 28.1865 51.8 27.8615 52.575 27.5865C52.375 27.7865 53.2 28.1615 52.125 28.3365C52.425 28.3365 52.825 28.3365 53.45 28.2365C53.25 28.2365 52.9 28.0115 53.2 27.9615C54 28.1115 53.75 28.0365 54.725 28.1365C54.4 28.1115 54.75 27.8115 55.25 27.7865C55.175 27.8365 55.3 28.0615 55.125 28.1115L56.35 27.7865C56.05 27.8615 56.3 28.0365 56.575 28.0865C56.5 28.0615 56.775 28.0615 57.1 28.0365C57.425 28.0365 57.8 28.0365 57.975 28.0115L57.45 27.9615C58.85 27.9615 58.825 27.5365 60.225 27.5615C60.05 27.6115 59.8 27.9115 60.5 27.9615C60.65 27.8865 61.025 27.7365 61.5 27.5615C61.975 27.4115 62.575 27.2615 63.2 27.2365L63.425 27.3365L64.375 27.3115C64.075 27.4115 63.5 27.5365 62.9 27.6615C62.3 27.8115 61.65 27.9365 61.2 28.0115C61.725 28.0865 61.35 28.1115 62.125 28.1365C62.4 28.2365 61.7 28.2365 61.475 28.2365C62.075 28.2615 62.675 28.3115 63.275 28.3615C63.2 28.1865 64.675 28.2865 64.6 28.1365C63.95 28.1615 63.275 28.1615 62.625 28.2115C62.55 28.0365 63.8 27.7865 65.075 27.9115C65.4 28.0115 64.8 28.1865 64.825 28.2365C65 28.1865 66.05 28.2365 66.175 28.2865L65.625 28.3365C66.325 28.4615 66.8 28.2365 67.65 28.4865C67.95 28.5365 68.5 28.8365 68.55 28.7365C68.1 28.4865 68.1 27.8615 68.425 27.7865C68.475 27.8115 68.85 27.9115 69.275 28.0365C69.675 28.1615 70.125 28.3115 70.275 28.3865C70.725 28.6115 69.475 28.6115 69.875 28.8115C69.9 28.7615 70.175 28.7615 70.3 28.7615C70.6 28.8615 70.15 28.8615 70.8 28.9865C70.95 28.8365 72.15 29.3115 71.15 28.9115C71.8 29.0115 71.825 29.0865 72.575 29.2865C72.475 29.2115 72.65 29.1615 72.975 29.1365C73.275 29.1365 73.7 29.1615 74.025 29.2365C73.975 29.2615 74.1 29.3615 74.175 29.4115C74.5 29.5115 74.775 29.6115 75.05 29.7115C75.3 29.8115 75.55 29.9115 75.775 30.0115C76 30.1115 76.25 30.2115 76.5 30.3115C76.75 30.4365 77 30.5365 77.3 30.6615C77.4 30.7365 77.925 31.0365 77.675 30.9865C77.85 31.0365 78.025 31.0615 78.375 31.2365C78.975 31.7115 77.575 30.8615 78.025 31.2865C78.075 31.2615 78.3 31.3365 78.6 31.4365C78.75 31.4865 78.9 31.5615 79.075 31.6115C79.225 31.6865 79.375 31.7365 79.5 31.8115C79.45 31.7115 79.2 31.5365 78.85 31.3865C78.5 31.2365 78.1 31.0865 77.85 31.0115C77.9 30.9115 78.15 30.9365 78.575 31.0115C78.775 31.0615 79.025 31.1365 79.3 31.2365C79.575 31.3365 79.85 31.4615 80.15 31.6115C80.625 31.8615 80.7 31.9365 80.7 31.9865C80.675 32.0115 80.575 31.9865 80.65 32.0365C81.5 32.5865 81.875 32.7615 82.25 32.9365C82.425 33.0115 82.6 33.1115 82.8 33.2365C83 33.3615 83.225 33.5615 83.525 33.8615C83.95 34.3865 83.375 34.0865 83.425 34.2615C83.075 33.9865 82.85 33.7615 82.625 33.5615C82.4 33.3615 82.225 33.1615 81.975 33.0115C82.175 33.1615 82.35 33.3365 82.525 33.4865C82.4 33.4115 82.225 33.3115 82.05 33.1865C81.875 33.0615 81.675 32.9365 81.575 32.8365C81.675 32.9365 81.9 33.1115 82.175 33.3365C82.45 33.5615 82.825 33.8365 83.175 34.1615C83.925 34.7865 84.675 35.5615 85.15 36.1615C85.35 36.3365 85.7 36.6615 85.6 36.4615L85.275 36.1115C85.075 35.6865 85.975 36.7115 85.625 36.2115C85.75 36.3365 85.875 36.4365 86 36.5615C86.125 36.6865 86.25 36.8365 86.375 36.9615C86.65 37.2365 86.875 37.5865 87.125 38.0115L87.1 38.2365C87.125 38.1865 86.85 37.6865 86.65 37.4865C86.775 37.6365 86.95 37.9615 87.1 38.2865C87.25 38.6115 87.425 38.9365 87.625 39.0865L87.375 38.4615C87.575 38.7365 87.825 39.0115 88.025 39.3615C88.125 39.5365 88.25 39.7115 88.35 39.8865C88.45 40.0865 88.525 40.2615 88.6 40.4615C88.6 40.0365 88.525 40.2865 88.425 39.6615C88.45 39.9365 88.2 39.4615 87.975 39.0115C87.725 38.5615 87.5 38.1865 87.6 38.5865C87.475 37.9365 87.125 37.6365 86.8 36.8865C86.775 36.9365 86.9 37.1615 86.475 36.5865C86.45 36.5615 86.375 36.5115 86.35 36.4865C86.35 36.4615 86.325 36.4615 86.325 36.4365C86.325 36.4615 86.325 36.4615 86.35 36.4615C86.325 36.4365 86.325 36.4365 86.35 36.4865C86.425 36.6365 86.5 36.7615 86.5 36.8115C86.2 36.5865 85.5 35.7365 85.2 35.5115C84.925 35.1865 85.35 35.5865 85.25 35.3865L84.8 35.0365C84.85 34.9115 84.125 34.1365 84.9 34.7615L84.25 34.1365C84.075 33.9365 83.85 33.7115 83.625 33.5115C83.4 33.3115 83.175 33.1365 82.975 33.0115C82.825 32.8865 82.6 32.7365 82.45 32.6615C82.3 32.5865 82.225 32.5615 82.4 32.6365C82 32.3865 81.625 32.1365 81.225 31.9115V31.8865C81.075 31.7865 80.925 31.7115 80.775 31.6115C80.625 31.5365 80.475 31.4365 80.325 31.3615C80.025 31.2115 79.7 31.0365 79.375 30.8865C78.725 30.5865 78.05 30.2365 77.375 29.8615C77.15 29.7865 76.95 29.7115 76.675 29.6115C76.425 29.5115 76.125 29.4115 75.775 29.2615L75.675 29.1115C75.525 29.0615 75.375 28.9865 75.175 28.9365C75 28.8615 74.8 28.7865 74.6 28.7365C74.225 28.6115 73.875 28.4865 73.75 28.4865C73.475 28.2865 72.8 28.0615 72.05 27.9115C71.675 27.8365 71.3 27.7615 70.925 27.6865C70.575 27.6115 70.25 27.5615 70 27.5115L69.95 27.6365C69.25 27.4865 68.575 27.4365 67.7 27.3615L67.75 27.4865C67.375 27.4865 66.9 27.4115 66.35 27.3115C65.825 27.2365 65.225 27.1365 64.625 27.0865C64.7 27.0365 65 27.0865 65.225 27.1365C63.825 26.7615 62.225 27.1365 60.95 26.9365C60.625 26.9615 60.4 26.9615 60.175 26.9115C60.2 26.9115 60.225 26.9115 60.25 26.9115C60.225 26.9115 60.175 26.9115 60.125 26.9115C59.975 26.8865 59.825 26.8865 59.675 26.8615C59.8 26.8865 59.95 26.9115 60.05 26.9115C59.8 26.9115 59.425 26.9365 59.05 26.9615L58.9 26.8365C58.875 26.8365 58.85 26.8365 58.825 26.8365C58.475 26.7865 58.525 26.8865 58.725 26.9865C58.55 27.0115 58.375 27.0365 58.25 27.0615C57.95 26.8865 57.3 27.1365 56.875 26.9615C56.625 27.0615 55.025 27.1115 54.85 27.3365C54.825 27.3115 54.725 27.3115 54.925 27.2865C54.525 27.2865 54.1 27.2865 53.75 27.3615L53.575 27.2115L52.7 27.4865C52.15 27.4365 51.925 27.3865 52.45 27.2365C51.175 27.5115 51.4 27.3865 50.325 27.6615L50.375 27.5615C50.175 27.5865 49.925 27.6365 49.7 27.6865C49.475 27.7365 49.25 27.7865 49.125 27.7365C48.225 27.6365 44.775 28.2365 42.525 28.5115C42.775 28.6115 42.5 28.6365 42.175 28.6365C41.85 28.6615 41.45 28.7115 41.425 28.8115C41.275 28.7615 40.975 28.8115 41.3 28.6615C40.175 28.9615 39.575 28.9115 38.825 29.3115C38.675 29.2865 39.05 29.1615 38.925 29.1365C38.85 29.1615 38.575 29.2865 38.45 29.2615C38.325 29.2615 38.6 29.1615 38.775 29.0865C37.625 29.3865 37.55 29.6115 37.525 29.8365C36.925 29.8865 36.65 30.0115 36.25 30.2365C36.025 30.2365 35.675 30.2615 36.375 30.0365C36.175 30.0865 35.55 30.2365 35 30.4115C34.45 30.5865 33.925 30.7865 33.95 30.8615C33.825 30.8615 33.4 31.0365 33.3 31.0865C32.425 31.3615 32.325 31.3865 31.5 31.7365L31.75 31.6615C31.475 31.9615 31.05 31.9615 30.375 32.2615V32.2365C28.775 32.7615 29.725 32.5865 28.15 33.0865L28.275 33.1615C28.225 33.4365 26.875 33.6365 26.05 34.1615L26.4 34.0615C26.175 34.2115 25.8 34.2865 25.45 34.3865C25.075 34.4615 24.7 34.5365 24.45 34.6615C24.325 34.6865 24.6 34.5365 24.725 34.4615C23.425 34.9865 24.65 34.6865 23.75 35.2115C23.55 35.2365 23.85 34.9115 23.25 35.2365C23.075 35.2865 22.675 35.6115 22.225 35.9615C21.75 36.3115 21.225 36.6865 20.775 36.8865C20.975 36.8115 21.2 36.7615 20.825 37.0615C20.225 37.4865 19.025 37.9615 18.625 38.5365C18.55 38.5865 18.5 38.5865 18.475 38.5865C18.05 38.9615 17.075 39.7865 16.9 40.1115C16.575 40.1115 15.925 40.7365 15.4 41.3615C14.875 41.9865 14.425 42.5865 14.275 42.4615C14.075 42.6865 13.9 42.9115 13.725 43.1615L13.475 43.5115L13.25 43.8865V43.8365C13.1 44.0615 12.95 44.2615 12.85 44.4365C12.75 44.6115 12.65 44.7615 12.625 44.8865C12.525 45.1615 12.475 45.3615 12.425 45.5615C12.275 45.7865 12.325 45.5865 12.325 45.5615C11.55 47.0115 11.525 47.2115 11.3 48.5615L11.15 48.6615C11.15 48.8615 10.975 49.4115 10.775 50.1615C10.7 50.5365 10.65 50.9365 10.575 51.3615C10.525 51.7865 10.525 52.2115 10.55 52.6115C10.525 52.5865 10.525 52.5615 10.5 52.4365C10.5 52.8865 10.525 53.3865 10.525 53.8865C10.5 54.3865 10.55 54.9115 10.575 55.3865C10.6 55.8615 10.7 56.2865 10.775 56.6365C10.875 56.9865 10.975 57.2615 11.125 57.3865L11.575 58.5115C11.175 57.0365 11.825 58.6615 11.725 58.0365C11.775 58.1865 11.8 58.3365 11.85 58.5115C11.9 58.6615 11.925 58.8115 11.95 58.9115C12 59.1365 11.975 59.1865 11.825 58.8615L11.8 58.7365C11.65 58.6365 11.8 59.1115 11.95 59.5865C12.025 59.8365 12.15 60.0615 12.225 60.2365C12.3 60.4115 12.325 60.5365 12.3 60.5615C12.475 60.9115 12.625 61.2615 12.825 61.5615C13.025 61.8865 13.2 62.2115 13.4 62.5365C13.625 62.8365 13.825 63.1615 14.05 63.4615C14.275 63.7615 14.525 64.0365 14.775 64.3115C15.75 65.4365 16.875 66.3865 18.075 67.1865C18.025 67.0865 17.95 66.9615 17.9 66.8615C18.175 67.0615 18.45 67.2115 18.725 67.4115C18.925 67.5865 18.95 67.7115 18.35 67.3365C18.475 67.4865 18.75 67.6365 18.975 67.7115C19.225 67.8115 19.425 67.8615 19.45 67.8365C20.025 68.2115 19.9 68.1865 19.65 68.1115C19.4 68.0365 19.05 67.8615 19.25 67.9865C19.425 68.0865 19.6 68.1615 19.775 68.2615L19.675 68.1865C20.125 68.3365 20.2 68.2865 20.95 68.6615C21.425 68.9115 21.15 68.8865 21.35 68.9865C21.35 68.9865 21.4 69.0365 21.65 69.1115C22.025 69.2865 22.425 69.4365 22.8 69.5865L22.4 69.2615C22.95 69.3865 23.475 69.6865 23 69.3365C23.35 69.6115 24.425 70.0115 25.5 70.3365C26.575 70.6615 27.625 70.8865 27.85 70.9865C28.625 71.0615 29.35 71.2115 30.275 71.4115C30.05 71.3365 29.95 71.1365 30.725 71.3365C30.375 71.6115 32.15 71.7615 32.75 72.0865C32.2 71.8365 35.025 72.4115 34.15 72.0365C34.8 72.1615 34.175 72.1615 34.675 72.3115C36.275 72.4115 38.175 72.8115 40.15 72.9115C40.175 72.8615 39.85 72.7865 40.275 72.7365L41.3 73.0115C41.7 73.0115 41.675 72.7865 42.375 72.9615C42.275 72.9115 42.125 72.8615 42.4 72.8615C44.325 73.0365 46.325 72.9865 48.3 72.8615C49.3 72.8115 50.275 72.7365 51.275 72.6865C52.275 72.6115 53.25 72.5615 54.25 72.5365C53.7 72.5115 54.05 72.4615 54.475 72.4115C54.2 72.4365 54.475 72.3115 54.4 72.2615C54.95 72.2615 55.5 72.2115 56.05 72.1865C56.175 72.0865 56.625 72.0115 57.05 71.9365C57.475 71.8615 57.875 71.7865 57.95 71.6865L57.45 71.8115C58.1 71.5115 56.425 71.5865 56.5 71.3115C56.125 71.4865 55.625 71.4615 55.05 71.4865C54.475 71.4865 53.85 71.5115 53.225 71.7365C52.95 71.7115 53.45 71.6365 53.3 71.5865C53 71.7365 52.6 71.7865 51.9 71.8115L51.975 71.7865C49.975 71.9865 49.1 71.9615 46.85 71.9615L47.025 72.0865C46.55 72.0865 46.425 72.0365 46.2 72.0115C45.65 72.2115 47.55 71.9865 47.05 72.2115C46.4 72.0115 43.625 72.2615 43.2 71.9365C42.45 71.9115 43.425 72.0865 42.675 72.0615L42.475 71.9865L42.275 72.0865C41.775 72.0615 41.55 71.9365 41.525 71.8865C41.65 71.9115 41.85 71.8865 42 71.8865C41.375 71.7615 40.225 71.8115 40 71.7865L40.7 71.8615C38.675 71.8115 36.2 71.4615 34.225 71.3365L34.375 71.4115C33.625 71.3365 33.325 71.2865 33.025 71.2115C32.7 71.1365 32.375 71.0615 31.575 70.9365H31.625C31.3 70.9365 30.85 70.8865 30.4 70.7865C30.825 70.8115 29.65 70.5115 30.2 70.5365C28.575 70.3115 29.4 70.4615 28.3 70.4365L28.075 70.2865C27.7 70.2865 27.65 70.3115 26.85 70.1365C27.525 70.2365 26.375 69.8615 27.125 69.9615C25.525 69.3365 24.6 69.4615 23.95 68.9115C23.525 68.9115 23.875 69.0615 24.275 69.2115C24.675 69.3615 25.1 69.4865 24.9 69.4365C25.225 69.6365 24.225 69.4365 23.7 69.2115C23.45 69.1115 23.25 68.9615 22.95 68.7615C22.65 68.5615 22.275 68.3365 21.65 68.0615C21.775 68.1115 21.8 68.1115 21.925 68.1615C21.475 67.8865 20.975 67.8365 20.45 67.4365C20.05 67.4115 19.75 67.0365 19.55 67.1615C19.75 67.2615 19.925 67.3615 20.1 67.4365L20.675 67.7115C20.35 67.5615 20 67.4865 19.625 67.3115C19.25 67.1615 18.825 66.9365 18.35 66.5865C18.45 66.6115 18.775 66.7365 19 66.8365C18.75 66.6115 18.4 66.5115 18.15 66.2615C18.325 66.1615 19.45 67.0615 20.2 67.2865C19.925 67.0365 18.875 66.7115 19.325 66.7115C19.025 66.6865 18.725 66.5115 18.425 66.2865C18.125 66.0615 17.775 65.8115 17.35 65.5865L17.475 65.5365C17.35 65.4615 17.075 65.3365 16.875 65.1365C17.025 65.2115 17.175 65.2615 17.35 65.3115C17 65.1365 16.775 64.8615 16.525 64.6115C16.3 64.3365 16.075 64.0865 15.8 63.8615C16.85 64.8865 15.925 64.1865 16.325 64.6865C15.975 64.3865 15.75 64.1865 15.6 64.0115C15.475 63.8365 15.4 63.7115 15.35 63.5615C15.225 63.2865 15.075 63.0115 14.475 62.1865C14.65 62.3865 15.025 63.0615 14.725 62.7365C14.525 62.4115 14.25 61.9615 14.175 61.7365C13.475 60.5865 14.175 61.9865 13.825 61.5365C13.775 61.3115 13.675 61.1615 13.55 61.0365C13.475 60.9615 13.425 60.8865 13.325 60.8115C13.25 60.7365 13.175 60.6115 13.1 60.4865L13.2 60.4365C12.6 59.0115 12.75 60.1865 12.325 58.8365L12.7 59.3365L12.4 58.6615L12.575 58.7615C12.475 58.5865 12.4 58.4365 12.35 58.3115C12.3 58.1865 12.25 58.0615 12.225 57.9365C12.15 57.6865 12.1 57.4365 12 57.0615C11.975 57.1615 11.925 57.1365 11.85 57.0365C11.775 56.9115 11.7 56.6865 11.625 56.3365C11.6 55.8615 11.775 56.5865 11.575 55.6115C11.675 55.8115 11.825 56.0365 11.8 56.4615C11.85 56.4865 11.925 56.6615 11.975 56.6865C11.975 56.4365 11.9 56.1115 11.85 55.8365C11.825 55.6865 11.8 55.5615 11.775 55.4365C11.75 55.3115 11.75 55.1865 11.725 55.1115C11.725 55.2365 11.75 55.4115 11.75 55.4865L11.575 54.7865C11.525 54.5615 11.45 54.3115 11.425 54.0865C11.45 53.8615 11.5 54.0365 11.55 54.2115C11.525 53.9365 11.475 53.7365 11.45 53.3115C11.55 53.4115 11.65 53.3865 11.725 53.9865L11.65 53.3115L11.6 52.9865L11.575 52.6615C11.625 52.5615 11.725 51.9865 11.75 52.1615C11.775 51.9865 11.775 51.7615 11.775 51.5615C11.8 51.3365 11.8 51.1115 11.8 50.8615C11.8 50.3865 11.875 49.8615 12.025 49.3865C12.025 49.3365 12.025 49.2365 12.05 49.0115C12.2 48.5615 12.35 48.1615 12.5 47.7365C12.7 47.3115 12.85 46.8865 13.025 46.3615L13.475 45.8865C13.825 45.1115 12.9 46.5365 13.5 45.2365C14 44.3615 13.825 44.9865 14.075 44.7365C14.175 44.5115 14.3 44.1615 14.5 43.8365C14.7 43.4865 15 43.1365 15.35 42.8365C15.125 43.1615 14.95 43.3365 14.8 43.5615ZM23.125 36.7865C22.95 36.9115 22.65 37.2115 22.475 37.2115C22.6 36.9865 22.8 36.9365 23.125 36.7865ZM38.35 30.3115C38.2 30.3865 37.975 30.4365 37.675 30.4615C37.9 30.3865 38.1 30.3365 38.35 30.3115ZM83.625 33.8115C83.25 33.4615 83.375 33.5865 83.625 33.8115V33.8115ZM84.35 34.5365C84.425 34.5865 84.45 34.5865 84.425 34.5365C84.35 34.5115 84.175 34.3615 84 34.1615C84.025 34.2365 84.1 34.3615 84.35 34.5365ZM21.375 69.0615C21.325 69.0365 21.275 68.9865 21.2 68.9615C21.65 69.0865 21.525 69.0615 21.375 69.0615Z" fill="white"/>
<path d="M36.5749 30.9616C36.4999 30.9616 36.4999 30.9366 36.4749 30.9116C36.3999 30.9616 36.3999 30.9866 36.5749 30.9616Z" fill="white"/>
<path d="M12.0249 49.4365V49.4615C12.0249 49.4865 12.0249 49.4865 12.0499 49.4865L12.0249 49.4365Z" fill="white"/>
<path d="M70.2251 28.9365C70.0251 28.8865 69.9251 28.8365 69.8501 28.8115C69.8501 28.8365 69.9251 28.8865 70.2251 28.9365Z" fill="white"/>
<path d="M87.85 38.6618L87.5 38.1118C87.675 38.3868 87.7 38.4868 87.775 38.6368C87.775 38.6118 87.75 38.4868 87.85 38.6618Z" fill="white"/>
<path d="M88.8252 44.2117C88.8502 44.3117 88.8502 44.4117 88.8502 44.4867L88.9002 44.4617C88.9002 44.0867 88.8252 43.8117 88.8252 44.2117Z" fill="white"/>
<path d="M87.775 39.3867C87.75 39.4367 87.775 39.5367 87.85 39.6867C87.925 39.8367 88.025 40.0117 88.125 40.2367C88.125 40.2117 88.1 40.1867 88.1 40.1617C88.2 40.1867 88.175 40.1117 88.125 39.9617C88.025 39.7867 87.9 39.5867 87.775 39.3867Z" fill="white"/>
<path d="M88.1748 40.3369C88.2248 40.4619 88.2998 40.5869 88.3248 40.7119C88.3998 40.7369 88.2748 40.5619 88.1748 40.3369Z" fill="white"/>
<path d="M85.2998 35.4118C85.4248 35.5868 85.4998 35.4118 85.5498 35.5368C85.7998 35.6368 84.4248 34.5868 85.2998 35.4118Z" fill="white"/>
<path d="M87.6501 39.8618L87.6751 39.6618L87.4751 39.4868L87.6501 39.8618Z" fill="white"/>
<path d="M85.8501 36.8366L86.2501 37.4116C86.2501 37.3866 86.3251 37.4616 86.4001 37.5366C86.1501 37.2116 85.8751 36.8116 85.8501 36.8366Z" fill="white"/>
<path d="M86.3999 37.5615C86.5249 37.7615 86.6499 37.9365 86.7249 38.0365C86.6749 37.9115 86.5249 37.7115 86.3999 37.5615Z" fill="white"/>
<path d="M87.1502 39.0117L87.0752 38.8367L86.8252 38.3867L87.1502 39.0117Z" fill="white"/>
<path d="M80.0751 31.8866L79.3751 31.5366C79.2751 31.5366 79.4501 31.6616 79.7251 31.7866C79.9001 31.8616 80.1751 31.9866 80.0751 31.8866Z" fill="white"/>
<path d="M81.8499 33.4366C81.6999 33.2866 81.6999 33.2616 81.6249 33.1616L81.5249 33.2866L81.8499 33.4366Z" fill="white"/>
<path d="M79.9751 32.2616C79.8751 32.2616 78.9501 31.8116 79.8001 32.2866C79.8751 32.2866 80.5501 32.6366 79.9751 32.2616Z" fill="white"/>
<path d="M69.1499 28.3119L69.3499 28.3369V28.0869L69.1499 28.3119Z" fill="white"/>
<path d="M58.9249 28.2116C59.8249 28.2616 59.1499 28.0616 59.9499 28.1366C60.1749 28.0866 59.2749 28.0866 59.4999 28.0366C58.9749 28.0866 58.6749 28.0616 58.9249 28.2116Z" fill="white"/>
<path d="M59.5249 28.0368C59.6249 28.0368 59.6999 28.0118 59.7999 27.9868C59.6499 28.0118 59.5749 28.0118 59.5249 28.0368Z" fill="white"/>
<path d="M57.1001 72.2117L57.7001 72.1617L57.3001 72.1367L57.1001 72.2117Z" fill="white"/>
<path d="M58.2002 71.8118L58.3752 71.9368L58.7002 71.7368C58.5502 71.7868 58.3002 71.8368 58.2002 71.8118Z" fill="white"/>
<path d="M24.6751 36.2619L24.7001 36.2119C24.6001 36.2119 24.4751 36.2869 24.2251 36.4119L24.6751 36.2619Z" fill="white"/>
<path d="M18.0749 40.4866L18.1999 40.4116L17.8999 40.4616L18.0749 40.4866Z" fill="white"/>
<path d="M13.9249 45.3367C14.0749 45.1367 14.1999 44.8617 14.3499 44.6367C14.0749 45.1117 13.7499 45.2867 13.9249 45.3367Z" fill="white"/>
</svg>
