<svg width="100" height="100" viewBox="0 0 100 100" fill="none" xmlns="http://www.w3.org/2000/svg">
<path fill-rule="evenodd" clip-rule="evenodd" d="M29.8432 88.7189C29.733 88.7776 29.733 89.2142 29.5974 89.2561C29.4872 89.2897 29.1905 88.87 29.0973 88.912C28.9702 88.9623 28.9532 89.3821 28.8091 89.4156C28.6904 89.4492 28.4701 89.0127 28.3514 89.0211C28.2327 89.0295 28.1649 89.4828 28.0293 89.4996C27.9021 89.5164 27.7411 89.0631 27.6309 89.0547C27.5207 89.0463 27.3936 89.4996 27.2579 89.4912C27.1308 89.4912 27.0376 89.0043 26.9274 88.9875C26.8596 88.9707 26.5883 89.4324 26.512 89.3821C26.4696 89.3569 26.2408 88.8868 26.2577 88.8448C26.3001 88.6937 26.6222 88.6349 26.6561 88.4838C26.7663 88.467 26.9104 88.0641 26.9952 88.0809C27.0799 88.1061 27.1647 88.5762 27.2749 88.5762C27.3851 88.5846 27.4783 88.1312 27.5716 88.148C27.6648 88.1564 27.8089 88.593 27.9276 88.593C28.0462 88.5846 28.0886 88.1396 28.1903 88.1312C28.2921 88.1145 28.487 88.551 28.6057 88.5258C28.7243 88.5006 28.7328 88.0557 28.8345 88.0305C28.9447 88.0053 29.1736 88.3831 29.3092 88.3831C29.5042 88.4922 29.6652 88.6013 29.8432 88.7189Z" fill="white"/>
<path fill-rule="evenodd" clip-rule="evenodd" d="M12.1024 64.1473C12.1109 64.0046 11.7295 63.7528 11.7634 63.6184C11.7973 63.4757 12.2804 63.4673 12.3143 63.333C12.3567 63.1987 11.9668 62.9301 12.0092 62.7958C12.06 62.6614 12.5093 62.6447 12.5856 62.5271C12.6619 62.4096 13.1196 62.4012 13.162 62.2753C13.2043 62.1661 12.806 61.8304 12.8653 61.7296C12.9501 61.5869 13.3315 61.6121 13.4417 61.4862C13.4756 61.4694 14.0181 61.2511 14.0265 61.2595C14.0604 61.3267 14.3232 61.7296 14.3063 61.7968C14.2808 61.8723 13.7299 61.9479 13.7383 62.0234C13.7468 62.1662 13.9672 62.4264 14.035 62.5523C14.0774 62.6279 14.3656 63.0056 14.3402 63.0644C14.3147 63.1315 13.8485 63.2659 13.7638 63.3162C13.679 63.3582 13.2128 63.5009 13.1959 63.5765C13.1789 63.6268 13.5688 64.0718 13.5349 64.0886C13.4756 64.1305 13.0518 64.3824 12.984 64.374C12.8568 64.3404 12.772 63.8703 12.6449 63.8535C12.4754 63.8367 12.2804 64.1389 12.1024 64.1473Z" fill="white"/>
<path fill-rule="evenodd" clip-rule="evenodd" d="M14.1115 59.95C13.7131 60.0843 13.3232 60.2186 12.9248 60.3697L12.4247 59.2112C12.4586 59.0685 12.1195 58.7495 12.1789 58.6152C12.2297 58.4977 12.7637 58.5312 12.7976 58.4137C12.8231 58.3382 12.5349 57.868 12.5942 57.8177C12.7044 57.7169 13.0689 57.675 13.213 57.633C13.2808 57.6162 13.8063 57.5155 13.8233 57.4651C13.8572 57.3728 13.6622 56.9698 13.6283 56.8607C13.5605 56.6592 13.5096 56.4577 13.4588 56.2562C13.4164 56.1051 13.2808 55.7945 13.3062 55.6434C13.3232 55.5595 13.8911 55.5847 13.9419 55.5091C14.0182 55.3916 13.747 55.0306 13.7978 54.8879C13.8487 54.7452 13.5775 54.3758 13.6622 54.2499C13.73 54.1408 14.2556 54.2499 14.3064 54.1408C14.3403 54.0652 14.1454 53.5531 14.2047 53.5112C14.3318 53.4272 14.6963 53.444 14.8489 53.4188L15.4846 53.3433C15.544 53.763 15.6203 54.1743 15.6881 54.5773C15.6287 54.7116 15.8915 55.0642 15.8067 55.1733C15.7304 55.2657 15.2303 55.1565 15.188 55.2657C15.1286 55.4168 15.4168 55.7358 15.3405 55.8701C15.2812 55.9876 14.7896 55.8701 14.7218 55.9876C14.6455 56.1135 14.9421 56.4493 14.8828 56.5836C14.8235 56.718 15.1286 57.0454 15.0523 57.1713C14.976 57.2888 14.5099 57.1881 14.442 57.314C14.3742 57.4399 14.7133 57.7841 14.6455 57.9016C14.6031 57.9772 14.0437 57.9772 14.0352 58.0611C14.0267 58.2038 14.1962 58.4977 14.2471 58.6404L14.459 59.2028C14.5099 59.3455 14.6963 59.6142 14.6963 59.7653C14.7048 59.8324 14.1538 59.8828 14.1115 59.95Z" fill="white"/>
<path fill-rule="evenodd" clip-rule="evenodd" d="M17.2819 51.9915L16.6461 52.0082C16.5699 52.0082 16.0443 52.0838 16.0019 52.0334C15.8833 51.9159 16.0528 51.5381 15.968 51.3954L15.9426 50.749C15.9426 50.6735 15.8748 50.1362 15.9257 50.0858C16.0443 49.9683 16.4342 50.1614 16.5868 50.0858C16.6631 50.2118 16.4681 50.6231 16.5868 50.7322C16.6461 50.791 17.1971 50.6483 17.231 50.7322C17.2819 50.8666 17.231 51.2107 17.248 51.3702L17.2819 51.9915Z" fill="white"/>
<path fill-rule="evenodd" clip-rule="evenodd" d="M19.1377 50.8415C18.7223 50.7995 18.2985 50.7743 17.8662 50.7575C17.8662 50.3462 17.8832 49.918 17.9001 49.4899L17.934 48.8351C17.934 48.7176 17.9255 48.2643 18.0018 48.1887C18.0442 48.1467 18.5867 48.2475 18.663 48.2643C18.7562 48.2727 19.2479 48.3986 19.3072 48.3482C19.3326 48.3314 19.4174 47.7354 19.4004 47.7102C19.3835 47.685 18.7732 47.6011 18.7562 47.6179C18.8749 47.5087 18.7308 47.0638 18.8664 46.9631C18.9427 46.9043 19.4174 47.047 19.5106 47.0554C19.5784 47.0554 20.104 47.2149 20.1548 47.1729C20.2565 47.089 20.6804 47.3828 20.799 47.3156C20.8923 47.2569 20.8923 46.7952 20.9431 46.6944C21.0279 46.5265 21.0533 46.2495 21.1042 46.0648C21.1381 45.9221 21.1805 45.536 21.2822 45.4184C21.3415 45.3345 21.8247 45.6451 21.9179 45.6031C22.0366 45.5443 22.0111 45.0239 22.1383 44.9903C22.2315 44.9651 22.7062 45.2589 22.7655 45.2002C22.8757 45.0994 22.9435 44.7301 23.0029 44.5873L23.2572 43.9661C23.2911 43.8654 23.4521 43.4037 23.5454 43.3701C23.6216 43.3365 24.0963 43.5968 24.1726 43.6303C24.3252 43.6975 24.6218 43.899 24.7744 43.899C24.8677 43.899 24.9863 43.3449 25.0796 43.3113C25.2237 43.261 25.5119 43.6052 25.6644 43.5968C25.7746 43.5884 25.8763 43.0511 26.0035 43.0175C26.0967 42.9923 26.4951 43.2945 26.5799 43.3365C26.7748 43.4289 26.9528 43.5632 27.1393 43.6723C27.1308 43.5212 27.5292 43.2778 27.5038 43.1267C27.4784 43.0007 26.9444 42.9 26.9444 42.7825C26.9444 42.6649 27.258 42.3375 27.3343 42.2284C27.3851 42.1529 27.6564 41.7079 27.7496 41.6911C27.8937 41.666 28.1819 42.1025 28.309 42.0605C28.4277 42.0185 28.6227 41.54 28.7498 41.54C28.9448 41.5484 29.1058 41.8926 29.2923 41.9346L28.86 42.4467C28.7922 42.5306 28.4362 42.858 28.4531 42.9588C28.4531 42.9755 28.9532 43.3533 28.9787 43.3449C29.1058 43.3281 29.2584 42.8244 29.3855 42.8328C29.572 42.8496 29.7161 43.2022 29.8941 43.2442C30.0213 43.0679 30.1993 42.9336 30.3264 42.7573C30.3095 42.7825 30.8096 43.1434 30.8096 43.1938C30.8096 43.2778 30.4366 43.5884 30.3773 43.6639C30.2501 43.8318 30.0975 43.9829 29.9704 44.1508C29.8433 44.3187 29.7161 44.4782 29.589 44.6461C29.5127 44.7552 29.3432 45.0994 29.233 45.1414C29.1482 45.175 28.8515 44.7301 28.7413 44.7468C28.6481 44.7636 28.4786 45.2841 28.4023 45.2589C28.2582 45.217 28.0208 44.9819 27.8937 44.8896C27.8344 44.8476 27.4275 44.5118 27.3682 44.537C27.2749 44.5622 27.0969 44.9987 27.0545 45.0826L26.7579 45.6283C26.707 45.7206 26.5799 46.1572 26.4951 46.1907C26.4443 46.2159 26.0204 45.9221 25.9526 45.8885C25.8933 45.855 25.4101 45.6535 25.3932 45.5947C25.3847 45.5611 25.6305 45.0323 25.656 45.0239C25.5119 45.0658 25.2321 44.6881 25.0796 44.7384C24.9694 44.772 24.8846 45.2253 24.8083 45.3093C24.6897 45.452 24.6303 45.7122 24.554 45.8717C24.4947 45.9893 24.4354 46.3754 24.3336 46.4594C24.2658 46.5265 23.8505 46.1824 23.7488 46.2243C23.6386 46.2747 23.664 46.7952 23.5538 46.8204C23.4775 46.8371 23.0029 46.5433 22.952 46.5937C22.8503 46.7028 22.8079 47.047 22.7655 47.1813C22.7401 47.2485 22.6808 47.7606 22.6214 47.7858C22.5451 47.8193 22.1128 47.6346 22.0196 47.6095C21.9518 47.5927 21.4517 47.408 21.4093 47.4416C21.333 47.5087 21.2991 47.9453 21.2822 48.0544C21.2652 48.1299 21.2228 48.6252 21.172 48.6504C21.0364 48.7092 20.6719 48.4405 20.5617 48.5245C20.443 48.6168 20.6041 49.0618 20.4854 49.1457C20.4006 49.2045 19.926 48.9526 19.8581 49.0366C19.7819 49.1373 19.8073 49.5235 19.7988 49.6494L19.748 50.2538C19.6547 50.3629 19.8412 50.7827 19.7395 50.875C19.6547 50.9926 19.2648 50.7659 19.1377 50.8415Z" fill="white"/>
<path fill-rule="evenodd" clip-rule="evenodd" d="M31.7168 43.1938L32.1915 42.7489C32.3356 42.6229 32.522 42.4131 32.7001 42.3291C32.8102 42.2787 33.1069 41.8926 33.2341 41.9178C33.3273 41.9262 33.5901 42.455 33.6579 42.4299C33.8274 42.3795 34.0647 42.136 34.2173 42.0437C34.319 41.9765 34.6666 41.6827 34.8022 41.6827C34.87 41.6743 35.1582 42.1696 35.1921 42.2284C35.2429 42.2955 35.4888 42.774 35.5566 42.7824C35.7176 42.7992 35.9889 42.4215 36.1584 42.4718C36.3194 42.5222 36.3364 43.0007 36.489 43.0511C36.5737 43.0679 37.006 42.8076 37.1077 42.7824C37.1586 42.7656 37.718 42.5054 37.7519 42.5306C37.8028 42.5642 38.0571 43.1098 38.0317 43.1434C37.9723 43.2609 37.4214 43.2441 37.3959 43.3701C37.362 43.538 37.6672 43.7898 37.6502 43.9745C37.4468 44.05 37.2518 44.1256 37.0484 44.2179L36.472 44.4866C36.3788 44.5202 36.0058 44.7972 35.9211 44.7804C35.8617 44.772 35.6752 44.2851 35.6413 44.2179C35.5396 44.0249 35.4379 43.8486 35.3277 43.6639C35.2769 43.5715 35.0904 43.1518 34.9887 43.1098C34.9293 43.0846 34.5055 43.4288 34.4462 43.4708L33.9291 43.8402C33.802 43.9325 33.5731 44.1928 33.4375 44.2347C33.3612 44.2599 33.1493 43.7394 33.0561 43.7227C32.9035 43.7143 32.7255 44.1256 32.5814 44.1424C32.4373 44.1592 32.2678 44.5789 32.1321 44.5705C32.1067 44.5705 31.7168 44.134 31.7168 44.1004C31.7168 43.9745 32.183 43.7814 32.166 43.6555C32.1321 43.4876 31.7761 43.3701 31.7168 43.1938Z" fill="white"/>
<path fill-rule="evenodd" clip-rule="evenodd" d="M38.2097 45.7879C38.1164 45.3934 38.0062 44.9736 37.8706 44.5791C38.074 44.5035 38.2775 44.4447 38.4809 44.3776C38.5741 44.344 39.0658 44.2769 39.1251 44.2013C39.1675 44.1425 38.9556 43.6556 38.9217 43.5717L38.6843 42.9337C38.642 42.8246 38.3877 42.4216 38.4131 42.3125C38.4131 42.2957 39.0742 42.0942 39.1082 42.1278C39.2692 42.2117 39.2268 42.6651 39.3709 42.7742C39.5404 42.833 39.9219 42.5391 40.0829 42.6399C40.1846 42.6986 40.2016 43.2863 40.2948 43.3031C40.4644 43.3366 40.8288 43.2191 41.0492 43.2443C41.117 43.2359 41.8545 43.2443 41.8969 43.2947C41.9477 43.3534 42.1003 44.025 42.0664 44.0502C41.9477 44.1509 41.4222 43.8739 41.2781 43.9746C41.2272 44.109 41.5239 44.5875 41.4137 44.6966C41.3035 44.7973 40.8119 44.5707 40.6678 44.6714C40.5322 44.7637 40.0321 44.5791 39.9473 44.7134C39.9134 44.7805 40.1592 45.3598 40.0829 45.385C39.9049 45.4521 39.5998 45.4269 39.4218 45.4689L38.803 45.62C38.608 45.662 38.4131 45.7124 38.2097 45.7879Z" fill="white"/>
<path fill-rule="evenodd" clip-rule="evenodd" d="M42.1936 45.4856C42.1173 45.6451 42.2868 46.0396 42.1681 46.1739C42.0918 46.2579 41.5833 45.9725 41.4815 46.0564C41.4053 46.132 41.5409 46.6776 41.4307 46.7112C41.2612 46.77 40.9645 46.5853 40.778 46.644C40.8204 46.2159 40.8119 45.7794 40.7695 45.3261C40.8967 45.2337 41.3714 45.4604 41.4815 45.368C41.5409 45.3261 41.3544 44.6797 41.4053 44.6713C41.4815 44.6545 42.1173 44.6881 42.1596 44.7552C42.2953 44.9147 42.1003 45.3345 42.1936 45.4856Z" fill="white"/>
<path fill-rule="evenodd" clip-rule="evenodd" d="M41.168 47.9705C41.2866 47.8698 41.2104 47.4416 41.3205 47.3577C41.4562 47.2653 41.8206 47.5675 41.9478 47.492C42.0834 47.4164 41.9647 46.9295 42.0834 46.8456C42.2021 46.7616 42.6344 47.1142 42.7446 47.0303C42.8717 46.9379 42.7276 46.4342 42.8548 46.3503C42.931 46.2915 43.4905 46.6525 43.5498 46.5854C43.6431 46.4594 43.6261 46.0481 43.6431 45.8718C43.66 45.813 43.6515 45.1415 43.677 45.1331C43.7448 45.1247 44.4059 45.3345 44.4398 45.4101C44.5076 45.5108 44.3805 46.0481 44.372 46.1572C44.3551 46.4091 44.2873 46.6441 44.2449 46.8876C44.1262 46.9883 44.2279 47.5256 44.0753 47.5843C43.9821 47.6179 43.4735 47.1982 43.4057 47.2737C43.3125 47.3829 43.2701 47.7942 43.2192 47.9285C43.2023 48.0041 43.0497 48.5497 42.9819 48.5581C42.8463 48.5917 42.5242 48.2979 42.3716 48.2979C42.1851 48.2811 41.9308 48.1468 41.7613 48.0964C41.5748 48.046 41.3629 48.0041 41.168 47.9705Z" fill="white"/>
<path fill-rule="evenodd" clip-rule="evenodd" d="M44.4819 48.6504C44.8973 48.9274 45.2957 49.2884 45.6771 49.6997C45.6771 49.9348 45.2872 50.1531 45.2872 50.3881C45.2957 50.4721 45.7364 50.9841 45.7703 51.1017C45.8297 51.2024 46.2111 51.79 46.1772 51.9495C46.1518 52.109 45.6686 52.5456 45.5839 52.6211C45.4482 52.7722 45.0583 52.9989 44.9227 53.192C44.8549 53.2927 45.1007 53.9895 44.982 54.1574C44.8888 54.3253 44.2446 54.4344 44.1853 54.5603C44.0751 54.7786 44.0327 55.2655 43.9564 55.5089C43.8547 55.8363 43.7191 56.1133 43.5665 56.424C43.4139 56.7346 43.2274 57.0368 43.0071 57.3222C42.9053 57.4733 42.4985 58.0609 42.2866 58.1365C42.2611 58.1449 42.0238 58.1197 41.7949 58.0693C41.5661 58.019 41.3627 57.9434 41.3542 57.935C41.3542 57.9182 41.5407 57.7587 41.7271 57.5824C41.9051 57.4061 42.0747 57.2382 42.0747 57.2382C41.8712 57.2466 41.3966 56.9948 41.227 57.02C41.0575 57.0704 40.7015 57.5405 40.532 57.616C40.2692 57.7503 40.0064 57.9938 39.7776 58.1281C39.6759 58.1953 39.1079 58.5814 38.9808 58.5646C38.8367 58.5562 38.4468 58.1197 38.3705 58.0441C38.1925 57.8595 38.0145 57.6748 37.8535 57.4901C37.6331 57.616 37.3533 57.6748 37.133 57.7839C37.1669 57.7671 36.7007 57.2382 36.7261 57.1879C36.7685 57.0871 37.311 57.0032 37.4127 56.9192C37.5737 56.8017 37.8874 56.701 38.0738 56.6086C38.2942 56.4995 38.4892 56.3568 38.7096 56.2477C38.8198 56.2057 39.2012 55.8363 39.2944 55.8447C39.3961 55.8447 39.7182 56.3484 39.8369 56.3064C40.0319 56.2393 40.2692 55.9287 40.3879 55.7943C40.4726 55.7188 40.7524 55.2655 40.8456 55.2319C40.9982 55.1731 41.3372 55.5677 41.5152 55.4837C41.6508 55.4334 41.761 54.8289 41.8543 54.8122C42.0238 54.7702 42.3883 54.8625 42.5748 54.8625C42.6595 54.8793 43.2953 54.8877 43.3546 54.787C43.4563 54.6527 43.4902 54.0818 43.4733 53.9559C43.4733 53.6789 43.4563 53.4102 43.4224 53.1668C43.4054 53.0157 43.1935 52.5959 43.219 52.47C43.2444 52.428 43.7445 52.1342 43.8038 52.0839C43.8716 52.0419 44.3717 51.6809 44.3548 51.597C44.3548 51.4291 43.8971 51.1101 43.931 50.9757C43.9564 50.7995 44.3802 50.6148 44.3633 50.4133C44.3548 50.237 43.8377 50.0355 43.8377 49.9096C43.8377 49.7081 44.1768 49.5151 44.1937 49.2968C44.2955 49.0869 44.3887 48.8687 44.4819 48.6504Z" fill="white"/>
<path fill-rule="evenodd" clip-rule="evenodd" d="M37.0483 56.3317C36.8364 56.4324 36.6075 56.4912 36.3872 56.5835C36.2939 56.6255 35.7514 56.7262 35.7091 56.8018C35.6667 56.8773 35.9803 57.3307 36.0312 57.423C36.0481 57.4734 36.3617 58.0442 36.4041 58.0442C36.2431 58.0442 35.8108 58.3212 35.6582 58.2625C35.548 58.2205 35.3615 57.7168 35.3191 57.6245C35.2429 57.5153 35.1496 57.0452 35.0479 56.9865C34.8953 56.8857 34.9631 56.4324 34.8106 56.3485C34.7258 56.3065 34.2427 56.4996 34.1325 56.5164C33.9714 56.5499 33.5985 56.7094 33.4459 56.6507C33.3272 56.6171 33.3611 56.063 33.2594 55.9959C33.1323 55.9119 32.6915 56.1974 32.5643 56.0966C32.4796 56.0211 32.4287 55.5594 32.4118 55.4418C32.3948 55.3579 32.3524 54.8122 32.2931 54.7786C32.2253 54.7367 31.6489 54.8962 31.615 54.8374C31.5302 54.6779 31.5472 54.3589 31.5302 54.1826C31.5133 54.1071 31.5387 53.5698 31.4794 53.5194C31.4031 53.4607 30.9199 53.5362 30.8182 53.5278C30.725 53.5278 30.2079 53.5866 30.1401 53.5278C30.0893 53.4942 30.1655 52.8646 30.1316 52.8646C30.0469 52.8562 29.5213 52.7723 29.462 52.8227C29.4366 52.8394 29.4281 53.4691 29.4535 53.4942C29.3349 53.3767 28.8856 53.5614 28.7669 53.4271C28.6822 53.3347 28.8009 52.8814 28.7754 52.7639C28.733 52.5708 28.7924 52.3022 28.8178 52.1007C28.8263 52 28.9365 51.5131 28.8856 51.4459C28.8432 51.3871 28.3177 51.362 28.2245 51.3452C28.0041 51.3116 27.7752 51.278 27.5633 51.2276C27.4616 51.2025 26.97 51.1521 26.9106 51.0681C26.8598 51.0094 27.0123 50.4889 27.0293 50.4134C27.0632 50.2539 27.1904 49.9265 27.1649 49.7754C27.148 49.6914 26.5801 49.683 26.5292 49.5907C26.4529 49.4564 26.7835 49.0786 26.6987 48.9527C26.6479 48.8771 26.1562 48.7848 26.063 48.7512C25.9782 48.7344 25.4612 48.5833 25.4358 48.5161C25.4103 48.4406 25.6985 47.9201 25.6477 47.8865C25.4951 47.7774 25.2069 47.7102 25.0204 47.6347C24.8085 47.5507 24.6051 47.4584 24.4016 47.3577C24.3084 47.3157 23.8422 47.1478 23.7913 47.0554C23.7574 46.9883 24.0202 46.5098 24.0541 46.4426C24.088 46.3671 24.3508 45.9054 24.3254 45.8466C24.2575 45.6871 23.8083 45.6787 23.749 45.5192C23.6896 45.3681 23.2065 45.3345 23.1641 45.175C23.1217 45.0407 23.5286 44.7049 23.4692 44.5874C23.4269 44.495 22.9098 44.3104 22.9098 44.2096C22.9183 44.0585 23.1726 43.7647 23.2489 43.6388L23.5964 43.0847C23.6303 43.026 23.9863 42.6062 23.9693 42.5474C23.9439 42.4467 23.5371 42.2201 23.4438 42.1529C23.3845 42.1109 22.9776 41.7248 22.9183 41.7416C22.8844 41.7499 22.5199 42.262 22.5284 42.2788C22.4606 42.1361 22.0198 42.0018 21.9944 41.8423C21.9689 41.6744 22.4097 41.4645 22.4012 41.305C22.3843 41.1455 21.9181 41.0112 21.9011 40.8433C21.8842 40.6754 22.308 40.4907 22.3249 40.3228C22.3419 40.1969 21.8333 39.987 21.8333 39.8443C21.8333 39.7436 22.2317 39.4162 22.291 39.349C22.3419 39.2819 22.7572 38.9377 22.7488 38.8705C22.7318 38.7698 22.3673 38.4592 22.291 38.3752L21.8672 37.8548C21.7655 37.7205 21.4943 37.477 21.4434 37.3091C21.418 37.2168 21.935 36.9565 21.9435 36.8558C21.9435 36.7215 21.5112 36.4361 21.5536 36.3017C21.5875 36.201 22.0961 35.9659 22.0791 35.882C22.0537 35.7309 21.7909 35.4455 21.6977 35.3195C21.5705 35.1265 21.4519 34.9334 21.3417 34.7403C21.2908 34.6564 20.9857 34.245 21.0026 34.1443C21.0111 34.0603 21.4943 33.8085 21.5621 33.7581C21.6214 33.7077 22.0622 33.372 22.13 33.3971C22.1469 33.4055 22.469 33.968 22.4606 33.9848C22.5284 33.8337 22.9776 33.7917 23.02 33.6406C23.0539 33.5147 22.647 33.1789 22.7149 33.0614C22.7572 32.9774 23.2997 32.8179 23.2912 32.7424C23.2828 32.5912 23.0624 32.289 22.9861 32.1463C22.9183 32.0036 22.7233 31.7098 22.7149 31.5419C22.7149 31.4496 23.2828 31.3404 23.3167 31.2481C23.3591 31.1389 23.0709 30.7528 23.0539 30.6353C23.02 30.4422 22.8844 30.1987 22.8166 30.014C22.7827 29.9301 22.5623 29.4516 22.5962 29.376C22.6301 29.2921 23.1302 29.1578 23.215 29.1242C23.4184 29.0403 23.6303 28.9647 23.8422 28.8891C23.9948 28.8388 24.3508 28.78 24.4695 28.6793C24.5373 28.6205 24.2321 28.142 24.283 28.0497C24.3593 27.907 24.8 27.9741 24.9102 27.8566C24.8339 27.6551 24.8339 27.4285 24.7492 27.227C24.7661 27.2606 25.334 27.0339 25.3849 27.0591C25.4612 27.1095 25.512 27.5964 25.5459 27.6887C25.6138 27.8902 25.6307 28.1084 25.7155 28.3015C25.8002 28.4946 25.8511 28.7213 25.9104 28.9143L26.1139 29.5104C26.1647 29.6531 26.3342 29.9469 26.3258 30.0896C26.3258 30.1232 25.7833 30.2659 25.7239 30.2911C25.6561 30.3163 25.1391 30.4422 25.1221 30.5093C25.0967 30.5849 25.4188 31.0466 25.3595 31.0886C25.2238 31.1893 24.9272 31.2649 24.7661 31.332C24.7068 31.3572 24.1813 31.5419 24.1728 31.5923C24.1558 31.7182 24.3932 32.0624 24.444 32.1715C24.5373 32.3646 24.6305 32.5493 24.7322 32.734C24.7576 32.7843 25.0628 33.2544 25.0458 33.288C24.9696 33.3971 24.5966 33.5147 24.4779 33.5818L23.9015 33.8924C23.5371 34.1107 23.1641 34.3374 22.7996 34.5808C22.9437 34.648 22.9946 35.1097 23.1471 35.1349C23.2743 35.16 23.5879 34.7235 23.6981 34.7823C23.8337 34.841 23.9439 35.2104 24.0456 35.3112C24.1897 35.4539 24.3084 35.6721 24.4271 35.8316C24.5373 35.9743 24.7492 36.1674 24.8085 36.3269C24.817 36.3437 24.3254 36.6711 24.283 36.6963C24.1982 36.7551 23.7913 36.9985 23.7744 37.0908C23.7659 37.1664 24.1389 37.519 24.1982 37.5777L24.622 38.0478C24.6475 38.0898 25.0713 38.4676 25.0628 38.4928C25.0458 38.5347 24.639 38.9125 24.5966 38.9209C24.5034 38.9209 24.2236 38.4424 24.1389 38.4676C23.9948 38.518 23.7829 38.795 23.6727 38.9125L23.2065 39.3742L22.7488 39.8527C22.7827 40.0122 23.2319 40.1549 23.2404 40.306C23.2489 40.3648 22.7827 40.7678 22.8166 40.8097C22.8589 40.8685 23.2489 41.2547 23.3082 41.2463C23.4353 41.2295 23.6049 40.7258 23.732 40.7426C23.8761 40.7594 24.0965 41.0868 24.2236 41.1539C24.3932 41.2463 24.5796 41.4225 24.7407 41.5401C24.8509 41.624 25.1984 41.7919 25.2577 41.9094C25.2747 41.943 24.9017 42.3712 24.8678 42.4131C24.8085 42.4887 24.4779 42.8581 24.4949 42.9336C24.5118 43.0176 24.9696 43.2358 25.0458 43.2778C25.0967 43.3114 25.5883 43.5632 25.5883 43.6052C25.5798 43.7227 25.3086 44.0417 25.2493 44.1509L24.9356 44.7049C24.8594 44.8392 24.639 45.1163 24.622 45.2758C24.6135 45.3681 25.1645 45.494 25.1984 45.5864C25.2323 45.6955 24.8509 46.0733 24.9187 46.1656C24.995 46.2747 25.3934 46.3923 25.5205 46.4426C25.5883 46.4762 26.0545 46.7364 26.1139 46.7029C26.1817 46.6609 26.3173 46.1068 26.3851 46.1152C26.5546 46.132 26.8089 46.2915 26.9615 46.3587C27.1395 46.4258 27.4107 46.4678 27.5633 46.5685C27.5803 46.5769 27.3344 47.1058 27.326 47.1478C27.2921 47.2317 27.0632 47.6599 27.0971 47.7438C27.1141 47.811 27.6311 47.9117 27.7074 47.9285L28.3177 48.088C28.4194 48.1132 28.8687 48.1636 28.9195 48.2307C28.945 48.2811 28.7585 48.768 28.7415 48.8351C28.6991 48.9778 28.6822 49.322 28.5889 49.448C28.5381 49.5235 28.038 49.2717 27.9532 49.3136C27.8261 49.3892 27.9193 49.8257 27.8091 49.9349L28.4448 50.0692C28.5211 50.086 29.0212 50.2287 29.0721 50.1867C29.089 50.1615 29.2077 49.5571 29.2077 49.5571C29.3094 49.5991 29.7587 49.5739 29.8265 49.6494C29.8943 49.7418 29.6231 50.1867 29.7163 50.2622C29.8434 50.3714 30.2164 50.2203 30.3435 50.321C30.4283 50.3882 30.174 50.8583 30.2503 50.9506C30.3012 51.0178 30.8013 50.9674 30.886 50.9758C30.9877 50.9842 31.4455 50.9254 31.5048 50.9842C31.598 51.0765 31.3607 51.5131 31.4539 51.6138C31.5302 51.7145 32.0219 51.4879 32.0812 51.5886C32.166 51.7145 31.971 52.1007 32.0727 52.2182C32.1744 52.3274 31.971 52.7555 32.0897 52.8562C32.149 52.9234 32.6237 52.8143 32.7254 52.7975C32.8017 52.7891 33.3103 52.6632 33.3526 52.7135C33.4204 52.7807 33.4035 53.234 33.412 53.3431C33.4289 53.4942 33.412 53.8552 33.4967 53.9811C33.5476 54.0567 34.0562 53.7965 34.1325 53.8468C34.2596 53.9308 34.1409 54.3757 34.2596 54.4764C34.3783 54.5772 34.2766 55.0305 34.4122 55.1144C34.4885 55.1648 34.9631 54.9633 35.0479 54.9381C35.1242 54.9213 35.6243 54.7115 35.6667 54.7451C35.7514 54.8122 35.8277 55.2571 35.8616 55.3663C35.8871 55.4754 35.9973 55.9287 36.099 55.9791C36.2261 56.0546 36.5991 55.7105 36.7347 55.744C36.9212 55.7692 37.1755 55.4418 37.345 55.4754C37.3619 55.4838 37.684 56.0211 37.684 56.0546C37.6417 56.189 37.1331 56.1974 37.0483 56.3317Z" fill="white"/>
<path fill-rule="evenodd" clip-rule="evenodd" d="M27.2835 26.6561C27.1733 26.5469 27.275 26.1272 27.1564 26.0349C27.1309 26.0181 26.5376 26.1188 26.5206 26.144C26.4867 26.2112 26.6139 26.6981 26.6478 26.7652C26.6308 26.7148 26.0629 26.9247 26.0121 26.8911C25.9358 26.8408 25.9019 26.3539 25.8764 26.2615C25.8595 26.1944 25.7154 25.6739 25.7578 25.6235C25.8171 25.548 26.3003 25.5228 26.3935 25.506C26.4528 25.4892 27.0207 25.4472 27.0377 25.4053C27.0801 25.2877 26.9614 24.91 26.9445 24.7756C26.936 24.7001 26.8173 24.1796 26.8597 24.1293C26.919 24.0705 27.4869 24.1209 27.5039 24.0537C27.5463 23.8942 27.4615 23.592 27.4446 23.4157C27.4361 23.3234 27.3428 22.8281 27.4022 22.7609C27.453 22.7021 27.9616 22.7189 28.0549 22.7189C28.1311 22.7189 28.6736 22.7525 28.7075 22.7021C28.7838 22.6098 28.5889 22.1229 28.6906 22.0641C28.8177 21.9802 29.2331 22.1649 29.3348 22.0557C29.4195 21.9634 29.2331 21.4849 29.3348 21.4177C29.4534 21.3422 29.9027 21.5353 29.9875 21.4345C30.0468 21.3674 29.9959 20.8973 30.0044 20.7965C30.0129 20.5783 30.0214 20.3684 30.0383 20.1501L30.0892 19.5037C30.1061 19.3442 30.0807 18.9916 30.157 18.8489C30.1994 18.7734 30.7334 18.9665 30.8097 18.9077C30.9283 18.8154 30.7758 18.3536 30.9029 18.2613C31.0385 18.169 31.4284 18.4376 31.5556 18.3453C31.6573 18.2697 31.5386 17.7492 31.6573 17.6989C31.8014 17.6317 32.1574 17.808 32.31 17.808C32.5049 17.7996 32.7592 17.8919 32.9542 17.9255L33.5899 18.0514C33.7933 18.0934 34.0052 18.1438 34.2171 18.1941C34.1239 18.5971 34.0646 19.0252 34.0052 19.4282C33.8696 19.4785 33.5051 19.2183 33.378 19.2939C33.3017 19.3442 33.3695 19.8899 33.2932 19.9067C33.1491 19.9403 32.827 19.8227 32.666 19.7975C32.5897 19.7808 32.0811 19.6548 32.0302 19.7052C31.9624 19.764 31.9709 20.2341 31.9624 20.3264L31.9201 20.956C31.9116 21.0652 31.954 21.5017 31.8946 21.5772C31.8183 21.6696 31.3606 21.4261 31.2589 21.5101C31.1572 21.5856 31.3521 22.0809 31.2504 22.1313C31.1148 22.2068 30.7418 21.997 30.6147 22.0893C30.5045 22.1733 30.7164 22.6182 30.6232 22.7105C30.513 22.8029 30.0892 22.5846 29.9875 22.6937C29.8857 22.7945 30.1146 23.2226 30.0214 23.3234C29.9196 23.4241 29.4874 23.2142 29.3856 23.3234C29.2839 23.4325 29.5213 23.8354 29.428 23.9446C29.3433 24.0453 28.8686 23.8606 28.7923 23.9697C28.7414 24.0537 28.8432 24.4902 28.8601 24.591C28.8686 24.6665 28.9788 25.1618 28.9364 25.2038C28.8347 25.3045 28.3939 25.145 28.3091 25.2625C28.2244 25.3801 28.5041 25.7662 28.4109 25.8754C28.343 25.9677 27.8175 25.8418 27.7751 25.9509C27.7243 26.06 27.8768 26.4462 27.9023 26.5637C27.9362 26.7148 28.0718 27.0254 28.0464 27.1682C28.0294 27.2437 27.47 27.1933 27.4191 27.2689C27.3344 27.3864 27.631 27.739 27.5802 27.8649C27.5717 27.8817 26.9868 28.0076 26.9614 27.9908C26.8258 27.9153 26.9105 27.4872 26.7919 27.3864C26.7325 27.1766 26.6902 26.9751 26.6478 26.7736L27.2835 26.6561Z" fill="white"/>
<path fill-rule="evenodd" clip-rule="evenodd" d="M54.3484 14.618C54.1704 14.2319 53.9754 13.8625 53.772 13.5099C53.8313 13.3672 54.2721 13.3084 54.3145 13.1741C54.3399 13.0734 53.95 12.6956 54.0008 12.6201C54.0941 12.4941 54.4246 12.3598 54.5687 12.2927C54.6705 12.2339 55.0349 11.9821 55.1536 11.9988C55.2808 12.0156 55.3401 12.5193 55.4588 12.5781C55.4842 12.7712 55.747 12.9559 55.747 13.1489C55.747 13.2497 55.2045 13.342 55.1706 13.4428C55.1451 13.5351 55.5011 13.9464 55.4418 14.0136C55.3401 14.1311 55.018 14.2403 54.8908 14.3158L54.3484 14.618Z" fill="white"/>
<path fill-rule="evenodd" clip-rule="evenodd" d="M56.5776 13.4679L57.1795 13.2161C57.3236 13.1573 57.6372 12.9727 57.7982 12.9727C57.8915 12.9811 57.9338 13.5519 58.0186 13.5939C58.1034 13.6358 58.578 13.3252 58.6374 13.3924C58.7391 13.5099 58.79 13.8625 58.8323 14.0052C58.8578 14.0892 59.0527 14.5425 59.0103 14.618C58.968 14.6768 58.4763 14.7859 58.4 14.8111L57.8067 15.021C57.7219 15.0462 57.2981 15.2728 57.2303 15.2392C57.171 15.2057 57.0693 14.7188 57.0354 14.6432C56.8913 14.2571 56.7387 13.8625 56.5776 13.4679Z" fill="white"/>
<path fill-rule="evenodd" clip-rule="evenodd" d="M66.5204 27.563C66.4356 27.3699 66.317 27.1852 66.2153 27.0089C66.1729 26.9418 65.8593 26.5556 65.8847 26.5052C65.9186 26.4465 66.4272 26.245 66.4102 26.1778C66.3594 26.0267 66.122 25.8253 66.0203 25.7077C65.9525 25.6154 65.605 25.3887 65.588 25.288C65.5711 25.1957 66.0627 25.011 66.0627 24.8934C66.0796 24.7507 65.588 24.6416 65.588 24.5157C65.5795 24.3898 66.0288 24.2051 66.0203 24.0624C66.0203 23.9868 65.4863 23.7769 65.5032 23.7266C65.5287 23.6762 65.8338 23.2481 65.8847 23.2313C66.0118 23.1977 66.2915 23.609 66.4102 23.5671C66.4441 23.5587 66.7917 23.0718 66.7832 23.0382C66.7577 22.9375 66.3339 22.7444 66.2322 22.7024L65.6728 22.4086C65.5202 22.3246 65.249 22.2575 65.1133 22.1651C65.071 22.1316 65.4185 21.6782 65.3931 21.6111C65.3676 21.5271 64.9014 21.4264 64.8082 21.4012C64.715 21.3676 64.2572 21.3089 64.2233 21.2333C64.2149 21.2165 64.4352 20.6709 64.4522 20.6541C64.4861 20.6289 65.0371 20.7968 65.0455 20.822C65.0032 20.6793 65.3337 20.3603 65.2659 20.2176C65.1896 20.0916 64.715 20.184 64.6471 20.0581C64.5793 19.9321 64.9014 19.5712 64.8251 19.4452C64.7489 19.3193 64.2996 19.42 64.1979 19.3277C64.0877 19.2354 63.6554 19.3445 63.5876 19.2354C63.5452 19.1598 63.7741 18.6645 63.6978 18.6225C63.5622 18.547 63.2231 18.5806 63.0705 18.5638C62.9688 18.547 62.5281 18.5974 62.4518 18.5386C62.4094 18.505 62.5111 17.9929 62.5111 17.9174C62.5196 17.8418 62.6043 17.3214 62.545 17.2878C62.4687 17.229 62.011 17.3046 61.9093 17.313C61.7567 17.3214 61.4346 17.3969 61.2905 17.3549C61.2142 17.3297 61.3414 16.7925 61.2736 16.7337C61.1634 16.6414 60.7819 16.8764 60.6633 16.8093C60.5361 16.7421 60.1632 17.0107 60.0614 16.9268C59.9513 16.8429 60.0954 16.4147 59.9936 16.3056C59.9004 16.1965 60.0106 15.7767 59.8919 15.6928C59.7817 15.6256 59.3664 15.9278 59.2816 15.8523C59.2562 15.8271 59.1375 15.2646 59.1545 15.2311C59.2308 15.0967 59.6631 15.1891 59.7648 15.0799C59.875 14.9708 60.3073 15.0632 60.4005 14.9372C60.4175 14.9121 60.2903 14.3244 60.2649 14.3076C60.409 14.3748 60.7819 14.0894 60.9176 14.1733C61.0532 14.2573 60.9176 14.719 61.0447 14.8197C61.1719 14.9121 61.5787 14.6434 61.7143 14.7442C61.85 14.8449 61.7143 15.2646 61.8076 15.399C61.9008 15.5249 61.7567 15.953 61.8669 16.0453C61.9601 16.1293 62.4518 15.9026 62.5281 16.0118C62.6128 16.1293 62.4433 16.5826 62.545 16.6666C62.6213 16.7253 63.096 16.6666 63.2062 16.6666C63.2825 16.6666 63.8249 16.6498 63.8673 16.7085C63.9182 16.7757 63.7741 17.3297 63.8334 17.3549C64.0029 17.4221 64.3081 17.4053 64.4946 17.4305C64.6217 17.4473 65.054 17.4473 65.1642 17.5312C65.2659 17.6068 65.0031 18.0853 65.071 18.186C65.1557 18.3203 65.6389 18.1944 65.7321 18.3371C65.8254 18.4714 65.5287 18.8492 65.605 18.9835C65.6813 19.1178 66.139 19.0423 66.2492 19.1766C66.3339 19.2773 66.0203 19.6971 66.0796 19.8146C66.122 19.8902 66.6137 20.0077 66.7069 20.0497C66.7917 20.0916 67.3172 20.2259 67.3426 20.3183C67.3765 20.4106 67.1392 20.8723 67.0968 20.9563C67.0714 21.0318 66.8086 21.502 66.834 21.5607C66.8934 21.6698 67.4019 21.7706 67.4189 21.8965C67.4359 22.0644 67.0629 22.333 67.1138 22.4841C67.1561 22.6017 67.6647 22.7276 67.6732 22.8703C67.6732 23.0298 67.2748 23.29 67.3087 23.4328C67.3426 23.5167 67.758 23.7937 67.8258 23.8693C67.9444 23.9784 68.2581 24.1967 68.3343 24.3562C68.3852 24.4485 67.8851 24.7759 67.8851 24.8767C67.8851 25.0445 68.3259 25.2376 68.3343 25.4223C68.3513 25.5902 67.8681 25.7413 67.8342 25.8924C67.6901 25.8169 67.5969 25.3803 67.4189 25.3552C67.4019 25.3552 66.9357 25.7581 66.9273 25.7833C66.9018 25.9344 67.3087 26.1443 67.3172 26.3122C67.3341 26.2282 67.8597 25.9764 67.8427 25.8924C67.8766 26.0351 68.2496 26.3289 68.2242 26.4884C68.2072 26.6396 67.6817 26.7655 67.6647 26.8998C67.6478 27.0845 68.0122 27.3363 67.9699 27.5294C67.936 27.6973 67.4359 27.7225 67.368 27.8652C67.3087 28.0163 67.6647 28.3521 67.5969 28.52C67.5291 28.6879 67.0544 28.6375 66.9697 28.7886C66.8934 28.9397 67.1816 29.3679 67.0459 29.5777C66.9018 29.7876 66.4102 29.6701 66.2407 29.838C66.1475 29.9219 66.122 30.0982 66.0542 30.2829C65.9779 30.476 65.9101 30.6439 65.8254 30.711C65.6982 30.6271 65.1472 30.6858 65.1049 30.5347C65.0879 30.476 65.1896 30.3417 65.2829 30.2157C65.3846 30.0814 65.4778 29.9303 65.4354 29.8883C65.41 29.8631 65.232 29.838 65.0794 29.8044C64.9269 29.7624 64.7912 29.7036 64.7912 29.6785C64.8082 29.6197 64.9608 29.116 64.9862 29.0908C65.0625 29.0573 65.5372 29.2923 65.6219 29.1664C65.7236 29.0153 65.4693 28.6375 65.5372 28.5284C65.6134 28.4192 66.0881 28.5116 66.1559 28.3689C66.2153 28.2514 65.8423 27.8736 65.9101 27.7812C66.0203 27.6637 66.4017 27.6973 66.5204 27.563Z" fill="white"/>
<path fill-rule="evenodd" clip-rule="evenodd" d="M63.9606 29.9304C63.9691 30.0815 63.5961 30.3166 63.6216 30.4593C63.6385 30.56 64.181 30.7363 64.164 30.8119C64.1556 30.8706 63.8335 31.3491 63.7741 31.3575C63.6385 31.3827 63.3503 30.9378 63.2316 30.9798C63.1723 31.005 62.8502 31.5086 62.7909 31.4835C62.7231 31.4583 62.2738 31.1057 62.2823 31.0553C62.2908 30.9294 62.7654 30.7027 62.7231 30.5768C62.6976 30.5013 62.2314 30.2242 62.2569 30.1403C62.2992 29.9976 62.5535 29.7793 62.6383 29.6618C62.6892 29.5946 62.9011 29.1833 62.9689 29.1665C63.0282 29.1665 63.3757 29.5023 63.4435 29.5527C63.6131 29.7038 63.7826 29.8129 63.9606 29.9304Z" fill="white"/>
<path fill-rule="evenodd" clip-rule="evenodd" d="M60.5363 31.2903C60.2311 31.3323 59.8666 31.3658 59.3835 31.1476C59.1631 31.072 58.9173 30.8706 58.6969 30.6607L58.5359 30.4928C58.5019 30.4592 58.4765 30.4508 58.4511 30.4256L58.29 30.2913C58.3748 30.0311 58.4596 29.7876 58.5613 29.561C58.6206 29.3931 58.9003 29.116 58.9427 28.9482C58.9766 28.8642 58.4426 28.5116 58.4511 28.3857C58.468 28.1926 58.9342 28.0667 58.9597 27.9072C58.9851 27.7561 58.5359 27.4791 58.5867 27.3112C58.6206 27.1685 59.1461 27.0677 59.1546 26.9418C59.1546 26.7907 58.7986 26.4801 58.8664 26.3374C58.9342 26.1779 59.4089 26.2031 59.4683 26.0604C59.5191 25.9176 59.1716 25.5902 59.2394 25.4475C59.3072 25.3048 59.7904 25.372 59.8582 25.2377C59.9175 25.1033 59.5954 24.7424 59.6802 24.6164C59.7649 24.4821 60.2311 24.5913 60.3074 24.4653C60.3667 24.3562 60.0785 23.9281 60.1718 23.8441C60.2396 23.777 60.7906 23.8189 60.8075 23.7434C60.8414 23.6091 60.7227 23.2649 60.7058 23.1222L60.6295 22.4842C60.6041 22.2659 60.5871 22.0476 60.5786 21.8378C60.5702 21.7454 60.4939 21.2501 60.5617 21.1746C60.6126 21.1074 61.1381 21.1494 61.2229 21.1494H61.8755C61.9942 21.1494 62.4265 21.225 62.5197 21.1746C62.6553 21.099 63.0537 21.3173 63.1555 21.2334C63.2656 21.141 63.0707 20.6961 63.1809 20.6037C63.2995 20.5114 63.7064 20.78 63.8166 20.6961C63.9268 20.6121 63.7912 20.1924 63.8844 20.0749C63.9777 19.9657 63.8675 19.5376 63.9946 19.4537C64.1048 19.3781 64.5371 19.6719 64.6219 19.5964C64.7405 19.4956 64.6473 19.0675 64.7829 18.9836C64.9185 18.908 65.2661 19.2354 65.4017 19.1766C65.5373 19.1179 65.4864 18.6394 65.639 18.5722C65.7831 18.5051 66.0883 18.8912 66.2239 18.8408C66.3426 18.7989 66.3595 18.2868 66.4951 18.27C66.6477 18.2448 66.9105 18.631 67.0546 18.589C67.1393 18.5638 67.2749 18.0265 67.3682 18.0433C67.5208 18.0685 67.7666 18.312 67.8937 18.3959C67.953 18.4295 68.343 18.7905 68.3938 18.7737C68.4871 18.7401 68.6735 18.3456 68.7413 18.2616L69.1143 17.7663L69.5127 17.2794C69.572 17.2039 69.8433 16.8093 69.9365 16.8009C70.0043 16.7925 70.3434 17.1871 70.3942 17.2458C70.5468 17.3885 70.6909 17.548 70.835 17.6992C70.8943 17.7579 71.191 18.1609 71.2588 18.1609C71.3944 18.1609 71.5301 18.631 71.6657 18.6394C71.6911 18.6394 72.098 18.228 72.098 18.2112C72.098 18.1357 71.6657 17.7831 71.6996 17.7327C71.7844 17.5732 72.0217 17.4221 72.1488 17.3046C72.2505 17.2123 72.4879 16.91 72.615 16.8849C72.6574 16.8765 72.9795 17.3382 73.0049 17.3802C73.0982 17.4977 73.2592 17.8083 73.3864 17.8754C73.4542 17.9174 73.7678 17.4641 73.8526 17.4725C73.9967 17.4893 74.0814 17.9594 74.2171 17.9846C74.3527 18.0098 74.5561 17.5648 74.6917 17.59C74.8104 17.6068 74.9375 18.1105 75.0477 18.1021C75.2088 18.0937 75.3698 17.7159 75.5309 17.7159C75.6496 17.7159 75.7598 18.1944 75.8784 18.228L75.3953 18.6142C75.2766 18.7065 75.0562 18.9668 74.9206 19.0003C74.8443 19.0255 74.6578 18.4967 74.5646 18.4883C74.4713 18.4715 74.1832 18.8324 74.0984 18.8828C73.9373 18.9752 73.7848 19.1598 73.6407 19.2858L73.1914 19.6887C73.0982 19.7727 72.8693 20.0833 72.7591 20.1001C72.6659 20.1168 72.4964 19.6132 72.3946 19.6048C72.2845 19.5964 72.081 20.0581 71.9793 20.0245C71.8437 19.9825 71.7504 19.5628 71.6063 19.546C71.4707 19.5292 71.3521 19.0759 71.2164 19.0675C71.1402 19.0675 70.8859 19.4537 70.8265 19.5124C70.7672 19.5628 70.5214 19.9741 70.462 19.9657C70.3349 19.9573 70.1908 19.5124 70.0552 19.5124C69.9704 19.5208 69.7839 20.0161 69.7161 19.9825C69.589 19.9322 69.394 19.6551 69.2923 19.5544C69.233 19.4956 68.9109 19.1347 68.8431 19.1431C68.7074 19.1598 68.6566 19.63 68.5379 19.6467C68.4108 19.6635 68.1904 19.2354 68.0632 19.2606C67.9276 19.2858 67.9107 19.7559 67.792 19.7811C67.6903 19.7978 67.3936 19.3865 67.2919 19.4369C67.1987 19.4872 67.0885 19.865 67.0546 19.9741C67.0037 20.1085 66.9444 20.4275 66.8596 20.5114C66.8088 20.5534 66.4273 20.1924 66.351 20.2176C66.2408 20.268 66.3341 20.7129 66.2324 20.7549C66.1306 20.8052 65.8001 20.4694 65.6814 20.5282C65.5797 20.5786 65.6899 21.0571 65.5966 21.099C65.4525 21.1494 65.1728 20.8892 65.0202 20.9311C64.8931 20.9647 64.5201 20.7045 64.4184 20.78C64.3252 20.8472 64.4778 21.3425 64.376 21.3845C64.2659 21.4348 63.8505 21.1914 63.7573 21.2753C63.6556 21.3761 63.8505 21.7958 63.7488 21.8798C63.664 21.9553 63.1894 21.7203 63.1215 21.8126C63.0283 21.9553 63.2233 22.2827 63.147 22.4254C63.0876 22.5429 63.2741 22.9291 63.1894 23.0214C63.1131 23.097 62.6299 22.9039 62.5706 23.0047C62.4858 23.1474 62.7147 23.458 62.6469 23.5923C62.6045 23.6846 62.1044 23.5251 62.0366 23.6091C61.9857 23.6678 62.1298 24.1128 62.1468 24.1967C62.1637 24.331 62.3248 24.6584 62.2909 24.7676C62.2654 24.8515 61.7399 24.7424 61.6806 24.8263C61.5958 24.9271 61.9349 25.2964 61.8586 25.3888C61.8162 25.4475 61.35 25.4727 61.2483 25.4895C61.0364 25.5231 60.8499 25.5735 60.6465 25.6238C60.5024 25.6574 60.1548 25.6994 60.0362 25.8001C59.9599 25.8589 60.3074 26.2954 60.282 26.371C60.2311 26.4885 59.731 26.4717 59.6886 26.6144C59.6547 26.7067 59.9429 27.0845 60.0023 27.1601C60.1124 27.3196 60.2311 27.4875 60.3413 27.647C60.4685 27.8065 60.6126 27.9408 60.7482 28.0667C60.7906 28.1255 61.172 28.3689 61.1805 28.3941C61.1635 28.4948 60.7651 28.6124 60.7227 28.7467C60.7143 28.839 61.2568 28.9062 61.2229 28.9482C61.2059 28.9985 61.1296 29.0741 61.0533 29.1664C60.977 29.2588 60.8923 29.3427 60.8414 29.3595C60.7058 29.4183 60.6634 29.6533 60.6295 29.8296C60.621 29.8632 60.5024 29.88 60.3413 29.8632C60.2057 29.8296 60.0277 29.7205 59.9938 29.7373C59.9429 29.7457 59.909 29.8968 59.926 30.0898C59.9344 30.2997 60.0277 30.4592 60.0531 30.5348C60.1972 30.837 60.3752 31.0552 60.5363 31.2903Z" fill="white"/>
<path fill-rule="evenodd" clip-rule="evenodd" d="M76.4804 20.1419L76.1328 19.6214C76.0905 19.5627 75.7684 19.1681 75.7853 19.1009C75.8277 18.9414 76.2007 18.8743 76.2685 18.7148C76.3193 18.5637 76.7262 18.4797 76.7516 18.337C76.7686 18.2363 76.3617 17.8921 76.4041 17.8165C76.4719 17.6822 76.7686 17.5311 76.9042 17.4388C76.9974 17.3716 77.328 17.0694 77.4382 17.0778C77.4975 17.0778 77.7433 17.5731 77.7688 17.6319C77.8196 17.7158 77.9807 18.1439 78.0654 18.1859C78.2011 18.2447 78.2011 18.7064 78.3282 18.7484C78.396 18.7736 78.7775 18.4965 78.8622 18.4546C78.947 18.4126 79.3369 18.1523 79.4217 18.1859C79.4895 18.2111 79.6166 18.698 79.642 18.7736C79.6675 18.8491 79.7777 19.3444 79.8285 19.3696C79.9557 19.4116 80.2693 19.0674 80.3964 19.1345C80.5236 19.2017 80.4388 19.6718 80.5575 19.7306C80.6422 19.7809 81.0661 19.4535 81.1339 19.5291C81.2271 19.6298 81.1593 20.0663 81.2695 20.1335C81.3627 20.1923 81.7696 19.8649 81.8544 19.9488C81.9052 19.9992 81.9815 20.4777 81.973 20.5616C81.9646 20.6204 81.4305 20.6792 81.3966 20.7379C81.3543 20.8135 81.5662 21.292 81.5068 21.3424C81.4645 21.3759 80.9728 21.5438 80.9389 21.527C80.8457 21.4767 80.9304 20.9646 80.8287 20.931C80.7016 20.889 80.388 21.1996 80.2778 21.1409C80.1676 21.0821 80.2693 20.612 80.1506 20.5532C80.0574 20.5029 79.6929 20.8555 79.6166 20.7883C79.5064 20.6876 79.5742 20.3266 79.4725 20.2091C79.2945 20.293 79.125 20.377 78.9555 20.4693C78.8283 20.5365 78.5825 20.7379 78.4638 20.7463C78.396 20.7547 78.3621 20.2175 78.2858 20.1839C78.2095 20.1503 77.862 20.5449 77.8196 20.5029C77.7349 20.4189 77.6586 20.0831 77.6077 19.9488C77.5823 19.8733 77.4297 19.4283 77.3619 19.4116C77.2941 19.3948 76.972 19.7138 76.9127 19.7725L76.4804 20.1419Z" fill="white"/>
<path fill-rule="evenodd" clip-rule="evenodd" d="M87.3553 35.0594C87.3384 35.0258 86.923 34.9586 86.94 34.9502C86.94 34.9418 87.0586 34.9586 87.1773 34.9167C87.2875 34.8747 87.4062 34.8327 87.4485 34.8243C87.5164 34.7991 87.8639 34.5977 87.9402 34.5977C88.0927 34.5977 88.2199 34.8411 88.364 34.8663C88.3979 34.967 88.7878 35.0342 88.7708 35.1097C88.7624 35.1433 88.3301 35.2189 88.2707 35.2105C88.2199 35.2021 87.9232 35.0174 87.8554 35.0174C87.6944 35.009 87.4994 35.0762 87.3553 35.0594Z" fill="white"/>
<path fill-rule="evenodd" clip-rule="evenodd" d="M25.1393 88.8868C25.0206 88.8616 24.7155 89.189 24.5968 89.1134C24.4951 89.0547 24.5799 88.551 24.4866 88.5174C24.368 88.4838 24.0374 88.7608 23.9187 88.6853C23.8085 88.6097 23.9611 88.1564 23.8594 88.0893C23.7746 88.0221 23.3508 88.2991 23.2745 88.2152C23.1982 88.1228 23.3423 87.6695 23.2491 87.6107C23.1389 87.5352 22.7575 87.7954 22.6557 87.7031C22.571 87.6359 22.749 87.1406 22.6557 87.0903C22.5201 87.0147 22.2065 87.2246 22.0539 87.1574C21.9353 87.1071 21.5369 87.3001 21.4436 87.2078C21.3589 87.1239 21.5538 86.6454 21.4606 86.5866C21.325 86.5026 20.969 86.7209 20.8503 86.6286C20.7486 86.553 20.969 86.0997 20.8757 86.0074C20.7909 85.9234 20.3247 86.1333 20.2569 86.0325C20.1976 85.9318 20.3756 85.4785 20.2908 85.4113C20.2061 85.3526 19.7992 85.4365 19.689 85.4365C19.6212 85.4449 19.1126 85.5037 19.0787 85.4533C19.0024 85.3526 19.2483 84.916 19.1635 84.8405C19.0618 84.7481 18.6464 84.9328 18.5532 84.8237C18.4769 84.7397 18.7482 84.2864 18.6634 84.2193C18.5532 84.1269 18.1548 84.2864 18.0616 84.1689C17.9683 84.0766 18.2735 83.6736 18.2057 83.5729C18.1379 83.4721 17.6632 83.6064 17.6038 83.4973C17.5869 83.4721 17.7395 82.9265 17.7734 82.9097C17.9005 82.8341 18.2226 83.0524 18.3667 82.9852C18.46 83.0776 18.8838 82.9349 18.9516 83.044C19.0024 83.1195 18.7227 83.5729 18.799 83.6232C18.8923 83.6904 19.2652 83.6484 19.3924 83.6484C19.528 83.6568 19.8586 83.5981 19.9772 83.6484C20.045 83.6736 19.8162 84.1689 19.867 84.2361C19.9264 84.3116 20.4095 84.1269 20.4434 84.2109C20.4858 84.3032 20.3756 84.681 20.3587 84.8069C20.3417 84.9412 20.24 85.2938 20.2993 85.4197C20.3332 85.4953 20.8418 85.3358 20.9181 85.3945C20.9944 85.4533 21.4267 85.3693 21.5284 85.3609C21.681 85.3526 22.0031 85.2686 22.1387 85.319C22.215 85.3442 22.0454 85.873 22.1048 85.9318C22.2065 86.0241 22.6049 85.7891 22.7066 85.873C22.7998 85.957 22.5879 86.3935 22.6812 86.4775C22.7659 86.553 23.2067 86.3096 23.266 86.3935C23.3338 86.5026 23.1558 86.914 23.2576 86.9979C23.3593 87.0819 23.7407 86.8049 23.8339 86.8888C23.9102 86.956 23.7492 87.4345 23.8424 87.4848C23.9611 87.5352 24.3001 87.275 24.3934 87.3337C24.4866 87.4009 24.3256 87.8458 24.4273 87.9214C24.5121 87.9801 24.8935 87.6611 24.9528 87.7199C25.0461 87.8122 24.9443 88.1816 25.0291 88.2991C25.1647 88.3327 25.4105 88.0053 25.5207 88.0389C25.5292 88.0389 25.5546 88.1732 25.5885 88.3159C25.6225 88.4586 25.6564 88.5929 25.6479 88.6097C25.5885 88.7692 25.2241 88.7524 25.1393 88.8868Z" fill="white"/>
<path fill-rule="evenodd" clip-rule="evenodd" d="M16.1796 81.9527C16.1457 81.81 16.4678 81.4994 16.417 81.3819C16.3831 81.3147 15.9084 81.2476 15.8321 81.214C15.6965 81.1636 15.3489 81.1216 15.2472 81.0209C15.1879 80.9537 15.5354 80.5424 15.51 80.4585C15.4846 80.3829 15.0184 80.2822 14.9336 80.2402C14.8319 80.1898 14.4081 80.1059 14.3572 80.0051C14.3318 79.9548 14.62 79.5098 14.6539 79.4511C14.6963 79.3755 14.9845 78.981 14.959 78.9138C14.9421 78.8467 14.4844 78.6956 14.4081 78.662C14.2724 78.6032 13.9419 78.5025 13.8486 78.3933C13.7978 78.3262 14.2046 77.9484 14.1877 77.8645C14.1538 77.7302 13.6791 77.7134 13.6367 77.579C13.6028 77.4447 14.0182 77.1929 13.9927 77.0586C13.9673 76.9494 13.4587 76.8739 13.4587 76.7564C13.4587 76.6472 13.8741 76.3366 13.8317 76.2527C13.7893 76.1519 13.4079 75.9924 13.3061 75.9337L12.7891 75.5979C12.7043 75.5391 12.2975 75.346 12.272 75.2453C12.2381 75.1194 12.6874 74.8843 12.6704 74.7584C12.6535 74.6157 12.1788 74.5401 12.1618 74.3974C12.1449 74.2547 12.5941 74.0616 12.5857 73.9189C12.5772 73.7762 12.1449 73.6755 12.1025 73.5412C12.0686 73.432 12.5433 73.197 12.5348 73.0794C12.5263 73.0039 12.1195 72.7521 12.0517 72.6849C11.9838 72.6177 11.5685 72.3659 11.5685 72.2819C11.5515 72.2064 11.9584 71.8958 12.0177 71.837C12.1364 71.7279 12.4246 71.5348 12.4839 71.4089C12.5178 71.3333 12.0347 71.0815 12.0347 70.9891C12.0347 70.8464 12.4924 70.7205 12.5094 70.5778C12.5178 70.519 12.111 70.2 12.0601 70.1497C11.9923 70.0909 11.6109 69.7803 11.6194 69.7048C11.6278 69.6292 12.0517 69.3606 12.1195 69.3102C12.1703 69.2682 12.628 68.9744 12.6196 68.9324C12.6111 68.8317 12.2805 68.5631 12.2042 68.4791L11.7889 68.009C11.6702 67.8579 11.4329 67.6648 11.382 67.5053C11.3396 67.3962 10.9836 67.1276 11.0006 67.01C11.026 66.8925 11.5431 66.7666 11.5346 66.6574C11.5261 66.5147 11.1362 66.2965 11.1616 66.1538C11.1871 66.011 11.6702 65.9523 11.6956 65.8096C11.7211 65.6669 11.2888 65.4402 11.3312 65.2975C11.3651 65.1548 11.8228 65.1044 11.8906 64.9785C12.0601 64.9701 12.2805 64.6427 12.45 64.6679C12.5178 64.6763 12.7467 65.1128 12.7891 65.1716C12.9078 65.3395 13.0095 65.499 13.1366 65.6669C13.0773 65.7928 12.6365 65.8432 12.6111 65.9859C12.5941 66.1034 13.0349 66.372 12.9925 66.4728C12.9501 66.5819 12.467 66.691 12.4585 66.8085C12.4585 66.9009 12.7721 67.2031 12.8399 67.2871C12.8823 67.3458 13.2383 67.69 13.2214 67.7488C13.196 67.8663 12.7128 67.9838 12.7213 68.1013C12.7298 68.2441 13.1536 68.4203 13.1366 68.5547C13.1281 68.6638 12.6196 68.8065 12.6365 68.924C12.6535 69.0751 13.0519 69.2179 13.0519 69.369C13.0519 69.5117 13.4841 69.6628 13.4672 69.7971C13.4587 69.8726 13.0603 70.1245 12.9925 70.1833C12.9501 70.2168 12.5094 70.5442 12.5178 70.5862C12.5602 70.7121 12.8654 70.9136 12.9671 71.0059L13.4163 71.4089L13.8656 71.795C13.9334 71.8622 14.3233 72.0805 14.3403 72.1644C14.3487 72.2148 13.9503 72.5338 13.8995 72.5842L13.4587 73.0207C13.3994 73.0794 13.018 73.3984 13.0264 73.4656C13.0349 73.6083 13.5011 73.6923 13.5096 73.8266C13.5096 73.8853 13.0519 74.2547 13.0858 74.2883C13.1281 74.3387 13.5265 74.6493 13.5943 74.6325C13.6198 74.6241 14.0012 74.1708 14.0012 74.1708C14.0605 74.2883 14.4844 74.3806 14.5013 74.5066C14.5098 74.6157 14.0605 74.8675 14.1029 74.9683C14.1538 75.111 14.5776 75.1446 14.6115 75.2873C14.6369 75.4048 14.1962 75.6399 14.2216 75.7658C14.247 75.8917 14.7386 75.9505 14.7471 76.068C14.7556 76.2023 14.3403 76.4206 14.3742 76.5633C14.3911 76.6472 14.9251 76.7731 14.9082 76.8487C14.8827 76.983 14.6285 77.2265 14.5522 77.3524C14.5098 77.4112 14.1877 77.8141 14.2046 77.8645C14.247 77.9568 14.6539 78.0911 14.7471 78.1331L15.2981 78.3849C15.3913 78.4269 15.8067 78.5444 15.849 78.62C15.8745 78.662 15.5693 79.0817 15.5439 79.1489C15.4676 79.2748 15.2557 79.5434 15.2387 79.6861C15.2303 79.7701 15.7812 79.8205 15.8067 79.896C15.8406 79.98 15.4676 80.3829 15.5269 80.4501C15.6117 80.5508 15.9762 80.6012 16.1033 80.6431L16.6797 80.8194C16.8662 80.8782 17.0696 80.9202 17.2561 80.9705L17.0188 81.533C16.9849 81.6001 16.8577 82.0703 16.7984 82.1038C16.6204 82.171 16.3407 81.9191 16.1796 81.9527Z" fill="white"/>
<path fill-rule="evenodd" clip-rule="evenodd" d="M36.0993 16.0872C36.006 15.9613 35.5568 16.0285 35.4805 15.8942C35.4381 15.8186 35.6585 15.3653 35.6839 15.2645C35.7433 15.0547 35.845 14.8616 35.9128 14.6517C36.006 14.7776 36.4722 14.7273 36.54 14.87C36.5909 14.9875 36.2349 15.3737 36.3112 15.4744C36.362 15.5332 36.8452 15.6927 36.9215 15.7011C36.9469 15.7011 37.1249 15.147 37.1503 15.0966C37.1842 15.0127 37.3114 14.5174 37.3877 14.4838C37.464 14.4503 37.9132 14.7021 37.9895 14.7357C38.0573 14.7609 38.532 15.0295 38.5828 14.9959C38.6761 14.9455 38.7947 14.509 38.8456 14.4083C38.8795 14.3411 39.049 13.829 39.1168 13.8206C39.2016 13.8039 39.6593 14.1648 39.7017 14.1145C39.8204 13.9969 39.9136 13.6947 39.9984 13.5436C40.0408 13.4681 40.2272 12.9896 40.312 12.9644C40.4646 12.9224 40.7358 13.3086 40.8799 13.275C41.024 13.2414 41.0579 12.7629 41.2105 12.7209C41.3631 12.6873 41.6258 13.0903 41.7699 13.0567C41.914 13.0231 41.9649 12.5278 42.1175 12.5027C42.2107 12.4859 42.5837 12.7965 42.6684 12.8552C42.7447 12.9056 43.1261 13.233 43.2024 13.2246C43.2787 13.2078 43.5161 12.7713 43.5669 12.6957C43.6008 12.6454 43.906 12.1585 43.9483 12.1669C43.9992 12.1669 44.4654 12.5195 44.4739 12.5614C44.4908 12.6873 44.0501 12.9476 44.0924 13.0735C44.1179 13.1407 44.5247 13.4261 44.601 13.4681C44.6519 13.4932 44.9062 12.9728 44.9825 12.9644C45.0927 12.9476 45.3808 13.4093 45.4741 13.3673C45.5165 13.3505 45.8725 12.9056 45.864 12.8636C45.8555 12.7377 45.3639 12.5866 45.3724 12.4607C45.3893 12.318 45.7114 12.0829 45.7877 11.957C45.8894 11.7891 46.0844 11.6296 46.22 11.4785L46.6692 11L47.1609 11.4281C47.2202 11.4785 47.644 11.7975 47.6355 11.8731C47.6271 11.8982 47.2033 12.3516 47.1948 12.3432C47.3474 12.3767 47.5084 12.7797 47.6525 12.7797C47.7373 12.7797 48.0255 12.3935 48.0933 12.3348C48.2543 12.1921 48.3899 12.0242 48.551 11.8898C48.712 11.7471 48.8646 11.5876 49.0257 11.4365C49.1189 11.3442 49.3986 11.0168 49.5173 11.0084C49.5682 11 49.9157 11.4533 49.9581 11.5037L50.3819 11.999C50.4497 12.0829 50.687 12.4691 50.7887 12.4943C50.8481 12.5027 51.238 12.1417 51.2973 12.0997L51.8229 11.7219C51.9754 11.6128 52.1789 11.4113 52.3653 11.3442C52.4247 11.319 52.6705 11.8479 52.7383 11.8647C52.8231 11.8815 53.2045 11.5708 53.2977 11.5205C53.4164 11.4533 53.73 11.1847 53.8741 11.1847C53.8911 11.1847 54.2386 11.7052 54.2217 11.7303C54.1793 11.8815 53.7215 11.9234 53.6537 12.0661C53.2808 12.2928 52.9163 12.5195 52.5688 12.7545C52.4247 12.8636 52.1534 12.9896 52.0517 13.1323C51.9754 13.233 51.5686 13.4009 51.5516 13.51C51.5516 13.5436 51.9076 14.0305 51.9076 14.0305C51.7889 14.0725 51.5347 14.4335 51.4329 14.4167C51.3227 14.3999 51.1956 13.8878 51.0769 13.8962C50.9922 13.8962 50.6701 14.3327 50.6107 14.2991C50.4921 14.232 50.3225 13.9214 50.2378 13.8039C50.1784 13.7283 49.9411 13.3337 49.8479 13.3086C49.7885 13.3002 49.441 13.6779 49.3901 13.7283C49.3223 13.7787 49.0257 14.1732 48.9494 14.1732C48.8731 14.1732 48.5934 13.7703 48.534 13.7115C48.4917 13.6611 48.1611 13.2414 48.1017 13.2498C47.9916 13.2666 47.7457 13.6108 47.6779 13.7031L47.2711 14.1816C47.1609 14.3159 47.0168 14.5594 46.8812 14.6517C46.8303 14.6853 46.4997 14.2152 46.4319 14.2152C46.3471 14.2152 46.1098 14.6265 46.059 14.7021C45.9742 14.8112 45.8216 15.147 45.7029 15.1974C45.6182 15.2394 45.3385 14.7776 45.2367 14.786C45.0927 14.8028 45.0248 15.2394 44.8892 15.2813C44.7282 15.147 44.5671 15.0211 44.4061 14.8952C44.2874 14.8028 43.9907 14.6517 43.906 14.5174C43.8551 14.4419 44.262 14.0893 44.245 13.9969C44.2281 13.871 43.8127 13.7283 43.7364 13.6192C43.6178 13.4513 43.3465 13.4009 43.2109 13.2498C43.0499 13.3589 43.0244 13.6779 42.8634 13.7787C42.7362 13.8458 42.6091 14.19 42.5328 14.3159C42.4565 14.4503 42.3378 14.7693 42.2192 14.8616C42.1514 14.912 41.7699 14.5006 41.6852 14.5174C41.5495 14.551 41.5072 14.9875 41.3885 15.0547C41.3037 15.1134 40.9477 14.7105 40.846 14.7441C40.7612 14.7693 40.6087 15.231 40.5663 15.3065C40.507 15.4073 40.3968 15.8186 40.3035 15.8606C40.1933 15.9193 39.8628 15.5164 39.7441 15.5584C39.6254 15.6003 39.6169 16.1208 39.4983 16.1376C39.3457 16.1628 39.0829 15.8186 38.9304 15.8606C38.8032 15.8942 38.8286 16.3894 38.7015 16.4314C38.5828 16.4734 38.2353 16.104 38.1166 16.1712C37.9895 16.2551 38.0403 16.7084 37.9047 16.7672C37.8284 16.8008 37.3707 16.465 37.3199 16.5322C37.2181 16.6413 37.1673 16.9771 37.1249 17.1198C37.0995 17.1702 36.9893 17.7074 36.9469 17.7158C36.9045 17.7242 36.3705 17.5479 36.3536 17.506C36.2942 17.3968 36.5994 17.0023 36.5231 16.9015C36.4638 16.8176 35.9382 16.7924 35.9213 16.7001C35.8704 16.5238 36.1162 16.2803 36.0993 16.0872Z" fill="white"/>
<path fill-rule="evenodd" clip-rule="evenodd" d="M83.8632 20.6962L85.0669 20.4023C85.0075 20.5451 85.2449 20.8892 85.1601 21.0152C85.0923 21.1243 84.6091 21.0487 84.5583 21.1663C84.5413 21.2082 84.6261 21.7623 84.66 21.7791C84.7787 21.863 84.643 22.3164 84.7617 22.3919C84.8804 22.4675 85.2364 22.1904 85.3635 22.2408C85.5076 22.2912 85.7958 22.0141 85.9145 22.0981C85.9908 22.1652 85.8128 22.6437 85.8806 22.6689C85.9654 22.7193 86.3214 22.6437 86.4485 22.6437C86.5926 22.6437 86.9401 22.5934 87.0588 22.6773C87.1266 22.7277 86.8638 23.2146 86.9062 23.2818C86.974 23.3909 87.4402 23.2482 87.508 23.3825C87.5759 23.5 87.2453 23.861 87.3046 23.9701C87.3555 24.0625 87.8725 23.9953 87.9064 24.1128C87.9403 24.2723 87.6437 24.5242 87.6691 24.6921C87.686 24.8264 87.364 25.137 87.4148 25.2461C87.4572 25.3385 87.9742 25.3049 87.9912 25.4224C88.0166 25.5735 87.6776 25.8254 87.7115 25.9765C87.7369 26.094 88.237 26.0604 88.2794 26.178C88.3218 26.2787 87.9234 26.6313 87.9827 26.7152C88.0505 26.8327 88.4998 26.816 88.5422 26.9419C88.5845 27.0678 88.1946 27.3448 88.2285 27.4707C88.2624 27.5799 88.771 27.6051 88.7795 27.7142C88.788 27.8569 88.415 28.1004 88.4489 28.2347C88.4828 28.369 88.076 28.6124 88.1099 28.7384C88.1438 28.8643 88.5845 28.8811 88.6439 28.9986C88.7032 29.1161 89.1525 29.1413 89.1864 29.2672C89.2203 29.3848 88.788 29.6534 88.8304 29.7625C88.8727 29.8717 88.4404 30.1319 88.4574 30.2494C88.4743 30.3166 88.9066 30.4845 88.9829 30.5348C89.0507 30.5768 89.5 30.7615 89.5 30.8371C89.5085 30.9126 89.1694 31.24 89.1101 31.3072C89.0507 31.3827 88.7117 31.6933 88.7202 31.7689C88.7286 31.9032 88.2963 32.0879 88.3133 32.2138C88.3218 32.281 88.7371 32.4656 88.8049 32.516C88.9151 32.5916 89.2542 32.7259 89.2965 32.835C89.3305 32.919 88.8558 33.1624 88.8643 33.2464C88.8727 33.3471 89.3559 33.4646 89.3474 33.5737C89.3389 33.6073 88.9236 33.9515 88.8897 33.9515C88.7286 33.9599 88.593 33.6577 88.432 33.6409L87.9573 33.3387C87.898 33.3051 87.4826 33.1036 87.4826 33.0533C87.4911 32.9273 87.898 32.7762 87.898 32.6419C87.9064 32.516 88.3302 32.3397 88.3133 32.2138C88.2963 32.0879 87.8301 32.0459 87.8132 31.92C87.7962 31.7941 88.2285 31.601 88.2116 31.4667C88.1946 31.3407 87.72 31.3072 87.703 31.1896C87.686 31.0721 88.1099 30.8538 88.0844 30.7279C88.059 30.602 87.5843 30.5768 87.5589 30.4593C87.5335 30.3334 87.9573 30.1067 87.9319 29.9808C87.9064 29.8549 87.4318 29.8465 87.3979 29.7289C87.3724 29.603 87.7878 29.368 87.7539 29.242C87.72 29.1161 87.2538 29.1161 87.2199 28.9986C87.1859 28.8811 87.5928 28.6292 87.5589 28.5033C87.525 28.3774 87.0503 28.3942 87.0164 28.2766C86.9825 28.1591 87.3894 27.8905 87.347 27.7646C87.3046 27.647 86.8215 27.6722 86.796 27.5547C86.7621 27.4288 87.152 27.1601 87.1097 27.0342C87.0842 26.9503 86.5502 26.9167 86.5587 26.8495C86.5757 26.7236 86.7791 26.455 86.8554 26.3291C86.8977 26.2619 87.169 25.8589 87.1436 25.7918C87.1012 25.6659 86.6265 25.7498 86.5756 25.6407C86.5333 25.5483 86.8978 25.179 86.8384 25.1034C86.7452 24.9859 86.3722 25.0782 86.2705 24.9775C86.1857 24.8852 85.7619 24.9943 85.7111 24.9019C85.6602 24.8096 86.0077 24.4402 85.9399 24.3563C85.8636 24.2723 85.4483 24.4318 85.3974 24.3479C85.3466 24.2639 85.6517 23.8946 85.5924 23.8022C85.5331 23.7183 85.1262 23.9617 85.0838 23.8946C85.0414 23.8358 85.3042 23.4245 85.2449 23.3573C85.211 23.3321 84.8804 23.5588 84.855 23.5924C84.8041 23.6175 84.7702 23.6931 84.6685 23.7351C84.5498 23.7687 84.4396 23.7938 84.3633 23.7854C84.2786 23.7686 84.3294 23.2146 84.2531 23.1642C84.1684 23.1055 83.7107 23.3909 83.6428 23.3069C83.5666 23.2062 83.5666 22.82 83.5411 22.6941L83.4479 22.0813L83.2529 20.8557L83.8632 20.6962Z" fill="white"/>
</svg>
