<svg width="101" height="100" viewBox="0 0 101 100" fill="none" xmlns="http://www.w3.org/2000/svg">
<rect width="77" height="48" transform="translate(11.5 26)" fill="#8B8B8B"/>
<mask id="path-1-outside-1_391_911" maskUnits="userSpaceOnUse" x="10.5" y="25" width="79" height="50" fill="black">
<rect fill="white" x="10.5" y="25" width="79" height="50"/>
<path fill-rule="evenodd" clip-rule="evenodd" d="M11.5 27.8182C11.5 26.814 12.314 26 13.3182 26H74.5H86.6818C87.686 26 88.5 26.814 88.5 27.8182V72.1818C88.5 73.186 87.686 74 86.6818 74H74.5H25.5C25.5 74 25.5 74 25.5 74C25.5 74 25.5 74 25.5 74H11.5C11.5 74 11.5 74 11.5 74V60.144V27.8182Z"/>
</mask>
<path fill-rule="evenodd" clip-rule="evenodd" d="M11.5 27.8182C11.5 26.814 12.314 26 13.3182 26H74.5H86.6818C87.686 26 88.5 26.814 88.5 27.8182V72.1818C88.5 73.186 87.686 74 86.6818 74H74.5H25.5C25.5 74 25.5 74 25.5 74C25.5 74 25.5 74 25.5 74H11.5C11.5 74 11.5 74 11.5 74V60.144V27.8182Z" fill="#143C57"/>
<path d="M74.5 25.0909H13.3182V26.9091H74.5V25.0909ZM74.5 26.9091H86.6818V25.0909H74.5V26.9091ZM89.4091 72.1818V27.8182H87.5909V72.1818H89.4091ZM74.5 74.9091H86.6818V73.0909H74.5V74.9091ZM25.5 74.9091H74.5V73.0909H25.5V74.9091ZM11.5 74.9091H25.5V73.091H11.5V74.9091ZM10.5909 60.144V74H12.4091V60.144H10.5909ZM10.5909 27.8182V60.144H12.4091V27.8182H10.5909ZM11.5 73.091C12.0021 73.091 12.4091 73.4979 12.4091 74H10.5909C10.5909 74.5021 10.9979 74.9091 11.5 74.9091V73.091ZM25.5 73.0909C24.6901 73.0909 24.2845 74.0701 24.8572 74.6428L26.1428 73.3572C26.7155 73.9299 26.3099 74.9091 25.5 74.9091V73.0909ZM87.5909 72.1818C87.5909 72.6839 87.1839 73.0909 86.6818 73.0909V74.9091C88.188 74.9091 89.4091 73.688 89.4091 72.1818H87.5909ZM86.6818 26.9091C87.1839 26.9091 87.5909 27.3161 87.5909 27.8182H89.4091C89.4091 26.3119 88.188 25.0909 86.6818 25.0909V26.9091ZM24.8572 74.6428C24.3372 74.1229 24.6162 73.091 25.5 73.091V74.9091C26.3837 74.9091 26.6628 73.8772 26.1428 73.3572L24.8572 74.6428ZM13.3182 25.0909C11.8119 25.0909 10.5909 26.312 10.5909 27.8182H12.4091C12.4091 27.3161 12.8161 26.9091 13.3182 26.9091V25.0909Z" fill="#143C57" mask="url(#path-1-outside-1_391_911)"/>
<path d="M86.6818 26H13.3182C12.314 26 11.5 26.814 11.5 27.8182V72.1818C11.5 73.186 12.314 74 13.3182 74H86.6818C87.686 74 88.5 73.186 88.5 72.1818V27.8182C88.5 26.814 87.686 26 86.6818 26Z" fill="#F9F7E7"/>
<path d="M81.1207 31.5762H18.8714C17.8673 31.5762 17.0532 32.3902 17.0532 33.3944V68.134C17.0532 69.1381 17.8672 69.9522 18.8714 69.9522H81.1207C82.1249 69.9522 82.9389 69.1381 82.9389 68.134V33.3944C82.9389 32.3902 82.1249 31.5762 81.1207 31.5762Z" stroke="#FFB73E" stroke-width="0.909091" stroke-miterlimit="10"/>
<path d="M24.3299 61.3236C24.0777 61.9235 24.6941 62.5205 25.2877 62.2537C25.6629 62.0851 26.104 62.268 26.248 62.6534C26.4737 63.2572 27.3215 63.2744 27.5715 62.6803L30.4032 55.9517C30.7817 55.0522 30.3553 54.0165 29.4532 53.6443C28.5597 53.2756 27.5362 53.6972 27.1616 54.5882L24.3299 61.3236Z" fill="#C34F4F"/>
<path d="M33.4456 54.5896C33.0716 53.6978 32.0475 53.2755 31.1535 53.6443C30.2519 54.0164 29.8254 55.0511 30.2029 55.9504L33.0275 62.678C33.2779 63.2743 34.1284 63.2579 34.3571 62.6529C34.5027 62.2675 34.9436 62.0845 35.3191 62.254C35.9103 62.5209 36.5224 61.925 36.2715 61.3268L33.4456 54.5896Z" fill="#C34F4F"/>
<path d="M30.0091 55.8943C32.9929 55.8943 35.4117 53.5003 35.4117 50.5473C35.4117 47.5942 32.9929 45.2002 30.0091 45.2002C27.0253 45.2002 24.6064 47.5942 24.6064 50.5473C24.6064 53.5003 27.0253 55.8943 30.0091 55.8943Z" fill="#FFB73E" stroke="#DF8C2C" stroke-width="0.909091" stroke-miterlimit="10"/>
<path d="M25.5 74H13.3182C12.314 74 11.5 73.186 11.5 72.1819V60.144" fill="#143C57"/>
<path d="M88.5 60.144V72.1819C88.5 73.186 87.686 74 86.6818 74H74.5" fill="#143C57"/>
<path d="M74.5 26H86.6818C87.686 26 88.5 26.814 88.5 27.8182V39.856" fill="#143C57"/>
<path d="M11.5 39.856V26H25.5" fill="#143C57"/>
<path d="M76.5162 62H55.5V63.216H76.5162V62Z" fill="#E2DCB9"/>
<path d="M43.9414 37.5164C43.9996 37.5552 44.0578 37.5939 44.1159 37.6327C44.1741 37.6715 44.2323 37.7103 44.2905 37.7491C44.3438 37.783 44.3923 37.8145 44.4359 37.8436C44.4844 37.8727 44.5256 37.897 44.5596 37.9164C44.579 37.9261 44.5984 37.9333 44.6178 37.9382C44.6371 37.943 44.6565 37.9479 44.6759 37.9527C44.6953 37.9576 44.7123 37.96 44.7268 37.96C44.7462 37.96 44.7656 37.96 44.785 37.96C44.8238 37.9648 44.8602 37.977 44.8941 37.9964C44.9281 38.0109 44.9668 38.0327 45.0105 38.0618C45.0978 38.1394 45.1899 38.2412 45.2868 38.3673C45.3838 38.4885 45.4493 38.5927 45.4832 38.68C45.5123 38.743 45.522 38.8061 45.5123 38.8691C45.5026 38.9321 45.4784 38.9806 45.4396 39.0145C45.3959 39.0485 45.3378 39.063 45.265 39.0582C45.1971 39.0485 45.1171 39.0024 45.025 38.92C44.9523 38.8715 44.8626 38.8061 44.7559 38.7236C44.6493 38.6412 44.5378 38.5515 44.4214 38.4545C44.3002 38.3624 44.1741 38.2679 44.0432 38.1709C43.9171 38.0739 43.7984 37.9842 43.6868 37.9018C43.4444 38.1636 43.1875 38.4036 42.9159 38.6218C42.6493 38.8352 42.3608 39.0218 42.0505 39.1818C41.9438 39.2448 41.8541 39.2812 41.7814 39.2909C41.7135 39.2958 41.6626 39.2861 41.6287 39.2618C41.5947 39.2376 41.5802 39.2036 41.585 39.16C41.5947 39.1164 41.6262 39.0727 41.6796 39.0291C42.1014 38.7285 42.4747 38.3721 42.7996 37.96C43.1293 37.5479 43.3911 37.1164 43.585 36.6655C43.619 36.5879 43.6238 36.5055 43.5996 36.4182C43.5802 36.3261 43.4856 36.2461 43.3159 36.1782C43.1802 36.1297 43.1244 36.0618 43.1487 35.9745C43.1729 35.8873 43.2529 35.8509 43.3887 35.8655C43.5438 35.88 43.7111 35.9115 43.8905 35.96C44.0747 36.0085 44.2614 36.0764 44.4505 36.1636C44.5523 36.217 44.5959 36.2873 44.5814 36.3745C44.5717 36.4618 44.5426 36.5515 44.4941 36.6436C44.4068 36.8036 44.3171 36.9564 44.225 37.1018C44.1378 37.2473 44.0432 37.3855 43.9414 37.5164ZM45.4105 41.6327C45.6238 41.6327 45.7984 41.5552 45.9341 41.4C46.0699 41.2497 46.1378 41.0412 46.1378 40.7745C46.1378 40.5127 46.0699 40.3067 45.9341 40.1564C45.8032 40.0012 45.6287 39.9236 45.4105 39.9236C45.1923 39.9236 45.0153 40.0012 44.8796 40.1564C44.7487 40.3067 44.6832 40.5127 44.6832 40.7745C44.6832 41.0267 44.7487 41.2327 44.8796 41.3927C45.0153 41.5527 45.1923 41.6327 45.4105 41.6327ZM46.9378 40.84C46.9378 41.2279 46.7947 41.5406 46.5087 41.7782C46.2275 42.0206 45.8614 42.1418 45.4105 42.1418C45.1826 42.1418 44.9741 42.1103 44.785 42.0473C44.6008 41.9842 44.4408 41.8945 44.305 41.7782C44.1693 41.6618 44.0626 41.5236 43.985 41.3636C43.9123 41.2036 43.8759 41.0291 43.8759 40.84C43.8759 40.6558 43.9123 40.4836 43.985 40.3236C44.0626 40.1636 44.1693 40.0255 44.305 39.9091C44.4408 39.7927 44.6008 39.703 44.785 39.64C44.9741 39.5721 45.1826 39.5382 45.4105 39.5382C45.8614 39.5382 46.2275 39.6594 46.5087 39.9018C46.7947 40.1442 46.9378 40.457 46.9378 40.84ZM47.0178 36.1273V37.5455C47.1293 37.5406 47.2384 37.5285 47.345 37.5091C47.4517 37.4897 47.5341 37.4509 47.5923 37.3927C47.6214 37.3588 47.7038 37.3394 47.8396 37.3345C47.9802 37.3297 48.1087 37.3345 48.225 37.3491C48.3462 37.3782 48.4311 37.4242 48.4796 37.4873C48.5329 37.5503 48.5547 37.6158 48.545 37.6836C48.5353 37.7467 48.4941 37.8024 48.4214 37.8509C48.3487 37.8994 48.2493 37.9236 48.1232 37.9236H47.0178C47.0178 37.9382 47.0178 37.9673 47.0178 38.0109C47.0178 38.0545 47.0178 38.0982 47.0178 38.1418C47.0178 38.1855 47.0178 38.2267 47.0178 38.2655C47.0178 38.2994 47.0178 38.3164 47.0178 38.3164C47.0178 38.7721 46.9668 39.1042 46.865 39.3127C46.7632 39.5212 46.6565 39.6279 46.545 39.6327C46.4529 39.6424 46.3802 39.5721 46.3268 39.4218C46.2735 39.2715 46.2444 39.0097 46.2396 38.6364V36.2509C46.2396 36.1442 46.225 36.0521 46.1959 35.9745C46.1717 35.897 46.1305 35.8364 46.0723 35.7927C45.9996 35.7345 45.9099 35.6885 45.8032 35.6545C45.7014 35.6158 45.5971 35.5867 45.4905 35.5673C45.4517 35.5624 45.425 35.543 45.4105 35.5091C45.4008 35.4752 45.4008 35.4388 45.4105 35.4C45.4202 35.3661 45.442 35.3345 45.4759 35.3055C45.5099 35.2715 45.5535 35.2545 45.6068 35.2545C45.699 35.2545 45.8056 35.2618 45.9268 35.2764C46.0529 35.2861 46.1814 35.2982 46.3123 35.3127C46.4432 35.3321 46.5693 35.3539 46.6905 35.3782C46.8117 35.3976 46.9184 35.417 47.0105 35.4364C47.0541 35.4509 47.0832 35.4824 47.0978 35.5309C47.1123 35.5794 47.1123 35.6279 47.0978 35.6764C47.0735 35.7491 47.0541 35.8242 47.0396 35.9018C47.025 35.9794 47.0178 36.0545 47.0178 36.1273ZM53.3674 37.7855C53.4207 37.8194 53.474 37.8533 53.5274 37.8873C53.5807 37.9164 53.6292 37.943 53.6728 37.9673C53.7164 37.9915 53.7552 38.0133 53.7892 38.0327C53.8231 38.0521 53.8522 38.0642 53.8764 38.0691C53.9007 38.0788 53.9249 38.0861 53.9492 38.0909C53.9734 38.0958 53.9952 38.0982 54.0146 38.0982C54.0292 38.103 54.0437 38.1055 54.0583 38.1055C54.0777 38.1006 54.0946 38.0982 54.1092 38.0982C54.114 38.103 54.1213 38.1079 54.131 38.1127C54.1455 38.1176 54.1577 38.1224 54.1674 38.1273C54.1819 38.137 54.1964 38.1467 54.211 38.1564C54.2304 38.1661 54.2522 38.1758 54.2764 38.1855C54.3346 38.2242 54.3904 38.2752 54.4437 38.3382C54.5019 38.3964 54.5528 38.4545 54.5964 38.5127C54.6401 38.5758 54.6764 38.6315 54.7055 38.68C54.7346 38.7285 54.754 38.7624 54.7637 38.7818C54.8074 38.8691 54.8219 38.9467 54.8074 39.0145C54.7977 39.0824 54.7686 39.1309 54.7201 39.16C54.6668 39.1891 54.5989 39.1939 54.5164 39.1745C54.434 39.1503 54.3419 39.0945 54.2401 39.0073C54.1043 38.8909 53.9274 38.7503 53.7092 38.5855C53.491 38.4206 53.2874 38.2679 53.0983 38.1273C52.8074 38.3794 52.4995 38.6145 52.1746 38.8327C51.8498 39.0461 51.5201 39.223 51.1855 39.3636C51.0643 39.4218 50.9674 39.4533 50.8946 39.4582C50.8268 39.4582 50.7783 39.4461 50.7492 39.4218C50.7201 39.4024 50.708 39.3733 50.7128 39.3345C50.7177 39.2958 50.7395 39.2642 50.7783 39.24C51.011 39.0994 51.2534 38.9297 51.5055 38.7309C51.7577 38.5273 51.9977 38.3067 52.2255 38.0691C52.4583 37.8364 52.6692 37.5939 52.8583 37.3418C53.0522 37.0897 53.2074 36.84 53.3237 36.5927C53.1637 36.6073 53.0255 36.6194 52.9092 36.6291C52.7977 36.6388 52.6934 36.6485 52.5964 36.6582C52.514 36.6679 52.4219 36.6873 52.3201 36.7164C52.2183 36.7455 52.1431 36.7721 52.0946 36.7964C52.0655 36.8255 52.0268 36.84 51.9783 36.84C51.9298 36.8352 51.8716 36.8206 51.8037 36.7964C51.7407 36.777 51.6655 36.743 51.5783 36.6945C51.4958 36.6461 51.3964 36.5855 51.2801 36.5127C51.1346 36.4158 51.0764 36.3382 51.1055 36.28C51.1395 36.217 51.2292 36.1903 51.3746 36.2C51.3989 36.2048 51.4401 36.2097 51.4983 36.2145C51.5613 36.2194 51.6316 36.2242 51.7092 36.2291C51.7868 36.2339 51.8692 36.2388 51.9564 36.2436C52.0486 36.2436 52.1358 36.2436 52.2183 36.2436C52.4219 36.2436 52.6013 36.2436 52.7564 36.2436C52.9116 36.2388 53.0449 36.2242 53.1564 36.2C53.1661 36.2 53.1783 36.2 53.1928 36.2C53.2074 36.1952 53.2219 36.1903 53.2364 36.1855C53.251 36.1806 53.2655 36.1782 53.2801 36.1782C53.2946 36.1733 53.3092 36.1685 53.3237 36.1636C53.3286 36.1636 53.3358 36.1612 53.3455 36.1564C53.3601 36.1467 53.3722 36.1394 53.3819 36.1345C53.3916 36.1297 53.4037 36.1248 53.4183 36.12C53.4328 36.1152 53.4474 36.1127 53.4619 36.1127C53.5928 36.1127 53.7237 36.1152 53.8546 36.12C53.9855 36.1248 54.0995 36.1297 54.1964 36.1345C54.2837 36.1442 54.3322 36.1879 54.3419 36.2655C54.3564 36.343 54.3492 36.4182 54.3201 36.4909C54.3055 36.52 54.291 36.5491 54.2764 36.5782C54.2619 36.6024 54.2449 36.6267 54.2255 36.6509C54.211 36.68 54.194 36.7067 54.1746 36.7309C54.1601 36.7552 54.1455 36.7794 54.131 36.8036C54.034 36.9733 53.9225 37.1406 53.7964 37.3055C53.6704 37.4703 53.5274 37.6303 53.3674 37.7855ZM56.0146 36.1273V37.6618C56.1261 37.657 56.2328 37.6448 56.3346 37.6255C56.4364 37.6061 56.5237 37.5673 56.5964 37.5091C56.6207 37.4752 56.7007 37.4558 56.8364 37.4509C56.9771 37.4461 57.1007 37.4509 57.2074 37.4655C57.3286 37.4945 57.4158 37.5406 57.4692 37.6036C57.5274 37.6667 57.5492 37.7321 57.5346 37.8C57.5249 37.863 57.4837 37.9188 57.411 37.9673C57.3431 38.0158 57.2486 38.04 57.1274 38.04H56.0146V38.44C56.0146 38.9103 55.9637 39.2352 55.8619 39.4145C55.7649 39.5939 55.6583 39.6836 55.5419 39.6836C55.4449 39.6933 55.3722 39.6279 55.3237 39.4873C55.2752 39.3418 55.2486 39.0897 55.2437 38.7309V36.2509C55.2437 36.1442 55.2316 36.0521 55.2074 35.9745C55.1831 35.897 55.1419 35.8364 55.0837 35.7927C55.0061 35.7345 54.9164 35.6885 54.8146 35.6545C54.7128 35.6158 54.6086 35.5867 54.5019 35.5673C54.4631 35.5624 54.4364 35.543 54.4219 35.5091C54.4074 35.4752 54.4049 35.4388 54.4146 35.4C54.4243 35.3661 54.4461 35.3345 54.4801 35.3055C54.514 35.2715 54.5577 35.2545 54.611 35.2545C54.6983 35.2545 54.8025 35.2618 54.9237 35.2764C55.0498 35.2861 55.1758 35.2982 55.3019 35.3127C55.428 35.3321 55.5516 35.3539 55.6728 35.3782C55.794 35.3976 55.9007 35.417 55.9928 35.4364C56.0316 35.4509 56.0583 35.4824 56.0728 35.5309C56.0874 35.5794 56.0874 35.6279 56.0728 35.6764C56.0486 35.7491 56.0316 35.8242 56.0219 35.9018C56.0171 35.9794 56.0146 36.0545 56.0146 36.1273ZM54.5164 41.6327C54.7298 41.6327 54.9019 41.5527 55.0328 41.3927C55.1637 41.2376 55.2292 41.0364 55.2292 40.7891C55.2292 40.537 55.1637 40.3358 55.0328 40.1855C54.9068 40.0303 54.7346 39.9527 54.5164 39.9527C54.2983 39.9527 54.1213 40.0279 53.9855 40.1782C53.8546 40.3285 53.7892 40.5321 53.7892 40.7891C53.7892 41.0364 53.8546 41.2376 53.9855 41.3927C54.1213 41.5527 54.2983 41.6327 54.5164 41.6327ZM56.0292 40.8545C56.0292 41.2473 55.8886 41.56 55.6074 41.7927C55.331 42.0255 54.9674 42.1418 54.5164 42.1418C54.0655 42.1418 53.6971 42.0255 53.411 41.7927C53.1249 41.56 52.9819 41.2473 52.9819 40.8545C52.9819 40.4667 53.1249 40.1564 53.411 39.9236C53.6971 39.6861 54.0655 39.5673 54.5164 39.5673C54.9674 39.5673 55.331 39.6836 55.6074 39.9164C55.8886 40.1491 56.0292 40.4618 56.0292 40.8545Z" fill="#624848"/>
</svg>
