<svg width="100" height="100" viewBox="0 0 100 100" fill="none" xmlns="http://www.w3.org/2000/svg">
<path fill-rule="evenodd" clip-rule="evenodd" d="M35.3999 27.9002L35.8999 28.1002C35.8999 28.1002 35.3999 28.0002 35.2999 28.1002C35.1999 28.1002 34.6999 28.0002 34.6999 28.1002C34.6999 28.1002 35.0999 28.2002 35.1999 28.3002C35.1999 28.3002 35.5999 28.5002 35.6999 28.5002C35.7999 28.5002 36.1999 28.5002 36.2999 28.5002C36.3999 28.5002 36.7999 28.5002 36.8999 28.5002L37.3999 28.7002C37.3999 28.7002 36.7999 28.6002 36.7999 28.7002C36.7999 28.7002 37.0999 28.8002 37.2999 28.9002C37.3999 28.9002 37.7999 29.1002 37.7999 29.1002C37.7999 29.1002 37.1999 29.0002 37.1999 29.1002H36.5999C36.4999 29.1002 36.0999 29.1002 35.9999 29.1002C35.8999 29.1002 35.5999 29.0002 35.4999 28.9002L34.9999 28.7002L34.4999 28.5002C34.3999 28.4002 34.1999 28.4002 33.9999 28.3002C33.8999 28.3002 33.6999 28.2002 33.4999 28.1002C33.3999 28.1002 32.8999 28.1002 32.8999 28.1002C32.6999 28.0002 32.5999 28.0002 32.3999 27.9002C32.4999 27.9002 32.9999 28.0002 32.9999 27.9002C32.9999 27.9002 32.5999 27.8002 32.4999 27.7002C32.6999 27.7002 32.8999 27.7002 33.0999 27.7002C33.1999 27.7002 33.4999 27.9002 33.5999 27.9002C33.5999 27.9002 33.7999 27.9002 33.8999 27.9002C33.9999 27.9002 34.1999 27.9002 34.1999 27.9002L33.6999 27.7002C33.7999 27.7002 34.1999 27.8002 34.2999 27.7002C34.4999 27.7002 34.5999 27.8002 34.7999 27.9002C34.9999 27.9002 35.1999 27.9002 35.3999 27.9002Z" fill="white"/>
<path fill-rule="evenodd" clip-rule="evenodd" d="M34.1001 29.8001L33.6001 29.6001L32.7001 29.2001C32.6001 29.2001 32.2001 29.0001 32.2001 29.0001H32.8001C32.9001 29.0001 33.1001 29.2001 33.3001 29.2001H33.9001C33.8001 29.1001 33.6001 29.1001 33.4001 29.0001C33.3001 29.0001 33.0001 28.8001 32.9001 28.8001C32.8001 28.8001 32.4001 28.8001 32.3001 28.8001C32.1001 28.8001 32.0001 28.7001 31.8001 28.6001C31.7001 28.6001 31.4001 28.5001 31.3001 28.4001C31.3001 28.4001 31.8001 28.4001 31.9001 28.4001H32.5001C32.6001 28.4001 33.1001 28.5001 33.1001 28.4001C33.1001 28.4001 32.7001 28.2001 32.6001 28.2001L32.1001 28.0001L31.6001 27.8001L31.1001 27.6001H31.7001L32.9001 27.7001L33.4001 27.9001C33.5001 28.0001 33.8001 28.0001 33.9001 28.1001C34.0001 28.1001 34.4001 28.3001 34.4001 28.3001H33.8001C33.9001 28.3001 34.2001 28.5001 34.3001 28.5001C34.4001 28.5001 34.8001 28.5001 34.9001 28.5001C35.1001 28.5001 35.2001 28.6001 35.4001 28.7001C35.5001 28.7001 35.9001 28.7001 36.0001 28.7001C36.1001 28.7001 36.4001 28.9001 36.5001 28.9001C36.6001 28.9001 36.9001 29.1001 37.0001 29.1001C37.0001 29.1001 36.5001 29.1001 36.4001 29.1001C36.3001 29.1001 35.8001 29.1001 35.8001 29.1001L36.3001 29.3001C36.2001 29.3001 35.9001 29.3001 35.7001 29.3001H35.1001C35.3001 29.3001 35.4001 29.4001 35.6001 29.5001C35.7001 29.5001 36.1001 29.5001 36.2001 29.5001C36.3001 29.5001 36.7001 29.5001 36.8001 29.5001C36.9001 29.5001 37.2001 29.6001 37.3001 29.7001L37.8001 29.9001H37.2001C37.0001 29.9001 36.8001 29.9001 36.6001 29.9001C36.5001 29.9001 36.1001 29.9001 36.0001 29.9001C35.9001 29.9001 35.6001 29.7001 35.5001 29.7001C35.4001 29.7001 34.9001 29.6001 34.9001 29.7001L35.4001 29.9001C35.3001 29.9001 34.9001 29.9001 34.8001 29.9001L34.1001 29.8001Z" fill="white"/>
<path fill-rule="evenodd" clip-rule="evenodd" d="M33 30.9001L33.5 31.1001C33.6 31.1001 33.9 31.3001 34 31.3001C34.1 31.3001 34.5 31.3001 34.6 31.3001C34.8 31.4001 34.9 31.4001 35.1 31.5001L35.6 31.7001C35.7 31.7001 36.1 31.9001 36.1 31.9001H35.5C35.4 31.9001 35.2 31.7001 35 31.7001C34.8 31.7001 34.6 31.7001 34.4 31.7001C34.2 31.7001 34.1 31.6001 33.9 31.5001C33.8 31.5001 33.4 31.5001 33.3 31.5001C33.1 31.5001 33 31.4001 32.8 31.3001L32.3 31.1001L31.8 30.9001C31.7 30.9001 31.4 30.8001 31.3 30.7001C31.3 30.7001 31.9 30.8001 31.9 30.7001C31.9 30.7001 31.5 30.5001 31.4 30.5001C31.4 30.5001 32 30.6001 32 30.5001C32 30.5001 31.6 30.3001 31.5 30.3001L31 30.1001C31.1 30.1001 31.5 30.1001 31.6 30.1001C31.7 30.1001 32 30.1001 32.2 30.1001C32.3 30.1001 32.5 30.3001 32.7 30.3001C32.8 30.3001 33.2 30.3001 33.3 30.3001C33.5 30.3001 33.7 30.3001 33.9 30.3001C33.7 30.3001 33.6 30.2001 33.4 30.1001C33.3 30.1001 32.9 30.1001 32.8 30.1001C32.6 30.1001 32.5 30.0001 32.3 29.9001C32.1 29.8001 32 29.8001 31.8 29.7001C31.7 29.7001 31.4 29.6001 31.3 29.5001C31.3 29.5001 31.9 29.6001 31.9 29.5001L31.4 29.3001C31.5 29.3001 31.9 29.4001 32 29.3001C32.1 29.3001 32.6 29.4001 32.6 29.3001L32.1 29.1001C32.2 29.1001 32.5 29.1001 32.7 29.1001C32.9 29.1001 33 29.2001 33.2 29.3001C33.4 29.3001 33.6 29.3001 33.8 29.3001C34 29.4001 34.1 29.4001 34.3 29.5001C34.4 29.5001 34.7 29.7001 34.8 29.7001H35.4C35.5 29.7001 35.9 29.9001 35.9 29.9001C35.9 29.9001 35.3 29.8001 35.3 29.9001C35.3 29.9001 35.7 30.0001 35.8 30.1001C35.8 30.1001 35.2 30.0001 35.2 30.1001C35.2 30.1001 35.6 30.3001 35.7 30.3001C35.8 30.3001 36.2 30.5001 36.2 30.5001C36.2 30.5001 35.6 30.4001 35.6 30.5001L36.1 30.7001C36 30.7001 35.5 30.6001 35.5 30.7001C35.5 30.7001 34.9 30.6001 34.9 30.7001C34.9 30.7001 35.3 30.9001 35.4 30.9001L35.9 31.1001C35.8 31.1001 35.4 31.1001 35.3 31.1001C35.2 31.1001 34.9 31.1001 34.7 31.1001C34.6 31.1001 34.4 30.9001 34.2 30.9001C34.1 30.9001 33.7 30.9001 33.6 30.9001C33.4 30.9001 33.2 30.9001 33 30.9001Z" fill="white"/>
<path fill-rule="evenodd" clip-rule="evenodd" d="M31.9002 31.2002C32.1002 31.2002 32.3002 31.2002 32.5002 31.3002C32.6002 31.3002 32.8002 31.5002 33.0002 31.5002C33.1002 31.5002 33.5002 31.5002 33.6002 31.5002C33.8002 31.5002 34.0002 31.6002 34.1002 31.7002C34.2002 31.7002 34.5002 31.8002 34.6002 31.9002C34.6002 31.9002 34.1002 31.9002 34.0002 31.8002C33.9002 31.8002 33.4002 31.7002 33.4002 31.7002L33.9002 31.9002L34.4002 32.1002L33.8002 32.0002L34.3002 32.2002L33.7002 32.1002L34.2002 32.3002C34.1002 32.3002 33.7002 32.3002 33.6002 32.2002C33.5002 32.2002 33.0002 32.1002 33.0002 32.1002C33.0002 32.1002 33.4002 32.3002 33.5002 32.3002L34.0002 32.5002C34.1002 32.5002 34.4002 32.7002 34.5002 32.7002C34.5002 32.7002 34.0002 32.7002 33.9002 32.6002C33.8002 32.6002 33.4002 32.5002 33.3002 32.5002C33.2002 32.5002 33.8002 32.7002 33.8002 32.7002L33.2002 32.6002C33.2002 32.6002 33.6002 32.8002 33.7002 32.8002L34.3002 32.9002L34.8002 33.1002C34.8002 33.1002 34.3002 33.1002 34.2002 33.0002C34.1002 33.0002 33.7002 32.9002 33.6002 32.9002C33.5002 32.9002 34.1002 33.1002 34.1002 33.1002L33.5002 33.0002L34.0002 33.2002L33.4002 33.1002L33.9002 33.3002L33.3002 33.2002L33.8002 33.4002C33.8002 33.4002 33.3002 33.3002 33.2002 33.3002L32.7002 33.1002C32.6002 33.1002 32.3002 32.9002 32.2002 32.9002C32.1002 32.9002 31.6002 32.8002 31.6002 32.8002C31.5002 32.8002 31.1002 32.6002 31.1002 32.6002L31.7002 32.7002C31.7002 32.7002 31.3002 32.5002 31.2002 32.5002L31.8002 32.6002L31.3002 32.4002C31.4002 32.4002 31.9002 32.5002 31.9002 32.5002L31.4002 32.3002L32.0002 32.4002C32.0002 32.4002 31.6002 32.2002 31.5002 32.2002L31.0002 32.0002C30.9002 32.0002 30.5002 31.8002 30.5002 31.8002C30.5002 31.8002 31.0002 31.8002 31.1002 31.9002L31.7002 32.0002C31.8002 32.0002 32.3002 32.1002 32.3002 32.1002C32.3002 32.1002 31.9002 31.9002 31.8002 31.9002L31.3002 31.7002L30.8002 31.5002C30.7002 31.5002 30.3002 31.3002 30.3002 31.3002L30.9002 31.4002L30.4002 31.2002C30.5002 31.2002 30.9002 31.2002 31.0002 31.3002C31.2002 31.3002 31.4002 31.3002 31.6002 31.4002C31.7002 31.4002 32.2002 31.5002 32.2002 31.5002C32.2002 31.5002 31.8002 31.3002 31.7002 31.3002L31.2002 31.1002L30.7002 30.9002C30.6002 30.9002 30.2002 30.7002 30.2002 30.7002C30.2002 30.7002 30.7002 30.7002 30.8002 30.8002C30.9002 30.8002 31.3002 30.8002 31.4002 30.9002C31.7002 31.1002 31.8002 31.2002 31.9002 31.2002Z" fill="white"/>
<path fill-rule="evenodd" clip-rule="evenodd" d="M30.2999 33.3999L31.4999 33.4999L32.3999 33.8999L33.2999 34.2999C33.3999 34.3999 33.6999 34.3999 33.7999 34.4999L33.1999 34.3999L33.6999 34.5999L33.0999 34.4999L33.5999 34.6999L34.0999 34.8999C34.0999 34.8999 33.5999 34.8999 33.4999 34.7999C33.2999 34.7999 33.0999 34.7999 32.8999 34.6999L31.9999 34.2999C31.8999 34.1999 31.6999 34.1999 31.4999 34.0999C31.3999 34.0999 30.9999 34.0999 30.8999 33.9999C30.7999 33.9999 30.4999 33.7999 30.3999 33.7999C30.2999 33.7999 29.8999 33.5999 29.8999 33.5999C29.8999 33.5999 30.3999 33.5999 30.4999 33.6999C30.5999 33.6999 30.8999 33.6999 31.0999 33.7999C31.1999 33.7999 31.3999 33.9999 31.5999 33.9999C31.7999 33.9999 31.9999 33.9999 32.1999 34.0999L31.2999 33.6999L30.2999 33.3999Z" fill="white"/>
<path fill-rule="evenodd" clip-rule="evenodd" d="M28.7002 35.4999C28.8002 35.4999 29.3002 35.5999 29.3002 35.5999L28.8002 35.3999C28.9002 35.3999 29.3002 35.3999 29.4002 35.4999C29.6002 35.4999 29.8002 35.4999 30.0002 35.5999C30.1002 35.5999 30.4002 35.7999 30.5002 35.7999C30.7002 35.7999 30.9002 35.7999 31.1002 35.8999L31.6002 36.0999C31.7002 36.0999 32.1002 36.2999 32.1002 36.2999C32.1002 36.2999 31.6002 36.1999 31.5002 36.1999L30.9002 36.0999C30.8002 36.0999 30.5002 36.0999 30.3002 35.9999C30.2002 35.9999 30.0002 35.7999 29.8002 35.7999C29.7002 35.7999 29.3002 35.7999 29.2002 35.6999C29.0002 35.5999 28.9002 35.5999 28.7002 35.4999Z" fill="white"/>
<path fill-rule="evenodd" clip-rule="evenodd" d="M28.9998 35.7998C29.1998 35.7998 29.3998 35.7998 29.5998 35.8998C29.6998 35.8998 29.9998 36.0998 30.0998 36.0998C30.2998 36.0998 30.5998 36.0998 30.6998 36.1998C30.7998 36.1998 31.1998 36.1998 31.2998 36.2998C31.3998 36.2998 31.6998 36.4998 31.7998 36.4998C31.8998 36.5998 32.1998 36.5998 32.2998 36.6998C32.3998 36.6998 32.7998 36.8998 32.7998 36.8998L32.1998 36.7998L31.5998 36.6998L32.0998 36.8998C31.9998 36.8998 31.5998 36.8998 31.4998 36.7998L30.8998 36.6998C30.6998 36.5998 30.5998 36.5998 30.3998 36.4998C30.2998 36.4998 29.9998 36.2998 29.8998 36.2998C29.7998 36.2998 29.2998 36.1998 29.2998 36.1998C29.1998 36.1998 28.7998 35.9998 28.7998 35.9998L29.3998 36.0998L28.8998 35.8998L29.4998 35.9998C29.4998 35.9998 28.9998 35.8998 28.9998 35.7998Z" fill="white"/>
<path fill-rule="evenodd" clip-rule="evenodd" d="M28.7002 38.5L29.3002 38.6C29.4002 38.6 29.8002 38.6 29.9002 38.7C30.1002 38.7 30.2002 38.8 30.4002 38.9C30.6002 38.9 30.7002 39.1 30.9002 39.1C31.0002 39.1 31.5002 39.2 31.5002 39.2C31.7002 39.3 31.8002 39.3 32.0002 39.4C32.1002 39.4 32.4002 39.6 32.5002 39.6L31.9002 39.5L32.4002 39.7L31.8002 39.6L32.3002 39.8C32.2002 39.8 31.8002 39.7 31.7002 39.7L32.2002 39.9C32.2002 39.9 31.7002 39.8 31.6002 39.8C31.4002 39.8 31.2002 39.8 31.0002 39.7C30.8002 39.7 30.7002 39.5 30.5002 39.5C30.4002 39.5 29.9002 39.4 29.9002 39.4C29.8002 39.4 29.4002 39.2 29.4002 39.2L30.0002 39.3C30.0002 39.3 29.7002 39.2 29.5002 39.1C29.4002 39.1 29.0002 38.9 29.0002 38.9C29.0002 38.9 29.5002 39 29.6002 39C29.7002 39 30.2002 39.1 30.2002 39.1C30.2002 39.1 29.8002 38.9 29.7002 38.9L29.2002 38.7L28.7002 38.5Z" fill="white"/>
<path fill-rule="evenodd" clip-rule="evenodd" d="M24.1 54.3C24.2 54.4 24.5 54.5 24.5 54.5C24.5 54.5 24.8 54.7 24.9 54.7C25 54.8 25.3 54.9 25.3 54.9L24.7 54.8L25.1 55L24.5 54.9L24.9 55.1C25 55.1 25.4 55.3 25.3 55.3C25.3 55.3 24.8 55.2 24.7 55.2C24.6 55.2 24.1 55.1 24.1 55.1C24.1 55.1 24.6 55.3 24.5 55.3L23.9 55.2C23.9 55.2 24.2 55.4 24.3 55.4C24.4 55.4 24.7 55.6 24.7 55.6L24.1 55.5C24.1 55.5 24.6 55.7 24.5 55.7L23.9 55.6C23.9 55.6 24.4 55.8 24.3 55.8L23.7 55.7C23.7 55.7 24.2 55.9 24.1 55.9C24 55.9 23.7 55.8 23.5 55.8C23.4 55.8 22.9 55.7 22.9 55.7L23.3 55.9C23.4 55.9 23.8 56.1 23.7 56.1C23.7 56.1 23.2 56 23.1 56L21.9 55.8L21 55.4C21.1 55.4 21.6 55.5 21.6 55.5C21.6 55.5 21.1 55.3 21.2 55.3C21.3 55.3 21.6 55.4 21.8 55.4C21.9 55.4 22.4 55.5 22.4 55.5L22 55.3C21.9 55.2 21.6 55.1 21.6 55.1L22.2 55.2C22.2 55.2 21.7 55 21.8 55L22.4 55.1C22.4 55.1 21.9 54.9 22 54.9C22.1 54.9 22.5 55 22.6 55C22.6 55 22.1 54.8 22.2 54.8C22.2 54.8 22.7 54.9 22.8 54.9C22.9 54.9 23.4 55 23.4 55L23 54.8L22.6 54.6C22.5 54.6 22.1 54.4 22.2 54.4C22.2 54.4 22.7 54.5 22.8 54.5L23.4 54.6C23.5 54.6 24 54.7 24 54.7L23.6 54.5L23.2 54.3L22.8 54.1L23.4 54.2L23 54L23.6 54.1C23.8 54.1 23.9 54.2 24.1 54.3Z" fill="white"/>
<path fill-rule="evenodd" clip-rule="evenodd" d="M35.2002 27.4C35.2002 27.4 34.8002 27.3 34.7002 27.2C34.6002 27.2 34.2002 27 34.2002 27H34.8002C34.9002 27 35.2002 27.1 35.3002 27.2C35.4002 27.2 35.7002 27.3 35.8002 27.4C35.8002 27.5 35.2002 27.4 35.2002 27.4L35.7002 27.6H35.1002C35.0002 27.6 34.6002 27.4 34.6002 27.4C34.6002 27.4 35.2002 27.5 35.2002 27.4Z" fill="white"/>
<path fill-rule="evenodd" clip-rule="evenodd" d="M31.7002 34.5L32.6002 34.9L33.5002 35.3C33.6002 35.3 33.9002 35.5 34.0002 35.5C34.0002 35.5 33.5002 35.4 33.4002 35.4C33.3002 35.4 32.9002 35.3 32.8002 35.3C32.7002 35.3 33.3002 35.5 33.3002 35.5C33.3002 35.5 32.8002 35.4 32.7002 35.4L33.2002 35.6L32.6002 35.5L33.1002 35.7C33.1002 35.7 32.6002 35.6 32.5002 35.6C32.5002 35.6 32.9002 35.8 33.0002 35.8C32.9002 35.8 32.5002 35.8 32.4002 35.7C32.2002 35.7 32.1002 35.6 31.9002 35.5C31.7002 35.5 31.6002 35.4 31.4002 35.3C31.3002 35.3 30.9002 35.3 30.8002 35.2C30.6002 35.1 30.5002 35.1 30.3002 35C30.1002 35 29.9002 35 29.7002 34.9C29.6002 34.9 29.3002 34.7 29.2002 34.7C29.0002 34.6 28.9002 34.6 28.7002 34.5L29.9002 34.6L30.4002 34.8C30.5002 34.9 30.7002 34.9 30.9002 35C31.0002 35 31.2002 35.2 31.4002 35.2C31.6002 35.2 31.8002 35.2 32.0002 35.3L32.6002 35.4L31.7002 35C31.6002 34.9 31.4002 34.9 31.2002 34.8C31.1002 34.8 30.7002 34.8 30.6002 34.7C30.5002 34.7 30.2002 34.5 30.1002 34.5C30.0002 34.4 29.8002 34.4 29.6002 34.3L30.2002 34.4C30.2002 34.4 29.8002 34.2 29.7002 34.2L29.2002 34C29.2002 34 29.8002 34 29.8002 34.1C29.9002 34.1 30.1002 34.3 30.3002 34.3C30.5002 34.3 30.7002 34.3 30.9002 34.4L30.4002 34.2C30.4002 34.2 30.9002 34.3 31.0002 34.3C31.3002 34.5 31.6002 34.5 31.7002 34.5Z" fill="white"/>
<path fill-rule="evenodd" clip-rule="evenodd" d="M30.6002 36.9002C30.8002 36.9002 31.0002 36.9002 31.2002 37.0002C31.3002 37.0002 31.6002 37.2002 31.7002 37.2002C31.8002 37.2002 32.2002 37.4002 32.2002 37.4002L31.6002 37.3002C31.7002 37.4002 31.9002 37.4002 32.1002 37.5002L32.6002 37.7002L33.1002 37.9002L31.9002 37.8002L31.4002 37.6002L32.0002 37.7002C32.0002 37.7002 31.6002 37.5002 31.5002 37.5002C31.4002 37.5002 31.0002 37.4002 30.9002 37.4002L30.3002 37.3002L31.2002 37.7002C31.1002 37.7002 30.6002 37.6002 30.6002 37.6002L31.1002 37.8002L30.5002 37.7002C30.5002 37.7002 30.9002 37.9002 31.0002 37.9002C31.1002 37.9002 31.5002 37.9002 31.6002 38.0002C31.8002 38.0002 31.9002 38.1002 32.1002 38.2002C32.3002 38.3002 32.4002 38.3002 32.6002 38.4002C32.7002 38.4002 33.0002 38.6002 33.1002 38.6002C33.1002 38.6002 32.6002 38.5002 32.5002 38.5002C32.4002 38.5002 32.0002 38.4002 31.9002 38.4002C31.8002 38.4002 31.3002 38.3002 31.3002 38.3002C31.3002 38.3002 31.7002 38.5002 31.8002 38.5002L32.3002 38.7002L31.7002 38.6002L32.2002 38.8002C32.2002 38.8002 31.7002 38.7002 31.6002 38.7002C31.4002 38.7002 31.2002 38.7002 31.0002 38.6002C30.8002 38.6002 30.7002 38.4002 30.5002 38.4002L29.9002 38.3002L29.4002 38.1002C29.4002 38.1002 29.9002 38.2002 30.0002 38.2002C30.1002 38.2002 30.4002 38.2002 30.6002 38.3002C30.7002 38.3002 31.2002 38.4002 31.2002 38.4002C31.2002 38.4002 30.8002 38.2002 30.7002 38.2002L30.2002 38.0002L29.7002 37.8002L29.2002 37.6002C29.1002 37.6002 28.8002 37.4002 28.7002 37.4002C28.7002 37.4002 29.2002 37.5002 29.3002 37.5002C29.4002 37.5002 29.9002 37.6002 29.9002 37.6002C29.9002 37.6002 29.5002 37.4002 29.4002 37.4002C29.3002 37.4002 29.0002 37.2002 28.9002 37.2002L29.5002 37.3002L29.0002 37.1002C29.0002 37.1002 29.5002 37.2002 29.6002 37.2002C29.7002 37.2002 30.2002 37.3002 30.2002 37.3002C30.2002 37.3002 29.8002 37.1002 29.7002 37.1002L29.2002 36.9002C29.1002 36.9002 28.7002 36.7002 28.7002 36.7002C28.7002 36.7002 29.2002 36.8002 29.3002 36.8002C29.4002 36.8002 29.9002 36.9002 29.9002 36.9002L29.4002 36.7002L30.0002 36.8002C30.3002 36.7002 30.4002 36.8002 30.6002 36.9002Z" fill="white"/>
<path fill-rule="evenodd" clip-rule="evenodd" d="M31.2001 39.9998L31.7001 40.1998C31.7001 40.1998 31.2001 40.0998 31.1001 40.0998C31.0001 40.0998 30.7001 40.0998 30.5001 39.9998C30.4001 39.9998 30.1001 39.7998 30.0001 39.7998C29.8001 39.7998 29.6001 39.7998 29.4001 39.6998L29.9001 39.8998C30.0001 39.8998 30.2001 39.9998 30.4001 40.0998C30.5001 40.0998 30.9001 40.0998 31.0001 40.1998C31.1001 40.1998 31.4001 40.3998 31.5001 40.3998C31.6001 40.3998 32.0001 40.5998 32.0001 40.5998L31.4001 40.4998C31.4001 40.4998 31.7001 40.5998 31.9001 40.6998C32.0001 40.6998 32.4001 40.8998 32.4001 40.8998L31.8001 40.7998C31.7001 40.7998 31.5001 40.5998 31.3001 40.5998C31.2001 40.5998 30.7001 40.4998 30.7001 40.4998C30.6001 40.4998 30.1001 40.3998 30.1001 40.3998L30.6001 40.5998L30.0001 40.4998L30.5001 40.6998L31.0001 40.8998C31.0001 40.8998 30.5001 40.7998 30.4001 40.7998C30.3001 40.7998 29.8001 40.6998 29.8001 40.6998C29.8001 40.6998 30.2001 40.8998 30.3001 40.8998L30.8001 41.0998C30.9001 41.0998 31.2001 41.2998 31.3001 41.2998L30.7001 41.1998L31.2001 41.3998L30.6001 41.2998C30.6001 41.2998 30.9001 41.4998 31.1001 41.4998C31.2001 41.4998 31.6001 41.6998 31.6001 41.6998C31.6001 41.6998 31.1001 41.5998 31.0001 41.5998C30.9001 41.5998 30.4001 41.4998 30.4001 41.4998L30.9001 41.6998C30.8001 41.6998 30.3001 41.5998 30.3001 41.5998L30.8001 41.7998C30.7001 41.7998 30.2001 41.6998 30.2001 41.6998C30.2001 41.6998 30.6001 41.8998 30.7001 41.8998C30.8001 41.8998 31.2001 42.0998 31.2001 42.0998L30.6001 41.9998L31.1001 42.1998L30.5001 42.0998L31.0001 42.2998L30.4001 42.1998C30.4001 42.1998 30.7001 42.3998 30.9001 42.3998C31.0001 42.3998 31.4001 42.5998 31.4001 42.5998L30.8001 42.4998L31.3001 42.6998C31.2001 42.6998 30.7001 42.5998 30.7001 42.5998L31.2001 42.7998L30.6001 42.6998L31.1001 42.8998L30.5001 42.7998L31.0001 42.9998C30.9001 42.9998 30.5001 42.8998 30.4001 42.8998L30.9001 43.0998C30.9001 43.0998 30.4001 42.9998 30.3001 42.9998C30.1001 42.9998 29.9001 42.8998 29.7001 42.8998L28.8001 42.4998L29.4001 42.5998C29.5001 42.5998 30.0001 42.6998 30.0001 42.6998C30.0001 42.6998 29.6001 42.4998 29.5001 42.4998C29.4001 42.4998 29.0001 42.2998 29.0001 42.2998L29.6001 42.3998L29.1001 42.1998C29.2001 42.1998 29.5001 42.2998 29.7001 42.2998C29.8001 42.2998 30.3001 42.3998 30.3001 42.3998C30.3001 42.3998 29.9001 42.1998 29.8001 42.1998C29.7001 42.1998 29.3001 41.9998 29.3001 41.9998L29.9001 42.0998C29.8001 42.0998 29.6001 41.9998 29.4001 41.8998C29.3001 41.8998 29.0001 41.6998 28.9001 41.6998L29.5001 41.7998L29.0001 41.5998L29.6001 41.6998C29.6001 41.6998 29.3001 41.4998 29.1001 41.4998C29.0001 41.4998 28.6001 41.2998 28.6001 41.2998C28.6001 41.2998 29.1001 41.3998 29.2001 41.3998C29.3001 41.3998 29.8001 41.4998 29.8001 41.4998C29.8001 41.4998 29.4001 41.2998 29.3001 41.2998L28.8001 41.0998C28.8001 41.0998 29.3001 41.1998 29.4001 41.1998L30.0001 41.2998C30.1001 41.2998 30.6001 41.3998 30.6001 41.3998C30.6001 41.3998 30.2001 41.1998 30.1001 41.1998L29.6001 40.9998L29.1001 40.7998L28.6001 40.5998C28.5001 40.5998 28.1001 40.3998 28.1001 40.3998C28.1001 40.3998 28.6001 40.4998 28.7001 40.4998C28.8001 40.4998 29.3001 40.5998 29.3001 40.5998C29.4001 40.5998 29.9001 40.6998 29.9001 40.6998C29.9001 40.6998 29.5001 40.4998 29.4001 40.4998C29.3001 40.4998 29.0001 40.2998 28.9001 40.2998L29.5001 40.3998L29.0001 40.1998L29.6001 40.2998L29.1001 40.0998L29.7001 40.1998L29.2001 39.9998L29.8001 40.0998C29.8001 40.0998 29.4001 39.8998 29.3001 39.8998L28.8001 39.6998C28.7001 39.6998 28.4001 39.4998 28.3001 39.4998L28.9001 39.5998L28.4001 39.3998L29.0001 39.4998L28.5001 39.2998C28.5001 39.2998 29.0001 39.3998 29.1001 39.3998C29.2001 39.3998 29.5001 39.5998 29.6001 39.5998C29.8001 39.5998 30.0001 39.5998 30.2001 39.6998C30.4001 39.6998 30.5001 39.8998 30.7001 39.8998C30.7001 39.8998 31.0001 39.8998 31.2001 39.9998Z" fill="white"/>
<path fill-rule="evenodd" clip-rule="evenodd" d="M28.1999 43.8001L29.0999 44.2001C29.1999 44.2001 29.4999 44.4001 29.5999 44.4001C29.5999 44.4001 29.0999 44.3001 28.9999 44.3001C28.8999 44.3001 28.4999 44.2001 28.3999 44.2001C28.2999 44.2001 28.8999 44.4001 28.7999 44.4001L28.1999 44.3001C28.1999 44.3001 28.5999 44.5001 28.6999 44.5001C28.7999 44.5001 29.0999 44.7001 29.0999 44.7001L28.4999 44.6001L28.8999 44.8001L28.2999 44.7001L28.6999 44.9001C28.7999 44.9001 29.1999 45.1001 29.1999 45.1001L28.5999 45.0001C28.5999 45.0001 29.0999 45.2001 28.9999 45.2001L28.3999 45.1001C28.3999 45.1001 28.8999 45.3001 28.7999 45.3001C28.7999 45.3001 28.2999 45.2001 28.1999 45.2001C28.0999 45.2001 27.5999 45.1001 27.5999 45.1001C27.5999 45.1001 27.9999 45.3001 28.0999 45.3001L28.4999 45.5001L27.2999 45.3001L26.3999 44.9001C26.4999 44.9001 26.9999 45.0001 26.9999 45.0001C26.9999 45.0001 26.4999 44.8001 26.5999 44.8001C26.6999 44.8001 27.1999 44.9001 27.1999 44.9001L27.7999 45.0001L27.3999 44.8001C27.3999 44.8001 26.8999 44.6001 26.9999 44.6001C26.9999 44.6001 27.4999 44.7001 27.5999 44.7001C27.6999 44.7001 27.8999 44.9001 27.9999 44.9001L28.5999 45.0001C28.5999 45.0001 28.1999 44.8001 28.0999 44.8001L27.5999 44.6001L27.1999 44.4001C27.0999 44.4001 26.7999 44.2001 26.7999 44.2001L27.3999 44.3001C27.3999 44.3001 26.8999 44.1001 26.9999 44.1001C27.0999 44.1001 27.3999 44.2001 27.5999 44.2001C27.6999 44.2001 28.1999 44.3001 28.1999 44.3001L27.7999 44.1001C27.6999 44.1001 27.2999 43.9001 27.2999 43.9001L27.8999 44.0001L27.3999 43.8001L27.9999 43.9001C27.9999 43.9001 27.5999 43.7001 27.4999 43.7001L28.1999 43.8001L27.6999 43.6001L28.2999 43.7001L28.7999 43.9001C28.7999 43.9001 28.2999 43.8001 28.1999 43.8001Z" fill="white"/>
<path fill-rule="evenodd" clip-rule="evenodd" d="M27.9998 45.8001L28.8998 46.2001C28.7998 46.2001 28.2998 46.1001 28.2998 46.1001C28.2998 46.1001 28.7998 46.3001 28.6998 46.3001L28.0998 46.2001L28.4998 46.4001L27.8998 46.3001L28.2998 46.5001C28.3998 46.5001 28.7998 46.7001 28.6998 46.7001L28.0998 46.6001C28.0998 46.6001 28.5998 46.8001 28.4998 46.8001C28.3998 46.8001 28.0998 46.7001 27.8998 46.7001C27.7998 46.7001 27.2998 46.6001 27.2998 46.6001L27.6998 46.8001C27.7998 46.9001 28.0998 47.0001 28.0998 47.0001L27.4998 46.9001C27.4998 46.9001 27.9998 47.1001 27.8998 47.1001L27.2998 47.0001C27.2998 47.0001 27.7998 47.2001 27.6998 47.2001C27.5998 47.2001 27.1998 47.1001 27.0998 47.1001C26.9998 47.1001 26.4998 47.0001 26.4998 47.0001C26.4998 47.0001 26.9998 47.2001 26.8998 47.2001C26.7998 47.2001 26.3998 47.1001 26.2998 47.1001L26.6998 47.3001C26.7998 47.3001 27.1998 47.5001 27.0998 47.5001L26.4998 47.4001C26.3998 47.4001 26.0998 47.2001 26.0998 47.2001C25.9998 47.2001 25.5998 47.0001 25.6998 47.0001C25.6998 47.0001 26.1998 47.1001 26.2998 47.1001L25.8998 46.9001C25.7998 46.9001 25.3998 46.7001 25.4998 46.7001C25.4998 46.7001 25.9998 46.8001 26.0998 46.8001C26.1998 46.8001 26.6998 46.9001 26.6998 46.9001L26.2998 46.7001C26.1998 46.6001 25.8998 46.5001 25.8998 46.5001L26.4998 46.6001C26.4998 46.6001 25.9998 46.4001 26.0998 46.4001L26.6998 46.5001C26.6998 46.5001 26.1998 46.3001 26.2998 46.3001C26.3998 46.3001 26.7998 46.4001 26.8998 46.4001C26.8998 46.4001 26.3998 46.2001 26.4998 46.2001C26.4998 46.2001 26.9998 46.3001 27.0998 46.3001C27.1998 46.3001 27.6998 46.4001 27.6998 46.4001L27.2998 46.2001L26.8998 46.0001L26.4998 45.8001C26.3998 45.8001 26.0998 45.6001 26.0998 45.6001C26.0998 45.6001 26.5998 45.7001 26.6998 45.7001C26.7998 45.7001 27.2998 45.8001 27.2998 45.8001L26.8998 45.6001L27.9998 45.8001Z" fill="white"/>
<path fill-rule="evenodd" clip-rule="evenodd" d="M27.4001 48.0002C27.4001 48.0002 27.9001 48.2002 27.8001 48.2002L27.2001 48.1002C27.2001 48.1002 27.7001 48.3002 27.6001 48.3002L27.0001 48.2002C27.0001 48.2002 27.5001 48.4002 27.4001 48.4002L26.8001 48.3002C26.8001 48.3002 27.1001 48.5002 27.2001 48.5002C27.3001 48.5002 27.7001 48.7002 27.6001 48.7002C27.6001 48.7002 27.1001 48.6002 27.0001 48.6002C26.9001 48.6002 26.4001 48.5002 26.4001 48.5002C26.4001 48.5002 26.9001 48.7002 26.8001 48.7002C26.8001 48.7002 26.3001 48.6002 26.2001 48.6002C26.0001 48.5002 25.9001 48.4002 25.8001 48.4002L26.4001 48.5002L26.0001 48.3002C25.9001 48.3002 25.6001 48.1002 25.6001 48.1002L26.2001 48.2002C26.2001 48.2002 25.7001 48.0002 25.8001 48.0002L26.4001 48.1002C26.4001 48.1002 25.9001 47.9002 26.0001 47.9002L26.6001 48.0002C26.6001 48.0002 26.1001 47.8002 26.2001 47.8002C26.3001 47.8002 26.7001 47.9002 26.8001 47.9002C26.8001 47.9002 26.3001 47.7002 26.4001 47.7002L27.0001 47.8002C27.2001 47.8002 27.3001 48.0002 27.4001 48.0002Z" fill="white"/>
<path fill-rule="evenodd" clip-rule="evenodd" d="M27.4 49.1998C27.3 49.1998 26.8 49.0998 26.8 49.0998L27.2 49.2998C27.2 49.2998 27.7 49.4998 27.6 49.4998L27 49.3998C27.1 49.3998 27.3 49.5998 27.4 49.5998C27.5 49.5998 27.9 49.7998 27.8 49.7998C27.8 49.7998 27.3 49.6998 27.2 49.6998C27.1 49.6998 26.7 49.5998 26.6 49.5998C26.6 49.5998 27.1 49.7998 27 49.7998L26.4 49.6998L25.8 49.5998L26.2 49.7998C26.3 49.7998 26.6 49.9998 26.6 49.9998L26 49.8998C26 49.8998 26.5 50.0998 26.4 50.0998L25.8 49.9998C25.8 49.9998 26.3 50.1998 26.2 50.1998L25.6 50.0998L26 50.2998C26 50.2998 26.5 50.4998 26.4 50.4998L25.8 50.3998C25.8 50.3998 26.3 50.5998 26.2 50.5998L25.6 50.4998C25.6 50.4998 26.1 50.6998 26 50.6998C25.9 50.6998 25.5 50.5998 25.4 50.5998C25.4 50.5998 25.9 50.7998 25.8 50.7998C25.8 50.7998 25.3 50.6998 25.2 50.6998C25.1 50.6998 24.6 50.5998 24.6 50.5998L25 50.7998C25.1 50.7998 25.5 50.9998 25.4 50.9998L24.8 50.8998C24.9 50.9998 25.1 51.0998 25.2 51.0998L25.6 51.2998C25.7 51.2998 26 51.4998 26 51.4998L25.4 51.3998C25.4 51.3998 25.9 51.5998 25.8 51.5998L25.2 51.4998C25.2 51.4998 25.7 51.6998 25.6 51.6998L25 51.5998C25 51.5998 25.5 51.7998 25.4 51.7998L24.8 51.6998C24.8 51.6998 25.3 51.8998 25.2 51.8998C25.2 51.8998 25.7 52.0998 25.6 52.0998C25.6 52.0998 25.1 51.9998 25 51.9998C24.9 51.9998 24.4 51.8998 24.4 51.8998C24.4 51.8998 24.9 52.0998 24.8 52.0998C24.8 52.0998 25.3 52.2998 25.2 52.2998C25.2 52.2998 24.7 52.1998 24.6 52.1998C24.5 52.1998 24 52.0998 24 52.0998L24.4 52.2998C24.5 52.2998 24.9 52.4998 24.8 52.4998L24.2 52.3998C24.2 52.3998 24.7 52.5998 24.6 52.5998L24 52.4998L24.4 52.6998C24.5 52.6998 24.9 52.8998 24.8 52.8998L24.2 52.7998C24.2 52.7998 24.7 52.9998 24.6 52.9998L24 52.8998C24 52.8998 24.5 53.0998 24.4 53.0998L23.8 52.9998C23.8 52.9998 24.3 53.1998 24.2 53.1998L23.6 53.0998L24 53.2998C24 53.2998 24.5 53.4998 24.4 53.4998L23.8 53.3998L24.2 53.5998C24.2 53.5998 24.7 53.7998 24.6 53.7998C24.6 53.7998 24.1 53.6998 24 53.6998L22.8 53.4998L21.9 53.0998C21.9 53.0998 21.4 52.8998 21.5 52.8998L22.1 52.9998C22.1 52.9998 21.6 52.7998 21.7 52.7998C21.8 52.7998 22.1 52.8998 22.3 52.8998C22.4 52.8998 22.9 52.9998 22.9 52.9998L22.5 52.7998C22.4 52.7998 22 52.5998 22.1 52.5998L22.7 52.6998C22.6 52.6998 22.4 52.4998 22.3 52.4998C22.2 52.4998 21.8 52.2998 21.9 52.2998L22.5 52.3998C22.5 52.3998 22 52.1998 22.1 52.1998C22.2 52.1998 22.6 52.2998 22.7 52.2998C22.8 52.2998 23.3 52.3998 23.3 52.3998C23.3 52.3998 22.8 52.1998 22.9 52.1998L23.5 52.2998L23.1 52.0998L22.7 51.8998C22.6 51.8998 22.2 51.6998 22.3 51.6998C22.3 51.6998 22.8 51.7998 22.9 51.7998C23 51.7998 23.5 51.8998 23.5 51.8998C23.5 51.8998 23 51.6998 23.1 51.6998C23.2 51.6998 23.5 51.7998 23.7 51.7998C23.8 51.7998 24.3 51.8998 24.3 51.8998L23.9 51.6998L23.5 51.4998C23.4 51.4998 23 51.2998 23.1 51.2998C23.1 51.2998 23.6 51.3998 23.7 51.3998L24.3 51.4998C24.4 51.4998 24.9 51.5998 24.9 51.5998L24.5 51.3998C24.4 51.3998 24 51.2998 23.9 51.2998C23.7 51.1998 23.6 51.0998 23.5 51.0998C23.4 50.9998 23.1 50.8998 23.1 50.8998C23.1 50.8998 23.6 50.9998 23.7 50.9998C23.8 50.9998 24.3 51.0998 24.3 51.0998L23.9 50.8998L23.5 50.6998L23.1 50.4998C23 50.4998 22.7 50.2998 22.7 50.2998C22.7 50.2998 23.2 50.3998 23.3 50.3998C23.4 50.3998 23.8 50.4998 23.9 50.4998C24 50.4998 23.4 50.2998 23.5 50.2998C23.5 50.2998 24 50.3998 24.1 50.3998C24.2 50.3998 23.6 50.1998 23.7 50.1998C23.7 50.1998 24.2 50.2998 24.3 50.2998C24.4 50.2998 24.7 50.3998 24.9 50.3998C25 50.3998 25.5 50.4998 25.5 50.4998L25.1 50.2998L24.7 50.0998C24.6 49.9998 24.3 49.8998 24.3 49.8998L24.9 49.9998L24.5 49.7998C24.4 49.7998 24.1 49.5998 24.1 49.5998C24.1 49.5998 24.6 49.6998 24.7 49.6998C24.8 49.6998 25.3 49.7998 25.3 49.7998L24.9 49.5998C24.8 49.5998 24.4 49.3998 24.5 49.3998L25.1 49.4998L25.7 49.5998L25.3 49.3998C25.2 49.3998 24.9 49.1998 24.9 49.1998L25.5 49.2998C25.5 49.2998 25 49.0998 25.1 49.0998C25.2 49.0998 25.6 49.1998 25.7 49.1998C25.7 49.1998 25.2 48.9998 25.3 48.9998L25.9 49.0998C25.9 49.0998 25.4 48.8998 25.5 48.8998L26.1 48.9998C26.1 48.9998 25.6 48.7998 25.7 48.7998C25.7 48.7998 26.2 48.8998 26.3 48.8998C26.5 48.8998 26.7 48.8998 26.9 48.9998C27.2 48.9998 27.3 49.0998 27.4 49.1998Z" fill="white"/>
<path fill-rule="evenodd" clip-rule="evenodd" d="M64.0996 41.7998L64.3996 42.1998C64.3996 42.1998 63.9996 41.8998 63.8996 41.7998C63.7996 41.7998 63.3996 41.3998 63.3996 41.3998C63.3996 41.3998 63.6996 41.6998 63.6996 41.7998C63.6996 41.7998 63.8996 42.0998 63.9996 42.1998C64.0996 42.2998 64.3996 42.4998 64.4996 42.5998C64.4996 42.5998 64.8996 42.8998 64.9996 42.9998L65.2996 43.3998L64.7996 42.9998C64.7996 43.0998 64.9996 43.2998 65.0996 43.3998C65.1996 43.4998 65.3996 43.7998 65.3996 43.7998C65.3996 43.7998 64.9996 43.4998 64.8996 43.3998L64.3996 42.9998C64.2996 42.9998 63.9996 42.6998 63.8996 42.5998C63.7996 42.4998 63.6996 42.2998 63.5996 42.1998L63.2996 41.7998L62.9996 41.3998C62.8996 41.2998 62.7996 41.0998 62.6996 40.9998C62.5996 40.8998 62.4996 40.6998 62.3996 40.5998C62.2996 40.5998 61.8996 40.2998 61.8996 40.1998C61.7996 40.0998 61.6996 39.8998 61.5996 39.7998C61.6996 39.7998 62.0996 40.1998 62.0996 40.1998L61.7996 39.7998C61.8996 39.8998 62.1996 39.9998 62.2996 40.1998C62.3996 40.2998 62.4996 40.5998 62.5996 40.5998C62.6996 40.5998 63.0996 40.9998 63.0996 40.9998L62.7996 40.5998C62.8996 40.5998 63.1996 40.8998 63.2996 40.9998C63.3996 41.0998 63.4996 41.2998 63.5996 41.3998C63.7996 41.5998 63.9996 41.6998 64.0996 41.7998Z" fill="white"/>
<path fill-rule="evenodd" clip-rule="evenodd" d="M61.9999 42.6999L61.6999 42.2999L61.0999 41.4999L60.7999 41.0999C60.7999 41.0999 61.2999 41.3999 61.2999 41.4999C61.3999 41.5999 61.4999 41.7999 61.5999 41.8999L62.0999 42.2999C61.9999 42.1999 61.8999 41.9999 61.7999 41.8999C61.7999 41.8999 61.5999 41.5999 61.4999 41.4999C61.3999 41.3999 61.0999 41.1999 60.9999 41.0999C60.8999 40.9999 60.7999 40.7999 60.6999 40.6999C60.5999 40.5999 60.3999 40.2999 60.3999 40.2999C60.3999 40.2999 60.7999 40.5999 60.8999 40.6999L61.3999 41.0999C61.4999 41.1999 61.8999 41.4999 61.8999 41.4999C61.8999 41.4999 61.5999 41.1999 61.5999 41.0999L61.2999 40.6999L60.9999 40.2999L60.6999 39.8999C60.6999 39.8999 61.0999 40.1999 61.1999 40.2999L62.1999 40.9999L62.4999 41.3999C62.5999 41.4999 62.6999 41.6999 62.7999 41.7999C62.7999 41.8999 63.0999 42.1999 63.0999 42.1999C63.0999 42.1999 62.5999 41.8999 62.5999 41.7999C62.5999 41.8999 62.7999 42.0999 62.8999 42.1999C62.9999 42.2999 63.2999 42.4999 63.3999 42.5999C63.4999 42.6999 63.5999 42.8999 63.6999 42.9999C63.7999 43.0999 64.0999 43.2999 64.1999 43.3999C64.2999 43.4999 64.3999 43.6999 64.4999 43.7999C64.5999 43.8999 64.7999 44.1999 64.7999 44.1999C64.7999 44.1999 64.3999 43.8999 64.2999 43.7999C64.1999 43.7999 63.7999 43.3999 63.7999 43.3999L64.0999 43.7999C63.9999 43.6999 63.6999 43.4999 63.5999 43.3999L63.0999 42.9999C63.1999 43.0999 63.2999 43.2999 63.3999 43.3999C63.4999 43.4999 63.7999 43.6999 63.8999 43.7999C63.9999 43.7999 64.2999 44.0999 64.3999 44.1999C64.4999 44.2999 64.5999 44.4999 64.6999 44.5999L64.9999 44.9999L64.4999 44.5999C64.3999 44.4999 64.1999 44.3999 63.9999 44.1999C63.8999 44.0999 63.5999 43.8999 63.4999 43.7999L63.1999 43.3999C63.0999 43.3999 62.6999 42.9999 62.6999 42.9999L62.9999 43.3999C62.8999 43.3999 62.5999 43.0999 62.4999 42.9999L61.9999 42.6999Z" fill="white"/>
<path fill-rule="evenodd" clip-rule="evenodd" d="M60.3996 42.9999L60.6996 43.3999C60.6996 43.3999 60.8996 43.6999 60.9996 43.7999C61.0996 43.8999 61.3996 44.0999 61.4996 44.1999C61.5996 44.2999 61.6996 44.4999 61.7996 44.5999L62.0996 44.9999C62.0996 45.0999 62.3996 45.3999 62.3996 45.3999C62.3996 45.3999 61.9996 45.0999 61.8996 44.9999C61.7996 44.8999 61.6996 44.6999 61.5996 44.5999C61.3996 44.4999 61.2996 44.3999 61.0996 44.1999C60.9996 44.0999 60.8996 43.8999 60.7996 43.7999C60.6996 43.6999 60.3996 43.4999 60.2996 43.3999C60.1996 43.2999 60.0996 43.0999 59.9996 42.9999L59.6996 42.5999L59.3996 42.1999C59.2996 42.0999 59.0996 41.8999 59.0996 41.7999L59.5996 42.1999L59.2996 41.7999C59.2996 41.7999 59.6996 42.1999 59.7996 42.1999C59.7996 42.1999 59.5996 41.8999 59.4996 41.7999L59.1996 41.3999C59.2996 41.3999 59.5996 41.6999 59.6996 41.7999C59.7996 41.8999 59.9996 41.9999 60.1996 42.1999C60.2996 42.2999 60.3996 42.4999 60.4996 42.5999C60.5996 42.6999 60.8996 42.8999 60.9996 42.9999C61.1996 43.0999 61.2996 43.1999 61.4996 43.3999C61.3996 43.2999 61.2996 43.0999 61.1996 42.9999C61.0996 42.8999 60.7996 42.6999 60.6996 42.5999C60.5996 42.4999 60.4996 42.2999 60.3996 42.1999C60.2996 42.0999 60.1996 41.8999 60.0996 41.7999C59.9996 41.6999 59.7996 41.4999 59.7996 41.3999L60.2996 41.7999L59.9996 41.3999C60.0996 41.3999 60.3996 41.6999 60.4996 41.7999C60.5996 41.7999 60.8996 42.1999 60.9996 42.1999L60.6996 41.7999C60.7996 41.8999 61.0996 42.0999 61.1996 42.1999C61.2996 42.2999 61.3996 42.4999 61.4996 42.5999C61.5996 42.6999 61.7996 42.7999 61.9996 42.9999C62.0996 43.0999 62.1996 43.2999 62.2996 43.3999C62.2996 43.4999 62.4996 43.6999 62.5996 43.7999L63.0996 44.1999C63.0996 44.2999 63.3996 44.5999 63.3996 44.5999L62.8996 44.1999L63.1996 44.5999L62.6996 44.1999C62.6996 44.1999 62.8996 44.4999 62.9996 44.5999C62.9996 44.6999 63.2996 44.9999 63.2996 44.9999C63.2996 44.9999 62.8996 44.5999 62.7996 44.5999L63.0996 44.9999C62.9996 44.9999 62.6996 44.5999 62.5996 44.5999C62.5996 44.5999 62.1996 44.1999 62.0996 44.1999C62.0996 44.1999 62.2996 44.4999 62.3996 44.5999L62.6996 44.9999C62.5996 44.9999 62.2996 44.6999 62.1996 44.5999C62.0996 44.4999 61.8996 44.3999 61.6996 44.1999C61.5996 44.0999 61.4996 43.8999 61.3996 43.7999C61.2996 43.6999 60.9996 43.4999 60.8996 43.3999C60.7996 43.2999 60.5996 43.0999 60.3996 42.9999Z" fill="white"/>
<path fill-rule="evenodd" clip-rule="evenodd" d="M59.3996 42.7996C59.4996 42.8996 59.6996 42.9996 59.8996 43.1996C59.9996 43.2996 60.0996 43.4996 60.1996 43.5996C60.2996 43.6996 60.5996 43.8996 60.6996 43.9996C60.7996 44.0996 60.8996 44.2996 60.9996 44.3996C61.0996 44.4996 61.2996 44.6996 61.2996 44.7996C61.2996 44.7996 60.8996 44.4996 60.7996 44.3996C60.6996 44.3996 60.2996 43.9996 60.2996 43.9996L60.5996 44.3996L60.8996 44.7996L60.3996 44.3996L60.6996 44.7996C60.6996 44.7996 60.2996 44.3996 60.1996 44.3996L60.4996 44.7996C60.3996 44.7996 60.0996 44.4996 59.9996 44.3996C59.8996 44.3996 59.4996 43.9996 59.4996 43.9996C59.4996 43.9996 59.6996 44.2996 59.7996 44.3996L60.0996 44.7996C60.1996 44.8996 60.3996 45.1996 60.3996 45.1996C60.3996 45.1996 59.9996 44.8996 59.8996 44.7996C59.7996 44.6996 59.4996 44.4996 59.3996 44.3996L59.6996 44.7996C59.6996 44.7996 59.2996 44.3996 59.1996 44.3996L59.4996 44.7996L59.9996 45.1996L60.2996 45.5996C60.2996 45.5996 59.8996 45.2996 59.7996 45.1996C59.6996 45.0996 59.3996 44.8996 59.2996 44.7996L59.5996 45.1996C59.5996 45.1996 59.1996 44.7996 59.0996 44.7996L59.3996 45.1996L58.8996 44.7996L59.1996 45.1996C59.1996 45.1996 58.7996 44.7996 58.6996 44.7996L58.9996 45.1996C58.9996 45.1996 58.5996 44.8996 58.4996 44.7996L58.1996 44.3996C58.1996 44.3996 57.9996 43.9996 57.8996 43.9996C57.8996 43.9996 57.4996 43.5996 57.3996 43.5996C57.3996 43.4996 57.0996 43.1996 57.0996 43.1996L57.5996 43.5996L57.2996 43.1996C57.2996 43.1996 57.6996 43.5996 57.7996 43.5996L57.4996 43.1996C57.5996 43.1996 57.8996 43.5996 57.9996 43.5996L57.6996 43.1996L58.1996 43.5996C58.1996 43.5996 57.9996 43.2996 57.8996 43.1996L57.5996 42.7996L57.2996 42.3996C57.2996 42.3996 57.6996 42.6996 57.7996 42.7996L58.2996 43.1996C58.3996 43.1996 58.7996 43.5996 58.7996 43.5996C58.7996 43.5996 58.5996 43.2996 58.4996 43.1996L58.1996 42.7996L57.8996 42.3996C57.8996 42.2996 57.5996 41.9996 57.5996 41.9996C57.5996 41.9996 57.9996 42.3996 58.0996 42.3996L57.7996 41.9996C57.8996 41.9996 58.1996 42.2996 58.2996 42.3996C58.3996 42.4996 58.5996 42.6996 58.7996 42.7996C58.8996 42.7996 59.2996 43.1996 59.2996 43.1996C59.2996 43.1996 59.0996 42.8996 58.9996 42.7996L58.6996 42.3996L58.3996 41.9996C58.3996 41.8996 58.0996 41.5996 58.0996 41.5996C58.0996 41.5996 58.4996 41.8996 58.5996 41.9996C58.6996 41.9996 58.9996 42.2996 59.0996 42.3996C59.2996 42.4996 59.2996 42.5996 59.3996 42.7996Z" fill="white"/>
<path fill-rule="evenodd" clip-rule="evenodd" d="M56.8998 43.6997L57.7998 44.4997L58.3998 45.2997L58.9998 46.0997C59.0998 46.1997 59.1998 46.3997 59.2998 46.4997C59.2998 46.4997 58.8998 46.0997 58.7998 46.0997L59.0998 46.4997C59.0998 46.4997 58.6998 46.0997 58.5998 46.0997L58.8998 46.4997L59.1998 46.8997C59.1998 46.8997 58.7998 46.5997 58.6998 46.4997C58.5998 46.3997 58.3998 46.1997 58.1998 46.0997L57.6998 45.2997C57.5998 45.1997 57.4998 44.9997 57.3998 44.8997C57.3998 44.8997 56.9998 44.5997 56.8998 44.4997C56.7998 44.3997 56.6998 44.1997 56.5998 44.0997L56.2998 43.6997C56.2998 43.6997 56.6998 43.9997 56.7998 44.0997C56.8998 44.1997 57.0998 44.3997 57.2998 44.4997C57.3998 44.5997 57.4998 44.7997 57.5998 44.8997C57.6998 44.9997 57.8998 45.0997 58.0998 45.2997L57.4998 44.4997L56.8998 43.6997Z" fill="white"/>
<path fill-rule="evenodd" clip-rule="evenodd" d="M54.2998 44.5C54.3998 44.5 54.6998 44.9 54.7998 44.9L54.4998 44.5C54.5998 44.5 54.7998 44.8 54.9998 44.9C55.0998 45 55.2998 45.2 55.4998 45.3C55.5998 45.4 55.6998 45.6 55.7998 45.7C55.8998 45.8 56.0998 46 56.2998 46.1L56.5998 46.5L56.8998 46.9C56.8998 46.9 56.4998 46.6 56.3998 46.5L55.8998 46.1C55.7998 46 55.5998 45.8 55.3998 45.7C55.2998 45.6 55.1998 45.4 55.0998 45.3C54.9998 45.2 54.6998 45 54.5998 44.9C54.4998 44.7 54.4998 44.6 54.2998 44.5Z" fill="white"/>
<path fill-rule="evenodd" clip-rule="evenodd" d="M54.4 44.8999C54.5 44.9999 54.7 45.1999 54.9 45.2999C55 45.3999 55.1 45.5999 55.2 45.6999C55.3 45.7999 55.5 45.9999 55.7 46.0999C55.7 46.0999 56.1 46.3999 56.2 46.4999C56.3 46.5999 56.4 46.7999 56.5 46.8999C56.6 46.9999 56.7 47.1999 56.8 47.2999C56.8 47.3999 57.1 47.6999 57.1 47.6999C57.1 47.6999 56.7 47.2999 56.6 47.2999C56.6 47.2999 56.2 46.8999 56.1 46.8999L56.4 47.2999C56.3 47.2999 56.1 46.9999 55.9 46.8999L55.4 46.4999C55.3 46.3999 55.2 46.1999 55.1 46.0999C55.1 45.9999 54.9 45.7999 54.8 45.6999C54.8 45.6999 54.4 45.2999 54.3 45.2999C54.3 45.1999 54 44.8999 54 44.8999L54.5 45.2999L54.2 44.8999C54.2 44.8999 54.6 45.2999 54.7 45.2999C54.7 45.2999 54.4 44.9999 54.4 44.8999Z" fill="white"/>
<path fill-rule="evenodd" clip-rule="evenodd" d="M52.6997 47L53.0997 47.4C53.1997 47.4 53.4997 47.7 53.4997 47.8C53.5997 47.9 53.5997 48.1 53.7997 48.2C53.8997 48.3 53.8997 48.5 54.0997 48.6L54.4997 49C54.5997 49.2 54.6997 49.3 54.7997 49.4C54.8997 49.5 54.9997 49.8 55.0997 49.8L54.6997 49.4L54.9997 49.8L54.5997 49.4L54.8997 49.8C54.7997 49.8 54.4997 49.4 54.4997 49.4L54.7997 49.8C54.7997 49.8 54.3997 49.5 54.3997 49.4C54.2997 49.3 54.0997 49.1 53.9997 49C53.8997 48.9 53.8997 48.7 53.6997 48.6C53.5997 48.5 53.2997 48.2 53.2997 48.2C53.2997 48.1 52.9997 47.8 52.9997 47.8C52.9997 47.8 53.4997 48.2 53.3997 48.2C53.3997 48.1 53.1997 47.9 53.0997 47.8C53.0997 47.7 52.7997 47.4 52.7997 47.4C52.7997 47.4 53.1997 47.7 53.1997 47.8L53.5997 48.2C53.5997 48.2 53.3997 47.9 53.2997 47.8L52.9997 47.4L52.6997 47Z" fill="white"/>
<path fill-rule="evenodd" clip-rule="evenodd" d="M39.5998 56.6C39.5998 56.7 39.7998 57 39.7998 57C39.7998 57 39.9998 57.4 39.9998 57.5C40.0998 57.6 40.1998 57.9 40.1998 57.9L39.7998 57.4C39.7998 57.4 39.9998 57.8 39.9998 57.9L39.5998 57.4L39.7998 57.8C39.7998 57.9 39.9998 58.3 39.9998 58.3C39.9998 58.3 39.6998 57.9 39.5998 57.8C39.5998 57.7 39.1998 57.3 39.1998 57.3C39.1998 57.3 39.3998 57.7 39.3998 57.8L38.9998 57.3C38.9998 57.4 39.1998 57.6 39.1998 57.8C39.1998 57.9 39.3998 58.2 39.3998 58.3L38.9998 57.8L39.1998 58.3L38.7998 57.8L38.9998 58.3L38.5998 57.8L38.7998 58.3C38.6998 58.2 38.4998 58 38.3998 57.8C38.2998 57.7 37.9998 57.3 37.9998 57.3C37.9998 57.3 38.1998 57.7 38.1998 57.8C38.1998 57.9 38.3998 58.3 38.3998 58.3C38.3998 58.3 38.0998 57.9 37.9998 57.8L37.1998 56.9L36.7998 56C36.8998 56 37.1998 56.5 37.1998 56.5L36.9998 56C37.0998 56.1 37.2998 56.3 37.3998 56.5C37.4998 56.6 37.7998 57 37.7998 57C37.7998 57 37.5998 56.6 37.5998 56.5C37.5998 56.4 37.3998 56.1 37.3998 56L37.7998 56.5L37.5998 56L37.9998 56.5L37.7998 56C37.8998 56 38.0998 56.4 38.1998 56.5L37.9998 56C37.9998 56 38.2998 56.4 38.3998 56.5C38.3998 56.5 38.4998 56.6 38.5998 56.7C38.6998 56.8 38.7998 56.9 38.7998 56.9L38.5998 56.5L38.3998 56.1C38.3998 56 38.1998 55.6 38.1998 55.7C38.1998 55.7 38.4998 56.1 38.5998 56.2L38.9998 56.7C39.0998 56.8 39.3998 57.2 39.3998 57.2L39.1998 56.8L38.9998 56.4L38.7998 56L39.1998 56.5L38.9998 56.1C38.9998 56.1 39.3998 56.5 39.3998 56.6C39.4998 56.3 39.4998 56.5 39.5998 56.6Z" fill="white"/>
<path fill-rule="evenodd" clip-rule="evenodd" d="M64.1996 41.3C64.1996 41.3 63.9996 41 63.8996 40.9L63.5996 40.5C63.5996 40.5 64.0996 40.8 64.0996 40.9C64.1996 41 64.2996 41.2 64.3996 41.3C64.4996 41.4 64.6996 41.7 64.6996 41.7L64.1996 41.3L64.4996 41.7C64.4996 41.7 63.9996 41.4 63.9996 41.3L63.6996 40.9L64.1996 41.3Z" fill="white"/>
<path fill-rule="evenodd" clip-rule="evenodd" d="M57.3999 45.3998L57.8999 46.1998L58.3999 46.9998C58.4999 47.0998 58.6999 47.3998 58.6999 47.3998C58.6999 47.3998 58.2999 47.0998 58.1999 46.9998C58.0999 46.8998 57.7999 46.6998 57.6999 46.5998L57.9999 46.9998C57.9999 46.9998 57.5999 46.5998 57.4999 46.5998L57.7999 46.9998C57.7999 46.9998 57.3999 46.5998 57.2999 46.5998L57.5999 46.9998C57.5999 46.9998 57.1999 46.5998 57.0999 46.5998L57.3999 46.9998C57.3999 46.9998 56.9999 46.6998 56.8999 46.5998C56.7999 46.4998 56.6999 46.2998 56.5999 46.1998C56.4999 46.0998 56.4999 45.8998 56.2999 45.7998C56.1999 45.6998 55.8999 45.4998 55.7999 45.3998C55.6999 45.1998 55.6999 45.0998 55.4999 44.9998C55.3999 44.8998 55.1999 44.6998 54.9999 44.5998C54.8999 44.4998 54.7999 44.1998 54.6999 44.1998C54.5999 44.0998 54.4999 43.8998 54.3999 43.7998L55.2999 44.5998L55.5999 44.9998C55.6999 45.0998 55.7999 45.2998 55.8999 45.3998C55.9999 45.4998 56.0999 45.6998 56.1999 45.7998C56.2999 45.8998 56.4999 46.0998 56.6999 46.1998L57.1999 46.5998L56.6999 45.7998C56.5999 45.6998 56.4999 45.4998 56.3999 45.3998C56.3999 45.3998 55.9999 45.0998 55.8999 44.9998C55.7999 44.8998 55.6999 44.6998 55.5999 44.5998C55.4999 44.4998 55.3999 44.2998 55.2999 44.1998C55.2999 44.1998 55.6999 44.5998 55.7999 44.5998C55.7999 44.5998 55.5999 44.1998 55.4999 44.1998L55.1999 43.7998C55.1999 43.7998 55.5999 44.0998 55.6999 44.1998C55.7999 44.2998 55.8999 44.4998 55.9999 44.5998C56.0999 44.7998 56.2999 44.7998 56.4999 44.9998L56.1999 44.5998C56.1999 44.5998 56.5999 44.8998 56.6999 44.9998C57.0999 45.0998 57.2999 45.2998 57.3999 45.3998Z" fill="white"/>
<path fill-rule="evenodd" clip-rule="evenodd" d="M55.0998 46.5999C55.1998 46.6999 55.3998 46.8999 55.5998 46.9999C55.6998 47.0999 55.7998 47.3999 55.8998 47.3999C55.8998 47.4999 56.1998 47.7999 56.1998 47.7999L55.6998 47.3999C55.7998 47.4999 55.8998 47.6999 55.9998 47.7999L56.2998 48.1999L56.5998 48.5999L55.6998 47.7999L55.3998 47.3999C55.3998 47.3999 55.7998 47.7999 55.8998 47.7999C55.8998 47.7999 55.6998 47.3999 55.5998 47.3999C55.4998 47.2999 55.1998 47.0999 55.0998 46.9999L54.5998 46.5999L55.0998 47.3999C54.9998 47.3999 54.6998 46.9999 54.5998 46.9999L54.8998 47.3999L54.3998 46.9999C54.3998 46.9999 54.5998 47.3999 54.6998 47.3999C54.7998 47.4999 55.0998 47.6999 55.1998 47.7999C55.2998 47.8999 55.3998 48.0999 55.4998 48.1999C55.5998 48.2999 55.6998 48.4999 55.7998 48.5999C55.8998 48.6999 56.0998 48.9999 56.0998 48.9999C56.0998 48.9999 55.6998 48.5999 55.5998 48.5999C55.4998 48.4999 55.1998 48.1999 55.0998 48.1999C54.9998 48.1999 54.6998 47.7999 54.5998 47.7999L54.8998 48.1999L55.1998 48.5999C55.1998 48.5999 54.7998 48.1999 54.6998 48.1999L54.9998 48.5999C54.9998 48.5999 54.5998 48.2999 54.4998 48.1999C54.3998 48.0999 54.1998 47.8999 53.9998 47.7999C53.8998 47.6999 53.8998 47.4999 53.6998 47.3999L53.1998 46.9999L52.8998 46.5999C52.8998 46.5999 53.2998 46.8999 53.2998 46.9999C53.3998 47.0999 53.5998 47.2999 53.7998 47.3999C53.7998 47.3999 54.1998 47.7999 54.2998 47.7999C54.2998 47.7999 54.0998 47.4999 53.9998 47.3999L53.6998 46.9999L53.3998 46.5999L53.0998 46.1999C52.9998 46.0999 52.7998 45.7999 52.7998 45.7999C52.7998 45.7999 53.1998 46.1999 53.2998 46.1999C53.3998 46.2999 53.6998 46.5999 53.7998 46.5999C53.7998 46.5999 53.5998 46.1999 53.4998 46.1999C53.3998 46.0999 53.2998 45.7999 53.1998 45.7999C53.1998 45.7999 53.5998 46.1999 53.6998 46.1999L53.3998 45.7999C53.3998 45.7999 53.7998 46.0999 53.8998 46.1999L54.3998 46.5999C54.3998 46.5999 54.1998 46.2999 54.0998 46.1999L53.7998 45.7999C53.7998 45.6999 53.4998 45.3999 53.4998 45.3999C53.4998 45.3999 53.8998 45.6999 53.9998 45.7999C54.0998 45.8999 54.3998 46.1999 54.4998 46.1999L54.1998 45.7999C54.1998 45.7999 54.5998 46.1999 54.6998 46.1999C54.9998 46.3999 54.9998 46.4999 55.0998 46.5999Z" fill="white"/>
<path fill-rule="evenodd" clip-rule="evenodd" d="M53.7996 49.4999L54.0996 49.8999C54.0996 49.8999 53.6996 49.5999 53.6996 49.4999C53.5996 49.3999 53.3996 49.1999 53.2996 49.0999C53.1996 48.9999 53.0996 48.7999 52.9996 48.6999C52.8996 48.5999 52.6996 48.3999 52.5996 48.2999L52.8996 48.6999C52.9996 48.7999 53.0996 48.9999 53.1996 49.0999C53.2996 49.1999 53.5996 49.3999 53.5996 49.4999C53.6996 49.5999 53.7996 49.8999 53.8996 49.8999C53.8996 49.9999 54.1996 50.2999 54.1996 50.2999C54.1996 50.2999 53.6996 49.8999 53.7996 49.8999C53.7996 49.9999 53.9996 50.1999 54.0996 50.2999C54.0996 50.3999 54.3996 50.6999 54.3996 50.6999L53.9996 50.2999C53.8996 50.1999 53.7996 49.9999 53.6996 49.8999C53.5996 49.7999 53.2996 49.4999 53.2996 49.4999C53.1996 49.4999 52.8996 49.0999 52.8996 49.0999L53.1996 49.4999L52.7996 49.0999L53.0996 49.4999L53.3996 49.8999C53.3996 49.8999 52.9996 49.5999 52.9996 49.4999L52.5996 49.0999C52.5996 49.0999 52.7996 49.4999 52.8996 49.4999L53.1996 49.8999C53.2996 49.9999 53.3996 50.2999 53.4996 50.2999L53.0996 49.8999L53.3996 50.2999L52.9996 49.8999C52.9996 49.9999 53.1996 50.1999 53.2996 50.2999C53.2996 50.3999 53.5996 50.6999 53.5996 50.6999C53.5996 50.6999 53.1996 50.3999 53.1996 50.2999C53.0996 50.2999 52.7996 49.8999 52.7996 49.8999C52.7996 49.8999 53.0996 50.2999 52.9996 50.2999C52.8996 50.2999 52.5996 49.8999 52.5996 49.8999C52.5996 49.8999 52.8996 50.2999 52.7996 50.2999L52.3996 49.8999L52.5996 50.2999C52.5996 50.3999 52.8996 50.6999 52.7996 50.6999L52.3996 50.2999C52.3996 50.2999 52.6996 50.6999 52.5996 50.6999L52.1996 50.2999C52.1996 50.2999 52.4996 50.6999 52.3996 50.6999L51.9996 50.2999C51.9996 50.3999 52.1996 50.5999 52.1996 50.6999C52.1996 50.7999 52.4996 51.0999 52.3996 51.0999L51.9996 50.6999C51.9996 50.6999 52.2996 51.0999 52.1996 51.0999C52.0996 51.0999 51.7996 50.6999 51.7996 50.6999C51.7996 50.6999 52.0996 51.0999 51.9996 51.0999L51.5996 50.6999C51.5996 50.6999 51.8996 51.0999 51.7996 51.0999L51.3996 50.6999C51.3996 50.6999 51.6996 51.1999 51.5996 51.0999C51.4996 51.0999 51.1996 50.6999 51.1996 50.6999C51.1996 50.6999 51.4996 51.0999 51.3996 51.0999L50.9996 50.6999C50.8996 50.5999 50.6996 50.3999 50.5996 50.2999L50.0996 49.3999L50.4996 49.7999C50.5996 49.8999 50.8996 50.1999 50.8996 50.1999L50.6996 49.7999C50.6996 49.6999 50.3996 49.3999 50.4996 49.3999L50.8996 49.7999C50.8996 49.7999 50.5996 49.2999 50.6996 49.3999C50.7996 49.4999 50.9996 49.6999 51.0996 49.7999C51.1996 49.7999 51.4996 50.1999 51.4996 50.1999L51.2996 49.7999C51.2996 49.6999 50.9996 49.3999 51.0996 49.3999L51.4996 49.7999C51.4996 49.6999 51.2996 49.4999 51.2996 49.3999C51.1996 49.2999 51.0996 48.9999 51.0996 48.9999L51.4996 49.3999C51.4996 49.3999 51.1996 48.9999 51.2996 48.9999L51.6996 49.3999C51.6996 49.2999 51.4996 49.0999 51.4996 48.9999C51.4996 48.8999 51.1996 48.5999 51.2996 48.5999L51.6996 48.9999C51.7996 49.0999 52.0996 49.3999 52.0996 49.3999L51.8996 48.9999L51.5996 48.5999C51.5996 48.5999 51.9996 48.8999 51.9996 48.9999L52.3996 49.3999L52.7996 49.7999C52.7996 49.7999 52.5996 49.3999 52.4996 49.3999L52.1996 48.9999L51.8996 48.5999L51.5996 48.1999C51.5996 48.0999 51.2996 47.7999 51.2996 47.7999L51.6996 48.1999C51.7996 48.2999 52.0996 48.5999 52.0996 48.5999C52.1996 48.5999 52.4996 48.9999 52.4996 48.9999C52.4996 48.9999 52.2996 48.5999 52.1996 48.5999C52.1996 48.4999 51.8996 48.1999 51.8996 48.1999L52.2996 48.5999L51.9996 48.1999L52.3996 48.5999L52.0996 48.1999L52.4996 48.5999L52.1996 48.1999L52.5996 48.5999C52.5996 48.5999 52.3996 48.1999 52.2996 48.1999L51.9996 47.7999C51.8996 47.6999 51.7996 47.3999 51.6996 47.3999L52.0996 47.7999L51.7996 47.3999L52.1996 47.7999L51.8996 47.3999C51.8996 47.3999 52.2996 47.6999 52.2996 47.7999C52.2996 47.7999 52.4996 48.1999 52.5996 48.1999C52.6996 48.2999 52.8996 48.4999 52.9996 48.5999C53.0996 48.6999 53.0996 48.8999 53.2996 48.9999C53.4996 49.2999 53.6996 49.3999 53.7996 49.4999Z" fill="white"/>
<path fill-rule="evenodd" clip-rule="evenodd" d="M49.1999 50.9L49.6999 51.8C49.6999 51.9 49.9999 52.2 49.8999 52.2L49.4999 51.8C49.3999 51.7 49.0999 51.4 49.0999 51.4C49.0999 51.4 49.3999 51.8 49.2999 51.8L48.8999 51.4L49.0999 51.8C49.1999 51.9 49.2999 52.2 49.2999 52.2L48.8999 51.8L49.0999 52.2L48.6999 51.8L48.8999 52.2C48.8999 52.3 49.1999 52.6 49.0999 52.6L48.6999 52.2C48.6999 52.2 48.9999 52.6 48.8999 52.6L48.4999 52.2C48.4999 52.2 48.7999 52.6 48.6999 52.6L48.2999 52.2C48.1999 52.1 47.8999 51.8 47.8999 51.8L48.0999 52.2L48.2999 52.6L47.3999 51.8L46.8999 50.9C46.9999 50.9 47.2999 51.3 47.2999 51.3C47.2999 51.3 46.9999 50.8 47.0999 50.9C47.1999 50.9 47.4999 51.3 47.4999 51.3L47.8999 51.7L47.6999 51.3C47.6999 51.3 47.3999 50.9 47.4999 50.9L47.8999 51.3C47.9999 51.4 47.9999 51.6 48.0999 51.7L48.4999 52.1L48.2999 51.7L48.0999 51.3L47.8999 50.9C47.7999 50.8 47.6999 50.5 47.6999 50.5L48.0999 50.9C48.0999 50.9 47.7999 50.4 47.8999 50.5C47.9999 50.6 48.1999 50.8 48.2999 50.9C48.3999 51 48.6999 51.3 48.6999 51.3L48.4999 50.9C48.4999 50.8 48.1999 50.5 48.2999 50.5L48.6999 50.9C48.6999 50.9 48.3999 50.5 48.4999 50.5L48.8999 50.9L48.6999 50.5L49.1999 50.9C49.1999 50.9 48.8999 50.4 48.9999 50.5L49.3999 50.9L49.5999 51.3C49.5999 51.3 49.2999 51 49.1999 50.9Z" fill="white"/>
<path fill-rule="evenodd" clip-rule="evenodd" d="M47.8 52.3998L48.3 53.2998C48.2 53.2998 47.9 52.8998 47.9 52.8998C47.9 52.8998 48.2 53.2998 48.1 53.2998L47.7 52.8998L47.9 53.2998L47.5 52.8998L47.7 53.2998C47.7 53.3998 47.9 53.6998 47.9 53.6998L47.5 53.2998C47.5 53.2998 47.8 53.7998 47.7 53.6998C47.6 53.5998 47.4 53.3998 47.3 53.2998C47.2 53.1998 46.9 52.8998 46.9 52.8998L47.1 53.2998C47.2 53.3998 47.3 53.6998 47.3 53.6998L46.9 53.2998C46.9 53.2998 47.2 53.6998 47.1 53.6998L46.7 53.2998C46.7 53.2998 47 53.7998 46.9 53.6998C46.8 53.6998 46.6 53.2998 46.5 53.2998C46.4 53.2998 46.1 52.8998 46.1 52.8998C46.1 52.8998 46.4 53.3998 46.3 53.2998C46.2 53.2998 46 52.8998 45.9 52.8998L46.1 53.2998C46.1 53.3998 46.3 53.6998 46.3 53.6998L45.9 53.2998C45.8 53.1998 45.7 52.8998 45.7 52.8998C45.7 52.7998 45.5 52.4998 45.5 52.4998L45.9 52.8998L45.7 52.4998C45.7 52.3998 45.5 52.0998 45.5 52.0998L45.9 52.4998C46 52.5998 46.3 52.8998 46.3 52.8998L46.1 52.4998C46 52.3998 45.9 52.0998 45.9 52.0998L46.3 52.4998C46.3 52.4998 46 52.0998 46.1 52.0998L46.5 52.4998C46.5 52.4998 46.2 51.9998 46.3 52.0998C46.4 52.0998 46.7 52.4998 46.7 52.4998C46.7 52.4998 46.4 52.0998 46.5 52.0998L46.9 52.4998L47.3 52.8998L47.1 52.4998L46.9 52.0998L46.7 51.6998C46.7 51.5998 46.5 51.2998 46.5 51.2998L46.9 51.6998C47 51.7998 47.3 52.0998 47.3 52.0998L47.1 51.6998L47.8 52.3998Z" fill="white"/>
<path fill-rule="evenodd" clip-rule="evenodd" d="M45.9996 53.8C45.9996 53.8 46.2996 54.2 46.1996 54.2L45.7996 53.8C45.7996 53.8 46.0996 54.2 45.9996 54.2L45.5996 53.8C45.5996 53.8 45.8996 54.2 45.7996 54.2C45.7996 54.2 45.3996 53.7 45.3996 53.8C45.3996 53.9 45.5996 54.1 45.5996 54.2C45.5996 54.3 45.7996 54.6 45.7996 54.6L45.3996 54.2C45.3996 54.1 44.9996 53.8 44.9996 53.8C44.9996 53.8 45.2996 54.3 45.1996 54.2L44.7996 53.8C44.6996 53.7 44.6996 53.5 44.5996 53.4L44.9996 53.8L44.7996 53.4C44.7996 53.3 44.5996 53 44.5996 53L44.9996 53.4C44.9996 53.4 44.6996 53 44.7996 53L45.1996 53.4C45.1996 53.4 44.8996 53 44.9996 53L45.3996 53.4C45.3996 53.4 45.0996 52.9 45.1996 53C45.2996 53 45.4996 53.4 45.5996 53.4C45.5996 53.4 45.2996 53 45.3996 53L45.7996 53.4C45.8996 53.5 45.8996 53.7 45.9996 53.8Z" fill="white"/>
<path fill-rule="evenodd" clip-rule="evenodd" d="M45.3997 54.6998C45.2997 54.6998 44.9997 54.2998 44.9997 54.2998L45.1997 54.6998C45.1997 54.6998 45.4997 55.0998 45.3997 55.0998C45.3997 55.0998 44.9997 54.5998 44.9997 54.6998C44.9997 54.7998 45.1997 54.9998 45.1997 55.0998C45.1997 55.1998 45.3997 55.4998 45.3997 55.4998L44.9997 55.0998C44.8997 54.9998 44.6997 54.6998 44.5997 54.6998L44.7997 55.0998L44.3997 54.6998L43.9997 54.2998L44.1997 54.6998C44.1997 54.7998 44.3997 55.0998 44.3997 55.0998L43.9997 54.6998C43.9997 54.6998 44.2997 55.1998 44.1997 55.0998C44.1997 55.0998 43.7997 54.5998 43.7997 54.6998C43.7997 54.6998 44.0997 55.0998 43.9997 55.0998C43.9997 55.0998 43.5997 54.5998 43.5997 54.6998L43.7997 55.0998C43.7997 55.0998 44.0997 55.4998 43.9997 55.4998C43.9997 55.4998 43.5997 54.9998 43.5997 55.0998C43.5997 55.0998 43.8997 55.4998 43.7997 55.4998L43.3997 55.0998C43.3997 55.0998 43.6997 55.5998 43.5997 55.4998C43.4997 55.4998 43.2997 55.0998 43.1997 55.0998L43.3997 55.4998L42.9997 55.0998C42.9997 54.9998 42.5997 54.6998 42.5997 54.6998L42.7997 55.0998C42.7997 55.1998 42.9997 55.4998 42.9997 55.4998C42.9997 55.4998 42.5997 54.9998 42.5997 55.0998C42.5997 55.1998 42.7997 55.3998 42.7997 55.4998L42.9997 55.8998C42.9997 55.9998 43.1997 56.2998 43.1997 56.2998L42.7997 55.8998L42.9997 56.2998L42.5997 55.8998L42.7997 56.2998L42.3997 55.8998L42.5997 56.2998L42.1997 55.8998L42.3997 56.2998L42.5997 56.6998L42.1997 56.2998C42.0997 56.2998 41.7997 55.8998 41.7997 55.8998C41.7997 55.8998 42.0997 56.3998 41.9997 56.2998L42.1997 56.6998C42.1997 56.6998 41.8997 56.2998 41.7997 56.2998C41.6997 56.1998 41.3997 55.7998 41.3997 55.8998L41.5997 56.2998C41.5997 56.3998 41.7997 56.7998 41.7997 56.6998L41.3997 56.2998L41.5997 56.6998C41.5997 56.6998 41.1997 56.1998 41.1997 56.2998L41.3997 56.6998C41.3997 56.7998 41.5997 57.1998 41.5997 57.0998C41.5997 57.0998 41.1997 56.5998 41.1997 56.6998L41.3997 57.0998C41.3997 57.0998 40.9997 56.5998 40.9997 56.6998L41.1997 57.0998C41.1997 57.0998 40.7997 56.5998 40.7997 56.6998L40.9997 57.0998L40.5997 56.6998L40.7997 57.0998L40.9997 57.4998C40.9997 57.4998 40.5997 56.9998 40.5997 57.0998L40.7997 57.4998L40.9997 57.8998C40.9997 57.8998 40.6997 57.4998 40.5997 57.4998L39.7997 56.5998L39.3997 55.6998L39.1997 55.2998C39.1997 55.2998 39.5997 55.7998 39.5997 55.6998C39.5997 55.6998 39.3997 55.1998 39.3997 55.2998C39.4997 55.3998 39.6997 55.5998 39.7997 55.6998C39.7997 55.7998 40.1997 56.0998 40.1997 56.0998L39.9997 55.6998C39.9997 55.5998 39.7997 55.1998 39.7997 55.2998C39.7997 55.2998 40.1997 55.7998 40.1997 55.6998C40.1997 55.5998 39.9997 55.3998 39.9997 55.2998C39.9997 55.1998 39.7997 54.8998 39.7997 54.8998L40.1997 55.2998C40.1997 55.2998 39.8997 54.7998 39.9997 54.8998C40.0997 54.8998 40.2997 55.2998 40.3997 55.2998C40.4997 55.2998 40.7997 55.6998 40.7997 55.6998C40.7997 55.6998 40.4997 55.1998 40.5997 55.2998C40.5997 55.2998 40.9997 55.7998 40.9997 55.6998L40.7997 55.2998L40.5997 54.8998C40.5997 54.7998 40.3997 54.4998 40.3997 54.4998C40.3997 54.4998 40.6997 54.8998 40.7997 54.8998C40.7997 54.9998 41.1997 55.2998 41.1997 55.2998C41.1997 55.2998 40.9997 54.7998 40.9997 54.8998C41.0997 54.9998 41.2997 55.1998 41.3997 55.2998C41.4997 55.3998 41.7997 55.6998 41.7997 55.6998L41.5997 55.2998L41.3997 54.8998C41.3997 54.7998 41.1997 54.4998 41.1997 54.4998C41.1997 54.4998 41.4997 54.8998 41.5997 54.8998L41.9997 55.2998L42.3997 55.6998L42.1997 55.2998C42.0997 55.1998 41.7997 54.8998 41.7997 54.8998C41.6997 54.7998 41.5997 54.5998 41.5997 54.4998C41.4997 54.3998 41.3997 54.1998 41.3997 54.0998L41.7997 54.4998C41.8997 54.5998 42.1997 54.8998 42.1997 54.8998L41.9997 54.4998L41.7997 54.0998L41.5997 53.6998C41.5997 53.5998 41.3997 53.2998 41.3997 53.2998L41.7997 53.6998C41.8997 53.7998 42.0997 54.0998 42.1997 54.0998L41.9997 53.6998C41.9997 53.6998 42.2997 54.0998 42.3997 54.0998L42.1997 53.6998C42.1997 53.6998 42.4997 54.0998 42.5997 54.0998C42.6997 54.1998 42.8997 54.3998 42.9997 54.4998C43.0997 54.5998 43.3997 54.8998 43.3997 54.8998L43.1997 54.4998L42.9997 54.0998C42.8997 53.9998 42.7997 53.6998 42.7997 53.6998L43.1997 54.0998L42.9997 53.6998C42.9997 53.5998 42.7997 53.2998 42.7997 53.2998L43.1997 53.6998C43.2997 53.7998 43.5997 54.0998 43.5997 54.0998L43.3997 53.6998C43.3997 53.5998 43.1997 53.2998 43.1997 53.2998L43.5997 53.6998L43.9997 54.0998L43.7997 53.6998C43.7997 53.5998 43.5997 53.2998 43.5997 53.2998L43.9997 53.6998C43.9997 53.6998 43.6997 53.1998 43.7997 53.2998C43.8997 53.2998 44.1997 53.6998 44.1997 53.6998C44.1997 53.6998 43.8997 53.2998 43.9997 53.2998L44.3997 53.6998C44.3997 53.6998 44.0997 53.2998 44.1997 53.2998L44.5997 53.6998C44.5997 53.6998 44.2997 53.2998 44.3997 53.2998L44.7997 53.6998C44.8997 53.7998 45.0997 53.9998 45.1997 54.0998C45.1997 54.4998 45.2997 54.5998 45.3997 54.6998Z" fill="white"/>
<path fill-rule="evenodd" clip-rule="evenodd" d="M44.8999 69.6002V69.1002C44.8999 69.1002 45.0999 69.6002 45.0999 69.7002L45.2999 70.3002C45.2999 70.3002 45.2999 69.9002 45.2999 69.8002C45.2999 69.8002 45.2999 69.4002 45.2999 69.3002C45.2999 69.2002 45.0999 68.8002 45.0999 68.7002C45.0999 68.6002 44.8999 68.2002 44.8999 68.1002C44.8999 68.0002 44.8999 67.6002 44.8999 67.6002L45.0999 68.2002C45.0999 68.1002 45.0999 67.8002 45.0999 67.7002C45.0999 67.6002 45.0999 67.2002 45.0999 67.2002C45.0999 67.2002 45.2999 67.7002 45.2999 67.8002L45.4999 68.4002C45.4999 68.5002 45.6999 68.9002 45.6999 69.0002C45.6999 69.1002 45.6999 69.4002 45.6999 69.5002V70.0002V70.5002C45.6999 70.6002 45.6999 70.8002 45.6999 71.0002C45.6999 71.1002 45.6999 71.4002 45.6999 71.5002C45.6999 71.6002 45.8999 72.0002 45.8999 72.1002C45.8999 72.3002 45.8999 72.4002 45.8999 72.6002L45.6999 72.0002V72.5002C45.6999 72.3002 45.4999 72.1002 45.4999 71.9002C45.4999 71.8002 45.4999 71.5002 45.4999 71.4002C45.4999 71.3002 45.2999 70.8002 45.2999 70.8002V71.3002C45.2999 71.2002 45.1999 70.8002 45.0999 70.7002C45.0999 70.5002 45.0999 70.4002 45.0999 70.2002C44.9999 69.9002 44.8999 69.7002 44.8999 69.6002Z" fill="white"/>
<path fill-rule="evenodd" clip-rule="evenodd" d="M47.3998 70V70.5V71.5C47.3998 71.6 47.3998 72 47.3998 72C47.3998 72 47.1998 71.5 47.1998 71.4C47.1998 71.2 47.1998 71 47.1998 70.9L46.9998 70.3C46.9998 70.4 46.9998 70.6 46.9998 70.8C46.9998 70.9 46.9998 71.2 46.9998 71.3C46.9998 71.4 47.1998 71.8 47.1998 71.9C47.1998 72.1 47.1998 72.3 47.1998 72.4C47.1998 72.5 47.1998 72.9 47.1998 72.9C47.1998 72.9 46.9998 72.4 46.9998 72.3L46.7998 71.7C46.7998 71.6 46.5998 71.1 46.5998 71.1C46.5998 71.1 46.5998 71.5 46.5998 71.6V72.1V72.6V73.1C46.5998 73.1 46.3998 72.6 46.3998 72.5L45.9998 71.4V70.9C45.9998 70.8 45.9998 70.5 45.9998 70.4C45.9998 70.3 45.9998 69.9 45.9998 69.9L46.1998 70.5C46.1998 70.4 46.1998 70.1 46.1998 70C46.1998 69.9 45.9998 69.6 45.9998 69.4C45.9998 69.2 45.9998 69.1 45.9998 68.9C45.9998 68.8 45.7998 68.5 45.7998 68.3C45.7998 68.2 45.7998 67.9 45.7998 67.8C45.7998 67.7 45.7998 67.3 45.7998 67.3C45.7998 67.3 45.9998 67.8 45.9998 67.9C45.9998 68 46.1998 68.5 46.1998 68.5V68C46.1998 68.1 46.2998 68.4 46.3998 68.6L46.5998 69.2C46.5998 69 46.5998 68.9 46.5998 68.7C46.5998 68.6 46.3998 68.2 46.3998 68.1C46.3998 68 46.1998 67.6 46.1998 67.5C46.1998 67.4 46.1998 67.1 46.1998 67V66.5L46.3998 67.1C46.4998 67.3 46.4998 67.5 46.5998 67.7C46.5998 67.8 46.7998 68.1 46.7998 68.3C46.7998 68.4 46.7998 68.8 46.7998 68.8C46.7998 68.9 46.9998 69.4 46.9998 69.4V68.9C46.9998 69 47.0998 69.3 47.1998 69.5L47.3998 70Z" fill="white"/>
<path fill-rule="evenodd" clip-rule="evenodd" d="M48.9997 70.5999V70.0999C48.9997 69.9999 48.9997 69.6999 48.9997 69.5999C48.9997 69.4999 48.7997 69.0999 48.7997 68.9999C48.7997 68.7999 48.7997 68.5999 48.7997 68.4999V67.9999C48.7997 67.8999 48.7997 67.4999 48.7997 67.4999C48.7997 67.4999 48.9997 67.9999 48.9997 68.0999C48.9997 68.1999 48.9997 68.4999 48.9997 68.5999C48.9997 68.7999 49.0997 68.9999 49.1997 69.1999C49.1997 69.3999 49.1997 69.4999 49.1997 69.6999C49.1997 69.7999 49.3997 70.1999 49.3997 70.2999C49.3997 70.4999 49.3997 70.6999 49.3997 70.7999V71.2999V71.7999C49.3997 71.8999 49.3997 72.1999 49.3997 72.2999L49.1997 71.6999V72.1999L48.9997 71.5999C48.9997 71.5999 48.9997 71.9999 48.9997 72.0999V72.5999C48.9997 72.4999 48.8997 72.1999 48.7997 71.9999C48.7997 71.8999 48.6997 71.5999 48.5997 71.3999C48.5997 71.2999 48.5997 70.9999 48.5997 70.8999C48.5997 70.7999 48.3997 70.3999 48.3997 70.2999C48.2997 70.0999 48.2997 69.8999 48.1997 69.6999C48.1997 69.8999 48.1997 69.9999 48.1997 70.1999C48.1997 70.2999 48.3997 70.5999 48.3997 70.7999C48.3997 70.9999 48.3997 71.1999 48.3997 71.2999C48.3997 71.4999 48.3997 71.5999 48.3997 71.7999C48.3997 71.8999 48.3997 72.1999 48.3997 72.2999L48.1997 71.6999V72.1999C48.1997 72.0999 48.0997 71.6999 47.9997 71.5999C47.9997 71.4999 47.7997 70.9999 47.7997 70.9999V71.4999C47.6997 71.3999 47.6997 71.0999 47.5997 70.8999C47.5997 70.6999 47.5997 70.5999 47.5997 70.3999C47.5997 70.1999 47.4997 69.9999 47.3997 69.7999C47.3997 69.5999 47.3997 69.4999 47.3997 69.2999C47.3997 69.1999 47.3997 68.8999 47.3997 68.7999L47.1997 68.1999C47.1997 68.0999 47.1997 67.6999 47.1997 67.6999L47.3997 68.2999V67.7999L47.5997 68.3999C47.5997 68.3999 47.5997 67.9999 47.5997 67.8999C47.5997 67.7999 47.5997 67.3999 47.5997 67.3999L47.7997 67.9999V67.4999C47.7997 67.5999 47.8997 67.9999 47.9997 68.0999C47.9997 68.0999 48.0997 68.6999 48.1997 68.6999C48.1997 68.6999 48.1997 68.2999 48.1997 68.1999V67.6999C48.1997 67.7999 48.2997 68.0999 48.3997 68.2999C48.3997 68.3999 48.4997 68.6999 48.5997 68.8999C48.5997 68.9999 48.5997 69.2999 48.5997 69.3999C48.5997 69.4999 48.7997 69.8999 48.7997 69.9999C48.7997 70.2999 48.8997 70.3999 48.9997 70.5999Z" fill="white"/>
<path fill-rule="evenodd" clip-rule="evenodd" d="M49.6998 71.4C49.6998 71.2 49.4998 71 49.4998 70.8C49.4998 70.7 49.4998 70.4 49.4998 70.3C49.4998 70.2 49.2998 69.8 49.2998 69.7C49.2998 69.5 49.2998 69.3 49.2998 69.2C49.2998 69.1 49.2998 68.8 49.2998 68.7C49.2998 68.7 49.4998 69.2 49.4998 69.3C49.4998 69.4 49.6998 69.9 49.6998 69.9V69.4V68.9L49.8998 69.5V69C49.8998 69 49.9998 69.6 50.0998 69.6V69.1C50.0998 69.2 50.1998 69.5 50.2998 69.7C50.2998 69.8 50.4998 70.3 50.4998 70.3C50.4998 70.3 50.4998 69.9 50.4998 69.8V69.3C50.4998 69.2 50.4998 68.8 50.4998 68.8C50.4998 68.8 50.6998 69.3 50.6998 69.4C50.6998 69.5 50.7998 69.9 50.8998 70V69.5C50.8998 69.5 50.9998 70.1 51.0998 70.1V69.6L50.8998 69V68.5C50.8998 68.5 50.9998 69 51.0998 69.1C51.0998 69.2 51.1998 69.6 51.2998 69.7V69.2C51.2998 69.2 51.3998 69.7 51.4998 69.8V69.3L51.6998 69.9V69.4C51.6998 69.4 51.7998 70 51.8998 70V69.5C51.8998 69.5 51.9998 70 52.0998 70.1V70.6C52.0998 70.7 52.0998 71 52.0998 71.1C52.0998 71.2 52.2998 71.7 52.2998 71.7C52.2998 71.8 52.2998 72.2 52.2998 72.2L52.0998 71.6V72.1C52.0998 72.1 51.9998 71.5 51.8998 71.5V72C51.8998 71.9 51.7998 71.5 51.6998 71.4V71.9C51.6998 71.9 51.5998 71.3 51.4998 71.3C51.4998 71.3 51.4998 71.7 51.4998 71.8V72.3C51.4998 72.4 51.4998 72.8 51.4998 72.8C51.4998 72.8 51.3998 72.3 51.2998 72.2L51.0998 71.6C51.0998 71.5 50.8998 71 50.8998 71C50.8998 71 50.8998 71.4 50.8998 71.5V72V72.5C50.8998 72.6 50.8998 73 50.8998 73C50.8998 73 50.7998 72.4 50.6998 72.4V72.9C50.6998 72.9 50.5998 72.4 50.4998 72.3C50.3998 72.2 50.3998 71.9 50.2998 71.7C50.2998 71.7 50.1998 71.5 50.1998 71.4C50.1998 71.3 50.0998 71.1 50.0998 71.1C50.0998 71.1 50.0998 71.5 50.0998 71.6V72.1V72.6C50.0998 72.7 50.0998 73.1 50.0998 73.1C50.0998 73.1 49.8998 72.6 49.8998 72.5C49.8998 72.4 49.6998 72 49.6998 71.9C49.6998 71.8 49.6998 71.6 49.6998 71.4Z" fill="white"/>
<path fill-rule="evenodd" clip-rule="evenodd" d="M52.5998 72.1001L52.2998 70.9001V69.9001V68.9001C52.2998 68.8001 52.2998 68.5001 52.2998 68.4001L52.4998 69.0001V68.5001C52.4998 68.5001 52.5998 69.1001 52.6998 69.1001V68.6001V68.1001C52.6998 68.1001 52.7998 68.6001 52.8998 68.7001C52.9998 68.9001 52.9998 69.1001 53.0998 69.3001V70.3001C53.0998 70.4001 53.0998 70.6001 53.0998 70.8001C53.0998 70.9001 53.2998 71.3001 53.2998 71.4001C53.2998 71.5001 53.2998 71.8001 53.2998 71.9001C53.2998 72.0001 53.2998 72.4001 53.2998 72.4001C53.2998 72.4001 53.1998 71.9001 53.0998 71.8001C53.0998 71.7001 52.9998 71.4001 52.8998 71.2001C52.8998 71.1001 52.8998 70.8001 52.8998 70.7001C52.8998 70.5001 52.7998 70.3001 52.6998 70.1001V71.1001L52.5998 72.1001Z" fill="white"/>
<path fill-rule="evenodd" clip-rule="evenodd" d="M55.3996 72.9C55.3996 72.9 55.2996 72.3 55.1996 72.3V72.8C55.1996 72.7 55.0996 72.4 54.9996 72.2C54.9996 72 54.8996 71.8 54.7996 71.6C54.7996 71.5 54.7996 71.2 54.7996 71.1C54.7996 70.9 54.6996 70.7 54.5996 70.5V70C54.5996 69.9 54.5996 69.5 54.5996 69.5C54.5996 69.5 54.6996 70 54.7996 70.1L54.9996 70.7C54.9996 70.8 55.0996 71.1 55.1996 71.3C55.1996 71.4 55.1996 71.7 55.1996 71.8C55.1996 71.9 55.3996 72.3 55.3996 72.4C55.4996 72.6 55.3996 72.7 55.3996 72.9Z" fill="white"/>
<path fill-rule="evenodd" clip-rule="evenodd" d="M55.6 72.4001C55.6 72.2001 55.5 72.0001 55.4 71.8001C55.4 71.7001 55.4 71.4001 55.4 71.3001C55.4 71.1001 55.3 70.9001 55.2 70.7001C55.2 70.6001 55 70.2001 55 70.1001C55 70.0001 55 69.7001 55 69.6001C55 69.5001 55 69.2001 55 69.1001C55 69.0001 55 68.6001 55 68.6001C55 68.6001 55.1 69.2001 55.2 69.2001C55.2 69.2001 55.3 69.8001 55.4 69.8001V69.3001C55.4 69.4001 55.5 69.7001 55.6 69.9001L55.8 70.5001C55.8 70.7001 55.8 70.8001 55.8 71.0001C55.8 71.1001 55.8 71.4001 55.8 71.5001C55.8 71.6001 56 72.1001 56 72.1001C56 72.2001 56 72.6001 56 72.6001C56 72.6001 55.9 72.0001 55.8 72.0001V72.5001C55.8 72.5001 55.7 71.9001 55.6 71.9001C55.6 71.9001 55.7 72.4001 55.6 72.4001Z" fill="white"/>
<path fill-rule="evenodd" clip-rule="evenodd" d="M58.6 71.6999L58.4 71.0999C58.4 70.9999 58.3 70.5999 58.2 70.4999C58.2 70.2999 58.2 70.1999 58.2 69.9999C58.2 69.7999 58.3 69.6999 58.2 69.4999C58.2 69.3999 58.1 68.9999 58 68.8999C58 68.6999 58 68.5999 58 68.3999C58 68.2999 58 67.9999 58 67.8999C58 67.8999 58.1 68.4999 58.2 68.4999V67.9999C58.2 67.9999 58.3 68.5999 58.4 68.5999V68.0999C58.4 68.1999 58.5 68.5999 58.6 68.6999V68.1999C58.6 68.1999 58.7 68.6999 58.8 68.7999C58.8 68.9999 58.9 69.1999 59 69.3999C59 69.5999 58.9 69.6999 59 69.8999C59 69.9999 59.2 70.3999 59.2 70.4999C59.2 70.5999 59.2 70.9999 59.2 70.9999C59.2 70.9999 59.1 70.3999 59 70.3999C59 70.4999 59 70.7999 59 70.8999C59 70.9999 59 71.3999 59 71.3999C59 71.3999 58.9 70.8999 58.8 70.7999C58.8 70.6999 58.7 70.1999 58.6 70.1999C58.6 70.1999 58.6 70.5999 58.6 70.6999V71.1999V71.6999Z" fill="white"/>
<path fill-rule="evenodd" clip-rule="evenodd" d="M76.7998 70.4001C76.7998 70.3001 76.7998 70.0001 76.8998 69.9001C76.8998 69.9001 76.9998 69.5001 76.9998 69.4001C76.9998 69.3001 76.9998 69.0001 77.0998 68.9001L77.1998 69.5001C77.1998 69.5001 77.1998 69.0001 77.2998 69.0001L77.3998 69.6001C77.3998 69.6001 77.4998 69.2001 77.4998 69.1001C77.4998 69.0001 77.5998 68.6001 77.5998 68.6001C77.5998 68.6001 77.6998 69.1001 77.6998 69.2001C77.6998 69.3001 77.7998 69.8001 77.7998 69.8001C77.7998 69.8001 77.7998 69.3001 77.8998 69.3001L77.9998 69.9001C77.9998 69.8001 78.0998 69.5001 78.0998 69.4001C78.0998 69.3001 78.0998 68.9001 78.1998 68.9001L78.2998 69.5001C78.2998 69.5001 78.2998 69.0001 78.3998 69.0001L78.4998 69.6001C78.4998 69.6001 78.4998 69.1001 78.5998 69.1001L78.6998 69.7001L78.7998 69.2001C78.7998 69.3001 78.8998 69.6001 78.8998 69.8001C78.8998 69.9001 78.9998 70.4001 78.9998 70.4001C78.9998 70.4001 79.0998 70.0001 79.0998 69.9001C79.0998 69.8001 79.1998 69.4001 79.1998 69.4001C79.1998 69.4001 79.2998 69.9001 79.2998 70.0001L79.4998 71.2001L79.3998 72.2001C79.3998 72.1001 79.2998 71.6001 79.2998 71.6001L79.1998 72.1001C79.1998 72.0001 79.0998 71.7001 79.0998 71.5001C79.0998 71.4001 78.9998 70.9001 78.9998 70.9001C78.9998 70.9001 78.8998 71.3001 78.8998 71.4001C78.8998 71.5001 78.8998 71.8001 78.7998 71.9001L78.6998 71.3001C78.6998 71.3001 78.6998 71.8001 78.5998 71.8001L78.4998 71.2001C78.4998 71.2001 78.4998 71.7001 78.3998 71.7001C78.3998 71.6001 78.2998 71.2001 78.2998 71.1001C78.2998 71.1001 78.2998 71.6001 78.1998 71.6001C78.1998 71.6001 78.0998 71.1001 78.0998 71.0001C78.0998 70.9001 77.9998 70.4001 77.9998 70.4001C77.9998 70.4001 77.8998 70.8001 77.8998 70.9001L77.7998 71.4001C77.7998 71.5001 77.6998 71.9001 77.6998 71.9001C77.6998 71.9001 77.5998 71.4001 77.5998 71.3001L77.4998 70.7001C77.4998 70.6001 77.3998 70.1001 77.3998 70.1001C77.3998 70.1001 77.2998 70.5001 77.2998 70.6001L77.1998 71.1001L77.0998 71.6001L76.9998 71.0001C76.9998 71.0001 76.9998 71.5001 76.8998 71.5001L76.7998 70.9001C76.7998 70.7001 76.7998 70.6001 76.7998 70.4001Z" fill="white"/>
<path fill-rule="evenodd" clip-rule="evenodd" d="M44.4998 69.8998C44.4998 69.8998 44.4998 70.2998 44.4998 70.3998C44.4998 70.4998 44.4998 70.8998 44.4998 70.8998C44.4998 70.8998 44.2998 70.3998 44.2998 70.2998C44.2998 70.1998 44.2998 69.8998 44.2998 69.7998C44.2998 69.6998 44.2998 69.2998 44.2998 69.2998L44.4998 69.8998V69.3998L44.6998 69.9998C44.6998 70.0998 44.6998 70.4998 44.6998 70.4998L44.4998 69.8998Z" fill="white"/>
<path fill-rule="evenodd" clip-rule="evenodd" d="M53.1997 70.3999V69.3999V68.3999C53.1997 68.2999 53.1997 67.8999 53.1997 67.8999C53.1997 67.8999 53.3997 68.3999 53.3997 68.4999C53.3997 68.5999 53.4997 68.9999 53.5997 69.0999V68.5999C53.5997 68.5999 53.6997 69.0999 53.7997 69.1999V68.6999C53.7997 68.6999 53.8997 69.2999 53.9997 69.2999V68.7999C53.9997 68.7999 54.0997 69.2999 54.1997 69.3999V68.8999C54.1997 68.9999 54.3997 69.3999 54.3997 69.4999C54.3997 69.6999 54.3997 69.7999 54.3997 69.9999C54.3997 70.1999 54.3997 70.2999 54.3997 70.4999C54.3997 70.5999 54.5997 70.9999 54.5997 71.0999C54.5997 71.2999 54.5997 71.3999 54.5997 71.5999C54.5997 71.7999 54.6997 71.9999 54.7997 72.1999C54.7997 72.2999 54.7997 72.5999 54.7997 72.6999C54.7997 72.8999 54.7997 72.9999 54.7997 73.1999L54.4997 71.9999V71.4999C54.4997 71.3999 54.4997 71.1999 54.4997 70.9999C54.4997 70.8999 54.4997 70.5999 54.4997 70.4999C54.4997 70.2999 54.3997 70.0999 54.2997 69.8999L54.0997 69.2999V70.2999C54.0997 70.3999 54.0997 70.5999 54.0997 70.7999C54.0997 70.8999 54.2997 71.2999 54.2997 71.3999C54.2997 71.4999 54.2997 71.7999 54.2997 71.8999C54.2997 72.0999 54.2997 72.2999 54.2997 72.3999L54.0997 71.7999C54.0997 71.7999 54.0997 72.1999 54.0997 72.2999V72.7999C54.0997 72.7999 53.8997 72.2999 53.8997 72.1999C53.8997 72.0999 53.8997 71.7999 53.8997 71.6999C53.8997 71.4999 53.7997 71.2999 53.6997 71.0999V71.5999C53.6997 71.5999 53.5997 71.0999 53.4997 70.9999C53.2997 70.7999 53.2997 70.5999 53.1997 70.3999Z" fill="white"/>
<path fill-rule="evenodd" clip-rule="evenodd" d="M56.0999 70.6C56.0999 70.4 55.9999 70.2 55.8999 70C55.8999 69.9 55.8999 69.6 55.8999 69.5C55.8999 69.4 55.8999 69 55.8999 69L56.0999 69.6C56.0999 69.5 56.0999 69.3 56.0999 69.1V68.6V68.1L56.3999 69.3V69.8C56.3999 69.8 56.2999 69.2 56.1999 69.2V69.7C56.1999 69.8 56.2999 70.2 56.3999 70.3L56.5999 70.9L56.6999 69.9C56.6999 69.9 56.7999 70.5 56.8999 70.5V70L57.0999 70.6C57.0999 70.6 57.0999 70.2 57.0999 70.1C57.0999 69.9 56.9999 69.7 56.8999 69.5C56.8999 69.3 56.8999 69.1 56.8999 69C56.8999 68.8 56.8999 68.7 56.8999 68.5C56.8999 68.4 56.8999 68 56.8999 68C56.8999 68 56.9999 68.5 57.0999 68.6C57.0999 68.7 57.1999 69.1 57.2999 69.2C57.2999 69.3 57.3999 69.8 57.4999 69.8V69.3V68.8C57.4999 68.8 57.5999 69.3 57.6999 69.4V68.9C57.6999 68.9 57.7999 69.4 57.8999 69.5C57.9999 69.7 57.9999 69.9 58.0999 70.1C58.0999 70.3 57.9999 70.4 58.0999 70.6L58.2999 71.2V71.7C58.2999 71.7 58.1999 71.2 58.0999 71.1C58.0999 71 57.9999 70.7 57.8999 70.5C57.8999 70.4 57.7999 69.9 57.6999 69.9C57.6999 69.9 57.6999 70.3 57.6999 70.4V70.9V71.4V71.9C57.6999 72 57.6999 72.3 57.6999 72.4C57.6999 72.4 57.5999 71.9 57.4999 71.8C57.4999 71.7 57.3999 71.3 57.2999 71.2C57.2999 71.2 57.2999 71.6 57.2999 71.7C57.2999 71.8 57.2999 72.1 57.2999 72.2C57.2999 72.2 57.1999 71.6 57.0999 71.6V72.1C57.0999 72.1 56.9999 71.6 56.8999 71.5C56.8999 71.4 56.6999 70.9 56.6999 70.9C56.6999 70.9 56.6999 71.3 56.6999 71.4V71.9C56.6999 72 56.6999 72.4 56.6999 72.4C56.6999 72.4 56.5999 71.9 56.4999 71.8C56.4999 71.7 56.3999 71.2 56.2999 71.2V71.7C56.2999 71.7 56.2999 71.6 56.1999 71.4C56.1999 71.3 56.0999 71.1 56.0999 71.1C56.0999 70.9 56.0999 70.8 56.0999 70.6Z" fill="white"/>
<path fill-rule="evenodd" clip-rule="evenodd" d="M59.0996 68.9002V68.4002C59.0996 68.4002 59.1996 68.9002 59.2996 69.0002C59.2996 69.1002 59.3996 69.4002 59.4996 69.6002C59.4996 69.7002 59.4996 70.0002 59.4996 70.1002C59.4996 70.3002 59.5996 70.5002 59.6996 70.7002V70.2002C59.6996 70.1002 59.6996 69.9002 59.6996 69.7002C59.6996 69.6002 59.5996 69.2002 59.4996 69.1002C59.4996 69.0002 59.4996 68.7002 59.4996 68.6002C59.4996 68.5002 59.4996 68.1002 59.4996 68.1002C59.4996 68.1002 59.5996 68.7002 59.6996 68.7002C59.6996 68.6002 59.6996 68.3002 59.6996 68.2002C59.6996 68.1002 59.6996 67.7002 59.6996 67.7002C59.6996 67.7002 59.7996 68.2002 59.8996 68.3002C59.8996 68.5002 59.7996 68.6002 59.8996 68.8002C59.8996 68.9002 59.9996 69.3002 60.0996 69.4002C60.0996 69.5002 60.1996 70.0002 60.2996 70.0002V69.5002C60.2996 69.5002 60.3996 70.1002 60.4996 70.1002V69.6002V69.1002C60.4996 69.1002 60.5996 69.6002 60.6996 69.7002C60.6996 69.8002 60.7996 70.3002 60.8996 70.3002C60.8996 70.3002 60.8996 69.9002 60.8996 69.8002V69.3002C60.8996 69.2002 60.8996 68.9002 60.8996 68.8002C60.8996 68.8002 60.9996 69.4002 61.0996 69.4002V68.9002C61.0996 68.9002 61.1996 69.5002 61.2996 69.5002C61.2996 69.4002 61.2996 69.1002 61.2996 69.0002C61.2996 68.9002 61.2996 68.5002 61.2996 68.5002C61.2996 68.5002 61.3996 69.0002 61.4996 69.1002C61.4996 69.2002 61.5996 69.7002 61.6996 69.7002V69.2002C61.6996 69.3002 61.7996 69.8002 61.7996 69.8002V69.3002L61.8996 69.9002C61.8996 69.9002 61.8996 69.5002 61.8996 69.4002C61.8996 69.3002 61.8996 68.9002 61.8996 68.9002L61.9996 69.5002V69.0002L62.0996 69.6002V69.1002L62.1996 69.7002C62.1996 69.6002 62.1996 69.3002 62.1996 69.2002C62.1996 69.1002 62.1996 68.7002 62.1996 68.7002L62.2996 69.3002V68.8002C62.2996 68.9002 62.3996 69.4002 62.3996 69.4002V68.9002L62.4996 69.5002V69.0002L62.5996 69.6002V69.1002C62.5996 69.2002 62.6996 69.6002 62.6996 69.7002V69.2002C62.6996 69.2002 62.7996 69.7002 62.7996 69.8002C62.7996 70.0002 62.8996 70.2002 62.8996 70.4002L62.7996 71.4002L62.6996 70.8002C62.6996 70.7002 62.5996 70.2002 62.5996 70.2002C62.5996 70.2002 62.5996 70.6002 62.5996 70.7002C62.5996 70.8002 62.5996 71.2002 62.5996 71.2002L62.4996 70.6002V71.1002C62.4996 71.0002 62.3996 70.7002 62.3996 70.5002C62.3996 70.4002 62.2996 69.9002 62.2996 69.9002C62.2996 69.9002 62.2996 70.3002 62.2996 70.4002C62.2996 70.5002 62.2996 70.9002 62.2996 70.9002L62.1996 70.3002C62.1996 70.4002 62.1996 70.7002 62.1996 70.8002C62.1996 70.9002 62.1996 71.3002 62.1996 71.3002L62.0996 70.7002V71.2002L61.9996 70.6002C61.9996 70.6002 61.9996 71.0002 61.9996 71.1002C61.9996 71.2002 61.9996 71.6002 61.9996 71.6002C61.9996 71.6002 61.8996 71.1002 61.8996 71.0002C61.8996 70.9002 61.7996 70.4002 61.7996 70.4002C61.7996 70.4002 61.7996 70.8002 61.7996 70.9002C61.7996 71.0002 61.7996 71.4002 61.7996 71.4002C61.7996 71.4002 61.6996 70.9002 61.6996 70.8002L61.5996 70.2002C61.5996 70.1002 61.3996 69.6002 61.3996 69.6002C61.3996 69.6002 61.3996 70.0002 61.3996 70.1002V70.6002V71.1002V71.6002C61.3996 71.7002 61.3996 72.1002 61.3996 72.1002C61.3996 72.1002 61.2996 71.6002 61.1996 71.5002C61.1996 71.4002 61.0996 70.9002 60.9996 70.9002C60.9996 70.9002 60.8996 70.3002 60.7996 70.3002C60.7996 70.3002 60.7996 70.7002 60.7996 70.8002C60.7996 70.9002 60.7996 71.3002 60.7996 71.3002C60.7996 71.3002 60.6996 70.7002 60.5996 70.7002V71.2002C60.5996 71.2002 60.4996 70.6002 60.3996 70.6002V71.1002C60.3996 71.1002 60.2996 70.5002 60.1996 70.5002V71.0002C60.1996 71.0002 60.0996 70.4002 59.9996 70.4002C59.9996 70.4002 59.9996 70.8002 59.9996 70.9002V71.4002C59.9996 71.5002 59.9996 71.8002 59.9996 71.9002C59.9996 71.9002 59.8996 71.3002 59.7996 71.3002V71.8002C59.7996 71.8002 59.6996 71.2002 59.5996 71.2002V71.7002C59.5996 71.7002 59.4996 71.2002 59.3996 71.1002C59.3996 71.0002 59.3996 70.7002 59.3996 70.6002C59.3996 70.4002 59.2996 70.2002 59.1996 70.0002C59.1996 69.8002 59.2996 69.7002 59.1996 69.5002C59.2996 69.3002 59.1996 69.1002 59.0996 68.9002Z" fill="white"/>
<path fill-rule="evenodd" clip-rule="evenodd" d="M64.2997 70.2998L64.3997 69.2998C64.3997 69.1998 64.3997 68.7998 64.3997 68.7998C64.3997 68.7998 64.4997 69.2998 64.4997 69.3998C64.4997 69.4998 64.5997 69.8998 64.5997 69.9998V69.4998L64.6997 70.0998C64.6997 70.0998 64.6997 69.6998 64.6997 69.5998C64.6997 69.4998 64.6997 69.1998 64.6997 69.0998L64.7997 69.6998V69.1998L64.8997 69.7998C64.8997 69.7998 64.8997 69.3998 64.8997 69.2998C64.8997 69.1998 64.8997 68.7998 64.8997 68.7998L64.9997 69.3998V68.8998L65.0997 69.4998V68.9998C65.0997 68.9998 65.1997 69.4998 65.1997 69.5998C65.1997 69.6998 65.2997 70.1998 65.2997 70.1998C65.2997 70.1998 65.2997 69.7998 65.2997 69.6998V69.1998L65.5997 70.3998L65.4997 71.3998C65.4997 71.2998 65.3997 70.7998 65.3997 70.7998V71.2998C65.3997 71.1998 65.2997 70.6998 65.2997 70.6998L65.1997 70.0998C65.1997 70.0998 65.1997 70.4998 65.1997 70.5998V71.0998C65.1997 71.0998 65.0997 70.5998 65.0997 70.4998C65.0997 70.3998 65.1997 70.1998 65.0997 69.9998L64.9997 69.3998C64.9997 69.3998 64.9997 69.7998 64.9997 69.8998V70.3998V70.8998C64.9997 70.9998 64.9997 71.3998 64.9997 71.3998L64.8997 70.7998V71.2998C64.8997 71.1998 64.7997 70.8998 64.7997 70.6998C64.7997 70.5998 64.6997 70.0998 64.6997 70.0998C64.6997 70.0998 64.6997 70.4998 64.6997 70.5998C64.6997 70.6998 64.6997 71.0998 64.6997 71.0998L64.5997 70.4998V70.9998L64.4997 70.3998C64.4997 70.3998 64.4997 70.7998 64.4997 70.8998L64.2997 70.2998V70.7998C64.2997 70.7998 64.1997 70.2998 64.1997 70.1998V69.6998C64.1997 69.6998 64.1997 70.1998 64.2997 70.2998Z" fill="white"/>
<path fill-rule="evenodd" clip-rule="evenodd" d="M66.5 69.8001L66.6 68.8001C66.6 68.9001 66.7 69.4001 66.7 69.4001V68.9001L66.8 69.5001V69.0001L66.9 69.6001C66.9 69.6001 66.9 69.2001 66.9 69.1001C66.9 69.0001 66.9 68.6001 66.9 68.6001L67 69.2001V68.7001C67 68.8001 67.1 69.1001 67.1 69.3001C67.1 69.4001 67.2 69.9001 67.2 69.9001C67.2 69.9001 67.2 69.5001 67.2 69.4001C67.2 69.3001 67.2 69.0001 67.2 68.9001L67.3 69.5001V69.0001L67.4 69.6001C67.4 69.6001 67.4 69.1001 67.5 69.1001C67.5 69.2001 67.6 69.6001 67.6 69.7001C67.6 69.8001 67.7 70.3001 67.7 70.3001C67.7 70.3001 67.7 69.8001 67.8 69.8001C67.8 69.9001 67.9 70.3001 67.9 70.4001L68 69.9001C68 69.8001 68 69.4001 68.1 69.4001L68.2 70.0001C68.2 70.1001 68.2 70.4001 68.1 70.5001C68.1 70.6001 68.1 71.0001 68 71.0001C68 71.0001 67.9 70.5001 67.9 70.4001L67.8 70.9001C67.8 71.0001 67.8 71.4001 67.7 71.4001C67.7 71.4001 67.6 70.9001 67.6 70.8001C67.6 70.7001 67.5 70.2001 67.5 70.2001C67.5 70.2001 67.5 70.6001 67.5 70.7001C67.5 70.8001 67.5 71.1001 67.5 71.2001L67.4 70.6001V71.1001L67.3 70.5001V71.0001C67.3 70.9001 67.2 70.5001 67.2 70.4001V70.9001C67.2 70.9001 67.1 70.4001 67.1 70.3001C67.1 70.2001 67 69.7001 67 69.7001C67 69.7001 67 70.1001 67 70.2001V70.7001V71.2001C67 71.3001 67 71.7001 67 71.7001C67 71.7001 66.9 71.2001 66.9 71.1001C66.9 71.0001 66.8 70.5001 66.8 70.5001V71.0001L66.5 69.8001Z" fill="white"/>
<path fill-rule="evenodd" clip-rule="evenodd" d="M68.9999 69.4998C68.9999 69.4998 68.9999 68.9998 69.0999 68.9998L69.1999 69.5998C69.1999 69.5998 69.1999 69.0998 69.2999 69.0998L69.3999 69.6998C69.3999 69.6998 69.3999 69.1998 69.4999 69.1998L69.5999 69.7998C69.5999 69.6998 69.5999 69.3998 69.6999 69.2998C69.6999 69.1998 69.6999 68.7998 69.7999 68.7998C69.7999 68.7998 69.8999 69.2998 69.8999 69.3998C69.8999 69.4998 69.9999 69.9998 69.9999 69.9998C69.9999 69.9998 69.9999 69.4998 70.0999 69.4998C70.0999 69.4998 70.1999 69.9998 70.1999 70.0998C70.1999 70.2998 70.0999 70.3998 70.0999 70.5998L69.9999 69.9998L69.8999 70.4998C69.8999 70.5998 69.8999 70.9998 69.7999 70.9998L69.6999 70.3998C69.6999 70.3998 69.6999 70.8998 69.5999 70.8998L69.4999 70.2998C69.4999 70.2998 69.4999 70.7998 69.3999 70.7998L69.2999 70.1998C69.2999 70.1998 69.2999 70.6998 69.1999 70.6998C69.1999 70.5998 69.0999 70.1998 69.0999 70.0998C69.0999 70.0998 69.0999 70.5998 68.9999 70.5998L68.8999 69.9998C68.8999 69.7998 68.9999 69.6998 68.9999 69.4998Z" fill="white"/>
<path fill-rule="evenodd" clip-rule="evenodd" d="M70.1996 69C70.1996 69.1 70.2996 69.6 70.2996 69.6C70.2996 69.6 70.2996 69.1 70.3996 69.1C70.3996 69.1 70.3996 68.6 70.4996 68.6L70.5996 69.2C70.5996 69.1 70.5996 68.8 70.6996 68.7C70.6996 68.6 70.6996 68.2 70.7996 68.2C70.7996 68.2 70.8996 68.7 70.8996 68.8C70.8996 68.9 70.9996 69.3 70.9996 69.4C70.9996 69.4 70.9996 68.9 71.0996 68.9L71.1996 69.5L71.2996 70.1C71.2996 70.1 71.2996 69.7 71.3996 69.6C71.3996 69.5 71.3996 69.1 71.4996 69.1L71.5996 69.7C71.5996 69.7 71.5996 69.2 71.6996 69.2L71.7996 69.8C71.7996 69.8 71.7996 69.3 71.8996 69.3L71.9996 69.9C71.9996 69.9 71.9996 69.4 72.0996 69.4C72.0996 69.4 72.0996 68.9 72.1996 68.9L72.2996 69.5C72.2996 69.5 72.2996 69 72.3996 69L72.4996 69.6C72.4996 69.6 72.4996 69.1 72.5996 69.1C72.5996 69.2 72.6996 69.6 72.6996 69.7C72.6996 69.7 72.6996 69.2 72.7996 69.2C72.7996 69.2 72.8996 69.7 72.8996 69.8C72.8996 69.9 72.9996 70.4 72.9996 70.4C72.9996 70.4 72.9996 70 73.0996 69.9C73.0996 69.8 73.0996 69.4 73.1996 69.4L73.2996 70C73.2996 69.9 73.2996 69.7 73.3996 69.5L73.4996 69C73.4996 68.9 73.4996 68.5 73.5996 68.5L73.6996 69.1C73.6996 69.1 73.6996 68.6 73.7996 68.6L73.8996 69.2C73.8996 69.2 73.8996 68.7 73.9996 68.7L74.0996 69.3C74.0996 69.3 74.0996 68.8 74.1996 68.8L74.2996 69.4C74.2996 69.4 74.2996 68.9 74.3996 68.9C74.3996 68.9 74.3996 68.4 74.4996 68.4C74.4996 68.4 74.5996 68.9 74.5996 69C74.5996 69.1 74.6996 69.6 74.6996 69.6C74.6996 69.6 74.6996 69.1 74.7996 69.1C74.7996 69.1 74.7996 68.6 74.8996 68.6C74.8996 68.6 74.9996 69.1 74.9996 69.2C74.9996 69.3 75.0996 69.8 75.0996 69.8C75.0996 69.8 75.1996 69.4 75.1996 69.3C75.1996 69.2 75.1996 68.8 75.2996 68.8L75.3996 69.4C75.3996 69.4 75.3996 68.9 75.4996 68.9L75.5996 69.5C75.5996 69.5 75.6996 69.1 75.6996 69C75.6996 68.9 75.7996 68.5 75.7996 68.5L75.8996 69.1C75.8996 69.1 75.8996 68.6 75.9996 68.6L76.0996 69.2C76.0996 69.2 76.0996 68.7 76.1996 68.7L76.2996 69.3C76.2996 69.3 76.2996 68.8 76.3996 68.8L76.4996 69.4C76.4996 69.4 76.4996 68.9 76.5996 68.9C76.5996 68.9 76.5996 68.4 76.6996 68.4L76.7996 69C76.7996 69 76.7996 68.5 76.8996 68.5C76.8996 68.5 76.8996 68 76.9996 68C76.9996 68 77.0996 68.5 77.0996 68.6L77.2996 69.8L77.1996 70.8C77.1996 70.8 77.1996 71.3 77.0996 71.3L76.9996 70.7C76.9996 70.7 76.9996 71.2 76.8996 71.2C76.8996 71.1 76.7996 70.8 76.7996 70.6C76.7996 70.5 76.6996 70 76.6996 70C76.6996 70 76.5996 70.4 76.5996 70.5C76.5996 70.6 76.4996 71 76.4996 71L76.3996 70.4C76.3996 70.5 76.3996 70.8 76.2996 70.9C76.2996 71 76.2996 71.4 76.1996 71.4L76.0996 70.8C76.0996 70.8 76.0996 71.3 75.9996 71.3C75.9996 71.2 75.8996 70.8 75.8996 70.7C75.8996 70.6 75.7996 70.1 75.7996 70.1C75.7996 70.1 75.7996 70.6 75.6996 70.6L75.5996 70C75.5996 70 75.4996 70.4 75.4996 70.5L75.3996 71C75.3996 71.1 75.3996 71.5 75.2996 71.5C75.2996 71.5 75.1996 71 75.1996 70.9C75.1996 70.8 75.0996 70.3 75.0996 70.3C75.0996 70.3 75.0996 70.8 74.9996 70.8C74.9996 70.7 74.8996 70.4 74.8996 70.2C74.8996 70.1 74.7996 69.6 74.7996 69.6C74.7996 69.6 74.6996 70 74.6996 70.1L74.5996 70.6C74.5996 70.7 74.5996 71.1 74.4996 71.1C74.4996 71.1 74.3996 70.6 74.3996 70.5L74.2996 69.9C74.2996 69.8 74.1996 69.3 74.1996 69.3C74.1996 69.3 74.0996 69.7 74.0996 69.8C74.0996 69.9 74.1996 70.3 74.1996 70.4C74.1996 70.6 74.1996 70.8 74.0996 70.9C74.0996 71 74.0996 71.3 73.9996 71.4C73.9996 71.4 73.8996 70.9 73.8996 70.8C73.8996 70.7 73.7996 70.2 73.7996 70.2C73.7996 70.2 73.6996 70.6 73.6996 70.7L73.5996 71.2L73.4996 71.7C73.4996 71.8 73.4996 72.2 73.3996 72.2C73.3996 72.2 73.3996 72.1 73.2996 71.9C73.2996 71.8 73.1996 71.6 73.1996 71.6C73.1996 71.5 73.0996 71.1 73.0996 71C73.0996 71 73.0996 71.5 72.9996 71.5C72.9996 71.5 72.8996 71 72.8996 70.9C72.8996 70.9 72.8996 71.4 72.7996 71.4C72.7996 71.4 72.6996 70.9 72.6996 70.8C72.6996 70.7 72.5996 70.4 72.5996 70.2C72.5996 70.1 72.4996 69.6 72.4996 69.6C72.4996 69.6 72.3996 70 72.3996 70.1L72.2996 70.6C72.2996 70.7 72.2996 71 72.1996 71.1L72.0996 70.5C72.0996 70.5 72.0996 70.9 71.9996 71C71.9996 71.1 71.9996 71.5 71.8996 71.5C71.8996 71.5 71.7996 71 71.7996 70.9C71.7996 70.8 71.6996 70.3 71.6996 70.3C71.6996 70.3 71.6996 70.7 71.5996 70.8C71.5996 70.9 71.5996 71.3 71.4996 71.3L71.3996 70.7L71.2996 70.1C71.2996 70.1 71.2996 70.5 71.1996 70.6C71.1996 70.7 71.1996 71.1 71.0996 71.1L70.9996 70.5C70.9996 70.5 70.9996 71 70.8996 71C70.8996 70.9 70.7996 70.4 70.7996 70.4C70.7996 70.4 70.7996 70.9 70.6996 70.9L70.5996 70.3C70.5996 70.3 70.5996 70.8 70.4996 70.8L70.3996 70.2C70.3996 70.2 70.3996 70.7 70.2996 70.7C70.2996 70.7 70.1996 70.2 70.1996 70.1C70.1996 69.9 70.0996 69.7 70.0996 69.5C70.0996 69.4 70.1996 69.2 70.1996 69Z" fill="white"/>
</svg>
