<svg width="100" height="100" viewBox="0 0 100 100" fill="none" xmlns="http://www.w3.org/2000/svg">
<g clip-path="url(#clip0_391_1706)">
<path d="M77.9361 52.9424C77.7085 53.1917 78.1312 53.3868 78.1637 53.4735C78.4239 52.9424 77.8278 52.8882 77.9361 52.9424Z" fill="white"/>
<path d="M79.4964 47.7402L79.6481 47.8811C79.5889 47.5905 79.5092 47.3043 79.4097 47.0249C79.4592 47.2604 79.4883 47.4997 79.4964 47.7402Z" fill="white"/>
<path d="M79.9628 42.9282C79.5835 43.1883 79.7027 43.6002 79.7569 44.0879C79.8782 44.5636 79.8857 45.0612 79.7786 45.5402L79.5835 45.6595L80.1254 46.1255C80.1545 45.5448 80.1145 44.9627 80.0062 44.3914C79.9359 43.9069 79.9213 43.416 79.9628 42.9282Z" fill="white"/>
<path d="M81.1113 39.9368C80.862 40.1969 80.7212 39.4057 81.1764 40.6196V40.4787C81.1439 40.2995 81.1222 40.1186 81.1113 39.9368Z" fill="white"/>
<path d="M81.2197 40.4787C81.3715 41.0315 81.3823 40.056 81.2197 40.4787V40.4787Z" fill="white"/>
<path d="M80.2227 38.0509L80.7429 38.6579C80.8513 38.4411 80.6454 37.7908 80.8513 37.9751C80.4069 37.3031 80.2985 37.509 80.2227 38.0509Z" fill="white"/>
<path d="M79.4097 37.6821L79.6806 37.9531C79.7782 37.8664 79.6915 37.7688 79.4097 37.6821Z" fill="white"/>
<path d="M80.2119 38.5927C80.0529 38.3618 79.8753 38.1443 79.6808 37.9424C79.6158 38.0941 79.4099 38.1917 79.9193 38.2459C79.6808 38.2892 79.941 38.3434 80.2119 38.5927Z" fill="white"/>
<path d="M80.2657 39.0693C80.2657 39.5137 80.2657 40.0123 79.8213 39.4378C80.1248 40.0448 80.3307 40.2832 80.4499 40.2074C80.5691 40.1315 80.5691 39.6763 80.2657 39.0693Z" fill="white"/>
<path d="M79.1387 42.7763L78.9653 43.264L79.258 43.6542C79.1062 43.4591 79.3772 42.7221 79.1387 42.7763Z" fill="white"/>
<path d="M78.0118 33.9106C77.86 33.9865 77.86 34.3875 77.73 34.5718C77.9047 34.654 78.0716 34.7519 78.2285 34.8644C78.1635 34.5609 77.8492 34.1057 78.0118 33.9106Z" fill="white"/>
<path d="M77.7299 34.5719L76.9712 34.1709C77.4372 34.702 77.6107 34.7128 77.7299 34.5719Z" fill="white"/>
<path d="M78.5862 37.9534C78.972 38.2185 79.3345 38.5158 79.67 38.8421C79.3143 38.4453 78.9224 38.0825 78.4995 37.7583L78.5862 37.9534Z" fill="white"/>
<path d="M75.638 31.7105H76.245C75.8981 31.7105 75.5621 31.6455 75.1611 31.6455C75.3671 31.6563 75.4971 31.6889 75.638 31.7105Z" fill="white"/>
<path d="M73.7633 30.6265C74.2293 30.529 73.579 29.9003 74.0017 29.922C73.4582 29.7536 72.8824 29.7164 72.3218 29.8136C72.8909 29.8833 73.4092 30.1756 73.7633 30.6265Z" fill="white"/>
<path d="M71.498 29.9219C71.7724 29.9363 72.0474 29.9363 72.3218 29.9219C72.0503 29.8633 71.7695 29.8633 71.498 29.9219Z" fill="white"/>
<path d="M76.0496 33.1737C76.0826 33.041 76.0821 32.9022 76.048 32.7697C76.0139 32.6373 75.9474 32.5154 75.8545 32.415V32.9678L76.0496 33.1737Z" fill="white"/>
<path d="M76.1148 33.1733H76.0498C76.0498 33.1733 76.0498 33.2384 76.1148 33.1733Z" fill="white"/>
<path d="M77.9142 36.0458C77.4373 35.8182 76.7003 35.2871 76.8954 36.2192C77.329 36.2843 77.2097 35.7315 77.9142 36.0458Z" fill="white"/>
<path d="M76.0176 33.8887L76.5053 34.5498C76.592 34.4631 76.6137 34.2247 76.863 34.3005L76.0176 33.8887Z" fill="white"/>
<path d="M75.6162 33.7482L76.0172 33.8891L75.8113 33.6724L75.6162 33.7482Z" fill="white"/>
<path d="M72.7336 30.8435C72.3093 30.8435 71.8892 30.7588 71.498 30.5942C71.9103 30.8633 72.3455 31.0954 72.7986 31.2879C72.9179 31.1795 73.2755 31.0061 72.7336 30.8435Z" fill="white"/>
<path d="M74.2835 31.8188H74.1968C74.1968 31.8188 74.251 31.8839 74.2835 31.8188Z" fill="white"/>
<path d="M67.1733 29.7812L67.2275 29.868V29.7921L67.1733 29.7812Z" fill="white"/>
<path d="M72.831 31.396C72.936 31.4856 73.0591 31.5515 73.192 31.5889C73.3248 31.6263 73.4642 31.6344 73.6005 31.6127L72.7985 31.2876C72.7335 31.3418 72.7118 31.3743 72.831 31.396Z" fill="white"/>
<path d="M70.186 29.7485C70.3657 29.8934 70.5539 30.0273 70.7496 30.1496C70.6087 29.922 70.2836 29.6402 70.186 29.7485Z" fill="white"/>
<path d="M74.164 31.6236C74.1532 31.5369 74.164 31.4827 74.164 31.6236V31.6236Z" fill="white"/>
<path d="M74.1642 31.6236C73.9773 31.5968 73.7875 31.5968 73.6006 31.6236C73.792 31.7066 73.9919 31.7684 74.1967 31.8079C74.1741 31.7491 74.163 31.6866 74.1642 31.6236Z" fill="white"/>
<path d="M65.9271 32.6531C66.0022 32.5224 66.106 32.4103 66.2307 32.3255C66.3553 32.2407 66.4976 32.1852 66.6468 32.1633C66.796 32.1414 66.9482 32.1536 67.092 32.199C67.2358 32.2444 67.3674 32.3219 67.477 32.4255C68.1598 32.1762 67.9105 30.7239 67.2277 29.8677C67.2277 30.0519 67.2277 30.2253 66.5991 30.4421C66.8055 30.6183 67.0309 30.7709 67.271 30.8973C67.5745 31.0924 67.7479 31.2875 67.4228 31.4501C66.4907 31.5801 66.7183 31.255 66.3389 30.9732C66.6316 31.5584 65.1792 31.6018 65.2009 32.3822C65.4827 32.3822 65.7537 32.2954 66.0355 32.2304C66.0355 32.3605 65.6886 32.5122 65.9271 32.6531Z" fill="white"/>
<path d="M68.7882 30.0737H69.135C68.733 29.9036 68.3656 29.6612 68.0512 29.3584C67.4551 29.5101 67.3358 29.6619 67.2925 29.8028L68.9507 30.0304L68.7882 30.0737Z" fill="white"/>
<path d="M70.6199 30.4097C70.2297 30.789 69.4385 30.7999 69.7853 31.4068C70.6849 31.6019 70.5115 31.1901 71.1293 31.1467C69.5903 30.8541 71.6604 31.0167 70.6199 30.4639C70.9173 30.4643 71.213 30.5081 71.4978 30.594C71.2485 30.4205 70.9884 30.3122 70.75 30.1496C70.75 30.2255 70.815 30.2688 70.75 30.2146C70.7187 30.2744 70.6742 30.3263 70.6199 30.3664C70.1972 30.1604 70.6199 30.2255 70.75 30.2146V30.1496C70.1864 30.0954 69.6661 30.0195 69.1025 30.0195C69.5989 30.1839 70.1058 30.3142 70.6199 30.4097Z" fill="white"/>
<path d="M75.6382 36.2623C75.6282 36.2305 75.6282 36.1965 75.6382 36.1647C75.5948 36.1322 75.5406 36.1431 75.6382 36.2623Z" fill="white"/>
<path d="M75.4429 35.6666C75.5621 35.6666 75.7572 35.6666 75.9523 35.905C76.1474 36.1435 75.7789 36.0459 75.6705 36.1651C75.8981 36.1651 76.4075 36.4578 76.1474 35.8508H76.0281C75.768 35.3306 75.6488 34.3551 75.7572 34.3768C75.5815 34.7863 75.4753 35.2222 75.4429 35.6666Z" fill="white"/>
<path d="M73.4271 32.8594C73.0404 32.6986 72.6418 32.5681 72.2349 32.4692C72.3731 32.6712 72.4929 32.8852 72.5925 33.1087L72.6901 32.8811C73.2753 33.3146 73.2753 32.9786 73.4271 32.8594Z" fill="white"/>
<path d="M67.0757 29.5429L67.2058 29.0552C67.0432 29.2719 66.8698 29.4995 66.6855 29.7163L67.0757 29.5429Z" fill="white"/>
<path d="M65.9809 29.4778L66.0893 29.0659L65.7642 29.261L65.9809 29.4778Z" fill="white"/>
<path d="M31.3096 63.8569L31.4938 64.2363C31.4502 64.1019 31.3882 63.9743 31.3096 63.8569Z" fill="white"/>
<path d="M30.5401 61.0713H30.3125C30.4751 61.158 30.5726 61.1797 30.5401 61.0713Z" fill="white"/>
<path d="M34.3332 28.1011C34.0888 28.2567 33.822 28.3736 33.542 28.4479C33.3577 28.5129 33.3035 28.578 33.542 28.6538L34.008 28.7405C34.0291 28.4932 34.1457 28.2638 34.3332 28.1011Z" fill="white"/>
<path d="M20.3631 45.3664L20.5365 45.2689L20.168 44.8462L20.3631 45.3664Z" fill="white"/>
<path d="M22.1947 46.0713L21.8262 46.5373C21.9743 46.4038 22.0989 46.2462 22.1947 46.0713Z" fill="white"/>
<path d="M34.6587 74.0122L35.1898 73.8388C34.8646 73.5678 34.8429 73.8604 34.6587 74.0122Z" fill="white"/>
<path d="M55.4569 21.2512C55.178 20.9171 54.8489 20.6282 54.4814 20.395C54.9041 20.8719 55.1101 21.4463 55.4569 21.2512Z" fill="white"/>
<path d="M26.2373 64.0193C26.3674 64.1493 26.4649 64.1927 26.5733 64.171C26.4541 64.0192 26.3348 63.9542 26.2373 64.0193Z" fill="white"/>
<path d="M53.1377 19.7234C53.2027 19.7993 53.2786 19.8535 53.3436 19.9294C53.7317 19.9819 54.1025 20.1228 54.4275 20.3412C54.275 20.133 54.0836 19.9563 53.8639 19.821C53.637 19.7164 53.3841 19.6825 53.1377 19.7234Z" fill="white"/>
<path d="M71.0098 67.7042L71.1073 67.6392C71.1073 67.6392 71.0098 67.65 71.0098 67.7042Z" fill="white"/>
<path d="M75.7247 55.6304C75.6934 55.7806 75.6536 55.929 75.6055 56.0747C75.6705 56.0097 75.6922 55.9338 75.7247 55.6304Z" fill="white"/>
<path d="M62.0361 29.7485C61.9496 29.7687 61.8729 29.8185 61.8193 29.8894C61.8751 29.821 61.9509 29.7717 62.0361 29.7485Z" fill="white"/>
<path d="M49.1274 21.7173C49.16 21.7932 49.1816 21.8148 49.1274 21.7173V21.7173Z" fill="white"/>
<path d="M62.2201 27.9059C62.1826 27.8021 62.1316 27.7037 62.0684 27.6133C62.1056 27.7172 62.1567 27.8156 62.2201 27.9059Z" fill="white"/>
<path d="M62.3179 27.7544L62.4588 27.9061C62.5238 27.7544 62.5346 27.7544 62.3179 27.7544Z" fill="white"/>
<path d="M61.8081 27.3428C61.9131 27.4135 62.0018 27.5059 62.0682 27.6137V27.527L61.8081 27.3428Z" fill="white"/>
<path d="M52.5522 74.1098H52.6281C52.9641 73.9255 52.8124 73.9689 52.5522 74.1098Z" fill="white"/>
<path d="M32.1437 37.9966C32.3822 37.2271 32.664 37.1295 33.0975 37.0211C32.729 36.7177 32.3822 36.3925 32.0137 36.0674C32.0897 36.7078 32.1332 37.3517 32.1437 37.9966Z" fill="white"/>
<path d="M31.8079 69.4711L32.1331 68.8425C32.9351 69.4169 32.74 69.8613 33.2169 69.276C32.5124 69.3844 32.3282 68.875 32.2848 68.3331C32.2415 67.7912 32.1764 67.2493 31.4611 67.0975L31.7863 66.4689C31.7863 66.6532 31.8513 66.6857 31.8405 66.8699C32.5449 65.6127 30.7566 65.9595 30.8542 64.4747C30.8542 63.9436 31.0276 63.5209 31.266 63.8569C31.0795 63.4849 30.8733 63.1231 30.6482 62.7731C30.5832 62.4263 30.8542 62.4371 30.9192 62.7731C30.7284 62.1938 30.4966 61.6287 30.2256 61.0823C29.9221 60.9197 29.3585 60.5512 29.1417 60.3778C29.1417 59.8901 29.3802 60.5079 29.4886 60.3236C29.2501 60.0852 28.9792 59.8576 28.719 59.6408C28.8383 59.1097 29.5969 59.6408 29.8029 60.2803C30.2581 59.5216 30.0521 59.359 29.7378 59.1964C29.4535 59.0241 29.2096 58.7926 29.0226 58.5177C28.8356 58.2428 28.7099 57.9309 28.654 57.6032C28.8924 57.8308 29.1526 58.0476 29.3802 58.2969C29.7053 57.2889 28.99 56.8012 28.5565 55.5873C28.6766 56.022 28.7707 56.4636 28.8383 56.9096C28.8383 57.4298 28.6648 57.7983 28.1771 57.484C28.1015 57.2693 27.9737 57.0767 27.8054 56.9235C27.6371 56.7703 27.4334 56.6613 27.2125 56.6061C27.5919 56.2376 27.0825 55.9016 26.4972 55.4464L26.9849 54.9478C26.1937 54.5577 26.1395 54.9478 25.6843 54.9478C25.2941 54.5035 25.5868 54.0374 25.8144 53.6472C25.5543 53.3221 25.5109 53.5497 25.4025 53.8315C25.2941 54.1133 25.1858 54.3842 24.8064 54.0157C24.6917 53.6772 24.4665 53.3871 24.167 53.192C23.846 52.9231 23.5095 52.6734 23.159 52.4442C23.094 51.8698 23.5817 52.325 23.6576 52.0649C23.4255 52.0214 23.1972 51.9598 22.9748 51.8806C22.9748 51.7722 23.1048 51.7289 23.1915 51.718C22.8339 51.4254 22.5521 51.9673 22.1077 51.4146C21.6958 51.4146 21.8692 51.0135 22.0101 50.5258C22.0935 50.2964 22.1374 50.0546 22.1402 49.8105C22.1512 49.6896 22.1287 49.568 22.0752 49.459C22.0217 49.35 21.9392 49.2579 21.8367 49.1927C22.0101 48.9651 22.2703 49.1927 22.5304 49.1385C22.309 48.8391 22.1098 48.524 21.9343 48.1956C21.7261 47.8711 21.498 47.5598 21.2515 47.2635C21.414 46.9925 21.62 46.7433 21.8042 46.494C21.219 47.0251 20.7204 46.2014 20.3411 45.3235C20.0945 45.4534 19.8651 45.6136 19.6582 45.8003C19.5985 45.355 19.5767 44.9054 19.5932 44.4564C19.7449 44.3263 19.94 44.5323 20.1676 44.8032C20.14 44.7097 20.1037 44.619 20.0593 44.5323C20.4278 44.1746 20.7421 44.5323 21.0455 44.9224L20.5145 45.2259C20.7862 45.6145 21.198 45.8826 21.6633 45.9737C21.5844 45.8596 21.5462 45.7221 21.5549 45.5836C21.6525 45.6811 21.7392 45.7461 21.8151 45.7245C21.8909 45.7028 21.8151 45.5727 21.6525 45.356H22.4654L22.1836 45.2151C22.4413 44.8208 22.7431 44.4572 23.0831 44.1312C22.7729 43.4725 22.6202 42.7505 22.6371 42.0225C22.654 41.2945 22.8401 40.5805 23.1807 39.9368C23.2891 40.6305 23.7985 40.6196 24.2645 41.0965C23.8527 41.0207 23.7226 41.335 23.6142 41.6926C23.6142 41.8769 23.5167 42.072 23.4516 42.2671C23.4209 42.4675 23.3345 42.6552 23.2024 42.809C23.4842 42.4838 23.7009 42.7439 23.7443 42.8957C23.8036 42.386 23.9051 41.8821 24.0477 41.3892C24.4488 41.7685 24.5355 41.3892 24.969 41.335C24.0044 40.7931 25.1966 40.0344 25.5326 39.4816C25.7819 39.7634 25.8686 40.1211 25.2725 40.4787C25.8144 40.5438 25.8252 40.1861 25.8361 39.7634C25.8469 39.3407 25.8361 38.8422 26.4213 38.9831C26.2587 39.0698 26.1395 39.0589 26.1829 39.2649C26.378 38.7771 27.451 38.5387 27.3534 38.9397L27.2017 39.0264C27.5178 38.881 27.8438 38.7578 28.1771 38.6579C28.5673 38.517 28.8599 38.3653 29.326 38.1594C30.2906 37.7692 30.9517 37.1731 30.8542 36.707C30.9889 37.1327 31.0726 37.573 31.1035 38.0185C31.5669 36.7569 31.8196 35.4277 31.8513 34.0842C32.1545 34.576 32.5187 35.0276 32.9351 35.4281C33.3253 35.9158 33.5963 36.4361 33.1627 36.9997C33.4406 36.9282 33.7015 36.8023 33.9303 36.6293C34.1592 36.4563 34.3514 36.2396 34.4958 35.9917C34.214 36.0784 33.2928 35.4715 33.5204 35.2113C34.7776 35.3197 34.3007 35.2113 35.688 34.9295C35.2979 35.0704 34.7234 33.8457 35.1136 33.5314C35.1895 33.7157 36.0674 34.3009 36.0132 34.5502C36.0621 33.9153 36.0621 33.2776 36.0132 32.6427C36.0132 33.0545 36.8044 33.3146 37.2921 33.2279C37.0212 33.2279 38.0508 32.1441 38.1158 31.6672L37.5089 32.0899C38.5168 30.6593 36.6635 29.8247 37.3138 28.5892C37.4655 28.8601 38.5819 29.5429 38.972 29.0444C38.523 28.5429 38.1405 27.9855 37.834 27.3861C37.6419 26.9832 37.5034 26.5569 37.4222 26.118C37.3223 25.7108 37.3526 25.2824 37.5089 24.8933H37.9641C38.105 24.5248 38.235 24.1455 38.3976 23.8095C38.4843 24.4056 38.6035 25.3919 38.7661 26.2806C38.9287 27.1693 39.2647 28.0798 39.3839 28.5783C39.8716 28.3399 39.8174 28.6867 40.1426 28.1231C40.5328 28.1231 40.381 28.6867 40.3052 28.8493C40.5935 28.473 40.9204 28.1279 41.2806 27.8196C40.6737 27.4186 41.454 26.4865 41.0422 26.118C40.8154 26.6817 40.6307 27.2613 40.4894 27.8522C40.2974 27.7035 40.142 27.513 40.0349 27.2951C39.9279 27.0772 39.872 26.8377 39.8716 26.5949C39.8523 26.2866 39.8928 25.9774 39.9908 25.6845C40.1061 25.3877 40.3106 25.134 40.5761 24.9583C40.9988 24.9583 41.2481 26.0422 41.4432 26.2373C41.3673 25.9663 41.9417 25.1534 42.1585 25.2835C42.0914 25.4739 42.0407 25.6697 42.0068 25.8688C42.3211 25.782 42.3969 25.4786 42.5162 25.1643C42.6354 24.85 42.8196 24.5465 43.329 24.7199C43.6 24.644 44.4129 25.251 44.2611 24.8391C43.6 24.2322 42.3536 21.9778 42.462 21.2408C43.2874 21.223 44.1085 21.3666 44.8789 21.6635C45.2257 21.9453 45.1065 22.3355 45.0198 22.7473C44.9331 23.1592 44.8681 23.571 45.1173 23.8312C45.1122 23.609 45.1894 23.3928 45.3341 23.2242C45.6593 23.3326 45.3341 23.842 45.9411 23.6469C45.9411 22.9099 47.1983 23.4843 46.1253 22.9858C46.7214 22.6498 46.8081 23.0508 47.5343 22.9858C47.4151 22.7582 47.5343 22.3355 47.8594 21.9561C48.1268 21.5926 48.5085 21.3292 48.9433 21.2083C48.8782 21.3925 49.0191 21.6418 49.0842 21.761C50.2173 22.0494 51.3097 22.4791 52.3356 23.04C52.3898 23.2459 52.8125 23.7336 52.444 23.8962C52.7079 23.7878 53.0039 23.7878 53.2677 23.8962C53.582 24.7849 52.4765 23.5819 52.5849 24.514C52.715 24.3406 52.9859 24.3189 53.3219 24.3514C53.6579 24.3839 53.9939 24.5573 54.2974 24.6007C54.4274 24.2864 54.1781 24.0696 53.8313 23.907C53.4779 23.8109 53.1137 23.7599 52.7475 23.7553C53.1377 22.9424 54.5466 22.5197 56.064 23.2025C57.1478 23.8637 56.064 24.0046 56.3133 24.0479C56.607 24.3935 56.9784 24.6647 57.3971 24.8391C57.6657 24.9764 57.9494 25.0819 58.2425 25.1534C58.5157 25.2143 58.7715 25.3366 58.9903 25.5111C59.1228 25.6147 59.2333 25.7437 59.3155 25.8904C59.397 26.0387 59.4521 26.2001 59.4781 26.3673C59.348 27.2019 58.546 27.0718 58.2858 27.4511C57.6139 26.8442 57.7656 26.1072 57.3646 25.587L57.6139 26.389C57.4135 26.3105 57.2319 26.1908 57.0807 26.0377C56.9295 25.8846 56.812 25.7015 56.736 25.5002C56.9517 26.2181 57.3216 26.8802 57.8198 27.4403C58.3834 28.3074 59.1529 29.1744 59.6406 29.8898C59.9875 29.9548 60.5077 30.0848 60.4643 29.7597C60.3234 29.673 60.1609 29.5971 60.02 29.4996C60.02 28.8601 61.1038 29.5863 60.8112 29.0335C61.5157 29.1853 62.3285 29.1094 62.9788 29.7272L62.8162 30.3991C62.8813 30.2041 62.4911 29.7922 62.1876 29.8247C62.4152 29.8247 62.5995 30.139 62.8379 30.4425C63.0764 30.746 63.3907 30.9627 63.7375 30.6159C63.6002 30.4077 63.4771 30.1904 63.369 29.9656C64.0626 29.9656 64.9189 29.4779 65.5367 29.8356C65.4066 29.1094 65.3524 29.8356 65.1248 29.001C65.179 29.5104 64.7671 29.3912 64.4095 29.2395C64.0518 29.0877 63.705 28.936 63.8025 29.5429C63.7267 28.5241 63.1739 28.8168 63.0547 27.8522C62.9571 28.0364 63.0005 28.329 62.6212 27.928L62.4044 28.0147C62.4406 28.157 62.4406 28.306 62.4044 28.4483C61.8733 28.7192 61.1255 28.1014 60.7136 28.0581C60.5294 27.7329 60.9954 27.9822 61.0171 27.6787L60.2693 27.5595C60.5619 27.1802 60.2693 26.3348 60.9846 26.725C60.8545 26.5516 60.6919 26.389 60.5619 26.1939C60.5515 25.9284 60.4784 25.6691 60.3484 25.4374C60.2184 25.2056 60.0352 25.008 59.814 24.8608C59.5756 24.3622 58.5893 24.1238 59.1637 24.2538C58.7389 23.8514 58.2781 23.4886 57.7873 23.17L57.8632 23.0725C57.5659 22.7493 57.2226 22.4718 56.8444 22.2488L55.663 21.5876C55.2836 21.3492 54.8501 21.1758 54.4708 20.9157C54.0844 20.6234 53.722 20.3009 53.387 19.9511C53.0943 19.8969 52.7908 19.8643 52.4549 19.7776C52.1189 19.6909 51.7612 19.5717 51.306 19.4091L51.1759 18.9323C50.6903 18.8462 50.212 18.723 49.7453 18.5638C49.2359 18.4445 48.7698 18.3795 48.5964 18.5638C48.2171 18.0002 47.2633 18.0002 46.2337 18.0544C45.2041 18.1085 44.1961 18.5746 43.5241 18.7155L43.6325 19.2574C43.1885 19.379 42.7596 19.5499 42.3536 19.7668C41.9136 20.0376 41.4902 20.3344 41.0855 20.6555L41.3673 21.0566C40.7604 21.8044 39.1346 21.967 38.0508 23.0616C37.9966 22.8557 38.3217 22.6389 38.5927 22.5522C38.1055 22.6223 37.6595 22.8645 37.3355 23.2351C37.0347 23.6252 36.7836 24.0512 36.5876 24.5031C36.36 24.915 36.2733 25.4027 36.0674 25.782C35.8751 26.1684 35.6015 26.5085 35.2654 26.7792C35.2672 26.9486 35.2312 27.1164 35.1599 27.2701C35.0887 27.4239 34.984 27.5598 34.8535 27.6679C34.8627 27.6324 34.8627 27.5951 34.8535 27.5595L34.7776 27.7113C34.6367 27.8413 34.4633 27.9714 34.3116 28.134C34.4723 28.0402 34.6184 27.9234 34.7451 27.7871C34.5977 28.13 34.5168 28.4978 34.5067 28.871L33.9756 28.7951C33.9756 28.7951 33.9756 28.7951 33.9756 28.8601C33.683 29.0444 34.1057 29.1744 34.5284 29.1853C34.5361 29.3634 34.5727 29.5391 34.6367 29.7055C33.7913 29.5429 34.4742 30.5942 33.5529 30.41C33.8347 30.8435 32.9026 31.8406 33.412 32.5776C33.3145 32.5018 33.2061 32.5776 33.3253 32.3934C32.9893 32.5993 32.6642 32.7836 32.5666 33.1954L32.0247 32.7836C32.0092 33.1898 31.973 33.5949 31.9163 33.9975C31.2552 33.9975 30.9951 33.8457 31.0926 33.1629C30.5507 34.431 30.4965 33.8891 29.9112 35.0271L29.7812 34.6044C29.4777 34.767 29.1092 35.504 28.7841 35.2222C28.6377 35.1546 28.4791 35.1178 28.318 35.1138C28.063 35.1331 27.8096 35.1693 27.5593 35.2222C26.8737 35.3476 26.2095 35.5702 25.5868 35.8833L24.5029 36.4252L23.4842 37.0755C22.7688 37.4657 22.1944 37.9968 21.5333 38.3436C22.1836 38.5929 21.8259 38.6904 21.4466 38.8855C21.0672 39.0806 20.5795 39.3407 20.9372 39.6875C20.6012 39.6225 20.2218 39.8393 20.2977 39.319C20.0172 39.8233 19.6983 40.3052 19.3439 40.7605C19.1651 40.954 19.0455 41.1946 18.9994 41.454C18.9533 41.7134 18.9826 41.9805 19.0838 42.2237C18.737 42.2237 18.802 41.7577 18.5853 41.8227C18.5853 41.9636 18.6394 42.3538 18.4118 42.4296C18.1842 42.5055 18.2059 42.137 18.1842 41.8444C17.599 43.3184 18.5094 43.7519 19.2681 44.0987C18.7045 44.6515 18.6069 45.0308 19.1055 45.6269C18.802 45.8112 18.4444 46.1797 18.466 45.2909C18.4118 45.5294 18.2059 46.2664 18.0975 46.9709C17.9891 47.6754 18.1842 48.3473 18.5311 48.3473C18.336 48.4991 18.5311 49.0301 18.6069 49.1385C18.5957 49.9023 18.7205 50.662 18.9754 51.382V51.0677C19.4306 51.1653 19.5282 51.3495 19.5607 51.6205C19.5319 51.9658 19.6034 52.312 19.7666 52.6176H19.7124C19.94 54.6769 20.2543 53.2462 20.6445 55.273L21.0239 54.8937C21.5333 54.666 21.5983 55.0887 21.75 55.6415C21.9018 56.1942 22.0427 56.9746 22.6279 57.1697L22.5521 56.6928C22.8989 56.7578 22.9314 57.2997 22.9639 57.9284C22.9639 58.2427 22.9639 58.5787 23.0398 58.8713C23.0312 59.0586 23.0569 59.246 23.1156 59.424C23.1156 59.5541 22.8989 59.424 22.758 59.424C23.1698 60.6271 23.2999 58.9797 24.0694 59.424C23.9177 59.7925 23.2782 59.9443 23.6034 60.3887C23.6034 60.5837 24.0694 60.6704 24.5463 60.8981C25.0232 61.1257 25.5001 61.5267 25.3808 61.9819C25.5434 61.7109 25.6952 61.3966 26.0962 61.6676C26.2505 62.0601 26.2955 62.4871 26.2262 62.9031C26.2262 63.3583 26.2262 63.7485 26.7573 63.9219C26.7195 63.9981 26.6534 64.0565 26.5731 64.0845C26.9307 64.4855 27.2125 65.5693 27.6569 65.8728C26.7898 66.1763 26.9524 66.7724 27.2125 67.8671C27.4726 68.9617 27.8303 69.6337 27.0174 69.7529L27.2342 70.8367C27.3209 71.1727 27.451 71.5087 27.5702 71.8447H27.4184C27.4588 72.2646 27.6207 72.6636 27.8845 72.9928C28.1482 73.322 28.5023 73.5671 28.9033 73.6981C28.9033 74.0232 28.6974 73.904 28.6107 73.9148C29.2718 75.7682 29.5427 75.9849 31.201 76.6027L30.9192 77.1013C31.1576 77.1771 31.5478 77.7516 32.1223 78.4777C32.4388 78.8525 32.8032 79.1841 33.2061 79.464C33.6202 79.7686 34.1051 79.9626 34.6151 80.0276C34.5765 80.0688 34.5293 80.1009 34.4768 80.1215C34.4243 80.1421 34.3679 80.1508 34.3116 80.1468C35.4511 80.5489 36.5566 81.0419 37.6173 81.6208C38.1 81.8439 38.6245 81.9622 39.1563 81.9677C39.3906 81.9582 39.6173 81.8817 39.8095 81.7472C40.0016 81.6128 40.1511 81.4259 40.2401 81.209L40.9446 81.0031L41.6274 80.6996C39.8825 80.6996 41.8333 79.8325 41.118 79.6157C41.7141 79.4423 42.8413 80.0493 42.0501 80.2227L41.8442 80.1251C41.7358 80.6345 42.2994 80.7213 42.928 80.6562C43.5566 80.5912 44.1094 80.4395 44.1853 80.7754C44.6202 80.6623 45.0475 80.5212 45.4642 80.3528C45.876 80.1793 46.3204 80.071 46.7106 79.865L48.8782 78.7812C50.0055 78.3078 51.1958 78.0011 52.4115 77.8708C52.2814 77.6215 52.1514 77.3722 52.0105 77.1338C52.3031 77.1338 52.5958 77.0688 52.8884 77.0688C53.181 77.0688 53.2352 77.654 52.6391 77.6757C52.9859 78.0876 53.6146 77.2313 53.6471 77.0688C54.2649 77.2205 54.124 77.4698 53.9072 77.654C53.6904 77.8383 53.3978 78.0117 53.5712 78.0117C53.7263 78.0005 53.8821 78.0005 54.0372 78.0117L53.9289 77.9141C54.319 77.5998 54.3949 77.2422 55.1319 77.3722C55.5654 77.6107 55.2836 77.8925 55.4571 77.9575C55.4571 78.0117 55.4571 78.0334 55.7172 78.0334C55.9773 78.0334 56.3675 78.2393 56.6926 78.3585C56.6276 78.1201 56.5517 77.8816 56.465 77.6432C57.0286 77.4698 57.4513 78.0117 57.1912 77.1555C57.2425 77.3273 57.3356 77.4837 57.4621 77.6107C57.6534 77.7711 57.8647 77.9059 58.0908 78.0117C58.6549 78.3071 59.2621 78.512 59.8899 78.6186C61.2013 78.9004 62.4911 78.7595 62.8054 78.9329C63.2359 78.7173 63.6859 78.5431 64.1494 78.4127C64.3878 78.3585 64.6154 78.3152 64.8647 78.2826L65.6342 78.1092C65.3307 78.1092 65.0273 77.4156 65.9052 77.2638C65.9052 77.99 66.4254 78.0659 66.989 77.9358C67.586 77.7126 68.238 77.6822 68.8532 77.8491C68.3871 77.7191 68.9724 77.3289 69.4818 76.9279C69.9912 76.5268 70.3705 76.0716 69.666 76.0066C70.3488 75.6164 70.0237 76.4185 70.7499 76.3101C71.4376 75.4975 72.1917 74.7435 73.0042 74.0557C73.4261 73.6415 73.8242 73.2036 74.1964 72.7443C74.5336 72.2326 74.8101 71.6834 75.0201 71.1077C74.8576 70.9885 74.4566 71.2378 74.3807 70.6525C74.8142 70.3924 75.2694 70.1106 75.7246 69.7963C75.8222 69.2977 74.8034 69.0701 75.6488 68.3873C75.4645 68.474 75.1936 68.5824 75.2044 68.2681C75.2152 67.9538 75.432 67.7262 75.5295 67.4444C75.6271 67.1626 75.6488 66.8699 75.703 66.5773C75.7571 66.2847 75.7897 65.992 75.8222 65.6994C75.8384 65.3998 75.8384 65.0995 75.8222 64.7998C75.8046 64.2035 75.721 63.6111 75.5729 63.0332L75.3561 62.1661C75.2803 61.8735 75.2044 61.5809 75.1394 61.3966C74.8107 60.5612 74.7148 59.6524 74.8618 58.7668C75.0087 57.8812 75.3931 57.0521 75.9739 56.3677C75.497 56.7036 75.5404 56.3677 75.6271 56.0642C75.4753 56.2593 75.1827 55.9233 74.9226 55.8908C75.2885 55.4963 75.6874 55.1337 76.1148 54.8069C75.5729 54.2325 76.8193 53.4413 76.3641 52.9428L76.1907 53.4088C76.0389 52.9319 75.5295 52.8452 74.9551 52.8777C74.3807 52.9102 73.7196 53.0403 73.2969 52.7585C73.4919 53.3655 72.9284 53.7231 72.419 54.265C72.0914 54.508 71.8627 54.8613 71.775 55.2597C71.6874 55.658 71.7467 56.0746 71.9421 56.4327C71.682 56.7145 71.6711 56.0859 71.4002 56.2159C71.7687 56.6928 71.7687 57.1372 71.4977 57.9717L71.3893 57.8742C71.3893 59.0881 71.3243 59.966 71.3243 60.8981C71.3153 61.3939 71.337 61.8898 71.3893 62.3829V62.7948V63.1199V63.8027L71.8662 63.5643C71.8858 63.8348 71.809 64.1036 71.6494 64.3229C72.5165 64.7131 71.4652 63.1416 72.3864 63.4234C72.2826 63.5307 72.202 63.6582 72.1498 63.7981C72.0976 63.938 72.0748 64.0872 72.083 64.2362C72.0486 64.5967 72.0486 64.9596 72.083 65.3201C72.083 66.0571 71.9204 66.7724 71.346 66.8591C71.2159 67.466 71.9854 66.7724 71.8337 67.401L71.476 67.4986L71.8445 67.7478C71.7769 67.9127 71.6517 68.0475 71.4923 68.1272C71.3329 68.2069 71.15 68.2262 70.9775 68.1814C71.0533 68.0947 70.9775 67.8887 70.9775 67.7804C70.762 68.0174 70.6289 68.3177 70.5981 68.6366C70.5331 68.9509 70.5439 69.2652 70.4247 69.3086C70.5728 69.1662 70.7071 69.0102 70.8257 68.8425C70.6039 69.7428 70.1732 70.5782 69.5685 71.2811C69.2975 71.6713 68.9399 71.9856 68.6689 72.3649C68.3493 72.6978 68.0625 73.0608 67.8127 73.4488L68.062 73.568C67.1299 74.6518 67.0323 73.969 65.7751 74.7277V74.6518C65.678 74.826 65.5427 74.9759 65.3794 75.0904C65.2161 75.2049 65.029 75.281 64.8322 75.313C65.1031 74.9336 64.0301 74.9661 64.4095 74.5326C63.8025 74.9553 63.6183 74.9986 63.5316 75.1829C63.388 75.5094 63.186 75.8069 62.9355 76.0608C62.8437 75.9327 62.7604 75.7988 62.6862 75.6598C62.5649 75.861 62.3931 76.027 62.1877 76.1411C61.9823 76.2552 61.7506 76.3135 61.5157 76.3101C62.1768 75.9741 61.0713 75.7031 61.7975 75.2262C61.504 75.0397 61.1759 74.9143 60.8328 74.8577C60.5602 74.8595 60.2882 74.8849 60.02 74.9336C59.5431 74.9336 59.1204 74.9336 59.012 74.2508C57.9282 75.0854 60.0958 75.2371 59.6623 75.3346C59.9224 75.8007 58.8278 75.9416 58.3292 75.6815C57.8306 75.4213 57.8306 73.904 56.0857 73.6005C56.2483 73.6005 56.2808 73.6005 56.4433 73.6005C55.8364 73.1887 55.1427 73.7631 54.3841 73.2645C53.918 73.904 53.3002 73.2645 53.3002 74.0666C53.8133 73.9802 54.3307 73.9223 54.8501 73.8931C53.9289 74.0557 53.2135 74.977 51.8479 74.7277C52.0341 74.4639 52.2839 74.2514 52.5741 74.1099C52.1297 73.8931 51.8154 74.37 51.3494 74.1858C51.3494 73.7522 51.7937 73.6222 52.3681 73.5355C52.9778 73.5206 53.5784 73.3843 54.1348 73.1345C53.6362 72.7334 52.314 73.8064 52.7475 72.8527C52.6386 73.0757 52.4605 73.2574 52.2397 73.3707C52.0189 73.484 51.7674 73.5228 51.5228 73.4813C51.2381 73.4462 50.9493 73.4845 50.6837 73.5927C50.4181 73.7008 50.1846 73.8751 50.0054 74.0991L49.9404 73.5788C49.767 73.6981 49.4743 74.0666 49.1492 74.1533C49.2684 73.8823 49.3985 73.6005 49.5502 73.3187C48.7915 74.1424 47.5451 73.5246 46.7973 74.2616C48.6073 73.3512 47.4801 74.6193 48.3797 74.6085C47.4584 75.3997 47.0466 75.2804 46.5155 75.1287C46.2205 75.0406 45.9105 75.0148 45.6051 75.0528C45.283 75.0412 44.9687 75.1537 44.7272 75.3671C44.8789 75.1937 45.6376 75.2046 45.4425 75.5839C45.0896 75.6939 44.7116 75.6939 44.3587 75.5839C43.3724 76.0825 44.738 76.0066 44.4237 76.4727C43.8059 76.0283 43.9902 76.917 43.5241 77.3072L43.3724 76.8086C41.9742 76.7544 43.2748 78.0008 41.9201 77.8058C42.0744 77.5513 42.212 77.287 42.3319 77.0146C42.1435 77.1231 41.9436 77.2104 41.7358 77.2747L41.79 76.6786C41.6016 76.8785 41.3506 77.0079 41.0785 77.0454C40.8064 77.0828 40.5297 77.0261 40.2943 76.8845C40.3294 77 40.3351 77.1223 40.311 77.2405C40.2869 77.3588 40.2337 77.4691 40.1563 77.5616C40.0788 77.6542 39.9795 77.7259 39.8674 77.7704C39.7552 77.8149 39.6338 77.8308 39.514 77.8166C39.1346 77.4264 39.8066 77.3722 38.9395 77.2747C39.1996 76.982 39.4381 76.6461 39.7416 77.1555C39.8066 76.9821 39.9583 76.8303 40.0125 76.6677C39.6193 76.4398 39.1643 76.3412 38.7119 76.3859C38.8219 76.4184 38.9199 76.4825 38.9937 76.5702C38.777 76.6461 38.5494 76.7436 38.3217 76.8086L37.6281 76.9495C37.5089 76.7003 37.7148 76.6027 37.8991 76.5052C37.6498 76.5052 37.4005 76.6677 37.032 76.5702C37.2813 76.2234 37.4438 75.8007 37.9532 75.7573C37.5606 75.8004 37.1645 75.8004 36.7719 75.7573C36.7719 75.5514 36.5009 75.0637 36.696 74.9878C36.5009 74.7494 36.1324 74.706 35.6772 74.6627C35.4607 74.658 35.2486 74.6002 35.0596 74.4944C34.8706 74.3886 34.7105 74.2379 34.5934 74.0557C34.5348 74.0861 34.4697 74.102 34.4037 74.102C34.3377 74.102 34.2726 74.0861 34.214 74.0557C34.0081 73.7197 33.8672 73.3621 33.6938 73.0369C33.6161 72.8383 33.4994 72.6573 33.3504 72.5046C33.2015 72.3519 33.0234 72.2307 32.8267 72.1482C32.9785 71.8664 33.1411 71.6063 33.3036 71.357C33.0869 71.1077 32.9351 71.357 32.7509 71.5521C32.5666 71.7472 32.3607 71.9422 31.9488 71.4329C31.4286 70.6959 32.4582 70.9018 32.5666 70.555C32.2414 70.4148 31.9469 70.2123 31.6996 69.9588C31.5927 69.8008 31.5293 69.6174 31.516 69.4271C31.5027 69.2368 31.5398 69.0464 31.6237 68.875C31.7971 69.0268 31.7104 69.2435 31.8079 69.4711ZM28.1771 57.549C28.4372 57.6682 29.0333 57.9284 28.9033 58.2644C28.2205 58.3294 28.3397 57.9826 28.1771 57.5165V57.549ZM21.7934 44.1096C21.8909 44.3155 21.7175 44.4889 21.4682 44.6948C21.474 44.5789 21.5064 44.4659 21.5628 44.3644C21.6191 44.2629 21.698 44.1757 21.7934 44.1096ZM59.9983 25.9446C59.9224 25.5111 59.9333 25.6737 59.9983 25.9446V25.9446ZM60.3234 26.7358C60.3434 26.7424 60.3644 26.7448 60.3853 26.7428C60.4062 26.7408 60.4264 26.7346 60.4447 26.7244C60.4631 26.7142 60.4791 26.7003 60.4918 26.6836C60.5045 26.667 60.5136 26.6478 60.5185 26.6274C60.3776 26.6274 60.2584 26.5407 60.1609 26.3456C60.085 26.4757 60.0742 26.6708 60.3234 26.7358ZM55.5546 77.7516L55.4137 77.6107C55.8147 77.5023 55.6847 77.6107 55.5546 77.7516Z" fill="white"/>
<path d="M21.9777 45.9844C21.8808 46.0003 21.7819 46.0003 21.6851 45.9844C21.7609 46.1036 21.8693 46.1795 21.9777 45.9844Z" fill="white"/>
<path d="M45.5076 23.9609C45.3573 23.9482 45.2141 23.8917 45.0957 23.7983C45.0957 23.9284 45.2474 23.9934 45.5076 23.9609Z" fill="white"/>
<path d="M64.2036 28.5129L63.7051 28.437C63.9327 28.502 63.9652 28.6429 64.0411 28.773C64.0844 28.6538 64.0627 28.4587 64.2036 28.5129Z" fill="white"/>
<path d="M68.6145 32.5665C68.7229 32.5665 68.8204 32.5665 68.9288 32.5665V32.3172C68.5169 32.2414 68.2026 32.4148 68.6145 32.5665Z" fill="white"/>
<path d="M64.041 30.3124C63.9326 30.7351 64.3445 30.7243 64.7672 30.7568H64.6913C64.9731 30.1715 64.5179 30.2582 64.041 30.3124Z" fill="white"/>
<path d="M64.8647 30.7674C64.9947 30.7697 65.1232 30.7954 65.2441 30.8432C65.3416 30.6156 65.1032 30.7565 64.8647 30.7674Z" fill="white"/>
<path d="M61.2559 27.299C61.3101 27.4941 61.7111 26.9522 61.6677 27.1473C62.1771 26.8871 60.3888 26.8546 61.2559 27.299Z" fill="white"/>
<path d="M63.9111 31.7862V31.2227L63.5317 31.5586C63.6541 31.6411 63.7807 31.7171 63.9111 31.7862Z" fill="white"/>
<path d="M60.8765 29.8139C61.039 29.9873 61.2016 30.1824 61.3859 30.3449C61.3859 30.2582 61.5376 30.2582 61.6568 30.2908C61.2775 30.0523 60.9523 29.6621 60.8765 29.8139Z" fill="white"/>
<path d="M61.6567 30.2905C61.8079 30.4201 61.9996 30.4929 62.1987 30.4965C62.0243 30.4123 61.843 30.3434 61.6567 30.2905Z" fill="white"/>
<path d="M62.8922 31.5909L62.7296 31.3959L62.2744 31.1357L62.8922 31.5909Z" fill="white"/>
<path d="M55.5872 23.8637L54.8502 23.4844C54.6768 23.5928 54.7852 23.8095 55.0778 23.9396C55.3705 24.0696 55.5764 24.0805 55.5872 23.8637Z" fill="white"/>
<path d="M56.1726 26.6706C56.1726 26.443 56.2268 26.3563 56.2918 26.1504L55.7607 26.5622L56.1726 26.6706Z" fill="white"/>
<path d="M54.59 25.1747C54.4057 25.2614 53.4303 24.9796 54.1673 25.4782C54.3624 25.3481 54.9693 25.76 54.59 25.1747Z" fill="white"/>
<path d="M43.9143 22.5303L44.0986 22.4544L43.7192 21.4248L43.9143 22.5303Z" fill="white"/>
<path d="M39.2865 30.865C39.6333 30.3556 39.4924 30.2256 39.3515 30.1497C39.2106 30.0738 39.0806 29.9763 39.3515 29.727C39.1889 29.4561 38.8638 30.1497 38.7229 29.9004C38.7879 30.5616 38.4845 30.9084 39.2865 30.865Z" fill="white"/>
<path d="M38.7552 29.9219C38.7649 29.8282 38.7649 29.7338 38.7552 29.6401C38.7365 29.7331 38.7365 29.8289 38.7552 29.9219Z" fill="white"/>
<path d="M77.0359 54.2539C77.1776 54.1533 77.3261 54.0628 77.4803 53.9829H77.0034L77.0359 54.2539Z" fill="white"/>
<path d="M76.895 52.9968L77.5237 53.3327L77.3611 53.0184L77.2852 52.8559V52.78L75.7354 51.4902L77.2094 52.6824V52.7366L77.1443 52.845C77.1271 52.8955 77.0928 52.9384 77.0472 52.9661C77.0016 52.9938 76.9478 53.0047 76.895 52.9968Z" fill="white"/>
<path d="M27.7544 54.9585L27.5918 55.0452C27.5918 55.262 27.6893 55.4029 27.9386 55.6847L27.7544 54.9585Z" fill="white"/>
<path d="M32.1333 64.7238L32.1225 64.5396L31.5264 64.9406L32.1333 64.7238Z" fill="white"/>
<path d="M33.4984 70.5657C33.4984 70.3815 33.2817 70.2189 33.2491 70.0347C33.4767 70.3707 32.7723 70.9017 33.4984 70.5657Z" fill="white"/>
<path d="M59.5106 50.5147C59.5106 50.6123 59.9225 50.5798 60.0092 50.5906C59.9008 50.3738 59.3914 50.5147 59.5106 50.5147Z" fill="white"/>
<path d="M58.3507 49.0514H58.5458L58.0581 48.9214L58.3507 49.0514Z" fill="white"/>
<path d="M58.1017 47.751C57.3864 48.0978 58.3401 48.1737 58.1017 48.488L57.9391 48.5638H58.5786C58.4052 48.2495 57.9175 48.0111 58.1017 47.751Z" fill="white"/>
<path d="M59.3806 46.4614C59.1097 46.624 59.0772 46.3856 59.3806 46.6782C59.3928 46.6551 59.4117 46.6362 59.4348 46.624C59.4055 46.5742 59.3871 46.5188 59.3806 46.4614Z" fill="white"/>
<path d="M59.4131 46.6237C59.489 46.7646 59.619 46.4286 59.4131 46.6237V46.6237Z" fill="white"/>
<path d="M58.958 45.9843L59.294 46.071C59.4457 45.9626 59.3915 45.7675 59.5433 45.7783C59.3048 45.6266 59.1856 45.7567 58.958 45.9843Z" fill="white"/>
<path d="M58.3618 46.0496L58.5136 46.1038C58.5786 46.0496 58.5894 46.0171 58.3618 46.0496Z" fill="white"/>
<path d="M58.828 46.1796L58.5137 46.082C58.4162 46.1579 58.1886 46.2663 58.6329 46.1362C58.427 46.2338 58.6438 46.1796 58.828 46.1796Z" fill="white"/>
<path d="M58.7737 46.3745C58.6761 46.5479 58.6219 46.7213 58.3076 46.6346C58.5352 46.9489 59.0338 46.6997 58.7737 46.3745Z" fill="white"/>
<path d="M57.2779 47.9351L57.1045 48.1193H57.3754C57.2454 48.1301 57.5163 47.8483 57.2779 47.9351Z" fill="white"/>
<path d="M58.6652 44.6079C58.5134 44.6838 58.3292 44.9005 58.1558 45.0198H58.405C58.4592 44.9331 58.4592 44.7488 58.6652 44.6079Z" fill="white"/>
<path d="M58.156 45.02H57.7983C57.8742 45.1718 58.0151 45.0959 58.156 45.02Z" fill="white"/>
<path d="M57.5813 46.3965L58.2642 46.4615L57.5488 46.3423L57.5813 46.3965Z" fill="white"/>
<path d="M58.145 43.8169L58.546 43.7085L57.9282 43.8494L58.145 43.8169Z" fill="white"/>
<path d="M57.7112 43.3722C58.0255 43.253 58.0255 42.917 58.2531 42.8737C58.015 42.7876 57.7542 42.7876 57.5161 42.8737C57.7112 42.9278 57.7871 43.0687 57.7112 43.3722Z" fill="white"/>
<path d="M57.1157 42.9929C57.2511 42.9775 57.3851 42.9522 57.5167 42.917C57.379 42.9104 57.2416 42.9364 57.1157 42.9929Z" fill="white"/>
<path d="M57.6572 44.619C57.7222 44.5431 57.9173 44.3697 57.9282 44.1963L57.603 44.5323L57.6572 44.619Z" fill="white"/>
<path d="M57.6898 45.7134C57.408 45.7134 57.0395 45.7134 56.8228 46.071C57.1371 45.9843 57.2563 45.7459 57.6898 45.7134Z" fill="white"/>
<path d="M57.2563 45.0957V45.345C57.3593 45.2409 57.4857 45.1629 57.6248 45.1174L57.2563 45.0957Z" fill="white"/>
<path d="M57.061 45.0413L57.2561 45.0521L57.2344 44.9546L57.061 45.0413Z" fill="white"/>
<path d="M57.0829 43.6107C57.01 43.633 56.9326 43.6357 56.8584 43.6186C56.7842 43.6015 56.7158 43.5651 56.6602 43.5132C56.6725 43.6622 56.7334 43.8031 56.8336 43.9142C56.9528 43.8275 57.1912 43.7083 57.0829 43.6107Z" fill="white"/>
<path d="M55.75 42.646V42.7327L55.8042 42.6677L55.75 42.646Z" fill="white"/>
<path d="M56.7793 44.0119C56.7793 44.142 56.9093 44.1094 57.0502 44.0661C56.9678 44.0425 56.893 43.9977 56.8335 43.936C56.8335 43.936 56.7468 44.0119 56.7793 44.0119Z" fill="white"/>
<path d="M56.7036 42.9281C56.676 43.0273 56.6579 43.1289 56.6494 43.2315C56.7253 43.0473 56.8011 42.8088 56.7036 42.9281Z" fill="white"/>
<path d="M57.354 44.0121C57.4082 43.9145 57.4407 43.882 57.354 44.0121V44.0121Z" fill="white"/>
<path d="M57.3536 44.012C57.2421 43.9967 57.1291 43.9967 57.0176 44.012C57.0925 44.0291 57.1703 44.0291 57.2452 44.012C57.2812 44.0162 57.3176 44.0162 57.3536 44.012Z" fill="white"/>
<path d="M53.6363 44.7706C53.8964 44.4346 54.33 44.2504 54.1566 44.7706C54.8144 44.226 55.3467 43.5458 55.7173 42.7764C55.5754 42.9553 55.3693 43.072 55.1428 43.1015C55.067 43.3291 55.1428 43.8277 54.7743 44.0011C54.4275 44.0011 54.6985 43.7518 54.7743 43.4917C54.5359 43.9794 54.0373 43.9035 53.6255 44.5755L53.9506 44.478C53.8314 44.5322 53.658 44.6514 53.6363 44.7706Z" fill="white"/>
<path d="M56.0208 43.0581H56.1183C56.1226 42.8307 56.1704 42.6063 56.2592 42.397C56.073 42.422 55.9009 42.51 55.7715 42.6463L56.0858 43.0148L56.0208 43.0581Z" fill="white"/>
<path d="M56.4434 43.3833C56.0532 43.6435 55.7606 43.6543 55.5005 44.0987C55.7064 44.2504 55.9015 43.9578 56.1508 43.9253C55.7823 43.6868 56.4326 43.8386 56.4001 43.4159C56.494 43.4242 56.5839 43.4579 56.6602 43.5134C56.6489 43.4053 56.6489 43.2964 56.6602 43.1883C56.6602 43.2533 56.6602 43.275 56.6602 43.2425L56.5193 43.3508C56.5193 43.1774 56.5843 43.2425 56.6602 43.2425V43.1883L56.1399 43.0474C56.1508 43.1991 56.2483 43.2641 56.4434 43.3833Z" fill="white"/>
<path d="M55.8584 46.4181L55.9451 46.353C55.9342 46.3639 55.8475 46.3747 55.8584 46.4181Z" fill="white"/>
<path d="M56.0207 46.1795C56.0857 46.1795 56.2591 46.0819 56.2591 46.1795C56.2591 46.277 56.0749 46.2987 55.9448 46.3854C56.0446 46.3902 56.1436 46.3662 56.2301 46.3162C56.3166 46.2663 56.3869 46.1924 56.4325 46.1036H56.3675C56.4823 45.83 56.6519 45.5828 56.8661 45.3774C56.5658 45.6247 56.2834 45.8927 56.0207 46.1795Z" fill="white"/>
<path d="M56.2377 44.8789L55.8367 44.7705L55.6416 45.1498L55.8259 44.9873C55.8692 45.1932 56.0751 44.9764 56.2377 44.8789Z" fill="white"/>
<path d="M55.8691 42.4401L56.2268 42.0933L55.5981 42.4943L55.8691 42.4401Z" fill="white"/>
<path d="M55.4248 42.1802L55.6958 41.8442L55.4356 41.9743L55.4248 42.1802Z" fill="white"/>
<path d="M44.6189 52.769L44.4238 52.8449C44.4933 52.8331 44.5597 52.8073 44.6189 52.769Z" fill="white"/>
<path d="M43.7191 41.7031C43.3723 41.4538 42.8521 41.042 43.1339 41.4322L43.4373 41.8007C43.4915 41.6706 43.5999 41.6598 43.7191 41.7031Z" fill="white"/>
<path d="M41.7465 49.0406H41.8983L41.4756 48.8672L41.7465 49.0406Z" fill="white"/>
<path d="M43.6542 49.4854L43.3398 49.5612C43.4478 49.5518 43.5538 49.5262 43.6542 49.4854Z" fill="white"/>
<path d="M46.5806 54.3408L46.8949 53.9831C46.819 53.9398 46.7106 54.1566 46.5806 54.3408Z" fill="white"/>
<path d="M50.645 40.3808C50.5767 40.2386 50.462 40.1239 50.3198 40.0557C50.5149 40.3483 50.5149 40.7602 50.645 40.3808Z" fill="white"/>
<path d="M40.3379 55.4139C40.44 55.4259 40.5431 55.4029 40.6305 55.3488C40.58 55.3371 40.5275 55.3368 40.4768 55.3481C40.4262 55.3594 40.3787 55.3818 40.3379 55.4139Z" fill="white"/>
<path d="M49.897 40.0233L49.9728 40.1317C50.0201 40.0917 50.0764 40.0639 50.1368 40.0507C50.1973 40.0375 50.2601 40.0393 50.3197 40.0559C50.2113 39.8283 50.0704 39.6765 49.897 40.0233Z" fill="white"/>
<path d="M58.8384 51.8369C58.8498 51.8978 58.8498 51.9603 58.8384 52.0212C58.8384 52.0212 58.8926 51.9345 58.8384 51.8369Z" fill="white"/>
<path d="M48.9214 42.9282C48.9324 43.0053 48.9434 43.0163 48.9214 42.9282V42.9282Z" fill="white"/>
<path d="M53.8204 41.2048C53.812 41.1394 53.7898 41.0766 53.7554 41.0205C53.769 41.0845 53.7909 41.1464 53.8204 41.2048Z" fill="white"/>
<path d="M53.9072 40.9988L53.9723 41.0747C54.0156 41.0097 54.0264 40.9663 53.9072 40.9988Z" fill="white"/>
<path d="M53.6255 40.9014C53.654 40.9116 53.6802 40.9274 53.7025 40.9479C53.7249 40.9683 53.7429 40.9931 53.7556 41.0206C53.7487 40.9921 53.7487 40.9624 53.7556 40.9339L53.6255 40.9014Z" fill="white"/>
<path d="M50.0054 56.7362C50.0379 56.617 50.0596 56.5736 50.0054 56.7362V56.7362Z" fill="white"/>
<path d="M45.1501 46.7971L45.1393 46.7754H45.1284L45.1501 46.7971Z" fill="white"/>
<path d="M45.28 47.1768C44.9007 46.7324 44.9874 46.7324 45.1283 46.7758L44.0444 45.9087C44.4563 46.3422 44.8681 46.7649 45.28 47.1768Z" fill="white"/>
<path d="M45.4642 53.8315L45.7027 53.463C46.3204 53.1161 46.1904 53.3329 46.5697 52.8669C45.4859 53.8315 46.2121 52.6718 45.0307 53.528L45.2258 53.2787H45.3016C45.7894 52.7585 44.3587 53.7881 44.4021 53.4521C44.4391 53.3725 44.4933 53.3021 44.5608 53.2459C44.6282 53.1897 44.7073 53.1491 44.7922 53.127H44.3804C44.3804 53.062 44.608 52.9536 44.608 53.0078L44.3912 52.8235C44.1479 52.9 43.8973 52.9508 43.6434 52.9752C43.806 52.8235 43.806 52.9752 43.9685 52.856H43.5675C43.8927 52.6501 44.2828 52.6284 44.2828 52.7476C45.5618 52.0323 43.8818 52.7476 44.5755 52.1841H44.7922C45.5509 51.8156 45.2366 51.8372 45.6918 51.5771C45.2055 51.86 44.6845 52.0786 44.1419 52.2274C44.2395 52.1515 44.2612 52.0865 43.9469 52.0865C44.4563 51.9239 44.3154 51.8914 44.2612 51.7939L44.9331 51.6205C44.6394 51.624 44.3462 51.6457 44.0552 51.6855C44.0552 51.5446 44.5972 51.4145 45.0415 51.2953C45.1282 51.1111 44.2178 51.5988 44.0552 51.3929C44.3045 51.1869 43.9794 51.1327 43.5675 50.9485C43.7951 50.8076 43.9902 50.9485 44.1853 50.8726L43.6217 50.8076C43.6217 50.8076 43.806 50.8076 43.8927 50.8076C43.6759 50.7317 43.199 50.8076 43.0039 50.6884C42.2344 50.6342 44.0877 50.3632 43.264 50.1573C43.4951 50.144 43.7267 50.144 43.9577 50.1573C43.5901 49.9498 43.21 49.7652 42.8197 49.6045L43.3074 49.4853C42.734 49.4892 42.1748 49.3066 41.7142 48.9651C41.5181 48.9709 41.3227 48.989 41.1289 49.0193L40.8254 48.6074C41.0428 48.6207 41.2541 48.6837 41.4432 48.7917L41.3023 48.6941C41.6542 48.6883 42.0016 48.7742 42.3103 48.9434H41.8659C42.2723 49.1539 42.7014 49.3176 43.1448 49.4311C43.0774 49.4024 43.0179 49.3578 42.9714 49.3011C43.0611 49.34 43.1561 49.3656 43.2532 49.3769C43.3291 49.3769 43.1773 49.3769 43.0148 49.2577L43.7843 49.3661L43.4916 49.2794L44.0336 49.106C43.3291 48.705 42.3428 48.1197 42.2127 47.5453C42.6737 47.8104 43.1603 48.0283 43.6651 48.1956C42.9714 48.0222 43.8493 48.5857 43.6651 48.6941C43.7626 48.6291 44.0552 48.7592 44.1636 48.8133C43.9902 48.6508 43.8276 48.4665 43.6651 48.2823C44.1636 48.499 44.0661 48.369 44.3154 48.3907C43.2857 48.0113 43.7626 47.8704 43.5242 47.5886C43.8601 47.7512 44.1745 47.9571 44.0227 48.0547C44.8248 48.2823 42.9389 47.2526 43.7084 47.4044C43.7084 47.4044 43.6325 47.4044 43.7843 47.5453C43.5567 47.296 43.9143 47.2093 44.1528 47.4369C44.3912 47.2635 44.6297 46.7866 43.9469 46.1471L44.9223 47.0142C44.1895 46.2439 43.5225 45.4137 42.9281 44.5322C43.7145 45.2155 44.4398 45.9662 45.0957 46.7758C45.2258 46.7758 45.3558 46.8408 45.2583 46.559C44.9237 46.3207 44.6214 46.0402 44.3587 45.7244C45.1065 46.2338 44.7922 45.9737 45.4425 46.3964C45.28 46.3097 44.5104 45.3126 44.6297 45.3126C44.738 45.4643 45.4317 46.2447 45.4967 46.3964C45.287 46.0451 45.0953 45.6834 44.9223 45.3126C45.1696 45.7114 45.4684 46.0758 45.811 46.3964C45.6485 46.223 45.9953 46.2989 45.9736 46.158L45.7243 45.9954C46.0386 45.9954 44.9982 44.4022 45.3558 44.2613C45.5763 44.7887 45.8882 45.273 46.2771 45.6919C45.9953 45.1283 45.1065 42.9065 45.3016 42.2779L45.5184 42.5705C45.5466 42.4053 45.5864 42.2423 45.6376 42.0828C45.8469 43.3221 46.1255 44.5488 46.4722 45.757C46.6889 45.952 46.6889 46.1146 46.8082 46.0171C47.0032 46.2989 46.9707 46.5048 46.9491 46.5373L47.3067 46.6023C46.9924 45.9412 47.2309 45.8328 47.0032 45.2801C46.9868 45.5616 46.9868 45.8439 47.0032 46.1255C46.6564 45.4968 46.3421 44.1312 46.7215 44.1421C46.9293 44.5712 47.1102 45.0128 47.2634 45.4643C47.2092 45.2259 47.3392 44.9332 47.4151 45.085V45.4968C47.621 45.7136 47.3392 44.4889 47.7186 45.1175C47.7944 45.1175 48.1088 45.9846 48.0112 45.5619C47.5873 44.2893 47.2505 42.9893 47.0032 41.6709C47.3362 41.9813 47.6114 42.3482 47.8161 42.7548C48.0437 43.3834 47.9137 44.3155 48.1196 44.8465C48.0986 44.6701 48.0986 44.4919 48.1196 44.3155C48.2171 44.478 48.1955 44.9332 48.3255 44.8249C48.2388 44.0879 48.629 44.8249 48.3255 44.1962C48.4447 43.9686 48.4989 44.3046 48.6723 44.2721C48.5812 43.6451 48.6598 43.0051 48.8999 42.4188C48.9084 42.6014 48.9338 42.7828 48.9758 42.9607C49.3552 42.9607 49.5286 43.3725 49.8537 43.3834C49.912 43.6183 49.912 43.8638 49.8537 44.0987C49.9079 43.9795 49.9838 43.741 50.0813 43.7302C50.168 44.3913 49.8646 43.8061 49.9079 44.5864C49.9621 44.1637 50.2005 44.0337 50.3848 43.7844C50.4498 43.1233 50.0705 43.611 49.9187 43.8603C49.9464 43.0376 50.2969 42.2589 50.8942 41.6926C51.2735 41.53 50.8942 42.2995 51.0026 42.1803C51.5228 42.4838 51.9455 40.7497 52.2815 41.5734C52.2062 42.0969 52.0489 42.6053 51.8154 43.0799C51.5228 43.1991 51.577 42.603 51.4036 42.5813L51.5228 42.9065C51.3927 43.0691 51.1977 43.1666 51.1651 42.9824C51.1651 43.5134 52.0214 43.34 52.1948 43.9686C52.3357 43.8169 52.5416 43.6977 52.5958 43.4592H52.4332C52.5091 42.9715 52.9535 42.9824 52.8776 42.7114C53.1919 42.5055 53.6688 42.1261 53.7988 42.5271L53.5062 43.1341C53.6038 42.9607 53.5062 42.6897 53.3762 42.8306C53.6363 42.6355 53.2894 43.8169 53.853 43.1449L53.9181 42.6464C54.2649 42.473 54.9043 42.0177 55.0019 42.3754C55.262 41.7576 54.9043 42.3754 55.1645 41.6384C54.796 42.5271 54.525 41.2049 54.2541 42.2128C54.525 41.3349 54.1457 41.6926 54.2541 40.8906C54.1565 41.0857 54.1457 41.3024 53.9723 41.0965L53.8314 41.2482C53.8527 41.3665 53.8527 41.4876 53.8314 41.6059C53.4954 41.9961 53.1702 41.8227 52.9535 42.0177C52.8776 41.866 53.1052 41.8118 53.1377 41.5625L52.8126 41.8443C52.986 41.3891 52.7475 40.9664 53.1811 40.8255L52.8884 40.6846C52.8126 40.3703 52.585 40.1644 52.3682 40.3161C52.249 40.1752 51.848 40.7388 52.0864 40.4028L51.5228 40.5763V40.457C51.0351 40.2836 50.439 41.064 49.9946 40.1427C49.8212 40.2619 49.6478 40.4028 49.3768 40.2511V39.8284C49.1709 39.9693 48.7049 39.4274 48.629 39.8284C48.3147 38.6904 47.5452 39.6875 47.1225 39.5575L47.2092 40.0994C46.9491 40.0994 46.7323 40.3378 46.4938 40.6305L46.6347 41.0965C46.5047 41.53 45.9086 40.9556 45.5509 41.1615C45.5509 40.9773 45.6268 40.9773 45.7352 41.064C45.3016 40.6305 45.1065 40.9231 44.9765 41.2591C44.8464 41.5951 44.7489 41.931 44.3587 41.6926C44.3587 41.9094 44.2503 41.8985 44.1203 41.8335L43.8493 41.6926C43.8977 41.7491 43.9522 41.8 44.0119 41.8443C43.9158 41.9395 43.8483 42.0596 43.8168 42.1912L43.4375 41.8443C43.2098 41.7576 43.4375 42.1045 43.7626 42.3971C43.7374 42.515 43.7374 42.6369 43.7626 42.7548C43.1882 42.1261 43.6651 43.1774 43.0256 42.538C43.2099 42.9282 42.7113 43.1991 43.2966 43.9361C43.2099 43.8494 43.1448 43.8277 43.1882 43.7736C43.0256 43.7736 42.8522 43.7735 42.9389 44.0662L42.4403 43.6327C42.5704 43.9036 42.7113 44.1854 42.863 44.4672C42.6704 44.4155 42.4916 44.3216 42.3398 44.1922C42.1879 44.0629 42.0668 43.9013 41.9851 43.7194C42.2669 44.5756 41.9851 44.1962 42.3211 44.9658L41.996 44.6731C41.9309 44.7923 42.2669 45.3017 41.9418 45.15C41.0747 44.8899 41.053 46.2338 40.0776 46.6132C41.2915 46.9708 39.4056 46.7324 40.316 47.1334C40.0234 47.0684 39.8175 47.1334 39.6224 46.895C39.7633 47.3827 38.9504 47.3502 39.6766 47.8596C39.3731 47.8596 39.2756 47.6537 39.0913 47.6428C39.1455 47.697 39.3081 47.8487 39.0913 47.8379C38.8745 47.8271 38.8637 47.7187 38.7553 47.6103C38.6903 48.0655 39.579 48.3148 40.4136 48.5316C39.9692 48.6291 40.0017 48.7483 40.5436 48.9868C40.251 48.9868 39.9475 49.0626 39.8825 48.8025C39.8175 48.9217 39.3406 49.5937 40.0342 49.6696C39.8608 49.6696 39.98 49.8538 40.0342 49.8972C39.98 50.1898 39.915 50.2115 39.9692 50.5041L40.0776 50.4283C40.9121 50.5475 40.2618 50.6559 40.3811 50.8835H40.2944C39.7199 51.447 40.5762 51.0785 39.9475 51.6747L40.5436 51.5988C41.6275 51.5012 39.9584 52.1407 40.4353 52.39L40.7062 52.2274C41.0964 52.2816 39.3297 52.9969 39.243 53.2462C39.1672 53.3112 39.0805 53.2462 38.9938 53.1812C38.4844 53.8531 39.6657 53.0728 39.915 53.3654C39.579 53.5388 38.9938 53.5497 39.0046 53.8206C38.777 54.0591 40.3594 54.1133 39.8391 54.666C39.9313 54.5669 40.0441 54.4893 40.1696 54.4387C40.2951 54.3881 40.4302 54.3658 40.5653 54.3734C40.7496 54.5251 39.8933 55.4572 40.8038 55.2513C40.7568 55.3103 40.6977 55.3583 40.6303 55.3922C40.9338 55.3922 41.2806 55.7282 41.7142 55.5548C41.0097 56.1183 41.389 56.2484 41.7142 56.3134C42.0393 56.3785 42.4078 56.3893 41.7792 56.9312L42.2452 57.3106L42.1152 57.4081C42.2994 57.7658 42.6896 57.5598 43.0364 57.4081C43.0364 57.549 42.8739 57.6249 42.8088 57.6791C42.9822 58.2968 43.1231 58.286 43.8927 57.8741L43.6217 58.3402C43.871 58.1559 43.8276 59.4999 44.6297 59.2181C44.5854 59.2876 44.5305 59.3498 44.4671 59.4023C44.8898 59.2506 45.0415 59.76 45.28 60.0635C45.5184 60.3669 45.7894 60.5187 46.1904 59.6191C46.353 59.5216 46.5264 59.3915 46.6889 59.2723C46.2771 59.0013 46.9924 58.4702 46.9057 58.1126C47.0791 58.0367 47.1767 58.7846 46.9057 58.8279V58.7304C46.5589 59.695 47.3717 59.2289 47.22 59.9009C48.1772 60.2116 49.1601 60.4365 50.1572 60.5729L49.9729 59.7925H50.2872C50.3956 59.9551 50.4932 60.3886 50.2872 60.3886C50.4823 60.8113 50.6449 59.9551 50.6124 59.7817C51.1218 60.031 50.6124 60.7246 50.7208 60.7246L50.9159 60.6379L50.8508 60.5512C50.9592 60.1935 50.905 59.8792 51.176 59.8467C51.4469 59.8142 51.3819 60.3019 51.4578 60.3128C51.5336 60.3236 51.4578 60.3886 51.577 60.3128H52.0105L51.6745 59.76C51.7612 59.4132 52.043 59.6841 51.6745 59.0555C51.7192 59.146 51.7816 59.2265 51.8582 59.2922C51.9348 59.3578 52.0238 59.4074 52.12 59.4377C52.2162 59.4681 52.3175 59.4787 52.4179 59.4689C52.5183 59.4591 52.6157 59.4291 52.7042 59.3807C53.0402 59.2398 53.3111 59.0013 53.4629 59.1097C53.4629 58.6111 53.6796 58.4811 53.9723 58.3727C53.8314 58.3077 53.4303 57.7224 53.6796 57.6791C54.4058 58.9471 54.4058 57.95 55.2078 58.6437C54.6334 58.221 55.7064 58.0259 54.8393 57.4623C55.0778 57.4081 55.197 57.8633 55.5546 58.0042C55.5546 57.2455 56.6385 57.4406 56.9853 56.747C56.8336 56.6169 56.5409 56.5302 56.4 56.2376C56.7198 56.3493 57.0454 56.4434 57.3755 56.5194C57.3755 56.3568 56.5518 55.804 57.2237 55.9666C57.072 55.9666 56.8444 55.8149 56.8444 55.7173C57.1522 55.5629 57.4142 55.3305 57.6043 55.0434C57.7945 54.7563 57.9061 54.4244 57.9282 54.0807C57.9826 53.7005 58.1296 53.3395 58.3564 53.0295C58.5833 52.7195 58.8829 52.4701 59.2288 52.3033C58.8386 52.4333 58.817 52.3033 58.8278 52.1624C58.7303 52.2382 58.3618 52.0865 58.1016 52.0648C58.3618 51.9239 58.6327 51.783 58.8928 51.6096C58.1883 51.447 58.8928 51.0135 58.1883 50.9268L58.3076 51.1002C57.5055 50.8618 56.4976 51.2953 55.4679 51.1653C55.9231 51.2845 55.5763 51.382 55.262 51.4687C54.9477 51.5554 54.6984 51.6313 55.327 51.8914C55.1103 51.8914 55.0019 51.7722 54.7634 51.7614C55.197 51.9131 55.262 52.0215 55.0236 52.119H54.926C54.926 52.5634 54.4383 52.6176 54.0048 52.8885L54.4925 53.0619C54.3624 53.1057 54.2216 53.1057 54.0915 53.0619C54.7526 53.4955 54.2541 52.8343 54.9911 53.2787C53.9939 52.9644 54.6442 53.9615 53.5604 53.4196C53.4845 53.5388 54.0915 53.6906 54.0048 53.8206L53.7663 53.4955L54.1023 53.7556C53.9939 53.7556 53.6254 53.6039 53.3978 53.4521C53.3978 53.4521 53.3978 53.3654 53.3978 53.3329C53.0185 53.2028 53.3111 53.6581 53.1919 53.6255H53.4195C53.4195 54.1458 52.8017 54.1675 52.9426 54.9153L53.1269 55.0779C53.1269 55.6306 52.7584 55.0779 52.6175 55.403V55.3488C52.7042 55.5873 52.6825 55.739 52.6175 55.7607C52.5416 55.4789 52.1839 55.3813 52.1189 55.0562C52.1189 55.6306 52.1948 55.4681 52.4115 56.3676L52.1731 56.0425C52.2706 56.4001 52.3465 56.5736 52.1731 56.747C52.1731 56.3676 51.8154 56.2484 51.7721 55.7607C51.1326 55.1104 51.5878 56.7903 51.0026 55.6415C51.1977 56.7253 51.5011 56.1183 51.4903 56.3785C51.7071 56.6819 51.642 57.213 51.4903 57.148C51.3386 57.0829 50.7316 55.8691 50.5148 55.9341V55.8474C50.3523 55.5873 50.4065 56.2809 50.1897 55.8474C50.1897 56.5194 50.0163 55.8474 50.1355 56.6819L50.374 56.4435C50.2764 56.6819 50.2547 57.7007 49.8971 57.2672C49.9162 57.0808 49.9488 56.8961 49.9946 56.7144C49.8862 56.476 49.8645 56.9095 49.7562 56.6603C49.6911 55.8149 50.0705 56.4218 50.1138 55.7498C49.9946 55.403 49.9296 56.411 49.8754 55.4789C49.8754 56.6711 49.6153 55.3705 49.5069 56.2701V55.7607C49.5069 55.8365 49.4419 56.0858 49.3768 56.075L49.4419 55.403C49.3226 55.9774 49.1817 54.9261 49.0625 55.2188C49.3226 55.2188 49.1167 55.8474 49.2359 56.2267C48.8349 56.8987 49.0517 54.8719 48.7049 55.1429C48.759 55.0779 48.8566 55.4572 48.759 55.6957C48.661 55.5126 48.6124 55.3071 48.6181 55.0995C48.3689 55.1754 48.6181 55.6306 48.4447 55.9341C48.4447 55.2946 48.2822 56.1617 48.1088 56.3459L48.2063 55.8257C47.9787 55.4464 47.892 56.9095 47.6861 56.411L47.9787 55.739L47.7944 55.8799L47.9679 55.3163C47.7186 55.6957 47.6861 55.5873 47.6102 55.3813C47.5235 55.739 47.2959 56.2701 47.1441 56.2376C47.1441 55.9124 47.3717 55.7824 47.1441 55.7932C47.3067 55.5006 47.4801 55.1321 47.3934 55.6089L47.6102 55.1537C47.6102 54.7852 47.4259 55.002 47.3609 54.9912C47.2959 54.9803 47.3609 54.9912 47.3609 55.1212C47.195 55.3193 47.0177 55.5075 46.8298 55.6848C46.8744 55.5194 46.9518 55.3646 47.0574 55.2296C46.9924 55.2296 46.8515 55.4572 46.754 55.468C46.9013 55.1389 47.0947 54.8323 47.3284 54.5576L46.9165 54.8828C46.969 54.669 47.0454 54.4617 47.1441 54.265C47.1441 53.9832 46.4722 54.8177 46.4938 54.4384C46.4501 54.5005 46.3901 54.5492 46.3204 54.5793C46.2337 54.3842 46.4505 53.929 45.9411 54.2325L46.3746 53.593C46.147 53.593 45.8436 54.4059 45.4425 54.4384C45.0415 54.4709 45.8436 53.929 45.9519 53.7339C45.6268 53.9507 44.9223 54.33 45.2691 53.799C45.4425 53.7664 45.3883 53.8315 45.4642 53.8315ZM44.1745 52.2924C44.2937 52.2924 44.6297 52.2382 44.3479 52.3791C43.7734 52.5526 44.0119 52.4117 44.1745 52.2924ZM42.8305 48.8784C42.9822 48.9542 42.8955 48.9868 42.6788 49.0084C42.6463 48.9434 42.6788 48.9001 42.8305 48.8784ZM52.5199 40.8797C52.4007 40.6521 52.4332 40.7605 52.5199 40.8797V40.8797ZM52.7692 41.2157C52.7976 41.1913 52.8209 41.1615 52.8376 41.128C52.8544 41.0945 52.8643 41.058 52.8668 41.0206C52.7909 41.1398 52.715 41.1182 52.65 41.0206C52.6175 41.1832 52.6825 41.2916 52.7692 41.2157ZM51.5228 60.031L51.4253 59.9117C51.5336 59.7275 51.5336 59.8684 51.5228 60.031Z" fill="white"/>
<path d="M43.4263 49.4312H43.1445C43.2372 49.4529 43.3336 49.4529 43.4263 49.4312Z" fill="white"/>
<path d="M46.5156 54.4059V54.4167L46.5807 54.3408L46.5156 54.4059Z" fill="white"/>
<path d="M48.2174 45.0956C48.1691 45.013 48.1292 44.9259 48.0981 44.8354C48.1198 44.9438 48.1523 45.0956 48.2174 45.0956Z" fill="white"/>
<path d="M54.8502 41.2804H54.5684C54.6876 41.2804 54.6551 41.4429 54.6659 41.5405C54.7743 41.4213 54.8502 41.2478 54.8502 41.2804Z" fill="white"/>
<path d="M54.373 44.9332C54.373 44.9332 54.373 44.9332 54.4706 44.9332L54.6331 44.749C54.5464 44.684 54.3622 44.7815 54.373 44.9332Z" fill="white"/>
<path d="M54.1351 42.863C53.9183 43.2423 54.1351 43.1665 54.2651 43.1881C54.6228 42.6896 54.3844 42.7654 54.1351 42.863Z" fill="white"/>
<path d="M54.2974 43.1992C54.3192 43.2009 54.3404 43.2076 54.3593 43.2189C54.3781 43.2302 54.394 43.2457 54.4057 43.2642C54.5683 43.08 54.3949 43.1884 54.2974 43.1992Z" fill="white"/>
<path d="M53.3004 41.1182C53.3004 41.2483 53.5713 40.6197 53.5388 40.8039C53.8423 40.327 52.791 41.2049 53.3004 41.1182Z" fill="white"/>
<path d="M53.4413 44.1312L53.7014 43.6543L53.3979 43.9794L53.4413 44.1312Z" fill="white"/>
<path d="M52.791 43.2965L52.8994 43.5241C52.9119 43.4922 52.9309 43.4632 52.9552 43.439C52.9794 43.4147 53.0084 43.3958 53.0403 43.3832C52.9319 43.3074 52.856 43.1556 52.791 43.2965Z" fill="white"/>
<path d="M53.0405 43.3833C53.0947 43.3833 53.1489 43.4484 53.2248 43.3833C53.1959 43.3698 53.1645 43.3628 53.1327 43.3628C53.1008 43.3628 53.0694 43.3698 53.0405 43.3833Z" fill="white"/>
<path d="M53.1272 44.1309L53.1381 44.0009L53.0405 43.9033L53.1272 44.1309Z" fill="white"/>
<path d="M50.7532 42.4946L50.5039 42.6138C50.5039 42.7981 50.5039 42.9173 50.5906 42.8523C50.6773 42.7873 50.7532 42.6789 50.7532 42.4946Z" fill="white"/>
<path d="M51.0137 44.0877C50.999 43.9472 50.999 43.8056 51.0137 43.665L50.8403 44.3153L51.0137 44.0877Z" fill="white"/>
<path d="M50.5147 44.1094C50.4605 44.2936 50.1678 44.5971 50.3846 44.5863C50.3846 44.4128 50.5905 44.2936 50.5147 44.1094Z" fill="white"/>
<path d="M47.5993 43.3076L47.6426 43.2859L47.415 42.2129L47.5993 43.3076Z" fill="white"/>
<path d="M46.5805 46.5478C46.8623 46.6996 46.2554 45.9517 46.5805 46.1577C46.483 45.9192 46.3421 45.9951 46.2554 45.7783C46.277 46.071 46.1795 45.9626 46.5805 46.5478Z" fill="white"/>
<path d="M46.1795 45.7783C46.1795 45.7783 46.1795 45.6808 46.1795 45.6157C46.1706 45.6695 46.1706 45.7245 46.1795 45.7783Z" fill="white"/>
<path d="M59.4997 51.1219L59.7381 50.916L59.3696 51.0461L59.4997 51.1219Z" fill="white"/>
<path d="M58.6978 50.6989H59.4131L58.7736 50.5146C58.7736 50.5146 58.8603 50.6664 58.6978 50.6989Z" fill="white"/>
<path d="M45.4427 51.5986H45.2801C45.1067 51.6528 45.0959 51.6853 45.0742 51.7287L45.4427 51.5986Z" fill="white"/>
<path d="M45.4426 52.8885V52.856L44.9224 53.2353L45.4426 52.8885Z" fill="white"/>
<path d="M46.6673 53.1162H46.5264C46.5264 53.1162 46.1145 53.6906 46.6673 53.1162Z" fill="white"/>
</g>
<defs>
<clipPath id="clip0_391_1706">
<rect width="63.3389" height="64" fill="white" transform="translate(18 18)"/>
</clipPath>
</defs>
</svg>
