<svg width="100" height="100" viewBox="0 0 100 100" fill="none" xmlns="http://www.w3.org/2000/svg">
<path fill-rule="evenodd" clip-rule="evenodd" d="M51.0853 19C51.1885 19.1032 51.7045 19 51.7045 19.2064C51.7045 19.3096 51.2917 19.7224 51.2917 19.8255C51.3949 19.9287 51.9109 19.8255 51.9109 20.0319C52.014 20.1351 51.4981 20.5479 51.4981 20.6511C51.4981 20.7543 52.1172 20.6511 52.1172 20.8575C52.1172 20.9607 51.7045 21.3734 51.7045 21.4766C51.7045 21.5798 52.3236 21.4766 52.3236 21.683C52.3236 21.7862 51.9109 22.199 51.9109 22.3022C51.9109 22.4054 52.53 22.4054 52.53 22.5085C52.53 22.5085 52.2204 23.1277 52.1172 23.1277C51.9108 23.2309 51.7045 22.9213 51.4981 22.9213C51.3949 22.8181 50.8789 22.9213 50.8789 22.7149C50.8789 22.6117 51.2917 22.3022 51.2917 22.0958C51.2917 21.9926 50.6725 22.0958 50.6725 21.8894C50.6725 21.7862 51.0853 21.4766 51.0853 21.2702C51.0853 21.167 50.4662 21.2702 50.4662 21.0638C50.4662 20.9607 50.8789 20.5479 50.8789 20.4447C50.8789 20.3415 50.2598 20.4447 50.2598 20.2383C50.2598 20.1351 50.6725 19.8255 50.6725 19.6192L51.0853 19Z" fill="white"/>
<path fill-rule="evenodd" clip-rule="evenodd" d="M75.6454 36.4396C75.7485 36.4396 76.0581 35.9236 76.1613 36.0268C76.2645 36.0268 76.2645 36.646 76.4709 36.646C76.5741 36.646 76.8837 36.13 76.9869 36.2332C77.0901 36.2332 77.09 36.8524 77.2964 36.8524C77.3996 36.9556 77.3996 37.4715 77.606 37.4715C77.7092 37.4715 78.0188 36.9556 78.122 37.0588C78.2252 37.1619 78.2252 37.5747 78.4315 37.6779L78.6379 38.2971C78.5347 38.4003 78.3284 38.7098 78.2252 38.7098C78.122 38.7098 78.0188 37.9875 77.9156 38.0907C77.8124 38.0907 77.5028 38.4003 77.3996 38.5034C77.2964 38.6066 76.9869 38.9162 76.8837 38.9162C76.7805 38.9162 76.6773 38.4003 76.5741 38.2971C76.5741 38.1939 76.3677 37.6779 76.2645 37.6779C76.2645 37.6779 75.7485 38.1939 75.7485 38.0907C75.7485 37.9875 75.439 37.4715 75.439 37.4715C75.439 37.3683 75.9549 37.1619 75.9549 37.0588C75.9549 36.9556 75.6454 36.646 75.6454 36.4396Z" fill="white"/>
<path fill-rule="evenodd" clip-rule="evenodd" d="M79.4635 38.5032C79.5667 38.0905 79.5667 37.5745 79.4635 37.0585C79.9795 36.9553 80.4955 36.8521 81.1146 36.9553C81.321 37.0585 81.837 36.9553 82.0434 37.1617C82.1465 37.3681 81.837 37.8841 81.9402 37.9873C82.0433 38.0905 82.7657 38.2968 82.7657 38.4C82.7657 38.6064 82.4561 39.0192 82.3529 39.1224C82.3529 39.2256 81.837 39.7415 81.837 39.7415C81.837 39.8447 82.2497 40.2575 82.3529 40.3607C82.5593 40.5671 82.6625 40.8767 82.7657 41.1862C82.8689 41.3926 83.0753 41.8054 82.9721 42.115C82.9721 42.3213 82.2497 42.3214 82.1466 42.4245C82.0434 42.6309 82.2497 43.1469 82.1466 43.3533C82.0434 43.4565 82.0434 43.6628 82.0434 43.8692C82.0434 44.0756 81.9402 44.282 81.9402 44.282C81.837 44.3852 81.321 43.9724 81.2178 44.0756C81.2178 44.1788 81.321 44.6948 81.2178 44.6948C81.1146 44.6948 80.7019 44.5916 80.4955 44.4884L79.7731 44.282L79.6699 42.9405C79.7731 42.8373 79.5667 42.3213 79.6699 42.3213C79.7731 42.2182 80.2891 42.6309 80.3923 42.5277C80.4955 42.3213 80.2891 41.9086 80.2891 41.8054C80.3923 41.7022 80.9082 41.9086 81.0114 41.7022C81.1146 41.4958 80.7019 41.1862 80.7019 40.9798C80.7019 40.7735 80.2891 40.5671 80.2891 40.4639C80.2891 40.3607 80.9082 40.2575 80.9082 40.1543C80.9082 39.9479 80.3923 39.8447 80.3923 39.7415C80.3923 39.6383 81.0114 39.3288 80.9082 39.2256C80.805 39.1224 80.3923 39.0192 80.2891 38.916C80.0827 38.8128 79.8763 38.8128 79.6699 38.8128C79.4635 38.8128 79.154 38.916 79.0508 38.916C79.154 39.1224 79.4635 38.6064 79.4635 38.5032Z" fill="white"/>
<path fill-rule="evenodd" clip-rule="evenodd" d="M77.9155 45.314L78.6378 45.5204C78.741 45.5204 79.257 45.6235 79.3602 45.7267C79.4634 45.9331 79.257 46.2427 79.3602 46.3459V46.965C79.3602 47.0682 79.4634 47.5842 79.3602 47.5842C79.257 47.6874 78.8442 47.3778 78.6378 47.3778C78.5346 47.1714 78.741 46.8619 78.6378 46.7587C78.5346 46.6555 78.0187 46.6555 77.9155 46.5523C77.8123 46.3459 77.9155 46.0363 77.9155 45.9331V45.314Z" fill="white"/>
<path fill-rule="evenodd" clip-rule="evenodd" d="M75.9549 46.0365L77.2964 46.4492L77.3996 47.7907V48.4099C77.3996 48.5131 77.5028 49.029 77.3996 49.029C77.3996 49.029 76.7805 48.8227 76.6773 48.8227C76.5741 48.8227 76.0581 48.6163 75.9549 48.6163V49.2354C75.9549 49.2354 76.5741 49.4418 76.6773 49.4418C76.5741 49.545 76.7805 50.061 76.6773 50.061C76.5741 50.061 76.0581 49.8546 75.9549 49.8546C75.8517 49.8546 75.3358 49.6482 75.2326 49.6482C75.1294 49.7514 74.6134 49.3386 74.5102 49.4418C74.407 49.545 74.6134 49.9578 74.5102 50.061C74.5102 50.2674 74.5102 50.5769 74.5102 50.6801C74.5102 50.7833 74.6134 51.1961 74.5102 51.2993C74.5102 51.4025 73.8911 51.0929 73.7879 51.0929C73.6847 51.1961 73.8911 51.7121 73.7879 51.7121C73.6847 51.7121 73.1687 51.5057 73.0655 51.5057C72.9624 51.6089 73.0655 52.0216 73.0655 52.1248V52.744C73.0655 52.8472 73.1687 53.3631 73.0655 53.3631C73.0655 53.3631 72.4464 53.1567 72.3432 53.1567C72.1368 53.1567 71.8272 52.9504 71.6208 52.9504C71.5177 52.9504 71.724 53.5695 71.6208 53.5695C71.5177 53.6727 71.1049 53.3631 70.8985 53.3631C70.7953 53.3631 71.0017 53.9823 70.8985 53.9823C70.7953 53.9823 70.2793 53.7759 70.1762 53.7759C69.9698 53.6727 69.7634 53.6727 69.4538 53.5695C69.557 53.7759 69.3506 54.0855 69.4538 54.1887C69.557 54.2919 70.073 54.2919 70.1762 54.3951C70.2793 54.4982 70.1762 54.911 70.1762 55.0142C70.1762 55.1174 70.2793 55.6334 70.1762 55.6334C70.073 55.7366 69.557 55.3238 69.4538 55.427C69.3506 55.5302 69.557 56.0461 69.4538 56.0461C69.3506 56.0461 69.2474 56.0461 69.1442 55.9429H69.041C68.7315 55.6334 68.5251 55.427 68.2155 55.1174L68.7315 55.6334V55.5302V55.2206C68.7315 55.1174 68.7315 54.6014 68.7315 54.6014C68.7315 54.6014 68.1123 54.3951 68.0091 54.3951C67.9059 54.3951 68.1123 55.0142 68.1123 55.0142C68.1123 55.0142 67.6995 54.7046 67.5963 54.7046C67.6995 54.8078 67.8027 54.911 68.0091 55.0142C68.0091 55.0142 67.4932 54.8078 67.39 54.8078C67.2868 54.8078 67.0804 54.4982 66.9772 54.3951C66.874 54.2919 66.7708 54.0855 66.6676 53.8791C66.5644 53.6727 66.5644 53.4663 66.5644 53.2599C66.5644 53.1567 66.4612 52.744 66.5644 52.6408C66.5644 52.5376 67.1836 52.8472 67.2868 52.8472C67.39 52.8472 67.1836 52.228 67.2868 52.228C67.39 52.228 67.8027 52.3312 68.0091 52.4344C68.1123 52.4344 68.6283 52.6408 68.7315 52.6408C68.8346 52.5376 68.7315 52.1248 68.7315 52.0216V51.4025C68.7315 51.2993 68.6283 50.7833 68.7315 50.7833C68.7315 50.7833 69.3506 50.9897 69.4538 50.9897C69.557 50.9897 70.073 51.0929 70.1762 51.1961C70.1762 51.1961 70.2793 51.8152 70.1762 51.8152C70.2793 51.712 70.7953 52.1248 70.8985 52.0216C71.0017 51.9184 70.7953 51.5057 70.8985 51.4025C70.8985 51.1961 70.8985 50.8865 70.8985 50.7833C70.8985 50.6801 70.7953 50.2674 70.8985 50.1642C70.8985 50.061 71.5177 50.3705 71.6208 50.3705C71.724 50.2674 71.5177 49.7514 71.6208 49.7514C71.724 49.7514 72.24 49.9578 72.3432 49.9578C72.4464 49.8546 72.3432 49.4418 72.3432 49.3386C72.3432 49.2354 72.24 48.7195 72.3432 48.7195C72.4464 48.7195 72.9624 48.9259 73.0655 48.9259C73.1687 48.9259 73.6847 49.1322 73.7879 49.1322C73.8911 49.029 73.7879 48.6163 73.7879 48.5131C73.7879 48.4099 73.6847 47.8939 73.7879 47.8939C73.8911 47.7907 74.407 48.2035 74.5102 48.1003C74.6134 47.9971 74.407 47.4812 74.5102 47.4812C74.6134 47.378 75.1294 47.7907 75.2326 47.6875C75.3358 47.5844 75.2326 47.1716 75.2326 47.0684V46.4492C75.3358 46.346 75.1294 45.8301 75.2326 45.8301C75.439 45.8301 75.8517 46.1397 75.9549 46.0365Z" fill="white"/>
<path fill-rule="evenodd" clip-rule="evenodd" d="M68.5251 55.943C68.7315 56.0462 68.8347 56.0462 69.0411 56.0462C69.1443 56.0462 69.2474 56.0462 69.3506 56.0462C69.4538 56.1494 69.557 56.1494 69.6602 56.2526C69.7634 56.3558 70.2794 56.459 70.2794 56.5622C70.2794 56.6654 69.6602 56.975 69.7634 56.975C69.8666 57.0782 70.1762 57.1813 70.3826 57.2845C70.4858 57.3877 70.8985 57.4909 71.0017 57.5941L70.4858 58.0069C70.3826 58.1101 69.9698 58.4197 69.9698 58.4197C69.9698 58.5228 70.4858 58.626 70.5889 58.7292C70.5889 58.8324 70.073 59.0388 70.073 59.142C70.073 59.2452 70.5889 59.4516 70.6921 59.4516L71.3113 59.7612L70.7953 60.1739C70.5889 60.1739 70.3826 59.7611 70.1762 59.8643C69.9698 59.9675 69.8666 60.2771 69.6602 60.2771L69.0411 59.9675L68.4219 59.658C68.3187 59.5548 67.9059 59.4516 67.8027 59.3484C67.8027 59.2452 68.3187 58.9356 68.3187 58.9356L68.8347 58.5228C68.9379 58.4197 69.3506 58.1101 69.3506 58.1101C69.3506 58.0069 68.8347 57.8005 68.7315 57.8005L68.1123 57.4909C68.0091 57.3877 67.5964 57.2845 67.4932 57.1813C67.4932 57.0781 68.0091 56.7686 68.0091 56.7686C68.0091 56.6654 67.4932 56.5622 67.39 56.459C67.39 56.3558 66.874 56.2526 66.874 56.1494L67.4932 55.8398C67.5964 55.8398 67.8028 56.1494 68.0091 56.1494C68.1123 56.1494 68.3187 55.943 68.5251 55.943Z" fill="white"/>
<path fill-rule="evenodd" clip-rule="evenodd" d="M67.5962 62.0313L68.6281 61.1026L69.2473 61.4121C69.3505 61.4121 69.66 61.7217 69.8664 61.7217C69.9696 61.7217 70.3824 61.3089 70.3824 61.3089L70.8983 60.8962C71.0015 60.793 71.3111 60.4834 71.4143 60.4834L72.0335 60.793C72.0335 60.8962 71.5175 61.1025 71.5175 61.2057C71.5175 61.3089 72.1367 61.4121 72.1367 61.5153C72.1367 61.6185 71.5175 61.9281 71.6207 61.9281C71.7239 62.0313 72.0335 62.1345 72.2399 62.2377C72.343 62.2377 72.859 62.5472 72.859 62.5472L72.343 62.96C72.1367 62.96 71.9303 62.6504 71.7239 62.6504C71.5175 62.6504 71.4143 63.0632 71.2079 63.0632C71.0015 63.0632 70.7952 62.7536 70.5888 62.7536C70.3824 62.7536 70.176 62.444 69.9696 62.444C69.8664 62.444 69.4537 62.96 69.4537 62.8568C69.2473 62.7536 69.0409 62.6504 68.8345 62.5472L68.2153 62.2377L67.5962 62.0313Z" fill="white"/>
<path fill-rule="evenodd" clip-rule="evenodd" d="M71.0017 64.095C70.7953 64.1982 70.6921 64.5078 70.4857 64.5078C70.3825 64.5078 70.0729 64.1982 69.8666 64.1982C69.7634 64.1982 69.4538 64.7142 69.3506 64.611C69.1442 64.611 69.041 64.3014 68.7314 64.3014L69.7634 63.3727C69.9698 63.3727 70.1761 63.6823 70.3825 63.6823C70.4857 63.6823 70.8985 63.1663 70.8985 63.2695C71.0017 63.2695 71.5176 63.5791 71.5176 63.5791C71.5176 63.7855 71.0017 63.9919 71.0017 64.095Z" fill="white"/>
<path fill-rule="evenodd" clip-rule="evenodd" d="M68.3184 65.5399C68.5247 65.5399 68.6279 65.1271 68.8343 65.1271C69.0407 65.1271 69.2471 65.4367 69.4535 65.4367C69.6599 65.4367 69.7631 65.0239 69.9694 65.0239C70.1758 65.0239 70.3822 65.4367 70.5886 65.3335C70.795 65.3335 70.8982 64.9207 71.1046 64.9207C71.2078 64.9207 71.6205 65.3335 71.7237 65.2303C71.9301 65.1271 72.1365 64.9207 72.2397 64.8175L72.7556 64.4048C72.8588 64.4048 73.3748 64.7143 73.3748 64.7143C73.3748 64.8175 72.8588 65.1271 72.8588 65.1271C72.6524 65.2303 72.4461 65.4367 72.3429 65.5399C72.1365 65.5399 72.0333 65.9527 71.8269 65.9527C71.7237 65.9527 71.4141 65.5399 71.2078 65.6431C71.0014 65.7463 70.795 65.9527 70.6918 66.0559C70.5886 66.159 70.279 66.4686 70.1758 66.4686C69.9694 66.4686 69.7631 66.1591 69.5567 66.1591C69.3503 66.0559 69.1439 65.9527 68.9375 65.8495L68.3184 65.5399Z" fill="white"/>
<path fill-rule="evenodd" clip-rule="evenodd" d="M71.724 66.7783L72.8591 67.5007C72.8591 67.6039 72.3431 67.8103 72.3431 67.9134C72.3431 68.0166 72.8591 68.223 72.9623 68.223C73.0655 68.223 73.5815 68.5326 73.5815 68.5326C73.5815 68.6358 73.0655 68.9454 73.0655 68.9454C72.9623 69.0486 72.5495 69.2549 72.5495 69.3581C72.5495 69.4613 73.1687 69.5645 73.1687 69.6677C73.1687 69.7709 72.5495 70.0805 72.6527 70.0805C72.7559 70.1837 73.0655 70.2869 73.2719 70.3901L73.891 70.6996L74.5102 71.0092C74.6134 71.1124 75.0262 71.2156 75.1293 71.3188L74.6134 71.7316L73.9942 71.422C73.891 71.5252 73.4783 71.7316 73.4783 71.8348C73.4783 71.938 73.9942 72.0411 74.0974 72.1443C74.2006 72.3507 74.5102 72.7635 74.7166 73.0731C74.8198 73.1763 75.2325 74.105 75.1293 74.3114C75.1293 74.5178 74.5102 75.0337 74.3038 75.1369C73.9942 75.3433 73.6846 75.6529 73.4783 75.7561C73.4783 76.0657 73.4783 76.5816 73.4783 76.8912C73.4783 76.8912 72.5495 77.304 72.4463 77.2008C72.3431 77.0976 72.6527 76.272 72.5495 76.1688C72.4463 75.8593 72.5495 75.4465 72.4463 75.1369C72.3431 74.8273 72.24 74.5178 72.24 74.2082C72.24 74.0018 71.8272 73.589 71.8272 73.3826C71.8272 73.2795 72.4463 72.8667 72.4463 72.7635C72.4463 72.6603 72.3431 72.5571 72.1368 72.4539C72.0336 72.3507 71.9304 72.3507 71.8272 72.2475C71.724 72.2475 71.3112 72.0411 71.208 71.9379C71.208 71.8347 71.724 71.6284 71.724 71.5252C71.724 71.422 71.1048 71.2156 71.1048 71.2156C71.208 71.1124 71.5176 70.906 71.6208 70.8028C71.724 70.6996 72.1368 70.3901 72.1368 70.3901C72.1368 70.2869 71.6208 70.0805 71.5176 70.0805L70.8984 69.7709C70.7953 69.6677 70.3825 69.5645 70.2793 69.4613L70.7953 69.0486C70.8985 68.9454 71.3112 68.6358 71.3112 68.6358C71.3112 68.5326 70.6921 68.4294 70.6921 68.3262C70.6921 68.223 71.208 68.0166 71.208 67.9134C71.208 67.8103 70.5889 67.7071 70.5889 67.6039C70.5889 67.3975 71.1048 67.2943 71.1048 67.1911L71.724 66.7783Z" fill="white"/>
<path fill-rule="evenodd" clip-rule="evenodd" d="M71.1044 76.891C71.1044 77.2006 71.0012 77.5102 70.8981 77.8197C70.8981 77.9229 70.4853 78.7485 70.4853 78.7485C70.4853 78.8517 71.414 78.7485 71.5172 78.7485C71.6204 78.7485 72.5491 78.6453 72.6523 78.5421C72.5491 78.7485 72.4459 79.574 72.1364 79.7804C71.93 79.8836 71.1044 79.8836 71.0013 79.8836C70.7949 79.8836 70.0725 79.7804 69.8661 79.7804C69.5566 79.8836 69.1438 79.4708 68.8342 79.4708C68.731 79.574 68.1119 80.09 67.9055 80.1932C67.6991 80.3995 67.1831 80.7091 66.8736 80.8123C66.564 80.8123 66.2544 80.1932 66.048 80.09C65.7384 80.09 65.2225 80.3995 64.9129 80.2964C64.7065 80.1932 64.3969 79.574 64.2937 79.3676C64.0874 79.2644 64.1905 78.6453 64.1905 78.6453C64.0874 78.6453 63.5714 78.9549 63.5714 78.8517C63.4682 78.6453 63.5714 78.3357 63.5714 78.1293C63.5714 78.0261 63.5714 77.407 63.5714 77.407C63.4682 77.407 63.0554 77.6133 62.9522 77.6133C62.849 77.6133 62.4363 77.9229 62.3331 77.8197V77.0974C62.2299 77.0974 61.7139 77.3038 61.7139 77.3038V78.0261C61.6107 77.9229 61.198 78.3357 61.0948 78.2325C60.9916 78.1293 61.0948 77.6134 61.0948 77.5102C60.9916 77.3038 61.0948 76.9942 61.0948 76.7878C61.0948 76.6846 61.0948 76.1686 61.0948 76.0655C61.0948 76.0655 60.5788 76.2719 60.4756 76.2719L59.8565 76.4782C59.7533 76.4782 59.3405 76.7878 59.2373 76.6846C59.2373 76.6846 59.2373 76.0655 59.2373 75.9623C59.2373 75.7559 59.2373 75.3431 59.2373 75.2399C59.2373 75.1367 58.7214 75.5495 58.6182 75.4463C58.515 75.3431 58.7214 74.8272 58.6182 74.724C58.515 74.724 58.1022 74.9303 57.999 74.9303C57.8958 74.9303 57.3798 75.2399 57.3798 75.1367V74.4144C57.1735 74.4144 56.9671 74.6208 56.7607 74.6208L56.1415 74.8272C56.0384 74.8272 55.6256 75.1367 55.5224 75.0335C55.5224 75.0335 55.5224 74.4144 55.5224 74.3112C55.5224 74.208 55.5224 73.5888 55.5224 73.5888C55.4192 73.4857 55.0064 73.8984 54.9032 73.7952C54.8 73.692 54.3873 74.1048 54.2841 74.0016C54.1809 73.8984 54.3873 73.3825 54.2841 73.2793C54.1809 73.2793 53.6649 73.5888 53.6649 73.4856C53.5617 73.3825 53.6649 72.9697 53.6649 72.7633V72.041C53.6649 71.9378 53.6649 71.3186 53.6649 71.3186C53.5617 71.3186 53.149 71.525 53.0458 71.525C52.9426 71.525 52.4266 71.7314 52.4266 71.7314V72.4537C52.3234 72.4537 51.9106 72.7633 51.8075 72.6601C51.7043 72.5569 51.9106 72.041 51.8075 71.9378C51.7043 71.8346 51.2915 72.2473 51.1883 72.1442C51.0851 72.041 51.2915 71.525 51.1883 71.4218C51.0851 71.3186 50.6723 71.7314 50.5692 71.6282C50.466 71.6282 50.5692 71.009 50.5692 70.9058C50.5692 70.8026 50.5692 70.1835 50.5692 70.1835C50.466 70.1835 50.0532 70.3899 49.95 70.3899L49.3308 70.5963C49.5372 70.2867 49.8468 69.4611 50.0532 69.1516C50.2596 69.4611 50.7755 70.4931 51.2915 71.525C51.2915 71.6282 51.1883 71.8346 51.1883 71.8346C51.0851 71.8346 50.6723 71.525 50.5692 71.4218C50.466 71.4218 49.95 71.1122 49.95 71.009L50.0532 70.3899C49.95 70.3899 49.5372 69.9771 49.434 69.9771C49.3308 69.9771 49.434 70.5963 49.3308 70.5963C49.2277 70.5963 48.8149 70.1835 48.7117 70.1835C48.6085 70.2867 48.6085 70.6995 48.6085 70.8027C48.6085 71.009 48.5053 71.3186 48.5053 71.4218C48.5053 71.525 47.9893 71.009 47.8861 71.009C47.783 71.009 47.783 71.525 47.783 71.6282C47.6798 71.8346 47.6798 72.041 47.6798 72.2473C47.6798 72.3505 47.5766 72.8665 47.5766 72.8665C47.4734 72.8665 47.0606 72.5569 46.9574 72.4537L46.3383 72.041C46.2351 71.9378 45.9255 71.7314 45.7191 71.6282C45.6159 71.6282 45.6159 72.2473 45.6159 72.2473C45.5127 72.2473 45.2031 71.8346 44.9968 71.8346C44.9968 72.041 44.8936 72.2473 44.8936 72.4537C44.8936 72.4537 44.2744 72.1442 44.2744 72.041C44.2744 71.9378 44.3776 71.525 44.3776 71.4218C44.3776 71.2154 44.4808 71.009 44.4808 70.8027C44.4808 70.5963 44.584 70.3899 44.584 70.1835L44.6872 69.5643C44.6872 69.358 44.7904 69.0484 44.7904 68.9452C44.7904 68.9452 45.3063 69.2548 45.4095 69.3579C45.5127 69.3579 45.9255 69.7707 46.0287 69.7707C46.1319 69.7707 46.1319 69.1516 46.1319 69.1516C46.3383 69.1516 46.5446 69.4612 46.751 69.5643C46.8542 69.5643 47.267 69.9771 47.3702 69.9771C47.4734 69.8739 47.4734 69.4611 47.4734 69.3579L47.5766 68.7388C47.5766 68.6356 47.6798 68.1196 47.6798 68.1196C47.783 68.1196 48.1957 68.4292 48.2989 68.5324L48.9181 68.9452L50.1564 69.6675V69.5643C50.0532 69.4612 49.95 69.2548 49.95 69.0484C49.95 69.0484 49.95 68.9452 49.8468 68.9452C49.8468 68.842 49.7436 68.7388 49.6404 68.7388C49.5372 68.5324 49.5372 68.326 49.5372 68.2228C49.5372 68.0165 49.5372 67.8101 49.6404 67.7069C49.6404 67.6037 49.7436 67.2941 49.8468 67.1909L50.0532 67.8101C50.0532 67.9133 50.0532 68.4292 50.0532 68.4292C50.0532 68.4292 50.2596 68.0165 50.3628 68.0165C50.466 67.9133 50.6723 67.8101 50.8787 67.7069C50.9819 67.7069 51.4979 67.3973 51.4979 67.5005C51.4979 67.5005 51.6011 68.1196 51.4979 68.2228C51.3947 68.326 50.8787 68.326 50.8787 68.4292C50.8787 68.6356 50.8787 68.9452 50.8787 69.1516V69.8739V70.5963C50.9819 70.5963 51.3947 70.2867 51.4979 70.3899V71.1122C51.6011 71.1122 52.117 70.9058 52.117 70.9058C52.2202 70.8026 52.0138 70.2867 52.117 70.1835C52.2202 70.0803 52.633 69.9771 52.7362 69.9771C52.9426 69.8739 53.149 69.7707 53.3553 69.7707C53.4585 69.6675 53.8713 69.4612 53.9745 69.5643C53.9745 69.5643 53.9745 70.1835 53.9745 70.2867C53.9745 70.3899 53.9745 70.9058 53.9745 71.009C54.0777 71.009 54.4905 70.8027 54.5937 70.8027C54.6968 70.8027 55.2128 70.4931 55.2128 70.5963C55.316 70.6995 55.2128 71.1122 55.2128 71.3186V72.041C55.2128 72.2473 55.2128 72.6601 55.2128 72.7633C55.2128 72.8665 55.7288 72.4537 55.832 72.5569C55.9352 72.6601 55.7288 73.2793 55.832 73.2793C55.9352 73.2793 56.3479 73.0729 56.4511 73.0729C56.5543 73.0729 57.0703 72.8665 57.0703 72.8665C57.0703 72.7633 56.9671 72.2473 57.0703 72.1442C57.1735 72.041 57.483 71.9378 57.6894 71.9378C57.8958 71.8346 58.1022 71.7314 58.3086 71.7314C58.3086 71.7314 58.3086 72.3505 58.3086 72.4537C58.3086 72.5569 58.3086 73.0729 58.3086 73.1761C58.3086 73.1761 58.8245 72.9697 58.9277 72.9697L59.5469 72.7633C59.6501 72.7633 60.0629 72.4537 60.166 72.5569C60.166 72.5569 60.166 73.1761 60.166 73.2793C60.166 73.4856 60.2692 73.7952 60.166 74.0016C60.166 74.1048 59.6501 74.1048 59.5469 74.208C59.4437 74.4144 59.6501 74.724 59.5469 74.9303L60.166 74.724C60.2692 74.724 60.7852 74.5176 60.7852 74.5176V73.7952C60.8884 73.7952 61.3012 73.4857 61.4044 73.5888C61.5075 73.692 61.3012 74.208 61.4044 74.3112C61.5075 74.3112 61.9203 74.0016 62.0235 74.1048C62.1267 74.1048 61.9203 74.724 62.0235 74.8272C62.1267 74.8272 62.5395 74.6208 62.6427 74.6208C62.7459 74.6208 63.1586 74.3112 63.2618 74.4144C63.365 74.5176 63.1586 75.0335 63.2618 75.1367C63.365 75.2399 63.7778 74.8272 63.881 74.9303C63.9842 75.0335 63.7778 75.5495 63.881 75.6527C63.9842 75.7559 63.7778 76.2718 63.881 76.375C63.9842 76.375 64.3969 76.1687 64.5001 76.1687C64.6033 76.1687 65.1193 75.8591 65.1193 75.9623C65.2225 76.0655 65.1193 76.5814 65.1193 76.6846C65.1193 76.891 65.1193 77.3038 65.2225 77.407C65.3257 77.5102 65.8416 77.0974 65.9448 77.0974C66.1512 77.2006 66.1512 77.7165 66.3576 77.8197C66.564 77.9229 66.6672 78.4389 66.9767 78.4389C67.0799 78.4389 67.5959 77.9229 67.6991 77.8197C67.8023 77.7165 68.1119 77.2006 68.2151 77.2006C68.3182 77.2006 68.8342 77.5102 68.9374 77.5102C69.0406 77.6134 69.6597 77.8197 69.7629 77.7165C69.9693 77.6133 69.8661 76.9942 70.0725 76.891C70.1757 76.6846 70.0725 76.1686 70.1757 76.0655L71.0013 75.9623C71.3108 76.0655 71.1044 76.6846 71.1044 76.891Z" fill="white"/>
<path fill-rule="evenodd" clip-rule="evenodd" d="M41.9011 72.9696C41.9011 73.176 41.6947 73.4855 41.7979 73.5887L42.417 74.0015C42.5202 74.0015 42.5202 73.4856 42.5202 73.3824C42.5202 73.4856 43.1394 73.6919 43.1394 73.7951C43.1394 73.8983 43.0362 74.3111 43.0362 74.4143C43.0362 74.5175 42.933 75.0334 42.933 75.0334C42.8298 75.0334 42.417 74.7239 42.3138 74.6207C42.2107 74.6207 41.6947 74.2079 41.6947 74.2079C41.5915 74.3111 41.5915 74.7239 41.5915 74.827C41.5915 74.9302 41.4883 75.4462 41.4883 75.4462C41.3851 75.4462 40.9723 75.0334 40.8692 75.0334C40.766 75.1366 40.766 75.5494 40.766 75.6526C40.766 75.7558 40.6628 76.2717 40.6628 76.2717C40.5596 76.2717 40.1468 75.9622 40.0436 75.859C39.9404 75.859 39.5276 75.4462 39.4245 75.4462C39.3213 75.4462 39.4245 76.0654 39.3213 76.0654C39.2181 76.0654 38.8053 75.6526 38.7021 75.6526C38.5989 75.6526 38.7021 76.2717 38.5989 76.2717C38.4957 76.2717 38.083 75.859 37.9798 75.859C37.8766 75.859 37.8766 76.3749 37.8766 76.4781L37.7734 77.0973L37.6702 77.7164C37.6702 77.9228 37.567 78.2324 37.567 78.3356C37.567 78.4388 37.051 77.9228 36.9478 77.9228C36.8447 77.9228 36.9478 78.542 36.8446 78.542C36.7415 78.542 36.3287 78.1292 36.2255 78.1292C36.1223 78.1292 36.2255 78.7484 36.1223 78.7484C36.0191 78.7484 35.7095 78.4388 35.5031 78.3356C35.2968 78.2324 35.1936 78.026 34.7808 78.026C34.4712 77.9228 34.1616 77.8196 33.9553 77.7164C33.6457 77.6132 33.4393 77.4069 33.2329 77.3037C33.6457 76.8909 33.8521 76.3749 34.0585 75.9622C34.1616 75.9622 34.5744 76.3749 34.6776 76.3749C34.7808 76.3749 34.7808 75.7558 34.7808 75.7558C34.884 75.7558 35.1936 76.0654 35.4 76.1686C35.5031 76.1686 35.9159 76.5813 36.0191 76.5813C36.1223 76.5813 36.1223 76.0654 36.1223 75.9622L36.2255 75.343C36.2255 75.2398 36.3287 74.7239 36.3287 74.7239C36.4319 74.6207 36.8447 75.1366 36.9478 75.1366C37.051 75.1366 36.9478 74.5175 37.051 74.5175C37.1542 74.5175 37.4638 74.9302 37.6702 74.9302C37.7734 74.9302 37.6702 74.3111 37.7734 74.3111C37.8766 74.3111 38.2893 74.7239 38.3925 74.7239C38.4957 74.7239 38.3925 74.1047 38.4957 74.1047C38.5989 74.1047 39.0117 74.5175 39.1149 74.5175C39.2181 74.5175 39.1149 73.8983 39.2181 73.8983C39.3213 73.8983 39.734 74.3111 39.8372 74.3111C39.9404 74.3111 39.9404 73.7951 39.9404 73.6919C39.9404 73.5887 40.0436 73.0728 40.0436 73.0728C40.1468 73.0728 40.5596 73.4855 40.6628 73.4855C40.766 73.4855 40.6628 72.8664 40.766 72.8664C40.8692 72.8664 41.2819 73.2792 41.3851 73.2792C41.4883 73.176 41.4883 72.7632 41.4883 72.66C41.4883 72.4536 41.5915 72.144 41.5915 72.0409C41.5915 71.9377 42.1075 72.4536 42.2107 72.4536C42.3138 72.4536 42.2107 71.8345 42.3138 71.8345C42.3138 71.8345 42.933 72.144 42.933 72.2472C43.0362 72.4536 42.7266 72.7632 42.8298 72.8664L42.7266 73.4855L41.9011 72.9696Z" fill="white"/>
<path fill-rule="evenodd" clip-rule="evenodd" d="M32.0979 59.4512L30.7564 59.9672C30.55 59.864 30.55 59.4512 30.3436 59.4512C30.2404 59.4512 29.7245 59.7608 29.7245 59.6576C29.5181 59.5544 29.4149 59.2448 29.3117 59.1416C29.2085 59.0384 28.8989 58.7289 28.8989 58.6257C28.8989 58.5225 29.5181 58.5225 29.5181 58.4193C29.7245 58.4193 29.9308 58.2129 30.1372 58.2129C30.2404 58.2129 30.4468 58.7289 30.55 58.7289C30.6532 58.7289 31.1692 58.4193 31.1692 58.5225C31.3755 58.6257 31.4787 58.9352 31.5819 59.0384L32.0979 59.4512Z" fill="white"/>
<path fill-rule="evenodd" clip-rule="evenodd" d="M30.3436 57.3874L29.9308 56.8715C29.8276 56.7683 29.5181 56.4587 29.5181 56.3555C29.5181 56.2523 30.1372 56.1491 30.1372 56.1491L29.6213 56.0459C29.7244 56.0459 30.034 56.0459 30.2404 55.9427C30.3436 55.9427 30.7564 55.7363 30.8596 55.7363C30.9628 55.7363 31.3755 55.8395 31.3755 55.8395C31.5819 55.9427 31.6851 56.0459 31.8915 56.1491C31.9947 56.1491 32.4075 56.5619 32.3043 56.6651C32.3043 56.7683 31.6851 56.8715 31.6851 56.8715L30.3436 57.3874Z" fill="white"/>
<path fill-rule="evenodd" clip-rule="evenodd" d="M21.882 45.6238L22.5012 45.5206C22.6044 45.5206 23.1204 45.4174 23.1204 45.4174C23.1204 45.5206 22.914 46.0365 22.914 46.1397C23.0172 46.1397 23.4299 46.1397 23.5331 46.0365C23.6363 46.0365 24.1523 45.9333 24.1523 45.9333C24.2555 46.0365 23.9459 46.5525 23.9459 46.6557C24.0491 46.7589 24.5651 46.4493 24.5651 46.5525C24.6682 46.6557 24.3587 47.1716 24.3587 47.2748C24.3587 47.378 24.9778 47.1716 24.9778 47.1716C24.9778 47.2748 24.8746 47.7908 24.7714 47.894C24.6682 47.9972 24.2555 47.7908 24.1523 47.9972C24.1523 47.9972 23.9459 48.6163 23.9459 48.7195C24.0491 48.8227 24.4619 48.6163 24.5651 48.6163L25.1842 48.5131C25.3906 48.5131 25.7002 48.4099 25.8034 48.4099C25.9066 48.4099 25.597 49.0291 25.597 49.1323C25.597 49.2355 26.1129 49.0291 26.2161 49.0291C26.3193 49.0291 26.8353 48.9259 26.8353 48.9259C26.8353 48.9259 26.7321 49.5451 26.6289 49.6483L26.0097 49.7515C26.1129 49.8546 25.8034 50.3706 25.8034 50.4738C25.9066 50.577 26.4225 50.2674 26.4225 50.3706C26.5257 50.4738 26.2161 50.9898 26.2161 51.0929C26.3193 51.1961 26.7321 50.9898 26.8353 50.9898C26.9385 51.0929 27.4544 50.7834 27.4544 50.8866C27.5576 50.9898 27.2481 51.5057 27.2481 51.6089C27.3512 51.6089 27.764 51.6089 27.8672 51.5057C27.9704 51.5057 28.4864 51.4025 28.4864 51.4025C28.4864 51.4025 28.3832 52.0217 28.28 52.1249C28.28 52.2281 28.0736 52.744 28.0736 52.8472C28.1768 52.9504 28.5896 52.744 28.6928 52.744C28.8991 52.744 29.2087 52.6408 29.3119 52.6408C29.4151 52.6408 29.1055 53.26 29.1055 53.3632C29.2087 53.4664 29.6215 53.26 29.7247 53.26C29.8279 53.3632 30.3438 53.0536 30.3438 53.1568C30.447 53.26 30.1374 53.6728 30.1374 53.8791C30.2406 53.9823 29.8279 54.3951 29.9311 54.4983C29.9311 54.6015 30.5502 54.3951 30.5502 54.4983C30.5502 54.4983 30.2406 55.0143 30.1374 55.0143C29.9311 55.1175 29.7247 54.9111 29.5183 55.0143C29.3119 55.1175 29.1055 55.0143 29.0023 55.1175L28.5896 55.5302C28.5896 55.5302 28.4864 55.6334 28.3832 55.6334V55.5302C28.4864 55.427 28.4864 55.2206 28.4864 55.2206C28.3832 55.1175 27.8672 55.427 27.8672 55.3238C27.764 55.2207 28.0736 54.8079 28.0736 54.6015C28.0736 54.4983 28.28 53.9823 28.28 53.8791C28.1768 53.776 27.6608 54.0855 27.6608 53.9823C27.6608 53.8791 27.8672 53.3632 27.8672 53.26C27.764 53.1568 27.3512 53.3632 27.2481 53.3632C27.1449 53.3632 26.6289 53.4664 26.6289 53.4664C26.6289 53.3632 26.8353 52.8472 26.8353 52.744C26.7321 52.744 26.3193 52.744 26.2161 52.8472C26.1129 52.8472 25.597 52.9504 25.597 52.9504C25.4938 52.8472 25.8034 52.3313 25.8034 52.2281C25.7002 52.1249 25.1842 52.4345 25.1842 52.3313C25.081 52.2281 25.3906 51.7121 25.3906 51.6089C25.2874 51.5057 24.8746 51.7121 24.7714 51.7121C24.6682 51.6089 24.9778 51.0929 24.9778 50.9898C24.9778 50.8866 24.4619 51.0929 24.3587 51.0929C24.2555 51.0929 23.7395 51.1961 23.7395 51.1961C23.7395 51.093 23.8427 50.577 23.9459 50.4738C23.9459 50.3706 24.1523 49.8546 24.1523 49.7515C24.0491 49.6483 23.5331 49.9578 23.5331 49.8546C23.5331 49.7514 23.7395 49.2355 23.7395 49.1323C23.6363 49.0291 23.1204 49.3387 23.1204 49.2355C23.1204 49.1323 23.3267 48.6163 23.3267 48.5131C23.2235 48.4099 22.8108 48.6163 22.7076 48.6163C22.5012 48.6163 22.1916 48.7195 22.0884 48.7195C21.9852 48.7195 22.2948 48.1004 22.2948 47.9972C22.1916 47.894 21.7789 48.2036 21.6757 48.1004C21.5725 47.9972 21.882 47.4812 21.882 47.378C22.0884 47.2748 22.398 47.4812 22.5012 47.2748C22.5012 47.2748 22.7076 46.6557 22.7076 46.5525C22.6044 46.4493 22.1916 46.6557 22.0884 46.6557C22.0884 46.7589 21.882 47.2748 21.882 47.378C21.7789 47.378 21.2629 47.4812 21.2629 47.4812C21.1597 47.378 21.5725 46.8621 21.4693 46.7589C21.3661 46.6557 20.9533 46.9653 20.8501 46.8621C20.7469 46.7589 21.0565 46.2429 21.0565 46.1397C20.9533 46.0365 20.4374 46.3461 20.4374 46.2429C20.3342 46.1397 20.6437 45.6238 20.6437 45.5206C20.5405 45.4174 20.0246 45.7269 20.0246 45.6238C19.9214 45.5206 20.231 45.0046 20.231 44.9014C20.1278 44.7982 19.715 45.0046 19.6118 45.0046C19.715 44.9014 19.6118 44.4886 19.8182 44.2822C19.9214 44.1791 20.3342 44.3854 20.4374 44.1791C20.5406 44.0759 20.5405 43.5599 20.6437 43.4567C20.7469 43.4567 21.2629 43.3535 21.2629 43.3535C21.3661 43.4567 21.0565 43.9727 21.0565 44.0759C21.1597 44.1791 21.6757 43.8695 21.6757 43.9727C21.7789 44.0759 21.4693 44.5918 21.4693 44.695C21.5725 44.7982 22.0884 44.4886 22.0884 44.5918C22.0884 45.1078 21.7789 45.5206 21.882 45.6238Z" fill="white"/>
<path fill-rule="evenodd" clip-rule="evenodd" d="M19.9211 43.1468C19.8179 43.25 19.4051 43.0436 19.3019 43.25C19.1988 43.3532 19.1988 43.8692 19.0956 43.9724C18.9924 43.9724 18.4764 44.0756 18.4764 44.0756C18.3732 43.9724 18.786 43.4564 18.6828 43.3532C18.6828 43.3532 18.4764 43.3532 18.3732 43.3532C18.1668 43.3532 17.9604 43.3532 17.9604 43.25C17.9604 43.1468 18.0636 42.4245 18.0636 42.4245C18.1668 42.4245 18.6828 42.7341 18.786 42.5277C18.8892 42.4245 18.8892 41.8053 18.9924 41.8053C19.1988 41.8053 19.5083 41.8053 19.6115 41.8053C19.7147 41.8053 20.2307 41.7021 20.2307 41.7021C20.2307 41.8053 20.1275 42.3213 20.0243 42.4245L19.9211 43.1468Z" fill="white"/>
<path fill-rule="evenodd" clip-rule="evenodd" d="M16.9287 40.8769C16.516 40.4642 16.2064 39.9482 16 39.3291C16.2064 39.1227 16.516 39.0195 16.7223 38.8131C16.9287 38.7099 17.3415 38.6067 17.5479 38.5035C17.6511 38.5035 17.3415 37.7812 17.4447 37.678C17.6511 37.4716 18.167 37.7812 18.2702 37.5748C18.3734 37.4716 18.2702 36.8524 18.3734 36.7492C18.5798 36.646 19.0958 37.0588 19.199 36.9556C19.3022 36.8524 19.4053 36.2333 19.6117 36.2333C19.8181 36.1301 20.1277 36.646 20.3341 36.646C20.5405 36.646 20.6437 36.0269 20.7469 36.0269C20.85 36.0269 21.0564 36.5429 21.1596 36.5429C21.2628 36.5429 21.366 35.9237 21.4692 36.0269C21.5724 36.0269 21.7788 36.5429 21.882 36.5429C21.9852 36.5429 22.0884 35.9237 22.1915 36.0269C22.2947 36.0269 22.6043 36.646 22.6043 36.5429C22.7075 36.4397 22.9139 36.1301 22.9139 36.0269L23.2235 35.5109L23.5331 34.995C23.5331 34.8918 23.8426 34.479 23.8426 34.479C23.9458 34.479 24.2554 34.995 24.2554 34.995L24.6682 35.5109C24.7714 35.6141 24.9777 36.0269 25.0809 36.0269C25.1841 36.0269 25.3905 36.5429 25.4937 36.5429C25.5969 36.5429 25.7001 36.0269 25.8033 36.0269C25.9065 36.0269 26.1129 36.5429 26.2161 36.5429C26.3192 36.5429 26.4224 36.0269 26.5256 36.0269C26.6288 36.0269 26.732 35.5109 26.8352 35.5109C26.9384 35.5109 27.1448 36.1301 27.248 36.0269C27.3512 36.0269 27.4544 35.5109 27.5575 35.5109C27.6607 35.5109 27.8671 36.0269 27.9703 36.0269C28.0735 36.0269 28.1767 35.5109 28.2799 35.5109C28.3831 35.5109 28.5895 36.0269 28.6927 36.0269C28.7959 36.0269 28.8991 35.4077 29.0022 35.5109C29.1054 35.5109 29.3118 36.0269 29.415 36.0269C29.5182 36.0269 29.7246 35.4077 29.7246 35.5109C29.8278 35.6141 30.0342 35.9237 30.1374 36.0269C30.1374 36.1301 30.5501 36.5429 30.5501 36.5429C30.6533 36.5429 30.8597 36.0269 30.8597 36.0269L31.1693 35.5109L31.4789 34.995C31.5821 34.8918 31.7884 34.479 31.7884 34.479C31.8916 34.479 32.2012 34.995 32.2012 34.995L32.614 35.5109C32.7172 35.6141 33.0268 36.0269 33.0268 36.0269C33.1299 36.0269 33.3363 36.5429 33.4395 36.5429L33.7491 36.0269C33.7491 35.9237 33.3363 35.5109 33.3363 35.5109C33.4395 35.3045 33.5427 35.0982 33.6459 34.995C33.7491 34.8918 33.8523 34.479 33.9555 34.479L34.3683 34.995C34.4714 35.0982 34.6778 35.5109 34.781 35.5109C34.8842 35.5109 35.0906 34.995 35.0906 34.995C35.1938 34.995 35.4002 35.5109 35.5034 35.5109C35.6066 35.5109 35.7097 34.995 35.8129 34.995C35.9161 34.995 36.1225 35.6141 36.2257 35.5109C36.4321 35.4077 36.3289 34.995 36.5353 34.8918C36.6385 34.8918 36.9481 35.3045 37.0513 35.3045C36.9481 35.5109 36.9481 35.7173 36.7417 35.9237C36.6385 36.1301 36.4321 36.4397 36.3289 36.5429C36.2257 36.5429 35.9161 36.0269 35.9161 36.0269C35.8129 36.0269 35.6066 36.5429 35.6066 36.5429C35.5034 36.646 35.4002 36.9556 35.297 37.0588L34.9874 37.5748C34.8842 37.678 34.781 38.0907 34.6778 38.0907C34.5746 38.0907 34.3682 37.5748 34.2651 37.5748C34.1619 37.5748 34.0587 38.1939 33.9555 38.0907C33.8523 38.0907 33.6459 37.5748 33.5427 37.5748C33.4395 37.5748 33.2331 37.0588 33.1299 37.0588C33.0267 37.0588 32.8204 37.5748 32.8204 37.5748C32.8204 37.678 32.5108 38.1939 32.5108 38.0907C32.4076 38.0907 32.2012 37.5748 32.098 37.5748C31.9948 37.5748 31.7884 38.1939 31.7884 38.0907C31.6853 37.9875 31.4789 37.678 31.3757 37.5748C31.2725 37.4716 30.9629 37.0588 30.9629 37.0588C30.8597 37.0588 30.7565 37.5748 30.6533 37.5748C30.5501 37.5748 30.3438 37.0588 30.2406 37.0588C30.1374 37.0588 30.0342 37.5748 29.931 37.5748C29.8278 37.5748 29.6214 36.9556 29.5182 37.0588C29.415 37.0588 29.2086 37.4716 29.2086 37.5748C29.1054 37.678 29.0022 38.0907 28.8991 38.0907C28.7959 38.0907 28.5895 37.5748 28.4863 37.5748C28.3831 37.5748 28.2799 38.0907 28.1767 38.0907C28.0735 38.0907 27.8671 37.5748 27.7639 37.5748C27.6607 37.5748 27.5576 38.1939 27.4544 38.0907C27.248 38.0907 27.1448 37.5748 27.0416 37.5748C26.9384 37.5748 26.732 37.0588 26.6288 37.0588C26.5256 37.0588 26.4224 37.678 26.3192 37.5748C26.2161 37.5748 26.0097 37.0588 25.9065 37.0588C25.8033 37.0588 25.7001 37.5748 25.5969 37.5748C25.4937 37.5748 25.2873 36.9556 25.1841 37.0588C25.0809 37.0588 24.9777 37.5748 24.8745 37.5748C24.7714 37.678 24.6682 38.0907 24.565 38.0907C24.4618 38.0907 24.2554 37.4716 24.1522 37.5748C24.049 37.5748 23.9458 38.0907 23.8426 38.0907C23.7394 38.0907 23.533 37.5748 23.4299 37.5748C23.3267 37.5748 23.1203 38.0907 23.1203 38.0907C23.0171 38.1939 22.9139 38.6067 22.8107 38.6067C22.7075 38.6067 22.5011 38.0907 22.3979 38.0907C22.2947 38.0907 22.1915 38.7099 22.0884 38.6067C21.9852 38.6067 21.6756 38.0907 21.6756 38.0907L21.2628 37.5748C21.1596 37.4716 20.9532 37.0588 20.85 37.0588C20.7468 37.0588 20.5405 37.678 20.5405 37.678C20.4373 37.678 20.1277 37.162 20.0245 37.2652C19.9213 37.2652 19.8181 37.8844 19.8181 37.8844C19.8181 38.0907 19.8181 38.2971 19.8181 38.5035C19.8181 38.7099 19.9213 38.9163 19.9213 39.1227C19.9213 39.1227 20.0245 39.3291 20.0245 39.4322C20.1277 39.5354 20.1277 39.6386 20.1277 39.6386C20.0245 39.6386 19.6117 39.4322 19.5085 39.5354C19.5085 39.6386 19.9213 39.9482 19.9213 39.9482C19.8181 39.9482 19.4053 40.0514 19.3022 40.0514C19.0958 40.0514 18.8894 40.2578 18.683 40.361C18.5798 40.361 18.2702 39.9482 18.167 39.845C18.0638 39.845 17.6511 40.1546 17.5479 40.2578C17.3415 40.4642 17.1351 40.6706 16.9287 40.8769Z" fill="white"/>
<path fill-rule="evenodd" clip-rule="evenodd" d="M40.5598 36.5429C40.2502 36.5429 39.9406 36.5429 39.6311 36.4397C39.5279 36.4397 38.8055 36.2333 38.8055 36.2333C38.8055 36.027 39.1151 35.7174 39.1151 35.511C39.1151 35.3046 39.3215 34.8918 39.2183 34.7886C39.1151 34.6854 38.5991 34.6854 38.5991 34.5823C38.5991 34.3759 38.5991 34.0663 38.4959 33.9631C38.4959 33.8599 38.2896 33.4471 38.2896 33.4471C38.2896 33.4471 38.8055 33.5503 38.9087 33.5503C39.0119 33.5503 39.5279 33.5503 39.6311 33.5503C39.7342 33.4471 40.2502 33.6535 40.3534 33.5503C40.3534 33.4471 40.147 33.0344 40.0438 32.9312C40.0438 32.828 39.7342 32.4152 39.7342 32.312C39.7342 32.2088 40.3534 32.312 40.4566 32.312C40.5598 32.312 41.1789 32.312 41.1789 32.312C41.2821 32.2088 40.8694 31.7961 40.8694 31.6929C40.9726 31.5897 41.4885 31.7961 41.5917 31.6929C41.6949 31.5897 41.2821 31.1769 41.2821 31.0737C41.3853 30.9705 41.9013 31.1769 42.0045 31.0737C42.1077 30.9705 41.6949 30.5577 41.6949 30.4546C41.7981 30.4546 42.3141 30.3514 42.4172 30.4546C42.5204 30.4546 42.6236 30.9705 42.7268 31.0737C42.83 31.1769 43.346 30.9705 43.4492 31.0737L43.7588 31.6929C43.6556 31.7961 43.0364 31.5897 43.0364 31.6929C43.0364 31.7961 43.346 32.2088 43.346 32.312C43.2428 32.4152 42.7268 32.2088 42.6236 32.312C42.5204 32.4152 42.9332 32.828 42.9332 32.9312C42.83 33.0344 42.4173 32.9312 42.2109 32.9312L42.5204 33.5503C42.6236 33.6535 42.83 34.0663 42.83 34.1695C42.83 34.2727 42.2109 34.1695 42.1077 34.1695C42.1077 34.2727 42.4172 34.6854 42.4172 34.7886C42.3141 34.8918 41.9013 34.7886 41.6949 34.7886C41.5917 34.7886 40.9726 34.8918 40.8694 34.995C40.8694 35.0982 40.8694 35.7174 40.8694 35.8206C40.7662 35.9238 40.663 36.2333 40.5598 36.5429Z" fill="white"/>
<path fill-rule="evenodd" clip-rule="evenodd" d="M47.4735 20.8576C47.4735 20.9608 47.164 21.3736 47.2672 21.4768C47.3703 21.58 47.8863 21.3736 47.9895 21.3736C48.0927 21.3736 48.6087 21.1672 48.6087 21.064C48.7118 20.8576 48.6087 20.6512 48.815 20.548C48.815 20.4448 49.1246 20.1353 49.1246 20.1353C49.1246 20.1353 48.6087 20.3416 48.5055 20.3416C48.4023 20.3416 48.1959 20.7544 48.1959 20.7544C47.8863 20.8576 47.5767 20.7544 47.4735 20.8576Z" fill="white"/>
<path fill-rule="evenodd" clip-rule="evenodd" d="M53.2526 23.6435C53.3558 23.7466 53.8718 23.6435 53.8718 23.8498C53.8718 23.953 53.459 24.3658 53.459 24.469C53.5622 24.5722 54.0782 24.469 54.0782 24.6754C54.0782 24.7786 53.6654 25.1913 53.6654 25.2945C53.6654 25.3977 54.2846 25.2945 54.2846 25.5009C54.2846 25.6041 53.8718 26.0169 53.8718 26.1201C53.975 26.2233 54.4909 26.1201 54.4909 26.3265C54.4909 26.4297 54.0782 26.8424 54.0782 26.9456C54.1814 27.0488 54.5941 26.9456 54.6973 27.152C54.8005 27.2552 55.3165 27.152 55.3165 27.3584C55.3165 27.4616 54.9037 27.8744 54.9037 27.9775C55.0069 28.0807 55.5229 27.9775 55.5229 28.1839C55.6261 28.2871 55.1101 28.6999 55.1101 28.8031C55.1101 28.9063 55.7292 28.8031 55.7292 29.0095C55.7292 29.1127 55.3165 29.5254 55.3165 29.6286C55.3165 29.7318 55.8324 29.7318 55.9356 29.835C56.0388 29.835 56.5548 29.9382 56.5548 30.0414C56.5548 30.1446 56.142 30.5574 56.142 30.6605C56.2452 30.7637 56.7612 30.6605 56.7612 30.8669C56.7612 30.9701 56.3484 31.3829 56.3484 31.4861C56.4516 31.5893 56.9676 31.4861 56.9676 31.6925C57.0707 31.7957 56.5548 32.2084 56.5548 32.3116C56.5548 32.4148 57.1739 32.3116 57.1739 32.518C57.1739 32.518 56.8644 33.1372 56.7612 33.1372C56.5548 33.2404 56.3484 32.9308 56.142 32.9308C56.0388 32.8276 55.5229 32.9308 55.5229 32.7244C55.5229 32.6212 55.9356 32.2084 55.9356 32.1052C55.8324 32.002 55.4197 32.002 55.3165 31.8989C55.1101 31.8989 54.8005 31.7957 54.6973 31.6925C54.5941 31.6925 55.1101 31.1765 55.1101 31.0733C55.1101 30.9701 54.4909 30.9701 54.4909 30.8669C54.4909 30.7637 54.8005 30.351 54.9037 30.2478C55.0069 30.1446 55.3165 29.835 55.3165 29.6286C55.3165 29.5254 54.6973 29.5254 54.6973 29.4222C54.6973 29.319 54.1814 29.319 54.0782 29.2158C53.8718 29.2158 53.5622 29.1127 53.459 29.0095C53.3558 28.9063 53.8718 28.4935 53.8718 28.3903C53.8718 28.2871 53.2526 28.3903 53.2526 28.1839C53.2526 28.0807 53.6654 27.668 53.6654 27.5648C53.6654 27.4616 53.0462 27.5648 53.0462 27.3584C53.0462 27.2552 53.459 26.8424 53.459 26.7392C53.459 26.636 52.8399 26.7392 52.8399 26.5328C52.8399 26.4297 53.2526 26.0169 53.2526 25.9137C53.1494 25.8105 52.6335 25.9137 52.6335 25.7073C52.6335 25.6041 53.0462 25.1913 53.0462 25.0882C53.0462 24.985 52.4271 25.0882 52.4271 24.8818C52.4271 24.6754 52.8399 24.469 52.8399 24.2626C52.7367 24.1594 52.2207 24.2626 52.2207 24.0562C52.2207 24.0562 52.5303 23.4371 52.6335 23.4371C52.7367 23.3339 53.0462 23.6435 53.2526 23.6435Z" fill="white"/>
<path fill-rule="evenodd" clip-rule="evenodd" d="M58.9279 33.2406C58.9279 33.3438 58.5152 33.7565 58.5152 33.8597C58.5152 33.9629 59.0311 33.9629 59.1343 34.0661C59.3407 34.1693 59.6503 34.0661 59.7535 34.1693C59.8567 34.1693 59.4439 34.7885 59.5471 34.8916C59.6503 34.9948 60.1662 34.8916 60.2694 34.7885C60.3726 34.7885 60.7854 34.5821 60.8886 34.5821C60.8886 34.5821 60.8886 35.2012 60.9918 35.3044C60.9918 35.4076 61.095 35.9236 61.1982 36.0268C61.3014 36.0268 61.7141 35.614 61.7141 35.614C61.8173 35.5108 62.1269 35.2012 62.2301 35.2012C62.3333 35.2012 62.4365 35.8204 62.5397 35.8204C62.6428 35.8204 62.9524 35.3044 63.0556 35.4076C63.1588 35.4076 63.1588 36.0268 63.3652 36.0268C63.4684 36.0268 63.778 35.5108 63.8812 35.614C63.9844 35.7172 64.0875 36.2332 64.1907 36.2332C64.2939 36.2332 64.6035 35.9236 64.7067 35.8204L65.2227 35.4076C65.3259 35.3044 65.6354 34.9948 65.7386 34.9948C65.8418 34.9948 65.8418 35.614 66.0482 35.614C66.1514 35.614 66.461 35.098 66.5642 35.2012C66.6674 35.2012 66.6674 35.8204 66.8737 35.8204C66.9769 35.8204 67.2865 35.4076 67.3897 35.4076C67.4929 35.4076 67.5961 36.0268 67.6993 36.0268C67.8025 36.0268 68.112 35.614 68.2152 35.614C68.3184 35.5108 68.628 35.2012 68.7312 35.2012C68.8344 35.2012 68.9376 35.7172 69.0408 35.8204C69.144 36.0268 69.2472 36.3363 69.3504 36.4395C69.4535 36.5427 69.7631 36.0268 69.8663 36.0268C69.9695 36.0268 69.9695 36.6459 70.1759 36.6459C70.2791 36.6459 70.5887 36.2332 70.6919 36.2332C70.7951 36.13 71.1046 35.8204 71.2078 35.8204C71.311 35.8204 71.4142 36.3363 71.5174 36.4395C71.5174 36.5427 71.7238 37.0587 71.827 37.0587C71.9302 37.0587 72.2397 36.7491 72.3429 36.6459L72.8589 36.2332C72.9621 36.13 73.1685 35.8204 73.3749 35.8204C73.4781 35.8204 73.7876 35.3044 73.8908 35.4076C73.994 35.4076 74.0972 36.0268 74.2004 36.0268C74.3036 36.0268 74.6132 35.5108 74.7164 35.614C74.8196 35.614 74.8196 36.2332 75.0259 36.2332C75.1291 36.2332 75.4387 35.7172 75.5419 35.8204C75.6451 35.9236 75.6451 36.4395 75.8515 36.4395C75.8515 36.6459 76.1611 36.8523 76.1611 37.0587C76.1611 37.1619 75.7483 37.4715 75.6451 37.4715L75.1291 37.8842C75.0259 37.781 75.0259 37.2651 74.8196 37.2651C74.7164 37.2651 74.4068 37.781 74.3036 37.6778C74.2004 37.5746 74.0972 37.0587 73.994 37.0587C73.8908 37.0587 73.5812 37.4715 73.4781 37.4715C73.3749 37.5746 73.0653 37.8842 72.9621 37.8842C72.8589 37.8842 72.8589 37.2651 72.6525 37.2651C72.5493 37.2651 72.2397 37.781 72.1366 37.6778C72.0334 37.6778 71.9302 37.0587 71.827 37.0587C71.7238 37.0587 71.5174 37.5746 71.311 37.4715C71.2078 37.4715 70.8982 37.9874 70.7951 37.8842C70.6919 37.8842 70.5887 37.3683 70.4855 37.2651C70.4855 37.1619 70.2791 36.6459 70.1759 36.6459C70.0727 36.6459 69.7631 36.9555 69.6599 37.0587L69.144 37.4715L68.628 37.8842C68.5248 37.9874 68.2152 38.297 68.1121 38.297C68.0089 38.297 67.9057 37.6778 67.8025 37.6778L67.4929 37.0587C67.4929 36.9555 67.2865 36.4395 67.1833 36.4395C67.0801 36.4395 66.7705 36.9555 66.6674 36.8523C66.5642 36.8523 66.461 36.13 66.3578 36.2332C66.2546 36.2332 65.8418 36.6459 65.8418 36.6459L66.1514 37.2651C66.0482 37.2651 65.7386 37.781 65.6354 37.6778C65.5322 37.6778 65.429 37.0587 65.3259 37.0587C65.2227 37.0587 65.0163 37.4715 64.8099 37.4715C64.7067 37.4715 64.7067 36.8523 64.5003 36.8523C64.3971 36.8523 64.0875 37.3683 63.9844 37.2651C63.8812 37.1619 63.8812 36.6459 63.6748 36.6459C63.5716 36.6459 63.262 37.1619 63.1588 37.0587C63.0556 36.9555 62.9524 36.5427 62.8492 36.4395C62.8492 36.3363 62.6428 35.8204 62.5397 35.8204C62.4365 35.8204 62.1269 36.2332 62.0237 36.2332L61.5077 36.6459C61.5077 36.6459 61.4045 36.7491 61.1982 36.8523C61.095 36.9555 60.8886 37.0587 60.7854 36.9555C60.6822 36.9555 60.4758 36.3363 60.4758 36.2332C60.3726 36.0268 60.3726 35.614 60.2694 35.5108C60.2694 35.4076 59.6503 35.7172 59.5471 35.614C59.4439 35.5108 59.6503 34.8916 59.6503 34.8916C59.5471 34.7885 59.1343 34.8916 58.9279 34.7885C58.7215 34.6853 58.412 34.5821 58.2056 34.4789L57.5864 34.2725L57.9992 33.6533C57.9992 33.5501 58.3088 33.1374 58.412 33.0342C58.412 33.0342 58.7215 33.2406 58.9279 33.2406Z" fill="white"/>
<path fill-rule="evenodd" clip-rule="evenodd" d="M28.6928 77.5102C28.5896 77.7166 29.0023 78.3357 28.8991 78.4389C28.796 78.5421 27.9704 78.3357 27.8672 78.2325C27.5576 78.1293 27.1449 78.0261 26.8353 77.8197C26.9385 77.7166 26.6289 76.7878 26.8353 76.7878C26.9385 76.7878 27.6608 77.407 27.764 77.3038C27.764 77.2006 27.8672 76.4782 27.8672 76.375C27.8672 76.375 27.6608 76.2719 27.4545 76.1687C27.2481 76.0655 27.0417 75.9623 27.0417 75.8591C26.9385 75.7559 26.3193 75.3431 26.3193 75.1367C26.3193 74.9304 26.7321 74.4144 26.8353 74.3112C26.9385 74.208 27.4545 73.692 27.4545 73.5889C27.4545 73.4857 27.1449 72.8665 27.0417 72.7633C27.0417 72.6601 26.6289 72.3505 26.6289 72.2473C26.6289 72.1442 27.3513 72.041 27.2481 72.041C27.2481 71.9378 26.9385 71.6282 26.8353 71.525C26.7321 71.4218 26.4225 71.1122 26.4225 71.009C26.4225 70.9059 27.0417 70.9059 27.0417 70.8027C27.0417 70.6995 26.5257 70.3899 26.6289 70.2867C26.6289 70.1835 27.2481 70.1835 27.2481 70.0803C27.2481 69.9771 26.7321 69.6675 26.8353 69.5644C26.8353 69.4612 27.3513 69.358 27.4545 69.358C27.5576 69.358 28.0736 69.1516 28.0736 69.1516C28.0736 69.0484 27.6608 68.7388 27.6608 68.6356L27.2481 68.1197C27.2481 68.1197 27.8672 67.8101 27.8672 67.9133C27.9704 67.9133 28.1768 68.4292 28.28 68.4292C28.3832 68.4292 28.8991 68.2229 28.8991 68.2229C28.8991 68.2229 28.4864 67.8101 28.4864 67.7069C28.4864 67.6037 29.2087 67.5005 29.1055 67.5005L28.6928 66.9845C28.5896 66.9845 28.1768 67.2941 28.0736 67.1909C27.8672 67.0877 27.764 66.7782 27.6608 66.675C27.4545 66.5718 27.3513 66.3654 27.2481 66.159L26.8353 65.643L27.4545 65.4367C27.5576 65.4367 28.0736 65.1271 28.0736 65.2303L28.4864 65.7462C28.5896 65.643 29.1055 65.643 29.1055 65.5398C29.1055 65.4366 28.6928 65.1271 28.6928 65.0239C28.5896 64.8175 28.3832 64.7143 28.28 64.5079C28.1768 64.3015 27.9704 64.1983 27.8672 63.992C27.764 63.8888 27.4545 63.5792 27.4545 63.476L28.0736 63.2696L28.6928 63.0632C28.796 63.0632 29.3119 62.8568 29.3119 62.8568C29.3119 62.8568 28.8991 62.4441 28.8991 62.3409L28.4864 61.8249C28.3832 61.7217 28.1768 61.5153 28.0736 61.309C28.0736 61.2058 28.6928 61.1026 28.6928 61.1026C28.6928 60.9994 28.28 60.6898 28.28 60.5866C28.1768 60.4834 27.8672 60.1738 27.8672 60.0706L28.4864 59.8643C28.6928 59.8643 28.6928 60.277 28.8991 60.3802L29.7247 61.4121C29.8279 61.5153 30.0343 61.8249 30.1375 61.9281C30.2406 62.0313 30.447 62.4441 30.5502 62.4441L31.1694 62.2377C31.1694 62.3409 31.5821 62.6505 31.5821 62.7536C31.5821 62.8568 30.963 62.8568 30.963 62.96C30.963 63.0632 31.479 63.3728 31.3758 63.476C31.2726 63.5792 30.8598 63.6824 30.7566 63.6824C30.6534 63.6824 30.1375 63.8888 30.1375 63.8888C30.1375 63.992 30.5502 64.3015 30.5502 64.4047C30.6534 64.5079 30.963 64.8175 30.963 64.9207C30.963 65.0239 30.3438 65.1271 30.3438 65.1271C30.2406 65.1271 29.7247 65.3335 29.7247 65.3335C29.7247 65.4367 30.0343 65.7462 30.1375 65.8494L30.5502 66.3654C30.6534 66.4686 30.963 66.675 30.963 66.8813C30.963 66.9845 30.3438 67.0877 30.3438 67.0877C30.3438 67.1909 30.7566 67.5005 30.7566 67.6037C30.8598 67.7069 31.1694 68.0165 31.1694 68.1197C31.1694 68.2228 30.5502 68.326 30.5502 68.326C30.5502 68.4292 30.963 68.7388 30.963 68.842L30.3438 69.0484C30.1375 69.1516 29.8279 69.2548 29.7247 69.2548C29.6215 69.2548 29.4151 68.7388 29.3119 68.7388C29.2087 68.7388 28.796 68.9452 28.6928 68.9452C28.4864 68.9452 28.28 69.1516 28.0736 69.1516C28.1768 69.358 28.4864 69.4612 28.4864 69.6675C28.4864 69.7707 28.796 70.0803 28.8991 70.1835C29.0023 70.2867 29.3119 70.5963 29.3119 70.6995C29.3119 70.8027 28.6928 70.9058 28.6928 70.9058C28.6928 71.009 29.1055 71.3186 29.1055 71.4218C29.1055 71.525 28.4864 71.525 28.4864 71.6282C28.4864 71.7314 28.8991 72.041 28.8991 72.1442C29.0023 72.2474 29.3119 72.5569 29.3119 72.6601C29.3119 72.7633 28.6928 72.7633 28.6928 72.8665C28.6928 72.9697 29.2087 73.2793 29.1055 73.3825C29.0023 73.4857 28.4864 73.5889 28.4864 73.7952C28.4864 74.0016 29.0023 74.208 29.0023 74.3112C29.0023 74.4144 28.4864 74.724 28.4864 74.9304C28.5896 75.1367 29.1055 75.1367 29.2087 75.2399C29.2087 75.3431 28.796 75.8591 28.8991 75.9623C29.0023 76.0655 29.5183 76.0655 29.6215 76.0655C29.7247 76.0655 30.3438 75.9623 30.3438 76.0655V76.7878C30.2406 76.891 29.6215 76.7878 29.6215 76.891C29.5183 76.9942 29.8279 77.6134 29.7247 77.7166C29.3119 77.7166 28.8991 77.5102 28.6928 77.5102Z" fill="white"/>
<path fill-rule="evenodd" clip-rule="evenodd" d="M42.4173 28.1843L41.9014 26.946C42.1078 27.0492 42.4173 26.8428 42.6237 26.946C42.7269 27.0492 42.7269 27.4619 42.9333 27.5651H43.6556C43.7588 27.4619 44.2748 27.6683 44.378 27.5651C44.4812 27.4619 44.0684 27.0492 44.0684 26.946C44.0684 26.8428 43.7588 26.43 43.7588 26.3268C43.862 26.2236 44.4812 26.3268 44.4812 26.3268C44.4812 26.2236 44.2748 25.8109 44.1716 25.7077C44.0684 25.6045 43.862 25.1917 43.862 25.0885C43.862 24.9853 44.4812 25.0885 44.5844 25.0885C44.6876 24.9853 44.2748 24.5725 44.2748 24.4694C44.378 24.3662 44.8939 24.5725 44.9971 24.4694C45.1003 24.3662 44.6876 23.9534 44.6876 23.8502C44.7908 23.747 45.2035 23.8502 45.4099 23.8502C45.5131 23.747 46.0291 23.9534 46.1323 23.8502C46.2354 23.747 45.8227 23.3342 45.8227 23.231C45.9259 23.1278 46.4418 23.3342 46.545 23.231C46.6482 23.1278 46.2355 22.7151 46.2355 22.6119C46.3386 22.5087 46.9578 22.7151 46.9578 22.6119C46.9578 22.5087 46.6482 22.0959 46.6482 21.9927C46.7514 21.8895 47.2674 22.0959 47.3706 21.9927C47.4738 21.8895 47.061 21.4768 47.061 21.3736C47.1642 21.2704 47.6801 21.4768 47.7833 21.3736C47.8865 21.2704 48.4025 21.4768 48.5057 21.3736C48.6089 21.2704 48.1961 20.8576 48.1961 20.7544C48.1961 20.6512 47.8865 20.2385 47.8865 20.1353C47.9897 20.0321 48.5057 20.2385 48.6089 20.1353C48.6089 20.0321 49.228 20.1353 49.228 20.2385C49.228 20.2385 48.9185 19.9289 48.8153 19.9289C48.7121 19.9289 48.5057 19.5161 48.5057 19.5161C48.5057 19.5161 48.9185 19.8257 48.9185 19.9289C49.0216 20.0321 49.228 20.4448 49.228 20.4448C49.228 20.4448 49.4344 20.9608 49.4344 21.064C49.4344 21.064 49.228 20.6512 49.228 20.548C49.228 20.4448 49.1248 20.0321 49.228 20.0321V20.6512L49.3312 20.1353C49.3312 20.1353 49.1248 20.6512 49.1248 20.7544C49.0216 20.9608 49.1248 21.064 49.1248 21.2704C49.1248 21.4768 49.1248 21.58 49.228 21.7864C49.228 21.8895 49.4344 22.3023 49.5376 22.3023C49.6408 22.1991 49.6408 21.6832 49.6408 21.6832C49.744 21.58 49.5376 21.064 49.6408 21.064C49.6408 21.064 49.9504 21.4768 50.0536 21.4768C50.0536 21.3736 49.8472 20.9608 49.8472 20.8576L50.26 21.1672C50.26 21.064 49.8472 20.7544 49.8472 20.6512L50.3632 20.8576C50.3632 20.7544 50.1568 20.8576 50.0536 20.8576C49.8472 20.8576 49.744 20.8576 49.744 20.8576C49.6408 20.9608 50.0536 21.3736 50.0536 21.4768C49.9504 21.58 49.4344 21.3736 49.3312 21.4768C49.228 21.58 49.6408 21.9927 49.6408 22.0959C49.6408 22.1991 49.0216 21.9927 48.9185 22.0959C48.8153 22.1991 49.228 22.6119 49.228 22.7151C49.1248 22.8183 48.6089 22.6119 48.5057 22.7151C48.4025 22.8183 48.8153 23.231 48.8153 23.3342C48.7121 23.4374 48.1961 23.231 48.0929 23.3342C48.0929 23.4374 48.4025 23.9534 48.4025 23.9534C48.2993 24.0566 47.8865 23.9534 47.6801 23.9534C47.5769 23.9534 47.061 23.9534 46.9578 23.9534C46.8546 24.0566 47.2674 24.4694 47.2674 24.5725C47.1642 24.6757 46.545 24.4694 46.545 24.5725C46.545 24.6757 46.8546 24.9853 46.8546 25.1917C46.8546 25.2949 47.1642 25.7077 47.1642 25.8108C47.061 25.914 46.545 25.7077 46.4418 25.8108C46.3386 25.914 46.7514 26.3268 46.7514 26.43C46.6482 26.5332 46.1323 26.3268 46.0291 26.43C45.9259 26.5332 46.3386 26.946 46.3386 27.0492C46.2355 27.1524 45.7195 26.946 45.6163 27.0492C45.6163 27.1524 45.8227 27.5651 45.9259 27.6683C46.0291 27.7715 46.2355 28.1843 46.2355 28.2875C46.2355 28.3907 45.6163 28.2875 45.5131 28.2875C45.4099 28.3907 45.8227 28.8034 45.8227 28.9066C45.7195 29.0098 45.3067 28.9066 45.1003 28.9066H44.378L42.9333 29.0098L42.4173 28.1843Z" fill="white"/>
</svg>
