<svg width="100" height="100" viewBox="0 0 100 100" fill="none" xmlns="http://www.w3.org/2000/svg">
<g clip-path="url(#clip0_391_937)">
<path d="M18.3213 21.9629L58.5336 91.6126C59.8157 93.8332 65.8748 92.7346 72.0631 89.1617C78.2513 85.5889 82.2036 80.8654 80.9398 78.6764L40.7275 9.02666L18.3213 21.9629Z" fill="url(#paint0_linear_391_937)"/>
<path d="M18.3213 21.9629L58.5336 91.6126C59.8157 93.8332 65.8748 92.7346 72.0631 89.1617C78.2513 85.5889 82.2036 80.8654 80.9398 78.6764L40.7275 9.02666L18.3213 21.9629Z" fill="url(#paint1_linear_391_937)"/>
<path d="M31.8506 19.5118C38.0408 15.9379 42.0198 11.2407 40.7378 9.02035C39.4559 6.80002 33.3986 7.89731 27.2084 11.4712C21.0182 15.0451 17.0392 19.7423 18.3211 21.9627C19.603 24.183 25.6604 23.0857 31.8506 19.5118Z" fill="#EEBE7B"/>
<path d="M52.602 71.6167L54.4655 69.0112L56.9179 71.0473L55.1744 57.6006L50.8523 58.1594L52.602 71.6167Z" fill="#C34F4F"/>
<path fill-rule="evenodd" clip-rule="evenodd" d="M59.6728 41.8411C60.9367 44.0302 56.9844 48.7537 50.7961 52.3265C44.6078 55.8993 38.5487 56.998 37.2666 54.7773L40.3047 60.0395C41.5868 62.2601 47.6459 61.1614 53.8342 57.5886C60.0225 54.0158 63.9748 49.2923 62.7109 47.1033L59.6728 41.8411Z" fill="url(#paint2_linear_391_937)"/>
<path d="M56.1354 55.1094L53.4904 58.573L64.2533 66.8124L63.7267 63.6644L66.9044 63.3593L56.1354 55.1094Z" fill="#C34F4F"/>
<path d="M55.001 59.9741C58.1978 58.1284 59.2931 54.0406 57.4474 50.8438C55.6018 47.647 51.514 46.5517 48.3172 48.3973C45.1203 50.243 44.025 54.3308 45.8707 57.5276C47.7164 60.7244 51.8042 61.8197 55.001 59.9741Z" fill="#FFB73E" stroke="#DF8C2C" stroke-miterlimit="10"/>
</g>
<defs>
<linearGradient id="paint0_linear_391_937" x1="36.0139" y1="61.114" x2="74.0423" y2="37.0534" gradientUnits="userSpaceOnUse">
<stop stop-color="#FBE4C8"/>
<stop offset="0.919385" stop-color="#FFD391"/>
</linearGradient>
<linearGradient id="paint1_linear_391_937" x1="36.0139" y1="61.114" x2="74.0423" y2="37.0534" gradientUnits="userSpaceOnUse">
<stop stop-color="#FBE4C8"/>
<stop offset="0.919385" stop-color="#FFD391"/>
</linearGradient>
<linearGradient id="paint2_linear_391_937" x1="-2.43357" y1="41.9157" x2="43.8733" y2="15.1804" gradientUnits="userSpaceOnUse">
<stop stop-color="#DF8F85"/>
<stop offset="1" stop-color="#C34F4F"/>
</linearGradient>
<clipPath id="clip0_391_937">
<rect width="25.8846" height="89.6726" fill="white" transform="translate(16 17.9424) rotate(-30)"/>
</clipPath>
</defs>
</svg>
