<svg width="100" height="100" viewBox="0 0 100 100" fill="none" xmlns="http://www.w3.org/2000/svg">
<path fill-rule="evenodd" clip-rule="evenodd" d="M29.8435 88.7189C29.7333 88.7776 29.7333 89.2142 29.5976 89.2561C29.4875 89.2897 29.1908 88.87 29.0975 88.9119C28.9704 88.9623 28.9534 89.3821 28.8094 89.4156C28.6907 89.4492 28.4703 89.0127 28.3516 89.0211C28.233 89.0295 28.1651 89.4828 28.0295 89.4996C27.9024 89.5164 27.7413 89.0631 27.6311 89.0547C27.5209 89.0463 27.3938 89.4996 27.2582 89.4912C27.131 89.4912 27.0378 89.0043 26.9276 88.9875C26.8598 88.9707 26.5886 89.4324 26.5123 89.3821C26.4699 89.3569 26.241 88.8868 26.258 88.8448C26.3004 88.6937 26.6225 88.6349 26.6564 88.4838C26.7666 88.467 26.9107 88.0641 26.9954 88.0809C27.0802 88.1061 27.1649 88.5762 27.2751 88.5762C27.3853 88.5846 27.4786 88.1312 27.5718 88.148C27.665 88.1564 27.8091 88.5929 27.9278 88.5929C28.0465 88.5846 28.0889 88.1396 28.1906 88.1312C28.2923 88.1144 28.4872 88.551 28.6059 88.5258C28.7246 88.5006 28.7331 88.0557 28.8348 88.0305C28.945 88.0053 29.1738 88.3831 29.3095 88.3831C29.5044 88.4922 29.6655 88.6013 29.8435 88.7189Z" fill="white"/>
<path fill-rule="evenodd" clip-rule="evenodd" d="M12.1024 64.1473C12.1109 64.0046 11.7295 63.7527 11.7634 63.6184C11.7973 63.4757 12.2804 63.4673 12.3143 63.333C12.3567 63.1987 11.9668 62.93 12.0092 62.7957C12.06 62.6614 12.5093 62.6446 12.5856 62.5271C12.6619 62.4096 13.1196 62.4012 13.162 62.2752C13.2043 62.1661 12.806 61.8303 12.8653 61.7296C12.9501 61.5869 13.3315 61.6121 13.4417 61.4861C13.4756 61.4693 14.0181 61.2511 14.0265 61.2595C14.0604 61.3266 14.3232 61.7296 14.3063 61.7967C14.2808 61.8723 13.7299 61.9478 13.7383 62.0234C13.7468 62.1661 13.9672 62.4263 14.035 62.5523C14.0774 62.6278 14.3656 63.0056 14.3402 63.0643C14.3147 63.1315 13.8485 63.2658 13.7638 63.3162C13.679 63.3582 13.2128 63.5009 13.1959 63.5764C13.1789 63.6268 13.5688 64.0717 13.5349 64.0885C13.4756 64.1305 13.0518 64.3823 12.984 64.3739C12.8568 64.3403 12.772 63.8702 12.6449 63.8535C12.4754 63.8367 12.2804 64.1389 12.1024 64.1473Z" fill="white"/>
<path fill-rule="evenodd" clip-rule="evenodd" d="M14.1115 59.9499C13.7131 60.0842 13.3232 60.2186 12.9248 60.3697L12.4247 59.2112C12.4586 59.0685 12.1195 58.7495 12.1789 58.6152C12.2297 58.4976 12.7637 58.5312 12.7976 58.4137C12.8231 58.3381 12.5349 57.868 12.5942 57.8177C12.7044 57.7169 13.0689 57.6749 13.213 57.633C13.2808 57.6162 13.8063 57.5154 13.8233 57.4651C13.8572 57.3727 13.6622 56.9698 13.6283 56.8607C13.5605 56.6592 13.5096 56.4577 13.4588 56.2562C13.4164 56.1051 13.2808 55.7945 13.3062 55.6434C13.3232 55.5595 13.8911 55.5846 13.9419 55.5091C14.0182 55.3916 13.747 55.0306 13.7978 54.8879C13.8487 54.7452 13.5775 54.3758 13.6622 54.2499C13.73 54.1407 14.2556 54.2499 14.3064 54.1407C14.3403 54.0652 14.1454 53.5531 14.2047 53.5111C14.3318 53.4272 14.6963 53.444 14.8489 53.4188L15.4846 53.3432C15.544 53.763 15.6203 54.1743 15.6881 54.5773C15.6287 54.7116 15.8915 55.0642 15.8067 55.1733C15.7304 55.2656 15.2303 55.1565 15.188 55.2656C15.1286 55.4167 15.4168 55.7358 15.3405 55.8701C15.2812 55.9876 14.7896 55.8701 14.7218 55.9876C14.6455 56.1135 14.9421 56.4493 14.8828 56.5836C14.8235 56.7179 15.1286 57.0453 15.0523 57.1713C14.976 57.2888 14.5099 57.188 14.442 57.314C14.3742 57.4399 14.7133 57.7841 14.6455 57.9016C14.6031 57.9772 14.0437 57.9772 14.0352 58.0611C14.0267 58.2038 14.1962 58.4976 14.2471 58.6403L14.459 59.2028C14.5099 59.3455 14.6963 59.6141 14.6963 59.7652C14.7048 59.8324 14.1538 59.8828 14.1115 59.9499Z" fill="white"/>
<path fill-rule="evenodd" clip-rule="evenodd" d="M17.2816 51.9916L16.6459 52.0084C16.5696 52.0084 16.0441 52.0839 16.0017 52.0336C15.883 51.916 16.0526 51.5383 15.9678 51.3956L15.9424 50.7492C15.9424 50.6736 15.8746 50.1364 15.9254 50.086C16.0441 49.9685 16.434 50.1615 16.5866 50.086C16.6628 50.2119 16.4679 50.6232 16.5866 50.7324C16.6459 50.7911 17.1969 50.6484 17.2308 50.7324C17.2816 50.8667 17.2308 51.2109 17.2477 51.3704L17.2816 51.9916Z" fill="white"/>
<path fill-rule="evenodd" clip-rule="evenodd" d="M19.1379 50.8416C18.7226 50.7997 18.2987 50.7745 17.8665 50.7577C17.8665 50.3464 17.8834 49.9182 17.9004 49.4901L17.9343 48.8353C17.9343 48.7178 17.9258 48.2645 18.0021 48.1889C18.0445 48.1469 18.5869 48.2477 18.6632 48.2645C18.7565 48.2728 19.2481 48.3988 19.3074 48.3484C19.3329 48.3316 19.4176 47.7356 19.4007 47.7104C19.3837 47.6852 18.7734 47.6013 18.7565 47.6181C18.8751 47.5089 18.731 47.064 18.8667 46.9633C18.9429 46.9045 19.4176 47.0472 19.5109 47.0556C19.5787 47.0556 20.1042 47.2151 20.1551 47.1731C20.2568 47.0892 20.6806 47.383 20.7993 47.3158C20.8925 47.2571 20.8925 46.7954 20.9434 46.6946C21.0281 46.5267 21.0536 46.2497 21.1044 46.065C21.1383 45.9223 21.1807 45.5361 21.2824 45.4186C21.3417 45.3347 21.8249 45.6453 21.9181 45.6033C22.0368 45.5445 22.0114 45.0241 22.1385 44.9905C22.2318 44.9653 22.7064 45.2591 22.7658 45.2004C22.876 45.0996 22.9438 44.7303 23.0031 44.5875L23.2574 43.9663C23.2913 43.8656 23.4524 43.4039 23.5456 43.3703C23.6219 43.3367 24.0966 43.597 24.1728 43.6305C24.3254 43.6977 24.6221 43.8992 24.7747 43.8992C24.8679 43.8992 24.9866 43.3451 25.0798 43.3115C25.2239 43.2612 25.5121 43.6054 25.6647 43.597C25.7749 43.5886 25.8766 43.0513 26.0037 43.0177C26.097 42.9925 26.4954 43.2947 26.5801 43.3367C26.7751 43.4291 26.9531 43.5634 27.1396 43.6725C27.1311 43.5214 27.5295 43.278 27.504 43.1268C27.4786 43.0009 26.9446 42.9002 26.9446 42.7827C26.9446 42.6651 27.2582 42.3377 27.3345 42.2286C27.3854 42.1531 27.6566 41.7081 27.7499 41.6913C27.8939 41.6662 28.1821 42.1027 28.3093 42.0607C28.428 42.0187 28.6229 41.5402 28.7501 41.5402C28.945 41.5486 29.1061 41.8928 29.2925 41.9348L28.8603 42.4469C28.7924 42.5308 28.4364 42.8582 28.4534 42.959C28.4534 42.9757 28.9535 43.3535 28.9789 43.3451C29.1061 43.3283 29.2586 42.8246 29.3858 42.833C29.5723 42.8498 29.7164 43.2024 29.8944 43.2444C30.0215 43.0681 30.1995 42.9338 30.3267 42.7575C30.3097 42.7827 30.8098 43.1436 30.8098 43.194C30.8098 43.278 30.4368 43.5886 30.3775 43.6641C30.2504 43.832 30.0978 43.9831 29.9706 44.151C29.8435 44.3189 29.7164 44.4784 29.5892 44.6463C29.5129 44.7554 29.3434 45.0996 29.2332 45.1416C29.1484 45.1752 28.8518 44.7303 28.7416 44.747C28.6483 44.7638 28.4788 45.2843 28.4025 45.2591C28.2584 45.2171 28.0211 44.9821 27.8939 44.8898C27.8346 44.8478 27.4278 44.512 27.3684 44.5372C27.2752 44.5624 27.0972 44.9989 27.0548 45.0828L26.7581 45.6285C26.7073 45.7208 26.5801 46.1574 26.4954 46.1909C26.4445 46.2161 26.0207 45.9223 25.9529 45.8887C25.8935 45.8552 25.4104 45.6537 25.3934 45.5949C25.385 45.5613 25.6308 45.0325 25.6562 45.0241C25.5121 45.066 25.2324 44.6883 25.0798 44.7386C24.9696 44.7722 24.8849 45.2255 24.8086 45.3095C24.6899 45.4522 24.6306 45.7124 24.5543 45.8719C24.4949 45.9895 24.4356 46.3756 24.3339 46.4596C24.2661 46.5267 23.8507 46.1825 23.749 46.2245C23.6388 46.2749 23.6643 46.7954 23.5541 46.8206C23.4778 46.8373 23.0031 46.5435 22.9523 46.5939C22.8505 46.703 22.8082 47.0472 22.7658 47.1815C22.7403 47.2487 22.681 47.7608 22.6217 47.7859C22.5454 47.8195 22.1131 47.6348 22.0199 47.6097C21.952 47.5929 21.4519 47.4082 21.4096 47.4418C21.3333 47.5089 21.2994 47.9455 21.2824 48.0546C21.2655 48.1301 21.2231 48.6254 21.1722 48.6506C21.0366 48.7094 20.6721 48.4407 20.5619 48.5247C20.4433 48.617 20.6043 49.062 20.4856 49.1459C20.4009 49.2047 19.9262 48.9528 19.8584 49.0368C19.7821 49.1375 19.8075 49.5237 19.7991 49.6496L19.7482 50.254C19.655 50.3631 19.8414 50.7829 19.7397 50.8752C19.655 50.9928 19.265 50.7661 19.1379 50.8416Z" fill="white"/>
<path fill-rule="evenodd" clip-rule="evenodd" d="M31.7166 43.1939L32.1912 42.749C32.3353 42.623 32.5218 42.4132 32.6998 42.3292C32.81 42.2789 33.1067 41.8927 33.2338 41.9179C33.3271 41.9263 33.5898 42.4552 33.6576 42.43C33.8272 42.3796 34.0645 42.1361 34.2171 42.0438C34.3188 41.9766 34.6663 41.6828 34.8019 41.6828C34.8697 41.6744 35.1579 42.1697 35.1918 42.2285C35.2427 42.2956 35.4885 42.7742 35.5563 42.7825C35.7174 42.7993 35.9886 42.4216 36.1581 42.4719C36.3192 42.5223 36.3362 43.0008 36.4887 43.0512C36.5735 43.068 37.0058 42.8077 37.1075 42.7825C37.1584 42.7658 37.7178 42.5055 37.7517 42.5307C37.8026 42.5643 38.0568 43.1099 38.0314 43.1435C37.9721 43.261 37.4211 43.2443 37.3957 43.3702C37.3618 43.5381 37.6669 43.7899 37.65 43.9746C37.4465 44.0502 37.2516 44.1257 37.0482 44.2181L36.4718 44.4867C36.3785 44.5203 36.0056 44.7973 35.9208 44.7805C35.8615 44.7721 35.675 44.2852 35.6411 44.2181C35.5394 44.025 35.4377 43.8487 35.3275 43.664C35.2766 43.5717 35.0901 43.1519 34.9884 43.1099C34.9291 43.0848 34.5053 43.4289 34.4459 43.4709L33.9289 43.8403C33.8017 43.9326 33.5729 44.1929 33.4372 44.2348C33.361 44.26 33.1491 43.7396 33.0558 43.7228C32.9032 43.7144 32.7252 44.1257 32.5811 44.1425C32.437 44.1593 32.2675 44.579 32.1319 44.5706C32.1065 44.5706 31.7166 44.1341 31.7166 44.1005C31.7166 43.9746 32.1827 43.7815 32.1658 43.6556C32.1319 43.4877 31.7759 43.3702 31.7166 43.1939Z" fill="white"/>
<path fill-rule="evenodd" clip-rule="evenodd" d="M38.2094 45.7879C38.1162 45.3934 38.006 44.9736 37.8704 44.5791C38.0738 44.5035 38.2772 44.4447 38.4807 44.3776C38.5739 44.344 39.0655 44.2769 39.1249 44.2013C39.1672 44.1425 38.9553 43.6556 38.9214 43.5717L38.6841 42.9337C38.6417 42.8246 38.3874 42.4216 38.4128 42.3125C38.4128 42.2957 39.074 42.0942 39.1079 42.1278C39.269 42.2117 39.2266 42.6651 39.3707 42.7742C39.5402 42.833 39.9216 42.5391 40.0827 42.6399C40.1844 42.6986 40.2014 43.2863 40.2946 43.3031C40.4641 43.3366 40.8286 43.2191 41.049 43.2443C41.1168 43.2359 41.8542 43.2443 41.8966 43.2947C41.9475 43.3534 42.1 44.025 42.0661 44.0502C41.9475 44.1509 41.4219 43.8739 41.2778 43.9746C41.227 44.109 41.5237 44.5875 41.4135 44.6966C41.3033 44.7973 40.8116 44.5707 40.6676 44.6714C40.5319 44.7637 40.0318 44.5791 39.9471 44.7134C39.9132 44.7805 40.159 45.3598 40.0827 45.385C39.9047 45.4521 39.5995 45.4269 39.4215 45.4689L38.8028 45.62C38.6078 45.662 38.4128 45.7124 38.2094 45.7879Z" fill="white"/>
<path fill-rule="evenodd" clip-rule="evenodd" d="M42.1936 45.4857C42.1173 45.6452 42.2868 46.0398 42.1681 46.1741C42.0918 46.258 41.5833 45.9726 41.4815 46.0566C41.4053 46.1321 41.5409 46.6778 41.4307 46.7113C41.2612 46.7701 40.9645 46.5854 40.778 46.6442C40.8204 46.2161 40.8119 45.7795 40.7695 45.3262C40.8967 45.2339 41.3714 45.4605 41.4815 45.3682C41.5409 45.3262 41.3544 44.6798 41.4053 44.6714C41.4815 44.6546 42.1173 44.6882 42.1596 44.7554C42.2953 44.9149 42.1003 45.3346 42.1936 45.4857Z" fill="white"/>
<path fill-rule="evenodd" clip-rule="evenodd" d="M41.1677 47.9706C41.2864 47.8699 41.2101 47.4417 41.3203 47.3578C41.4559 47.2655 41.8204 47.5677 41.9475 47.4921C42.0832 47.4166 41.9645 46.9297 42.0832 46.8457C42.2018 46.7618 42.6341 47.1143 42.7443 47.0304C42.8715 46.9381 42.7274 46.4344 42.8545 46.3504C42.9308 46.2917 43.4902 46.6526 43.5496 46.5855C43.6428 46.4596 43.6259 46.0482 43.6428 45.8719C43.6598 45.8132 43.6513 45.1416 43.6767 45.1332C43.7445 45.1248 44.4057 45.3347 44.4396 45.4102C44.5074 45.5109 44.3803 46.0482 44.3718 46.1573C44.3548 46.4092 44.287 46.6442 44.2446 46.8877C44.126 46.9884 44.2277 47.5257 44.0751 47.5845C43.9819 47.618 43.4733 47.1983 43.4055 47.2738C43.3122 47.383 43.2699 47.7943 43.219 47.9286C43.202 48.0042 43.0495 48.5499 42.9817 48.5582C42.846 48.5918 42.5239 48.298 42.3714 48.298C42.1849 48.2812 41.9306 48.1469 41.7611 48.0965C41.5746 48.0462 41.3627 48.0042 41.1677 47.9706Z" fill="white"/>
<path fill-rule="evenodd" clip-rule="evenodd" d="M44.4819 48.6506C44.8973 48.9277 45.2957 49.2886 45.6771 49.7C45.6771 49.935 45.2872 50.1533 45.2872 50.3884C45.2957 50.4723 45.7364 50.9844 45.7703 51.1019C45.8297 51.2026 46.2111 51.7903 46.1772 51.9498C46.1518 52.1093 45.6686 52.5458 45.5839 52.6214C45.4482 52.7725 45.0583 52.9991 44.9227 53.1922C44.8549 53.2929 45.1007 53.9897 44.982 54.1576C44.8888 54.3255 44.2446 54.4346 44.1853 54.5606C44.0751 54.7788 44.0327 55.2657 43.9564 55.5092C43.8547 55.8366 43.7191 56.1136 43.5665 56.4242C43.4139 56.7348 43.2274 57.037 43.0071 57.3224C42.9053 57.4735 42.4985 58.0612 42.2866 58.1367C42.2611 58.1451 42.0238 58.1199 41.7949 58.0696C41.5661 58.0192 41.3627 57.9436 41.3542 57.9353C41.3542 57.9185 41.5407 57.759 41.7271 57.5827C41.9051 57.4064 42.0747 57.2385 42.0747 57.2385C41.8712 57.2469 41.3966 56.995 41.227 57.0202C41.0575 57.0706 40.7015 57.5407 40.532 57.6163C40.2692 57.7506 40.0064 57.994 39.7776 58.1283C39.6759 58.1955 39.1079 58.5817 38.9808 58.5649C38.8367 58.5565 38.4468 58.1199 38.3705 58.0444C38.1925 57.8597 38.0145 57.675 37.8535 57.4903C37.6331 57.6163 37.3533 57.675 37.133 57.7841C37.1669 57.7674 36.7007 57.2385 36.7261 57.1881C36.7685 57.0874 37.311 57.0034 37.4127 56.9195C37.5737 56.802 37.8874 56.7012 38.0738 56.6089C38.2942 56.4997 38.4892 56.357 38.7096 56.2479C38.8198 56.2059 39.2012 55.8366 39.2944 55.845C39.3961 55.845 39.7182 56.3486 39.8369 56.3067C40.0319 56.2395 40.2692 55.9289 40.3879 55.7946C40.4726 55.719 40.7524 55.2657 40.8456 55.2321C40.9982 55.1734 41.3372 55.5679 41.5152 55.484C41.6508 55.4336 41.761 54.8292 41.8543 54.8124C42.0238 54.7704 42.3883 54.8628 42.5748 54.8628C42.6595 54.8796 43.2953 54.888 43.3546 54.7872C43.4563 54.6529 43.4902 54.0821 43.4733 53.9561C43.4733 53.6791 43.4563 53.4105 43.4224 53.167C43.4054 53.0159 43.1935 52.5962 43.219 52.4703C43.2444 52.4283 43.7445 52.1345 43.8038 52.0841C43.8716 52.0421 44.3717 51.6812 44.3548 51.5972C44.3548 51.4293 43.8971 51.1103 43.931 50.976C43.9564 50.7997 44.3802 50.615 44.3633 50.4135C44.3548 50.2372 43.8377 50.0358 43.8377 49.9099C43.8377 49.7084 44.1768 49.5153 44.1937 49.297C44.2955 49.0872 44.3887 48.8689 44.4819 48.6506Z" fill="white"/>
<path fill-rule="evenodd" clip-rule="evenodd" d="M37.0481 56.3319C36.8362 56.4326 36.6073 56.4913 36.3869 56.5837C36.2937 56.6257 35.7512 56.7264 35.7088 56.802C35.6664 56.8775 35.9801 57.3308 36.0309 57.4232C36.0479 57.4735 36.3615 58.0444 36.4039 58.0444C36.2428 58.0444 35.8105 58.3214 35.658 58.2626C35.5478 58.2207 35.3613 57.717 35.3189 57.6246C35.2426 57.5155 35.1494 57.0454 35.0477 56.9866C34.8951 56.8859 34.9629 56.4326 34.8103 56.3486C34.7256 56.3067 34.2424 56.4997 34.1322 56.5165C33.9712 56.5501 33.5982 56.7096 33.4456 56.6509C33.327 56.6173 33.3609 56.0632 33.2592 55.9961C33.132 55.9121 32.6912 56.1975 32.5641 56.0968C32.4793 56.0212 32.4285 55.5595 32.4115 55.442C32.3946 55.3581 32.3522 54.8124 32.2929 54.7788C32.225 54.7368 31.6487 54.8963 31.6147 54.8376C31.53 54.6781 31.5469 54.3591 31.53 54.1828C31.513 54.1072 31.5385 53.57 31.4791 53.5196C31.4028 53.4608 30.9197 53.5364 30.818 53.528C30.7247 53.528 30.2077 53.5868 30.1399 53.528C30.089 53.4944 30.1653 52.8648 30.1314 52.8648C30.0466 52.8564 29.5211 52.7725 29.4618 52.8228C29.4363 52.8396 29.4279 53.4692 29.4533 53.4944C29.3346 53.3769 28.8854 53.5616 28.7667 53.4273C28.6819 53.3349 28.8006 52.8816 28.7752 52.7641C28.7328 52.571 28.7921 52.3024 28.8176 52.1009C28.826 52.0001 28.9362 51.5132 28.8854 51.4461C28.843 51.3873 28.3175 51.3621 28.2242 51.3454C28.0038 51.3118 27.775 51.2782 27.5631 51.2278C27.4613 51.2026 26.9697 51.1523 26.9104 51.0683C26.8595 51.0096 27.0121 50.4891 27.0291 50.4135C27.063 50.254 27.1901 49.9266 27.1647 49.7755C27.1477 49.6916 26.5798 49.6832 26.529 49.5908C26.4527 49.4565 26.7832 49.0788 26.6985 48.9528C26.6476 48.8773 26.156 48.7849 26.0628 48.7514C25.978 48.7346 25.4609 48.5835 25.4355 48.5163C25.4101 48.4408 25.6983 47.9203 25.6474 47.8867C25.4948 47.7776 25.2066 47.7104 25.0202 47.6349C24.8083 47.5509 24.6048 47.4586 24.4014 47.3578C24.3082 47.3159 23.842 47.148 23.7911 47.0556C23.7572 46.9885 24.02 46.51 24.0539 46.4428C24.0878 46.3672 24.3505 45.9055 24.3251 45.8468C24.2573 45.6873 23.8081 45.6789 23.7487 45.5194C23.6894 45.3683 23.2062 45.3347 23.1639 45.1752C23.1215 45.0409 23.5283 44.7051 23.469 44.5876C23.4266 44.4952 22.9096 44.3105 22.9096 44.2098C22.918 44.0587 23.1723 43.7649 23.2486 43.6389L23.5961 43.0849C23.63 43.0261 23.9861 42.6064 23.9691 42.5476C23.9437 42.4469 23.5368 42.2202 23.4436 42.1531C23.3842 42.1111 22.9774 41.7249 22.918 41.7417C22.8841 41.7501 22.5197 42.2622 22.5281 42.279C22.4603 42.1363 22.0195 42.002 21.9941 41.8425C21.9687 41.6746 22.4095 41.4647 22.401 41.3052C22.384 41.1457 21.9178 41.0114 21.9009 40.8435C21.8839 40.6756 22.3077 40.4909 22.3247 40.323C22.3416 40.1971 21.8331 39.9872 21.8331 39.8445C21.8331 39.7438 22.2315 39.4164 22.2908 39.3492C22.3416 39.2821 22.757 38.9379 22.7485 38.8707C22.7316 38.77 22.3671 38.4594 22.2908 38.3754L21.867 37.8549C21.7653 37.7206 21.494 37.4772 21.4432 37.3093C21.4177 37.2169 21.9348 36.9567 21.9433 36.856C21.9433 36.7217 21.511 36.4362 21.5533 36.3019C21.5873 36.2012 22.0958 35.9661 22.0789 35.8822C22.0535 35.7311 21.7907 35.4456 21.6974 35.3197C21.5703 35.1266 21.4516 34.9336 21.3414 34.7405C21.2906 34.6565 20.9854 34.2452 21.0024 34.1445C21.0109 34.0605 21.494 33.8087 21.5618 33.7583C21.6212 33.7079 22.0619 33.3721 22.1297 33.3973C22.1467 33.4057 22.4688 33.9682 22.4603 33.985C22.5281 33.8338 22.9774 33.7919 23.0198 33.6408C23.0537 33.5148 22.6468 33.1791 22.7146 33.0615C22.757 32.9776 23.2995 32.8181 23.291 32.7425C23.2825 32.5914 23.0621 32.2892 22.9858 32.1465C22.918 32.0038 22.7231 31.71 22.7146 31.5421C22.7146 31.4497 23.2825 31.3406 23.3164 31.2483C23.3588 31.1391 23.0706 30.753 23.0537 30.6354C23.0198 30.4424 22.8841 30.1989 22.8163 30.0142C22.7824 29.9303 22.562 29.4518 22.5959 29.3762C22.6298 29.2923 23.1299 29.158 23.2147 29.1244C23.4181 29.0404 23.6301 28.9649 23.842 28.8893C23.9945 28.839 24.3505 28.7802 24.4692 28.6795C24.537 28.6207 24.2319 28.1422 24.2827 28.0498C24.359 27.9071 24.7998 27.9743 24.91 27.8568C24.8337 27.6553 24.8337 27.4286 24.7489 27.2272C24.7659 27.2607 25.3338 27.0341 25.3846 27.0593C25.4609 27.1096 25.5118 27.5965 25.5457 27.6889C25.6135 27.8903 25.6305 28.1086 25.7152 28.3017C25.8 28.4948 25.8508 28.7214 25.9102 28.9145L26.1136 29.5105C26.1645 29.6532 26.334 29.9471 26.3255 30.0898C26.3255 30.1234 25.783 30.2661 25.7237 30.2912C25.6559 30.3164 25.1388 30.4424 25.1219 30.5095C25.0965 30.5851 25.4186 31.0468 25.3592 31.0888C25.2236 31.1895 24.9269 31.265 24.7659 31.3322C24.7065 31.3574 24.181 31.5421 24.1725 31.5924C24.1556 31.7184 24.3929 32.0625 24.4438 32.1717C24.537 32.3648 24.6303 32.5494 24.732 32.7341C24.7574 32.7845 25.0625 33.2546 25.0456 33.2882C24.9693 33.3973 24.5964 33.5148 24.4777 33.582L23.9013 33.8926C23.5368 34.1109 23.1639 34.3375 22.7994 34.581C22.9435 34.6481 22.9943 35.1099 23.1469 35.135C23.274 35.1602 23.5877 34.7237 23.6979 34.7825C23.8335 34.8412 23.9437 35.2106 24.0454 35.3113C24.1895 35.454 24.3082 35.6723 24.4268 35.8318C24.537 35.9745 24.7489 36.1676 24.8083 36.3271C24.8167 36.3439 24.3251 36.6713 24.2827 36.6965C24.198 36.7552 23.7911 36.9987 23.7741 37.091C23.7657 37.1666 24.1386 37.5192 24.198 37.5779L24.6218 38.048C24.6472 38.09 25.071 38.4678 25.0625 38.4929C25.0456 38.5349 24.6387 38.9127 24.5964 38.9211C24.5031 38.9211 24.2234 38.4426 24.1386 38.4678C23.9945 38.5181 23.7826 38.7952 23.6724 38.9127L23.2062 39.3744L22.7485 39.8529C22.7824 40.0124 23.2317 40.1551 23.2401 40.3062C23.2486 40.365 22.7824 40.7679 22.8163 40.8099C22.8587 40.8687 23.2486 41.2548 23.3079 41.2464C23.4351 41.2296 23.6046 40.726 23.7318 40.7427C23.8759 40.7595 24.0962 41.0869 24.2234 41.1541C24.3929 41.2464 24.5794 41.4227 24.7404 41.5403C24.8506 41.6242 25.1982 41.7921 25.2575 41.9096C25.2745 41.9432 24.9015 42.3713 24.8676 42.4133C24.8083 42.4889 24.4777 42.8582 24.4946 42.9338C24.5116 43.0177 24.9693 43.236 25.0456 43.278C25.0965 43.3115 25.5881 43.5634 25.5881 43.6054C25.5796 43.7229 25.3084 44.0419 25.249 44.151L24.9354 44.7051C24.8591 44.8394 24.6387 45.1164 24.6218 45.2759C24.6133 45.3683 25.1643 45.4942 25.1982 45.5865C25.2321 45.6957 24.8506 46.0734 24.9185 46.1658C24.9947 46.2749 25.3931 46.3924 25.5203 46.4428C25.5881 46.4764 26.0543 46.7366 26.1136 46.703C26.1814 46.6611 26.317 46.107 26.3849 46.1154C26.5544 46.1322 26.8087 46.2917 26.9612 46.3589C27.1392 46.426 27.4105 46.468 27.5631 46.5687C27.58 46.5771 27.3342 47.106 27.3257 47.148C27.2918 47.2319 27.063 47.66 27.0969 47.744C27.1138 47.8111 27.6309 47.9119 27.7072 47.9287L28.3175 48.0882C28.4192 48.1134 28.8684 48.1637 28.9193 48.2309C28.9447 48.2813 28.7582 48.7682 28.7413 48.8353C28.6989 48.978 28.6819 49.3222 28.5887 49.4481C28.5378 49.5237 28.0377 49.2718 27.953 49.3138C27.8258 49.3894 27.9191 49.8259 27.8089 49.935L28.4446 50.0693C28.5209 50.0861 29.021 50.2288 29.0719 50.1869C29.0888 50.1617 29.2075 49.5573 29.2075 49.5573C29.3092 49.5992 29.7584 49.5741 29.8262 49.6496C29.8941 49.7419 29.6228 50.1869 29.7161 50.2624C29.8432 50.3716 30.2162 50.2204 30.3433 50.3212C30.4281 50.3883 30.1738 50.8585 30.2501 50.9508C30.3009 51.018 30.801 50.9676 30.8858 50.976C30.9875 50.9844 31.4452 50.9256 31.5046 50.9844C31.5978 51.0767 31.3605 51.5132 31.4537 51.614C31.53 51.7147 32.0216 51.4881 32.0809 51.5888C32.1657 51.7147 31.9708 52.1009 32.0725 52.2184C32.1742 52.3275 31.9708 52.7557 32.0894 52.8564C32.1488 52.9236 32.6234 52.8144 32.7251 52.7976C32.8014 52.7893 33.31 52.6633 33.3524 52.7137C33.4202 52.7809 33.4033 53.2342 33.4117 53.3433C33.4287 53.4944 33.4117 53.8554 33.4965 53.9813C33.5473 54.0569 34.0559 53.7966 34.1322 53.847C34.2594 53.9309 34.1407 54.3759 34.2594 54.4766C34.378 54.5773 34.2763 55.0307 34.4119 55.1146C34.4882 55.165 34.9629 54.9635 35.0477 54.9383C35.1239 54.9215 35.6241 54.7117 35.6664 54.7452C35.7512 54.8124 35.8275 55.2573 35.8614 55.3664C35.8868 55.4756 35.997 55.9289 36.0987 55.9793C36.2259 56.0548 36.5988 55.7106 36.7345 55.7442C36.9209 55.7694 37.1752 55.442 37.3447 55.4756C37.3617 55.484 37.6838 56.0212 37.6838 56.0548C37.6414 56.1891 37.1328 56.1975 37.0481 56.3319Z" fill="white"/>
<path fill-rule="evenodd" clip-rule="evenodd" d="M27.2835 26.6562C27.1733 26.5471 27.275 26.1274 27.1564 26.035C27.1309 26.0182 26.5376 26.119 26.5206 26.1442C26.4867 26.2113 26.6139 26.6982 26.6478 26.7654C26.6308 26.715 26.0629 26.9249 26.0121 26.8913C25.9358 26.8409 25.9019 26.354 25.8764 26.2617C25.8595 26.1945 25.7154 25.6741 25.7578 25.6237C25.8171 25.5481 26.3003 25.523 26.3935 25.5062C26.4528 25.4894 27.0207 25.4474 27.0377 25.4054C27.0801 25.2879 26.9614 24.9101 26.9445 24.7758C26.936 24.7003 26.8173 24.1798 26.8597 24.1294C26.919 24.0707 27.4869 24.121 27.5039 24.0539C27.5463 23.8944 27.4615 23.5922 27.4446 23.4159C27.4361 23.3235 27.3428 22.8282 27.4022 22.7611C27.453 22.7023 27.9616 22.7191 28.0549 22.7191C28.1311 22.7191 28.6736 22.7527 28.7075 22.7023C28.7838 22.61 28.5889 22.1231 28.6906 22.0643C28.8177 21.9804 29.2331 22.165 29.3348 22.0559C29.4195 21.9636 29.2331 21.4851 29.3348 21.4179C29.4534 21.3424 29.9027 21.5354 29.9875 21.4347C30.0468 21.3675 29.9959 20.8974 30.0044 20.7967C30.0129 20.5784 30.0214 20.3686 30.0383 20.1503L30.0892 19.5039C30.1061 19.3444 30.0807 18.9918 30.157 18.8491C30.1994 18.7736 30.7334 18.9666 30.8097 18.9079C30.9283 18.8155 30.7758 18.3538 30.9029 18.2615C31.0385 18.1691 31.4284 18.4378 31.5556 18.3454C31.6573 18.2699 31.5386 17.7494 31.6573 17.699C31.8014 17.6319 32.1574 17.8082 32.31 17.8082C32.5049 17.7998 32.7592 17.8921 32.9542 17.9257L33.5899 18.0516C33.7933 18.0936 34.0052 18.1439 34.2171 18.1943C34.1239 18.5973 34.0646 19.0254 34.0052 19.4283C33.8696 19.4787 33.5051 19.2185 33.378 19.294C33.3017 19.3444 33.3695 19.8901 33.2932 19.9068C33.1491 19.9404 32.827 19.8229 32.666 19.7977C32.5897 19.7809 32.0811 19.655 32.0302 19.7054C31.9624 19.7641 31.9709 20.2342 31.9624 20.3266L31.9201 20.9562C31.9116 21.0653 31.954 21.5019 31.8946 21.5774C31.8183 21.6698 31.3606 21.4263 31.2589 21.5103C31.1572 21.5858 31.3521 22.0811 31.2504 22.1315C31.1148 22.207 30.7418 21.9971 30.6147 22.0895C30.5045 22.1734 30.7164 22.6184 30.6232 22.7107C30.513 22.803 30.0892 22.5848 29.9875 22.6939C29.8857 22.7947 30.1146 23.2228 30.0214 23.3235C29.9196 23.4243 29.4874 23.2144 29.3856 23.3235C29.2839 23.4327 29.5213 23.8356 29.428 23.9447C29.3433 24.0455 28.8686 23.8608 28.7923 23.9699C28.7414 24.0539 28.8432 24.4904 28.8601 24.5911C28.8686 24.6667 28.9788 25.162 28.9364 25.204C28.8347 25.3047 28.3939 25.1452 28.3091 25.2627C28.2244 25.3802 28.5041 25.7664 28.4109 25.8755C28.343 25.9679 27.8175 25.842 27.7751 25.9511C27.7243 26.0602 27.8768 26.4464 27.9023 26.5639C27.9362 26.715 28.0718 27.0256 28.0464 27.1683C28.0294 27.2439 27.47 27.1935 27.4191 27.2691C27.3344 27.3866 27.631 27.7392 27.5802 27.8651C27.5717 27.8819 26.9868 28.0078 26.9614 27.991C26.8258 27.9155 26.9105 27.4873 26.7919 27.3866C26.7325 27.1767 26.6902 26.9753 26.6478 26.7738L27.2835 26.6562Z" fill="white"/>
<path fill-rule="evenodd" clip-rule="evenodd" d="M54.3484 14.6181C54.1704 14.232 53.9754 13.8626 53.772 13.51C53.8313 13.3673 54.2721 13.3086 54.3145 13.1742C54.3399 13.0735 53.95 12.6957 54.0008 12.6202C54.0941 12.4943 54.4246 12.3599 54.5687 12.2928C54.6705 12.234 55.0349 11.9822 55.1536 11.999C55.2808 12.0158 55.3401 12.5194 55.4588 12.5782C55.4842 12.7713 55.747 12.956 55.747 13.1491C55.747 13.2498 55.2045 13.3421 55.1706 13.4429C55.1451 13.5352 55.5011 13.9466 55.4418 14.0137C55.3401 14.1312 55.018 14.2404 54.8908 14.3159L54.3484 14.6181Z" fill="white"/>
<path fill-rule="evenodd" clip-rule="evenodd" d="M56.5779 13.468L57.1797 13.2162C57.3238 13.1574 57.6374 12.9727 57.7985 12.9727C57.8917 12.9811 57.9341 13.552 58.0189 13.594C58.1036 13.6359 58.5783 13.3253 58.6376 13.3925C58.7393 13.51 58.7902 13.8626 58.8326 14.0053C58.858 14.0893 59.053 14.5426 59.0106 14.6181C58.9682 14.6769 58.4766 14.786 58.4003 14.8112L57.8069 15.0211C57.7222 15.0463 57.2984 15.2729 57.2306 15.2393C57.1712 15.2058 57.0695 14.7189 57.0356 14.6433C56.8915 14.2572 56.7389 13.8626 56.5779 13.468Z" fill="white"/>
<path fill-rule="evenodd" clip-rule="evenodd" d="M66.5204 27.5629C66.4356 27.3698 66.317 27.1851 66.2153 27.0089C66.1729 26.9417 65.8593 26.5555 65.8847 26.5052C65.9186 26.4464 66.4272 26.2449 66.4102 26.1778C66.3594 26.0267 66.122 25.8252 66.0203 25.7077C65.9525 25.6153 65.605 25.3887 65.588 25.2879C65.5711 25.1956 66.0627 25.0109 66.0627 24.8934C66.0796 24.7507 65.588 24.6415 65.588 24.5156C65.5795 24.3897 66.0288 24.205 66.0203 24.0623C66.0203 23.9867 65.4863 23.7769 65.5032 23.7265C65.5287 23.6761 65.8338 23.248 65.8847 23.2312C66.0118 23.1976 66.2915 23.609 66.4102 23.567C66.4441 23.5586 66.7917 23.0717 66.7832 23.0381C66.7577 22.9374 66.3339 22.7443 66.2322 22.7023L65.6728 22.4085C65.5202 22.3246 65.249 22.2574 65.1133 22.1651C65.071 22.1315 65.4185 21.6782 65.3931 21.611C65.3676 21.5271 64.9014 21.4263 64.8082 21.4011C64.715 21.3676 64.2572 21.3088 64.2233 21.2333C64.2149 21.2165 64.4352 20.6708 64.4522 20.654C64.4861 20.6288 65.0371 20.7967 65.0455 20.8219C65.0032 20.6792 65.3337 20.3602 65.2659 20.2175C65.1896 20.0916 64.715 20.1839 64.6471 20.058C64.5793 19.9321 64.9014 19.5711 64.8251 19.4452C64.7489 19.3192 64.2996 19.42 64.1979 19.3276C64.0877 19.2353 63.6554 19.3444 63.5876 19.2353C63.5452 19.1597 63.7741 18.6645 63.6978 18.6225C63.5622 18.5469 63.2231 18.5805 63.0705 18.5637C62.9688 18.5469 62.5281 18.5973 62.4518 18.5385C62.4094 18.505 62.5111 17.9929 62.5111 17.9173C62.5196 17.8418 62.6043 17.3213 62.545 17.2877C62.4687 17.2289 62.011 17.3045 61.9093 17.3129C61.7567 17.3213 61.4346 17.3968 61.2905 17.3549C61.2142 17.3297 61.3414 16.7924 61.2736 16.7337C61.1634 16.6413 60.7819 16.8764 60.6633 16.8092C60.5361 16.742 60.1632 17.0107 60.0614 16.9267C59.9513 16.8428 60.0954 16.4147 59.9936 16.3055C59.9004 16.1964 60.0106 15.7767 59.8919 15.6927C59.7817 15.6255 59.3664 15.9278 59.2816 15.8522C59.2562 15.827 59.1375 15.2646 59.1545 15.231C59.2308 15.0967 59.6631 15.189 59.7648 15.0799C59.875 14.9708 60.3073 15.0631 60.4005 14.9372C60.4175 14.912 60.2903 14.3244 60.2649 14.3076C60.409 14.3747 60.7819 14.0893 60.9176 14.1732C61.0532 14.2572 60.9176 14.7189 61.0447 14.8196C61.1719 14.912 61.5787 14.6434 61.7143 14.7441C61.85 14.8448 61.7143 15.2646 61.8076 15.3989C61.9008 15.5248 61.7567 15.9529 61.8669 16.0453C61.9601 16.1292 62.4518 15.9026 62.5281 16.0117C62.6128 16.1292 62.4433 16.5825 62.545 16.6665C62.6213 16.7253 63.096 16.6665 63.2062 16.6665C63.2825 16.6665 63.8249 16.6497 63.8673 16.7085C63.9182 16.7756 63.7741 17.3297 63.8334 17.3549C64.0029 17.422 64.3081 17.4052 64.4946 17.4304C64.6217 17.4472 65.054 17.4472 65.1642 17.5312C65.2659 17.6067 65.0031 18.0852 65.071 18.1859C65.1557 18.3203 65.6389 18.1943 65.7321 18.3371C65.8254 18.4714 65.5287 18.8491 65.605 18.9835C65.6813 19.1178 66.139 19.0422 66.2492 19.1765C66.3339 19.2773 66.0203 19.697 66.0796 19.8145C66.122 19.8901 66.6137 20.0076 66.7069 20.0496C66.7917 20.0916 67.3172 20.2259 67.3426 20.3182C67.3765 20.4106 67.1392 20.8723 67.0968 20.9562C67.0714 21.0318 66.8086 21.5019 66.834 21.5606C66.8934 21.6698 67.4019 21.7705 67.4189 21.8964C67.4359 22.0643 67.0629 22.333 67.1138 22.4841C67.1561 22.6016 67.6647 22.7275 67.6732 22.8702C67.6732 23.0297 67.2748 23.29 67.3087 23.4327C67.3426 23.5166 67.758 23.7937 67.8258 23.8692C67.9444 23.9783 68.2581 24.1966 68.3343 24.3561C68.3852 24.4485 67.8851 24.7758 67.8851 24.8766C67.8851 25.0445 68.3259 25.2376 68.3343 25.4222C68.3513 25.5901 67.8681 25.7412 67.8342 25.8924C67.6901 25.8168 67.5969 25.3803 67.4189 25.3551C67.4019 25.3551 66.9357 25.758 66.9273 25.7832C66.9018 25.9343 67.3087 26.1442 67.3172 26.3121C67.3341 26.2281 67.8597 25.9763 67.8427 25.8924C67.8766 26.0351 68.2496 26.3289 68.2242 26.4884C68.2072 26.6395 67.6817 26.7654 67.6647 26.8997C67.6478 27.0844 68.0122 27.3363 67.9699 27.5293C67.936 27.6972 67.4359 27.7224 67.368 27.8651C67.3087 28.0162 67.6647 28.352 67.5969 28.5199C67.5291 28.6878 67.0544 28.6374 66.9697 28.7886C66.8934 28.9397 67.1816 29.3678 67.0459 29.5777C66.9018 29.7875 66.4102 29.67 66.2407 29.8379C66.1475 29.9218 66.122 30.0981 66.0542 30.2828C65.9779 30.4759 65.9101 30.6438 65.8254 30.711C65.6982 30.627 65.1472 30.6858 65.1049 30.5347C65.0879 30.4759 65.1896 30.3416 65.2829 30.2157C65.3846 30.0813 65.4778 29.9302 65.4354 29.8883C65.41 29.8631 65.232 29.8379 65.0794 29.8043C64.9269 29.7623 64.7912 29.7036 64.7912 29.6784C64.8082 29.6196 64.9608 29.1159 64.9862 29.0908C65.0625 29.0572 65.5372 29.2922 65.6219 29.1663C65.7236 29.0152 65.4693 28.6374 65.5372 28.5283C65.6134 28.4192 66.0881 28.5115 66.1559 28.3688C66.2153 28.2513 65.8423 27.8735 65.9101 27.7812C66.0203 27.6637 66.4017 27.6972 66.5204 27.5629Z" fill="white"/>
<path fill-rule="evenodd" clip-rule="evenodd" d="M63.9606 29.9302C63.9691 30.0813 63.5961 30.3164 63.6216 30.4591C63.6385 30.5598 64.181 30.7361 64.164 30.8117C64.1556 30.8704 63.8335 31.3489 63.7741 31.3573C63.6385 31.3825 63.3503 30.9376 63.2316 30.9796C63.1723 31.0047 62.8502 31.5084 62.7909 31.4832C62.7231 31.4581 62.2738 31.1055 62.2823 31.0551C62.2908 30.9292 62.7654 30.7025 62.7231 30.5766C62.6976 30.5011 62.2314 30.224 62.2569 30.1401C62.2992 29.9974 62.5535 29.7791 62.6383 29.6616C62.6892 29.5944 62.9011 29.1831 62.9689 29.1663C63.0282 29.1663 63.3757 29.5021 63.4435 29.5524C63.6131 29.7036 63.7826 29.8127 63.9606 29.9302Z" fill="white"/>
<path fill-rule="evenodd" clip-rule="evenodd" d="M60.5363 31.2902C60.2311 31.3322 59.8666 31.3657 59.3835 31.1475C59.1631 31.0719 58.9173 30.8704 58.6969 30.6606L58.5359 30.4927C58.5019 30.4591 58.4765 30.4507 58.4511 30.4255L58.29 30.2912C58.3748 30.031 58.4596 29.7875 58.5613 29.5609C58.6206 29.393 58.9003 29.1159 58.9427 28.948C58.9766 28.8641 58.4426 28.5115 58.4511 28.3856C58.468 28.1925 58.9342 28.0666 58.9597 27.9071C58.9851 27.756 58.5359 27.479 58.5867 27.3111C58.6206 27.1684 59.1461 27.0676 59.1546 26.9417C59.1546 26.7906 58.7986 26.48 58.8664 26.3373C58.9342 26.1778 59.4089 26.203 59.4683 26.0602C59.5191 25.9175 59.1716 25.5901 59.2394 25.4474C59.3072 25.3047 59.7904 25.3719 59.8582 25.2376C59.9175 25.1032 59.5954 24.7423 59.6802 24.6163C59.7649 24.482 60.2311 24.5912 60.3074 24.4652C60.3667 24.3561 60.0785 23.928 60.1718 23.844C60.2396 23.7769 60.7906 23.8188 60.8075 23.7433C60.8414 23.609 60.7227 23.2648 60.7058 23.1221L60.6295 22.4841C60.6041 22.2658 60.5871 22.0475 60.5786 21.8377C60.5702 21.7453 60.4939 21.25 60.5617 21.1745C60.6126 21.1073 61.1381 21.1493 61.2229 21.1493H61.8755C61.9942 21.1493 62.4265 21.2249 62.5197 21.1745C62.6553 21.0989 63.0537 21.3172 63.1555 21.2332C63.2656 21.1409 63.0707 20.696 63.1809 20.6036C63.2995 20.5113 63.7064 20.7799 63.8166 20.696C63.9268 20.612 63.7912 20.1923 63.8844 20.0748C63.9777 19.9656 63.8675 19.5375 63.9946 19.4536C64.1048 19.378 64.5371 19.6718 64.6219 19.5963C64.7405 19.4955 64.6473 19.0674 64.7829 18.9834C64.9185 18.9079 65.2661 19.2353 65.4017 19.1765C65.5373 19.1178 65.4864 18.6393 65.639 18.5721C65.7831 18.5049 66.0883 18.8911 66.2239 18.8407C66.3426 18.7988 66.3595 18.2867 66.4951 18.2699C66.6477 18.2447 66.9105 18.6309 67.0546 18.5889C67.1393 18.5637 67.2749 18.0264 67.3682 18.0432C67.5208 18.0684 67.7666 18.3119 67.8937 18.3958C67.953 18.4294 68.343 18.7904 68.3938 18.7736C68.4871 18.74 68.6735 18.3454 68.7413 18.2615L69.1143 17.7662L69.5127 17.2793C69.572 17.2038 69.8433 16.8092 69.9365 16.8008C70.0043 16.7924 70.3434 17.187 70.3942 17.2457C70.5468 17.3884 70.6909 17.5479 70.835 17.699C70.8943 17.7578 71.191 18.1608 71.2588 18.1608C71.3944 18.1608 71.5301 18.6309 71.6657 18.6393C71.6911 18.6393 72.098 18.2279 72.098 18.2111C72.098 18.1356 71.6657 17.783 71.6996 17.7326C71.7844 17.5731 72.0217 17.422 72.1488 17.3045C72.2505 17.2122 72.4879 16.9099 72.615 16.8848C72.6574 16.8764 72.9795 17.3381 73.0049 17.38C73.0982 17.4976 73.2592 17.8082 73.3864 17.8753C73.4542 17.9173 73.7678 17.464 73.8526 17.4724C73.9967 17.4892 74.0814 17.9593 74.2171 17.9845C74.3527 18.0097 74.5561 17.5647 74.6917 17.5899C74.8104 17.6067 74.9375 18.1104 75.0477 18.102C75.2088 18.0936 75.3698 17.7158 75.5309 17.7158C75.6496 17.7158 75.7598 18.1943 75.8784 18.2279L75.3953 18.6141C75.2766 18.7064 75.0562 18.9667 74.9206 19.0002C74.8443 19.0254 74.6578 18.4966 74.5646 18.4882C74.4713 18.4714 74.1832 18.8323 74.0984 18.8827C73.9373 18.9751 73.7848 19.1597 73.6407 19.2857L73.1914 19.6886C73.0982 19.7726 72.8693 20.0832 72.7591 20.1C72.6659 20.1167 72.4964 19.6131 72.3946 19.6047C72.2845 19.5963 72.081 20.058 71.9793 20.0244C71.8437 19.9824 71.7504 19.5627 71.6063 19.5459C71.4707 19.5291 71.3521 19.0758 71.2164 19.0674C71.1402 19.0674 70.8859 19.4536 70.8265 19.5123C70.7672 19.5627 70.5214 19.974 70.462 19.9656C70.3349 19.9572 70.1908 19.5123 70.0552 19.5123C69.9704 19.5207 69.7839 20.016 69.7161 19.9824C69.589 19.9321 69.394 19.655 69.2923 19.5543C69.233 19.4955 68.9109 19.1346 68.8431 19.1429C68.7074 19.1597 68.6566 19.6298 68.5379 19.6466C68.4108 19.6634 68.1904 19.2353 68.0632 19.2605C67.9276 19.2857 67.9107 19.7558 67.792 19.781C67.6903 19.7977 67.3936 19.3864 67.2919 19.4368C67.1987 19.4871 67.0885 19.8649 67.0546 19.974C67.0037 20.1083 66.9444 20.4273 66.8596 20.5113C66.8088 20.5533 66.4273 20.1923 66.351 20.2175C66.2408 20.2678 66.3341 20.7128 66.2324 20.7547C66.1306 20.8051 65.8001 20.4693 65.6814 20.5281C65.5797 20.5785 65.6899 21.057 65.5966 21.0989C65.4525 21.1493 65.1728 20.8891 65.0202 20.931C64.8931 20.9646 64.5201 20.7044 64.4184 20.7799C64.3252 20.8471 64.4778 21.3424 64.376 21.3844C64.2659 21.4347 63.8505 21.1913 63.7573 21.2752C63.6556 21.376 63.8505 21.7957 63.7488 21.8796C63.664 21.9552 63.1894 21.7201 63.1215 21.8125C63.0283 21.9552 63.2233 22.2826 63.147 22.4253C63.0876 22.5428 63.2741 22.929 63.1894 23.0213C63.1131 23.0969 62.6299 22.9038 62.5706 23.0045C62.4858 23.1473 62.7147 23.4579 62.6469 23.5922C62.6045 23.6845 62.1044 23.525 62.0366 23.609C61.9857 23.6677 62.1298 24.1127 62.1468 24.1966C62.1637 24.3309 62.3248 24.6583 62.2909 24.7674C62.2654 24.8514 61.7399 24.7423 61.6806 24.8262C61.5958 24.9269 61.9349 25.2963 61.8586 25.3887C61.8162 25.4474 61.35 25.4726 61.2483 25.4894C61.0364 25.523 60.8499 25.5733 60.6465 25.6237C60.5024 25.6573 60.1548 25.6993 60.0362 25.8C59.9599 25.8588 60.3074 26.2953 60.282 26.3708C60.2311 26.4884 59.731 26.4716 59.6886 26.6143C59.6547 26.7066 59.9429 27.0844 60.0023 27.16C60.1124 27.3195 60.2311 27.4874 60.3413 27.6469C60.4685 27.8064 60.6126 27.9407 60.7482 28.0666C60.7906 28.1254 61.172 28.3688 61.1805 28.394C61.1635 28.4947 60.7651 28.6123 60.7227 28.7466C60.7143 28.8389 61.2568 28.9061 61.2229 28.948C61.2059 28.9984 61.1296 29.074 61.0533 29.1663C60.977 29.2587 60.8923 29.3426 60.8414 29.3594C60.7058 29.4182 60.6634 29.6532 60.6295 29.8295C60.621 29.8631 60.5024 29.8799 60.3413 29.8631C60.2057 29.8295 60.0277 29.7204 59.9938 29.7372C59.9429 29.7455 59.909 29.8967 59.926 30.0897C59.9344 30.2996 60.0277 30.4591 60.0531 30.5347C60.1972 30.8369 60.3752 31.0551 60.5363 31.2902Z" fill="white"/>
<path fill-rule="evenodd" clip-rule="evenodd" d="M76.4801 20.1419L76.1326 19.6214C76.0902 19.5627 75.7681 19.1681 75.7851 19.101C75.8275 18.9415 76.2004 18.8743 76.2682 18.7148C76.3191 18.5637 76.7259 18.4797 76.7514 18.337C76.7683 18.2363 76.3615 17.8921 76.4038 17.8166C76.4716 17.6822 76.7683 17.5311 76.9039 17.4388C76.9972 17.3716 77.3278 17.0694 77.438 17.0778C77.4973 17.0778 77.7431 17.5731 77.7685 17.6319C77.8194 17.7158 77.9804 18.144 78.0652 18.1859C78.2008 18.2447 78.2008 18.7064 78.328 18.7484C78.3958 18.7736 78.7772 18.4965 78.862 18.4546C78.9467 18.4126 79.3367 18.1524 79.4214 18.1859C79.4892 18.2111 79.6164 18.698 79.6418 18.7736C79.6672 18.8491 79.7774 19.3444 79.8283 19.3696C79.9554 19.4116 80.269 19.0674 80.3962 19.1345C80.5233 19.2017 80.4386 19.6718 80.5572 19.7306C80.642 19.7809 81.0658 19.4535 81.1336 19.5291C81.2269 19.6298 81.1591 20.0664 81.2693 20.1335C81.3625 20.1923 81.7694 19.8649 81.8541 19.9488C81.905 19.9992 81.9813 20.4777 81.9728 20.5617C81.9643 20.6204 81.4303 20.6792 81.3964 20.7379C81.354 20.8135 81.5659 21.292 81.5066 21.3424C81.4642 21.3759 80.9726 21.5438 80.9387 21.5271C80.8454 21.4767 80.9302 20.9646 80.8285 20.931C80.7013 20.889 80.3877 21.1997 80.2775 21.1409C80.1673 21.0821 80.269 20.612 80.1504 20.5533C80.0571 20.5029 79.6927 20.8555 79.6164 20.7883C79.5062 20.6876 79.574 20.3266 79.4723 20.2091C79.2943 20.293 79.1247 20.377 78.9552 20.4693C78.8281 20.5365 78.5823 20.7379 78.4636 20.7463C78.3958 20.7547 78.3619 20.2175 78.2856 20.1839C78.2093 20.1503 77.8618 20.5449 77.8194 20.5029C77.7346 20.4189 77.6583 20.0832 77.6075 19.9488C77.5821 19.8733 77.4295 19.4284 77.3617 19.4116C77.2939 19.3948 76.9718 19.7138 76.9124 19.7725L76.4801 20.1419Z" fill="white"/>
<path fill-rule="evenodd" clip-rule="evenodd" d="M87.3553 35.0594C87.3384 35.0258 86.923 34.9586 86.94 34.9502C86.94 34.9419 87.0586 34.9586 87.1773 34.9167C87.2875 34.8747 87.4062 34.8327 87.4485 34.8243C87.5164 34.7991 87.8639 34.5977 87.9402 34.5977C88.0927 34.5977 88.2199 34.8411 88.364 34.8663C88.3979 34.967 88.7878 35.0342 88.7708 35.1097C88.7624 35.1433 88.3301 35.2189 88.2707 35.2105C88.2199 35.2021 87.9232 35.0174 87.8554 35.0174C87.6944 35.009 87.4994 35.0762 87.3553 35.0594Z" fill="white"/>
<path fill-rule="evenodd" clip-rule="evenodd" d="M25.1393 88.8868C25.0206 88.8616 24.7155 89.189 24.5968 89.1134C24.4951 89.0547 24.5799 88.551 24.4866 88.5174C24.368 88.4838 24.0374 88.7608 23.9187 88.6853C23.8085 88.6097 23.9611 88.1564 23.8594 88.0893C23.7746 88.0221 23.3508 88.2991 23.2745 88.2152C23.1982 88.1228 23.3423 87.6695 23.2491 87.6108C23.1389 87.5352 22.7575 87.7954 22.6557 87.7031C22.571 87.6359 22.749 87.1407 22.6557 87.0903C22.5201 87.0147 22.2065 87.2246 22.0539 87.1574C21.9353 87.1071 21.5369 87.3002 21.4436 87.2078C21.3589 87.1239 21.5538 86.6454 21.4606 86.5866C21.325 86.5027 20.969 86.7209 20.8503 86.6286C20.7486 86.553 20.969 86.0997 20.8757 86.0074C20.7909 85.9234 20.3247 86.1333 20.2569 86.0325C20.1976 85.9318 20.3756 85.4785 20.2908 85.4113C20.2061 85.3526 19.7992 85.4365 19.689 85.4365C19.6212 85.4449 19.1126 85.5037 19.0787 85.4533C19.0024 85.3526 19.2483 84.916 19.1635 84.8405C19.0618 84.7481 18.6464 84.9328 18.5532 84.8237C18.4769 84.7397 18.7482 84.2864 18.6634 84.2193C18.5532 84.1269 18.1548 84.2864 18.0616 84.1689C17.9683 84.0766 18.2735 83.6736 18.2057 83.5729C18.1379 83.4721 17.6632 83.6065 17.6038 83.4973C17.5869 83.4721 17.7395 82.9265 17.7734 82.9097C17.9005 82.8341 18.2226 83.0524 18.3667 82.9852C18.46 83.0776 18.8838 82.9349 18.9516 83.044C19.0024 83.1196 18.7227 83.5729 18.799 83.6232C18.8923 83.6904 19.2652 83.6484 19.3924 83.6484C19.528 83.6568 19.8586 83.5981 19.9772 83.6484C20.045 83.6736 19.8162 84.1689 19.867 84.2361C19.9264 84.3116 20.4095 84.1269 20.4434 84.2109C20.4858 84.3032 20.3756 84.681 20.3587 84.8069C20.3417 84.9412 20.24 85.2938 20.2993 85.4197C20.3332 85.4953 20.8418 85.3358 20.9181 85.3945C20.9944 85.4533 21.4267 85.3694 21.5284 85.361C21.681 85.3526 22.0031 85.2686 22.1387 85.319C22.215 85.3442 22.0454 85.873 22.1048 85.9318C22.2065 86.0241 22.6049 85.7891 22.7066 85.873C22.7998 85.957 22.5879 86.3935 22.6812 86.4775C22.7659 86.553 23.2067 86.3096 23.266 86.3935C23.3338 86.5026 23.1558 86.914 23.2576 86.9979C23.3593 87.0819 23.7407 86.8049 23.8339 86.8888C23.9102 86.956 23.7492 87.4345 23.8424 87.4848C23.9611 87.5352 24.3001 87.275 24.3934 87.3337C24.4866 87.4009 24.3256 87.8458 24.4273 87.9214C24.5121 87.9801 24.8935 87.6611 24.9528 87.7199C25.0461 87.8122 24.9443 88.1816 25.0291 88.2991C25.1647 88.3327 25.4105 88.0053 25.5207 88.0389C25.5292 88.0389 25.5546 88.1732 25.5885 88.3159C25.6225 88.4586 25.6564 88.5929 25.6479 88.6097C25.5885 88.7692 25.2241 88.7524 25.1393 88.8868Z" fill="white"/>
<path fill-rule="evenodd" clip-rule="evenodd" d="M16.1796 81.9527C16.1457 81.81 16.4678 81.4993 16.417 81.3818C16.3831 81.3147 15.9084 81.2475 15.8321 81.2139C15.6965 81.1636 15.3489 81.1216 15.2472 81.0208C15.1879 80.9537 15.5354 80.5423 15.51 80.4584C15.4846 80.3828 15.0184 80.2821 14.9336 80.2401C14.8319 80.1898 14.4081 80.1058 14.3572 80.0051C14.3318 79.9547 14.62 79.5098 14.6539 79.451C14.6963 79.3755 14.9845 78.9809 14.959 78.9138C14.9421 78.8466 14.4844 78.6955 14.4081 78.6619C14.2724 78.6031 13.9419 78.5024 13.8486 78.3933C13.7978 78.3261 14.2046 77.9484 14.1877 77.8644C14.1538 77.7301 13.6791 77.7133 13.6367 77.579C13.6028 77.4447 14.0182 77.1928 13.9927 77.0585C13.9673 76.9494 13.4587 76.8738 13.4587 76.7563C13.4587 76.6472 13.8741 76.3366 13.8317 76.2526C13.7893 76.1519 13.4079 75.9924 13.3061 75.9336L12.7891 75.5978C12.7043 75.5391 12.2975 75.346 12.272 75.2452C12.2381 75.1193 12.6874 74.8843 12.6704 74.7583C12.6535 74.6156 12.1788 74.5401 12.1618 74.3974C12.1449 74.2547 12.5941 74.0616 12.5857 73.9189C12.5772 73.7762 12.1449 73.6754 12.1025 73.5411C12.0686 73.432 12.5433 73.1969 12.5348 73.0794C12.5263 73.0038 12.1195 72.752 12.0517 72.6848C11.9838 72.6177 11.5685 72.3658 11.5685 72.2819C11.5515 72.2063 11.9584 71.8957 12.0177 71.837C12.1364 71.7278 12.4246 71.5347 12.4839 71.4088C12.5178 71.3333 12.0347 71.0814 12.0347 70.9891C12.0347 70.8464 12.4924 70.7205 12.5094 70.5777C12.5178 70.519 12.111 70.2 12.0601 70.1496C11.9923 70.0908 11.6109 69.7802 11.6194 69.7047C11.6278 69.6291 12.0517 69.3605 12.1195 69.3101C12.1703 69.2682 12.628 68.9743 12.6196 68.9324C12.6111 68.8316 12.2805 68.563 12.2042 68.4791L11.7889 68.0089C11.6702 67.8578 11.4329 67.6648 11.382 67.5053C11.3396 67.3961 10.9836 67.1275 11.0006 67.01C11.026 66.8924 11.5431 66.7665 11.5346 66.6574C11.5261 66.5147 11.1362 66.2964 11.1616 66.1537C11.1871 66.011 11.6702 65.9522 11.6956 65.8095C11.7211 65.6668 11.2888 65.4401 11.3312 65.2974C11.3651 65.1547 11.8228 65.1043 11.8906 64.9784C12.0601 64.97 12.2805 64.6426 12.45 64.6678C12.5178 64.6762 12.7467 65.1127 12.7891 65.1715C12.9078 65.3394 13.0095 65.4989 13.1366 65.6668C13.0773 65.7927 12.6365 65.8431 12.6111 65.9858C12.5941 66.1033 13.0349 66.372 12.9925 66.4727C12.9501 66.5818 12.467 66.691 12.4585 66.8085C12.4585 66.9008 12.7721 67.203 12.8399 67.287C12.8823 67.3458 13.2383 67.6899 13.2214 67.7487C13.196 67.8662 12.7128 67.9838 12.7213 68.1013C12.7298 68.244 13.1536 68.4203 13.1366 68.5546C13.1281 68.6637 12.6196 68.8064 12.6365 68.924C12.6535 69.0751 13.0519 69.2178 13.0519 69.3689C13.0519 69.5116 13.4841 69.6627 13.4672 69.797C13.4587 69.8726 13.0603 70.1244 12.9925 70.1832C12.9501 70.2168 12.5094 70.5442 12.5178 70.5861C12.5602 70.7121 12.8654 70.9135 12.9671 71.0059L13.4163 71.4088L13.8656 71.795C13.9334 71.8621 14.3233 72.0804 14.3403 72.1644C14.3487 72.2147 13.9503 72.5337 13.8995 72.5841L13.4587 73.0206C13.3994 73.0794 13.018 73.3984 13.0264 73.4655C13.0349 73.6083 13.5011 73.6922 13.5096 73.8265C13.5096 73.8853 13.0519 74.2547 13.0858 74.2882C13.1281 74.3386 13.5265 74.6492 13.5943 74.6324C13.6198 74.624 14.0012 74.1707 14.0012 74.1707C14.0605 74.2882 14.4844 74.3806 14.5013 74.5065C14.5098 74.6156 14.0605 74.8675 14.1029 74.9682C14.1538 75.1109 14.5776 75.1445 14.6115 75.2872C14.6369 75.4047 14.1962 75.6398 14.2216 75.7657C14.247 75.8916 14.7386 75.9504 14.7471 76.0679C14.7556 76.2022 14.3403 76.4205 14.3742 76.5632C14.3911 76.6472 14.9251 76.7731 14.9082 76.8486C14.8827 76.983 14.6285 77.2264 14.5522 77.3523C14.5098 77.4111 14.1877 77.814 14.2046 77.8644C14.247 77.9567 14.6539 78.0911 14.7471 78.133L15.2981 78.3849C15.3913 78.4269 15.8067 78.5444 15.849 78.6199C15.8745 78.6619 15.5693 79.0817 15.5439 79.1488C15.4676 79.2747 15.2557 79.5434 15.2387 79.6861C15.2303 79.77 15.7812 79.8204 15.8067 79.8959C15.8406 79.9799 15.4676 80.3828 15.5269 80.45C15.6117 80.5507 15.9762 80.6011 16.1033 80.6431L16.6797 80.8194C16.8662 80.8781 17.0696 80.9201 17.2561 80.9705L17.0188 81.5329C16.9849 81.6001 16.8577 82.0702 16.7984 82.1038C16.6204 82.1709 16.3407 81.9191 16.1796 81.9527Z" fill="white"/>
<path fill-rule="evenodd" clip-rule="evenodd" d="M36.099 16.0872C36.0058 15.9613 35.5565 16.0285 35.4802 15.8942C35.4379 15.8186 35.6583 15.3653 35.6837 15.2645C35.743 15.0547 35.8447 14.8616 35.9125 14.6517C36.0058 14.7776 36.472 14.7273 36.5398 14.87C36.5906 14.9875 36.2346 15.3737 36.3109 15.4744C36.3618 15.5332 36.8449 15.6927 36.9212 15.7011C36.9467 15.7011 37.1247 15.147 37.1501 15.0966C37.184 15.0127 37.3111 14.5174 37.3874 14.4838C37.4637 14.4503 37.913 14.7021 37.9892 14.7357C38.0571 14.7609 38.5317 15.0295 38.5826 14.9959C38.6758 14.9455 38.7945 14.509 38.8454 14.4083C38.8793 14.3411 39.0488 13.829 39.1166 13.8206C39.2014 13.8039 39.6591 14.1648 39.7015 14.1145C39.8201 13.9969 39.9134 13.6947 39.9981 13.5436C40.0405 13.4681 40.227 12.9896 40.3118 12.9644C40.4643 12.9224 40.7356 13.3086 40.8797 13.275C41.0238 13.2414 41.0577 12.7629 41.2102 12.7209C41.3628 12.6873 41.6256 13.0903 41.7697 13.0567C41.9138 13.0231 41.9646 12.5278 42.1172 12.5027C42.2105 12.4859 42.5834 12.7965 42.6682 12.8552C42.7445 12.9056 43.1259 13.233 43.2022 13.2246C43.2785 13.2078 43.5158 12.7713 43.5667 12.6957C43.6006 12.6454 43.9057 12.1585 43.9481 12.1669C43.999 12.1669 44.4652 12.5195 44.4736 12.5614C44.4906 12.6873 44.0498 12.9476 44.0922 13.0735C44.1176 13.1407 44.5245 13.4261 44.6008 13.4681C44.6516 13.4932 44.9059 12.9728 44.9822 12.9644C45.0924 12.9476 45.3806 13.4093 45.4738 13.3673C45.5162 13.3505 45.8722 12.9056 45.8638 12.8636C45.8553 12.7377 45.3636 12.5866 45.3721 12.4607C45.3891 12.318 45.7112 12.0829 45.7875 11.957C45.8892 11.7891 46.0841 11.6296 46.2198 11.4785L46.669 11L47.1606 11.4281C47.22 11.4785 47.6438 11.7975 47.6353 11.8731C47.6268 11.8982 47.203 12.3516 47.1945 12.3432C47.3471 12.3767 47.5082 12.7797 47.6523 12.7797C47.737 12.7797 48.0252 12.3935 48.093 12.3348C48.2541 12.1921 48.3897 12.0242 48.5507 11.8898C48.7118 11.7471 48.8644 11.5876 49.0254 11.4365C49.1187 11.3442 49.3984 11.0168 49.517 11.0084C49.5679 11 49.9154 11.4533 49.9578 11.5037L50.3816 11.999C50.4494 12.0829 50.6868 12.4691 50.7885 12.4943C50.8478 12.5027 51.2377 12.1417 51.2971 12.0997L51.8226 11.7219C51.9752 11.6128 52.1786 11.4113 52.3651 11.3442C52.4244 11.319 52.6702 11.8479 52.7381 11.8647C52.8228 11.8815 53.2042 11.5708 53.2975 11.5205C53.4162 11.4533 53.7298 11.1847 53.8739 11.1847C53.8908 11.1847 54.2384 11.7052 54.2214 11.7303C54.179 11.8815 53.7213 11.9234 53.6535 12.0661C53.2805 12.2928 52.9161 12.5195 52.5685 12.7545C52.4244 12.8636 52.1532 12.9896 52.0515 13.1323C51.9752 13.233 51.5683 13.4009 51.5514 13.51C51.5514 13.5436 51.9074 14.0305 51.9074 14.0305C51.7887 14.0725 51.5344 14.4335 51.4327 14.4167C51.3225 14.3999 51.1954 13.8878 51.0767 13.8962C50.9919 13.8962 50.6698 14.3327 50.6105 14.2991C50.4918 14.232 50.3223 13.9214 50.2375 13.8039C50.1782 13.7283 49.9409 13.3337 49.8476 13.3086C49.7883 13.3002 49.4408 13.6779 49.3899 13.7283C49.3221 13.7787 49.0254 14.1732 48.9491 14.1732C48.8728 14.1732 48.5931 13.7703 48.5338 13.7115C48.4914 13.6611 48.1608 13.2414 48.1015 13.2498C47.9913 13.2666 47.7455 13.6108 47.6777 13.7031L47.2708 14.1816C47.1606 14.3159 47.0165 14.5594 46.8809 14.6517C46.8301 14.6853 46.4995 14.2152 46.4317 14.2152C46.3469 14.2152 46.1096 14.6265 46.0587 14.7021C45.9739 14.8112 45.8214 15.147 45.7027 15.1974C45.6179 15.2394 45.3382 14.7776 45.2365 14.786C45.0924 14.8028 45.0246 15.2394 44.889 15.2813C44.7279 15.147 44.5669 15.0211 44.4058 14.8952C44.2872 14.8028 43.9905 14.6517 43.9057 14.5174C43.8549 14.4419 44.2617 14.0893 44.2448 13.9969C44.2278 13.871 43.8125 13.7283 43.7362 13.6192C43.6175 13.4513 43.3463 13.4009 43.2107 13.2498C43.0496 13.3589 43.0242 13.6779 42.8631 13.7787C42.736 13.8458 42.6088 14.19 42.5326 14.3159C42.4563 14.4503 42.3376 14.7693 42.2189 14.8616C42.1511 14.912 41.7697 14.5006 41.6849 14.5174C41.5493 14.551 41.5069 14.9875 41.3883 15.0547C41.3035 15.1134 40.9475 14.7105 40.8458 14.7441C40.761 14.7693 40.6084 15.231 40.566 15.3065C40.5067 15.4073 40.3965 15.8186 40.3033 15.8606C40.1931 15.9193 39.8625 15.5164 39.7438 15.5584C39.6252 15.6003 39.6167 16.1208 39.498 16.1376C39.3455 16.1628 39.0827 15.8186 38.9301 15.8606C38.803 15.8942 38.8284 16.3894 38.7013 16.4314C38.5826 16.4734 38.2351 16.104 38.1164 16.1712C37.9892 16.2551 38.0401 16.7084 37.9045 16.7672C37.8282 16.8008 37.3705 16.465 37.3196 16.5322C37.2179 16.6413 37.167 16.9771 37.1247 17.1198C37.0992 17.1702 36.989 17.7074 36.9467 17.7158C36.9043 17.7242 36.3703 17.5479 36.3533 17.506C36.294 17.3968 36.5991 17.0023 36.5228 16.9015C36.4635 16.8176 35.938 16.7924 35.921 16.7001C35.8702 16.5238 36.116 16.2803 36.099 16.0872Z" fill="white"/>
<path fill-rule="evenodd" clip-rule="evenodd" d="M83.8632 20.6959L85.0669 20.4021C85.0075 20.5448 85.2449 20.889 85.1601 21.0149C85.0923 21.1241 84.6091 21.0485 84.5583 21.166C84.5413 21.208 84.6261 21.7621 84.66 21.7789C84.7787 21.8628 84.643 22.3161 84.7617 22.3917C84.8804 22.4672 85.2364 22.1902 85.3635 22.2406C85.5076 22.2909 85.7958 22.0139 85.9145 22.0979C85.9908 22.165 85.8128 22.6435 85.8806 22.6687C85.9654 22.7191 86.3214 22.6435 86.4485 22.6435C86.5926 22.6435 86.9401 22.5932 87.0588 22.6771C87.1266 22.7275 86.8638 23.2144 86.9062 23.2815C86.974 23.3907 87.4402 23.2479 87.508 23.3823C87.5759 23.4998 87.2453 23.8608 87.3046 23.9699C87.3555 24.0622 87.8725 23.9951 87.9064 24.1126C87.9403 24.2721 87.6437 24.524 87.6691 24.6918C87.686 24.8262 87.364 25.1368 87.4148 25.2459C87.4572 25.3382 87.9742 25.3047 87.9912 25.4222C88.0166 25.5733 87.6776 25.8251 87.7115 25.9762C87.7369 26.0938 88.237 26.0602 88.2794 26.1777C88.3218 26.2785 87.9234 26.631 87.9827 26.715C88.0505 26.8325 88.4998 26.8157 88.5422 26.9416C88.5845 27.0676 88.1946 27.3446 88.2285 27.4705C88.2624 27.5797 88.771 27.6048 88.7795 27.714C88.788 27.8567 88.415 28.1001 88.4489 28.2344C88.4828 28.3688 88.076 28.6122 88.1099 28.7381C88.1438 28.8641 88.5845 28.8808 88.6439 28.9984C88.7032 29.1159 89.1525 29.1411 89.1864 29.267C89.2203 29.3845 88.788 29.6532 88.8304 29.7623C88.8727 29.8714 88.4404 30.1317 88.4574 30.2492C88.4743 30.3163 88.9066 30.4842 88.9829 30.5346C89.0507 30.5766 89.5 30.7613 89.5 30.8368C89.5085 30.9124 89.1694 31.2398 89.1101 31.3069C89.0507 31.3825 88.7117 31.6931 88.7202 31.7686C88.7286 31.903 88.2963 32.0876 88.3133 32.2136C88.3218 32.2807 88.7371 32.4654 88.8049 32.5158C88.9151 32.5913 89.2542 32.7257 89.2965 32.8348C89.3305 32.9187 88.8558 33.1622 88.8643 33.2461C88.8727 33.3469 89.3559 33.4644 89.3474 33.5735C89.3389 33.6071 88.9236 33.9513 88.8897 33.9513C88.7286 33.9597 88.593 33.6575 88.432 33.6407L87.9573 33.3385C87.898 33.3049 87.4826 33.1034 87.4826 33.053C87.4911 32.9271 87.898 32.776 87.898 32.6417C87.9064 32.5158 88.3302 32.3395 88.3133 32.2136C88.2963 32.0876 87.8301 32.0457 87.8132 31.9198C87.7962 31.7938 88.2285 31.6007 88.2116 31.4664C88.1946 31.3405 87.72 31.3069 87.703 31.1894C87.686 31.0719 88.1099 30.8536 88.0844 30.7277C88.059 30.6018 87.5843 30.5766 87.5589 30.4591C87.5335 30.3331 87.9573 30.1065 87.9319 29.9806C87.9064 29.8546 87.4318 29.8462 87.3979 29.7287C87.3724 29.6028 87.7878 29.3677 87.7539 29.2418C87.72 29.1159 87.2538 29.1159 87.2199 28.9984C87.1859 28.8808 87.5928 28.629 87.5589 28.5031C87.525 28.3772 87.0503 28.3939 87.0164 28.2764C86.9825 28.1589 87.3894 27.8903 87.347 27.7643C87.3046 27.6468 86.8215 27.672 86.796 27.5545C86.7621 27.4285 87.152 27.1599 87.1097 27.034C87.0842 26.95 86.5502 26.9165 86.5587 26.8493C86.5757 26.7234 86.7791 26.4548 86.8554 26.3288C86.8977 26.2617 87.169 25.8587 87.1436 25.7916C87.1012 25.6656 86.6265 25.7496 86.5756 25.6405C86.5333 25.5481 86.8978 25.1787 86.8384 25.1032C86.7452 24.9857 86.3722 25.078 86.2705 24.9773C86.1857 24.8849 85.7619 24.9941 85.7111 24.9017C85.6602 24.8094 86.0077 24.44 85.9399 24.3561C85.8636 24.2721 85.4483 24.4316 85.3974 24.3477C85.3466 24.2637 85.6517 23.8943 85.5924 23.802C85.5331 23.7181 85.1262 23.9615 85.0838 23.8943C85.0414 23.8356 85.3042 23.4242 85.2449 23.3571C85.211 23.3319 84.8804 23.5586 84.855 23.5921C84.8041 23.6173 84.7702 23.6929 84.6685 23.7348C84.5498 23.7684 84.4396 23.7936 84.3633 23.7852C84.2786 23.7684 84.3294 23.2144 84.2531 23.164C84.1684 23.1052 83.7107 23.3907 83.6428 23.3067C83.5666 23.206 83.5666 22.8198 83.5411 22.6939L83.4479 22.0811L83.2529 20.8554L83.8632 20.6959Z" fill="white"/>
</svg>
