<svg width="100" height="100" viewBox="0 0 100 100" fill="none" xmlns="http://www.w3.org/2000/svg">
<g clip-path="url(#clip0_391_949)">
<path fill-rule="evenodd" clip-rule="evenodd" d="M48.0613 15.2547C47.8949 13.4398 47.1485 12.0246 46.3943 12.0937C45.64 12.1629 45.1635 13.6903 45.3299 15.5052C45.4964 17.3201 46.2428 18.7353 46.997 18.6662C47.7513 18.597 48.2278 17.0696 48.0613 15.2547ZM44.5871 22.101C45.1257 22.4111 45.2927 23.2555 45.1232 24.3753C45.1544 24.4005 45.1855 24.426 45.2165 24.4518C45.7205 24.8711 46.1394 25.323 46.4466 25.7568C46.6552 25.8135 46.8696 25.8795 47.0887 25.9546C47.2804 25.9383 47.4615 25.9338 47.6302 25.9414C46.8781 23.9354 46.8413 22.2512 47.653 21.7826C47.7824 21.7078 47.9278 21.6673 48.0864 21.6585C47.7697 21.0361 48.2584 19.6873 49.2965 18.4396C50.4621 17.0386 51.879 16.2955 52.4613 16.7799C53.0435 17.2644 52.5706 18.7928 51.405 20.1939C50.6462 21.1059 49.781 21.7391 49.1088 21.9364C49.5932 22.1904 50.1236 22.6095 50.658 23.1601C51.0435 22.827 51.4285 22.5726 51.7789 22.4147C52.2026 21.0401 52.8531 20.1555 53.5639 20.1349C54.5447 20.1066 55.4065 21.8062 55.7211 24.1613C57.1552 22.2915 58.7328 21.2566 59.6011 21.7631C60.4441 22.2548 60.377 24.0355 59.5461 26.1309C61.634 25.3099 63.4093 25.2448 63.8925 26.0817C64.2355 26.6759 63.859 27.607 62.9835 28.5973C63.1623 28.9799 63.173 29.5954 63.0205 30.3109C63.1991 30.3647 63.3697 30.4223 63.5316 30.4834C63.7288 30.3333 63.9359 30.2487 64.1484 30.2393C65.106 30.1966 65.9481 31.7991 66.2833 34.0519C67.6667 32.3145 69.1435 31.3853 69.9871 31.8665C70.8696 32.3698 70.7691 34.2587 69.8541 36.4491C71.9973 35.5699 73.8315 35.4679 74.3252 36.3231C74.8153 37.172 73.837 38.7081 72.0334 40.1225C74.2441 40.4618 75.8056 41.3017 75.8329 42.2489C75.86 43.1863 74.3085 44.0151 72.1148 44.3611C73.9316 45.7834 74.9195 47.3382 74.4294 48.1893C73.9327 49.052 72.0608 48.9536 69.8845 48.0505C70.7472 50.1862 70.8297 52.0162 69.978 52.5079C69.5233 52.7704 68.8715 52.6116 68.1468 52.1304L68.0123 67.0071C68.0049 67.5808 68.1512 68.143 68.4363 68.6369C68.7214 69.1307 69.1352 69.5385 69.6357 69.819L72.8707 71.64L77.4587 74.2218C77.6879 74.3491 77.8769 74.5356 78.006 74.7619C78.1351 74.9882 78.1996 75.2459 78.1926 75.508C78.1856 75.7701 78.1075 76.027 77.9663 76.2518C77.8252 76.4766 77.6263 76.6611 77.3904 76.7859L73.4181 79.0793C73.0323 79.2929 72.6942 79.5829 72.4256 79.9306C72.157 80.2783 71.9638 80.6762 71.8582 81.0986C71.6898 81.8078 71.3792 82.4792 70.9449 83.0728C70.5107 83.6664 69.9617 84.1699 69.3307 84.5534L69.2146 84.6205C68.5669 84.9752 67.8564 85.1988 67.1252 85.2781C66.3941 85.3574 65.6573 85.2907 64.9589 85.0819C64.5427 84.9611 64.1036 84.9285 63.67 84.9861C63.2365 85.0437 62.8181 85.1903 62.4418 85.4165L58.4695 87.7099C58.2435 87.8518 57.9843 87.9318 57.719 87.9416C57.4537 87.9514 57.1922 87.8907 56.9617 87.7657C56.7312 87.6406 56.5402 87.456 56.4088 87.231C56.2774 87.0061 56.2104 86.7491 56.2148 86.487L56.2728 81.2228L56.3133 77.5107C56.3207 76.937 56.1744 76.3747 55.8893 75.8809C55.6042 75.3871 55.1904 74.9793 54.6898 74.6988L40.9623 67.0144C41.1972 68.2589 41.0496 69.2097 40.4713 69.5436C39.6351 70.0264 38.132 69.0843 36.7354 67.3321C36.393 69.5218 35.5536 71.0567 34.606 71.0989C33.6352 71.1421 32.7832 69.4947 32.4576 67.1928C31.0493 68.9927 29.5232 69.9741 28.6716 69.4774C27.8251 68.9836 27.8889 67.1944 28.7262 65.0896C26.5727 65.9724 24.7236 66.0677 24.2227 65.2003C23.7294 64.3458 24.6993 62.8254 26.4883 61.4194C24.2157 61.0968 22.6112 60.2475 22.568 59.2769C22.5239 58.2881 24.2341 57.4225 26.6032 57.1109C26.4268 56.9739 26.2581 56.8357 26.0977 56.697C25.8095 56.8502 25.4937 56.992 25.1571 57.1161C23.447 57.7466 21.8484 57.6816 21.5864 56.971C21.3243 56.2603 22.4981 55.1731 24.2081 54.5426C24.2421 54.5301 24.276 54.5178 24.3098 54.5059C24.1056 54.028 24.0797 53.6046 24.2689 53.2802C24.2981 53.2301 24.3319 53.1832 24.37 53.1395C24.4748 52.5161 24.6803 51.8129 24.9802 51.0725C22.8525 51.9272 21.0281 52.0098 20.5384 51.1616C20.2097 50.5923 20.5449 49.7117 21.3466 48.7662C21.2286 48.5281 21.1186 48.2734 21.0199 48.0056C20.8796 47.6252 20.7738 47.2503 20.7018 46.8944C19.6097 46.4823 18.9302 45.9115 18.9122 45.2878C18.8843 44.3244 20.5236 43.4759 22.8136 43.1479C20.949 41.7181 19.921 40.1505 20.427 39.283C20.9309 38.4193 22.7834 38.5032 24.9438 39.3897C24.0959 37.2709 24.0196 35.4603 24.866 34.9716C25.6848 34.4989 27.143 35.3923 28.5146 37.0747C28.5587 36.9766 28.61 36.8764 28.6684 36.7742C28.8457 35.8015 29.1221 34.9723 29.4607 34.3696C27.8038 33.9501 26.7027 33.2447 26.6799 32.4562C26.6512 31.4624 28.3969 30.5907 30.801 30.2868C28.9588 28.8588 27.956 27.294 28.4499 26.4362C28.9215 25.6169 30.6295 25.6574 32.6627 26.4343C31.861 24.3691 31.8039 22.6192 32.6338 22.1401C33.5067 21.6361 35.1064 22.6849 36.5531 24.5871C36.8259 22.2292 37.7001 20.5186 38.6918 20.49C39.6437 20.4625 40.4835 22.0627 40.8197 24.31C42.2255 22.5507 43.7525 21.6205 44.5871 22.101ZM61.9965 34.195C61.9898 34.2435 61.9834 34.2922 61.9772 34.3412C61.945 34.2989 61.9128 34.2571 61.8805 34.2157C61.9194 34.209 61.958 34.2021 61.9965 34.195ZM55.2792 49.4865C55.3493 49.5436 55.418 49.6008 55.4854 49.6581L56.0098 49.3553C55.7753 49.405 55.5313 49.4489 55.2792 49.4865ZM45.1236 55.6405C45.1126 55.5794 45.102 55.5177 45.0918 55.4555C44.9769 55.5955 44.8614 55.73 44.7458 55.8587L45.1236 55.6405ZM41.5889 52.9732C41.1539 53.154 40.7306 53.303 40.3276 53.4187C40.3139 53.4525 40.2999 53.4863 40.2857 53.5202C40.7208 53.3416 41.1434 53.1947 41.5447 53.0813C41.5592 53.0453 41.574 53.0093 41.5889 52.9732ZM40.7289 41.0984C40.9531 41.1755 41.1821 41.262 41.4147 41.3577C41.3824 41.2759 41.3512 41.1945 41.3212 41.1136C41.1935 40.9711 41.0659 40.8214 40.939 40.6649C40.884 40.7741 40.8205 40.8857 40.7487 40.9993C40.7422 41.0325 40.7356 41.0656 40.7289 41.0984ZM45.0556 39.158C45.0849 38.9568 45.1184 38.7608 45.1556 38.5707C44.9607 38.5836 44.777 38.5843 44.6062 38.5726C44.6191 38.6064 44.6317 38.64 44.6442 38.6736C44.7818 38.827 44.9192 38.9886 45.0556 39.158ZM55.135 45.1517L55.132 45.1541L55.1325 45.1542L55.135 45.1517ZM44.7141 18.6652C46.1231 19.8299 46.873 21.2488 46.3889 21.8344C45.9049 22.42 44.3703 21.9505 42.9612 20.7857C41.5522 19.621 40.8024 18.2021 41.2864 17.6166C41.7705 17.031 43.3051 17.5005 44.7141 18.6652ZM17.6549 47.4668C19.3099 48.2301 20.3944 49.4065 20.0772 50.0943C19.76 50.7821 18.1612 50.7208 16.5062 49.9575C14.8512 49.1942 13.7667 48.0179 14.0839 47.3301C14.4011 46.6423 15.9999 46.7035 17.6549 47.4668ZM22.6795 52.3413C22.4175 51.6307 20.8189 51.5657 19.1089 52.1962C17.3989 52.8267 16.2251 53.914 16.4871 54.6246C16.7491 55.3353 18.3478 55.4002 20.0578 54.7697C21.7678 54.1392 22.9416 53.052 22.6795 52.3413Z" fill="#FFDD86"/>
<mask id="path-2-outside-1_391_949" maskUnits="userSpaceOnUse" x="13.0288" y="10.0913" width="67" height="79" fill="black">
<rect fill="white" x="13.0288" y="10.0913" width="67" height="79"/>
<path fill-rule="evenodd" clip-rule="evenodd" d="M48.0613 15.2547C47.8949 13.4398 47.1485 12.0246 46.3943 12.0937C45.64 12.1629 45.1635 13.6903 45.3299 15.5052C45.4964 17.3201 46.2428 18.7353 46.997 18.6662C47.7513 18.597 48.2278 17.0696 48.0613 15.2547ZM44.5871 22.101C45.1257 22.4111 45.2927 23.2555 45.1232 24.3753C45.1544 24.4005 45.1855 24.426 45.2165 24.4518C45.7205 24.8711 46.1394 25.323 46.4466 25.7568C46.6552 25.8135 46.8696 25.8795 47.0887 25.9546C47.2804 25.9383 47.4615 25.9338 47.6302 25.9414C46.8781 23.9354 46.8413 22.2512 47.653 21.7826C47.7824 21.7078 47.9278 21.6673 48.0864 21.6585C47.7697 21.0361 48.2584 19.6873 49.2965 18.4396C50.4621 17.0386 51.879 16.2955 52.4613 16.7799C53.0435 17.2644 52.5706 18.7928 51.405 20.1939C50.6462 21.1059 49.781 21.7391 49.1088 21.9364C49.5932 22.1904 50.1236 22.6095 50.658 23.1601C51.0435 22.827 51.4285 22.5726 51.7789 22.4147C52.2026 21.0401 52.8531 20.1555 53.5639 20.1349C54.5447 20.1066 55.4065 21.8062 55.7211 24.1613C57.1552 22.2915 58.7328 21.2566 59.6011 21.7631C60.4441 22.2548 60.377 24.0355 59.5461 26.1309C61.634 25.3099 63.4093 25.2448 63.8925 26.0817C64.2355 26.6759 63.859 27.607 62.9835 28.5973C63.1623 28.9799 63.173 29.5954 63.0205 30.3109C63.1991 30.3647 63.3697 30.4223 63.5316 30.4834C63.7288 30.3333 63.9359 30.2487 64.1484 30.2393C65.106 30.1966 65.9481 31.7991 66.2833 34.0519C67.6667 32.3145 69.1435 31.3853 69.9871 31.8665C70.8696 32.3698 70.7691 34.2587 69.8541 36.4491C71.9973 35.5699 73.8315 35.4679 74.3252 36.3231C74.8153 37.172 73.837 38.7081 72.0334 40.1225C74.2441 40.4618 75.8056 41.3017 75.8329 42.2489C75.86 43.1863 74.3085 44.0151 72.1148 44.3611C73.9316 45.7834 74.9195 47.3382 74.4294 48.1893C73.9327 49.052 72.0608 48.9536 69.8845 48.0505C70.7472 50.1862 70.8297 52.0162 69.978 52.5079C69.5233 52.7704 68.8715 52.6116 68.1468 52.1304L68.0123 67.0071C68.0049 67.5808 68.1512 68.143 68.4363 68.6369C68.7214 69.1307 69.1352 69.5385 69.6357 69.819L72.8707 71.64L77.4587 74.2218C77.6879 74.3491 77.8769 74.5356 78.006 74.7619C78.1351 74.9882 78.1996 75.2459 78.1926 75.508C78.1856 75.7701 78.1075 76.027 77.9663 76.2518C77.8252 76.4766 77.6263 76.6611 77.3904 76.7859L73.4181 79.0793C73.0323 79.2929 72.6942 79.5829 72.4256 79.9306C72.157 80.2783 71.9638 80.6762 71.8582 81.0986C71.6898 81.8078 71.3792 82.4792 70.9449 83.0728C70.5107 83.6664 69.9617 84.1699 69.3307 84.5534L69.2146 84.6205C68.5669 84.9752 67.8564 85.1988 67.1252 85.2781C66.3941 85.3574 65.6573 85.2907 64.9589 85.0819C64.5427 84.9611 64.1036 84.9285 63.67 84.9861C63.2365 85.0437 62.8181 85.1903 62.4418 85.4165L58.4695 87.7099C58.2435 87.8518 57.9843 87.9318 57.719 87.9416C57.4537 87.9514 57.1922 87.8907 56.9617 87.7657C56.7312 87.6406 56.5402 87.456 56.4088 87.231C56.2774 87.0061 56.2104 86.7491 56.2148 86.487L56.2728 81.2228L56.3133 77.5107C56.3207 76.937 56.1744 76.3747 55.8893 75.8809C55.6042 75.3871 55.1904 74.9793 54.6898 74.6988L40.9623 67.0144C41.1972 68.2589 41.0496 69.2097 40.4713 69.5436C39.6351 70.0264 38.132 69.0843 36.7354 67.3321C36.393 69.5218 35.5536 71.0567 34.606 71.0989C33.6352 71.1421 32.7832 69.4947 32.4576 67.1928C31.0493 68.9927 29.5232 69.9741 28.6716 69.4774C27.8251 68.9836 27.8889 67.1944 28.7262 65.0896C26.5727 65.9724 24.7236 66.0677 24.2227 65.2003C23.7294 64.3458 24.6993 62.8254 26.4883 61.4194C24.2157 61.0968 22.6112 60.2475 22.568 59.2769C22.5239 58.2881 24.2341 57.4225 26.6032 57.1109C26.4268 56.9739 26.2581 56.8357 26.0977 56.697C25.8095 56.8502 25.4937 56.992 25.1571 57.1161C23.447 57.7466 21.8484 57.6816 21.5864 56.971C21.3243 56.2603 22.4981 55.1731 24.2081 54.5426C24.2421 54.5301 24.276 54.5178 24.3098 54.5059C24.1056 54.028 24.0797 53.6046 24.2689 53.2802C24.2981 53.2301 24.3319 53.1832 24.37 53.1395C24.4748 52.5161 24.6803 51.8129 24.9802 51.0725C22.8525 51.9272 21.0281 52.0098 20.5384 51.1616C20.2097 50.5923 20.5449 49.7117 21.3466 48.7662C21.2286 48.5281 21.1186 48.2734 21.0199 48.0056C20.8796 47.6252 20.7738 47.2503 20.7018 46.8944C19.6097 46.4823 18.9302 45.9115 18.9122 45.2878C18.8843 44.3244 20.5236 43.4759 22.8136 43.1479C20.949 41.7181 19.921 40.1505 20.427 39.283C20.9309 38.4193 22.7834 38.5032 24.9438 39.3897C24.0959 37.2709 24.0196 35.4603 24.866 34.9716C25.6848 34.4989 27.143 35.3923 28.5146 37.0747C28.5587 36.9766 28.61 36.8764 28.6684 36.7742C28.8457 35.8015 29.1221 34.9723 29.4607 34.3696C27.8038 33.9501 26.7027 33.2447 26.6799 32.4562C26.6512 31.4624 28.3969 30.5907 30.801 30.2868C28.9588 28.8588 27.956 27.294 28.4499 26.4362C28.9215 25.6169 30.6295 25.6574 32.6627 26.4343C31.861 24.3691 31.8039 22.6192 32.6338 22.1401C33.5067 21.6361 35.1064 22.6849 36.5531 24.5871C36.8259 22.2292 37.7001 20.5186 38.6918 20.49C39.6437 20.4625 40.4835 22.0627 40.8197 24.31C42.2255 22.5507 43.7525 21.6205 44.5871 22.101ZM61.9965 34.195C61.9898 34.2435 61.9834 34.2922 61.9772 34.3412C61.945 34.2989 61.9128 34.2571 61.8805 34.2157C61.9194 34.209 61.958 34.2021 61.9965 34.195ZM55.2792 49.4865C55.3493 49.5436 55.418 49.6008 55.4854 49.6581L56.0098 49.3553C55.7753 49.405 55.5313 49.4489 55.2792 49.4865ZM45.1236 55.6405C45.1126 55.5794 45.102 55.5177 45.0918 55.4555C44.9769 55.5955 44.8614 55.73 44.7458 55.8587L45.1236 55.6405ZM41.5889 52.9732C41.1539 53.154 40.7306 53.303 40.3276 53.4187C40.3139 53.4525 40.2999 53.4863 40.2857 53.5202C40.7208 53.3416 41.1434 53.1947 41.5447 53.0813C41.5592 53.0453 41.574 53.0093 41.5889 52.9732ZM40.7289 41.0984C40.9531 41.1755 41.1821 41.262 41.4147 41.3577C41.3824 41.2759 41.3512 41.1945 41.3212 41.1136C41.1935 40.9711 41.0659 40.8214 40.939 40.6649C40.884 40.7741 40.8205 40.8857 40.7487 40.9993C40.7422 41.0325 40.7356 41.0656 40.7289 41.0984ZM45.0556 39.158C45.0849 38.9568 45.1184 38.7608 45.1556 38.5707C44.9607 38.5836 44.777 38.5843 44.6062 38.5726C44.6191 38.6064 44.6317 38.64 44.6442 38.6736C44.7818 38.827 44.9192 38.9886 45.0556 39.158ZM55.135 45.1517L55.132 45.1541L55.1325 45.1542L55.135 45.1517ZM44.7141 18.6652C46.1231 19.8299 46.873 21.2488 46.3889 21.8344C45.9049 22.42 44.3703 21.9505 42.9612 20.7857C41.5522 19.621 40.8024 18.2021 41.2864 17.6166C41.7705 17.031 43.3051 17.5005 44.7141 18.6652ZM17.6549 47.4668C19.3099 48.2301 20.3944 49.4065 20.0772 50.0943C19.76 50.7821 18.1612 50.7208 16.5062 49.9575C14.8512 49.1942 13.7667 48.0179 14.0839 47.3301C14.4011 46.6423 15.9999 46.7035 17.6549 47.4668ZM22.6795 52.3413C22.4175 51.6307 20.8189 51.5657 19.1089 52.1962C17.3989 52.8267 16.2251 53.914 16.4871 54.6246C16.7491 55.3353 18.3478 55.4002 20.0578 54.7697C21.7678 54.1392 22.9416 53.052 22.6795 52.3413Z"/>
</mask>
<path fill-rule="evenodd" clip-rule="evenodd" d="M48.0613 15.2547C47.8949 13.4398 47.1485 12.0246 46.3943 12.0937C45.64 12.1629 45.1635 13.6903 45.3299 15.5052C45.4964 17.3201 46.2428 18.7353 46.997 18.6662C47.7513 18.597 48.2278 17.0696 48.0613 15.2547ZM44.5871 22.101C45.1257 22.4111 45.2927 23.2555 45.1232 24.3753C45.1544 24.4005 45.1855 24.426 45.2165 24.4518C45.7205 24.8711 46.1394 25.323 46.4466 25.7568C46.6552 25.8135 46.8696 25.8795 47.0887 25.9546C47.2804 25.9383 47.4615 25.9338 47.6302 25.9414C46.8781 23.9354 46.8413 22.2512 47.653 21.7826C47.7824 21.7078 47.9278 21.6673 48.0864 21.6585C47.7697 21.0361 48.2584 19.6873 49.2965 18.4396C50.4621 17.0386 51.879 16.2955 52.4613 16.7799C53.0435 17.2644 52.5706 18.7928 51.405 20.1939C50.6462 21.1059 49.781 21.7391 49.1088 21.9364C49.5932 22.1904 50.1236 22.6095 50.658 23.1601C51.0435 22.827 51.4285 22.5726 51.7789 22.4147C52.2026 21.0401 52.8531 20.1555 53.5639 20.1349C54.5447 20.1066 55.4065 21.8062 55.7211 24.1613C57.1552 22.2915 58.7328 21.2566 59.6011 21.7631C60.4441 22.2548 60.377 24.0355 59.5461 26.1309C61.634 25.3099 63.4093 25.2448 63.8925 26.0817C64.2355 26.6759 63.859 27.607 62.9835 28.5973C63.1623 28.9799 63.173 29.5954 63.0205 30.3109C63.1991 30.3647 63.3697 30.4223 63.5316 30.4834C63.7288 30.3333 63.9359 30.2487 64.1484 30.2393C65.106 30.1966 65.9481 31.7991 66.2833 34.0519C67.6667 32.3145 69.1435 31.3853 69.9871 31.8665C70.8696 32.3698 70.7691 34.2587 69.8541 36.4491C71.9973 35.5699 73.8315 35.4679 74.3252 36.3231C74.8153 37.172 73.837 38.7081 72.0334 40.1225C74.2441 40.4618 75.8056 41.3017 75.8329 42.2489C75.86 43.1863 74.3085 44.0151 72.1148 44.3611C73.9316 45.7834 74.9195 47.3382 74.4294 48.1893C73.9327 49.052 72.0608 48.9536 69.8845 48.0505C70.7472 50.1862 70.8297 52.0162 69.978 52.5079C69.5233 52.7704 68.8715 52.6116 68.1468 52.1304L68.0123 67.0071C68.0049 67.5808 68.1512 68.143 68.4363 68.6369C68.7214 69.1307 69.1352 69.5385 69.6357 69.819L72.8707 71.64L77.4587 74.2218C77.6879 74.3491 77.8769 74.5356 78.006 74.7619C78.1351 74.9882 78.1996 75.2459 78.1926 75.508C78.1856 75.7701 78.1075 76.027 77.9663 76.2518C77.8252 76.4766 77.6263 76.6611 77.3904 76.7859L73.4181 79.0793C73.0323 79.2929 72.6942 79.5829 72.4256 79.9306C72.157 80.2783 71.9638 80.6762 71.8582 81.0986C71.6898 81.8078 71.3792 82.4792 70.9449 83.0728C70.5107 83.6664 69.9617 84.1699 69.3307 84.5534L69.2146 84.6205C68.5669 84.9752 67.8564 85.1988 67.1252 85.2781C66.3941 85.3574 65.6573 85.2907 64.9589 85.0819C64.5427 84.9611 64.1036 84.9285 63.67 84.9861C63.2365 85.0437 62.8181 85.1903 62.4418 85.4165L58.4695 87.7099C58.2435 87.8518 57.9843 87.9318 57.719 87.9416C57.4537 87.9514 57.1922 87.8907 56.9617 87.7657C56.7312 87.6406 56.5402 87.456 56.4088 87.231C56.2774 87.0061 56.2104 86.7491 56.2148 86.487L56.2728 81.2228L56.3133 77.5107C56.3207 76.937 56.1744 76.3747 55.8893 75.8809C55.6042 75.3871 55.1904 74.9793 54.6898 74.6988L40.9623 67.0144C41.1972 68.2589 41.0496 69.2097 40.4713 69.5436C39.6351 70.0264 38.132 69.0843 36.7354 67.3321C36.393 69.5218 35.5536 71.0567 34.606 71.0989C33.6352 71.1421 32.7832 69.4947 32.4576 67.1928C31.0493 68.9927 29.5232 69.9741 28.6716 69.4774C27.8251 68.9836 27.8889 67.1944 28.7262 65.0896C26.5727 65.9724 24.7236 66.0677 24.2227 65.2003C23.7294 64.3458 24.6993 62.8254 26.4883 61.4194C24.2157 61.0968 22.6112 60.2475 22.568 59.2769C22.5239 58.2881 24.2341 57.4225 26.6032 57.1109C26.4268 56.9739 26.2581 56.8357 26.0977 56.697C25.8095 56.8502 25.4937 56.992 25.1571 57.1161C23.447 57.7466 21.8484 57.6816 21.5864 56.971C21.3243 56.2603 22.4981 55.1731 24.2081 54.5426C24.2421 54.5301 24.276 54.5178 24.3098 54.5059C24.1056 54.028 24.0797 53.6046 24.2689 53.2802C24.2981 53.2301 24.3319 53.1832 24.37 53.1395C24.4748 52.5161 24.6803 51.8129 24.9802 51.0725C22.8525 51.9272 21.0281 52.0098 20.5384 51.1616C20.2097 50.5923 20.5449 49.7117 21.3466 48.7662C21.2286 48.5281 21.1186 48.2734 21.0199 48.0056C20.8796 47.6252 20.7738 47.2503 20.7018 46.8944C19.6097 46.4823 18.9302 45.9115 18.9122 45.2878C18.8843 44.3244 20.5236 43.4759 22.8136 43.1479C20.949 41.7181 19.921 40.1505 20.427 39.283C20.9309 38.4193 22.7834 38.5032 24.9438 39.3897C24.0959 37.2709 24.0196 35.4603 24.866 34.9716C25.6848 34.4989 27.143 35.3923 28.5146 37.0747C28.5587 36.9766 28.61 36.8764 28.6684 36.7742C28.8457 35.8015 29.1221 34.9723 29.4607 34.3696C27.8038 33.9501 26.7027 33.2447 26.6799 32.4562C26.6512 31.4624 28.3969 30.5907 30.801 30.2868C28.9588 28.8588 27.956 27.294 28.4499 26.4362C28.9215 25.6169 30.6295 25.6574 32.6627 26.4343C31.861 24.3691 31.8039 22.6192 32.6338 22.1401C33.5067 21.6361 35.1064 22.6849 36.5531 24.5871C36.8259 22.2292 37.7001 20.5186 38.6918 20.49C39.6437 20.4625 40.4835 22.0627 40.8197 24.31C42.2255 22.5507 43.7525 21.6205 44.5871 22.101ZM61.9965 34.195C61.9898 34.2435 61.9834 34.2922 61.9772 34.3412C61.945 34.2989 61.9128 34.2571 61.8805 34.2157C61.9194 34.209 61.958 34.2021 61.9965 34.195ZM55.2792 49.4865C55.3493 49.5436 55.418 49.6008 55.4854 49.6581L56.0098 49.3553C55.7753 49.405 55.5313 49.4489 55.2792 49.4865ZM45.1236 55.6405C45.1126 55.5794 45.102 55.5177 45.0918 55.4555C44.9769 55.5955 44.8614 55.73 44.7458 55.8587L45.1236 55.6405ZM41.5889 52.9732C41.1539 53.154 40.7306 53.303 40.3276 53.4187C40.3139 53.4525 40.2999 53.4863 40.2857 53.5202C40.7208 53.3416 41.1434 53.1947 41.5447 53.0813C41.5592 53.0453 41.574 53.0093 41.5889 52.9732ZM40.7289 41.0984C40.9531 41.1755 41.1821 41.262 41.4147 41.3577C41.3824 41.2759 41.3512 41.1945 41.3212 41.1136C41.1935 40.9711 41.0659 40.8214 40.939 40.6649C40.884 40.7741 40.8205 40.8857 40.7487 40.9993C40.7422 41.0325 40.7356 41.0656 40.7289 41.0984ZM45.0556 39.158C45.0849 38.9568 45.1184 38.7608 45.1556 38.5707C44.9607 38.5836 44.777 38.5843 44.6062 38.5726C44.6191 38.6064 44.6317 38.64 44.6442 38.6736C44.7818 38.827 44.9192 38.9886 45.0556 39.158ZM55.135 45.1517L55.132 45.1541L55.1325 45.1542L55.135 45.1517ZM44.7141 18.6652C46.1231 19.8299 46.873 21.2488 46.3889 21.8344C45.9049 22.42 44.3703 21.9505 42.9612 20.7857C41.5522 19.621 40.8024 18.2021 41.2864 17.6166C41.7705 17.031 43.3051 17.5005 44.7141 18.6652ZM17.6549 47.4668C19.3099 48.2301 20.3944 49.4065 20.0772 50.0943C19.76 50.7821 18.1612 50.7208 16.5062 49.9575C14.8512 49.1942 13.7667 48.0179 14.0839 47.3301C14.4011 46.6423 15.9999 46.7035 17.6549 47.4668ZM22.6795 52.3413C22.4175 51.6307 20.8189 51.5657 19.1089 52.1962C17.3989 52.8267 16.2251 53.914 16.4871 54.6246C16.7491 55.3353 18.3478 55.4002 20.0578 54.7697C21.7678 54.1392 22.9416 53.052 22.6795 52.3413Z" fill="#FFDD86"/>
<path d="M46.3943 12.0937L46.4856 13.0896L46.3943 12.0937ZM48.0613 15.2547L49.0572 15.1634V15.1634L48.0613 15.2547ZM45.3299 15.5052L44.3341 15.5965L45.3299 15.5052ZM45.1232 24.3753L44.1345 24.2257L44.0486 24.7931L44.4952 25.1535L45.1232 24.3753ZM44.5871 22.101L45.0861 21.2344L44.5871 22.101ZM45.2165 24.4518L44.5769 25.2205L44.5769 25.2205L45.2165 24.4518ZM46.4466 25.7568L45.6305 26.3347L45.8378 26.6275L46.184 26.7217L46.4466 25.7568ZM47.0887 25.9546L46.7647 26.9006L46.9638 26.9688L47.1734 26.951L47.0887 25.9546ZM47.6302 25.9414L47.585 26.9404L49.0984 27.0088L48.5665 25.5903L47.6302 25.9414ZM47.653 21.7826L48.153 22.6486L47.653 21.7826ZM48.0864 21.6585L48.1413 22.657L49.6736 22.5727L48.9776 21.205L48.0864 21.6585ZM49.2965 18.4396L50.0652 19.0792V19.0792L49.2965 18.4396ZM52.4613 16.7799L53.1009 16.0112L53.1009 16.0112L52.4613 16.7799ZM51.405 20.1939L52.1737 20.8335V20.8334L51.405 20.1939ZM49.1088 21.9364L48.8271 20.9769L46.4542 21.6734L48.6443 22.822L49.1088 21.9364ZM50.658 23.1601L49.9404 23.8565L50.5976 24.5338L51.3118 23.9168L50.658 23.1601ZM51.7789 22.4147L52.1897 23.3265L52.6015 23.1409L52.7345 22.7093L51.7789 22.4147ZM53.5639 20.1349L53.535 19.1354L53.5639 20.1349ZM55.7211 24.1613L54.7299 24.2937L55.0487 26.681L56.5145 24.7699L55.7211 24.1613ZM59.6011 21.7631L60.1049 20.8993L59.6011 21.7631ZM59.5461 26.1309L58.6165 25.7623L57.7668 27.9052L59.9121 27.0616L59.5461 26.1309ZM63.8925 26.0817L64.7585 25.5817V25.5817L63.8925 26.0817ZM62.9835 28.5973L62.2343 27.935L61.7998 28.4264L62.0776 29.0207L62.9835 28.5973ZM63.0205 30.3109L62.0424 30.1025L61.8506 31.0029L62.7321 31.2684L63.0205 30.3109ZM63.5316 30.4834L63.1787 31.419L63.6968 31.6145L64.1374 31.279L63.5316 30.4834ZM64.1484 30.2393L64.1929 31.2383H64.1929L64.1484 30.2393ZM66.2833 34.0519L65.2942 34.1991L65.6328 36.4743L67.0656 34.6748L66.2833 34.0519ZM69.9871 31.8665L69.4917 32.7351V32.7352L69.9871 31.8665ZM69.8541 36.4491L68.9314 36.0637L68.0013 38.2901L70.2336 37.3743L69.8541 36.4491ZM74.3252 36.3231L73.4592 36.8231V36.8231L74.3252 36.3231ZM72.0334 40.1225L71.4163 39.3356L69.5992 40.7607L71.8817 41.1109L72.0334 40.1225ZM75.8329 42.2489L76.8325 42.22V42.22L75.8329 42.2489ZM72.1148 44.3611L71.959 43.3734L69.6883 43.7316L71.4984 45.1486L72.1148 44.3611ZM74.4294 48.1893L75.296 48.6883L74.4294 48.1893ZM69.8845 48.0505L70.2677 47.1269L68.0634 46.2122L68.9573 48.4251L69.8845 48.0505ZM69.978 52.5079L70.478 53.3739V53.3739L69.978 52.5079ZM68.1468 52.1304L68.6999 51.2973L67.1635 50.2771L67.1468 52.1214L68.1468 52.1304ZM68.0123 67.0071L69.0122 67.0199L69.0123 67.0161L68.0123 67.0071ZM68.4363 68.6369L69.3023 68.1369L69.3023 68.1369L68.4363 68.6369ZM69.6357 69.819L70.1263 68.9475L70.1246 68.9466L69.6357 69.819ZM72.8707 71.64L72.3802 72.5114L72.3803 72.5114L72.8707 71.64ZM77.4587 74.2218L76.9683 75.0933L76.9732 75.096L77.4587 74.2218ZM78.1926 75.508L79.1923 75.5346L78.1926 75.508ZM77.9663 76.2518L77.1194 75.7202L77.1194 75.7202L77.9663 76.2518ZM77.3904 76.7859L76.9228 75.902L76.9064 75.9106L76.8904 75.9199L77.3904 76.7859ZM73.4181 79.0793L73.9024 79.9542L73.9103 79.9499L73.9181 79.9454L73.4181 79.0793ZM71.8582 81.0986L70.888 80.8562L70.8853 80.8675L71.8582 81.0986ZM70.9449 83.0728L71.752 83.6632L71.752 83.6632L70.9449 83.0728ZM69.3307 84.5534L69.8307 85.4194L69.8405 85.4138L69.8501 85.408L69.3307 84.5534ZM69.2146 84.6205L69.6949 85.4975L69.7048 85.4921L69.7146 85.4865L69.2146 84.6205ZM67.1252 85.2781L67.233 86.2723H67.233L67.1252 85.2781ZM64.9589 85.0819L65.2452 84.1238L65.2376 84.1216L64.9589 85.0819ZM63.67 84.9861L63.8018 85.9774H63.8018L63.67 84.9861ZM62.4418 85.4165L62.9418 86.2825L62.9494 86.2781L62.957 86.2736L62.4418 85.4165ZM58.4695 87.7099L57.9695 86.8439L57.9534 86.8531L57.9378 86.863L58.4695 87.7099ZM57.719 87.9416L57.6821 86.9423L57.682 86.9423L57.719 87.9416ZM56.9617 87.7657L57.4384 86.8866L57.4384 86.8866L56.9617 87.7657ZM56.2148 86.487L57.2146 86.5036L57.2147 86.498L56.2148 86.487ZM56.2728 81.2228L57.2728 81.2338L57.2728 81.2337L56.2728 81.2228ZM56.3133 77.5107L55.3134 77.4978L55.3133 77.4998L56.3133 77.5107ZM55.8893 75.8809L55.0233 76.3809L55.8893 75.8809ZM54.6898 74.6988L55.1786 73.8264L55.1783 73.8262L54.6898 74.6988ZM40.9623 67.0144L41.4508 66.1418L39.5826 65.096L39.9797 67.1998L40.9623 67.0144ZM40.4713 69.5436L40.9713 70.4096L40.9713 70.4096L40.4713 69.5436ZM36.7354 67.3321L37.5174 66.7088L36.099 64.9293L35.7474 67.1776L36.7354 67.3321ZM34.606 71.0989L34.5615 70.0999H34.5615L34.606 71.0989ZM32.4576 67.1928L33.4477 67.0528L33.1185 64.7253L31.67 66.5766L32.4576 67.1928ZM28.6716 69.4774L28.1678 70.3412H28.1678L28.6716 69.4774ZM28.7262 65.0896L29.6554 65.4593L30.5259 63.2712L28.3469 64.1644L28.7262 65.0896ZM24.2227 65.2003L25.0888 64.7003H25.0888L24.2227 65.2003ZM26.4883 61.4194L27.1062 62.2056L28.9476 60.7584L26.6288 60.4293L26.4883 61.4194ZM22.568 59.2769L23.567 59.2325V59.2325L22.568 59.2769ZM26.6032 57.1109L26.7336 58.1023L29.1079 57.7901L27.2166 56.3211L26.6032 57.1109ZM26.0977 56.697L26.7516 55.9404L26.2333 55.4925L25.6284 55.814L26.0977 56.697ZM25.1571 57.1161L25.503 58.0543L25.1571 57.1161ZM24.2081 54.5426L23.8622 53.6043L23.8622 53.6043L24.2081 54.5426ZM24.3098 54.5059L24.6431 55.4487L25.6483 55.0933L25.2294 54.1129L24.3098 54.5059ZM24.2689 53.2802L23.4051 52.7764L23.4051 52.7764L24.2689 53.2802ZM24.37 53.1395L25.1236 53.7969L25.3094 53.584L25.3562 53.3053L24.37 53.1395ZM24.9802 51.0725L25.9071 51.4478L26.79 49.2678L24.6075 50.1445L24.9802 51.0725ZM20.5384 51.1616L19.6724 51.6616L20.5384 51.1616ZM21.3466 48.7662L22.1093 49.4129L22.5346 48.9114L22.2426 48.3222L21.3466 48.7662ZM21.0199 48.0056L20.0816 48.3515L20.0816 48.3515L21.0199 48.0056ZM20.7018 46.8944L21.682 46.6962L21.5723 46.1541L21.0549 45.9588L20.7018 46.8944ZM18.9122 45.2878L19.9117 45.2589L18.9122 45.2878ZM22.8136 43.1479L22.9553 44.1378L25.3084 43.8009L23.4221 42.3544L22.8136 43.1479ZM20.427 39.283L19.5632 38.7792L20.427 39.283ZM24.9438 39.3897L24.5641 40.3149L26.75 41.2118L25.8722 39.0182L24.9438 39.3897ZM24.866 34.9716L24.366 34.1056L24.866 34.9716ZM28.5146 37.0747L27.7395 37.7066L28.7628 38.9618L29.4267 37.4846L28.5146 37.0747ZM28.6684 36.7742L29.5366 37.2705L29.6215 37.1219L29.6522 36.9535L28.6684 36.7742ZM29.4607 34.3696L30.3325 34.8594L30.9723 33.7208L29.7061 33.4002L29.4607 34.3696ZM26.6799 32.4562L27.6795 32.4274V32.4274L26.6799 32.4562ZM30.801 30.2868L30.9264 31.2789L33.3224 30.976L31.4136 29.4964L30.801 30.2868ZM28.4499 26.4362L29.3165 26.9351L29.3165 26.9351L28.4499 26.4362ZM32.6627 26.4343L32.3058 27.3685L34.4102 28.1726L33.5949 26.0724L32.6627 26.4343ZM32.6338 22.1401L33.1338 23.0061H33.1338L32.6338 22.1401ZM36.5531 24.5871L35.7571 25.1925L37.261 27.1699L37.5465 24.7021L36.5531 24.5871ZM38.6918 20.49L38.7207 21.4896H38.7207L38.6918 20.49ZM40.8197 24.31L39.8308 24.458L40.1699 26.7252L41.601 24.9342L40.8197 24.31ZM61.9772 34.3412L61.1816 34.9471L62.6625 36.8915L62.9693 34.4667L61.9772 34.3412ZM61.9965 34.195L62.9871 34.332L63.1764 32.962L61.8161 33.2114L61.9965 34.195ZM61.8805 34.2157L61.7096 33.2304L60.0654 33.5156L61.0922 34.831L61.8805 34.2157ZM55.4854 49.6581L54.8371 50.4195L55.3743 50.8769L55.9854 50.5242L55.4854 49.6581ZM55.2792 49.4865L55.1314 48.4975L52.8916 48.8323L54.6479 50.2621L55.2792 49.4865ZM56.0098 49.3553L56.5098 50.2214L55.8029 48.377L56.0098 49.3553ZM45.0918 55.4555L46.0786 55.2936L45.7208 53.1136L44.319 54.821L45.0918 55.4555ZM45.1236 55.6405L45.6236 56.5065L46.2321 56.1552L46.1078 55.4636L45.1236 55.6405ZM44.7458 55.8587L44.002 55.1902L45.2458 56.7247L44.7458 55.8587ZM40.3276 53.4187L40.0516 52.4576L39.5852 52.5916L39.4018 53.0409L40.3276 53.4187ZM41.5889 52.9732L42.5128 53.3558L43.4382 51.1214L41.2051 52.0498L41.5889 52.9732ZM40.2857 53.5202L39.363 53.1347L38.4323 55.3623L40.6656 54.4453L40.2857 53.5202ZM41.5447 53.0813L41.8167 54.0436L42.2885 53.9103L42.472 53.4556L41.5447 53.0813ZM41.4147 41.3577L41.0339 42.2824L43.2082 43.1778L42.3449 40.9906L41.4147 41.3577ZM40.7289 41.0984L39.7492 40.8982L39.5733 41.7587L40.4039 42.0441L40.7289 41.0984ZM41.3212 41.1136L42.2588 40.7659L42.1927 40.5876L42.0658 40.446L41.3212 41.1136ZM40.939 40.6649L41.7159 40.0352L40.7418 38.8335L40.0459 40.215L40.939 40.6649ZM40.7487 40.9993L39.9032 40.4654L39.8031 40.6238L39.7672 40.8078L40.7487 40.9993ZM45.1556 38.5707L46.1369 38.7631L46.387 37.4873L45.0898 37.5729L45.1556 38.5707ZM45.0556 39.158L44.2768 39.7852L45.7147 41.5709L46.0452 39.3022L45.0556 39.158ZM44.6062 38.5726L44.6745 37.5749L43.1147 37.4681L43.6718 38.9289L44.6062 38.5726ZM44.6442 38.6736L43.7068 39.0218L43.773 39.2L43.9 39.3416L44.6442 38.6736ZM55.132 45.1541L54.5241 44.3601L52.6384 45.8036L54.9887 46.1438L55.132 45.1541ZM55.135 45.1517L55.8339 45.867L54.5272 44.3577L55.135 45.1517ZM55.1325 45.1542L54.9893 46.1439L55.4781 46.2146L55.8314 45.8694L55.1325 45.1542ZM46.3889 21.8344L47.1597 22.4715L47.1597 22.4715L46.3889 21.8344ZM42.9612 20.7857L42.3241 21.5565L42.9612 20.7857ZM41.2864 17.6166L42.0572 18.2537V18.2537L41.2864 17.6166ZM17.6549 47.4668L17.2361 48.3749H17.2361L17.6549 47.4668ZM16.5062 49.9575L16.0874 50.8656H16.0874L16.5062 49.9575ZM14.0839 47.3301L13.1759 46.9113H13.1759L14.0839 47.3301ZM19.1089 52.1962L19.4548 53.1345H19.4548L19.1089 52.1962ZM22.6795 52.3413L21.7413 52.6873H21.7413L22.6795 52.3413ZM16.4871 54.6246L15.5488 54.9706H15.5488L16.4871 54.6246ZM20.0578 54.7697L20.4037 55.708H20.4037L20.0578 54.7697ZM46.4856 13.0896C46.3263 13.1042 46.2578 13.0279 46.3032 13.0663C46.3523 13.1079 46.4493 13.2173 46.5637 13.4342C46.7902 13.8637 46.9913 14.5369 47.0655 15.346L49.0572 15.1634C48.9649 14.1576 48.7096 13.2157 48.3327 12.5012C48.1454 12.1461 47.9041 11.8012 47.5958 11.5402C47.2839 11.276 46.8393 11.0487 46.3029 11.0979L46.4856 13.0896ZM46.3258 15.4139C46.2516 14.6047 46.3268 13.9062 46.4715 13.4426C46.5445 13.2086 46.62 13.0833 46.6607 13.0335C46.6983 12.9875 46.6449 13.075 46.4856 13.0896L46.3029 11.0979C45.7665 11.1471 45.3707 11.4515 45.112 11.768C44.8564 12.0807 44.6818 12.4637 44.5622 12.847C44.3216 13.6181 44.2419 14.5907 44.3341 15.5965L46.3258 15.4139ZM46.9057 17.6703C47.065 17.6557 47.1334 17.732 47.0881 17.6936C47.039 17.652 46.942 17.5426 46.8276 17.3257C46.601 16.8962 46.4 16.223 46.3258 15.4139L44.3341 15.5965C44.4264 16.6023 44.6817 17.5442 45.0585 18.2587C45.2458 18.6138 45.4872 18.9587 45.7954 19.2197C46.1073 19.4839 46.5519 19.7112 47.0883 19.662L46.9057 17.6703ZM47.0655 15.346C47.1397 16.1552 47.0644 16.8537 46.9198 17.3173C46.8468 17.5513 46.7713 17.6766 46.7306 17.7264C46.693 17.7724 46.7464 17.6849 46.9057 17.6703L47.0883 19.662C47.6248 19.6128 48.0206 19.3084 48.2793 18.9919C48.5348 18.6792 48.7095 18.2962 48.8291 17.9129C49.0696 17.1418 49.1494 16.1692 49.0572 15.1634L47.0655 15.346ZM46.1119 24.525C46.2076 23.8931 46.2209 23.2675 46.0962 22.7146C45.9714 22.1609 45.6798 21.5762 45.0861 21.2344L44.0882 22.9676C44.033 22.9359 44.0942 22.9285 44.1452 23.1544C44.1963 23.3812 44.2083 23.7377 44.1345 24.2257L46.1119 24.525ZM45.8561 23.6831C45.8212 23.654 45.7862 23.6254 45.7512 23.5971L44.4952 25.1535C44.5225 25.1756 44.5497 25.1979 44.5769 25.2205L45.8561 23.6831ZM47.2627 25.1789C46.8998 24.6663 46.4193 24.1517 45.8561 23.6831L44.5769 25.2205C45.0217 25.5906 45.379 25.9796 45.6305 26.3347L47.2627 25.1789ZM47.4128 25.0085C47.1745 24.9269 46.9395 24.8546 46.7091 24.7919L46.184 26.7217C46.3709 26.7725 46.5648 26.8321 46.7647 26.9006L47.4128 25.0085ZM47.6754 24.9424C47.4574 24.9326 47.2326 24.9387 47.0041 24.9582L47.1734 26.951C47.3283 26.9378 47.4656 26.935 47.585 26.9404L47.6754 24.9424ZM47.153 20.9166C46.2611 21.4315 46.0532 22.4642 46.0551 23.2879C46.0573 24.1769 46.2925 25.2222 46.6938 26.2925L48.5665 25.5903C48.2157 24.6547 48.0565 23.8549 48.0551 23.2831C48.0536 22.646 48.2332 22.6023 48.153 22.6486L47.153 20.9166ZM48.0315 20.6601C47.7333 20.6764 47.4324 20.7552 47.1529 20.9166L48.153 22.6486C48.1444 22.6536 48.1368 22.6564 48.1323 22.6577C48.1282 22.6588 48.1304 22.6576 48.1413 22.657L48.0315 20.6601ZM48.5277 17.8C47.9501 18.4943 47.5046 19.2399 47.2461 19.935C47.0132 20.5611 46.8361 21.4065 47.1951 22.1121L48.9776 21.205C49.0199 21.2882 48.9288 21.148 49.1207 20.6321C49.2868 20.1853 49.6047 19.6327 50.0652 19.0792L48.5277 17.8ZM53.1009 16.0112C52.6868 15.6667 52.1917 15.602 51.785 15.6429C51.3831 15.6833 50.9888 15.8307 50.6332 16.0171C49.9178 16.3923 49.1737 17.0236 48.5277 17.8L50.0652 19.0792C50.5849 18.4546 51.132 18.0139 51.5621 17.7883C51.7792 17.6745 51.9212 17.6393 51.9852 17.6329C52.0443 17.6269 51.9447 17.651 51.8217 17.5487L53.1009 16.0112ZM52.1737 20.8334C52.8197 20.057 53.3051 19.2105 53.5439 18.4388C53.6626 18.0552 53.7357 17.6407 53.7024 17.2382C53.6686 16.8308 53.515 16.3557 53.1009 16.0112L51.8217 17.5487C51.6988 17.4464 51.7043 17.344 51.7092 17.4033C51.7145 17.4674 51.7058 17.6133 51.6333 17.8476C51.4897 18.3115 51.1559 18.9297 50.6362 19.5543L52.1737 20.8334ZM49.3904 22.8959C50.3289 22.6204 51.3501 21.8233 52.1737 20.8335L50.6362 19.5543C49.9423 20.3884 49.233 20.8577 48.8271 20.9769L49.3904 22.8959ZM51.3756 22.4637C50.7948 21.8652 50.181 21.3695 49.5732 21.0508L48.6443 22.822C49.0054 23.0113 49.4524 23.3538 49.9404 23.8565L51.3756 22.4637ZM51.3681 21.503C50.9087 21.71 50.4432 22.0242 50.0042 22.4034L51.3118 23.9168C51.6439 23.6299 51.9483 23.4353 52.1897 23.3265L51.3681 21.503ZM53.535 19.1354C52.7504 19.158 52.162 19.6495 51.7713 20.1571C51.3692 20.6795 51.0558 21.3657 50.8233 22.1202L52.7345 22.7093C52.9257 22.0892 53.1494 21.6457 53.3562 21.377C53.5744 21.0935 53.6666 21.1324 53.5928 21.1345L53.535 19.1354ZM56.7123 24.0289C56.5452 22.7784 56.2266 21.6409 55.7769 20.788C55.3732 20.0223 54.6487 19.1032 53.535 19.1354L53.5928 21.1345C53.4599 21.1384 53.6567 21.0549 54.0077 21.7207C54.3128 22.2993 54.5823 23.1891 54.7299 24.2937L56.7123 24.0289ZM60.1049 20.8993C59.154 20.3446 58.0849 20.7566 57.3408 21.2246C56.5258 21.7373 55.6892 22.5597 54.9276 23.5527L56.5145 24.7699C57.1871 23.8931 57.8563 23.2631 58.4057 22.9175C59.0261 22.5273 59.1799 22.675 59.0972 22.6268L60.1049 20.8993ZM60.4757 26.4995C60.9181 25.3838 61.1827 24.2925 61.2011 23.3655C61.2181 22.5096 61.0214 21.4338 60.1049 20.8993L59.0972 22.6268C59.0238 22.584 59.215 22.6444 59.2015 23.3258C59.1894 23.9359 59.005 24.7826 58.6165 25.7623L60.4757 26.4995ZM64.7585 25.5817C64.2284 24.6635 63.1514 24.4689 62.3024 24.4847C61.3795 24.502 60.2919 24.7631 59.1802 25.2003L59.9121 27.0616C60.8882 26.6777 61.7322 26.4958 62.3397 26.4844C63.0212 26.4717 63.0734 26.663 63.0264 26.5817L64.7585 25.5817ZM63.7327 29.2596C64.2171 28.7117 64.6133 28.1266 64.8319 27.5404C65.0478 26.9615 65.1375 26.2381 64.7585 25.5817L63.0264 26.5817C62.9905 26.5195 63.0635 26.5587 62.958 26.8415C62.8553 27.1169 62.6254 27.4926 62.2343 27.935L63.7327 29.2596ZM63.9985 30.5193C64.1653 29.7368 64.2081 28.8557 63.8895 28.1739L62.0776 29.0207C62.1165 29.1041 62.1806 29.454 62.0424 30.1025L63.9985 30.5193ZM63.8846 29.5478C63.7 29.4781 63.5078 29.4133 63.3089 29.3534L62.7321 31.2684C62.8903 31.3161 63.0394 31.3665 63.1787 31.419L63.8846 29.5478ZM64.1039 29.2403C63.6456 29.2607 63.2477 29.4427 62.9258 29.6878L64.1374 31.279C64.1741 31.2511 64.197 31.2405 64.2048 31.2374C64.2114 31.2348 64.2063 31.2377 64.1929 31.2383L64.1039 29.2403ZM67.2724 33.9047C67.0942 32.7069 66.7736 31.618 66.3256 30.803C65.9202 30.0657 65.1976 29.1916 64.1039 29.2403L64.1929 31.2383C64.0568 31.2443 64.234 31.1501 64.5729 31.7665C64.8692 32.3054 65.1372 33.1441 65.2942 34.1991L67.2724 33.9047ZM70.4825 30.9978C69.5676 30.476 68.5498 30.8329 67.8224 31.2702C67.0383 31.7416 66.2373 32.5043 65.501 33.429L67.0656 34.6748C67.7127 33.8621 68.3418 33.2916 68.8529 32.9843C69.4206 32.643 69.563 32.7758 69.4917 32.7351L70.4825 30.9978ZM70.7768 36.8346C71.263 35.6707 71.5591 34.5288 71.594 33.5612C71.626 32.6738 71.4403 31.5441 70.4825 30.9978L69.4917 32.7352C69.4164 32.6922 69.6217 32.7586 69.5953 33.4891C69.5718 34.1394 69.3602 35.0371 68.9314 36.0637L70.7768 36.8346ZM75.1912 35.8231C74.6482 34.8826 73.5369 34.7051 72.6721 34.7364C71.7272 34.7705 70.6125 35.0571 69.4745 35.5239L70.2336 37.3743C71.2389 36.9619 72.1129 36.7579 72.7443 36.7351C73.4558 36.7093 73.5084 36.9084 73.4592 36.8231L75.1912 35.8231ZM72.6505 40.9094C73.6101 40.1569 74.4011 39.3343 74.892 38.5333C75.3422 37.7988 75.7285 36.7537 75.1912 35.8231L73.4592 36.8231C73.4119 36.7413 73.5542 36.8888 73.1868 37.4882C72.8602 38.021 72.2603 38.6737 71.4163 39.3356L72.6505 40.9094ZM76.8325 42.22C76.8026 41.1855 75.9753 40.4918 75.236 40.0827C74.4306 39.6371 73.3643 39.315 72.1851 39.1341L71.8817 41.1109C72.9131 41.2692 73.7329 41.5368 74.2678 41.8327C74.8687 42.1652 74.8358 42.365 74.8333 42.2777L76.8325 42.22ZM72.2706 45.3489C73.4383 45.1647 74.4986 44.8439 75.294 44.4C76.0164 43.9968 76.8633 43.2875 76.8325 42.22L74.8333 42.2777C74.8296 42.1476 74.9143 42.3215 74.3193 42.6535C73.7972 42.9449 72.985 43.2115 71.959 43.3734L72.2706 45.3489ZM75.296 48.6883C75.8334 47.755 75.442 46.704 74.9895 45.9665C74.4948 45.16 73.6983 44.3308 72.7312 43.5737L71.4984 45.1486C72.3481 45.8137 72.9539 46.473 73.2848 47.0123C73.6579 47.6206 73.5155 47.7726 73.5628 47.6904L75.296 48.6883ZM69.5012 48.9742C70.6578 49.4541 71.7908 49.7459 72.7499 49.7814C73.6254 49.8137 74.7506 49.6356 75.296 48.6883L73.5628 47.6904C73.6115 47.6057 73.5525 47.8097 72.8238 47.7827C72.1786 47.7589 71.2875 47.55 70.2677 47.1269L69.5012 48.9742ZM70.478 53.3739C71.4116 52.8349 71.5979 51.7317 71.5738 50.8677C71.5474 49.9247 71.2706 48.812 70.8117 47.676L68.9573 48.4251C69.3611 49.4247 69.5569 50.2949 69.5745 50.9237C69.5944 51.6315 69.3962 51.6891 69.478 51.6419L70.478 53.3739ZM67.5936 52.9635C68.3643 53.4752 69.4854 53.947 70.478 53.3739L69.478 51.6419C69.5229 51.6159 69.516 51.6511 69.3748 51.6206C69.226 51.5884 68.9984 51.4955 68.6999 51.2973L67.5936 52.9635ZM69.0123 67.0161L69.1467 52.1395L67.1468 52.1214L67.0123 66.998L69.0123 67.0161ZM69.3023 68.1369C69.1077 67.7999 69.0071 67.4149 69.0122 67.0199L67.0124 66.9942C67.0027 67.7466 67.1946 68.4862 67.5703 69.1369L69.3023 68.1369ZM70.1246 68.9466C69.7799 68.7535 69.4969 68.4739 69.3023 68.1369L67.5703 69.1369C67.9459 69.7875 68.4905 70.3235 69.1469 70.6914L70.1246 68.9466ZM73.3613 70.7685L70.1263 68.9475L69.1452 70.6904L72.3802 72.5114L73.3613 70.7685ZM77.9491 73.3503L73.3611 70.7685L72.3803 72.5114L76.9683 75.0933L77.9491 73.3503ZM78.8746 74.2663C78.6542 73.8801 78.3322 73.5631 77.9442 73.3476L76.9732 75.096C77.0435 75.1351 77.0996 75.1911 77.1375 75.2575L78.8746 74.2663ZM79.1923 75.5346C79.2041 75.091 79.0949 74.6525 78.8746 74.2663L77.1375 75.2575C77.1754 75.3239 77.1951 75.4008 77.193 75.4814L79.1923 75.5346ZM78.8133 76.7835C79.0484 76.409 79.1804 75.978 79.1923 75.5346L77.193 75.4814C77.1908 75.5622 77.1666 75.645 77.1194 75.7202L78.8133 76.7835ZM77.858 77.6698C78.2482 77.4634 78.5783 77.1578 78.8133 76.7835L77.1194 75.7202C77.0721 75.7955 77.0044 75.8588 76.9228 75.902L77.858 77.6698ZM73.9181 79.9454L77.8904 77.6519L76.8904 75.9199L72.9181 78.2133L73.9181 79.9454ZM73.217 80.5419C73.402 80.3024 73.6354 80.102 73.9024 79.9542L72.9337 78.2045C72.4291 78.4838 71.9865 78.8633 71.6342 79.3193L73.217 80.5419ZM72.8284 81.341C72.9001 81.0538 73.0321 80.7814 73.217 80.5419L71.6342 79.3193C71.282 79.7753 71.0274 80.2985 70.888 80.8563L72.8284 81.341ZM71.752 83.6632C72.2642 82.9631 72.6317 82.1697 72.8312 81.3297L70.8853 80.8675C70.7479 81.4459 70.4942 81.9953 70.1379 82.4823L71.752 83.6632ZM69.8501 85.408C70.5929 84.9565 71.2398 84.3633 71.752 83.6632L70.1379 82.4823C69.7816 82.9694 69.3305 83.3833 68.8113 83.6989L69.8501 85.408ZM69.7146 85.4865L69.8307 85.4194L68.8307 83.6874L68.7145 83.7544L69.7146 85.4865ZM67.233 86.2723C68.0954 86.1788 68.9325 85.9151 69.6949 85.4975L68.7342 83.7434C68.2014 84.0352 67.6173 84.2189 67.0174 84.2839L67.233 86.2723ZM64.6725 86.0401C65.4998 86.2873 66.3706 86.3658 67.233 86.2723L67.0174 84.2839C66.4175 84.349 65.8148 84.2941 65.2452 84.1238L64.6725 86.0401ZM63.8018 85.9774C64.0991 85.9379 64.3984 85.9605 64.6801 86.0423L65.2376 84.1216C64.6869 83.9618 64.108 83.9191 63.5383 83.9948L63.8018 85.9774ZM62.957 86.2736C63.2164 86.1177 63.5043 86.0169 63.8018 85.9774L63.5383 83.9948C62.9686 84.0705 62.4197 84.263 61.9267 84.5594L62.957 86.2736ZM58.9695 88.5759L62.9418 86.2825L61.9418 84.5504L57.9695 86.8439L58.9695 88.5759ZM57.7559 88.941C58.1976 88.9246 58.6273 88.7915 59.0012 88.5568L57.9378 86.863C57.8596 86.912 57.7709 86.939 57.6821 86.9423L57.7559 88.941ZM56.4849 88.6447C56.8748 88.8562 57.3141 88.9573 57.756 88.941L57.682 86.9423C57.5934 86.9456 57.5095 86.9252 57.4384 86.8866L56.4849 88.6447ZM55.5454 87.7354C55.7696 88.1193 56.0948 88.4331 56.4849 88.6447L57.4384 86.8866C57.3676 86.8482 57.3109 86.7927 57.2723 86.7267L55.5454 87.7354ZM55.2149 86.4704C55.2075 86.9142 55.3211 87.3515 55.5454 87.7354L57.2723 86.7267C57.2338 86.6607 57.2133 86.5841 57.2146 86.5036L55.2149 86.4704ZM55.2729 81.2117L55.2148 86.476L57.2147 86.498L57.2728 81.2338L55.2729 81.2117ZM55.3133 77.4998L55.2729 81.2119L57.2728 81.2337L57.3132 77.5216L55.3133 77.4998ZM55.0233 76.3809C55.2178 76.7179 55.3184 77.1028 55.3134 77.4978L57.3132 77.5236C57.3229 76.7711 57.131 76.0315 56.7553 75.3809L55.0233 76.3809ZM54.201 75.5712C54.5456 75.7643 54.8287 76.0439 55.0233 76.3809L56.7553 75.3809C56.3797 74.7303 55.8351 74.1942 55.1786 73.8264L54.201 75.5712ZM40.4739 67.887L54.2014 75.5714L55.1783 73.8262L41.4508 66.1418L40.4739 67.887ZM40.9713 70.4096C41.6099 70.0409 41.8964 69.3944 42.0053 68.801C42.1151 68.2025 42.0755 67.5208 41.945 66.8289L39.9797 67.1998C40.084 67.7525 40.088 68.1685 40.0382 68.44C39.9874 68.7166 39.9109 68.7124 39.9713 68.6776L40.9713 70.4096ZM35.9534 67.9554C36.6971 68.8885 37.5078 69.6572 38.2978 70.1327C39.0247 70.5703 40.0538 70.9393 40.9713 70.4096L39.9713 68.6776C40.0526 68.6306 39.9121 68.7701 39.3292 68.4192C38.8095 68.1063 38.1703 67.5279 37.5174 66.7088L35.9534 67.9554ZM34.6505 72.0979C35.6675 72.0526 36.3567 71.2477 36.7702 70.5094C37.2171 69.7112 37.5405 68.6562 37.7234 67.4866L35.7474 67.1776C35.5879 68.1977 35.3203 69.0051 35.0251 69.5323C34.6964 70.1194 34.4922 70.103 34.5615 70.0999L34.6505 72.0979ZM31.4674 67.3329C31.6404 68.5559 31.9603 69.6682 32.41 70.5006C32.8154 71.2509 33.5426 72.1472 34.6505 72.0979L34.5615 70.0999C34.6986 70.0938 34.5144 70.188 34.1696 69.5499C33.8692 68.9939 33.6003 68.1316 33.4477 67.0528L31.4674 67.3329ZM28.1678 70.3412C29.1004 70.8852 30.1458 70.4993 30.8796 70.0482C31.6782 69.5572 32.4966 68.7658 33.2451 67.809L31.67 66.5766C31.0103 67.4197 30.3615 68.019 29.8321 68.3445C29.2378 68.7098 29.0944 68.5664 29.1755 68.6136L28.1678 70.3412ZM27.7971 64.72C27.351 65.8412 27.0855 66.9375 27.0677 67.8685C27.0512 68.7285 27.2503 69.806 28.1678 70.3412L29.1755 68.6136C29.2464 68.655 29.0542 68.591 29.0673 67.9068C29.079 67.2936 29.2641 66.4429 29.6554 65.4593L27.7971 64.72ZM23.3567 65.7003C23.9009 66.6429 25.0125 66.8291 25.8871 66.8008C26.8391 66.7699 27.9612 66.484 29.1055 66.0149L28.3469 64.1644C27.3377 64.578 26.4585 64.7812 25.8223 64.8018C25.1088 64.8249 25.0454 64.6251 25.0888 64.7003L23.3567 65.7003ZM25.8704 60.6331C24.9189 61.3809 24.133 62.1978 23.6461 62.9957C23.197 63.7314 22.8202 64.771 23.3567 65.7003L25.0888 64.7003C25.1319 64.775 24.9934 64.6272 25.3532 64.0376C25.6751 63.5102 26.2687 62.8638 27.1062 62.2056L25.8704 60.6331ZM21.5689 59.3214C21.6153 60.3619 22.4539 61.0579 23.2159 61.4705C24.043 61.9183 25.1363 62.2375 26.3478 62.4094L26.6288 60.4293C25.5677 60.2787 24.7225 60.0119 24.1683 59.7118C23.549 59.3765 23.5638 59.1625 23.567 59.2325L21.5689 59.3214ZM26.4728 56.1194C25.2153 56.2848 24.0705 56.6035 23.214 57.0555C22.4457 57.4609 21.5188 58.1943 21.5689 59.3214L23.567 59.2325C23.5731 59.3708 23.4793 59.1769 24.1473 58.8244C24.7272 58.5184 25.6221 58.2485 26.7336 58.1023L26.4728 56.1194ZM25.4438 57.4536C25.6179 57.6041 25.8002 57.7533 25.9898 57.9006L27.2166 56.3211C27.0535 56.1944 26.8984 56.0673 26.7516 55.9404L25.4438 57.4536ZM25.503 58.0543C25.8807 57.9151 26.2378 57.755 26.567 57.5801L25.6284 55.814C25.3812 55.9453 25.1067 56.0689 24.8111 56.1778L25.503 58.0543ZM20.6481 57.3169C20.8345 57.8223 21.2309 58.1259 21.6036 58.2939C21.9718 58.4598 22.387 58.5294 22.7881 58.5457C23.5953 58.5784 24.5554 58.4038 25.503 58.0543L24.8111 56.1778C24.0487 56.4589 23.3545 56.567 22.8693 56.5473C22.6243 56.5373 22.4838 56.4968 22.4252 56.4704C22.371 56.446 22.4693 56.475 22.5246 56.625L20.6481 57.3169ZM23.8622 53.6043C22.9145 53.9538 22.0709 54.4442 21.4782 54.9931C21.1837 55.2659 20.913 55.5883 20.7407 55.9536C20.5662 56.3233 20.4618 56.8115 20.6481 57.3169L22.5246 56.625C22.58 56.7751 22.524 56.861 22.5494 56.8072C22.5768 56.7491 22.6574 56.627 22.8373 56.4604C23.1935 56.1304 23.7917 55.7619 24.5541 55.4809L23.8622 53.6043ZM23.9765 53.5631C23.9384 53.5765 23.9003 53.5903 23.8622 53.6043L24.5541 55.4809C24.5839 55.4699 24.6136 55.4591 24.6431 55.4487L23.9765 53.5631ZM23.4051 52.7764C22.9873 53.4926 23.1279 54.2849 23.3902 54.8988L25.2294 54.1129C25.1611 53.9531 25.1432 53.8488 25.141 53.795C25.1391 53.7489 25.1486 53.7568 25.1327 53.7841L23.4051 52.7764ZM23.6165 52.4821C23.5376 52.5726 23.4667 52.6707 23.4051 52.7764L25.1327 53.7841C25.1295 53.7895 25.1262 53.7939 25.1236 53.7969L23.6165 52.4821ZM24.0534 50.6971C23.7318 51.4911 23.503 52.2651 23.3839 52.9737L25.3562 53.3053C25.4467 52.7672 25.6289 52.1348 25.9071 51.4478L24.0534 50.6971ZM19.6724 51.6616C20.2104 52.5936 21.3122 52.7788 22.1725 52.7552C23.1123 52.7295 24.2212 52.455 25.353 52.0004L24.6075 50.1445C23.6115 50.5446 22.7443 50.7388 22.1176 50.756C21.4114 50.7754 21.356 50.5778 21.4044 50.6616L19.6724 51.6616ZM20.5839 48.1195C20.1373 48.6462 19.7721 49.2093 19.5745 49.7754C19.3783 50.3375 19.3084 51.0312 19.6724 51.6616L21.4044 50.6616C21.4397 50.7227 21.3731 50.6914 21.4627 50.4345C21.551 50.1817 21.7542 49.8318 22.1093 49.4129L20.5839 48.1195ZM20.0816 48.3515C20.1925 48.6522 20.3165 48.9397 20.4506 49.2102L22.2426 48.3222C22.1407 48.1166 22.0448 47.8947 21.9581 47.6596L20.0816 48.3515ZM19.7216 47.0927C19.8042 47.5007 19.9243 47.9249 20.0816 48.3515L21.9581 47.6596C21.8349 47.3255 21.7434 46.9999 21.682 46.6962L19.7216 47.0927ZM17.9126 45.3167C17.9325 46.005 18.3154 46.5435 18.7428 46.9205C19.173 47.2999 19.7358 47.5988 20.3487 47.83L21.0549 45.9588C20.5757 45.778 20.2527 45.5854 20.0656 45.4204C19.8757 45.253 19.9099 45.1943 19.9117 45.2589L17.9126 45.3167ZM22.6718 42.158C21.4547 42.3323 20.3485 42.652 19.519 43.0994C18.7708 43.503 17.8809 44.2215 17.9126 45.3167L19.9117 45.2589C19.9156 45.3908 19.8314 45.2033 20.4684 44.8597C21.024 44.56 21.8824 44.2915 22.9553 44.1378L22.6718 42.158ZM19.5632 38.7792C19.0096 39.7283 19.4177 40.7937 19.8847 41.5367C20.3953 42.3491 21.215 43.1822 22.2051 43.9415L23.4221 42.3544C22.5476 41.6838 21.921 41.0182 21.578 40.4724C21.1914 39.8574 21.3384 39.7052 21.2908 39.7869L19.5632 38.7792ZM25.3234 38.4646C24.174 37.993 23.0486 37.7091 22.0941 37.6805C21.2165 37.6542 20.1087 37.844 19.5632 38.7792L21.2908 39.7869C21.2491 39.8583 21.3196 39.6582 22.0343 39.6796C22.6721 39.6987 23.5532 39.9 24.5641 40.3149L25.3234 38.4646ZM24.366 34.1056C23.4379 34.6414 23.2486 35.7354 23.2698 36.5941C23.293 37.53 23.5642 38.6338 24.0154 39.7613L25.8722 39.0182C25.4755 38.0268 25.2846 37.1659 25.2692 36.5446C25.2519 35.8462 25.4477 35.7905 25.366 35.8376L24.366 34.1056ZM29.2897 36.4428C28.5583 35.5457 27.764 34.8072 26.9891 34.3525C26.2726 33.9321 25.2653 33.5864 24.366 34.1056L25.366 35.8376C25.2855 35.8841 25.4168 35.7488 25.9769 36.0775C26.4787 36.3719 27.0993 36.9213 27.7395 37.7066L29.2897 36.4428ZM27.8002 36.278C27.7274 36.4053 27.6611 36.5344 27.6025 36.6648L29.4267 37.4846C29.4562 37.4189 29.4926 37.3474 29.5366 37.2705L27.8002 36.278ZM28.5889 33.8798C28.1796 34.6083 27.8747 35.5519 27.6846 36.5949L29.6522 36.9535C29.8166 36.0512 30.0645 35.3364 30.3325 34.8594L28.5889 33.8798ZM25.6803 32.4851C25.7057 33.3614 26.3143 33.9863 26.8983 34.3803C27.5128 34.7948 28.3223 35.113 29.2153 35.339L29.7061 33.4002C28.9422 33.2068 28.3727 32.9624 28.0168 32.7223C27.6302 32.4615 27.677 32.3395 27.6795 32.4274L25.6803 32.4851ZM30.6756 29.2947C29.3998 29.4559 28.2386 29.7736 27.3679 30.225C26.9336 30.4501 26.5267 30.7316 26.2198 31.0837C25.9072 31.4423 25.664 31.9185 25.6803 32.4851L27.6795 32.4274C27.6815 32.4971 27.6457 32.4916 27.7275 32.3978C27.815 32.2974 27.9894 32.1556 28.2884 32.0006C28.8844 31.6916 29.798 31.4215 30.9264 31.2789L30.6756 29.2947ZM27.5832 25.9372C27.0425 26.8764 27.4403 27.9332 27.8992 28.6742C28.4011 29.4846 29.2083 30.3175 30.1883 31.0771L31.4136 29.4964C30.5515 28.8281 29.9361 28.1646 29.5996 27.6211C29.22 27.0083 29.3634 26.8537 29.3165 26.9351L27.5832 25.9372ZM33.0197 25.5002C31.935 25.0857 30.8765 24.8426 29.9773 24.8367C29.145 24.8313 28.1011 25.0377 27.5832 25.9372L29.3165 26.9351C29.2703 27.0154 29.3162 26.8324 29.9642 26.8367C30.5451 26.8405 31.3573 27.006 32.3058 27.3685L33.0197 25.5002ZM32.1338 21.274C31.2229 21.8 31.0245 22.8647 31.0365 23.7066C31.0495 24.6201 31.3034 25.6959 31.7305 26.7962L33.5949 26.0724C33.2204 25.1075 33.0448 24.2758 33.0363 23.6782C33.0268 23.0091 33.2148 22.9593 33.1338 23.0061L32.1338 21.274ZM37.3491 23.9818C36.5806 22.9713 35.7355 22.1372 34.9134 21.6165C34.1646 21.1422 33.0892 20.7224 32.1338 21.274L33.1338 23.0061C33.0513 23.0537 33.2122 22.9064 33.8432 23.306C34.4009 23.6593 35.079 24.3007 35.7571 25.1925L37.3491 23.9818ZM38.6629 19.4904C37.583 19.5216 36.8732 20.4182 36.4652 21.2046C36.0167 22.0692 35.7054 23.2127 35.5597 24.4722L37.5465 24.7021C37.6736 23.6035 37.9359 22.7128 38.2405 22.1256C38.5858 21.46 38.8089 21.487 38.7207 21.4896L38.6629 19.4904ZM41.8087 24.162C41.6299 22.9669 41.3097 21.881 40.8638 21.0667C40.4604 20.3299 39.7459 19.4591 38.6629 19.4904L38.7207 21.4896C38.5896 21.4934 38.771 21.4089 39.1095 22.0272C39.4056 22.5679 39.6733 23.4058 39.8308 24.458L41.8087 24.162ZM45.0861 21.2344C44.1731 20.7087 43.1411 21.0705 42.4076 21.5054C41.6096 21.9785 40.7892 22.7463 40.0385 23.6858L41.601 24.9342C42.2561 24.1144 42.902 23.5374 43.4276 23.2257C44.0177 22.8758 44.1666 23.0128 44.0882 22.9676L45.0861 21.2344ZM62.9693 34.4667C62.975 34.4215 62.9809 34.3766 62.9871 34.332L61.0059 34.0581C60.9987 34.1103 60.9918 34.1628 60.9851 34.2157L62.9693 34.4667ZM61.0922 34.831C61.122 34.8693 61.1518 34.9079 61.1816 34.9471L62.7727 33.7353C62.7382 33.6899 62.7035 33.645 62.6688 33.6005L61.0922 34.831ZM61.8161 33.2114C61.7809 33.2179 61.7454 33.2242 61.7096 33.2304L62.0513 35.201C62.0934 35.1938 62.1352 35.1863 62.1769 35.1786L61.8161 33.2114ZM56.1336 48.8967C56.0606 48.8345 55.9862 48.7726 55.9106 48.711L54.6479 50.2621C54.7124 50.3145 54.7755 50.3671 54.8371 50.4195L56.1336 48.8967ZM55.5098 48.4893L54.9854 48.7921L55.9854 50.5242L56.5098 50.2214L55.5098 48.4893ZM55.4271 50.4756C55.6981 50.435 55.9618 50.3876 56.2168 50.3337L55.8029 48.377C55.5887 48.4223 55.3645 48.4627 55.1314 48.4975L55.4271 50.4756ZM44.105 55.6175C44.116 55.6846 44.1275 55.7512 44.1394 55.8174L46.1078 55.4636C46.0978 55.4076 46.088 55.3509 46.0786 55.2936L44.105 55.6175ZM45.4895 56.5271C45.6154 56.387 45.7406 56.2412 45.8647 56.0901L44.319 54.821C44.2132 54.9498 44.1074 55.073 44.002 55.1902L45.4895 56.5271ZM44.6236 54.7745L44.2458 54.9926L45.2458 56.7247L45.6236 56.5065L44.6236 54.7745ZM40.6037 54.3799C41.0463 54.2527 41.5056 54.0908 41.9728 53.8966L41.2051 52.0498C40.8022 52.2173 40.4149 52.3532 40.0516 52.4576L40.6037 54.3799ZM41.2084 53.9057C41.2236 53.8693 41.2387 53.8329 41.2535 53.7966L39.4018 53.0409C39.3891 53.072 39.3761 53.1033 39.363 53.1347L41.2084 53.9057ZM41.2727 52.119C40.8314 52.2437 40.3728 52.4034 39.9059 52.5952L40.6656 54.4453C41.0688 54.2797 41.4553 54.1458 41.8167 54.0436L41.2727 52.119ZM40.665 52.5905C40.6489 52.6294 40.6331 52.6682 40.6174 52.707L42.472 53.4556C42.4854 53.4225 42.499 53.3892 42.5128 53.3558L40.665 52.5905ZM41.7955 40.4331C41.5452 40.33 41.2976 40.2365 41.054 40.1527L40.4039 42.0441C40.6085 42.1145 40.819 42.1939 41.0339 42.2824L41.7955 40.4331ZM40.3836 41.4613C40.4161 41.5488 40.4497 41.6367 40.4845 41.7249L42.3449 40.9906C42.3151 40.9151 42.2864 40.8402 42.2588 40.7659L40.3836 41.4613ZM40.1622 41.2946C40.2991 41.4635 40.4374 41.6259 40.5767 41.7812L42.0658 40.446C41.9495 40.3164 41.8327 40.1793 41.7159 40.0352L40.1622 41.2946ZM41.5943 41.5332C41.6814 41.3952 41.7612 41.2556 41.8321 41.1147L40.0459 40.215C40.0069 40.2926 39.9595 40.3762 39.9032 40.4654L41.5943 41.5332ZM41.7087 41.2987C41.716 41.263 41.7232 41.227 41.7302 41.1909L39.7672 40.8078C39.7613 40.8381 39.7553 40.8682 39.7492 40.8982L41.7087 41.2987ZM44.1743 38.3783C44.1338 38.5849 44.0976 38.797 44.0661 39.0139L46.0452 39.3022C46.0722 39.1166 46.1029 38.9367 46.1369 38.7631L44.1743 38.3783ZM44.5378 39.5702C44.7594 39.5854 44.9885 39.5839 45.2215 39.5685L45.0898 37.5729C44.9329 37.5832 44.7945 37.5831 44.6745 37.5749L44.5378 39.5702ZM45.5816 38.3255C45.5682 38.2892 45.5545 38.2528 45.5405 38.2163L43.6718 38.9289C43.6836 38.9599 43.6953 38.9909 43.7068 39.0218L45.5816 38.3255ZM45.8345 38.5308C45.6873 38.3481 45.5384 38.1728 45.3884 38.0057L43.9 39.3416C44.0252 39.4811 44.1511 39.6292 44.2768 39.7852L45.8345 38.5308ZM55.7398 45.9482L55.7429 45.9458L54.5272 44.3577L54.5241 44.3601L55.7398 45.9482ZM55.2758 44.1645L55.2752 44.1644L54.9887 46.1438L54.9893 46.1439L55.2758 44.1645ZM54.4362 44.4365L54.4337 44.4389L55.8314 45.8694L55.8339 45.867L54.4362 44.4365ZM47.1597 22.4715C47.5033 22.0559 47.5665 21.56 47.5243 21.1527C47.4825 20.7502 47.3336 20.3556 47.1456 19.9997C46.7672 19.2838 46.1319 18.5397 45.3512 17.8945L44.077 19.436C44.7054 19.9554 45.1495 20.5032 45.3773 20.9342C45.4923 21.1519 45.5282 21.2945 45.5349 21.3592C45.5412 21.4191 45.5166 21.3201 45.6182 21.1973L47.1597 22.4715ZM42.3241 21.5565C43.1047 22.2018 43.9551 22.6858 44.7294 22.9227C45.1143 23.0404 45.5299 23.1124 45.933 23.0777C46.341 23.0426 46.8161 22.8871 47.1597 22.4715L45.6182 21.1973C45.7197 21.0744 45.8215 21.0799 45.7616 21.085C45.6968 21.0906 45.5499 21.0822 45.3145 21.0102C44.8483 20.8675 44.2268 20.5344 43.5984 20.015L42.3241 21.5565ZM40.5157 16.9794C40.1721 17.3951 40.1088 17.891 40.1511 18.2983C40.1929 18.7007 40.3418 19.0954 40.5298 19.4512C40.9082 20.1672 41.5435 20.9112 42.3241 21.5565L43.5984 20.015C42.97 19.4955 42.5259 18.9478 42.2981 18.5167C42.183 18.2991 42.1471 18.1564 42.1404 18.0917C42.1342 18.0319 42.1587 18.1309 42.0572 18.2537L40.5157 16.9794ZM45.3512 17.8945C44.5706 17.2492 43.7203 16.7652 42.9459 16.5283C42.5611 16.4105 42.1455 16.3386 41.7423 16.3733C41.3344 16.4084 40.8592 16.5638 40.5157 16.9794L42.0572 18.2537C41.9556 18.3765 41.8538 18.3711 41.9138 18.3659C41.9786 18.3603 42.1254 18.3688 42.3608 18.4408C42.8271 18.5834 43.4486 18.9165 44.077 19.436L45.3512 17.8945ZM20.9853 50.5131C21.2109 50.0239 21.1452 49.529 21.0004 49.1467C20.8574 48.769 20.613 48.4262 20.3409 48.1311C19.7933 47.5371 18.9909 46.9818 18.0737 46.5588L17.2361 48.3749C17.9739 48.7152 18.5413 49.1297 18.8704 49.4867C19.0366 49.667 19.1073 49.795 19.1301 49.8551C19.1512 49.9107 19.1021 49.8207 19.1691 49.6755L20.9853 50.5131ZM16.0874 50.8656C17.0045 51.2886 17.9479 51.5384 18.7551 51.5693C19.1563 51.5847 19.5756 51.5481 19.9558 51.4117C20.3405 51.2736 20.7597 51.0022 20.9853 50.5131L19.1691 49.6755C19.2361 49.5302 19.3364 49.5091 19.2804 49.5291C19.2199 49.5509 19.0766 49.5802 18.8316 49.5708C18.3464 49.5522 17.6628 49.3898 16.925 49.0495L16.0874 50.8656ZM13.1759 46.9113C12.9502 47.4004 13.0159 47.8954 13.1607 48.2776C13.3037 48.6554 13.5481 48.9981 13.8202 49.2933C14.3678 49.8872 15.1702 50.4426 16.0874 50.8656L16.925 49.0495C16.1872 48.7092 15.6198 48.2947 15.2907 47.9377C15.1245 47.7574 15.0538 47.6294 15.031 47.5692C15.0099 47.5136 15.059 47.6036 14.992 47.7489L13.1759 46.9113ZM18.0737 46.5588C17.1566 46.1357 16.2132 45.8859 15.406 45.855C15.0048 45.8397 14.5855 45.8763 14.2053 46.0127C13.8206 46.1507 13.4015 46.4221 13.1759 46.9113L14.992 47.7489C14.925 47.8941 14.8247 47.9153 14.8807 47.8952C14.9412 47.8735 15.0845 47.8442 15.3295 47.8535C15.8147 47.8721 16.4983 48.0346 17.2361 48.3749L18.0737 46.5588ZM19.4548 53.1345C20.2172 52.8534 20.9114 52.7453 21.3966 52.765C21.6416 52.775 21.7821 52.8155 21.8407 52.8419C21.895 52.8663 21.7966 52.8374 21.7413 52.6873L23.6178 51.9954C23.4314 51.49 23.035 51.1864 22.6624 51.0185C22.2941 50.8525 21.879 50.783 21.4778 50.7667C20.6707 50.7339 19.7106 50.9086 18.7629 51.258L19.4548 53.1345ZM17.4253 54.2787C17.4807 54.4287 17.4247 54.5146 17.4501 54.4608C17.4775 54.4027 17.5581 54.2806 17.738 54.114C18.0942 53.784 18.6925 53.4156 19.4548 53.1345L18.7629 51.258C17.8153 51.6074 16.9716 52.0978 16.3789 52.6467C16.0844 52.9196 15.8138 53.242 15.6414 53.6073C15.4669 53.9769 15.3625 54.4652 15.5488 54.9706L17.4253 54.2787ZM19.7118 53.8315C18.9495 54.1126 18.2552 54.2206 17.77 54.2009C17.525 54.191 17.3845 54.1505 17.3259 54.124C17.2717 54.0996 17.37 54.1286 17.4253 54.2787L15.5488 54.9706C15.7352 55.476 16.1316 55.7796 16.5043 55.9475C16.8725 56.1134 17.2877 56.183 17.6888 56.1993C18.496 56.2321 19.4561 56.0574 20.4037 55.708L19.7118 53.8315ZM21.7413 52.6873C21.686 52.5372 21.7419 52.4513 21.7166 52.5051C21.6891 52.5633 21.6085 52.6853 21.4286 52.8519C21.0724 53.1819 20.4742 53.5504 19.7118 53.8315L20.4037 55.708C21.3514 55.3586 22.1951 54.8681 22.7877 54.3192C23.0823 54.0464 23.3529 53.724 23.5253 53.3587C23.6997 52.9891 23.8041 52.5008 23.6178 51.9954L21.7413 52.6873Z" fill="#65524E" mask="url(#path-2-outside-1_391_949)"/>
<g clip-path="url(#clip1_391_949)">
<path d="M42.6432 27.5618C41.9907 27.9337 41.3697 28.3584 40.7865 28.8317C40.9117 28.0425 40.9751 27.2448 40.9761 26.4458C40.9703 23.15 39.9253 20.4542 38.6922 20.4898C37.459 20.5254 36.4076 23.1615 36.4681 26.4092C36.4631 27.1921 36.5229 27.9742 36.6469 28.7473C36.0482 28.2524 35.407 27.8111 34.7309 27.4287C31.8795 25.7757 29.0762 25.3488 28.4502 26.436C27.8243 27.5232 29.6026 29.7462 32.4467 31.3867C33.1195 31.7798 33.8226 32.1185 34.5492 32.3998C33.829 32.6733 33.1319 33.0041 32.4645 33.3889C29.619 35.0318 27.8198 37.2583 28.4483 38.347C29.0769 39.4357 31.9047 38.9908 34.7502 37.3479C35.4292 36.9547 36.0765 36.5093 36.6863 36.0157C36.5669 36.751 36.511 37.4953 36.5191 38.2402C36.5249 41.536 37.5699 44.2318 38.7959 44.1838C40.0219 44.1358 41.0043 41.5231 40.9985 38.2273C40.9976 37.5109 40.9482 36.7954 40.8507 36.0857C41.4283 36.5485 42.0396 36.9675 42.6796 37.3392C45.531 38.9921 48.3343 39.4191 48.9726 38.3247C49.611 37.2304 47.8079 35.0217 44.9638 33.3811C44.3242 33.0049 43.6562 32.6791 42.966 32.4066C43.6332 32.1435 44.2798 31.8308 44.9003 31.4713C47.7458 29.8284 49.5327 27.6091 48.9041 26.5203C48.2756 25.4316 45.4887 25.9189 42.6432 27.5618Z" fill="url(#paint0_linear_391_949)"/>
<path d="M44.4782 30.1976C43.7253 30.1932 42.9731 30.2469 42.2285 30.3582C42.7393 29.7395 43.1964 29.0783 43.5947 28.3818C45.2477 25.5304 45.6746 22.7271 44.5874 22.1011C43.5002 21.4751 41.2382 23.243 39.5996 26.1191C39.2047 26.7984 38.8642 27.508 38.5813 28.2411C38.3053 27.5167 37.9722 26.8155 37.585 26.144C35.9421 23.2985 33.7228 21.5116 32.6341 22.1402C31.5453 22.7687 31.9831 25.5842 33.626 28.4297C34.0123 29.1068 34.4512 29.7524 34.9388 30.3606C34.1778 30.234 33.4076 30.171 32.6362 30.1724C29.3404 30.1782 26.6446 31.2232 26.6802 32.4563C26.7158 33.6895 29.3889 34.7195 32.7009 34.7703C33.4882 34.7732 34.2744 34.711 35.0515 34.5844C34.579 35.1628 34.1579 35.7813 33.7928 36.4328C32.1327 39.2718 31.7005 42.0946 32.7877 42.7206C33.8749 43.3466 36.1103 41.5611 37.7508 38.7169C38.1065 38.0946 38.4163 37.4471 38.6778 36.7796C38.953 37.4675 39.2775 38.1347 39.6488 38.7758C41.2917 41.6213 43.4987 43.4153 44.5997 42.7796C45.7008 42.1439 45.2507 39.3356 43.6078 36.4901C43.2402 35.8461 42.8202 35.2334 42.3522 34.6582C43.0657 34.7589 43.7852 34.812 44.5058 34.8169C47.8016 34.8111 50.4974 33.7661 50.4423 32.5277C50.3871 31.2894 47.7544 30.1866 44.4782 30.1976Z" fill="#FFFDF9"/>
<path d="M39.4695 33.9798C40.3031 33.4985 40.5887 32.4326 40.1074 31.599C39.6262 30.7654 38.5602 30.4798 37.7266 30.9611C36.893 31.4424 36.6074 32.5083 37.0887 33.3419C37.57 34.1755 38.6359 34.4611 39.4695 33.9798Z" fill="#FFDD86"/>
<path d="M36.6518 43.0135C35.9012 43.0194 35.1519 43.0772 34.4093 43.1865C34.9238 42.5761 35.3857 41.9232 35.7898 41.2347C37.4427 38.3834 37.8697 35.5801 36.7753 34.9417C35.6809 34.3034 33.4723 36.1064 31.8317 38.9506C31.4368 39.6299 31.0963 40.3395 30.8134 41.0726C30.5375 40.3483 30.2043 39.647 29.8171 38.9755C28.1743 36.13 25.9549 34.3431 24.8662 34.9717C23.7775 35.6003 24.2153 38.4157 25.8582 41.2612C26.242 41.9342 26.6786 42.5757 27.1638 43.1797C26.4048 43.0574 25.637 42.9986 24.8683 43.0039C21.5725 43.0097 18.8767 44.0548 18.9123 45.2879C18.948 46.521 21.5697 47.5477 24.8531 47.549C25.6187 47.5579 26.3839 47.5077 27.1418 47.3988C26.6765 47.9746 26.2574 48.5861 25.8883 49.2278C24.2354 52.0791 23.796 54.8896 24.8904 55.5279C25.9848 56.1662 28.2058 54.3561 29.8464 51.5119C30.2057 50.8947 30.518 50.2512 30.7805 49.5869C31.0557 50.2748 31.3802 50.942 31.7515 51.5831C33.3944 54.4286 35.6013 56.2227 36.7024 55.5869C37.8035 54.9512 37.3534 52.1429 35.7105 49.2974C35.3429 48.6534 34.9229 48.0407 34.4549 47.4655C35.1657 47.5678 35.8832 47.6167 36.6014 47.6119C39.8971 47.6061 42.5929 46.561 42.545 45.335C42.497 44.1091 39.9352 43.0148 36.6518 43.0135Z" fill="url(#paint1_linear_391_949)"/>
<path d="M36.914 46.2106C36.2706 45.8272 35.5958 45.4994 34.8967 45.2308C35.647 44.9544 36.3717 44.6133 37.0628 44.2111C39.9083 42.5683 41.6952 40.3489 41.0666 39.2602C40.438 38.1715 37.6226 38.6093 34.7771 40.2522C34.0943 40.6393 33.4465 41.0851 32.841 41.5844C32.9592 40.8184 33.0197 40.0446 33.022 39.2695C33.0162 35.9737 31.9712 33.2779 30.7381 33.3135C29.5049 33.3491 28.4535 35.9851 28.4522 39.2685C28.4488 40.0452 28.5103 40.8208 28.6362 41.5872C28.0354 41.095 27.3945 40.6539 26.7201 40.2685C23.8688 38.6156 21.0655 38.1887 20.4271 39.283C19.7888 40.3774 21.5918 42.586 24.436 44.2266C25.1135 44.6251 25.8233 44.9657 26.558 45.2449C25.8679 45.5155 25.1984 45.8359 24.5547 46.2036C21.7092 47.8464 19.9099 50.0729 20.5385 51.1616C21.1671 52.2503 23.9949 51.8054 26.8404 50.1625C27.4618 49.8045 28.0558 49.4008 28.6176 48.955C28.5039 49.691 28.448 50.4348 28.4503 51.1796C28.4561 54.4753 29.5012 57.1711 30.7395 57.116C31.9778 57.0609 33.0188 54.4639 33.0201 51.1805C33.0221 50.4383 32.9691 49.697 32.8614 48.9627C33.4191 49.4024 34.0077 49.8012 34.6227 50.1562C37.4741 51.8092 40.2845 52.2485 40.9229 51.1541C41.5612 50.0598 39.7582 47.8511 36.914 46.2106Z" fill="#FFFDF9"/>
<path d="M31.5847 46.7801C32.4183 46.2988 32.7039 45.2329 32.2227 44.3993C31.7414 43.5657 30.6755 43.2801 29.8419 43.7614C29.0083 44.2427 28.7227 45.3086 29.2039 46.1422C29.6852 46.9758 30.7511 47.2614 31.5847 46.7801Z" fill="#FFDD86"/>
<path d="M48.0614 15.2548C47.8949 13.4399 47.1485 12.0247 46.3943 12.0938C45.64 12.163 45.1635 13.6904 45.33 15.5053C45.4964 17.3202 46.2428 18.7354 46.997 18.6663C47.7513 18.5971 48.2278 17.0697 48.0614 15.2548Z" fill="#9DBA2B"/>
<path d="M46.3891 21.8343C46.8731 21.2487 46.1233 19.8299 44.7143 18.6651C43.3053 17.5004 41.7706 17.0309 41.2866 17.6165C40.8025 18.2021 41.5524 19.6209 42.9614 20.7857C44.3704 21.9504 45.9051 22.4199 46.3891 21.8343Z" fill="#9DBA2B"/>
<path d="M46.8765 27.6166C47.361 27.0344 46.6179 25.6174 45.2168 24.4518C43.8158 23.2861 42.2873 22.8132 41.8029 23.3954C41.3185 23.9777 42.0615 25.3947 43.4626 26.5603C44.8636 27.7259 46.3921 28.1989 46.8765 27.6166Z" fill="#9DBA2B"/>
<path d="M51.4051 20.194C52.5708 18.793 53.0437 17.2645 52.4615 16.7801C51.8792 16.2956 50.4623 17.0387 49.2966 18.4398C48.131 19.8408 47.658 21.3693 48.2403 21.8537C48.8225 22.3381 50.2395 21.5951 51.4051 20.194Z" fill="#9DBA2B"/>
<path d="M51.91 25.7917C53.0757 24.3906 53.5486 22.8622 52.9664 22.3777C52.3841 21.8933 50.9672 22.6364 49.8015 24.0374C48.6359 25.4385 48.1629 26.9669 48.7452 27.4513C49.3274 27.9358 50.7444 27.1927 51.91 25.7917Z" fill="#9DBA2B"/>
<path d="M59.4777 29.8346C58.7273 29.8467 57.9785 29.9045 57.2352 30.0076C57.7456 29.3995 58.2033 28.7489 58.6033 28.063C60.2562 25.2117 60.6956 22.4012 59.6012 21.7629C58.5068 21.1245 56.2858 22.9347 54.6452 25.7789C54.2542 26.456 53.9179 27.1632 53.6393 27.8938C53.3513 27.1646 53.0051 26.4598 52.604 25.7862C50.9611 22.9407 48.7418 21.1538 47.6531 21.7824C46.5644 22.411 47.0022 25.2264 48.645 28.0719C49.0289 28.7449 49.4655 29.3864 49.9506 29.9905C49.1878 29.8667 48.4155 29.8103 47.6428 29.8218C44.347 29.8276 41.6512 30.8726 41.6992 32.0986C41.7472 33.3246 44.3709 34.3831 47.6666 34.3773C48.4538 34.3771 49.2398 34.3149 50.0172 34.1914C49.5519 34.7671 49.1328 35.3787 48.7637 36.0203C47.1108 38.8717 46.6714 41.6821 47.7658 42.3205C48.8602 42.9588 51.0688 41.1558 52.7218 38.3045C53.0776 37.6854 53.3897 37.0421 53.6559 36.3795C53.9311 37.0674 54.2556 37.7346 54.6269 38.3757C56.2698 41.2212 58.4767 43.0152 59.5778 42.3795C60.6789 41.7438 60.204 38.9498 58.5611 36.1043C58.1875 35.4641 57.7679 34.8518 57.3055 34.2724C58.0164 34.3747 58.7339 34.4236 59.452 34.4188C62.7478 34.4129 65.4436 33.3679 65.3956 32.1419C65.3476 30.916 62.7611 29.836 59.4777 29.8346Z" fill="url(#paint2_linear_391_949)"/>
<path d="M59.7402 33.0318C59.0897 32.6557 58.4112 32.3306 57.7105 32.0592C58.4647 31.7799 59.1935 31.4364 59.889 31.0324C62.7345 29.3896 64.5213 27.1702 63.8928 26.0815C63.2642 24.9928 60.4488 25.4306 57.6033 27.0735C56.9202 27.4601 56.2723 27.9059 55.6671 28.4057C55.7854 27.6397 55.8459 26.8659 55.8482 26.0908C55.8424 22.795 54.7973 20.0992 53.5642 20.1348C52.3311 20.1704 51.2797 22.8064 51.2784 26.0898C51.2749 26.8665 51.3365 27.6421 51.4623 28.4085C50.8577 27.9214 50.2172 27.4806 49.5463 27.0898C46.695 25.4369 43.8916 25.0099 43.2533 26.1043C42.615 27.1987 44.418 29.4073 47.2622 31.0479C47.9396 31.4463 48.6495 31.787 49.3842 32.0662C48.6899 32.3392 48.0163 32.662 47.3685 33.032C44.523 34.6749 42.7361 36.8942 43.3647 37.9829C43.9932 39.0716 46.8087 38.6338 49.6542 36.991C50.2759 36.6333 50.8699 36.2297 51.4314 35.7835C51.3222 36.5174 51.2704 37.2588 51.2765 38.0008C51.2823 41.2966 52.3273 43.9924 53.5533 43.9444C54.7793 43.8964 55.845 41.2852 55.8463 38.0018C55.8444 37.2616 55.7872 36.5227 55.6752 35.7911C56.2327 36.2273 56.8168 36.6283 57.4242 36.9918C60.2755 38.6447 63.086 39.0841 63.7243 37.9897C64.3627 36.8954 62.5844 34.6724 59.7402 33.0318Z" fill="#FFFDF9"/>
<path d="M54.3963 33.577C55.2299 33.0957 55.5155 32.0298 55.0342 31.1962C54.5529 30.3626 53.487 30.077 52.6534 30.5583C51.8198 31.0395 51.5342 32.1054 52.0155 32.939C52.4967 33.7726 53.5627 34.0583 54.3963 33.577Z" fill="#FFDD86"/>
<path d="M68.1846 47.9654C68.1933 47.3909 68.0486 46.8274 67.765 46.3318C67.4813 45.8362 67.0688 45.4261 66.5691 45.1427C66.0693 44.8593 65.5 44.7127 64.9186 44.7178C64.3371 44.7228 63.7641 44.8792 63.2573 45.1713L38.0874 59.7031C37.5823 59.9972 37.1614 60.4156 36.8668 60.9164C36.5721 61.4172 36.4141 61.9828 36.4085 62.5569C36.4029 63.131 36.5498 63.6933 36.8347 64.1876C37.1196 64.682 37.5324 65.0911 38.0319 65.3741L54.69 74.699C55.1905 74.9795 55.6043 75.3873 55.8894 75.8811C56.1746 76.3749 56.3208 76.9372 56.3134 77.5109L56.273 81.223L56.2149 86.4872C56.2106 86.7493 56.2776 87.0063 56.409 87.2312C56.5404 87.4562 56.7313 87.6408 56.9618 87.7659C57.1923 87.8909 57.4539 87.9516 57.7192 87.9418C57.9844 87.932 58.2436 87.852 58.4697 87.7101L62.442 85.4167C62.8182 85.1905 63.2366 85.0439 63.6702 84.9863C64.1037 84.9287 64.5428 84.9613 64.959 85.0821C65.6575 85.2909 66.3942 85.3576 67.1254 85.2783C67.8565 85.199 68.5671 84.9754 69.2147 84.6207L69.3309 84.5536C69.9619 84.1701 70.5109 83.6665 70.9451 83.073C71.3793 82.4794 71.69 81.808 71.8584 81.0988C71.9639 80.6764 72.1572 80.2785 72.4258 79.9308C72.6944 79.5831 73.0324 79.2931 73.4182 79.0795L77.3906 76.7861C77.6265 76.6613 77.8254 76.4768 77.9665 76.252C78.1076 76.0272 78.1858 75.7703 78.1928 75.5082C78.1997 75.2461 78.1353 74.9884 78.0062 74.7621C77.8771 74.5358 77.688 74.3493 77.4589 74.222L72.8709 71.6402L69.6359 69.8192C69.1354 69.5387 68.7216 69.1309 68.4365 68.6371C68.1513 68.1432 68.0051 67.581 68.0125 67.0073L68.1846 47.9654Z" fill="url(#paint3_linear_391_949)"/>
<path d="M20.0774 50.094C20.3946 49.4063 19.3101 48.2299 17.6552 47.4666C16.0002 46.7033 14.4014 46.6421 14.0841 47.3298C13.7669 48.0176 14.8514 49.194 16.5064 49.9573C18.1614 50.7206 19.7602 50.7818 20.0774 50.094Z" fill="#9DBA2B"/>
<path d="M22.6799 52.3411C22.4179 51.6304 20.8192 51.5655 19.1092 52.196C17.3992 52.8265 16.2254 53.9137 16.4875 54.6244C16.7495 55.335 18.3481 55.4 20.0581 54.7695C21.7681 54.139 22.942 53.0517 22.6799 52.3411Z" fill="#9DBA2B"/>
<path d="M27.779 54.6878C27.517 53.9771 25.9184 53.9122 24.2084 54.5427C22.4984 55.1732 21.3246 56.2604 21.5866 56.9711C21.8486 57.6817 23.4473 57.7467 25.1573 57.1162C26.8673 56.4857 28.0411 55.3984 27.779 54.6878Z" fill="#9DBA2B"/>
<path d="M23.5935 47.0569C22.963 45.3469 21.8757 44.1731 21.1651 44.4351C20.4544 44.6972 20.3895 46.2958 21.02 48.0058C21.6505 49.7158 22.7377 50.8896 23.4484 50.6276C24.159 50.3656 24.224 48.7669 23.5935 47.0569Z" fill="#9DBA2B"/>
<path d="M28.7111 49.4114C28.0806 47.7014 26.9934 46.5276 26.2828 46.7896C25.5721 47.0517 25.5071 48.6503 26.1377 50.3603C26.7682 52.0703 27.8554 53.2441 28.566 52.9821C29.2767 52.7201 29.3417 51.1214 28.7111 49.4114Z" fill="#9DBA2B"/>
<path d="M38.4813 54.4114C37.8312 54.7862 37.2084 55.2064 36.6175 55.6689C36.7693 54.8702 36.8534 54.0602 36.869 53.2473C36.8632 49.9515 35.8181 47.2558 34.5798 47.3109C33.3414 47.366 32.3005 49.963 32.2991 53.2464C32.2994 54.0336 32.3615 54.8195 32.485 55.597C31.8842 55.1047 31.2433 54.6637 30.569 54.2783C27.7177 52.6254 24.9072 52.186 24.2689 53.2804C23.6305 54.3748 25.4407 56.5958 28.2849 58.2364C28.9321 58.6287 29.6118 58.9648 30.3165 59.2409C29.5945 59.5219 28.8957 59.8591 28.2265 60.2495C25.381 61.8924 23.587 64.0994 24.2227 65.2005C24.8584 66.3015 27.6667 65.8514 30.5122 64.2085C31.2017 63.8372 31.861 63.4125 32.4841 62.9381C32.3724 63.6744 32.3164 64.418 32.3168 65.1626C32.3226 68.4584 33.3676 71.1542 34.606 71.0991C35.8443 71.044 36.8977 68.4398 36.899 65.1564C36.895 64.4377 36.8391 63.7202 36.7317 63.0096C37.294 63.4643 37.8899 63.8757 38.5145 64.2402C41.3658 65.8931 44.1763 66.3325 44.8022 65.2453C45.4282 64.158 43.6428 61.9227 40.7986 60.2822C40.1658 59.897 39.5037 59.5623 38.8184 59.281C39.4854 59.0174 40.1319 58.7047 40.7528 58.3456C43.5983 56.7028 45.3975 54.4763 44.7689 53.3876C44.1404 52.2989 41.3268 52.7685 38.4813 54.4114Z" fill="url(#paint4_linear_391_949)"/>
<path d="M40.3093 57.0344C39.5582 57.0274 38.8079 57.0853 38.0668 57.2074C38.58 56.5905 39.0373 55.9291 39.433 55.2309C41.086 52.3796 41.5253 49.5691 40.4309 48.9308C39.3366 48.2925 37.1155 50.1026 35.475 52.9468C35.0787 53.6211 34.7421 54.3288 34.4691 55.0617C34.1881 54.3397 33.8508 53.6409 33.4604 52.9717C31.8175 50.1262 29.6106 48.3322 28.5095 48.9679C27.4084 49.6036 27.8585 52.4119 29.5014 55.2575C29.8898 55.9282 30.3305 56.5673 30.8194 57.1688C30.0538 57.0466 29.2797 56.986 28.5044 56.9878C25.2086 56.9936 22.5128 58.0386 22.568 59.277C22.6231 60.5153 25.2201 61.5563 28.5035 61.5576C29.2909 61.5638 30.0774 61.5016 30.854 61.3717C30.4123 61.9466 30.0123 62.5523 29.6572 63.1844C28.0043 66.0358 27.5773 68.8391 28.6717 69.4774C29.766 70.1158 31.9747 68.3127 33.6152 65.4686C33.9785 64.8491 34.2949 64.2032 34.5617 63.5365C34.8324 64.2266 35.1528 64.8961 35.5204 65.5398C37.1633 68.3853 39.3826 70.1722 40.4713 69.5436C41.56 68.915 41.1222 66.0996 39.4794 63.2541C39.1098 62.6119 38.6943 61.9973 38.2361 61.415C38.9426 61.5199 39.656 61.5712 40.3702 61.5686C43.666 61.5627 46.3618 60.5177 46.3262 59.2846C46.2906 58.0515 43.5927 57.0358 40.3093 57.0344Z" fill="#FFFDF9"/>
<path d="M35.3133 60.8094C36.1468 60.3281 36.4325 59.2622 35.9512 58.4286C35.4699 57.595 34.404 57.3094 33.5704 57.7907C32.7368 58.272 32.4512 59.3379 32.9325 60.1715C33.4137 61.0051 34.4797 61.2907 35.3133 60.8094Z" fill="#FFDD86"/>
<path d="M68.0502 37.3396C67.4001 37.7144 66.7773 38.1346 66.1864 38.5971C66.3381 37.7985 66.4223 36.9884 66.4378 36.1756C66.432 32.8798 65.387 30.184 64.1486 30.2391C62.9103 30.2942 61.8569 32.8984 61.868 36.1746C61.8618 36.9621 61.924 37.7485 62.0539 38.5252C61.4492 38.0381 60.8087 37.5973 60.1379 37.2065C57.2865 35.5536 54.476 35.1143 53.8377 36.2086C53.1994 37.303 55.0095 39.524 57.8537 41.1646C58.5009 41.5569 59.1806 41.893 59.8853 42.1691C59.1633 42.4501 58.4645 42.7874 57.7954 43.1778C54.9498 44.8206 53.1558 47.0276 53.7916 48.1287C54.4273 49.2298 57.2356 48.7796 60.0811 47.1367C60.7705 46.7654 61.4298 46.3407 62.0529 45.8663C61.9412 46.6026 61.8853 47.3462 61.8856 48.0909C61.8914 51.3867 62.9365 54.0824 64.1748 54.0273C65.4132 53.9722 66.4541 51.3752 66.4555 48.0918C66.4619 47.3708 66.4101 46.6505 66.3006 45.9378C66.881 46.4004 67.4966 46.8171 68.1419 47.1841C70.9932 48.8371 73.8037 49.2764 74.4296 48.1892C75.0556 47.102 73.2702 44.8666 70.426 43.2261C69.7749 42.8328 69.0931 42.4927 68.3873 42.2092C69.0542 41.9456 69.7008 41.633 70.3216 41.2739C73.1671 39.631 74.954 37.4117 74.3254 36.3229C73.6968 35.2342 70.8957 35.6968 68.0502 37.3396Z" fill="url(#paint5_linear_391_949)"/>
<path d="M69.8778 39.963C69.1268 39.956 68.3765 40.0138 67.6353 40.136C68.1462 39.5172 68.6032 38.856 69.0016 38.1595C70.6545 35.3082 71.0938 32.4977 69.9871 31.8665C68.8804 31.2353 66.6841 33.0312 65.0383 35.8949C64.642 36.5692 64.3054 37.2768 64.0324 38.0097C63.7514 37.2878 63.4141 36.589 63.0237 35.9198C61.3808 33.0743 59.1739 31.2803 58.0728 31.916C56.9717 32.5517 57.4219 35.36 59.0647 38.2055C59.4531 38.8763 59.8938 39.5154 60.3827 40.1169C59.6194 39.9884 58.847 39.9213 58.073 39.9163C54.7772 39.9221 52.0814 40.9672 52.1365 42.2055C52.1916 43.4439 54.7886 44.4848 58.072 44.4862C58.8595 44.4924 59.6459 44.4302 60.4226 44.3003C59.9554 44.8826 59.5345 45.5006 59.1639 46.1487C57.5109 49 57.084 51.8034 58.1783 52.4417C59.2727 53.08 61.4814 51.277 63.1219 48.4328C63.4852 47.8133 63.8016 47.1675 64.0684 46.5007C64.3325 47.1937 64.6532 47.8637 65.0271 48.5041C66.6699 51.3496 68.8893 53.1364 69.978 52.5079C71.0667 51.8793 70.6289 49.0639 68.9861 46.2184C68.6165 45.5762 68.201 44.9616 67.7428 44.3793C68.4493 44.4841 69.1627 44.5354 69.8769 44.5328C73.1727 44.527 75.8685 43.482 75.8329 42.2488C75.7973 41.0157 73.1613 39.9643 69.8778 39.963Z" fill="#FFFDF9"/>
<path d="M64.8821 43.7381C65.7157 43.2568 66.0013 42.1909 65.52 41.3573C65.0388 40.5237 63.9728 40.2381 63.1392 40.7194C62.3056 41.2007 62.02 42.2666 62.5013 43.1002C62.9826 43.9338 64.0485 44.2194 64.8821 43.7381Z" fill="#FFDD86"/>
<path d="M62.512 31.8094C63.2753 30.1544 63.3365 28.5556 62.6487 28.2383C61.9609 27.9211 60.7846 29.0056 60.0213 30.6606C59.2579 32.3156 59.1967 33.9144 59.8845 34.2316C60.5723 34.5488 61.7487 33.4644 62.512 31.8094Z" fill="#9DBA2B"/>
<path d="M57.8029 33.2449C57.1724 31.5349 56.0852 30.3611 55.3745 30.6231C54.6639 30.8852 54.5989 32.4838 55.2294 34.1938C55.86 35.9038 56.9472 37.0776 57.6578 36.8156C58.3685 36.5536 58.4335 34.9549 57.8029 33.2449Z" fill="#9DBA2B"/>
<path d="M55.4616 38.3577C54.8311 36.6477 53.7439 35.4739 53.0332 35.7359C52.3226 35.998 52.2576 37.5966 52.8881 39.3066C53.5187 41.0166 54.6059 42.1904 55.3165 41.9284C56.0272 41.6664 56.0921 40.0677 55.4616 38.3577Z" fill="#9DBA2B"/>
<path d="M65.5764 35.3269C65.3144 34.6163 63.7157 34.5513 62.0057 35.1818C60.2957 35.8123 59.1219 36.8996 59.3839 37.6102C59.646 38.3209 61.2446 38.3858 62.9546 37.7553C64.6646 37.1248 65.8384 36.0376 65.5764 35.3269Z" fill="#9DBA2B"/>
<path d="M63.2019 40.4392C62.9399 39.7286 61.3412 39.6636 59.6312 40.2941C57.9212 40.9247 56.7474 42.0119 57.0094 42.7225C57.2715 43.4332 58.8701 43.4981 60.5801 42.8676C62.2901 42.2371 63.4639 41.1499 63.2019 40.4392Z" fill="#9DBA2B"/>
<path d="M53.1308 45.0133C52.3802 45.0192 51.6309 45.077 50.8883 45.1863C51.4067 44.5844 51.8733 43.9397 52.2831 43.2593C53.936 40.4079 54.3754 37.5975 53.2758 36.9786C52.1762 36.3598 49.9656 38.131 48.3251 40.9751C47.934 41.6522 47.5977 42.3594 47.3192 43.09C47.0386 42.3678 46.7014 41.669 46.3105 41.0001C44.6676 38.1545 42.4483 36.3677 41.3596 36.9963C40.2708 37.6248 40.7086 40.4403 42.3515 43.2858C42.7389 43.9572 43.1797 44.5963 43.6695 45.1971C42.906 45.0792 42.1342 45.0228 41.3617 45.0285C38.0659 45.0343 35.3701 46.0793 35.4181 47.3053C35.4661 48.5313 38.0773 49.597 41.3607 49.5983C42.1479 49.598 42.9339 49.5359 43.7113 49.4124C43.2421 49.9905 42.8189 50.6044 42.4454 51.2485C40.7925 54.0998 40.3727 56.9155 41.4599 57.5415C42.5471 58.1674 44.7629 56.3768 46.4106 53.545C46.7666 52.9184 47.0804 52.2688 47.35 51.6005C47.6141 52.2934 47.9347 52.9635 48.3086 53.6038C49.9515 56.4494 52.1708 58.2362 53.2596 57.6077C54.3483 56.9791 53.9105 54.1636 52.2676 51.3181C51.9 50.6741 51.48 50.0614 51.012 49.4862C51.7256 49.587 52.445 49.64 53.1656 49.645C56.4543 49.6268 59.1572 48.5941 59.1144 47.3486C59.0717 46.1031 56.4142 45.0146 53.1308 45.0133Z" fill="url(#paint6_linear_391_949)"/>
<path d="M53.4056 48.2032C52.7532 47.8309 52.0749 47.5059 51.376 47.2306C52.126 46.9537 52.8507 46.6126 53.5421 46.211C56.3876 44.5681 58.1868 42.3416 57.5582 41.2529C56.9297 40.1642 54.0804 40.572 51.2349 42.2149C50.5598 42.6052 49.9165 43.0483 49.3112 43.54C49.4334 42.7744 49.494 42.0003 49.4922 41.225C49.4741 37.9364 48.4414 35.2335 47.1959 35.2762C45.9504 35.319 44.9114 37.9478 44.91 41.2313C44.913 42.0077 44.9745 42.7827 45.094 43.5499C44.4914 43.0602 43.8507 42.6192 43.178 42.2313C40.3267 40.5783 37.5233 40.1514 36.8973 41.2386C36.2714 42.3258 38.0497 44.5488 40.8938 46.1893C41.5728 46.5911 42.2873 46.9296 43.0282 47.2004C42.3342 47.4741 41.6606 47.7969 41.0125 48.1663C38.167 49.8091 36.3801 52.0285 37.0087 53.1172C37.6373 54.2059 40.4527 53.7681 43.2982 52.1252C43.9196 51.7672 44.5136 51.3636 45.0754 50.9177C44.9718 51.6549 44.9159 52.3979 44.9081 53.1423C44.9139 56.438 45.959 59.1338 47.1973 59.0787C48.4357 59.0236 49.489 56.4194 49.4832 53.1237C49.478 52.3837 49.4208 51.645 49.3121 50.913C49.8815 51.383 50.4891 51.8047 51.1287 52.1737C53.98 53.8266 56.7905 54.2659 57.4164 53.1787C58.0424 52.0915 56.2498 49.8438 53.4056 48.2032Z" fill="#FFFDF9"/>
<path d="M48.0496 48.7552C48.8832 48.2739 49.1688 47.208 48.6875 46.3744C48.2062 45.5408 47.1403 45.2552 46.3067 45.7365C45.4731 46.2178 45.1875 47.2837 45.6688 48.1173C46.1501 48.9509 47.216 49.2365 48.0496 48.7552Z" fill="#FFDD86"/>
</g>
</g>
<defs>
<linearGradient id="paint0_linear_391_949" x1="33.4522" y1="23.3853" x2="43.8645" y2="41.4201" gradientUnits="userSpaceOnUse">
<stop stop-color="white"/>
<stop offset="1" stop-color="#F5F0EA"/>
</linearGradient>
<linearGradient id="paint1_linear_391_949" x1="24.8785" y1="34.9646" x2="36.7643" y2="55.5513" gradientUnits="userSpaceOnUse">
<stop stop-color="white"/>
<stop offset="1" stop-color="#F5F0EA"/>
</linearGradient>
<linearGradient id="paint2_linear_391_949" x1="47.6793" y1="21.7673" x2="59.5793" y2="42.3787" gradientUnits="userSpaceOnUse">
<stop stop-color="white"/>
<stop offset="1" stop-color="#F5F0EA"/>
</linearGradient>
<linearGradient id="paint3_linear_391_949" x1="50.6708" y1="52.4381" x2="69.2422" y2="84.6048" gradientUnits="userSpaceOnUse">
<stop stop-color="#CFE4E9"/>
<stop offset="0.927083" stop-color="#D2F1F8"/>
</linearGradient>
<linearGradient id="paint4_linear_391_949" x1="29.2722" y1="50.2464" x2="39.7123" y2="68.3293" gradientUnits="userSpaceOnUse">
<stop stop-color="white"/>
<stop offset="1" stop-color="#F5F0EA"/>
</linearGradient>
<linearGradient id="paint5_linear_391_949" x1="58.8348" y1="33.1782" x2="69.2964" y2="51.2982" gradientUnits="userSpaceOnUse">
<stop stop-color="white"/>
<stop offset="1" stop-color="#F5F0EA"/>
</linearGradient>
<linearGradient id="paint6_linear_391_949" x1="41.3815" y1="36.9836" x2="53.2815" y2="57.595" gradientUnits="userSpaceOnUse">
<stop stop-color="white"/>
<stop offset="1" stop-color="#F5F0EA"/>
</linearGradient>
<clipPath id="clip0_391_949">
<rect width="100" height="100" fill="white"/>
</clipPath>
<clipPath id="clip1_391_949">
<rect width="59.2571" height="83.4" fill="white" transform="translate(5.5 35.6284) rotate(-30)"/>
</clipPath>
</defs>
</svg>
