<svg width="101" height="100" viewBox="0 0 101 100" fill="none" xmlns="http://www.w3.org/2000/svg">
<mask id="path-1-outside-1_391_1058" maskUnits="userSpaceOnUse" x="12.4953" y="0.436895" width="78.3109" height="100.638" fill="black">
<rect fill="white" x="12.4953" y="0.436895" width="78.3109" height="100.638"/>
<path fill-rule="evenodd" clip-rule="evenodd" d="M37.3672 5.89902C38.6026 5.58573 41.7155 13.6575 44.32 23.9277C44.573 24.9254 44.8119 25.9071 45.0359 26.8668C46.3031 27.054 47.7057 27.9598 48.9348 29.3739C47.9569 21.4727 47.914 15.5968 48.949 15.4314C50.2075 15.2302 52.5833 23.5488 54.2554 34.0114C54.3171 34.3978 54.3771 34.7817 54.4352 35.1628C55.9437 38.915 57.4483 42.6441 58.949 46.3635L58.9524 46.3719L58.9525 46.3721C62.386 54.8818 65.7994 63.3414 69.1933 71.9136L69.1932 71.9135L69.18 71.921C69.1801 71.9211 69.1801 71.9211 69.1802 71.9212C69.7015 73.563 70.5728 75.0722 71.734 76.3445L75.2753 80.109L80.2758 85.447C78.9491 87.7606 77.0335 89.6818 74.7238 91.0153C72.4141 92.3488 69.7925 93.0472 67.1255 93.0393L65.0029 86.0398L63.5001 81.0984C62.9788 79.4566 62.1075 77.9474 60.9463 76.675L60.9462 76.6749L60.9459 76.675L35.6613 45.8622C28.0215 40.1675 22.6046 35.0447 23.2977 34.0869C23.4824 33.8316 24.0838 33.8961 25.0142 34.2316C23.0932 31.411 22.6822 28.4021 24.1979 27.0258C24.3909 26.8506 24.6072 26.709 24.8433 26.5998C24.9598 26.2484 25.1388 25.9327 25.3837 25.6626C26.3901 24.5523 28.272 24.4734 30.3153 25.2633C29.5159 24.4396 28.772 23.4081 28.1608 22.2199C26.1981 18.4042 26.3466 14.4162 28.4924 13.3125C28.7255 13.1926 28.9725 13.1117 29.2302 13.0676C29.4349 12.7539 29.692 12.4918 30.0019 12.2923C32.0307 10.9858 35.5586 12.8512 37.8817 16.4587C37.9047 16.4943 37.9274 16.53 37.9499 16.5657C36.7904 10.4411 36.4971 6.11968 37.3672 5.89902ZM33.7583 39.053C34.8263 39.7419 35.9439 40.4865 37.0951 41.278C37.4307 40.9092 37.7919 40.5421 38.1637 40.1845L35.9077 37.9308C35.3145 38.4481 34.6319 38.8014 33.9228 38.989C33.869 39.0119 33.8141 39.0333 33.7583 39.053ZM39.611 31.7828L36.8165 26.9425C36.178 27.2286 35.5079 27.37 34.8502 27.3771C34.4988 27.4357 34.1277 27.4261 33.7451 27.3538C33.8557 27.4478 33.9655 27.5443 34.0744 27.643C36.161 29.5343 37.4223 31.8149 37.5847 33.6646C37.7489 34.9707 37.346 36.3645 36.3875 37.4533L38.6571 39.7205C39.4287 39.0107 40.2167 38.354 40.8932 37.8154C40.7297 37.4748 40.5773 37.1206 40.4378 36.7541C39.7699 35.0007 39.507 33.2592 39.611 31.7828ZM40.785 28.5943C40.4676 27.4543 40.1534 26.2736 39.8462 25.0623C39.7446 24.6617 39.6453 24.2638 39.5484 23.8688C39.2382 24.91 38.5581 25.8645 37.5704 26.5252L39.8278 30.4351C40.0269 29.6844 40.3485 29.0537 40.785 28.5943Z"/>
</mask>
<path fill-rule="evenodd" clip-rule="evenodd" d="M37.3672 5.89902C38.6026 5.58573 41.7155 13.6575 44.32 23.9277C44.573 24.9254 44.8119 25.9071 45.0359 26.8668C46.3031 27.054 47.7057 27.9598 48.9348 29.3739C47.9569 21.4727 47.914 15.5968 48.949 15.4314C50.2075 15.2302 52.5833 23.5488 54.2554 34.0114C54.3171 34.3978 54.3771 34.7817 54.4352 35.1628C55.9437 38.915 57.4483 42.6441 58.949 46.3635L58.9524 46.3719L58.9525 46.3721C62.386 54.8818 65.7994 63.3414 69.1933 71.9136L69.1932 71.9135L69.18 71.921C69.1801 71.9211 69.1801 71.9211 69.1802 71.9212C69.7015 73.563 70.5728 75.0722 71.734 76.3445L75.2753 80.109L80.2758 85.447C78.9491 87.7606 77.0335 89.6818 74.7238 91.0153C72.4141 92.3488 69.7925 93.0472 67.1255 93.0393L65.0029 86.0398L63.5001 81.0984C62.9788 79.4566 62.1075 77.9474 60.9463 76.675L60.9462 76.6749L60.9459 76.675L35.6613 45.8622C28.0215 40.1675 22.6046 35.0447 23.2977 34.0869C23.4824 33.8316 24.0838 33.8961 25.0142 34.2316C23.0932 31.411 22.6822 28.4021 24.1979 27.0258C24.3909 26.8506 24.6072 26.709 24.8433 26.5998C24.9598 26.2484 25.1388 25.9327 25.3837 25.6626C26.3901 24.5523 28.272 24.4734 30.3153 25.2633C29.5159 24.4396 28.772 23.4081 28.1608 22.2199C26.1981 18.4042 26.3466 14.4162 28.4924 13.3125C28.7255 13.1926 28.9725 13.1117 29.2302 13.0676C29.4349 12.7539 29.692 12.4918 30.0019 12.2923C32.0307 10.9858 35.5586 12.8512 37.8817 16.4587C37.9047 16.4943 37.9274 16.53 37.9499 16.5657C36.7904 10.4411 36.4971 6.11968 37.3672 5.89902ZM33.7583 39.053C34.8263 39.7419 35.9439 40.4865 37.0951 41.278C37.4307 40.9092 37.7919 40.5421 38.1637 40.1845L35.9077 37.9308C35.3145 38.4481 34.6319 38.8014 33.9228 38.989C33.869 39.0119 33.8141 39.0333 33.7583 39.053ZM39.611 31.7828L36.8165 26.9425C36.178 27.2286 35.5079 27.37 34.8502 27.3771C34.4988 27.4357 34.1277 27.4261 33.7451 27.3538C33.8557 27.4478 33.9655 27.5443 34.0744 27.643C36.161 29.5343 37.4223 31.8149 37.5847 33.6646C37.7489 34.9707 37.346 36.3645 36.3875 37.4533L38.6571 39.7205C39.4287 39.0107 40.2167 38.354 40.8932 37.8154C40.7297 37.4748 40.5773 37.1206 40.4378 36.7541C39.7699 35.0007 39.507 33.2592 39.611 31.7828ZM40.785 28.5943C40.4676 27.4543 40.1534 26.2736 39.8462 25.0623C39.7446 24.6617 39.6453 24.2638 39.5484 23.8688C39.2382 24.91 38.5581 25.8645 37.5704 26.5252L39.8278 30.4351C40.0269 29.6844 40.3485 29.0537 40.785 28.5943Z" fill="#FAB698"/>
<path d="M44.32 23.9277L45.2893 23.6819L44.32 23.9277ZM37.3672 5.89902L37.1214 4.92971L37.1214 4.92971L37.3672 5.89902ZM45.0359 26.8668L44.0621 27.0942L44.2167 27.7567L44.8898 27.8561L45.0359 26.8668ZM48.9348 29.3739L48.18 30.0299L50.3297 32.5033L49.9272 29.2511L48.9348 29.3739ZM48.949 15.4314L49.1068 16.4188L49.1068 16.4188L48.949 15.4314ZM54.2554 34.0114L53.2679 34.1692L53.2679 34.1692L54.2554 34.0114ZM54.4352 35.1628L53.4466 35.3135L53.4641 35.4282L53.5073 35.5359L54.4352 35.1628ZM58.949 46.3635L59.8764 45.9894L59.8764 45.9894L58.949 46.3635ZM58.9524 46.3719L59.8831 46.0059L59.8798 45.9977L58.9524 46.3719ZM58.9525 46.3721L58.0219 46.7381L58.0251 46.7463L58.9525 46.3721ZM69.1933 71.9136L68.445 72.577L70.123 71.5455L69.1933 71.9136ZM69.1932 71.9135L69.9414 71.2501L69.4 70.6394L68.6932 71.0474L69.1932 71.9135ZM69.18 71.921L68.68 71.055L67.4511 71.7645L68.5326 72.6832L69.18 71.921ZM69.1802 71.9212L70.1333 71.6185L70.0464 71.3449L69.8276 71.159L69.1802 71.9212ZM71.734 76.3445L70.9954 77.0186L71.0005 77.0242L71.0057 77.0297L71.734 76.3445ZM75.2753 80.109L76.0051 79.4253L76.0037 79.4238L75.2753 80.109ZM80.2758 85.447L81.1433 85.9445L81.5111 85.303L81.0056 84.7633L80.2758 85.447ZM67.1255 93.0393L66.1686 93.3295L66.3831 94.0371L67.1226 94.0393L67.1255 93.0393ZM65.0029 86.0398L65.9599 85.7496L65.9597 85.7488L65.0029 86.0398ZM63.5001 81.0984L64.4569 80.8074L64.4532 80.7958L63.5001 81.0984ZM60.9463 76.675L60.1731 77.3091L60.1898 77.3296L60.2076 77.3491L60.9463 76.675ZM60.9462 76.6749L61.7194 76.0407L61.1812 75.3845L60.4462 75.8088L60.9462 76.6749ZM60.9459 76.675L60.1729 77.3094L60.7111 77.9653L61.4459 77.541L60.9459 76.675ZM35.6613 45.8622L36.4344 45.2279L36.3569 45.1335L36.259 45.0605L35.6613 45.8622ZM23.2977 34.0869L22.4876 33.5007L22.4876 33.5007L23.2977 34.0869ZM25.0142 34.2316L24.675 35.1723L27.5777 36.219L25.8407 33.6687L25.0142 34.2316ZM24.1979 27.0258L23.5256 26.2855L23.5256 26.2855L24.1979 27.0258ZM24.8433 26.5998L25.2631 27.5074L25.6561 27.3256L25.7925 26.9146L24.8433 26.5998ZM25.3837 25.6626L26.1246 26.3341L26.1246 26.3341L25.3837 25.6626ZM30.3153 25.2633L29.9548 26.196L31.0329 24.5668L30.3153 25.2633ZM28.1608 22.2199L29.05 21.7625L28.1608 22.2199ZM28.4924 13.3125L28.035 12.4232L28.4924 13.3125ZM29.2302 13.0676L29.399 14.0532L29.8291 13.9796L30.0676 13.6142L29.2302 13.0676ZM30.0019 12.2923L30.5433 13.133L30.0019 12.2923ZM37.8817 16.4587L38.7225 15.9173L38.7225 15.9173L37.8817 16.4587ZM37.9499 16.5657L37.1043 17.0995L38.9325 16.3796L37.9499 16.5657ZM37.0951 41.278L36.5286 42.102L37.2475 42.5963L37.8347 41.951L37.0951 41.278ZM33.7583 39.053L33.4248 38.1103L31.5047 38.7894L33.2162 39.8934L33.7583 39.053ZM38.1637 40.1845L38.8569 40.9052L39.5922 40.1979L38.8704 39.477L38.1637 40.1845ZM35.9077 37.9308L36.6145 37.2234L35.9541 36.5637L35.2505 37.1771L35.9077 37.9308ZM33.9228 38.989L33.6672 38.0222L33.5972 38.0407L33.5307 38.0691L33.9228 38.989ZM36.8165 26.9425L37.6825 26.4425L37.2313 25.6609L36.4076 26.0299L36.8165 26.9425ZM39.611 31.7828L40.6086 31.8531L40.6301 31.5478L40.4771 31.2828L39.611 31.7828ZM34.8502 27.3771L34.8393 26.3772L34.762 26.378L34.6858 26.3907L34.8502 27.3771ZM33.7451 27.3538L33.9308 26.3712L30.2249 25.671L33.097 28.1153L33.7451 27.3538ZM34.0744 27.643L34.746 26.9021L34.0744 27.643ZM37.5847 33.6646L36.5886 33.7521L36.5902 33.7707L36.5925 33.7893L37.5847 33.6646ZM36.3875 37.4533L35.6369 36.7926L35.0165 37.4973L35.6808 38.1608L36.3875 37.4533ZM38.6571 39.7205L37.9504 40.428L38.6286 41.1056L39.3342 40.4565L38.6571 39.7205ZM40.8932 37.8154L41.516 38.5978L42.1396 38.1014L41.7947 37.3828L40.8932 37.8154ZM40.4378 36.7541L41.3723 36.3982L40.4378 36.7541ZM39.8462 25.0623L38.8769 25.3081L38.8769 25.3081L39.8462 25.0623ZM40.785 28.5943L41.51 29.283L41.9004 28.8721L41.7484 28.326L40.785 28.5943ZM39.5484 23.8688L40.5195 23.6304L39.6415 20.054L38.59 23.5833L39.5484 23.8688ZM37.5704 26.5252L37.0144 25.694L36.2363 26.2145L36.7044 27.0252L37.5704 26.5252ZM39.8278 30.4351L38.9617 30.9351L40.1731 33.0333L40.7943 30.6915L39.8278 30.4351ZM45.2893 23.6819C43.9804 18.5206 42.5398 13.8949 41.2632 10.5847C40.6274 8.93607 40.019 7.57859 39.4736 6.63799C39.2049 6.17458 38.9217 5.75956 38.6249 5.45937C38.3932 5.22502 37.8454 4.7461 37.1214 4.92971L37.613 6.86834C37.1979 6.97362 37.0176 6.67841 37.2028 6.86563C37.3228 6.98703 37.5058 7.23145 37.7434 7.64117C38.2105 8.44685 38.7748 9.69046 39.3972 11.3044C40.637 14.5193 42.055 19.0645 43.3507 24.1735L45.2893 23.6819ZM46.0097 26.6395C45.7842 25.6736 45.5438 24.6857 45.2893 23.6819L43.3507 24.1735C43.6021 25.1651 43.8395 26.1407 44.0621 27.0942L46.0097 26.6395ZM49.6896 28.7179C48.3764 27.207 46.7756 26.113 45.182 25.8776L44.8898 27.8561C45.8307 27.9951 47.0351 28.7125 48.18 30.0299L49.6896 28.7179ZM48.7912 14.4439C48.1736 14.5426 47.8571 15.026 47.7167 15.3067C47.5587 15.6226 47.4586 16.0039 47.3886 16.3905C47.2463 17.1767 47.1853 18.2443 47.1871 19.5031C47.1907 22.0364 47.4508 25.5247 47.9424 29.4967L49.9272 29.2511C49.4409 25.3218 49.1906 21.9216 49.1871 19.5003C49.1853 18.2818 49.2465 17.3556 49.3567 16.7466C49.4129 16.4356 49.4716 16.269 49.5056 16.2011C49.5571 16.0979 49.4656 16.3615 49.1068 16.4188L48.7912 14.4439ZM55.2428 33.8536C54.4025 28.5957 53.3829 23.8593 52.4087 20.4479C51.9234 18.7488 51.4393 17.3422 50.9806 16.3564C50.7546 15.8708 50.5098 15.432 50.2411 15.1064C50.0313 14.8522 49.5288 14.326 48.7912 14.4439L49.1068 16.4188C48.6839 16.4864 48.5309 16.1762 48.6985 16.3793C48.8071 16.511 48.9675 16.7709 49.1673 17.2003C49.5602 18.0446 50.0105 19.3339 50.4856 20.9971C51.4318 24.3103 52.4361 28.9645 53.2679 34.1692L55.2428 33.8536ZM55.4237 35.0121C55.3653 34.6287 55.305 34.2424 55.2428 33.8536L53.2679 34.1692C53.3293 34.5533 53.3888 34.9348 53.4466 35.3135L55.4237 35.0121ZM59.8764 45.9894C58.3756 42.2698 56.8712 38.5413 55.363 34.7898L53.5073 35.5359C55.0161 39.2887 56.521 43.0183 58.0217 46.7377L59.8764 45.9894ZM59.8798 45.9977L59.8764 45.9894L58.0217 46.7377L58.0251 46.7461L59.8798 45.9977ZM59.8831 46.0061L59.883 46.0059L58.0218 46.7379L58.0219 46.7381L59.8831 46.0061ZM70.123 71.5455C66.7277 62.9698 63.3132 54.5071 59.8799 45.9979L58.0251 46.7463C61.4589 55.2564 64.871 63.7131 68.2635 72.2817L70.123 71.5455ZM68.4449 72.5769L68.445 72.577L69.9415 71.2502L69.9414 71.2501L68.4449 72.5769ZM69.68 72.7871L69.6932 72.7795L68.6932 71.0474L68.68 71.055L69.68 72.7871ZM69.8276 71.159C69.8331 71.1637 69.8374 71.1675 69.8398 71.1696C69.842 71.1715 69.8439 71.1732 69.8436 71.1729C69.8436 71.1729 69.8436 71.1729 69.8436 71.1729C69.8436 71.1729 69.8436 71.1729 69.8436 71.1729C69.8436 71.1729 69.8435 71.1729 69.8435 71.1728C69.8435 71.1728 69.8434 71.1727 69.8433 71.1727C69.8432 71.1725 69.8429 71.1723 69.8426 71.172C69.842 71.1715 69.841 71.1706 69.8397 71.1695C69.8374 71.1674 69.833 71.1636 69.8274 71.1589L68.5326 72.6832C68.5271 72.6785 68.5228 72.6747 68.5204 72.6726C68.5182 72.6707 68.5163 72.669 68.5166 72.6693C68.5166 72.6693 68.5166 72.6693 68.5166 72.6693C68.5166 72.6693 68.5166 72.6693 68.5167 72.6693C68.5167 72.6693 68.5167 72.6693 68.5167 72.6694C68.5167 72.6694 68.5168 72.6694 68.5169 72.6695C68.517 72.6696 68.5173 72.6699 68.5176 72.6701C68.5182 72.6707 68.5192 72.6716 68.5205 72.6727C68.5229 72.6748 68.5272 72.6786 68.5328 72.6833L69.8276 71.159ZM72.4727 75.6704C71.409 74.5049 70.6108 73.1225 70.1333 71.6185L68.2271 72.2238C68.7922 74.0035 69.7367 75.6394 70.9954 77.0186L72.4727 75.6704ZM76.0037 79.4238L72.4624 75.6594L71.0057 77.0297L74.5469 80.7942L76.0037 79.4238ZM81.0056 84.7633L76.0051 79.4253L74.5455 80.7927L79.546 86.1307L81.0056 84.7633ZM75.2238 91.8814C77.6864 90.4596 79.7287 88.4112 81.1433 85.9445L79.4083 84.9495C78.1694 87.11 76.3806 88.9041 74.2238 90.1493L75.2238 91.8814ZM67.1226 94.0393C69.9661 94.0477 72.7612 93.3031 75.2238 91.8814L74.2238 90.1493C72.067 91.3945 69.6189 92.0466 67.1285 92.0393L67.1226 94.0393ZM64.046 86.33L66.1686 93.3295L68.0825 92.7491L65.9599 85.7496L64.046 86.33ZM62.5434 81.3894L64.0462 86.3307L65.9597 85.7488L64.4568 80.8074L62.5434 81.3894ZM60.2076 77.3491C61.2713 78.5146 62.0695 79.8971 62.547 81.401L64.4532 80.7958C63.8881 79.016 62.9436 77.3801 61.6849 76.0009L60.2076 77.3491ZM60.173 77.309L60.1731 77.3091L61.7195 76.0409L61.7194 76.0407L60.173 77.309ZM61.4459 77.541L61.4462 77.5409L60.4462 75.8088L60.4459 75.809L61.4459 77.541ZM34.8883 46.4966L60.1729 77.3094L61.719 76.0407L36.4344 45.2279L34.8883 46.4966ZM22.4876 33.5007C22.0779 34.0669 22.2681 34.7042 22.3876 35.0042C22.5327 35.3688 22.7787 35.7525 23.0637 36.1314C23.6431 36.9012 24.5407 37.8538 25.6658 38.9231C27.9265 41.0717 31.2242 43.802 35.0637 46.664L36.259 45.0605C32.4586 42.2277 29.2279 39.5493 27.0436 37.4734C25.9461 36.4304 25.142 35.5668 24.6618 34.9288C24.4172 34.6037 24.2939 34.3856 24.2457 34.2644C24.1717 34.0787 24.3443 34.3464 24.1079 34.6731L22.4876 33.5007ZM25.3534 33.2909C24.8587 33.1125 24.3819 32.9793 23.9662 32.9417C23.639 32.9122 22.9212 32.9014 22.4876 33.5007L24.1079 34.6731C23.9802 34.8496 23.8206 34.9083 23.7592 34.9239C23.7069 34.9371 23.705 34.9263 23.7865 34.9337C23.9502 34.9484 24.2393 35.0152 24.675 35.1723L25.3534 33.2909ZM23.5256 26.2855C22.4409 27.2705 22.1489 28.746 22.3244 30.2064C22.5012 31.678 23.1597 33.2851 24.1877 34.7945L25.8407 33.6687C24.9477 32.3575 24.4401 31.0499 24.3101 29.9678C24.1788 28.8746 24.4392 28.1575 24.8701 27.7662L23.5256 26.2855ZM24.4235 25.6922C24.0987 25.8424 23.7965 26.0395 23.5256 26.2855L24.8701 27.7662C24.9852 27.6616 25.1158 27.5755 25.2631 27.5074L24.4235 25.6922ZM24.6428 24.991C24.298 25.3713 24.0514 25.8108 23.8941 26.285L25.7925 26.9146C25.8682 26.6861 25.9796 26.4941 26.1246 26.3341L24.6428 24.991ZM30.6759 24.3305C28.5202 23.4972 26.082 23.4031 24.6428 24.991L26.1246 26.3341C26.6981 25.7014 28.0239 25.4496 29.9548 26.196L30.6759 24.3305ZM27.2715 22.6773C27.925 23.9478 28.7254 25.061 29.5977 25.9597L31.0329 24.5668C30.3063 23.8182 29.619 22.8685 29.05 21.7625L27.2715 22.6773ZM28.035 12.4232C26.4981 13.2138 25.8528 14.9347 25.7866 16.712C25.7191 18.5253 26.2265 20.6457 27.2715 22.6773L29.05 21.7625C28.1324 19.9784 27.7327 18.1969 27.7852 16.7864C27.8391 15.3399 28.341 14.5149 28.9499 14.2018L28.035 12.4232ZM29.0614 12.0819C28.7069 12.1426 28.3621 12.255 28.035 12.4232L28.9499 14.2018C29.0888 14.1303 29.2381 14.0808 29.399 14.0532L29.0614 12.0819ZM29.4605 11.4515C29.0241 11.7325 28.6689 12.098 28.3928 12.521L30.0676 13.6142C30.201 13.4098 30.3598 13.2512 30.5433 13.133L29.4605 11.4515ZM38.7225 15.9173C37.4856 13.9965 35.903 12.4969 34.2989 11.6487C32.7266 10.8173 30.9136 10.5157 29.4605 11.4515L30.5433 13.133C31.119 12.7623 32.0844 12.7402 33.364 13.4168C34.6118 14.0765 35.9548 15.3134 37.041 17.0001L38.7225 15.9173ZM38.7955 16.0318C38.7714 15.9936 38.7471 15.9554 38.7225 15.9173L37.041 17.0001C37.0623 17.0332 37.0834 17.0663 37.1043 17.0995L38.7955 16.0318ZM37.1214 4.92971C36.5995 5.06206 36.3254 5.46312 36.1943 5.73488C36.0575 6.01836 35.9832 6.34379 35.9384 6.65469C35.8472 7.28631 35.8431 8.11754 35.8992 9.07672C36.0122 11.0115 36.384 13.6704 36.9674 16.7517L38.9325 16.3796C38.3563 13.3364 38.0017 10.7723 37.8958 8.96002C37.8423 8.0457 37.8555 7.37242 37.9179 6.94033C37.9498 6.71937 37.9863 6.62314 37.9955 6.60413C38.0103 6.57341 37.9174 6.79115 37.613 6.86834L37.1214 4.92971ZM37.6616 40.4539C36.5028 39.6572 35.3771 38.9072 34.3003 38.2127L33.2162 39.8934C34.2756 40.5767 35.3849 41.3158 36.5286 42.102L37.6616 40.4539ZM37.4704 39.4638C37.0859 39.8336 36.7087 40.2167 36.3554 40.605L37.8347 41.951C38.1526 41.6016 38.4979 41.2506 38.8569 40.9052L37.4704 39.4638ZM35.201 38.6383L37.457 40.8919L38.8704 39.477L36.6145 37.2234L35.201 38.6383ZM34.1785 39.9557C35.0345 39.7293 35.8548 39.3037 36.5649 38.6846L35.2505 37.1771C34.7742 37.5925 34.2293 37.8735 33.6672 38.0222L34.1785 39.9557ZM34.0917 39.9958C34.167 39.9692 34.2415 39.9402 34.315 39.9089L33.5307 38.0691C33.4964 38.0837 33.4612 38.0974 33.4248 38.1103L34.0917 39.9958ZM35.9505 27.4425L38.745 32.2828L40.4771 31.2828L37.6825 26.4425L35.9505 27.4425ZM34.861 28.3771C35.6547 28.3684 36.4604 28.1978 37.2254 27.8551L36.4076 26.0299C35.8955 26.2593 35.361 26.3715 34.8393 26.3772L34.861 28.3771ZM33.5595 28.3364C34.0418 28.4275 34.5324 28.4439 35.0145 28.3635L34.6858 26.3907C34.4653 26.4275 34.2136 26.4246 33.9308 26.3712L33.5595 28.3364ZM34.746 26.9021C34.6293 26.7964 34.5117 26.6931 34.3932 26.5922L33.097 28.1153C33.1996 28.2026 33.3016 28.2922 33.4028 28.384L34.746 26.9021ZM38.5809 33.5771C38.3895 31.3968 36.9499 28.8998 34.746 26.9021L33.4028 28.384C35.372 30.1689 36.4552 32.2331 36.5886 33.7521L38.5809 33.5771ZM37.1381 38.1141C38.2849 36.8113 38.7771 35.1319 38.5769 33.5399L36.5925 33.7893C36.7208 34.8095 36.4071 35.9176 35.6369 36.7926L37.1381 38.1141ZM39.3638 39.0131L37.0942 36.7458L35.6808 38.1608L37.9504 40.428L39.3638 39.0131ZM40.2703 37.0331C39.5812 37.5818 38.7739 38.2542 37.98 38.9846L39.3342 40.4565C40.0834 39.7671 40.8523 39.1262 41.516 38.5978L40.2703 37.0331ZM39.5032 37.1101C39.6527 37.5024 39.8161 37.8823 39.9916 38.2481L41.7947 37.3828C41.6434 37.0674 41.502 36.7387 41.3723 36.3982L39.5032 37.1101ZM38.6135 31.7125C38.4979 33.3525 38.7908 35.2394 39.5032 37.1101L41.3723 36.3982C40.7491 34.7619 40.516 33.1659 40.6086 31.8531L38.6135 31.7125ZM38.8769 25.3081C39.1859 26.5268 39.5022 27.715 39.8217 28.8625L41.7484 28.326C41.4331 27.1936 41.1208 26.0203 40.8155 24.8164L38.8769 25.3081ZM38.5772 24.1073C38.6748 24.5047 38.7747 24.9051 38.8769 25.3081L40.8155 24.8164C40.7146 24.4184 40.6159 24.0229 40.5195 23.6304L38.5772 24.1073ZM38.1264 27.3564C39.3087 26.5656 40.1304 25.4176 40.5067 24.1544L38.59 23.5833C38.346 24.4024 37.8076 25.1635 37.0144 25.694L38.1264 27.3564ZM40.6938 29.9351L38.4364 26.0252L36.7044 27.0252L38.9617 30.9351L40.6938 29.9351ZM40.0601 27.9055C39.4796 28.5164 39.0913 29.3112 38.8612 30.1787L40.7943 30.6915C40.9625 30.0577 41.2175 29.5909 41.51 29.283L40.0601 27.9055Z" fill="#65524E" mask="url(#path-1-outside-1_391_1058)"/>
<path d="M44.3199 23.9277C41.7154 13.6574 38.6026 5.58571 37.3672 5.899C36.1318 6.21229 37.2416 14.792 39.8461 25.0622C42.4506 35.3325 45.5635 43.4042 46.7989 43.0909C48.0343 42.7776 46.9244 34.198 44.3199 23.9277Z" fill="#00913A"/>
<path d="M69.1933 71.9137L54.3081 34.8703C53.3009 31.5259 42.7586 36.4045 42.7586 36.4045C42.7586 36.4045 33.1425 43.1643 35.5354 45.7088L60.946 76.6753" fill="#E4AA9E"/>
<path d="M36.8067 25.2025L36.0605 25.6333L56.9682 61.8465L57.7144 61.4157L36.8067 25.2025Z" fill="#156E69"/>
<path d="M37.2827 26.7039C39.5638 25.3869 40.4074 22.5775 39.1669 20.4288C37.9263 18.2802 35.0715 17.606 32.7904 18.923C30.5093 20.24 29.6658 23.0494 30.9063 25.1981C32.1468 27.3467 35.0017 28.0209 37.2827 26.7039Z" fill="#FDA513"/>
<path d="M38.4148 25.3562C40.4436 24.0497 40.205 20.0661 37.8819 16.4586C35.5588 12.8511 32.0309 10.9857 30.0021 12.2921C27.9733 13.5986 28.2119 17.5822 30.535 21.1897C32.8581 24.7973 36.386 26.6627 38.4148 25.3562Z" fill="#FDA513"/>
<path d="M35.9314 18.223C33.9687 14.4074 30.6381 12.2089 28.4923 13.3127C26.3465 14.4165 26.198 18.4044 28.1606 22.2201C30.1233 26.0357 33.4539 28.2341 35.5997 27.1304C37.7456 26.0266 37.894 22.0387 35.9314 18.223Z" fill="#FFC047"/>
<path d="M35.3124 36.3795L34.834 36.8584L51.4869 53.4939L51.9653 53.015L35.3124 36.3795Z" fill="#156E69"/>
<path d="M36.166 37.6895C38.0275 35.826 38.1136 32.8939 36.3583 31.1405C34.6031 29.3871 31.6711 29.4763 29.8096 31.3397C27.948 33.2032 27.8619 36.1353 29.6172 37.8887C31.3724 39.6422 34.3044 39.553 36.166 37.6895Z" fill="#FDA513"/>
<path d="M36.8963 36.0981C38.5169 34.3103 37.2535 30.5248 34.0743 27.6431C30.8951 24.7615 27.0041 23.8748 25.3836 25.6626C23.763 27.4505 25.0264 31.236 28.2056 34.1176C31.3848 36.9993 35.2758 37.886 36.8963 36.0981Z" fill="#FDA513"/>
<path d="M34.6436 38.5294C36.4301 36.9073 35.54 33.0171 32.6555 29.8404C29.7711 26.6638 25.9845 25.4036 24.1981 27.0257C22.4116 28.6479 23.3017 32.5381 26.1861 35.7147C29.0706 38.8914 32.8571 40.1516 34.6436 38.5294Z" fill="#FFC047"/>
<path d="M48.6025 40.5854L47.9849 40.856L57.3941 62.3316L58.0117 62.061L48.6025 40.5854Z" fill="#156E69"/>
<path d="M51.5801 36.2124C50.5857 33.9394 47.8233 32.9527 45.4101 34.0084C42.997 35.0642 41.847 37.7627 42.8414 40.0357C43.8359 42.3087 46.5983 43.2955 49.0114 42.2397C51.4246 41.1839 52.5746 38.4854 51.5801 36.2124Z" fill="#FDA513"/>
<path d="M50.7443 32.1138C48.8358 28.2708 45.5366 26.0255 43.3754 27.0988C41.2142 28.1721 41.0093 32.1576 42.9178 36.0006C44.8264 39.8436 48.1255 42.0889 50.2868 41.0156C52.448 39.9423 52.6528 35.9568 50.7443 32.1138Z" fill="#FDA513"/>
<path d="M48.6041 33.644C47.0769 29.6341 44.0108 27.0797 41.7557 27.9386C39.5007 28.7975 38.9107 32.7443 40.4379 36.7542C41.9651 40.764 45.0312 43.3184 47.2862 42.4595C49.5413 41.6007 50.1313 37.6538 48.6041 33.644Z" fill="#FFC047"/>
<path d="M54.2555 34.0115C52.5835 23.5489 50.2077 15.2303 48.9492 15.4315C47.6906 15.6326 48.0259 24.2773 49.698 34.7399C51.3701 45.2025 53.7458 53.521 55.0044 53.3199C56.2629 53.1188 55.9276 44.4741 54.2555 34.0115Z" fill="#62B024"/>
<path d="M54.3823 56.5802C55.1294 55.5477 48.7766 49.6754 40.1928 43.464C31.609 37.2527 24.0448 33.0544 23.2977 34.087C22.5505 35.1195 28.9034 40.9918 37.4871 47.2032C46.0709 53.4145 53.6351 57.6127 54.3823 56.5802Z" fill="#67B42A"/>
<path d="M57.3092 70.7453C57.0424 69.9755 49.2882 41.0372 49.2882 41.0372C50.6784 40.3868 51.8238 39.3084 52.5567 37.9599C53.4352 36.4046 54.2186 35.7923 54.2983 34.8226C59.3057 47.2802 64.2699 59.4785 69.1932 71.9136L57.3092 70.7453Z" fill="#FFD0CA"/>
<path d="M80.2758 85.4473L75.2753 80.1093L71.734 76.3448C70.5728 75.0724 69.7015 73.5632 69.1802 71.9214C59.429 63.3396 51.3699 53.7808 41.6187 45.1989C40.4468 45.8512 39.1634 46.2789 37.8345 46.46C37.0279 46.365 36.255 46.0808 35.5791 45.6304L60.9462 76.6753C62.1075 77.9476 62.9788 79.4568 63.5001 81.0986L65.0029 86.04L67.1255 93.0396C69.7925 93.0474 72.4141 92.3491 74.7238 91.0156C77.0335 89.6821 78.9491 87.7609 80.2758 85.4473Z" fill="#FFE2D6"/>
</svg>
