<svg width="100" height="100" viewBox="0 0 100 100" fill="none" xmlns="http://www.w3.org/2000/svg">
<mask id="path-1-outside-1_391_1099" maskUnits="userSpaceOnUse" x="2.05994" y="-1.82971" width="96.3897" height="98.9519" fill="black">
<rect fill="white" x="2.05994" y="-1.82971" width="96.3897" height="98.9519"/>
<path fill-rule="evenodd" clip-rule="evenodd" d="M38.4918 13.5064C39.3677 13.3896 40.3054 15.0036 40.5863 17.1113C40.826 18.9101 40.5097 20.4871 39.8674 20.9833C40.2911 20.7866 40.7444 20.625 41.2221 20.505C41.6425 20.3994 42.0615 20.3312 42.4738 20.298C43.1789 18.6863 44.8266 17.3161 46.9643 16.7791C49.1974 16.2182 51.3888 16.7113 52.7654 17.9076C53.1069 17.7658 53.4658 17.6464 53.8398 17.5524C55.2503 17.1981 56.6443 17.2644 57.8267 17.6628C57.7042 17.5603 57.5973 17.435 57.5128 17.2886C57.1262 16.619 57.3556 15.7628 58.0252 15.3762C58.6948 14.9896 59.551 15.219 59.9376 15.8886C60.3242 16.5583 60.0948 17.4145 59.4252 17.8011C59.1633 17.9523 58.873 18.0092 58.5933 17.9825C59.1535 18.2655 59.6446 18.6329 60.0391 19.0723C60.8034 18.6471 62.287 19.7572 63.3679 21.5691C63.8277 22.3398 64.1412 23.1144 64.2929 23.7862C64.8676 24.0449 65.379 24.3854 65.8018 24.7945C66.0515 24.7066 66.3094 24.6305 66.5747 24.5675C67.0294 23.9933 67.7311 23.3898 68.5907 22.8769C70.4167 21.7876 72.264 21.5196 72.7168 22.2785C73.0834 22.8931 72.423 23.9926 71.1886 24.9672C72.5491 25.6058 73.5396 26.7092 73.8127 28.0975C73.9927 29.012 73.8376 29.9301 73.4201 30.7664C74.1261 31.383 74.6194 32.1755 74.7997 33.0923C75.2648 35.4562 73.492 37.8437 70.7324 38.7828C70.8604 39.1616 70.8997 39.5765 70.8465 40.0066L68.3316 60.1582C68.2583 60.7637 68.3676 61.3386 68.6488 61.8256C68.93 62.3127 69.3732 62.6948 69.9342 62.9341L73.5813 64.4848L78.7383 66.6561C78.9964 66.7634 79.1997 66.9379 79.3268 67.1615C79.454 67.385 79.5003 67.6494 79.461 67.9269C79.4217 68.2043 79.2982 68.4847 79.1034 68.7387C78.9086 68.9926 78.6497 69.2109 78.3537 69.3705L73.3917 72.2353C72.9135 72.5106 72.4826 72.8567 72.1247 73.2531C71.7667 73.6495 71.4891 74.088 71.3084 74.5425C71.0287 75.3128 70.5818 76.0607 69.9948 76.7408C69.4078 77.4209 68.693 78.019 67.8937 78.4988L67.7474 78.5833C66.9323 79.0356 66.0569 79.3556 65.1744 79.5239C64.2919 79.6922 63.4208 79.7052 62.6138 79.5623C62.1301 79.4908 61.6114 79.5116 61.089 79.6234C60.5666 79.7352 60.0513 79.9357 59.5741 80.2129L54.5681 83.1031C54.2815 83.275 53.9646 83.3862 53.6495 83.4255C53.3344 83.4647 53.0323 83.4306 52.774 83.3266C52.5157 83.2225 52.3103 83.0523 52.1788 82.8332C52.0473 82.614 51.9943 82.3538 52.0252 82.079L52.7232 76.5272L53.2038 72.5934C53.2804 71.987 53.1725 71.4109 52.8911 70.9234C52.6096 70.4359 52.1646 70.0544 51.6012 69.8176L32.848 61.9451C32.3632 61.7398 31.9663 61.4277 31.6858 61.0332L31.6753 61.0453C29.4533 63.5897 26.0108 64.2193 23.9863 62.4513C23.2829 61.8371 22.8433 61.0143 22.6622 60.0954C21.7321 60.0374 20.8625 59.7127 20.1625 59.1014C18.5292 57.6751 18.3178 55.1241 19.4638 52.8554C19.2687 52.7485 19.0995 52.5884 18.9801 52.3816C18.6326 51.7797 18.8388 51.0101 19.4407 50.6626C19.9378 50.3756 20.5494 50.4664 20.943 50.8458C21.0645 50.7271 21.1887 50.6136 21.3155 50.5053C21.1122 49.7006 21.1156 48.8112 21.322 47.917C20.9954 48.1557 20.6294 48.3849 20.2328 48.5943C18.3524 49.587 16.4937 49.7582 16.0811 48.9767C15.6686 48.1953 16.8585 46.7571 18.7389 45.7644C20.2543 44.9644 21.7558 44.6979 22.4974 45.0337L22.4947 45.003C21.8247 44.8255 21.2126 44.4946 20.7065 44.0041C19.48 42.8155 19.1705 40.9758 19.7112 39.17C19.3068 37.8679 19.366 36.7813 19.941 36.4777C20.2423 36.3187 20.6412 36.3978 21.0746 36.6629C21.1989 36.5136 21.3301 36.3673 21.4683 36.2248C21.5679 36.122 21.6695 36.0227 21.7729 35.927C21.2809 34.0806 21.936 31.7835 23.6364 30.0405C24.1256 29.5391 24.6628 29.123 25.224 28.7953C24.8305 28.7595 24.4598 28.5394 24.2472 28.1711C23.8997 27.5692 24.1059 26.7996 24.7077 26.4522C25.3096 26.1047 26.0792 26.3109 26.4267 26.9128C26.678 27.348 26.6397 27.871 26.3715 28.2587C27.3924 27.8933 28.4385 27.8053 29.3816 28.0106C29.6531 27.5811 29.9768 27.1676 30.3514 26.781C31.9574 25.1237 34.0859 24.3884 35.8889 24.6852C35.565 24.4994 35.2354 24.2808 34.9101 24.032C33.2212 22.7403 32.2872 21.1241 32.8241 20.4222C33.3609 19.7203 35.1653 20.1985 36.8542 21.4903C37.2288 21.7767 37.5662 22.0792 37.8587 22.3841C38.3376 21.8967 38.9169 21.4684 39.5756 21.1266C39.5536 21.1318 39.5313 21.1359 39.5088 21.1389C38.6329 21.2556 37.6951 19.6416 37.4143 17.534C37.1334 15.4263 37.6159 13.6231 38.4918 13.5064ZM67.866 14.7668C68.7227 14.9833 68.995 16.8299 68.4741 18.8914C67.9532 20.9529 66.8364 22.4486 65.9797 22.2322C65.123 22.0157 64.8507 20.169 65.3716 18.1075C65.8925 16.046 67.0092 14.5503 67.866 14.7668Z"/>
</mask>
<path fill-rule="evenodd" clip-rule="evenodd" d="M38.4918 13.5064C39.3677 13.3896 40.3054 15.0036 40.5863 17.1113C40.826 18.9101 40.5097 20.4871 39.8674 20.9833C40.2911 20.7866 40.7444 20.625 41.2221 20.505C41.6425 20.3994 42.0615 20.3312 42.4738 20.298C43.1789 18.6863 44.8266 17.3161 46.9643 16.7791C49.1974 16.2182 51.3888 16.7113 52.7654 17.9076C53.1069 17.7658 53.4658 17.6464 53.8398 17.5524C55.2503 17.1981 56.6443 17.2644 57.8267 17.6628C57.7042 17.5603 57.5973 17.435 57.5128 17.2886C57.1262 16.619 57.3556 15.7628 58.0252 15.3762C58.6948 14.9896 59.551 15.219 59.9376 15.8886C60.3242 16.5583 60.0948 17.4145 59.4252 17.8011C59.1633 17.9523 58.873 18.0092 58.5933 17.9825C59.1535 18.2655 59.6446 18.6329 60.0391 19.0723C60.8034 18.6471 62.287 19.7572 63.3679 21.5691C63.8277 22.3398 64.1412 23.1144 64.2929 23.7862C64.8676 24.0449 65.379 24.3854 65.8018 24.7945C66.0515 24.7066 66.3094 24.6305 66.5747 24.5675C67.0294 23.9933 67.7311 23.3898 68.5907 22.8769C70.4167 21.7876 72.264 21.5196 72.7168 22.2785C73.0834 22.8931 72.423 23.9926 71.1886 24.9672C72.5491 25.6058 73.5396 26.7092 73.8127 28.0975C73.9927 29.012 73.8376 29.9301 73.4201 30.7664C74.1261 31.383 74.6194 32.1755 74.7997 33.0923C75.2648 35.4562 73.492 37.8437 70.7324 38.7828C70.8604 39.1616 70.8997 39.5765 70.8465 40.0066L68.3316 60.1582C68.2583 60.7637 68.3676 61.3386 68.6488 61.8256C68.93 62.3127 69.3732 62.6948 69.9342 62.9341L73.5813 64.4848L78.7383 66.6561C78.9964 66.7634 79.1997 66.9379 79.3268 67.1615C79.454 67.385 79.5003 67.6494 79.461 67.9269C79.4217 68.2043 79.2982 68.4847 79.1034 68.7387C78.9086 68.9926 78.6497 69.2109 78.3537 69.3705L73.3917 72.2353C72.9135 72.5106 72.4826 72.8567 72.1247 73.2531C71.7667 73.6495 71.4891 74.088 71.3084 74.5425C71.0287 75.3128 70.5818 76.0607 69.9948 76.7408C69.4078 77.4209 68.693 78.019 67.8937 78.4988L67.7474 78.5833C66.9323 79.0356 66.0569 79.3556 65.1744 79.5239C64.2919 79.6922 63.4208 79.7052 62.6138 79.5623C62.1301 79.4908 61.6114 79.5116 61.089 79.6234C60.5666 79.7352 60.0513 79.9357 59.5741 80.2129L54.5681 83.1031C54.2815 83.275 53.9646 83.3862 53.6495 83.4255C53.3344 83.4647 53.0323 83.4306 52.774 83.3266C52.5157 83.2225 52.3103 83.0523 52.1788 82.8332C52.0473 82.614 51.9943 82.3538 52.0252 82.079L52.7232 76.5272L53.2038 72.5934C53.2804 71.987 53.1725 71.4109 52.8911 70.9234C52.6096 70.4359 52.1646 70.0544 51.6012 69.8176L32.848 61.9451C32.3632 61.7398 31.9663 61.4277 31.6858 61.0332L31.6753 61.0453C29.4533 63.5897 26.0108 64.2193 23.9863 62.4513C23.2829 61.8371 22.8433 61.0143 22.6622 60.0954C21.7321 60.0374 20.8625 59.7127 20.1625 59.1014C18.5292 57.6751 18.3178 55.1241 19.4638 52.8554C19.2687 52.7485 19.0995 52.5884 18.9801 52.3816C18.6326 51.7797 18.8388 51.0101 19.4407 50.6626C19.9378 50.3756 20.5494 50.4664 20.943 50.8458C21.0645 50.7271 21.1887 50.6136 21.3155 50.5053C21.1122 49.7006 21.1156 48.8112 21.322 47.917C20.9954 48.1557 20.6294 48.3849 20.2328 48.5943C18.3524 49.587 16.4937 49.7582 16.0811 48.9767C15.6686 48.1953 16.8585 46.7571 18.7389 45.7644C20.2543 44.9644 21.7558 44.6979 22.4974 45.0337L22.4947 45.003C21.8247 44.8255 21.2126 44.4946 20.7065 44.0041C19.48 42.8155 19.1705 40.9758 19.7112 39.17C19.3068 37.8679 19.366 36.7813 19.941 36.4777C20.2423 36.3187 20.6412 36.3978 21.0746 36.6629C21.1989 36.5136 21.3301 36.3673 21.4683 36.2248C21.5679 36.122 21.6695 36.0227 21.7729 35.927C21.2809 34.0806 21.936 31.7835 23.6364 30.0405C24.1256 29.5391 24.6628 29.123 25.224 28.7953C24.8305 28.7595 24.4598 28.5394 24.2472 28.1711C23.8997 27.5692 24.1059 26.7996 24.7077 26.4522C25.3096 26.1047 26.0792 26.3109 26.4267 26.9128C26.678 27.348 26.6397 27.871 26.3715 28.2587C27.3924 27.8933 28.4385 27.8053 29.3816 28.0106C29.6531 27.5811 29.9768 27.1676 30.3514 26.781C31.9574 25.1237 34.0859 24.3884 35.8889 24.6852C35.565 24.4994 35.2354 24.2808 34.9101 24.032C33.2212 22.7403 32.2872 21.1241 32.8241 20.4222C33.3609 19.7203 35.1653 20.1985 36.8542 21.4903C37.2288 21.7767 37.5662 22.0792 37.8587 22.3841C38.3376 21.8967 38.9169 21.4684 39.5756 21.1266C39.5536 21.1318 39.5313 21.1359 39.5088 21.1389C38.6329 21.2556 37.6951 19.6416 37.4143 17.534C37.1334 15.4263 37.6159 13.6231 38.4918 13.5064ZM67.866 14.7668C68.7227 14.9833 68.995 16.8299 68.4741 18.8914C67.9532 20.9529 66.8364 22.4486 65.9797 22.2322C65.123 22.0157 64.8507 20.169 65.3716 18.1075C65.8925 16.046 67.0092 14.5503 67.866 14.7668Z" fill="#CCBFA8"/>
<path d="M40.5863 17.1113L39.595 17.2434L39.595 17.2434L40.5863 17.1113ZM39.8674 20.9833L39.2561 20.1919L40.2883 21.8904L39.8674 20.9833ZM41.2221 20.505L41.4657 21.4749L41.2221 20.505ZM42.4738 20.298L42.5541 21.2948L43.1502 21.2467L43.3899 20.6988L42.4738 20.298ZM46.9643 16.7791L47.208 17.749L46.9643 16.7791ZM52.7654 17.9076L52.1094 18.6624L52.5768 19.0685L53.1487 18.8312L52.7654 17.9076ZM53.8398 17.5524L53.5962 16.5826L53.8398 17.5524ZM57.8267 17.6628L57.5074 18.6104L58.4682 16.8957L57.8267 17.6628ZM58.5933 17.9825L58.6883 16.987L58.1425 18.8751L58.5933 17.9825ZM60.0391 19.0723L59.295 19.7403L59.828 20.334L60.5252 19.9462L60.0391 19.0723ZM63.3679 21.5691L62.5091 22.0814L63.3679 21.5691ZM64.2929 23.7862L63.3174 24.0065L63.4273 24.4933L63.8824 24.6981L64.2929 23.7862ZM65.8018 24.7945L65.1064 25.5131L65.5507 25.9431L66.1339 25.7377L65.8018 24.7945ZM66.5747 24.5675L66.8058 25.5405L67.1434 25.4603L67.3588 25.1883L66.5747 24.5675ZM68.5907 22.8769L68.0784 22.0182L68.5907 22.8769ZM72.7168 22.2785L73.5755 21.7661L73.5755 21.7661L72.7168 22.2785ZM71.1886 24.9672L70.569 24.1823L69.2992 25.1849L70.7637 25.8724L71.1886 24.9672ZM73.8127 28.0975L72.8316 28.2905L72.8316 28.2905L73.8127 28.0975ZM73.4201 30.7664L72.5254 30.3198L72.1802 31.0113L72.7624 31.5197L73.4201 30.7664ZM74.7997 33.0923L73.8185 33.2854L74.7997 33.0923ZM70.7324 38.7828L70.4103 37.8361L69.4658 38.1575L69.785 39.1028L70.7324 38.7828ZM70.8465 40.0066L71.8388 40.1305L71.8389 40.1294L70.8465 40.0066ZM68.3316 60.1582L67.3393 60.0344L67.3389 60.038L68.3316 60.1582ZM69.9342 62.9341L69.542 63.8539L69.5429 63.8543L69.9342 62.9341ZM73.5813 64.4848L73.1901 65.405L73.1933 65.4064L73.5813 64.4848ZM78.7383 66.6561L78.3502 67.5778L78.3546 67.5796L78.7383 66.6561ZM79.3268 67.1615L78.4576 67.6559L78.4576 67.6559L79.3268 67.1615ZM79.461 67.9269L80.4511 68.0671L80.4511 68.0671L79.461 67.9269ZM78.3537 69.3705L77.879 68.4903L77.8663 68.4972L77.8537 68.5044L78.3537 69.3705ZM73.3917 72.2353L73.8906 73.1019L73.8917 73.1013L73.3917 72.2353ZM72.1247 73.2531L71.3825 72.583L72.1247 73.2531ZM71.3084 74.5425L70.3791 74.1729L70.3736 74.187L70.3684 74.2012L71.3084 74.5425ZM69.9948 76.7408L70.7518 77.3942L70.7518 77.3942L69.9948 76.7408ZM67.8937 78.4988L68.3937 79.3648L68.4011 79.3605L68.4084 79.3562L67.8937 78.4988ZM67.7474 78.5833L68.2326 79.4577L68.24 79.4535L68.2474 79.4493L67.7474 78.5833ZM62.6138 79.5623L62.7882 78.5776L62.7742 78.5751L62.76 78.573L62.6138 79.5623ZM61.089 79.6234L61.2983 80.6012L61.2984 80.6012L61.089 79.6234ZM59.5741 80.2129L60.0741 81.0789L60.0763 81.0776L59.5741 80.2129ZM54.5681 83.1031L54.0681 82.2371L54.0609 82.2412L54.0537 82.2455L54.5681 83.1031ZM53.6495 83.4255L53.5259 82.4331L53.5259 82.4331L53.6495 83.4255ZM52.774 83.3266L52.4004 84.2542L52.4004 84.2542L52.774 83.3266ZM52.1788 82.8332L53.0362 82.3185L53.0362 82.3185L52.1788 82.8332ZM52.0252 82.079L51.0329 81.9542L51.0314 81.9672L52.0252 82.079ZM52.7232 76.5272L53.7154 76.652L53.7158 76.6485L52.7232 76.5272ZM53.2038 72.5934L52.2117 72.468L52.2112 72.4721L53.2038 72.5934ZM51.6012 69.8176L51.9886 68.8957L51.9882 68.8955L51.6012 69.8176ZM32.848 61.9451L32.4581 62.8659L32.4609 62.8671L32.848 61.9451ZM31.6858 61.0332L32.5007 60.4537L31.7654 59.4196L30.9318 60.3763L31.6858 61.0332ZM31.6753 61.0453L32.4285 61.703L32.4293 61.7022L31.6753 61.0453ZM23.9863 62.4513L23.3285 63.2045L23.9863 62.4513ZM22.6622 60.0954L23.6433 59.902L23.4941 59.1453L22.7244 59.0973L22.6622 60.0954ZM20.1625 59.1014L19.5047 59.8546L19.5047 59.8546L20.1625 59.1014ZM19.4638 52.8554L20.3564 53.3063L20.7924 52.4433L19.9445 51.9785L19.4638 52.8554ZM20.943 50.8458L20.2489 51.5657L20.9475 52.2393L21.6417 51.5612L20.943 50.8458ZM21.3155 50.5053L21.9652 51.2654L22.437 50.8622L22.285 50.2604L21.3155 50.5053ZM21.322 47.917L22.2964 48.1419L22.9003 45.5251L20.732 47.1096L21.322 47.917ZM20.2328 48.5943L20.6996 49.4787L20.6996 49.4787L20.2328 48.5943ZM18.7389 45.7644L18.272 44.8801L18.7389 45.7644ZM22.4974 45.0337L22.0849 45.9447L23.6439 46.6506L23.4935 44.9458L22.4974 45.0337ZM22.4947 45.003L23.4908 44.9151L23.4291 44.2161L22.7508 44.0364L22.4947 45.003ZM20.7065 44.0041L20.0106 44.7222L20.7065 44.0041ZM19.7112 39.17L20.6691 39.4568L20.7566 39.1647L20.6662 38.8734L19.7112 39.17ZM19.941 36.4777L19.4742 35.5934L19.4742 35.5934L19.941 36.4777ZM21.0746 36.6629L20.5528 37.516L21.2904 37.9672L21.8434 37.3024L21.0746 36.6629ZM21.4683 36.2248L22.1864 36.9207L22.1864 36.9207L21.4683 36.2248ZM21.7729 35.927L22.452 36.6612L22.8944 36.2519L22.7392 35.6696L21.7729 35.927ZM23.6364 30.0405L24.3522 30.7388L23.6364 30.0405ZM25.224 28.7953L25.7283 29.6589L28.4282 28.0825L25.3146 27.7994L25.224 28.7953ZM26.3715 28.2587L25.5491 27.6898L23.7793 30.2484L26.7085 29.2002L26.3715 28.2587ZM29.3816 28.0106L29.1689 28.9877L29.8529 29.1366L30.2269 28.5449L29.3816 28.0106ZM30.3514 26.781L29.6333 26.0851L30.3514 26.781ZM35.8889 24.6852L35.7265 25.6719L36.3864 23.8178L35.8889 24.6852ZM34.9101 24.032L34.3026 24.8263L34.3026 24.8263L34.9101 24.032ZM32.8241 20.4222L32.0298 19.8147L32.8241 20.4222ZM36.8542 21.4903L36.2467 22.2846L36.2467 22.2846L36.8542 21.4903ZM37.8587 22.3841L37.1371 23.0764L37.8501 23.8196L38.5719 23.085L37.8587 22.3841ZM39.5756 21.1266L40.0362 22.0142L39.3452 20.1535L39.5756 21.1266ZM39.5088 21.1389L39.6409 22.1301L39.6409 22.1301L39.5088 21.1389ZM37.4143 17.534L38.4055 17.4019L37.4143 17.534ZM68.4741 18.8914L69.4436 19.1364L69.4436 19.1364L68.4741 18.8914ZM67.866 14.7668L67.621 15.7363L67.621 15.7363L67.866 14.7668ZM65.3716 18.1075L66.3411 18.3525L66.3411 18.3525L65.3716 18.1075ZM41.5775 16.9792C41.424 15.8275 41.0868 14.764 40.6268 13.9723C40.398 13.5786 40.113 13.2072 39.7635 12.9351C39.4103 12.6599 38.9249 12.4398 38.3597 12.5151L38.6238 14.4976C38.4966 14.5146 38.4569 14.4524 38.5346 14.5129C38.6161 14.5764 38.7473 14.7184 38.8975 14.9771C39.1956 15.4901 39.4676 16.2874 39.595 17.2434L41.5775 16.9792ZM40.4787 21.7746C41.0981 21.2962 41.398 20.4701 41.54 19.7224C41.6925 18.9196 41.7091 17.9665 41.5775 16.9792L39.595 17.2434C39.7032 18.0548 39.6814 18.7896 39.5752 19.3491C39.5221 19.6286 39.4518 19.8433 39.3804 19.9943C39.306 20.1516 39.2517 20.1953 39.2561 20.1919L40.4787 21.7746ZM40.9784 19.5352C40.44 19.6704 39.9274 19.853 39.4465 20.0762L40.2883 21.8904C40.6549 21.7203 41.0487 21.5796 41.4657 21.4749L40.9784 19.5352ZM42.3935 19.3012C41.926 19.3389 41.4524 19.4161 40.9784 19.5352L41.4657 21.4749C41.8326 21.3828 42.1969 21.3235 42.5541 21.2948L42.3935 19.3012ZM46.7207 15.8092C44.3268 16.4105 42.4039 17.9629 41.5576 19.8971L43.3899 20.6988C43.9539 19.4098 45.3264 18.2216 47.208 17.749L46.7207 15.8092ZM53.4213 17.1527C51.7602 15.7092 49.2188 15.1818 46.7207 15.8092L47.208 17.749C49.176 17.2546 51.0174 17.7134 52.1094 18.6624L53.4213 17.1527ZM53.5962 16.5826C53.1746 16.6885 52.769 16.8233 52.382 16.984L53.1487 18.8312C53.4448 18.7083 53.757 18.6043 54.0834 18.5223L53.5962 16.5826ZM58.146 16.7151C56.7733 16.2526 55.1835 16.1839 53.5962 16.5826L54.0834 18.5223C55.3171 18.2124 56.5152 18.2762 57.5074 18.6104L58.146 16.7151ZM56.6467 17.7886C56.7907 18.038 56.9741 18.2533 57.1852 18.4299L58.4682 16.8957C58.4343 16.8673 58.4038 16.832 58.3788 16.7886L56.6467 17.7886ZM57.5252 14.5102C56.3773 15.1729 55.984 16.6407 56.6467 17.7886L58.3788 16.7886C58.2683 16.5973 58.3339 16.3527 58.5252 16.2422L57.5252 14.5102ZM60.8036 15.3886C60.1409 14.2407 58.6731 13.8474 57.5252 14.5102L58.5252 16.2422C58.7165 16.1318 58.9611 16.1973 59.0716 16.3886L60.8036 15.3886ZM59.9252 18.6671C61.0731 18.0044 61.4664 16.5365 60.8036 15.3886L59.0716 16.3886C59.1821 16.58 59.1165 16.8246 58.9252 16.935L59.9252 18.6671ZM58.4982 18.978C58.978 19.0238 59.4774 18.9256 59.9252 18.6671L58.9252 16.935C58.8493 16.9789 58.7679 16.9946 58.6883 16.987L58.4982 18.978ZM60.7832 18.4042C60.2982 17.864 59.7047 17.4235 59.0441 17.0899L58.1425 18.8751C58.6023 19.1074 58.991 19.4017 59.295 19.7403L60.7832 18.4042ZM64.2267 21.0568C63.6358 20.0664 62.9132 19.2278 62.1845 18.6816C61.8219 18.4098 61.4183 18.1807 60.9953 18.0642C60.5698 17.9469 60.0439 17.9253 59.553 18.1984L60.5252 19.9462C60.4165 20.0067 60.3627 19.9644 60.464 19.9923C60.568 20.021 60.7461 20.1029 60.985 20.282C61.4594 20.6376 62.019 21.2599 62.5091 22.0814L64.2267 21.0568ZM65.2683 23.566C65.0898 22.7754 64.7316 21.903 64.2267 21.0568L62.5091 22.0814C62.9239 22.7767 63.1926 23.4534 63.3174 24.0065L65.2683 23.566ZM66.4971 24.0759C65.9843 23.5796 65.3742 23.1764 64.7033 22.8744L63.8824 24.6981C64.3609 24.9135 64.7737 25.1912 65.1064 25.5131L66.4971 24.0759ZM66.3437 23.5946C66.0442 23.6657 65.7525 23.7516 65.4696 23.8512L66.1339 25.7377C66.3504 25.6615 66.5746 25.5954 66.8058 25.5405L66.3437 23.5946ZM68.0784 22.0182C67.137 22.5798 66.3355 23.2587 65.7907 23.9468L67.3588 25.1883C67.7234 24.7278 68.3252 24.1998 69.1031 23.7357L68.0784 22.0182ZM73.5755 21.7661C73.2834 21.2764 72.8093 21.0329 72.3743 20.927C71.9439 20.8223 71.4758 20.8296 71.0252 20.895C70.1191 21.0264 69.0762 21.4229 68.0784 22.0182L69.1031 23.7357C69.9313 23.2416 70.725 22.9594 71.3123 22.8743C71.6083 22.8313 71.801 22.8459 71.9014 22.8703C71.9971 22.8936 71.9238 22.9011 71.858 22.7908L73.5755 21.7661ZM71.8083 25.752C72.4896 25.2141 73.0629 24.6043 73.419 23.9881C73.7427 23.4277 74.0483 22.5585 73.5755 21.7661L71.858 22.7908C71.7519 22.613 71.9106 22.6009 71.6872 22.9876C71.4961 23.3184 71.122 23.7457 70.569 24.1823L71.8083 25.752ZM74.7939 27.9045C74.4473 26.1426 73.2008 24.807 71.6136 24.0619L70.7637 25.8724C71.8974 26.4046 72.6319 27.2758 72.8316 28.2905L74.7939 27.9045ZM74.3148 31.2131C74.8201 30.2011 75.0211 29.059 74.7939 27.9045L72.8316 28.2905C72.9643 28.9651 72.8552 29.6591 72.5254 30.3198L74.3148 31.2131ZM75.7809 32.8993C75.5532 31.7419 74.9321 30.7591 74.0779 30.0132L72.7624 31.5197C73.3202 32.0068 73.6855 32.6092 73.8185 33.2854L75.7809 32.8993ZM71.0546 39.7295C74.1081 38.6903 76.3753 35.9207 75.7809 32.8993L73.8185 33.2854C74.1542 34.9917 72.876 36.997 70.4103 37.8361L71.0546 39.7295ZM71.8389 40.1294C71.9092 39.5612 71.8593 38.9942 71.6799 38.4628L69.785 39.1028C69.8615 39.3291 69.8902 39.5917 69.854 39.8838L71.8389 40.1294ZM69.3239 60.2821L71.8388 40.1305L69.8542 39.8828L67.3393 60.0344L69.3239 60.2821ZM69.5149 61.3256C69.3513 61.0423 69.2747 60.6882 69.3243 60.2785L67.3389 60.038C67.2418 60.8392 67.384 61.6349 67.7828 62.3256L69.5149 61.3256ZM70.3265 62.0142C69.9468 61.8523 69.6784 61.609 69.5149 61.3256L67.7828 62.3256C68.1816 63.0164 68.7996 63.5374 69.542 63.8539L70.3265 62.0142ZM73.9726 63.5645L70.3255 62.0138L69.5429 63.8543L73.1901 65.405L73.9726 63.5645ZM79.1263 65.7345L73.9694 63.5631L73.1933 65.4064L78.3502 67.5778L79.1263 65.7345ZM80.1961 66.6671C79.9494 66.2335 79.5661 65.9172 79.122 65.7327L78.3546 67.5796C78.4266 67.6095 78.4499 67.6424 78.4576 67.6559L80.1961 66.6671ZM80.4511 68.0671C80.5185 67.5914 80.4426 67.1006 80.196 66.6671L78.4576 67.6559C78.4653 67.6695 78.4821 67.7073 78.4709 67.7866L80.4511 68.0671ZM79.8968 69.3473C80.1813 68.9764 80.3844 68.538 80.4511 68.0671L78.4709 67.7866C78.459 67.8706 78.415 67.993 78.3099 68.1301L79.8968 69.3473ZM78.8284 70.2506C79.2422 70.0274 79.6118 69.7189 79.8968 69.3473L78.3099 68.1301C78.2053 68.2664 78.0571 68.3943 77.879 68.4903L78.8284 70.2506ZM73.8917 73.1013L78.8537 70.2365L77.8537 68.5044L72.8917 71.3693L73.8917 73.1013ZM72.8668 73.9233C73.1522 73.6073 73.5003 73.3266 73.8906 73.1019L72.8928 71.3686C72.3267 71.6945 71.813 72.1062 71.3825 72.583L72.8668 73.9233ZM72.2376 74.912C72.3704 74.5779 72.5813 74.2396 72.8668 73.9233L71.3825 72.583C70.9522 73.0595 70.6077 73.5982 70.3791 74.1729L72.2376 74.912ZM70.7518 77.3942C71.4106 76.6309 71.9233 75.7789 72.2483 74.8837L70.3684 74.2012C70.134 74.8467 69.7529 75.4905 69.2377 76.0875L70.7518 77.3942ZM68.4084 79.3562C69.2953 78.8238 70.0928 78.1578 70.7518 77.3942L69.2377 76.0875C68.7228 76.6841 68.0907 77.2142 67.3791 77.6414L68.4084 79.3562ZM68.2474 79.4493L68.3937 79.3648L67.3937 77.6327L67.2474 77.7172L68.2474 79.4493ZM65.3618 80.5062C66.3525 80.3172 67.3281 79.9596 68.2326 79.4577L67.2621 77.7089C66.5365 78.1116 65.7613 78.3939 64.9871 78.5416L65.3618 80.5062ZM62.4393 80.5469C63.3771 80.713 64.3713 80.695 65.3618 80.5062L64.9871 78.5416C64.2126 78.6893 63.4645 78.6974 62.7882 78.5776L62.4393 80.5469ZM61.2984 80.6012C61.7147 80.5121 62.1126 80.499 62.4675 80.5515L62.76 78.573C62.1476 78.4825 61.5082 78.511 60.8797 78.6455L61.2984 80.6012ZM60.0763 81.0776C60.4655 80.8516 60.8823 80.6903 61.2983 80.6012L60.8798 78.6455C60.251 78.7801 59.6371 79.0199 59.0718 79.3482L60.0763 81.0776ZM55.0681 83.9691L60.0741 81.0789L59.0741 79.3469L54.0681 82.2371L55.0681 83.9691ZM53.7731 84.4178C54.2336 84.3604 54.6829 84.2004 55.0825 83.9606L54.0537 82.2455C53.8802 82.3496 53.6956 82.412 53.5259 82.4331L53.7731 84.4178ZM52.4004 84.2542C52.8372 84.4301 53.3134 84.4751 53.7731 84.4178L53.5259 82.4331C53.3553 82.4544 53.2274 82.4311 53.1475 82.399L52.4004 84.2542ZM51.3214 83.3478C51.5751 83.7705 51.9593 84.0765 52.4004 84.2542L53.1476 82.399C53.072 82.3685 53.0455 82.334 53.0362 82.3185L51.3214 83.3478ZM51.0314 81.9672C50.9782 82.4411 51.0674 82.9247 51.3214 83.3478L53.0362 82.3185C53.0271 82.3034 53.0104 82.2665 53.0189 82.1907L51.0314 81.9672ZM51.731 76.4025L51.033 81.9542L53.0174 82.2037L53.7154 76.652L51.731 76.4025ZM52.2112 72.4721L51.7305 76.406L53.7158 76.6485L54.1964 72.7147L52.2112 72.4721ZM52.0251 71.4234C52.1878 71.7053 52.2634 72.0586 52.2117 72.468L54.1959 72.7188C54.2974 71.9155 54.1573 71.1165 53.7571 70.4234L52.0251 71.4234ZM51.2137 70.7394C51.5942 70.8994 51.8623 71.1415 52.0251 71.4234L53.7571 70.4234C53.3569 69.7303 52.7351 69.2094 51.9886 68.8957L51.2137 70.7394ZM32.4609 62.8671L51.2141 70.7396L51.9882 68.8955L33.2351 61.023L32.4609 62.8671ZM30.8708 61.6128C31.2674 62.1704 31.8171 62.5946 32.4581 62.8659L33.2379 61.0242C32.9093 60.8851 32.6652 60.685 32.5007 60.4537L30.8708 61.6128ZM32.4293 61.7022L32.4397 61.6902L30.9318 60.3763L30.9214 60.3883L32.4293 61.7022ZM23.3285 63.2045C25.9205 65.468 29.9914 64.4938 32.4285 61.703L30.9221 60.3875C28.9151 62.6857 26.1011 62.9705 24.6441 61.6981L23.3285 63.2045ZM21.681 60.2887C21.9002 61.4006 22.4406 62.4291 23.3285 63.2045L24.6441 61.6981C24.1253 61.2451 23.7864 60.6281 23.6433 59.902L21.681 60.2887ZM19.5047 59.8546C20.3884 60.6263 21.4743 61.0233 22.6 61.0934L22.7244 59.0973C21.9899 59.0515 21.3366 58.7991 20.8202 58.3482L19.5047 59.8546ZM18.5713 52.4045C17.2912 54.9386 17.4201 58.0342 19.5047 59.8546L20.8202 58.3482C19.6383 57.316 19.3445 55.3096 20.3564 53.3063L18.5713 52.4045ZM18.114 52.8816C18.3275 53.2513 18.632 53.5399 18.9832 53.7323L19.9445 51.9785C19.9054 51.9571 19.8714 51.9254 19.8461 51.8816L18.114 52.8816ZM18.9407 49.7966C17.8605 50.4202 17.4904 51.8014 18.114 52.8816L19.8461 51.8816C19.7748 51.758 19.8171 51.6 19.9407 51.5287L18.9407 49.7966ZM21.637 50.1259C20.931 49.4453 19.8341 49.2808 18.9407 49.7966L19.9407 51.5287C20.0415 51.4705 20.1677 51.4874 20.2489 51.5657L21.637 50.1259ZM20.6658 49.7451C20.5222 49.8678 20.3815 49.9963 20.2442 50.1305L21.6417 51.5612C21.7474 51.4579 21.8553 51.3594 21.9652 51.2654L20.6658 49.7451ZM20.3476 47.6921C20.1097 48.723 20.0995 49.7745 20.3459 50.7502L22.285 50.2604C22.125 49.6267 22.1216 48.8994 22.2964 48.1419L20.3476 47.6921ZM20.6996 49.4787C21.1376 49.2474 21.5449 48.9927 21.912 48.7244L20.732 47.1096C20.4458 47.3187 20.1212 47.5224 19.7659 47.71L20.6996 49.4787ZM15.1968 49.4436C15.463 49.9479 15.9237 50.2158 16.3526 50.3443C16.777 50.4713 17.2448 50.4884 17.6982 50.4466C18.61 50.3626 19.6721 50.0211 20.6996 49.4787L19.7659 47.71C18.9131 48.1602 18.1057 48.4006 17.5148 48.455C17.217 48.4825 17.0252 48.4579 16.9262 48.4283C16.8319 48.4 16.9055 48.3964 16.9655 48.5099L15.1968 49.4436ZM18.272 44.8801C17.2445 45.4225 16.3633 46.1069 15.7797 46.8123C15.4894 47.1632 15.2396 47.5591 15.1051 47.9811C14.9692 48.4078 14.9306 48.9393 15.1968 49.4436L16.9655 48.5099C17.0254 48.6234 16.9808 48.6822 17.0107 48.5883C17.0421 48.4899 17.13 48.3177 17.3206 48.0873C17.6989 47.6301 18.3528 47.099 19.2057 46.6488L18.272 44.8801ZM22.9098 44.1228C22.2601 43.8286 21.4534 43.852 20.722 43.9907C19.9531 44.1364 19.1047 44.4405 18.272 44.8801L19.2057 46.6488C19.8885 46.2883 20.5486 46.0592 21.0946 45.9557C21.6782 45.845 21.993 45.9031 22.0849 45.9447L22.9098 44.1228ZM21.4985 45.0909L21.5012 45.1216L23.4935 44.9458L23.4908 44.9151L21.4985 45.0909ZM20.0106 44.7222C20.6478 45.3397 21.4145 45.7513 22.2385 45.9696L22.7508 44.0364C22.2348 43.8996 21.7774 43.6494 21.4024 43.2859L20.0106 44.7222ZM18.7532 38.8832C18.1346 40.9492 18.45 43.2099 20.0106 44.7222L21.4024 43.2859C20.5099 42.421 20.2064 41.0024 20.6691 39.4568L18.7532 38.8832ZM19.4742 35.5934C18.7303 35.9861 18.5074 36.7756 18.4617 37.3731C18.4129 38.0118 18.5308 38.741 18.7561 39.4666L20.6662 38.8734C20.4871 38.2969 20.4325 37.8317 20.4559 37.5257C20.4825 37.1785 20.5767 37.2729 20.4079 37.362L19.4742 35.5934ZM21.5964 35.8099C21.0659 35.4853 20.2526 35.1824 19.4742 35.5934L20.4079 37.362C20.37 37.382 20.3343 37.3913 20.3082 37.3946C20.2838 37.3976 20.2756 37.3945 20.2883 37.3967C20.3195 37.4021 20.408 37.4274 20.5528 37.516L21.5964 35.8099ZM20.7501 35.5288C20.5944 35.6896 20.4462 35.8546 20.3058 36.0234L21.8434 37.3024C21.9515 37.1725 22.0658 37.0451 22.1864 36.9207L20.7501 35.5288ZM21.0939 35.1929C20.9771 35.301 20.8624 35.413 20.7501 35.5288L22.1864 36.9207C22.2733 36.831 22.3619 36.7445 22.452 36.6612L21.0939 35.1929ZM22.9206 29.3422C21.0211 31.2893 20.2079 33.9374 20.8066 36.1845L22.7392 35.6696C22.354 34.2239 22.851 32.2776 24.3522 30.7388L22.9206 29.3422ZM24.7198 27.9317C24.0804 28.3051 23.4721 28.7769 22.9206 29.3422L24.3522 30.7388C24.7791 30.3013 25.2451 29.9409 25.7283 29.6589L24.7198 27.9317ZM23.3811 28.6711C23.7631 29.3328 24.4301 29.7272 25.1335 29.7912L25.3146 27.7994C25.2308 27.7918 25.1564 27.746 25.1132 27.6711L23.3811 28.6711ZM24.2077 25.5861C23.1276 26.2098 22.7575 27.5909 23.3811 28.6711L25.1132 27.6711C25.0418 27.5475 25.0842 27.3895 25.2077 27.3182L24.2077 25.5861ZM27.2927 26.4128C26.6691 25.3326 25.2879 24.9625 24.2077 25.5861L25.2077 27.3182C25.3313 27.2469 25.4893 27.2892 25.5606 27.4128L27.2927 26.4128ZM27.194 28.8275C27.6737 28.134 27.7445 27.1952 27.2927 26.4128L25.5606 27.4128C25.6115 27.5008 25.6056 27.6081 25.5491 27.6898L27.194 28.8275ZM29.5944 27.0335C28.4446 26.7832 27.2074 26.8974 26.0346 27.3171L26.7085 29.2002C27.5773 28.8893 28.4324 28.8274 29.1689 28.9877L29.5944 27.0335ZM29.6333 26.0851C29.211 26.5209 28.8447 26.9885 28.5364 27.4763L30.2269 28.5449C30.4616 28.1737 30.7425 27.8143 31.0696 27.4769L29.6333 26.0851ZM36.0513 23.6985C33.875 23.3403 31.4298 24.2312 29.6333 26.0851L31.0696 27.4769C32.4851 26.0162 34.2969 25.4366 35.7265 25.6719L36.0513 23.6985ZM34.3026 24.8263C34.6619 25.1011 35.0281 25.3443 35.3914 25.5527L36.3864 23.8178C36.1018 23.6545 35.8089 23.4605 35.5177 23.2377L34.3026 24.8263ZM32.0298 19.8147C31.6833 20.2676 31.633 20.7982 31.696 21.2415C31.7584 21.68 31.9388 22.112 32.1666 22.5063C32.6247 23.299 33.3797 24.1205 34.3026 24.8263L35.5177 23.2377C34.7516 22.6518 34.1952 22.0193 33.8983 21.5056C33.7486 21.2466 33.6906 21.0622 33.6761 20.9599C33.6622 20.8624 33.6964 20.9277 33.6184 21.0297L32.0298 19.8147ZM37.4617 20.6959C36.5388 19.9901 35.5483 19.4765 34.6633 19.242C34.2231 19.1253 33.7589 19.0643 33.3194 19.119C32.8751 19.1742 32.3762 19.3618 32.0298 19.8147L33.6184 21.0297C33.5404 21.1317 33.4684 21.1158 33.5661 21.1037C33.6686 21.0909 33.8618 21.0986 34.1509 21.1752C34.7245 21.3273 35.4806 21.6987 36.2467 22.2846L37.4617 20.6959ZM38.5803 21.6918C38.2511 21.3486 37.8753 21.0123 37.4617 20.6959L36.2467 22.2846C36.5822 22.5412 36.8813 22.8097 37.1371 23.0764L38.5803 21.6918ZM39.115 20.239C38.3666 20.6274 37.7012 21.1177 37.1455 21.6832L38.5719 23.085C38.9741 22.6757 39.4673 22.3094 40.0362 22.0142L39.115 20.239ZM39.6409 22.1301C39.6966 22.1227 39.7517 22.1125 39.806 22.0997L39.3452 20.1535C39.3555 20.151 39.3661 20.1491 39.3767 20.1477L39.6409 22.1301ZM36.4231 17.666C36.5765 18.8178 36.9138 19.8813 37.3738 20.6729C37.6025 21.0667 37.8876 21.438 38.237 21.7102C38.5903 21.9853 39.0757 22.2055 39.6409 22.1301L39.3767 20.1477C39.504 20.1307 39.5437 20.1928 39.466 20.1323C39.3845 20.0688 39.2533 19.9268 39.1031 19.6682C38.805 19.1551 38.5329 18.3578 38.4055 17.4019L36.4231 17.666ZM38.3597 12.5151C37.7945 12.5904 37.3837 12.93 37.1148 13.288C36.8488 13.6422 36.6709 14.0752 36.5532 14.5151C36.3166 15.3996 36.2696 16.5143 36.4231 17.666L38.4055 17.4019C38.2782 16.4459 38.3319 15.6052 38.4853 15.032C38.5626 14.7431 38.652 14.5716 38.714 14.489C38.7732 14.4103 38.7511 14.4806 38.6238 14.4976L38.3597 12.5151ZM69.4436 19.1364C69.7282 18.0099 69.8095 16.8971 69.6759 15.9914C69.6095 15.5408 69.4825 15.0903 69.2589 14.7079C69.0329 14.3214 68.6638 13.9369 68.1109 13.7973L67.621 15.7363C67.4965 15.7049 67.4827 15.6324 67.5324 15.7175C67.5846 15.8066 67.6537 15.9872 67.6973 16.2831C67.7839 16.8701 67.7408 17.7114 67.5046 18.6465L69.4436 19.1364ZM65.7347 23.2017C66.2876 23.3414 66.795 23.1784 67.1775 22.9456C67.5559 22.7154 67.8817 22.3792 68.1541 22.0143C68.7019 21.2807 69.159 20.2629 69.4436 19.1364L67.5046 18.6465C67.2683 19.5815 66.9066 20.3423 66.5516 20.8178C66.3726 21.0574 66.226 21.1834 66.1378 21.2372C66.0536 21.2884 66.1002 21.2312 66.2247 21.2626L65.7347 23.2017ZM64.4021 17.8626C64.1174 18.989 64.0362 20.1018 64.1697 21.0076C64.2362 21.4581 64.3632 21.9087 64.5867 22.291C64.8128 22.6776 65.1819 23.062 65.7347 23.2017L66.2247 21.2626C66.3492 21.2941 66.363 21.3665 66.3133 21.2815C66.2611 21.1923 66.192 21.0118 66.1483 20.7159C66.0618 20.1288 66.1049 19.2875 66.3411 18.3525L64.4021 17.8626ZM68.1109 13.7973C67.5581 13.6576 67.0506 13.8205 66.6681 14.0533C66.2898 14.2836 65.964 14.6197 65.6915 14.9846C65.1438 15.7183 64.6867 16.7361 64.4021 17.8626L66.3411 18.3525C66.5774 17.4175 66.9391 16.6567 67.2941 16.1812C67.4731 15.9415 67.6196 15.8155 67.7079 15.7618C67.792 15.7106 67.7455 15.7678 67.621 15.7363L68.1109 13.7973Z" fill="#65524E" mask="url(#path-1-outside-1_391_1099)"/>
<path d="M70.8467 40.0066C70.9216 39.4015 70.8134 38.8268 70.533 38.34C70.2526 37.8532 69.8099 37.4714 69.2491 37.2328C68.6884 36.9943 68.0293 36.9074 67.3381 36.9808C66.6468 37.0542 65.9475 37.2855 65.3104 37.6513L33.5914 55.9643C32.9536 56.3319 32.4011 56.8215 31.9893 57.3838C31.5776 57.9461 31.3212 58.5613 31.2459 59.1676C31.1705 59.7738 31.279 60.3497 31.5603 60.8372C31.8416 61.3248 32.2858 61.7068 32.8483 61.945L51.6014 69.8175C52.1649 70.0543 52.6099 70.4358 52.8913 70.9233C53.1728 71.4108 53.2807 71.9869 53.2041 72.5933L52.7234 76.5271L52.0254 82.0789C51.9945 82.3537 52.0475 82.6139 52.1791 82.8331C52.3106 83.0522 52.5159 83.2224 52.7742 83.3265C53.0326 83.4305 53.3346 83.4646 53.6497 83.4254C53.9649 83.3861 54.2818 83.2749 54.5684 83.103L59.5743 80.2128C60.0516 79.9356 60.5669 79.7351 61.0893 79.6233C61.6117 79.5115 62.1304 79.4907 62.6141 79.5622C63.421 79.7051 64.2922 79.6921 65.1747 79.5238C66.0572 79.3555 66.9326 79.0355 67.7476 78.5832L67.894 78.4987C68.6932 78.0189 69.4081 77.4209 69.995 76.7407C70.582 76.0606 71.0289 75.3127 71.3086 74.5424C71.4894 74.0879 71.767 73.6495 72.1249 73.2531C72.4829 72.8567 72.9138 72.5105 73.392 72.2352L78.354 69.3704C78.6499 69.2108 78.9088 68.9925 79.1036 68.7386C79.2984 68.4846 79.4219 68.2042 79.4613 67.9268C79.5006 67.6493 79.4542 67.3849 79.3271 67.1614C79.1999 66.9378 78.9967 66.7633 78.7385 66.6561L73.5816 64.4847L69.9345 62.934C69.3735 62.6948 68.9303 62.3126 68.6491 61.8255C68.3679 61.3385 68.2585 60.7636 68.3319 60.1581L70.8467 40.0066Z" fill="url(#paint0_linear_391_1099)"/>
<path d="M54.0825 20.0087C53.4277 17.4019 50.2409 15.9558 46.9645 16.7788C43.6881 17.6018 41.5629 20.3821 42.2177 22.9889C42.8725 25.5957 46.0593 27.0418 49.3357 26.2189C52.6121 25.3959 54.7373 22.6155 54.0825 20.0087Z" fill="#D71E1E"/>
<path d="M48.3403 23.7348C47.6855 21.128 44.4987 19.6819 41.2223 20.5049C37.946 21.3278 35.8208 24.1082 36.4755 26.715C37.1303 29.3218 40.3171 30.7679 43.5935 29.9449C46.8699 29.122 48.9951 26.3416 48.3403 23.7348Z" fill="#E01515"/>
<path d="M60.958 20.7822C60.3032 18.1753 57.1164 16.7293 53.84 17.5522C50.5636 18.3752 48.4384 21.1556 49.0932 23.7624C49.748 26.3692 52.9348 27.8153 56.2112 26.9923C59.4876 26.1693 61.6128 23.389 60.958 20.7822Z" fill="#E01515"/>
<path d="M54.5811 24.5563C54.173 22.9315 51.6203 22.1724 48.8796 22.8608C46.1389 23.5492 44.2479 25.4245 44.6561 27.0493C45.0642 28.6741 47.6168 29.4331 50.3575 28.7447C53.0982 28.0563 54.9892 26.1811 54.5811 24.5563Z" fill="#FFBC3B"/>
<path d="M62.209 25.7245C61.5542 23.1177 58.3673 21.6716 55.091 22.4946C51.8146 23.3176 49.6894 26.098 50.3442 28.7048C50.999 31.3116 54.1858 32.7577 57.4622 31.9347C60.7385 31.1117 62.8637 28.3313 62.209 25.7245Z" fill="#F12323"/>
<path d="M49.5913 28.6772C48.9365 26.0704 45.7497 24.6243 42.4733 25.4472C39.1969 26.2702 37.0717 29.0506 37.7265 31.6574C38.3813 34.2642 41.5681 35.7103 44.8445 34.8873C48.1209 34.0644 50.2461 31.284 49.5913 28.6772Z" fill="#F12323"/>
<path d="M56.376 29.1132C55.7212 26.5064 52.5343 25.0603 49.258 25.8833C45.9816 26.7062 43.8564 29.4866 44.5112 32.0934C45.166 34.7002 48.3528 36.1463 51.6292 35.3234C54.9055 34.5004 57.0307 31.72 56.376 29.1132Z" fill="#FF3838"/>
<path d="M40.5863 17.1112C40.3055 15.0035 39.3677 13.3895 38.4918 13.5062C37.6159 13.6229 37.1335 15.4262 37.4143 17.5338C37.6952 19.6415 38.6329 21.2555 39.5088 21.1388C40.3848 21.022 40.8672 19.2188 40.5863 17.1112Z" fill="#297F37"/>
<path d="M38.9403 25.0998C39.4771 24.3979 38.5431 22.7818 36.8542 21.49C35.1653 20.1983 33.3609 19.7201 32.8241 20.422C32.2872 21.1239 33.2212 22.7401 34.9101 24.0318C36.5991 25.3236 38.4034 25.8017 38.9403 25.0998Z" fill="#297F37"/>
<path d="M39.8045 31.6199C40.3413 30.918 39.4074 29.3018 37.7184 28.01C36.0295 26.7183 34.2252 26.2401 33.6883 26.942C33.1515 27.6439 34.0855 29.2601 35.7744 30.5518C37.4633 31.8436 39.2677 32.3218 39.8045 31.6199Z" fill="#297F37"/>
<path d="M44.7108 22.7141C46.0025 21.0251 46.4807 19.2208 45.7788 18.684C45.0769 18.1471 43.4608 19.0811 42.169 20.77C40.8773 22.459 40.3991 24.2633 41.101 24.8001C41.8029 25.337 43.419 24.403 44.7108 22.7141Z" fill="#297F37"/>
<path d="M45.5902 29.2248C46.8819 27.5359 47.3601 25.7315 46.6582 25.1947C45.9563 24.6579 44.3402 25.5918 43.0484 27.2808C41.7566 28.9697 41.2785 30.7741 41.9804 31.3109C42.6823 31.8477 44.2984 30.9138 45.5902 29.2248Z" fill="#297F37"/>
<path d="M30.5844 36.8186C32.9369 34.4072 33.2886 30.9351 31.37 29.0633C29.4514 27.1916 25.989 27.6291 23.6365 30.0405C21.284 32.4519 20.9323 35.9241 22.8509 37.7958C24.7695 39.6675 28.2319 39.2301 30.5844 36.8186Z" fill="#D71E1E"/>
<path d="M37.3411 33.5543C39.692 31.1284 40.0331 27.6455 38.1029 25.775C36.1728 23.9046 32.7023 24.3549 30.3514 26.7808C28.0005 29.2067 27.6594 32.6896 29.5896 34.5601C31.5198 36.4306 34.9903 35.9803 37.3411 33.5543Z" fill="#E01515"/>
<path d="M28.4578 42.9982C30.8087 40.5723 31.1498 37.0893 29.2196 35.2189C27.2895 33.3484 23.819 33.7987 21.4681 36.2246C19.1172 38.6506 18.7761 42.1335 20.7063 44.004C22.6365 45.8744 26.107 45.4241 28.4578 42.9982Z" fill="#E01515"/>
<path d="M32.9267 38.8033C34.8932 36.774 35.5122 34.1838 34.3091 33.018C33.106 31.8521 30.5366 32.5521 28.57 34.5814C26.6035 36.6108 25.9845 39.201 27.1876 40.3668C28.3906 41.5326 30.9601 40.8326 32.9267 38.8033Z" fill="#FFBC3B"/>
<path d="M31.4472 46.7102C33.7997 44.2988 34.1514 40.8267 32.2328 38.9549C30.3142 37.0832 26.8518 37.5207 24.4993 39.9321C22.1468 42.3435 21.7951 45.8157 23.7137 47.6874C25.6323 49.5591 29.0947 49.1216 31.4472 46.7102Z" fill="#F12323"/>
<path d="M40.9915 37.0998C43.3424 34.6738 43.6835 31.1909 41.7533 29.3204C39.8232 27.45 36.3527 27.9003 34.0018 30.3262C31.6509 32.7521 31.3098 36.2351 33.24 38.1055C35.1702 39.976 38.6406 39.5257 40.9915 37.0998Z" fill="#F12323"/>
<path d="M37.3129 43.3924C39.6654 40.981 40.0171 37.5088 38.0985 35.6371C36.1799 33.7653 32.7175 34.2028 30.365 36.6142C28.0125 39.0256 27.6608 42.4978 29.5794 44.3695C31.498 46.2413 34.9605 45.8038 37.3129 43.3924Z" fill="#FF3838"/>
<path d="M22.8906 45.3819C22.478 44.6005 20.6193 44.7717 18.7389 45.7644C16.8585 46.757 15.6686 48.1952 16.0812 48.9767C16.4937 49.7581 18.3525 49.5869 20.2328 48.5942C22.1132 47.6016 23.3031 46.1634 22.8906 45.3819Z" fill="#297F37"/>
<path d="M29.1591 47.3077C28.7466 46.5262 26.8878 46.6975 25.0075 47.6901C23.1271 48.6828 21.9372 50.121 22.3497 50.9024C22.7623 51.6839 24.621 51.5127 26.5014 50.52C28.3817 49.5274 29.5717 48.0891 29.1591 47.3077Z" fill="#297F37"/>
<path d="M23.1531 39.1356C22.1605 37.2552 20.7222 36.0653 19.9408 36.4778C19.1594 36.8904 19.3306 38.7491 20.3232 40.6295C21.3159 42.5098 22.7541 43.6998 23.5355 43.2872C24.317 42.8747 24.1458 41.0159 23.1531 39.1356Z" fill="#297F37"/>
<path d="M29.4158 41.0843C28.4232 39.2039 26.985 38.014 26.2035 38.4266C25.4221 38.8391 25.5933 40.6979 26.5859 42.5782C27.5786 44.4586 29.0168 45.6485 29.7982 45.2359C30.5797 44.8234 30.4085 42.9647 29.4158 41.0843Z" fill="#297F37"/>
<path d="M68.4744 18.8915C68.9952 16.83 68.723 14.9834 67.8662 14.7669C67.0095 14.5504 65.8927 16.0461 65.3718 18.1076C64.851 20.1691 65.1232 22.0158 65.98 22.2323C66.8367 22.4488 67.9535 20.953 68.4744 18.8915Z" fill="#297F37"/>
<path d="M63.9665 25.6952C64.7254 25.2425 64.4575 23.3952 63.3681 21.5692C62.2787 19.7431 60.7804 18.6299 60.0215 19.0826C59.2626 19.5353 59.5306 21.3826 60.62 23.2086C61.7094 25.0347 63.2077 26.1479 63.9665 25.6952Z" fill="#297F37"/>
<path d="M62.3611 32.0468C63.1199 31.594 62.852 29.7467 61.7626 27.9207C60.6732 26.0947 59.1749 24.9814 58.416 25.4342C57.6572 25.8869 57.9251 27.7342 59.0145 29.5602C60.1039 31.3862 61.6022 32.4995 62.3611 32.0468Z" fill="#297F37"/>
<path d="M70.2305 25.6252C72.0565 24.5358 73.1698 23.0375 72.717 22.2786C72.2643 21.5198 70.417 21.7877 68.591 22.8771C66.765 23.9665 65.6517 25.4648 66.1044 26.2237C66.5571 26.9825 68.4044 26.7146 70.2305 25.6252Z" fill="#297F37"/>
<path d="M68.1311 32.5797C69.9619 31.4981 71.0817 30.0045 70.6322 29.2437C70.1827 28.4828 68.3342 28.7428 66.5034 29.8244C64.6726 30.9059 63.5529 32.3995 64.0023 33.1604C64.4518 33.9212 66.3003 33.6612 68.1311 32.5797Z" fill="#297F37"/>
<path d="M30.2736 51.2101C32.4957 48.6657 32.6558 45.1697 30.6313 43.4018C28.6068 41.6339 25.1643 42.2634 22.9423 44.8078C20.7203 47.3523 20.5601 50.8482 22.5846 52.6162C24.6091 54.3841 28.0516 53.7546 30.2736 51.2101Z" fill="#D71E1E"/>
<path d="M36.218 47.798C38.44 45.2535 38.6002 41.7576 36.5757 39.9897C34.5512 38.2217 31.1087 38.8513 28.8866 41.3957C26.6646 43.9402 26.5045 47.4361 28.5289 49.2041C30.5534 50.972 33.9959 50.3425 36.218 47.798Z" fill="#E01515"/>
<path d="M27.8518 57.695C30.0738 55.1505 30.234 51.6546 28.2095 49.8867C26.185 48.1187 22.7425 48.7482 20.5204 51.2927C18.2984 53.8372 18.1383 57.3331 20.1627 59.1011C22.1872 60.869 25.6297 60.2395 27.8518 57.695Z" fill="#E01515"/>
<path d="M32.0816 53.2591C33.9404 51.1306 34.4243 48.5118 33.1624 47.4099C31.9006 46.3079 29.3708 47.1401 27.5121 49.2686C25.6533 51.3971 25.1694 54.0159 26.4312 55.1178C27.6931 56.2197 30.2228 55.3875 32.0816 53.2591Z" fill="#FFBC3B"/>
<path d="M31.6755 61.0451C33.8975 58.5006 34.0577 55.0047 32.0332 53.2368C30.0087 51.4688 26.5662 52.0983 24.3442 54.6428C22.1221 57.1873 21.962 60.6832 23.9865 62.4512C26.011 64.2191 29.4535 63.5896 31.6755 61.0451Z" fill="#F12323"/>
<path d="M40.0529 51.1349C42.275 48.5905 42.4351 45.0946 40.4106 43.3266C38.3861 41.5587 34.9436 42.1882 32.7216 44.7327C30.4996 47.2771 30.3394 50.773 32.3639 52.541C34.3884 54.3089 37.8309 53.6794 40.0529 51.1349Z" fill="#F12323"/>
<path d="M37.3645 57.3957C39.5865 54.8512 39.7466 51.3553 37.7221 49.5873C35.6977 47.8194 32.2552 48.4489 30.0331 50.9934C27.8111 53.5379 27.6509 57.0338 29.6754 58.8017C31.6999 60.5697 35.1424 59.9402 37.3645 57.3957Z" fill="#FF3838"/>
<path d="M67.0023 26.9557C66.4835 24.3184 63.3758 22.7092 60.0612 23.3613C56.7466 24.0134 54.4802 26.6799 54.999 29.3172C55.5179 31.9544 58.6255 33.5637 61.9401 32.9116C65.2547 32.2594 67.5211 29.5929 67.0023 26.9557Z" fill="#D71E1E"/>
<path d="M61.0804 30.3986C60.5616 27.7613 57.4539 26.1521 54.1393 26.8042C50.8247 27.4563 48.5583 30.1228 49.0772 32.76C49.596 35.3973 52.7036 37.0065 56.0182 36.3544C59.3328 35.7023 61.5992 33.0358 61.0804 30.3986Z" fill="#E01515"/>
<path d="M73.8128 28.0973C73.294 25.46 70.1864 23.8508 66.8718 24.5029C63.5572 25.155 61.2907 27.8215 61.8096 30.4588C62.3284 33.096 65.4361 34.7053 68.7507 34.0531C72.0653 33.401 74.3317 30.7345 73.8128 28.0973Z" fill="#E01515"/>
<path d="M67.2502 31.541C66.9269 29.8972 64.417 29.0069 61.6443 29.5524C58.8716 30.0979 56.886 31.8726 57.2094 33.5164C57.5328 35.1601 60.0426 36.0505 62.8154 35.505C65.5881 34.9595 67.5736 33.1848 67.2502 31.541Z" fill="#FFBC3B"/>
<path d="M74.7997 33.0924C74.2808 30.4552 71.1732 28.8459 67.8586 29.498C64.544 30.1501 62.2776 32.8166 62.7964 35.4539C63.3152 38.0911 66.4229 39.7004 69.7375 39.0483C73.0521 38.3962 75.3185 35.7296 74.7997 33.0924Z" fill="#F12323"/>
<path d="M62.0501 35.3849C61.5313 32.7476 58.4237 31.1384 55.1091 31.7905C51.7945 32.4426 49.528 35.1091 50.0469 37.7464C50.5657 40.3836 53.6733 41.9929 56.9879 41.3407C60.3026 40.6886 62.569 38.0221 62.0501 35.3849Z" fill="#F12323"/>
<path d="M68.8021 36.192C68.2832 33.5548 65.1756 31.9455 61.861 32.5976C58.5464 33.2497 56.28 35.9162 56.7988 38.5535C57.3177 41.1907 60.4253 42.8 63.7399 42.1479C67.0545 41.4958 69.3209 38.8292 68.8021 36.192Z" fill="#FF3838"/>
<path d="M47.1355 42.9481C50.0611 41.2591 51.3433 38.0028 49.9994 35.6751C48.6555 33.3474 45.1944 32.8297 42.2689 34.5188C39.3433 36.2079 38.0611 39.4641 39.405 41.7918C40.7489 44.1195 44.21 44.6372 47.1355 42.9481Z" fill="#D71E1E"/>
<path d="M53.867 41.641C56.7925 39.9519 58.0747 36.6957 56.7308 34.368C55.3869 32.0403 51.9259 31.5226 49.0003 33.2117C46.0748 34.9008 44.7926 38.157 46.1365 40.4847C47.4803 42.8124 50.9414 43.3301 53.867 41.641Z" fill="#E01515"/>
<path d="M42.76 48.3036C45.6856 46.6145 46.9678 43.3583 45.6239 41.0306C44.28 38.7029 40.8189 38.1852 37.8934 39.8743C34.9678 41.5634 33.6856 44.8196 35.0295 47.1473C36.3734 49.475 39.8345 49.9927 42.76 48.3036Z" fill="#E01515"/>
<path d="M48.1764 45.4846C50.6237 44.0717 51.9285 41.7502 51.0909 40.2993C50.2533 38.8485 47.5903 38.8178 45.1431 40.2307C42.6958 41.6437 41.3909 43.9652 42.2286 45.416C43.0662 46.8668 45.7291 46.8975 48.1764 45.4846Z" fill="#FFBC3B"/>
<path d="M45.302 52.7054C48.2276 51.0164 49.5098 47.7602 48.1659 45.4325C46.822 43.1048 43.3609 42.5871 40.4354 44.2761C37.5098 45.9652 36.2276 49.2214 37.5715 51.5491C38.9154 53.8768 42.3765 54.3945 45.302 52.7054Z" fill="#F12323"/>
<path d="M56.4085 46.0429C59.334 44.3538 60.6162 41.0976 59.2723 38.7699C57.9284 36.4422 54.4674 35.9245 51.5418 37.6135C48.6163 39.3026 47.3341 42.5588 48.678 44.8865C50.0219 47.2142 53.4829 47.7319 56.4085 46.0429Z" fill="#F12323"/>
<path d="M51.844 51.1034C54.7696 49.4143 56.0518 46.1581 54.7079 43.8304C53.364 41.5027 49.9029 40.985 46.9774 42.6741C44.0518 44.3632 42.7696 47.6194 44.1135 49.9471C45.4574 52.2748 48.9185 52.7925 51.844 51.1034Z" fill="#FF3838"/>
<path d="M36.0348 35.6546C36.7044 35.268 36.9338 34.4117 36.5472 33.7421C36.1606 33.0725 35.3044 32.8431 34.6348 33.2297C33.9652 33.6163 33.7358 34.4725 34.1224 35.1421C34.509 35.8117 35.3652 36.0412 36.0348 35.6546Z" fill="#F7F8F8"/>
<path d="M51.4241 32.0431C52.1894 31.6012 52.4516 30.6227 52.0098 29.8574C51.5679 29.0921 50.5894 28.83 49.8241 29.2718C49.0588 29.7136 48.7966 30.6921 49.2385 31.4574C49.6803 32.2227 50.6588 32.4849 51.4241 32.0431Z" fill="#F7F8F8"/>
<path d="M25.9663 28.6314C26.5681 28.2839 26.7743 27.5143 26.4268 26.9125C26.0794 26.3106 25.3098 26.1044 24.7079 26.4519C24.1061 26.7994 23.8999 27.569 24.2473 28.1708C24.5948 28.7727 25.3644 28.9789 25.9663 28.6314Z" fill="#F7F8F8"/>
<path d="M59.5068 40.0591C60.1086 39.7116 60.3149 38.9421 59.9674 38.3402C59.6199 37.7383 58.8503 37.5321 58.2484 37.8796C57.6466 38.2271 57.4404 38.9967 57.7879 39.5985C58.1353 40.2004 58.9049 40.4066 59.5068 40.0591Z" fill="#F7F8F8"/>
<path d="M20.6992 52.8418C21.301 52.4944 21.5072 51.7248 21.1598 51.1229C20.8123 50.5211 20.0427 50.3149 19.4408 50.6623C18.839 51.0098 18.6328 51.7794 18.9802 52.3813C19.3277 52.9831 20.0973 53.1893 20.6992 52.8418Z" fill="#F7F8F8"/>
<path d="M59.4254 17.801C60.095 17.4144 60.3245 16.5582 59.9379 15.8886C59.5513 15.219 58.695 14.9896 58.0254 15.3762C57.3558 15.7628 57.1264 16.619 57.513 17.2886C57.8996 17.9582 58.7558 18.1876 59.4254 17.801Z" fill="#F7F8F8"/>
<path d="M34.6121 52.2569C35.3774 51.8151 35.6396 50.8366 35.1977 50.0713C34.7559 49.306 33.7774 49.0438 33.0121 49.4856C32.2468 49.9275 31.9846 50.906 32.4265 51.6713C32.8683 52.4366 33.8468 52.6988 34.6121 52.2569Z" fill="#F7F8F8"/>
<defs>
<linearGradient id="paint0_linear_391_1099" x1="37.3602" y1="25.8831" x2="67.7769" y2="78.5663" gradientUnits="userSpaceOnUse">
<stop stop-color="#FFD362"/>
<stop offset="1" stop-color="#FFE1A7"/>
</linearGradient>
</defs>
</svg>
