<svg width="100" height="100" viewBox="0 0 100 100" fill="none" xmlns="http://www.w3.org/2000/svg">
<g filter="url(#filter0_d_391_1218)">
<path d="M49.9202 84.425L48.3002 80.605C48.1352 80.435 47.8652 80.435 47.6952 80.605L46.0652 84.425C45.7952 84.7 45.9852 85.165 46.3652 85.165H49.6152C50.0002 85.165 50.1902 84.695 49.9202 84.425Z" fill="#7EA1FF"/>
<path d="M48.32 81.46C64.513 81.46 77.64 66.5824 77.64 48.23C77.64 29.8776 64.513 15 48.32 15C32.127 15 19 29.8776 19 48.23C19 66.5824 32.127 81.46 48.32 81.46Z" fill="url(#paint0_linear_391_1218)"/>
<path d="M48.32 81.46C64.513 81.46 77.64 66.5824 77.64 48.23C77.64 29.8776 64.513 15 48.32 15C32.127 15 19 29.8776 19 48.23C19 66.5824 32.127 81.46 48.32 81.46Z" fill="url(#paint1_linear_391_1218)"/>
<path d="M45.9453 18.4251C51.1353 17.3351 56.6603 18.8901 61.0203 21.9601C65.3803 25.0301 68.6453 29.5051 70.9903 34.3451" stroke="#C5FCFF" stroke-width="2.5" stroke-miterlimit="10" stroke-linecap="round"/>
<path d="M72.665 39.21C73.49 41.72 73.78 44.415 73.52 47.05" stroke="#C5FCFF" stroke-width="2.5" stroke-miterlimit="10" stroke-linecap="round"/>
</g>
<defs>
<filter id="filter0_d_391_1218" x="15" y="15" width="66.6401" height="78.165" filterUnits="userSpaceOnUse" color-interpolation-filters="sRGB">
<feFlood flood-opacity="0" result="BackgroundImageFix"/>
<feColorMatrix in="SourceAlpha" type="matrix" values="0 0 0 0 0 0 0 0 0 0 0 0 0 0 0 0 0 0 127 0" result="hardAlpha"/>
<feOffset dy="4"/>
<feGaussianBlur stdDeviation="2"/>
<feComposite in2="hardAlpha" operator="out"/>
<feColorMatrix type="matrix" values="0 0 0 0 0 0 0 0 0 0 0 0 0 0 0 0 0 0 0.1 0"/>
<feBlend mode="normal" in2="BackgroundImageFix" result="effect1_dropShadow_391_1218"/>
<feBlend mode="normal" in="SourceGraphic" in2="effect1_dropShadow_391_1218" result="shape"/>
</filter>
<linearGradient id="paint0_linear_391_1218" x1="48.32" y1="15" x2="48.32" y2="81.46" gradientUnits="userSpaceOnUse">
<stop stop-color="#88D0F9"/>
<stop offset="1" stop-color="#608CFF"/>
</linearGradient>
<linearGradient id="paint1_linear_391_1218" x1="48.32" y1="58.165" x2="48.32" y2="141.665" gradientUnits="userSpaceOnUse">
<stop stop-color="#FFE8FF" stop-opacity="0"/>
<stop offset="1" stop-color="#40A3FF"/>
<stop offset="1" stop-color="#FFE8FF"/>
</linearGradient>
</defs>
</svg>
