<svg width="46" height="46" viewBox="0 0 46 46" fill="none" xmlns="http://www.w3.org/2000/svg">
<path d="M13.32 13.82C12.9952 12.3919 12.9544 10.9139 13.2 9.47004C13.2437 8.96052 13.3882 8.46476 13.6251 8.01155C13.862 7.55835 14.1866 7.15673 14.58 6.83004C15.3692 6.38465 16.281 6.20578 17.18 6.32004C18.4093 6.26347 19.6163 6.66224 20.57 7.44004C21.57 8.44004 21.68 10.02 21.71 11.44" stroke="white" stroke-width="0.8" stroke-linecap="round" stroke-linejoin="round"/>
<path d="M24.28 11.85C24.1965 10.9601 24.2233 10.0633 24.36 9.18003C24.4969 8.28976 24.9473 7.47766 25.63 6.89003C26.6202 6.22801 27.8224 5.96047 29 6.14003C29.693 6.13905 30.377 6.29639 31 6.60003C31.4333 6.87595 31.8046 7.23886 32.0903 7.66576C32.3761 8.09266 32.57 8.57425 32.66 9.08003C32.8233 10.0886 32.8469 11.115 32.73 12.13" stroke="white" stroke-width="0.8" stroke-linecap="round" stroke-linejoin="round"/>
<path d="M11.59 18.4501C9.92647 19.8591 8.64685 21.6664 7.87047 23.7036C7.09409 25.7407 6.84622 27.9413 7.14999 30.1001C7.2927 31.3385 7.69111 32.5337 8.31999 33.6101C8.98761 34.6241 9.8512 35.4945 10.86 36.1701C16.6 40.2701 24 40.4001 30.6 38.5101C32.6686 38.0323 34.5733 37.0144 36.12 35.5601C37.9416 33.4031 38.8873 30.6409 38.77 27.8201C38.7956 25.7362 38.3152 23.6773 37.37 21.8201C36.4909 20.2923 35.2845 18.9781 33.8374 17.9719C32.3902 16.9656 30.7382 16.2922 29 16.0001C25.68 15.3201 22.26 15.7201 18.9 16.1301" stroke="white" stroke-width="0.8" stroke-linecap="round" stroke-linejoin="round"/>
<path d="M23.05 31.2901C23.0241 31.283 22.9969 31.2826 22.9709 31.2888C22.9448 31.295 22.9208 31.3076 22.9009 31.3255C22.881 31.3434 22.8659 31.366 22.857 31.3913C22.8481 31.4165 22.8457 31.4436 22.85 31.4701" stroke="white" stroke-width="0.8" stroke-linecap="round" stroke-linejoin="round"/>
<path d="M15.68 28.23C15.612 28.4254 15.6062 28.6371 15.6635 28.8359C15.7208 29.0347 15.8384 29.2108 16 29.34C16.1642 29.4658 16.3675 29.5297 16.5741 29.5206C16.7808 29.5115 16.9776 29.4298 17.13 29.29C17.2042 29.2199 17.2632 29.1354 17.3036 29.0417C17.344 28.948 17.3648 28.847 17.3648 28.745C17.3648 28.643 17.344 28.542 17.3036 28.4483C17.2632 28.3546 17.2042 28.2701 17.13 28.2C16.8872 28.0338 16.5918 27.9627 16.3 28C16.2018 27.9931 16.1032 28.0063 16.0103 28.039C15.9174 28.0717 15.8323 28.1231 15.76 28.19C15.64 28.35 15.76 28.65 15.93 28.62" stroke="white" stroke-width="0.8" stroke-linecap="round" stroke-linejoin="round"/>
<path d="M29.41 28.21C29.337 28.2823 29.2801 28.3692 29.243 28.4651C29.206 28.5609 29.1895 28.6635 29.1948 28.7661C29.2001 28.8687 29.227 28.969 29.2737 29.0605C29.3204 29.152 29.386 29.2326 29.466 29.2971C29.546 29.3615 29.6387 29.4083 29.7381 29.4345C29.8375 29.4606 29.9412 29.4655 30.0426 29.4488C30.144 29.4321 30.2407 29.3942 30.3264 29.3375C30.4121 29.2808 30.4849 29.2067 30.54 29.12C30.5947 28.998 30.6194 28.8647 30.6122 28.7312C30.605 28.5977 30.566 28.4679 30.4986 28.3525C30.4311 28.2371 30.337 28.1395 30.2242 28.0677C30.1114 27.996 29.9831 27.9522 29.85 27.94C29.5955 27.9556 29.3469 28.0237 29.12 28.14" stroke="white" stroke-width="0.8" stroke-linecap="round" stroke-linejoin="round"/>
<path d="M16.4699 28.41L16.0699 28.7L16.3799 28.8C16.4327 28.7653 16.4696 28.7112 16.4827 28.6494C16.4958 28.5876 16.484 28.5232 16.4499 28.47L16.8199 29.01C16.8941 28.9584 16.9546 28.8896 16.9964 28.8095C17.0382 28.7294 17.06 28.6404 17.0599 28.55C16.9985 28.5251 16.9322 28.5144 16.866 28.5188C16.7998 28.5231 16.7355 28.5423 16.6778 28.575C16.6201 28.6077 16.5705 28.653 16.5328 28.7076C16.4951 28.7621 16.4702 28.8245 16.4599 28.89C16.528 28.9229 16.6043 28.9348 16.6791 28.9241C16.7539 28.9134 16.8238 28.8807 16.8799 28.83C16.8799 28.71 16.6599 28.69 16.6399 28.83" stroke="white" stroke-width="0.8" stroke-linecap="round" stroke-linejoin="round"/>
<path d="M29.53 28.62C29.4489 28.699 29.4021 28.8068 29.4 28.92C29.5 29 29.66 28.83 29.6 28.72C29.5616 28.6661 29.5047 28.6282 29.4402 28.6134C29.3757 28.5987 29.308 28.6081 29.25 28.64V29.2C29.3118 29.21 29.3751 29.2054 29.4347 29.1864C29.4944 29.1675 29.5488 29.1349 29.5935 29.0911C29.6383 29.0473 29.6721 28.9936 29.6924 28.9344C29.7126 28.8752 29.7186 28.812 29.71 28.75C29.6725 28.7805 29.6455 28.822 29.633 28.8687C29.6204 28.9154 29.6229 28.9648 29.64 29.01H30.11C30.1173 28.9805 30.1155 28.9496 30.1047 28.9211C30.094 28.8927 30.075 28.8682 30.05 28.8509C30.0251 28.8336 29.9955 28.8242 29.9652 28.824C29.9348 28.8239 29.9051 28.8329 29.88 28.85L30.03 28.64C29.83 28.56 29.61 28.87 29.77 29.03C29.8348 29.0258 29.8975 29.0054 29.9524 28.9708C30.0073 28.9362 30.0528 28.8884 30.0845 28.8318C30.1163 28.7752 30.1335 28.7115 30.1344 28.6466C30.1354 28.5817 30.1201 28.5175 30.09 28.46" stroke="white" stroke-width="0.8" stroke-linecap="round" stroke-linejoin="round"/>
<path d="M16.8099 23.63C17.8075 23.7959 18.7685 24.1343 19.6499 24.63" stroke="white" stroke-width="0.8" stroke-linecap="round" stroke-linejoin="round"/>
<path d="M27.66 24.52C28.6085 24.1289 29.645 24.0011 30.66 24.15" stroke="white" stroke-width="0.8" stroke-linecap="round" stroke-linejoin="round"/>
<path d="M21.31 34.42C21.2475 34.8817 21.3532 35.3505 21.6078 35.7407C21.8625 36.1309 22.249 36.4164 22.6968 36.545C23.1447 36.6737 23.6238 36.6369 24.0467 36.4413C24.4696 36.2458 24.808 35.9045 25 35.48C25.1552 34.9262 25.1757 34.3434 25.06 33.78L20.9 33.92" stroke="white" stroke-width="0.8" stroke-linecap="round" stroke-linejoin="round"/>
</svg>
