<svg width="46" height="46" viewBox="0 0 46 46" fill="none" xmlns="http://www.w3.org/2000/svg">
<path d="M11.35 16.4501C9.68648 17.8591 8.40686 19.6664 7.63048 21.7036C6.8541 23.7407 6.60623 25.9413 6.91 28.1001C7.05441 29.3381 7.45271 30.533 8.08 31.6101C8.75665 32.6201 9.62261 33.4895 10.63 34.1701C16.37 38.2701 23.77 38.4001 30.36 36.5001C32.4304 36.033 34.3371 35.0175 35.88 33.5601C37.7075 31.4025 38.6538 28.6349 38.53 25.8101C38.554 23.7276 38.0772 21.6699 37.14 19.8101C36.2587 18.2892 35.054 16.9805 33.6111 15.9765C32.1682 14.9725 30.5224 14.2978 28.79 14.0001C25.46 13.3301 22.04 13.7301 18.68 14.1301" stroke="white" stroke-width="0.8" stroke-linecap="round" stroke-linejoin="round"/>
<path d="M22.86 29.36C22.8349 29.355 22.8089 29.356 22.7842 29.3631C22.7595 29.3702 22.7369 29.3831 22.7183 29.4007C22.6997 29.4184 22.6856 29.4402 22.6772 29.4645C22.6688 29.4887 22.6663 29.5147 22.67 29.54" stroke="white" stroke-width="0.8" stroke-linecap="round" stroke-linejoin="round"/>
<path d="M21 31.41C21.2302 31.7483 21.5396 32.0251 21.9013 32.2164C22.2629 32.4078 22.6659 32.5078 23.075 32.5078C23.4841 32.5078 23.8871 32.4078 24.2487 32.2164C24.6104 32.0251 24.9198 31.7483 25.15 31.41" stroke="white" stroke-width="0.8" stroke-linecap="round" stroke-linejoin="round"/>
<path d="M15.49 26.3C15.4241 26.4974 15.4215 26.7105 15.4824 26.9094C15.5434 27.1084 15.6649 27.2834 15.83 27.41C15.9963 27.5488 16.2083 27.6206 16.4247 27.6114C16.6411 27.6021 16.8462 27.5125 17 27.36C17.0729 27.2892 17.1308 27.2045 17.1704 27.1109C17.2099 27.0173 17.2303 26.9167 17.2303 26.815C17.2303 26.7134 17.2099 26.6128 17.1704 26.5192C17.1308 26.4256 17.0729 26.3409 17 26.27C16.7541 26.1115 16.4604 26.0443 16.17 26.08C16.0724 26.0699 15.9737 26.0807 15.8806 26.1118C15.7875 26.1428 15.702 26.1934 15.63 26.26C15.51 26.42 15.63 26.72 15.81 26.69" stroke="white" stroke-width="0.8" stroke-linecap="round" stroke-linejoin="round"/>
<path d="M29.2199 26.2801C29.1486 26.3544 29.0932 26.4424 29.0569 26.5388C29.0207 26.6352 29.0044 26.7379 29.0091 26.8408C29.0138 26.9437 29.0393 27.0445 29.0841 27.1372C29.129 27.2299 29.1922 27.3125 29.2699 27.3801C29.3521 27.4419 29.4461 27.4863 29.5461 27.5103C29.6461 27.5343 29.7499 27.5375 29.8512 27.5197C29.9525 27.5019 30.0491 27.4634 30.1348 27.4067C30.2206 27.35 30.2939 27.2763 30.3499 27.1901C30.4092 27.0679 30.4375 26.933 30.4324 26.7973C30.4274 26.6616 30.3892 26.5292 30.321 26.4118C30.2529 26.2943 30.157 26.1953 30.0418 26.1236C29.9265 26.0518 29.7954 26.0094 29.6599 26.0001C29.4088 26.0171 29.1638 26.0851 28.9399 26.2001" stroke="white" stroke-width="0.8" stroke-linecap="round" stroke-linejoin="round"/>
<path d="M16.29 26.4901L15.88 26.7701L16.2 26.8701C16.2482 26.8341 16.2819 26.7819 16.2947 26.7231C16.3076 26.6643 16.2988 26.6029 16.27 26.5501L16.64 27.0801C16.7142 27.0292 16.7743 26.9603 16.8145 26.8798C16.8548 26.7993 16.8739 26.7099 16.87 26.6201C16.8092 26.595 16.7434 26.5842 16.6778 26.5885C16.6122 26.5929 16.5484 26.6122 16.4914 26.645C16.4344 26.6779 16.3858 26.7234 16.3491 26.778C16.3124 26.8326 16.2888 26.8949 16.28 26.9601C16.348 26.9929 16.4243 27.0048 16.4992 26.9941C16.574 26.9834 16.6439 26.9507 16.7 26.9001C16.7 26.7801 16.47 26.7601 16.45 26.9001" stroke="white" stroke-width="0.8" stroke-linecap="round" stroke-linejoin="round"/>
<path d="M29.3399 26.7C29.2612 26.7765 29.2146 26.8803 29.2099 26.99C29.3199 27.07 29.4699 26.9 29.4099 26.79C29.3731 26.7343 29.3161 26.6948 29.251 26.6799C29.1858 26.665 29.1174 26.6758 29.0599 26.71V27.27C29.1214 27.2805 29.1844 27.2761 29.2438 27.2572C29.3032 27.2383 29.3572 27.2054 29.4013 27.1613C29.4453 27.1173 29.4782 27.0633 29.4971 27.0039C29.516 26.9445 29.5204 26.8815 29.5099 26.82C29.4741 26.8517 29.4491 26.8938 29.4384 26.9404C29.4276 26.987 29.4317 27.0358 29.4499 27.08H29.9199C29.9199 26.96 29.7799 26.83 29.6799 26.92L29.8399 26.71C29.6299 26.63 29.4199 26.94 29.5699 27.1C29.6347 27.0958 29.6974 27.0754 29.7523 27.0408C29.8073 27.0062 29.8527 26.9584 29.8845 26.9018C29.9163 26.8452 29.9334 26.7815 29.9344 26.7166C29.9353 26.6517 29.92 26.5876 29.8899 26.53" stroke="white" stroke-width="0.8" stroke-linecap="round" stroke-linejoin="round"/>
<path d="M13.61 21.86C13.921 21.4925 14.3041 21.1928 14.7356 20.9792C15.1671 20.7657 15.6378 20.643 16.1187 20.6186C16.5995 20.5942 17.0802 20.6687 17.5311 20.8376C17.9819 21.0064 18.3934 21.2659 18.74 21.6" stroke="white" stroke-width="0.8" stroke-linecap="round" stroke-linejoin="round"/>
<path d="M27.16 21.86C27.8384 21.3467 28.6741 21.085 29.5241 21.1196C30.3741 21.1543 31.1857 21.4832 31.82 22.05" stroke="white" stroke-width="0.8" stroke-linecap="round" stroke-linejoin="round"/>
<path d="M16.88 12.26C14.78 11.84 13.18 10.18 11.29 9.19005C10.1452 8.60691 8.89241 8.26646 7.60998 8.19005C6.96441 8.07479 6.30024 8.12334 5.67828 8.33124C5.05633 8.53914 4.49648 8.89975 4.04998 9.38005C3.12998 10.68 3.72998 12.6 4.93998 13.64C6.23272 14.575 7.73808 15.173 9.31998 15.38" stroke="white" stroke-width="0.8" stroke-linecap="round" stroke-linejoin="round"/>
<path d="M29.4399 12.1701C31.2699 11.7601 32.7499 10.4401 34.4399 9.58005C35.6428 8.95908 36.9527 8.57222 38.2999 8.44005C39.1345 8.3245 39.9848 8.42433 40.7699 8.73005C41.1583 8.88997 41.4962 9.1519 41.748 9.48812C41.9997 9.82434 42.1559 10.2224 42.1999 10.6401C42.2001 10.9703 42.1338 11.2972 42.005 11.6013C41.8761 11.9054 41.6874 12.1805 41.4499 12.4101C40.9688 12.8585 40.4309 13.2418 39.8499 13.5501C38.8212 14.3017 37.5839 14.7142 36.3099 14.7301" stroke="white" stroke-width="0.8" stroke-linecap="round" stroke-linejoin="round"/>
</svg>
