<svg width="101" height="100" viewBox="0 0 101 100" fill="none" xmlns="http://www.w3.org/2000/svg">
<g filter="url(#filter0_d_391_1225)">
<path d="M50.4202 84.425L48.8002 80.605C48.6352 80.435 48.3652 80.435 48.1952 80.605L46.5652 84.425C46.2952 84.7 46.4852 85.165 46.8652 85.165H50.1152C50.5002 85.165 50.6902 84.695 50.4202 84.425Z" fill="#F2D8A9"/>
<path d="M48.32 81.46C64.513 81.46 77.64 66.5824 77.64 48.23C77.64 29.8776 64.513 15 48.32 15C32.127 15 19 29.8776 19 48.23C19 66.5824 32.127 81.46 48.32 81.46Z" fill="url(#paint0_linear_391_1225)"/>
<path d="M48.32 81.46C64.513 81.46 77.64 66.5824 77.64 48.23C77.64 29.8776 64.513 15 48.32 15C32.127 15 19 29.8776 19 48.23C19 66.5824 32.127 81.46 48.32 81.46Z" fill="url(#paint1_linear_391_1225)"/>
<path d="M46.4453 18.4251C51.6353 17.3351 57.1603 18.8901 61.5203 21.9601C65.8803 25.0301 69.1453 29.5051 71.4903 34.3451" stroke="#FFF9D9" stroke-width="2.5" stroke-miterlimit="10" stroke-linecap="round"/>
<path d="M73.165 39.21C73.99 41.72 74.28 44.415 74.02 47.05" stroke="#FFF9D9" stroke-width="2.5" stroke-miterlimit="10" stroke-linecap="round"/>
</g>
<defs>
<filter id="filter0_d_391_1225" x="15" y="15" width="66.6401" height="78.165" filterUnits="userSpaceOnUse" color-interpolation-filters="sRGB">
<feFlood flood-opacity="0" result="BackgroundImageFix"/>
<feColorMatrix in="SourceAlpha" type="matrix" values="0 0 0 0 0 0 0 0 0 0 0 0 0 0 0 0 0 0 127 0" result="hardAlpha"/>
<feOffset dy="4"/>
<feGaussianBlur stdDeviation="2"/>
<feComposite in2="hardAlpha" operator="out"/>
<feColorMatrix type="matrix" values="0 0 0 0 0 0 0 0 0 0 0 0 0 0 0 0 0 0 0.1 0"/>
<feBlend mode="normal" in2="BackgroundImageFix" result="effect1_dropShadow_391_1225"/>
<feBlend mode="normal" in="SourceGraphic" in2="effect1_dropShadow_391_1225" result="shape"/>
</filter>
<linearGradient id="paint0_linear_391_1225" x1="48.32" y1="15" x2="48.32" y2="81.46" gradientUnits="userSpaceOnUse">
<stop stop-color="#FFF06B"/>
<stop offset="1" stop-color="#FFD78A"/>
</linearGradient>
<linearGradient id="paint1_linear_391_1225" x1="48.32" y1="58.165" x2="48.32" y2="141.665" gradientUnits="userSpaceOnUse">
<stop stop-color="#FFE8FF" stop-opacity="0"/>
<stop offset="1" stop-color="#40A3FF"/>
<stop offset="1" stop-color="#FFE8FF"/>
</linearGradient>
</defs>
</svg>
