<svg width="46" height="46" viewBox="0 0 46 46" fill="none" xmlns="http://www.w3.org/2000/svg">
<path d="M11.59 16.24C9.92584 17.6462 8.6456 19.4517 7.86908 21.4874C7.09257 23.5232 6.84517 25.7226 7.15002 27.88C7.29272 29.1184 7.69114 30.3136 8.32002 31.39C8.98238 32.422 9.84631 33.3098 10.86 34C16.6 38.06 24 38.18 30.6 36.29C32.6703 35.8168 34.5762 34.7982 36.12 33.34C37.9443 31.1844 38.8903 28.4212 38.77 25.6C38.7956 23.5161 38.3152 21.4572 37.37 19.6C36.4899 18.0711 35.2835 16.7552 33.8368 15.7458C32.3901 14.7364 30.7386 14.0583 29 13.76C25.68 13.09 22.26 13.49 18.9 13.89" stroke="white" stroke-width="0.8" stroke-linecap="round" stroke-linejoin="round"/>
<path d="M11.6201 14.88C11.4285 13.6359 11.5523 12.3637 11.9801 11.18C12.2409 10.2949 12.7554 9.50571 13.4601 8.90997C13.8103 8.62374 14.2327 8.43963 14.6808 8.37789C15.129 8.31614 15.5854 8.37914 16.0001 8.55997C16.358 8.76927 16.679 9.03619 16.9501 9.34997C17.8501 10.35 18.7301 11.35 19.5601 12.35" stroke="white" stroke-width="0.8" stroke-linecap="round" stroke-linejoin="round"/>
<path d="M28.76 12.68C28.71 12.76 28.57 12.68 28.54 12.61C28.5311 12.5131 28.5598 12.4164 28.62 12.34C29.5522 10.745 30.9769 9.49568 32.68 8.77998C32.9947 8.63593 33.3343 8.55442 33.68 8.53998C34.1831 8.57773 34.6604 8.77775 35.04 9.10998C36.0273 9.9309 36.7277 11.0446 37.04 12.29C37.3319 13.524 37.4297 14.7959 37.33 16.06" stroke="white" stroke-width="0.8" stroke-linecap="round" stroke-linejoin="round"/>
<path d="M23.05 28.28C23.0244 28.2753 22.9981 28.2766 22.9731 28.2837C22.9481 28.2908 22.9251 28.3035 22.9058 28.3209C22.8864 28.3382 22.8714 28.3598 22.8617 28.3839C22.852 28.4081 22.848 28.4341 22.85 28.46" stroke="white" stroke-width="0.8" stroke-linecap="round" stroke-linejoin="round"/>
<path d="M15.68 25.22C15.6182 25.4175 15.6155 25.6288 15.6724 25.8279C15.7292 26.0269 15.8431 26.2049 16 26.34C16.165 26.4639 16.3678 26.5267 16.574 26.5176C16.7801 26.5084 16.9766 26.428 17.13 26.29C17.2032 26.2183 17.2613 26.1327 17.301 26.0383C17.3407 25.9438 17.3611 25.8424 17.3611 25.74C17.3611 25.6375 17.3407 25.5361 17.301 25.4417C17.2613 25.3472 17.2032 25.2617 17.13 25.19C16.8841 25.0315 16.5904 24.9642 16.3 25C16.2015 24.9883 16.1016 24.9994 16.008 25.0323C15.9144 25.0653 15.8295 25.1192 15.76 25.19C15.64 25.34 15.76 25.64 15.93 25.61" stroke="white" stroke-width="0.8" stroke-linecap="round" stroke-linejoin="round"/>
<path d="M29.41 25.2099C29.3335 25.2816 29.2734 25.3689 29.2336 25.4659C29.1939 25.5628 29.1755 25.6672 29.1797 25.7719C29.1839 25.8767 29.2106 25.9792 29.258 26.0727C29.3054 26.1662 29.3724 26.2484 29.4543 26.3137C29.5363 26.3789 29.6314 26.4258 29.7331 26.4511C29.8348 26.4764 29.9408 26.4794 30.0438 26.4601C30.1468 26.4408 30.2444 26.3995 30.33 26.3391C30.4156 26.2787 30.4873 26.2005 30.54 26.1099C30.595 25.9886 30.62 25.8558 30.6128 25.7228C30.6057 25.5898 30.5666 25.4604 30.4989 25.3457C30.4313 25.2309 30.337 25.1342 30.224 25.0635C30.1111 24.9929 29.9828 24.9505 29.85 24.9399C29.5954 24.9471 29.3458 25.0121 29.12 25.1299" stroke="white" stroke-linecap="round" stroke-linejoin="round"/>
<path d="M16.4701 25.41L16.0701 25.69L16.3801 25.8C16.4328 25.7652 16.4697 25.7111 16.4828 25.6493C16.4959 25.5876 16.4842 25.5231 16.4501 25.47L16.8201 26.01C16.8944 25.9562 16.9549 25.8856 16.9966 25.8039C17.0383 25.7221 17.0601 25.6317 17.0601 25.54C16.9985 25.517 16.9326 25.5077 16.8671 25.5129C16.8016 25.5181 16.738 25.5376 16.6808 25.57C16.6236 25.6024 16.5742 25.647 16.536 25.7005C16.4979 25.7541 16.472 25.8153 16.4601 25.88C16.5274 25.9157 16.6044 25.9292 16.6798 25.9184C16.7553 25.9076 16.8254 25.8732 16.8801 25.82C16.8801 25.7 16.6601 25.68 16.6401 25.82" stroke="white" stroke-width="0.8" stroke-linecap="round" stroke-linejoin="round"/>
<path d="M29.53 25.6199C29.4901 25.6572 29.4581 25.702 29.4358 25.7518C29.4134 25.8016 29.4013 25.8554 29.4 25.9099C29.5 25.9999 29.66 25.8299 29.6 25.7099C29.5603 25.6577 29.5035 25.6211 29.4395 25.6065C29.3755 25.5918 29.3085 25.6001 29.25 25.6299V26.1899C29.3118 26.1999 29.3751 26.1953 29.4347 26.1764C29.4944 26.1574 29.5488 26.1248 29.5935 26.081C29.6383 26.0372 29.6721 25.9836 29.6924 25.9243C29.7126 25.8651 29.7186 25.8019 29.71 25.7399C29.6725 25.7704 29.6455 25.812 29.633 25.8586C29.6204 25.9053 29.6229 25.9547 29.64 25.9999H30.11C30.11 25.8799 29.98 25.7499 29.88 25.8299L30.03 25.6199C29.83 25.5399 29.61 25.8599 29.77 26.0099C29.8359 26.0084 29.9003 25.9897 29.9568 25.9557C30.0133 25.9217 30.06 25.8736 30.0923 25.8161C30.1246 25.7586 30.1414 25.6936 30.141 25.6277C30.1406 25.5618 30.123 25.497 30.09 25.4399" stroke="white" stroke-linecap="round" stroke-linejoin="round"/>
<path d="M13.6801 21.35C14.3466 20.887 15.1295 20.6203 15.9401 20.58" stroke="white" stroke-width="0.8" stroke-linecap="round" stroke-linejoin="round"/>
<path d="M29.0801 19.9999C30.1188 19.9027 31.166 20.0464 32.1401 20.4199" stroke="white" stroke-linecap="round" stroke-linejoin="round"/>
<path d="M21.7001 31.48C21.9224 31.7297 22.1951 31.9295 22.5001 32.0663C22.8052 32.2032 23.1357 32.2739 23.4701 32.2739C23.8044 32.2739 24.135 32.2032 24.44 32.0663C24.7451 31.9295 25.0177 31.7297 25.2401 31.48" stroke="white" stroke-width="0.8" stroke-linecap="round" stroke-linejoin="round"/>
</svg>
