<svg width="100" height="100" viewBox="0 0 100 100" fill="none" xmlns="http://www.w3.org/2000/svg">
<g filter="url(#filter0_d_391_1232)">
<path d="M47.9948 81.295C64.1878 81.295 77.3148 66.4174 77.3148 48.065C77.3148 29.7125 64.1878 14.835 47.9948 14.835C31.8018 14.835 18.6748 29.7125 18.6748 48.065C18.6748 66.4174 31.8018 81.295 47.9948 81.295Z" fill="url(#paint0_linear_391_1232)"/>
<path d="M49.9197 84.425L48.2997 80.605C48.1347 80.435 47.8647 80.435 47.6947 80.605L46.0647 84.425C45.7947 84.7 45.9847 85.165 46.3647 85.165H49.6147C49.9997 85.165 50.1897 84.695 49.9197 84.425Z" fill="#FF60A2"/>
<path d="M47.9948 81.295C64.1878 81.295 77.3148 66.4174 77.3148 48.065C77.3148 29.7125 64.1878 14.835 47.9948 14.835C31.8018 14.835 18.6748 29.7125 18.6748 48.065C18.6748 66.4174 31.8018 81.295 47.9948 81.295Z" fill="url(#paint1_linear_391_1232)"/>
<path d="M72.665 39.21C73.49 41.72 73.78 44.415 73.52 47.05" stroke="#FFC9BD" stroke-width="2.5" stroke-miterlimit="10" stroke-linecap="round"/>
<path d="M45.9448 18.4251C51.1348 17.3351 56.6598 18.8901 61.0198 21.9601C65.3798 25.0301 68.6448 29.5051 70.9898 34.3451" stroke="#FFC9BD" stroke-width="2.5" stroke-miterlimit="10" stroke-linecap="round"/>
</g>
<defs>
<filter id="filter0_d_391_1232" x="14.6748" y="14.835" width="66.6401" height="78.3301" filterUnits="userSpaceOnUse" color-interpolation-filters="sRGB">
<feFlood flood-opacity="0" result="BackgroundImageFix"/>
<feColorMatrix in="SourceAlpha" type="matrix" values="0 0 0 0 0 0 0 0 0 0 0 0 0 0 0 0 0 0 127 0" result="hardAlpha"/>
<feOffset dy="4"/>
<feGaussianBlur stdDeviation="2"/>
<feComposite in2="hardAlpha" operator="out"/>
<feColorMatrix type="matrix" values="0 0 0 0 0 0 0 0 0 0 0 0 0 0 0 0 0 0 0.1 0"/>
<feBlend mode="normal" in2="BackgroundImageFix" result="effect1_dropShadow_391_1232"/>
<feBlend mode="normal" in="SourceGraphic" in2="effect1_dropShadow_391_1232" result="shape"/>
</filter>
<linearGradient id="paint0_linear_391_1232" x1="47.9948" y1="58" x2="47.9948" y2="141.5" gradientUnits="userSpaceOnUse">
<stop stop-color="#FFE8FF" stop-opacity="0"/>
<stop offset="1" stop-color="#40A3FF"/>
<stop offset="1" stop-color="#FFE8FF"/>
</linearGradient>
<linearGradient id="paint1_linear_391_1232" x1="47.9948" y1="14.835" x2="47.9948" y2="81.295" gradientUnits="userSpaceOnUse">
<stop stop-color="#FF9595"/>
<stop offset="1" stop-color="#FF5EA2"/>
</linearGradient>
</defs>
</svg>
