<svg width="24" height="25" viewBox="0 0 24 25" fill="none" xmlns="http://www.w3.org/2000/svg">
<path d="M17.34 6.19718C17.1027 6.19718 16.8707 6.26756 16.6733 6.39942C16.476 6.53128 16.3222 6.71869 16.2313 6.93796C16.1405 7.15723 16.1168 7.39851 16.1631 7.63129C16.2094 7.86407 16.3236 8.07789 16.4915 8.24571C16.6593 8.41353 16.8731 8.52782 17.1059 8.57412C17.3387 8.62043 17.5799 8.59666 17.7992 8.50584C18.0185 8.41501 18.2059 8.26121 18.3378 8.06387C18.4696 7.86653 18.54 7.63452 18.54 7.39718C18.54 7.07892 18.4136 6.7737 18.1885 6.54865C17.9635 6.32361 17.6583 6.19718 17.34 6.19718ZM21.94 8.61718C21.9206 7.78748 21.7652 6.96659 21.48 6.18718C21.2257 5.52032 20.83 4.91646 20.32 4.41718C19.8248 3.90461 19.2196 3.51136 18.55 3.26718C17.7727 2.97334 16.9508 2.81439 16.12 2.79718C15.06 2.73718 14.72 2.73718 12 2.73718C9.28 2.73718 8.94 2.73718 7.88 2.79718C7.04915 2.81439 6.22734 2.97334 5.45 3.26718C4.78168 3.51383 4.17693 3.90674 3.68 4.41718C3.16743 4.91236 2.77418 5.51762 2.53 6.18718C2.23616 6.96453 2.07721 7.78633 2.06 8.61718C2 9.67718 2 10.0172 2 12.7372C2 15.4572 2 15.7972 2.06 16.8572C2.07721 17.688 2.23616 18.5098 2.53 19.2872C2.77418 19.9567 3.16743 20.562 3.68 21.0572C4.17693 21.5676 4.78168 21.9605 5.45 22.2072C6.22734 22.501 7.04915 22.66 7.88 22.6772C8.94 22.7372 9.28 22.7372 12 22.7372C14.72 22.7372 15.06 22.7372 16.12 22.6772C16.9508 22.66 17.7727 22.501 18.55 22.2072C19.2196 21.963 19.8248 21.5698 20.32 21.0572C20.8322 20.5598 21.2283 19.9554 21.48 19.2872C21.7652 18.5078 21.9206 17.6869 21.94 16.8572C21.94 15.7972 22 15.4572 22 12.7372C22 10.0172 22 9.67718 21.94 8.61718ZM20.14 16.7372C20.1327 17.372 20.0178 18.0009 19.8 18.5972C19.6403 19.0324 19.3839 19.4256 19.05 19.7472C18.7256 20.0777 18.3332 20.3336 17.9 20.4972C17.3037 20.7149 16.6748 20.8299 16.04 20.8372C15.04 20.8872 14.67 20.8972 12.04 20.8972C9.41 20.8972 9.04 20.8972 8.04 20.8372C7.38089 20.8495 6.72459 20.748 6.1 20.5372C5.68578 20.3653 5.31136 20.11 5 19.7872C4.66809 19.4659 4.41484 19.0724 4.26 18.6372C4.01586 18.0323 3.88044 17.3891 3.86 16.7372C3.86 15.7372 3.8 15.3672 3.8 12.7372C3.8 10.1072 3.8 9.73718 3.86 8.73718C3.86448 8.08824 3.98295 7.44513 4.21 6.83718C4.38605 6.41509 4.65627 6.03884 5 5.73718C5.30381 5.39335 5.67929 5.12028 6.1 4.93718C6.70955 4.71723 7.352 4.60226 8 4.59718C9 4.59718 9.37 4.53718 12 4.53718C14.63 4.53718 15 4.53718 16 4.59718C16.6348 4.60446 17.2637 4.71943 17.86 4.93718C18.3144 5.10583 18.7223 5.38003 19.05 5.73718C19.3777 6.04436 19.6338 6.41992 19.8 6.83718C20.0223 7.44612 20.1373 8.08896 20.14 8.73718C20.19 9.73718 20.2 10.1072 20.2 12.7372C20.2 15.3672 20.19 15.7372 20.14 16.7372ZM12 7.60718C10.9858 7.60916 9.99496 7.91171 9.15265 8.4766C8.31035 9.04149 7.65438 9.84338 7.26763 10.7809C6.88089 11.7185 6.78072 12.7496 6.97979 13.7441C7.17886 14.7386 7.66824 15.6517 8.38608 16.3682C9.10392 17.0846 10.018 17.5722 11.0129 17.7693C12.0077 17.9665 13.0387 17.8643 13.9755 17.4757C14.9123 17.0871 15.7129 16.4296 16.2761 15.5862C16.8394 14.7428 17.14 13.7514 17.14 12.7372C17.1413 12.0623 17.0092 11.3938 16.7512 10.7701C16.4933 10.1465 16.1146 9.57999 15.6369 9.10323C15.1592 8.62647 14.5919 8.24886 13.9678 7.99211C13.3436 7.73536 12.6749 7.60455 12 7.60718ZM12 16.0672C11.3414 16.0672 10.6976 15.8719 10.15 15.506C9.60234 15.1401 9.17552 14.62 8.92348 14.0115C8.67144 13.403 8.6055 12.7335 8.73398 12.0875C8.86247 11.4416 9.17963 10.8482 9.64533 10.3825C10.111 9.91681 10.7044 9.59966 11.3503 9.47117C11.9963 9.34268 12.6659 9.40862 13.2743 9.66066C13.8828 9.9127 14.4029 10.3395 14.7688 10.8871C15.1347 11.4347 15.33 12.0786 15.33 12.7372C15.33 13.1745 15.2439 13.6075 15.0765 14.0115C14.9092 14.4155 14.6639 14.7826 14.3547 15.0918C14.0454 15.4011 13.6784 15.6464 13.2743 15.8137C12.8703 15.981 12.4373 16.0672 12 16.0672Z" fill="#E9E9E9"/>
</svg>
