<svg width="24" height="25" viewBox="0 0 24 25" fill="none" xmlns="http://www.w3.org/2000/svg">
<path d="M12 2.98389C9.6255 2.98399 7.32849 3.829 5.51999 5.36773C3.71149 6.90647 2.50953 9.03851 2.12916 11.3824C1.74879 13.7262 2.21485 16.129 3.44393 18.1606C4.67301 20.1923 6.58491 21.7204 8.83755 22.4714C9.33755 22.5589 9.52505 22.2589 9.52505 21.9964C9.52505 21.7589 9.51254 20.9714 9.51254 20.1339C7.00003 20.5964 6.35003 19.5214 6.15003 18.9589C5.9281 18.4118 5.5763 17.927 5.12503 17.5464C4.77503 17.3589 4.27503 16.8964 5.11252 16.8839C5.4323 16.9186 5.73901 17.0299 6.00666 17.2083C6.2743 17.3867 6.49499 17.627 6.65003 17.9089C6.7868 18.1546 6.97071 18.3709 7.19122 18.5454C7.41173 18.7199 7.6645 18.8491 7.93506 18.9258C8.20562 19.0024 8.48864 19.0249 8.76791 18.992C9.04717 18.9591 9.3172 18.8713 9.56251 18.7339C9.6058 18.2255 9.83237 17.7502 10.2 17.3964C7.97503 17.1464 5.65003 16.2839 5.65003 12.4589C5.63597 11.4651 6.00271 10.5035 6.67503 9.77142C6.36931 8.90764 6.40508 7.9597 6.77503 7.12142C6.77503 7.12142 7.6125 6.85891 9.52503 8.14642C11.1613 7.69639 12.8887 7.69639 14.525 8.14642C16.4375 6.84642 17.275 7.12142 17.275 7.12142C17.645 7.95969 17.6808 8.90764 17.375 9.77142C18.0494 10.5022 18.4164 11.4646 18.4 12.4589C18.4 16.2964 16.0625 17.1464 13.8375 17.3964C14.0762 17.6383 14.26 17.9287 14.3764 18.2479C14.4929 18.5671 14.5393 18.9077 14.5125 19.2464C14.5125 20.5839 14.5 21.6589 14.5 21.9964C14.5 22.2589 14.6875 22.5714 15.1875 22.4714C17.4362 21.7143 19.3426 20.1827 20.5664 18.1499C21.7903 16.1172 22.2519 13.7157 21.8689 11.3741C21.4859 9.03253 20.2832 6.90326 18.4755 5.3664C16.6678 3.82954 14.3727 2.98512 12 2.98389Z" fill="#E9E9E9"/>
</svg>
